<svg xmlns="http://www.w3.org/2000/svg" width="52" height="25" shape-rendering="crispEdges" xmlns:v="https://vecta.io/nano"><style><![CDATA[.B{fill:#1c0b7f}.C{fill:#463aee}.D{fill:#7a70f3}.E{fill:#cb5bff}.F{fill:#5d24bf}.G{fill:#3a2b77}.H{fill:#b135ff}.I{fill:#d1ceee}.J{fill:#f37aff}]]></style><g class="B"><path d="M13 0h1v1h-1z"/><path d="M14 0h1v1h-1z"/><path d="M15 0h1v1h-1z"/><path d="M16 0h1v1h-1z"/><path d="M17 0h1v1h-1z"/><path d="M18 0h1v1h-1z"/><path d="M19 0h1v1h-1z"/><path d="M20 0h1v1h-1zm11 0h1v1h-1z"/><path d="M32 0h1v1h-1z"/><path d="M33 0h1v1h-1z"/><path d="M34 0h1v1h-1z"/><path d="M35 0h1v1h-1z"/><path d="M36 0h1v1h-1z"/><path d="M37 0h1v1h-1z"/><path d="M38 0h1v1h-1zM13 1h1v1h-1z"/></g><g class="C"><path d="M14 1h1v1h-1z"/><path d="M15 1h1v1h-1z"/><path d="M16 1h1v1h-1z"/><path d="M17 1h1v1h-1z"/><path d="M18 1h1v1h-1z"/><path d="M19 1h1v1h-1z"/></g><path d="M20 1h1v1h-1zm11 0h1v1h-1z" class="B"/><g class="C"><path d="M32 1h1v1h-1z"/><path d="M33 1h1v1h-1z"/><path d="M34 1h1v1h-1z"/><path d="M35 1h1v1h-1z"/><path d="M36 1h1v1h-1z"/><path d="M37 1h1v1h-1z"/></g><path d="M38 1h1v1h-1zM13 2h1v1h-1z" class="B"/><path d="M14 2h1v1h-1z" class="C"/><g class="D"><path d="M15 2h1v1h-1z"/><path d="M16 2h1v1h-1z"/><path d="M17 2h1v1h-1z"/><path d="M18 2h1v1h-1z"/></g><path d="M19 2h1v1h-1z" class="C"/><path d="M20 2h1v1h-1zm11 0h1v1h-1z" class="B"/><path d="M32 2h1v1h-1z" class="C"/><g class="D"><path d="M33 2h1v1h-1z"/><path d="M34 2h1v1h-1z"/><path d="M35 2h1v1h-1z"/><path d="M36 2h1v1h-1z"/></g><path d="M37 2h1v1h-1z" class="C"/><g class="B"><path d="M38 2h1v1h-1zM10 3h1v1h-1z"/><path d="M11 3h1v1h-1z"/><path d="M12 3h1v1h-1z"/><path d="M13 3h1v1h-1z"/></g><path d="M14 3h1v1h-1z" class="C"/><g class="D"><path d="M15 3h1v1h-1z"/><path d="M16 3h1v1h-1z"/><path d="M17 3h1v1h-1z"/><path d="M18 3h1v1h-1z"/></g><path d="M19 3h1v1h-1z" class="C"/><g class="B"><path d="M20 3h1v1h-1z"/><path d="M21 3h1v1h-1z"/><path d="M22 3h1v1h-1z"/><path d="M23 3h1v1h-1zm5 0h1v1h-1z"/><path d="M29 3h1v1h-1z"/><path d="M30 3h1v1h-1z"/><path d="M31 3h1v1h-1z"/></g><path d="M32 3h1v1h-1z" class="C"/><g class="D"><path d="M33 3h1v1h-1z"/><path d="M34 3h1v1h-1z"/><path d="M35 3h1v1h-1z"/><path d="M36 3h1v1h-1z"/></g><path d="M37 3h1v1h-1z" class="C"/><g class="B"><path d="M38 3h1v1h-1z"/><path d="M39 3h1v1h-1z"/><path d="M40 3h1v1h-1z"/><path d="M41 3h1v1h-1zM10 4h1v1h-1z"/></g><g class="C"><path d="M11 4h1v1h-1z"/><path d="M12 4h1v1h-1z"/><path d="M13 4h1v1h-1z"/><path d="M14 4h1v1h-1z"/></g><path d="M15 4h1v1h-1z" class="D"/><path d="M16 4h1v1h-1z" class="I"/><path d="M17 4h1v1h-1z" class="D"/><path d="M18 4h1v1h-1z" class="I"/><g class="C"><path d="M19 4h1v1h-1z"/><path d="M20 4h1v1h-1z"/><path d="M21 4h1v1h-1z"/><path d="M22 4h1v1h-1z"/></g><path d="M23 4h1v1h-1zm5 0h1v1h-1z" class="B"/><g class="C"><path d="M29 4h1v1h-1z"/><path d="M30 4h1v1h-1z"/><path d="M31 4h1v1h-1z"/><path d="M32 4h1v1h-1z"/></g><path d="M33 4h1v1h-1z" class="D"/><path d="M34 4h1v1h-1z" class="I"/><path d="M35 4h1v1h-1z" class="D"/><path d="M36 4h1v1h-1z" class="I"/><g class="C"><path d="M37 4h1v1h-1z"/><path d="M38 4h1v1h-1z"/><path d="M39 4h1v1h-1z"/><path d="M40 4h1v1h-1z"/></g><path d="M41 4h1v1h-1zM10 5h1v1h-1z" class="B"/><path d="M11 5h1v1h-1z" class="C"/><g class="D"><path d="M12 5h1v1h-1z"/><path d="M13 5h1v1h-1z"/><path d="M14 5h1v1h-1z"/></g><path d="M15 5h1v1h-1z" class="I"/><path d="M16 5h1v1h-1z" class="D"/><path d="M17 5h1v1h-1z" class="I"/><g class="D"><path d="M18 5h1v1h-1z"/><path d="M19 5h1v1h-1z"/><path d="M20 5h1v1h-1z"/><path d="M21 5h1v1h-1z"/></g><path d="M22 5h1v1h-1z" class="C"/><path d="M23 5h1v1h-1zm5 0h1v1h-1z" class="B"/><path d="M29 5h1v1h-1z" class="C"/><g class="D"><path d="M30 5h1v1h-1z"/><path d="M31 5h1v1h-1z"/><path d="M32 5h1v1h-1z"/></g><path d="M33 5h1v1h-1z" class="I"/><path d="M34 5h1v1h-1z" class="D"/><path d="M35 5h1v1h-1z" class="I"/><g class="D"><path d="M36 5h1v1h-1z"/><path d="M37 5h1v1h-1z"/><path d="M38 5h1v1h-1z"/><path d="M39 5h1v1h-1z"/></g><path d="M40 5h1v1h-1z" class="C"/><path d="M41 5h1v1h-1z" class="B"/><g class="G"><path d="M5 6h1v1H5z"/><path d="M6 6h1v1H6z"/><path d="M7 6h1v1H7z"/></g><path d="M10 6h1v1h-1z" class="B"/><path d="M11 6h1v1h-1z" class="C"/><g class="D"><path d="M12 6h1v1h-1z"/><path d="M13 6h1v1h-1z"/></g><path d="M14 6h1v1h-1z" class="I"/><path d="M15 6h1v1h-1z" class="D"/><path d="M16 6h1v1h-1z" class="I"/><g class="D"><path d="M17 6h1v1h-1z"/><path d="M18 6h1v1h-1z"/><path d="M19 6h1v1h-1z"/><path d="M20 6h1v1h-1z"/><path d="M21 6h1v1h-1z"/></g><path d="M22 6h1v1h-1z" class="C"/><path d="M23 6h1v1h-1zm5 0h1v1h-1z" class="B"/><path d="M29 6h1v1h-1z" class="C"/><g class="D"><path d="M30 6h1v1h-1z"/><path d="M31 6h1v1h-1z"/></g><path d="M32 6h1v1h-1z" class="I"/><path d="M33 6h1v1h-1z" class="D"/><path d="M34 6h1v1h-1z" class="I"/><g class="D"><path d="M35 6h1v1h-1z"/><path d="M36 6h1v1h-1z"/><path d="M37 6h1v1h-1z"/><path d="M38 6h1v1h-1z"/><path d="M39 6h1v1h-1z"/></g><path d="M40 6h1v1h-1z" class="C"/><path d="M41 6h1v1h-1z" class="B"/><g class="G"><path d="M43 6h1v1h-1z"/><path d="M44 6h1v1h-1z"/></g><path d="M10 7h1v1h-1z" class="B"/><path d="M11 7h1v1h-1z" class="C"/><g class="D"><path d="M12 7h1v1h-1z"/><path d="M13 7h1v1h-1z"/><path d="M14 7h1v1h-1z"/><path d="M15 7h1v1h-1z"/><path d="M16 7h1v1h-1z"/><path d="M17 7h1v1h-1z"/><path d="M18 7h1v1h-1z"/><path d="M19 7h1v1h-1z"/><path d="M20 7h1v1h-1z"/><path d="M21 7h1v1h-1z"/></g><path d="M22 7h1v1h-1z" class="C"/><path d="M23 7h1v1h-1zm5 0h1v1h-1z" class="B"/><path d="M29 7h1v1h-1z" class="C"/><g class="D"><path d="M30 7h1v1h-1z"/><path d="M31 7h1v1h-1z"/><path d="M32 7h1v1h-1z"/><path d="M33 7h1v1h-1z"/><path d="M34 7h1v1h-1z"/><path d="M35 7h1v1h-1z"/><path d="M36 7h1v1h-1z"/><path d="M37 7h1v1h-1z"/><path d="M38 7h1v1h-1z"/><path d="M39 7h1v1h-1z"/></g><path d="M40 7h1v1h-1z" class="C"/><path d="M41 7h1v1h-1z" class="B"/><path d="M47 7h1v1h-1zM2 8h1v1H2z" class="G"/><path d="M10 8h1v1h-1z" class="B"/><path d="M11 8h1v1h-1z" class="C"/><g class="D"><path d="M12 8h1v1h-1z"/><path d="M13 8h1v1h-1z"/><path d="M14 8h1v1h-1z"/><path d="M15 8h1v1h-1z"/><path d="M16 8h1v1h-1z"/><path d="M17 8h1v1h-1z"/><path d="M18 8h1v1h-1z"/><path d="M19 8h1v1h-1z"/><path d="M20 8h1v1h-1z"/><path d="M21 8h1v1h-1z"/></g><path d="M22 8h1v1h-1z" class="C"/><path d="M23 8h1v1h-1zm5 0h1v1h-1z" class="B"/><path d="M29 8h1v1h-1z" class="C"/><g class="D"><path d="M30 8h1v1h-1z"/><path d="M31 8h1v1h-1z"/><path d="M32 8h1v1h-1z"/><path d="M33 8h1v1h-1z"/><path d="M34 8h1v1h-1z"/><path d="M35 8h1v1h-1z"/><path d="M36 8h1v1h-1z"/><path d="M37 8h1v1h-1z"/><path d="M38 8h1v1h-1z"/><path d="M39 8h1v1h-1z"/></g><path d="M40 8h1v1h-1z" class="C"/><path d="M41 8h1v1h-1z" class="B"/><g class="G"><path d="M48 8h1v1h-1z"/><path d="M49 8h1v1h-1zM1 9h1v1H1z"/></g><path d="M10 9h1v1h-1z" class="B"/><g class="C"><path d="M11 9h1v1h-1z"/><path d="M12 9h1v1h-1z"/><path d="M13 9h1v1h-1z"/><path d="M14 9h1v1h-1z"/></g><g class="D"><path d="M15 9h1v1h-1z"/><path d="M16 9h1v1h-1z"/><path d="M17 9h1v1h-1z"/><path d="M18 9h1v1h-1z"/></g><g class="C"><path d="M19 9h1v1h-1z"/><path d="M20 9h1v1h-1z"/><path d="M21 9h1v1h-1z"/><path d="M22 9h1v1h-1z"/></g><path d="M23 9h1v1h-1zm5 0h1v1h-1z" class="B"/><g class="C"><path d="M29 9h1v1h-1z"/><path d="M30 9h1v1h-1z"/><path d="M31 9h1v1h-1z"/><path d="M32 9h1v1h-1z"/></g><g class="D"><path d="M33 9h1v1h-1z"/><path d="M34 9h1v1h-1z"/><path d="M35 9h1v1h-1z"/><path d="M36 9h1v1h-1z"/></g><g class="C"><path d="M37 9h1v1h-1z"/><path d="M38 9h1v1h-1z"/><path d="M39 9h1v1h-1z"/><path d="M40 9h1v1h-1z"/></g><path d="M41 9h1v1h-1z" class="B"/><path d="M50 9h1v1h-1zM0 10h1v1H0z" class="G"/><g class="B"><path d="M10 10h1v1h-1z"/><path d="M11 10h1v1h-1z"/><path d="M12 10h1v1h-1z"/><path d="M13 10h1v1h-1z"/></g><path d="M14 10h1v1h-1z" class="C"/><g class="D"><path d="M15 10h1v1h-1z"/><path d="M16 10h1v1h-1z"/><path d="M17 10h1v1h-1z"/><path d="M18 10h1v1h-1z"/></g><path d="M19 10h1v1h-1z" class="C"/><g class="B"><path d="M20 10h1v1h-1z"/><path d="M21 10h1v1h-1z"/><path d="M22 10h1v1h-1z"/><path d="M23 10h1v1h-1zm5 0h1v1h-1z"/><path d="M29 10h1v1h-1z"/><path d="M30 10h1v1h-1z"/><path d="M31 10h1v1h-1z"/></g><path d="M32 10h1v1h-1z" class="C"/><g class="D"><path d="M33 10h1v1h-1z"/><path d="M34 10h1v1h-1z"/><path d="M35 10h1v1h-1z"/><path d="M36 10h1v1h-1z"/></g><path d="M37 10h1v1h-1z" class="C"/><g class="B"><path d="M38 10h1v1h-1z"/><path d="M39 10h1v1h-1z"/><path d="M40 10h1v1h-1z"/><path d="M41 10h1v1h-1z"/></g><path d="M0 11h1v1H0z" class="G"/><g class="B"><path d="M13 11h1v1h-1z"/><path d="M14 11h1v1h-1z"/><path d="M15 11h1v1h-1z"/><path d="M16 11h1v1h-1z"/><path d="M17 11h1v1h-1z"/></g><path d="M18 11h1v1h-1z" class="D"/><path d="M19 11h1v1h-1z" class="C"/><path d="M20 11h1v1h-1zm11 0h1v1h-1z" class="B"/><path d="M32 11h1v1h-1z" class="C"/><g class="D"><path d="M33 11h1v1h-1z"/><path d="M34 11h1v1h-1z"/><path d="M35 11h1v1h-1z"/><path d="M36 11h1v1h-1z"/></g><path d="M37 11h1v1h-1z" class="C"/><g class="B"><path d="M38 11h1v1h-1zm-26 1h1v1h-1z"/><path d="M13 12h1v1h-1z"/></g><g class="E"><path d="M14 12h1v1h-1z"/><path d="M15 12h1v1h-1z"/></g><path d="M16 12h1v1h-1z" class="F"/><path d="M17 12h1v1h-1z" class="H"/><g class="B"><path d="M18 12h1v1h-1z"/><path d="M19 12h1v1h-1z"/><path d="M20 12h1v1h-1zm11 0h1v1h-1z"/></g><g class="C"><path d="M32 12h1v1h-1z"/><path d="M33 12h1v1h-1z"/><path d="M34 12h1v1h-1z"/><path d="M35 12h1v1h-1z"/><path d="M36 12h1v1h-1z"/><path d="M37 12h1v1h-1z"/></g><path d="M38 12h1v1h-1z" class="B"/><path d="M51 12h1v1h-1z" class="G"/><path d="M11 13h1v1h-1z" class="B"/><g class="E"><path d="M12 13h1v1h-1z"/><path d="M13 13h1v1h-1z"/></g><path d="M14 13h1v1h-1z" class="J"/><path d="M15 13h1v1h-1z" class="F"/><g class="H"><path d="M16 13h1v1h-1z"/><path d="M17 13h1v1h-1z"/><path d="M18 13h1v1h-1z"/><path d="M19 13h1v1h-1z"/></g><g class="B"><path d="M20 13h1v1h-1zm11 0h1v1h-1z"/><path d="M32 13h1v1h-1z"/><path d="M33 13h1v1h-1z"/><path d="M34 13h1v1h-1z"/><path d="M35 13h1v1h-1z"/><path d="M36 13h1v1h-1z"/><path d="M37 13h1v1h-1z"/><path d="M38 13h1v1h-1z"/></g><path d="M51 13h1v1h-1zM1 14h1v1H1z" class="G"/><path d="M10 14h1v1h-1z" class="B"/><g class="E"><path d="M11 14h1v1h-1z"/><path d="M12 14h1v1h-1z"/></g><path d="M13 14h1v1h-1z" class="J"/><path d="M14 14h1v1h-1z" class="F"/><g class="H"><path d="M15 14h1v1h-1z"/><path d="M16 14h1v1h-1z"/><path d="M17 14h1v1h-1z"/></g><g class="E"><path d="M18 14h1v1h-1z"/><path d="M19 14h1v1h-1z"/></g><path d="M20 14h1v1h-1z" class="H"/><path d="M21 14h1v1h-1z" class="B"/><g class="G"><path d="M50 14h1v1h-1zM2 15h1v1H2z"/><path d="M3 15h1v1H3z"/></g><path d="M10 15h1v1h-1z" class="B"/><path d="M11 15h1v1h-1z" class="E"/><g class="F"><path d="M12 15h1v1h-1z"/><path d="M13 15h1v1h-1z"/></g><g class="H"><path d="M14 15h1v1h-1z"/><path d="M15 15h1v1h-1z"/><path d="M16 15h1v1h-1z"/></g><path d="M17 15h1v1h-1z" class="E"/><g class="J"><path d="M18 15h1v1h-1z"/><path d="M19 15h1v1h-1z"/></g><path d="M20 15h1v1h-1z" class="H"/><path d="M21 15h1v1h-1z" class="B"/><path d="M4 16h1v1H4z" class="G"/><path d="M9 16h1v1H9z" class="B"/><path d="M10 16h1v1h-1z" class="E"/><g class="F"><path d="M11 16h1v1h-1z"/><path d="M12 16h1v1h-1z"/></g><path d="M13 16h1v1h-1z" class="J"/><path d="M14 16h1v1h-1z" class="H"/><g class="E"><path d="M15 16h1v1h-1z"/><path d="M16 16h1v1h-1z"/></g><path d="M17 16h1v1h-1z" class="J"/><path d="M18 16h1v1h-1z" class="H"/><path d="M19 16h1v1h-1z" class="F"/><g class="H"><path d="M20 16h1v1h-1z"/><path d="M21 16h1v1h-1z"/></g><path d="M22 16h1v1h-1z" class="B"/><path d="M47 16h1v1h-1zM7 17h1v1H7z" class="G"/><path d="M9 17h1v1H9z" class="B"/><path d="M10 17h1v1h-1z" class="E"/><path d="M11 17h1v1h-1z" class="F"/><path d="M12 17h1v1h-1z" class="J"/><path d="M13 17h1v1h-1z" class="H"/><g class="E"><path d="M14 17h1v1h-1z"/><path d="M15 17h1v1h-1z"/></g><g class="F"><path d="M16 17h1v1h-1z"/><path d="M17 17h1v1h-1z"/><path d="M18 17h1v1h-1z"/></g><g class="H"><path d="M19 17h1v1h-1z"/><path d="M20 17h1v1h-1z"/><path d="M21 17h1v1h-1z"/></g><path d="M22 17h1v1h-1z" class="B"/><path d="M44 17h1v1h-1zm2 0h1v1h-1zM8 18h1v1H8z" class="G"/><path d="M9 18h1v1H9z" class="B"/><path d="M10 18h1v1h-1z" class="F"/><g class="J"><path d="M11 18h1v1h-1z"/><path d="M12 18h1v1h-1z"/></g><g class="E"><path d="M13 18h1v1h-1z"/><path d="M14 18h1v1h-1z"/></g><g class="F"><path d="M15 18h1v1h-1z"/><path d="M16 18h1v1h-1z"/></g><g class="H"><path d="M17 18h1v1h-1z"/><path d="M18 18h1v1h-1z"/><path d="M19 18h1v1h-1z"/></g><path d="M20 18h1v1h-1z" class="J"/><path d="M21 18h1v1h-1z" class="E"/><path d="M22 18h1v1h-1z" class="B"/><g class="G"><path d="M40 18h1v1h-1z"/><path d="M41 18h1v1h-1z"/></g><path d="M9 19h1v1H9z" class="B"/><path d="M10 19h1v1h-1z" class="F"/><path d="M11 19h1v1h-1z" class="J"/><g class="E"><path d="M12 19h1v1h-1z"/><path d="M13 19h1v1h-1z"/></g><g class="F"><path d="M14 19h1v1h-1z"/><path d="M15 19h1v1h-1z"/></g><path d="M16 19h1v1h-1z" class="H"/><path d="M17 19h1v1h-1z" class="E"/><path d="M18 19h1v1h-1z" class="H"/><path d="M19 19h1v1h-1z" class="J"/><g class="E"><path d="M20 19h1v1h-1z"/><path d="M21 19h1v1h-1z"/></g><path d="M22 19h1v1h-1z" class="B"/><g class="G"><path d="M38 19h1v1h-1z"/><path d="M39 19h1v1h-1z"/></g><path d="M10 20h1v1h-1z" class="B"/><path d="M11 20h1v1h-1z" class="E"/><g class="F"><path d="M12 20h1v1h-1z"/><path d="M13 20h1v1h-1z"/><path d="M14 20h1v1h-1z"/><path d="M15 20h1v1h-1z"/></g><path d="M16 20h1v1h-1z" class="E"/><g class="J"><path d="M17 20h1v1h-1z"/><path d="M18 20h1v1h-1z"/></g><path d="M19 20h1v1h-1z" class="F"/><path d="M20 20h1v1h-1z" class="E"/><path d="M21 20h1v1h-1z" class="B"/><g class="G"><path d="M22 20h1v1h-1z"/><path d="M23 20h1v1h-1z"/><path d="M24 20h1v1h-1z"/><path d="M25 20h1v1h-1z"/><path d="M26 20h1v1h-1z"/><path d="M27 20h1v1h-1zm2 0h1v1h-1zm3 0h1v1h-1z"/><path d="M33 20h1v1h-1z"/></g><path d="M10 21h1v1h-1z" class="B"/><g class="F"><path d="M11 21h1v1h-1z"/><path d="M12 21h1v1h-1z"/><path d="M13 21h1v1h-1z"/></g><g class="E"><path d="M14 21h1v1h-1z"/><path d="M15 21h1v1h-1z"/></g><g class="F"><path d="M16 21h1v1h-1z"/><path d="M17 21h1v1h-1z"/><path d="M18 21h1v1h-1z"/></g><path d="M19 21h1v1h-1z" class="E"/><path d="M20 21h1v1h-1z" class="F"/><path d="M21 21h1v1h-1zm-10 1h1v1h-1z" class="B"/><g class="E"><path d="M12 22h1v1h-1z"/><path d="M13 22h1v1h-1z"/><path d="M14 22h1v1h-1z"/></g><g class="F"><path d="M15 22h1v1h-1z"/><path d="M16 22h1v1h-1z"/><path d="M17 22h1v1h-1z"/><path d="M18 22h1v1h-1z"/><path d="M19 22h1v1h-1z"/></g><g class="B"><path d="M20 22h1v1h-1zm-8 1h1v1h-1z"/><path d="M13 23h1v1h-1z"/></g><g class="F"><path d="M14 23h1v1h-1z"/><path d="M15 23h1v1h-1z"/><path d="M16 23h1v1h-1z"/><path d="M17 23h1v1h-1z"/></g><g class="B"><path d="M18 23h1v1h-1z"/><path d="M19 23h1v1h-1zm-5 1h1v1h-1z"/><path d="M15 24h1v1h-1z"/><path d="M16 24h1v1h-1z"/><path d="M17 24h1v1h-1z"/></g></svg>