<svg xmlns="http://www.w3.org/2000/svg" width="54" height="30" shape-rendering="crispEdges" xmlns:v="https://vecta.io/nano"><style><![CDATA[.B{fill:#870075}.C{fill:#e55ff2}.D{fill:#ffc8ff}.E{fill:#d700c1}.F{fill:#ff96ff}.G{fill:#7b0b86}.H{fill:#f248e1}.I{fill:#f19ef9}]]></style><g class="G"><path d="M10 0h1v1h-1z"/><path d="M11 0h1v1h-1z"/><path d="M12 0h1v1h-1z"/><path d="M13 0h1v1h-1z"/><path d="M14 0h1v1h-1z"/><path d="M15 0h1v1h-1zm23 0h1v1h-1z"/><path d="M39 0h1v1h-1z"/><path d="M40 0h1v1h-1z"/><path d="M41 0h1v1h-1z"/><path d="M42 0h1v1h-1z"/><path d="M43 0h1v1h-1zM10 1h1v1h-1z"/><path d="M11 1h1v1h-1z"/></g><g class="C"><path d="M12 1h1v1h-1z"/><path d="M13 1h1v1h-1z"/><path d="M14 1h1v1h-1z"/><path d="M15 1h1v1h-1z"/></g><g class="G"><path d="M16 1h1v1h-1z"/><path d="M17 1h1v1h-1z"/><path d="M18 1h1v1h-1z"/><path d="M19 1h1v1h-1z"/><path d="M20 1h1v1h-1z"/><path d="M21 1h1v1h-1zm11 0h1v1h-1z"/><path d="M33 1h1v1h-1z"/><path d="M34 1h1v1h-1z"/><path d="M35 1h1v1h-1z"/><path d="M36 1h1v1h-1z"/><path d="M37 1h1v1h-1z"/></g><g class="C"><path d="M38 1h1v1h-1z"/><path d="M39 1h1v1h-1z"/><path d="M40 1h1v1h-1z"/><path d="M41 1h1v1h-1z"/></g><g class="G"><path d="M42 1h1v1h-1z"/><path d="M43 1h1v1h-1zM10 2h1v1h-1z"/><path d="M11 2h1v1h-1z"/></g><path d="M12 2h1v1h-1z" class="C"/><g class="I"><path d="M13 2h1v1h-1z"/><path d="M14 2h1v1h-1z"/><path d="M15 2h1v1h-1z"/></g><g class="C"><path d="M16 2h1v1h-1z"/><path d="M17 2h1v1h-1z"/><path d="M18 2h1v1h-1z"/><path d="M19 2h1v1h-1z"/><path d="M20 2h1v1h-1z"/><path d="M21 2h1v1h-1z"/></g><g class="G"><path d="M22 2h1v1h-1z"/><path d="M23 2h1v1h-1z"/><path d="M24 2h1v1h-1z"/><path d="M25 2h1v1h-1z"/><path d="M26 2h1v1h-1z"/><path d="M27 2h1v1h-1z"/><path d="M28 2h1v1h-1z"/><path d="M29 2h1v1h-1z"/><path d="M30 2h1v1h-1z"/><path d="M31 2h1v1h-1z"/></g><g class="C"><path d="M32 2h1v1h-1z"/><path d="M33 2h1v1h-1z"/><path d="M34 2h1v1h-1z"/><path d="M35 2h1v1h-1z"/><path d="M36 2h1v1h-1z"/><path d="M37 2h1v1h-1z"/><path d="M38 2h1v1h-1z"/><path d="M39 2h1v1h-1z"/><path d="M40 2h1v1h-1z"/><path d="M41 2h1v1h-1z"/></g><g class="G"><path d="M42 2h1v1h-1z"/><path d="M43 2h1v1h-1zM10 3h1v1h-1z"/><path d="M11 3h1v1h-1z"/></g><path d="M12 3h1v1h-1z" class="C"/><g class="I"><path d="M13 3h1v1h-1z"/><path d="M14 3h1v1h-1z"/><path d="M15 3h1v1h-1z"/><path d="M16 3h1v1h-1z"/><path d="M17 3h1v1h-1z"/><path d="M18 3h1v1h-1z"/><path d="M19 3h1v1h-1z"/><path d="M20 3h1v1h-1z"/><path d="M21 3h1v1h-1z"/></g><g class="C"><path d="M22 3h1v1h-1z"/><path d="M23 3h1v1h-1z"/><path d="M24 3h1v1h-1z"/><path d="M25 3h1v1h-1z"/><path d="M26 3h1v1h-1z"/><path d="M27 3h1v1h-1z"/><path d="M28 3h1v1h-1z"/><path d="M29 3h1v1h-1z"/><path d="M30 3h1v1h-1z"/><path d="M31 3h1v1h-1z"/><path d="M32 3h1v1h-1z"/><path d="M33 3h1v1h-1z"/><path d="M34 3h1v1h-1z"/><path d="M35 3h1v1h-1z"/><path d="M36 3h1v1h-1z"/><path d="M37 3h1v1h-1z"/></g><g class="I"><path d="M38 3h1v1h-1z"/><path d="M39 3h1v1h-1z"/></g><g class="C"><path d="M40 3h1v1h-1z"/><path d="M41 3h1v1h-1z"/></g><g class="G"><path d="M42 3h1v1h-1z"/><path d="M43 3h1v1h-1zM10 4h1v1h-1z"/><path d="M11 4h1v1h-1z"/></g><path d="M12 4h1v1h-1z" class="C"/><g class="I"><path d="M13 4h1v1h-1z"/><path d="M14 4h1v1h-1z"/><path d="M15 4h1v1h-1z"/><path d="M16 4h1v1h-1z"/><path d="M17 4h1v1h-1z"/><path d="M18 4h1v1h-1z"/><path d="M19 4h1v1h-1z"/><path d="M20 4h1v1h-1z"/><path d="M21 4h1v1h-1z"/><path d="M22 4h1v1h-1z"/><path d="M23 4h1v1h-1z"/><path d="M24 4h1v1h-1z"/><path d="M25 4h1v1h-1z"/><path d="M26 4h1v1h-1z"/><path d="M27 4h1v1h-1z"/><path d="M28 4h1v1h-1z"/><path d="M29 4h1v1h-1z"/><path d="M30 4h1v1h-1z"/><path d="M31 4h1v1h-1z"/><path d="M32 4h1v1h-1z"/><path d="M33 4h1v1h-1z"/><path d="M34 4h1v1h-1z"/><path d="M35 4h1v1h-1z"/><path d="M36 4h1v1h-1z"/><path d="M37 4h1v1h-1z"/><path d="M38 4h1v1h-1z"/><path d="M39 4h1v1h-1z"/></g><g class="C"><path d="M40 4h1v1h-1z"/><path d="M41 4h1v1h-1z"/></g><g class="G"><path d="M42 4h1v1h-1z"/><path d="M43 4h1v1h-1zM10 5h1v1h-1z"/><path d="M11 5h1v1h-1z"/></g><path d="M12 5h1v1h-1z" class="C"/><g class="I"><path d="M13 5h1v1h-1z"/><path d="M14 5h1v1h-1z"/><path d="M15 5h1v1h-1z"/><path d="M16 5h1v1h-1z"/><path d="M17 5h1v1h-1z"/><path d="M18 5h1v1h-1z"/><path d="M19 5h1v1h-1z"/><path d="M20 5h1v1h-1z"/><path d="M21 5h1v1h-1z"/><path d="M22 5h1v1h-1z"/><path d="M23 5h1v1h-1z"/><path d="M24 5h1v1h-1z"/><path d="M25 5h1v1h-1z"/><path d="M26 5h1v1h-1z"/><path d="M27 5h1v1h-1z"/><path d="M28 5h1v1h-1z"/><path d="M29 5h1v1h-1z"/><path d="M30 5h1v1h-1z"/><path d="M31 5h1v1h-1z"/><path d="M32 5h1v1h-1z"/><path d="M33 5h1v1h-1z"/><path d="M34 5h1v1h-1z"/><path d="M35 5h1v1h-1z"/><path d="M36 5h1v1h-1z"/><path d="M37 5h1v1h-1z"/><path d="M38 5h1v1h-1z"/><path d="M39 5h1v1h-1z"/></g><g class="C"><path d="M40 5h1v1h-1z"/><path d="M41 5h1v1h-1z"/></g><g class="G"><path d="M42 5h1v1h-1z"/><path d="M43 5h1v1h-1zM10 6h1v1h-1z"/><path d="M11 6h1v1h-1z"/></g><path d="M12 6h1v1h-1z" class="C"/><g class="I"><path d="M13 6h1v1h-1z"/><path d="M14 6h1v1h-1z"/><path d="M15 6h1v1h-1z"/><path d="M16 6h1v1h-1z"/><path d="M17 6h1v1h-1z"/><path d="M18 6h1v1h-1z"/><path d="M19 6h1v1h-1z"/><path d="M20 6h1v1h-1z"/><path d="M21 6h1v1h-1z"/><path d="M22 6h1v1h-1z"/><path d="M23 6h1v1h-1z"/><path d="M24 6h1v1h-1z"/><path d="M25 6h1v1h-1z"/><path d="M26 6h1v1h-1z"/><path d="M27 6h1v1h-1z"/><path d="M28 6h1v1h-1z"/><path d="M29 6h1v1h-1z"/><path d="M30 6h1v1h-1z"/><path d="M31 6h1v1h-1z"/><path d="M32 6h1v1h-1z"/><path d="M33 6h1v1h-1z"/><path d="M34 6h1v1h-1z"/><path d="M35 6h1v1h-1z"/><path d="M36 6h1v1h-1z"/><path d="M37 6h1v1h-1z"/><path d="M38 6h1v1h-1z"/><path d="M39 6h1v1h-1z"/></g><g class="C"><path d="M40 6h1v1h-1z"/><path d="M41 6h1v1h-1z"/></g><g class="G"><path d="M42 6h1v1h-1z"/><path d="M43 6h1v1h-1zM10 7h1v1h-1z"/><path d="M11 7h1v1h-1z"/></g><path d="M12 7h1v1h-1z" class="C"/><g class="I"><path d="M13 7h1v1h-1z"/><path d="M14 7h1v1h-1z"/><path d="M15 7h1v1h-1z"/><path d="M16 7h1v1h-1z"/><path d="M17 7h1v1h-1z"/><path d="M18 7h1v1h-1z"/><path d="M19 7h1v1h-1z"/><path d="M20 7h1v1h-1z"/><path d="M21 7h1v1h-1z"/><path d="M22 7h1v1h-1z"/><path d="M23 7h1v1h-1z"/><path d="M24 7h1v1h-1z"/><path d="M25 7h1v1h-1z"/><path d="M26 7h1v1h-1z"/><path d="M27 7h1v1h-1z"/><path d="M28 7h1v1h-1z"/><path d="M29 7h1v1h-1z"/><path d="M30 7h1v1h-1z"/><path d="M31 7h1v1h-1z"/><path d="M32 7h1v1h-1z"/><path d="M33 7h1v1h-1z"/><path d="M34 7h1v1h-1z"/><path d="M35 7h1v1h-1z"/><path d="M36 7h1v1h-1z"/><path d="M37 7h1v1h-1z"/><path d="M38 7h1v1h-1z"/><path d="M39 7h1v1h-1z"/></g><g class="C"><path d="M40 7h1v1h-1z"/><path d="M41 7h1v1h-1z"/></g><g class="G"><path d="M42 7h1v1h-1z"/><path d="M43 7h1v1h-1z"/></g><g class="B"><path d="M47 7h1v1h-1z"/><path d="M48 7h1v1h-1zM9 8h1v1H9z"/></g><g class="G"><path d="M10 8h1v1h-1z"/><path d="M11 8h1v1h-1z"/></g><path d="M12 8h1v1h-1z" class="C"/><g class="I"><path d="M13 8h1v1h-1z"/><path d="M14 8h1v1h-1z"/><path d="M15 8h1v1h-1z"/><path d="M16 8h1v1h-1z"/><path d="M17 8h1v1h-1z"/><path d="M18 8h1v1h-1z"/><path d="M19 8h1v1h-1z"/><path d="M20 8h1v1h-1z"/><path d="M21 8h1v1h-1z"/><path d="M22 8h1v1h-1z"/><path d="M23 8h1v1h-1z"/><path d="M24 8h1v1h-1z"/><path d="M25 8h1v1h-1z"/><path d="M26 8h1v1h-1z"/><path d="M27 8h1v1h-1z"/><path d="M28 8h1v1h-1z"/><path d="M29 8h1v1h-1z"/><path d="M30 8h1v1h-1z"/><path d="M31 8h1v1h-1z"/><path d="M32 8h1v1h-1z"/><path d="M33 8h1v1h-1z"/><path d="M34 8h1v1h-1z"/><path d="M35 8h1v1h-1z"/><path d="M36 8h1v1h-1z"/><path d="M37 8h1v1h-1z"/><path d="M38 8h1v1h-1z"/><path d="M39 8h1v1h-1z"/></g><g class="C"><path d="M40 8h1v1h-1z"/><path d="M41 8h1v1h-1z"/></g><g class="G"><path d="M42 8h1v1h-1z"/><path d="M43 8h1v1h-1z"/></g><path d="M46 8h1v1h-1z" class="B"/><path d="M47 8h1v1h-1z" class="F"/><path fill="#ff62ff" d="M48 8h1v1h-1z"/><g class="B"><path d="M49 8h1v1h-1zM6 9h1v1H6z"/><path d="M7 9h1v1H7z"/><path d="M8 9h1v1H8z"/></g><g class="G"><path d="M10 9h1v1h-1z"/><path d="M11 9h1v1h-1z"/></g><path d="M12 9h1v1h-1z" class="C"/><g class="I"><path d="M13 9h1v1h-1z"/><path d="M14 9h1v1h-1z"/><path d="M15 9h1v1h-1z"/><path d="M16 9h1v1h-1z"/><path d="M17 9h1v1h-1z"/><path d="M18 9h1v1h-1z"/><path d="M19 9h1v1h-1z"/><path d="M20 9h1v1h-1z"/><path d="M21 9h1v1h-1z"/><path d="M22 9h1v1h-1z"/><path d="M23 9h1v1h-1z"/><path d="M24 9h1v1h-1z"/><path d="M25 9h1v1h-1z"/><path d="M26 9h1v1h-1z"/><path d="M27 9h1v1h-1z"/><path d="M28 9h1v1h-1z"/><path d="M29 9h1v1h-1z"/><path d="M30 9h1v1h-1z"/><path d="M31 9h1v1h-1z"/><path d="M32 9h1v1h-1z"/><path d="M33 9h1v1h-1z"/><path d="M34 9h1v1h-1z"/><path d="M35 9h1v1h-1z"/><path d="M36 9h1v1h-1z"/><path d="M37 9h1v1h-1z"/><path d="M38 9h1v1h-1z"/><path d="M39 9h1v1h-1z"/></g><g class="C"><path d="M40 9h1v1h-1z"/><path d="M41 9h1v1h-1z"/></g><g class="G"><path d="M42 9h1v1h-1z"/><path d="M43 9h1v1h-1z"/></g><path d="M45 9h1v1h-1z" class="B"/><path d="M46 9h1v1h-1z" class="F"/><g class="D"><path d="M47 9h1v1h-1z"/><path d="M48 9h1v1h-1z"/></g><path d="M49 9h1v1h-1z" class="E"/><path d="M50 9h1v1h-1zM5 10h1v1H5z" class="B"/><g class="G"><path d="M10 10h1v1h-1z"/><path d="M11 10h1v1h-1z"/></g><path d="M12 10h1v1h-1z" class="C"/><g class="I"><path d="M13 10h1v1h-1z"/><path d="M14 10h1v1h-1z"/><path d="M15 10h1v1h-1z"/><path d="M16 10h1v1h-1z"/><path d="M17 10h1v1h-1z"/><path d="M18 10h1v1h-1z"/><path d="M19 10h1v1h-1z"/><path d="M20 10h1v1h-1z"/><path d="M21 10h1v1h-1z"/><path d="M22 10h1v1h-1z"/><path d="M23 10h1v1h-1z"/><path d="M24 10h1v1h-1z"/><path d="M25 10h1v1h-1z"/><path d="M26 10h1v1h-1z"/><path d="M27 10h1v1h-1z"/><path d="M28 10h1v1h-1z"/><path d="M29 10h1v1h-1z"/><path d="M30 10h1v1h-1z"/><path d="M31 10h1v1h-1z"/><path d="M32 10h1v1h-1z"/><path d="M33 10h1v1h-1z"/><path d="M34 10h1v1h-1z"/><path d="M35 10h1v1h-1z"/><path d="M36 10h1v1h-1z"/><path d="M37 10h1v1h-1z"/><path d="M38 10h1v1h-1z"/><path d="M39 10h1v1h-1z"/></g><g class="C"><path d="M40 10h1v1h-1z"/><path d="M41 10h1v1h-1z"/></g><g class="G"><path d="M42 10h1v1h-1z"/><path d="M43 10h1v1h-1z"/></g><path d="M45 10h1v1h-1z" class="B"/><path fill="#ff62ff" d="M46 10h1v1h-1z"/><path d="M47 10h1v1h-1z" class="D"/><g class="E"><path d="M48 10h1v1h-1z"/><path d="M49 10h1v1h-1z"/></g><g class="B"><path d="M50 10h1v1h-1zM3 11h1v1H3z"/><path d="M4 11h1v1H4z"/><path d="M5 11h1v1H5z"/><path d="M6 11h1v1H6z"/><path d="M7 11h1v1H7z"/></g><g class="G"><path d="M10 11h1v1h-1z"/><path d="M11 11h1v1h-1z"/></g><path d="M12 11h1v1h-1z" class="C"/><g class="I"><path d="M13 11h1v1h-1z"/><path d="M14 11h1v1h-1z"/><path d="M15 11h1v1h-1z"/><path d="M16 11h1v1h-1z"/><path d="M17 11h1v1h-1z"/><path d="M18 11h1v1h-1z"/><path d="M19 11h1v1h-1z"/><path d="M20 11h1v1h-1z"/><path d="M21 11h1v1h-1z"/><path d="M22 11h1v1h-1z"/><path d="M23 11h1v1h-1z"/><path d="M24 11h1v1h-1z"/><path d="M25 11h1v1h-1z"/><path d="M26 11h1v1h-1z"/><path d="M27 11h1v1h-1z"/><path d="M28 11h1v1h-1z"/><path d="M29 11h1v1h-1z"/><path d="M30 11h1v1h-1z"/><path d="M31 11h1v1h-1z"/><path d="M32 11h1v1h-1z"/><path d="M33 11h1v1h-1z"/><path d="M34 11h1v1h-1z"/><path d="M35 11h1v1h-1z"/><path d="M36 11h1v1h-1z"/><path d="M37 11h1v1h-1z"/><path d="M38 11h1v1h-1z"/><path d="M39 11h1v1h-1z"/></g><g class="C"><path d="M40 11h1v1h-1z"/><path d="M41 11h1v1h-1z"/></g><g class="G"><path d="M42 11h1v1h-1z"/><path d="M43 11h1v1h-1z"/></g><path d="M46 11h1v1h-1z" class="B"/><g class="E"><path d="M47 11h1v1h-1z"/><path d="M48 11h1v1h-1z"/></g><path d="M49 11h1v1h-1zM2 12h1v1H2z" class="B"/><path d="M3 12h1v1H3z" class="H"/><g class="F"><path d="M4 12h1v1H4z"/><path d="M5 12h1v1H5z"/><path d="M6 12h1v1H6z"/><path d="M7 12h1v1H7z"/></g><path d="M8 12h1v1H8z" class="B"/><g class="G"><path d="M10 12h1v1h-1z"/><path d="M11 12h1v1h-1z"/></g><path d="M12 12h1v1h-1z" class="C"/><g class="I"><path d="M13 12h1v1h-1z"/><path d="M14 12h1v1h-1z"/></g><g class="C"><path d="M15 12h1v1h-1z"/><path d="M16 12h1v1h-1z"/></g><g class="I"><path d="M17 12h1v1h-1z"/><path d="M18 12h1v1h-1z"/><path d="M19 12h1v1h-1z"/><path d="M20 12h1v1h-1z"/><path d="M21 12h1v1h-1z"/><path d="M22 12h1v1h-1z"/><path d="M23 12h1v1h-1z"/><path d="M24 12h1v1h-1z"/><path d="M25 12h1v1h-1z"/></g><g class="C"><path d="M26 12h1v1h-1z"/><path d="M27 12h1v1h-1z"/></g><g class="I"><path d="M28 12h1v1h-1z"/><path d="M29 12h1v1h-1z"/><path d="M30 12h1v1h-1z"/><path d="M31 12h1v1h-1z"/><path d="M32 12h1v1h-1z"/><path d="M33 12h1v1h-1z"/><path d="M34 12h1v1h-1z"/><path d="M35 12h1v1h-1z"/><path d="M36 12h1v1h-1z"/></g><g class="C"><path d="M37 12h1v1h-1z"/><path d="M38 12h1v1h-1z"/></g><path d="M39 12h1v1h-1z" class="I"/><g class="C"><path d="M40 12h1v1h-1z"/><path d="M41 12h1v1h-1z"/></g><g class="G"><path d="M42 12h1v1h-1z"/><path d="M43 12h1v1h-1z"/></g><g class="B"><path d="M47 12h1v1h-1z"/><path d="M48 12h1v1h-1zm3 0h1v1h-1zM1 13h1v1H1z"/></g><path d="M2 13h1v1H2z" class="H"/><g class="F"><path d="M3 13h1v1H3z"/><path d="M4 13h1v1H4z"/></g><path d="M5 13h1v1H5z" class="E"/><g class="D"><path d="M6 13h1v1H6z"/><path d="M7 13h1v1H7z"/><path d="M8 13h1v1H8z"/></g><path d="M9 13h1v1H9z" class="B"/><g class="G"><path d="M10 13h1v1h-1z"/><path d="M11 13h1v1h-1z"/></g><g class="C"><path d="M12 13h1v1h-1z"/><path d="M13 13h1v1h-1z"/><path d="M14 13h1v1h-1z"/><path d="M15 13h1v1h-1z"/><path d="M16 13h1v1h-1z"/><path d="M17 13h1v1h-1z"/><path d="M18 13h1v1h-1z"/></g><g class="I"><path d="M19 13h1v1h-1z"/><path d="M20 13h1v1h-1z"/><path d="M21 13h1v1h-1z"/><path d="M22 13h1v1h-1z"/><path d="M23 13h1v1h-1z"/></g><g class="C"><path d="M24 13h1v1h-1z"/><path d="M25 13h1v1h-1z"/><path d="M26 13h1v1h-1z"/><path d="M27 13h1v1h-1z"/><path d="M28 13h1v1h-1z"/><path d="M29 13h1v1h-1z"/></g><g class="I"><path d="M30 13h1v1h-1z"/><path d="M31 13h1v1h-1z"/><path d="M32 13h1v1h-1z"/><path d="M33 13h1v1h-1z"/><path d="M34 13h1v1h-1z"/></g><g class="C"><path d="M35 13h1v1h-1z"/><path d="M36 13h1v1h-1z"/><path d="M37 13h1v1h-1z"/><path d="M38 13h1v1h-1z"/><path d="M39 13h1v1h-1z"/><path d="M40 13h1v1h-1z"/><path d="M41 13h1v1h-1z"/></g><g class="G"><path d="M42 13h1v1h-1z"/><path d="M43 13h1v1h-1z"/></g><path d="M52 13h1v1h-1zM0 14h1v1H0z" class="B"/><path d="M1 14h1v1H1z" class="H"/><path d="M2 14h1v1H2z" class="F"/><g class="E"><path d="M3 14h1v1H3z"/><path d="M4 14h1v1H4z"/></g><g class="D"><path d="M5 14h1v1H5z"/><path d="M6 14h1v1H6z"/></g><g class="H"><path d="M7 14h1v1H7z"/><path d="M8 14h1v1H8z"/></g><path d="M9 14h1v1H9z" class="F"/><path d="M10 14h1v1h-1z" class="B"/><path d="M11 14h1v1h-1z" class="G"/><g class="C"><path d="M12 14h1v1h-1z"/><path d="M13 14h1v1h-1z"/><path d="M14 14h1v1h-1z"/><path d="M15 14h1v1h-1z"/><path d="M16 14h1v1h-1z"/><path d="M17 14h1v1h-1z"/><path d="M18 14h1v1h-1z"/></g><g class="I"><path d="M19 14h1v1h-1z"/><path d="M20 14h1v1h-1z"/><path d="M21 14h1v1h-1z"/><path d="M22 14h1v1h-1z"/><path d="M23 14h1v1h-1z"/></g><g class="C"><path d="M24 14h1v1h-1z"/><path d="M25 14h1v1h-1z"/><path d="M26 14h1v1h-1z"/><path d="M27 14h1v1h-1z"/><path d="M28 14h1v1h-1z"/><path d="M29 14h1v1h-1z"/></g><g class="I"><path d="M30 14h1v1h-1z"/><path d="M31 14h1v1h-1z"/><path d="M32 14h1v1h-1z"/><path d="M33 14h1v1h-1z"/><path d="M34 14h1v1h-1z"/></g><g class="C"><path d="M35 14h1v1h-1z"/><path d="M36 14h1v1h-1z"/><path d="M37 14h1v1h-1z"/><path d="M38 14h1v1h-1z"/><path d="M39 14h1v1h-1z"/><path d="M40 14h1v1h-1z"/><path d="M41 14h1v1h-1z"/></g><g class="G"><path d="M42 14h1v1h-1z"/><path d="M43 14h1v1h-1z"/></g><g class="B"><path d="M49 14h1v1h-1z"/><path d="M50 14h1v1h-1z"/><path d="M51 14h1v1h-1zM0 15h1v1H0z"/></g><path d="M1 15h1v1H1z" class="F"/><path d="M2 15h1v1H2z" class="E"/><g class="D"><path d="M3 15h1v1H3z"/><path d="M4 15h1v1H4z"/></g><g class="H"><path d="M5 15h1v1H5z"/><path d="M6 15h1v1H6z"/><path d="M7 15h1v1H7z"/></g><path d="M8 15h1v1H8z" class="E"/><path d="M9 15h1v1H9z" class="F"/><path d="M10 15h1v1h-1z" class="B"/><path d="M11 15h1v1h-1z" class="G"/><g class="C"><path d="M12 15h1v1h-1z"/><path d="M13 15h1v1h-1z"/></g><g class="G"><path d="M14 15h1v1h-1z"/><path d="M15 15h1v1h-1z"/><path d="M16 15h1v1h-1z"/><path d="M17 15h1v1h-1z"/><path d="M18 15h1v1h-1z"/></g><g class="C"><path d="M19 15h1v1h-1z"/><path d="M20 15h1v1h-1z"/><path d="M21 15h1v1h-1z"/><path d="M22 15h1v1h-1z"/><path d="M23 15h1v1h-1z"/></g><g class="G"><path d="M24 15h1v1h-1z"/><path d="M25 15h1v1h-1z"/><path d="M26 15h1v1h-1z"/><path d="M27 15h1v1h-1z"/><path d="M28 15h1v1h-1z"/><path d="M29 15h1v1h-1z"/></g><g class="C"><path d="M30 15h1v1h-1z"/><path d="M31 15h1v1h-1z"/><path d="M32 15h1v1h-1z"/><path d="M33 15h1v1h-1z"/><path d="M34 15h1v1h-1z"/></g><g class="G"><path d="M35 15h1v1h-1z"/><path d="M36 15h1v1h-1z"/><path d="M37 15h1v1h-1z"/><path d="M38 15h1v1h-1z"/><path d="M39 15h1v1h-1z"/></g><g class="C"><path d="M40 15h1v1h-1z"/><path d="M41 15h1v1h-1z"/></g><g class="G"><path d="M42 15h1v1h-1z"/><path d="M43 15h1v1h-1z"/></g><path d="M48 15h1v1h-1z" class="B"/><g class="D"><path d="M49 15h1v1h-1z"/><path d="M50 15h1v1h-1z"/></g><path d="M51 15h1v1h-1z" class="H"/><path d="M52 15h1v1h-1zM0 16h1v1H0z" class="B"/><path d="M1 16h1v1H1z" class="F"/><g class="D"><path d="M2 16h1v1H2z"/><path d="M3 16h1v1H3z"/></g><g class="F"><path d="M4 16h1v1H4z"/><path d="M5 16h1v1H5z"/></g><g class="E"><path d="M6 16h1v1H6z"/><path d="M7 16h1v1H7z"/></g><g class="D"><path d="M8 16h1v1H8z"/><path d="M9 16h1v1H9z"/></g><path d="M10 16h1v1h-1z" class="B"/><path d="M11 16h1v1h-1z" class="G"/><g class="C"><path d="M12 16h1v1h-1z"/><path d="M13 16h1v1h-1z"/></g><g class="G"><path d="M14 16h1v1h-1z"/><path d="M15 16h1v1h-1z"/><path d="M16 16h1v1h-1z"/><path d="M17 16h1v1h-1z"/><path d="M18 16h1v1h-1z"/></g><g class="C"><path d="M19 16h1v1h-1z"/><path d="M20 16h1v1h-1z"/><path d="M21 16h1v1h-1z"/><path d="M22 16h1v1h-1z"/><path d="M23 16h1v1h-1z"/></g><g class="G"><path d="M24 16h1v1h-1z"/><path d="M25 16h1v1h-1z"/><path d="M26 16h1v1h-1z"/><path d="M27 16h1v1h-1z"/><path d="M28 16h1v1h-1z"/><path d="M29 16h1v1h-1z"/></g><g class="C"><path d="M30 16h1v1h-1z"/><path d="M31 16h1v1h-1z"/><path d="M32 16h1v1h-1z"/><path d="M33 16h1v1h-1z"/><path d="M34 16h1v1h-1z"/></g><g class="B"><path d="M35 16h1v1h-1z"/><path d="M36 16h1v1h-1z"/><path d="M37 16h1v1h-1z"/><path d="M38 16h1v1h-1z"/></g><path d="M39 16h1v1h-1z" class="G"/><g class="C"><path d="M40 16h1v1h-1z"/><path d="M41 16h1v1h-1z"/></g><g class="G"><path d="M42 16h1v1h-1z"/><path d="M43 16h1v1h-1z"/></g><path d="M47 16h1v1h-1z" class="B"/><path d="M48 16h1v1h-1z" class="H"/><g class="F"><path d="M49 16h1v1h-1z"/><path d="M50 16h1v1h-1z"/><path d="M51 16h1v1h-1z"/></g><path d="M52 16h1v1h-1z" class="D"/><path d="M53 16h1v1h-1zM0 17h1v1H0z" class="B"/><path d="M1 17h1v1H1z" class="F"/><path d="M2 17h1v1H2z" class="D"/><g class="F"><path d="M3 17h1v1H3z"/><path d="M4 17h1v1H4z"/></g><g class="E"><path d="M5 17h1v1H5z"/><path d="M6 17h1v1H6z"/></g><g class="D"><path d="M7 17h1v1H7z"/><path d="M8 17h1v1H8z"/></g><path d="M9 17h1v1H9z" class="E"/><path d="M10 17h1v1h-1z" class="B"/><g class="G"><path d="M11 17h1v1h-1z"/><path d="M12 17h1v1h-1z"/><path d="M13 17h1v1h-1zm6 0h1v1h-1z"/><path d="M20 17h1v1h-1z"/><path d="M21 17h1v1h-1z"/><path d="M22 17h1v1h-1z"/><path d="M23 17h1v1h-1zm7 0h1v1h-1z"/><path d="M31 17h1v1h-1z"/><path d="M32 17h1v1h-1z"/></g><g class="B"><path d="M33 17h1v1h-1z"/><path d="M34 17h1v1h-1z"/></g><g class="D"><path d="M35 17h1v1h-1z"/><path d="M36 17h1v1h-1z"/></g><path d="M37 17h1v1h-1z" class="E"/><path d="M38 17h1v1h-1z" class="F"/><g class="B"><path d="M39 17h1v1h-1z"/><path d="M40 17h1v1h-1z"/></g><g class="G"><path d="M41 17h1v1h-1z"/><path d="M42 17h1v1h-1z"/><path d="M43 17h1v1h-1z"/></g><path d="M47 17h1v1h-1z" class="B"/><g class="F"><path d="M48 17h1v1h-1z"/><path d="M49 17h1v1h-1z"/></g><g class="D"><path d="M50 17h1v1h-1z"/><path d="M51 17h1v1h-1z"/></g><path d="M52 17h1v1h-1z" class="E"/><path d="M53 17h1v1h-1zM0 18h1v1H0z" class="B"/><path d="M1 18h1v1H1z" class="D"/><g class="F"><path d="M2 18h1v1H2z"/><path d="M3 18h1v1H3z"/></g><g class="H"><path d="M4 18h1v1H4z"/><path d="M5 18h1v1H5z"/><path d="M6 18h1v1H6z"/></g><path d="M7 18h1v1H7z" class="F"/><g class="E"><path d="M8 18h1v1H8z"/><path d="M9 18h1v1H9z"/></g><path d="M10 18h1v1h-1z" class="B"/><g class="G"><path d="M11 18h1v1h-1z"/><path d="M12 18h1v1h-1z"/><path d="M13 18h1v1h-1zm6 0h1v1h-1z"/><path d="M20 18h1v1h-1z"/><path d="M21 18h1v1h-1z"/><path d="M22 18h1v1h-1z"/><path d="M23 18h1v1h-1zm7 0h1v1h-1z"/><path d="M31 18h1v1h-1z"/></g><path d="M32 18h1v1h-1z" class="B"/><g class="D"><path d="M33 18h1v1h-1z"/><path d="M34 18h1v1h-1z"/></g><g class="E"><path d="M35 18h1v1h-1z"/><path d="M36 18h1v1h-1z"/></g><g class="F"><path d="M37 18h1v1h-1z"/><path d="M38 18h1v1h-1z"/><path d="M39 18h1v1h-1z"/><path d="M40 18h1v1h-1z"/></g><path d="M41 18h1v1h-1z" class="B"/><g class="G"><path d="M42 18h1v1h-1z"/><path d="M43 18h1v1h-1z"/></g><path d="M47 18h1v1h-1z" class="B"/><g class="D"><path d="M48 18h1v1h-1z"/><path d="M49 18h1v1h-1z"/></g><g class="E"><path d="M50 18h1v1h-1z"/><path d="M51 18h1v1h-1z"/><path d="M52 18h1v1h-1z"/></g><path d="M53 18h1v1h-1zM1 19h1v1H1z" class="B"/><path d="M2 19h1v1H2z" class="D"/><path d="M3 19h1v1H3z" class="H"/><g class="F"><path d="M4 19h1v1H4z"/><path d="M5 19h1v1H5z"/><path d="M6 19h1v1H6z"/></g><g class="E"><path d="M7 19h1v1H7z"/><path d="M8 19h1v1H8z"/></g><path d="M9 19h1v1H9zm22 0h1v1h-1z" class="B"/><g class="D"><path d="M32 19h1v1h-1z"/><path d="M33 19h1v1h-1z"/></g><g class="E"><path d="M34 19h1v1h-1z"/><path d="M35 19h1v1h-1z"/></g><g class="F"><path d="M36 19h1v1h-1z"/><path d="M37 19h1v1h-1z"/><path d="M38 19h1v1h-1z"/></g><g class="D"><path d="M39 19h1v1h-1z"/><path d="M40 19h1v1h-1z"/></g><path d="M41 19h1v1h-1z" class="F"/><path d="M42 19h1v1h-1zm6 0h1v1h-1z" class="B"/><g class="E"><path d="M49 19h1v1h-1z"/><path d="M50 19h1v1h-1z"/><path d="M51 19h1v1h-1z"/></g><path d="M52 19h1v1h-1zM2 20h1v1H2z" class="B"/><g class="F"><path d="M3 20h1v1H3z"/><path d="M4 20h1v1H4z"/></g><g class="E"><path d="M5 20h1v1H5z"/><path d="M6 20h1v1H6z"/><path d="M7 20h1v1H7z"/></g><g class="B"><path d="M8 20h1v1H8zm9 0h1v1h-1z"/><path d="M18 20h1v1h-1z"/><path d="M19 20h1v1h-1z"/><path d="M20 20h1v1h-1zm11 0h1v1h-1z"/></g><path d="M32 20h1v1h-1z" class="D"/><g class="E"><path d="M33 20h1v1h-1z"/><path d="M34 20h1v1h-1z"/></g><g class="F"><path d="M35 20h1v1h-1z"/><path d="M36 20h1v1h-1z"/><path d="M37 20h1v1h-1z"/></g><path d="M38 20h1v1h-1z" class="D"/><g class="F"><path d="M39 20h1v1h-1z"/><path d="M40 20h1v1h-1z"/><path d="M41 20h1v1h-1z"/></g><g class="B"><path d="M42 20h1v1h-1zm3 0h1v1h-1z"/><path d="M46 20h1v1h-1z"/><path d="M47 20h1v1h-1zm2 0h1v1h-1z"/><path d="M50 20h1v1h-1z"/><path d="M51 20h1v1h-1zM3 21h1v1H3z"/><path d="M4 21h1v1H4z"/><path d="M5 21h1v1H5z"/><path d="M6 21h1v1H6z"/><path d="M7 21h1v1H7zm4 0h1v1h-1z"/><path d="M12 21h1v1h-1zm4 0h1v1h-1z"/></g><path d="M17 21h1v1h-1z" class="H"/><path d="M18 21h1v1h-1z" class="D"/><path d="M19 21h1v1h-1z" class="E"/><path d="M20 21h1v1h-1z" class="H"/><path d="M21 21h1v1h-1zm9 0h1v1h-1z" class="B"/><path d="M31 21h1v1h-1z" class="D"/><g class="E"><path d="M32 21h1v1h-1z"/><path d="M33 21h1v1h-1z"/></g><g class="F"><path d="M34 21h1v1h-1z"/><path d="M35 21h1v1h-1z"/></g><g class="D"><path d="M36 21h1v1h-1z"/><path d="M37 21h1v1h-1z"/></g><g class="F"><path d="M38 21h1v1h-1z"/><path d="M39 21h1v1h-1z"/></g><path d="M40 21h1v1h-1z" class="H"/><g class="F"><path d="M41 21h1v1h-1z"/><path d="M42 21h1v1h-1z"/></g><g class="B"><path d="M43 21h1v1h-1z"/><path d="M44 21h1v1h-1zm-31 1h1v1h-1z"/><path d="M14 22h1v1h-1z"/><path d="M15 22h1v1h-1z"/></g><path d="M16 22h1v1h-1z" class="H"/><path d="M17 22h1v1h-1z" class="D"/><path d="M18 22h1v1h-1z" class="E"/><path d="M19 22h1v1h-1z" class="H"/><g class="F"><path d="M20 22h1v1h-1z"/><path d="M21 22h1v1h-1z"/></g><path d="M22 22h1v1h-1zm8 0h1v1h-1z" class="B"/><path d="M31 22h1v1h-1z" class="D"/><path d="M32 22h1v1h-1z" class="E"/><g class="F"><path d="M33 22h1v1h-1z"/><path d="M34 22h1v1h-1z"/></g><g class="D"><path d="M35 22h1v1h-1z"/><path d="M36 22h1v1h-1z"/></g><g class="H"><path d="M37 22h1v1h-1z"/><path d="M38 22h1v1h-1z"/><path d="M39 22h1v1h-1z"/></g><g class="F"><path d="M40 22h1v1h-1z"/><path d="M41 22h1v1h-1z"/><path d="M42 22h1v1h-1z"/></g><path d="M43 22h1v1h-1zm-28 1h1v1h-1z" class="B"/><path d="M16 23h1v1h-1z" class="D"/><path d="M17 23h1v1h-1z" class="E"/><g class="H"><path d="M18 23h1v1h-1z"/><path d="M19 23h1v1h-1z"/></g><path d="M20 23h1v1h-1z" class="F"/><path d="M21 23h1v1h-1z" class="D"/><g class="B"><path d="M22 23h1v1h-1z"/><path d="M23 23h1v1h-1z"/><path d="M24 23h1v1h-1z"/><path d="M25 23h1v1h-1z"/><path d="M26 23h1v1h-1z"/><path d="M27 23h1v1h-1zm3 0h1v1h-1z"/></g><path d="M31 23h1v1h-1z" class="E"/><g class="F"><path d="M32 23h1v1h-1z"/><path d="M33 23h1v1h-1z"/></g><g class="D"><path d="M34 23h1v1h-1z"/><path d="M35 23h1v1h-1z"/></g><path d="M36 23h1v1h-1z" class="H"/><path d="M37 23h1v1h-1z" class="E"/><g class="F"><path d="M38 23h1v1h-1z"/><path d="M39 23h1v1h-1z"/><path d="M40 23h1v1h-1z"/><path d="M41 23h1v1h-1z"/></g><path d="M42 23h1v1h-1z" class="D"/><path d="M43 23h1v1h-1zm-28 1h1v1h-1z" class="B"/><path d="M16 24h1v1h-1z" class="E"/><g class="H"><path d="M17 24h1v1h-1z"/><path d="M18 24h1v1h-1z"/></g><path d="M19 24h1v1h-1z" class="F"/><path d="M20 24h1v1h-1z" class="D"/><path d="M21 24h1v1h-1z" class="E"/><path d="M22 24h1v1h-1zm8 0h1v1h-1z" class="B"/><path d="M31 24h1v1h-1z" class="E"/><path d="M32 24h1v1h-1z" class="F"/><g class="D"><path d="M33 24h1v1h-1z"/><path d="M34 24h1v1h-1z"/></g><path d="M35 24h1v1h-1z" class="H"/><path d="M36 24h1v1h-1z" class="E"/><path d="M37 24h1v1h-1z" class="F"/><path d="M38 24h1v1h-1z" class="D"/><g class="F"><path d="M39 24h1v1h-1z"/><path d="M40 24h1v1h-1z"/></g><g class="D"><path d="M41 24h1v1h-1z"/><path d="M42 24h1v1h-1z"/></g><path d="M43 24h1v1h-1zm-28 1h1v1h-1z" class="B"/><path d="M16 25h1v1h-1z" class="H"/><path d="M17 25h1v1h-1z" class="F"/><g class="D"><path d="M18 25h1v1h-1z"/><path d="M19 25h1v1h-1z"/></g><g class="E"><path d="M20 25h1v1h-1z"/><path d="M21 25h1v1h-1z"/></g><path d="M22 25h1v1h-1zm9 0h1v1h-1z" class="B"/><path d="M32 25h1v1h-1z" class="D"/><g class="H"><path d="M33 25h1v1h-1z"/><path d="M34 25h1v1h-1z"/></g><g class="E"><path d="M35 25h1v1h-1z"/><path d="M36 25h1v1h-1z"/></g><path d="M37 25h1v1h-1z" class="D"/><g class="F"><path d="M38 25h1v1h-1z"/><path d="M39 25h1v1h-1z"/></g><path d="M40 25h1v1h-1z" class="E"/><path d="M41 25h1v1h-1z" class="D"/><path d="M42 25h1v1h-1zm-26 1h1v1h-1z" class="B"/><path d="M17 26h1v1h-1z" class="H"/><g class="E"><path d="M18 26h1v1h-1z"/><path d="M19 26h1v1h-1z"/><path d="M20 26h1v1h-1z"/></g><path d="M21 26h1v1h-1zm10 0h1v1h-1z" class="B"/><g class="E"><path d="M32 26h1v1h-1z"/><path d="M33 26h1v1h-1z"/><path d="M34 26h1v1h-1z"/></g><g class="D"><path d="M35 26h1v1h-1z"/><path d="M36 26h1v1h-1z"/></g><g class="E"><path d="M37 26h1v1h-1z"/><path d="M38 26h1v1h-1z"/><path d="M39 26h1v1h-1z"/></g><path d="M40 26h1v1h-1z" class="D"/><path d="M41 26h1v1h-1z" class="E"/><g class="B"><path d="M42 26h1v1h-1zm-25 1h1v1h-1z"/><path d="M18 27h1v1h-1z"/><path d="M19 27h1v1h-1z"/><path d="M20 27h1v1h-1zm12 0h1v1h-1z"/></g><g class="D"><path d="M33 27h1v1h-1z"/><path d="M34 27h1v1h-1z"/><path d="M35 27h1v1h-1z"/></g><g class="E"><path d="M36 27h1v1h-1z"/><path d="M37 27h1v1h-1z"/><path d="M38 27h1v1h-1z"/><path d="M39 27h1v1h-1z"/><path d="M40 27h1v1h-1z"/></g><g class="B"><path d="M41 27h1v1h-1zm-8 1h1v1h-1z"/><path d="M34 28h1v1h-1z"/></g><g class="E"><path d="M35 28h1v1h-1z"/><path d="M36 28h1v1h-1z"/><path d="M37 28h1v1h-1z"/><path d="M38 28h1v1h-1z"/></g><g class="B"><path d="M39 28h1v1h-1z"/><path d="M40 28h1v1h-1zm-5 1h1v1h-1z"/><path d="M36 29h1v1h-1z"/><path d="M37 29h1v1h-1z"/><path d="M38 29h1v1h-1z"/></g></svg>