<svg xmlns="http://www.w3.org/2000/svg" width="53" height="25" shape-rendering="crispEdges" xmlns:v="https://vecta.io/nano"><style><![CDATA[.B{fill:#0599ad}.C{fill:#0d4668}.D{fill:#33bacc}.E{fill:#283849}.F{fill:#dbffff}.G{fill:#0ff}.H{fill:#4fd1d6}.I{fill:#52a7aa}.J{fill:#c1e1e5}]]></style><g class="C"><path d="M13 0h1v1h-1z"/><path d="M14 0h1v1h-1z"/><path d="M15 0h1v1h-1z"/><path d="M16 0h1v1h-1z"/><path d="M17 0h1v1h-1z"/><path d="M18 0h1v1h-1z"/><path d="M19 0h1v1h-1z"/><path d="M20 0h1v1h-1zm11 0h1v1h-1z"/><path d="M32 0h1v1h-1z"/><path d="M33 0h1v1h-1z"/><path d="M34 0h1v1h-1z"/><path d="M35 0h1v1h-1z"/><path d="M36 0h1v1h-1z"/><path d="M37 0h1v1h-1z"/><path d="M38 0h1v1h-1zM13 1h1v1h-1z"/></g><g class="B"><path d="M14 1h1v1h-1z"/><path d="M15 1h1v1h-1z"/><path d="M16 1h1v1h-1z"/><path d="M17 1h1v1h-1z"/><path d="M18 1h1v1h-1z"/><path d="M19 1h1v1h-1z"/></g><path d="M20 1h1v1h-1zm11 0h1v1h-1z" class="C"/><g class="B"><path d="M32 1h1v1h-1z"/><path d="M33 1h1v1h-1z"/><path d="M34 1h1v1h-1z"/><path d="M35 1h1v1h-1z"/><path d="M36 1h1v1h-1z"/><path d="M37 1h1v1h-1z"/></g><path d="M38 1h1v1h-1zM13 2h1v1h-1z" class="C"/><path d="M14 2h1v1h-1z" class="B"/><g class="D"><path d="M15 2h1v1h-1z"/><path d="M16 2h1v1h-1z"/><path d="M17 2h1v1h-1z"/><path d="M18 2h1v1h-1z"/></g><path d="M19 2h1v1h-1z" class="B"/><path d="M20 2h1v1h-1zm11 0h1v1h-1z" class="C"/><path d="M32 2h1v1h-1z" class="B"/><g class="D"><path d="M33 2h1v1h-1z"/><path d="M34 2h1v1h-1z"/><path d="M35 2h1v1h-1z"/><path d="M36 2h1v1h-1z"/></g><path d="M37 2h1v1h-1z" class="B"/><g class="C"><path d="M38 2h1v1h-1zM10 3h1v1h-1z"/><path d="M11 3h1v1h-1z"/><path d="M12 3h1v1h-1z"/><path d="M13 3h1v1h-1z"/></g><path d="M14 3h1v1h-1z" class="B"/><g class="D"><path d="M15 3h1v1h-1z"/><path d="M16 3h1v1h-1z"/><path d="M17 3h1v1h-1z"/><path d="M18 3h1v1h-1z"/></g><path d="M19 3h1v1h-1z" class="B"/><g class="C"><path d="M20 3h1v1h-1z"/><path d="M21 3h1v1h-1z"/><path d="M22 3h1v1h-1z"/><path d="M23 3h1v1h-1zm5 0h1v1h-1z"/><path d="M29 3h1v1h-1z"/><path d="M30 3h1v1h-1z"/><path d="M31 3h1v1h-1z"/></g><path d="M32 3h1v1h-1z" class="B"/><g class="D"><path d="M33 3h1v1h-1z"/><path d="M34 3h1v1h-1z"/><path d="M35 3h1v1h-1z"/><path d="M36 3h1v1h-1z"/></g><path d="M37 3h1v1h-1z" class="B"/><g class="C"><path d="M38 3h1v1h-1z"/><path d="M39 3h1v1h-1z"/><path d="M40 3h1v1h-1z"/><path d="M41 3h1v1h-1zM10 4h1v1h-1z"/></g><g class="B"><path d="M11 4h1v1h-1z"/><path d="M12 4h1v1h-1z"/><path d="M13 4h1v1h-1z"/><path d="M14 4h1v1h-1z"/></g><path d="M15 4h1v1h-1z" class="D"/><path d="M16 4h1v1h-1z" class="J"/><path d="M17 4h1v1h-1z" class="D"/><path d="M18 4h1v1h-1z" class="J"/><g class="B"><path d="M19 4h1v1h-1z"/><path d="M20 4h1v1h-1z"/><path d="M21 4h1v1h-1z"/><path d="M22 4h1v1h-1z"/></g><path d="M23 4h1v1h-1zm5 0h1v1h-1z" class="C"/><g class="B"><path d="M29 4h1v1h-1z"/><path d="M30 4h1v1h-1z"/><path d="M31 4h1v1h-1z"/><path d="M32 4h1v1h-1z"/></g><path d="M33 4h1v1h-1z" class="D"/><path d="M34 4h1v1h-1z" class="J"/><path d="M35 4h1v1h-1z" class="D"/><path d="M36 4h1v1h-1z" class="J"/><g class="B"><path d="M37 4h1v1h-1z"/><path d="M38 4h1v1h-1z"/><path d="M39 4h1v1h-1z"/><path d="M40 4h1v1h-1z"/></g><path d="M41 4h1v1h-1zM10 5h1v1h-1z" class="C"/><path d="M11 5h1v1h-1z" class="B"/><g class="D"><path d="M12 5h1v1h-1z"/><path d="M13 5h1v1h-1z"/><path d="M14 5h1v1h-1z"/></g><path d="M15 5h1v1h-1z" class="J"/><path d="M16 5h1v1h-1z" class="D"/><path d="M17 5h1v1h-1z" class="J"/><g class="D"><path d="M18 5h1v1h-1z"/><path d="M19 5h1v1h-1z"/><path d="M20 5h1v1h-1z"/><path d="M21 5h1v1h-1z"/></g><path d="M22 5h1v1h-1z" class="B"/><path d="M23 5h1v1h-1zm5 0h1v1h-1z" class="C"/><path d="M29 5h1v1h-1z" class="B"/><g class="D"><path d="M30 5h1v1h-1z"/><path d="M31 5h1v1h-1z"/><path d="M32 5h1v1h-1z"/></g><path d="M33 5h1v1h-1z" class="J"/><path d="M34 5h1v1h-1z" class="D"/><path d="M35 5h1v1h-1z" class="J"/><g class="D"><path d="M36 5h1v1h-1z"/><path d="M37 5h1v1h-1z"/><path d="M38 5h1v1h-1z"/><path d="M39 5h1v1h-1z"/></g><path d="M40 5h1v1h-1z" class="B"/><path d="M41 5h1v1h-1z" class="C"/><g class="E"><path d="M6 6h1v1H6z"/><path d="M7 6h1v1H7z"/></g><path d="M10 6h1v1h-1z" class="C"/><path d="M11 6h1v1h-1z" class="B"/><g class="D"><path d="M12 6h1v1h-1z"/><path d="M13 6h1v1h-1z"/></g><path d="M14 6h1v1h-1z" class="J"/><path d="M15 6h1v1h-1z" class="D"/><path d="M16 6h1v1h-1z" class="J"/><g class="D"><path d="M17 6h1v1h-1z"/><path d="M18 6h1v1h-1z"/><path d="M19 6h1v1h-1z"/><path d="M20 6h1v1h-1z"/><path d="M21 6h1v1h-1z"/></g><path d="M22 6h1v1h-1z" class="B"/><path d="M23 6h1v1h-1zm5 0h1v1h-1z" class="C"/><path d="M29 6h1v1h-1z" class="B"/><g class="D"><path d="M30 6h1v1h-1z"/><path d="M31 6h1v1h-1z"/></g><path d="M32 6h1v1h-1z" class="J"/><path d="M33 6h1v1h-1z" class="D"/><path d="M34 6h1v1h-1z" class="J"/><g class="D"><path d="M35 6h1v1h-1z"/><path d="M36 6h1v1h-1z"/><path d="M37 6h1v1h-1z"/><path d="M38 6h1v1h-1z"/><path d="M39 6h1v1h-1z"/></g><path d="M40 6h1v1h-1z" class="B"/><path d="M41 6h1v1h-1z" class="C"/><path d="M45 6h1v1h-1zM4 7h1v1H4z" class="E"/><path d="M10 7h1v1h-1z" class="C"/><path d="M11 7h1v1h-1z" class="B"/><g class="D"><path d="M12 7h1v1h-1z"/><path d="M13 7h1v1h-1z"/><path d="M14 7h1v1h-1z"/><path d="M15 7h1v1h-1z"/><path d="M16 7h1v1h-1z"/><path d="M17 7h1v1h-1z"/><path d="M18 7h1v1h-1z"/><path d="M19 7h1v1h-1z"/><path d="M20 7h1v1h-1z"/><path d="M21 7h1v1h-1z"/></g><path d="M22 7h1v1h-1z" class="B"/><path d="M23 7h1v1h-1zm5 0h1v1h-1z" class="C"/><path d="M29 7h1v1h-1z" class="B"/><g class="D"><path d="M30 7h1v1h-1z"/><path d="M31 7h1v1h-1z"/><path d="M32 7h1v1h-1z"/><path d="M33 7h1v1h-1z"/><path d="M34 7h1v1h-1z"/><path d="M35 7h1v1h-1z"/><path d="M36 7h1v1h-1z"/><path d="M37 7h1v1h-1z"/><path d="M38 7h1v1h-1z"/><path d="M39 7h1v1h-1z"/></g><path d="M40 7h1v1h-1z" class="B"/><path d="M41 7h1v1h-1z" class="C"/><path d="M47 7h1v1h-1z" class="E"/><path d="M10 8h1v1h-1z" class="C"/><path d="M11 8h1v1h-1z" class="B"/><g class="D"><path d="M12 8h1v1h-1z"/><path d="M13 8h1v1h-1z"/><path d="M14 8h1v1h-1z"/><path d="M15 8h1v1h-1z"/><path d="M16 8h1v1h-1z"/><path d="M17 8h1v1h-1z"/><path d="M18 8h1v1h-1z"/><path d="M19 8h1v1h-1z"/><path d="M20 8h1v1h-1z"/><path d="M21 8h1v1h-1z"/></g><path d="M22 8h1v1h-1z" class="B"/><path d="M23 8h1v1h-1zm5 0h1v1h-1z" class="C"/><path d="M29 8h1v1h-1z" class="B"/><g class="D"><path d="M30 8h1v1h-1z"/><path d="M31 8h1v1h-1z"/><path d="M32 8h1v1h-1z"/><path d="M33 8h1v1h-1z"/><path d="M34 8h1v1h-1z"/><path d="M35 8h1v1h-1z"/><path d="M36 8h1v1h-1z"/><path d="M37 8h1v1h-1z"/><path d="M38 8h1v1h-1z"/><path d="M39 8h1v1h-1z"/></g><path d="M40 8h1v1h-1z" class="B"/><path d="M41 8h1v1h-1z" class="C"/><g class="E"><path d="M48 8h1v1h-1z"/><path d="M49 8h1v1h-1zM1 9h1v1H1z"/></g><path d="M10 9h1v1h-1z" class="C"/><g class="B"><path d="M11 9h1v1h-1z"/><path d="M12 9h1v1h-1z"/><path d="M13 9h1v1h-1z"/><path d="M14 9h1v1h-1z"/></g><g class="D"><path d="M15 9h1v1h-1z"/><path d="M16 9h1v1h-1z"/><path d="M17 9h1v1h-1z"/><path d="M18 9h1v1h-1z"/></g><g class="B"><path d="M19 9h1v1h-1z"/><path d="M20 9h1v1h-1z"/><path d="M21 9h1v1h-1z"/><path d="M22 9h1v1h-1z"/></g><path d="M23 9h1v1h-1zm5 0h1v1h-1z" class="C"/><g class="B"><path d="M29 9h1v1h-1z"/><path d="M30 9h1v1h-1z"/><path d="M31 9h1v1h-1z"/><path d="M32 9h1v1h-1z"/></g><g class="D"><path d="M33 9h1v1h-1z"/><path d="M34 9h1v1h-1z"/><path d="M35 9h1v1h-1z"/><path d="M36 9h1v1h-1z"/></g><g class="B"><path d="M37 9h1v1h-1z"/><path d="M38 9h1v1h-1z"/><path d="M39 9h1v1h-1z"/><path d="M40 9h1v1h-1z"/></g><path d="M41 9h1v1h-1z" class="C"/><path d="M50 9h1v1h-1zM0 10h1v1H0z" class="E"/><g class="C"><path d="M10 10h1v1h-1z"/><path d="M11 10h1v1h-1z"/><path d="M12 10h1v1h-1z"/><path d="M13 10h1v1h-1z"/></g><path d="M14 10h1v1h-1z" class="B"/><g class="D"><path d="M15 10h1v1h-1z"/><path d="M16 10h1v1h-1z"/><path d="M17 10h1v1h-1z"/><path d="M18 10h1v1h-1z"/></g><path d="M19 10h1v1h-1z" class="B"/><g class="C"><path d="M20 10h1v1h-1z"/><path d="M21 10h1v1h-1z"/><path d="M22 10h1v1h-1z"/><path d="M23 10h1v1h-1zm5 0h1v1h-1z"/><path d="M29 10h1v1h-1z"/><path d="M30 10h1v1h-1z"/><path d="M31 10h1v1h-1z"/></g><path d="M32 10h1v1h-1z" class="B"/><g class="D"><path d="M33 10h1v1h-1z"/><path d="M34 10h1v1h-1z"/><path d="M35 10h1v1h-1z"/><path d="M36 10h1v1h-1z"/></g><path d="M37 10h1v1h-1z" class="B"/><g class="C"><path d="M38 10h1v1h-1z"/><path d="M39 10h1v1h-1z"/><path d="M40 10h1v1h-1z"/><path d="M41 10h1v1h-1z"/></g><g class="E"><path d="M51 10h1v1h-1zM0 11h1v1H0zm9 0h1v1H9z"/><path d="M10 11h1v1h-1z"/><path d="M11 11h1v1h-1z"/><path d="M12 11h1v1h-1z"/></g><path d="M13 11h1v1h-1z" class="C"/><path d="M14 11h1v1h-1z" class="B"/><g class="D"><path d="M15 11h1v1h-1z"/><path d="M16 11h1v1h-1z"/><path d="M17 11h1v1h-1z"/><path d="M18 11h1v1h-1z"/></g><path d="M19 11h1v1h-1z" class="B"/><path d="M20 11h1v1h-1zm11 0h1v1h-1z" class="C"/><path d="M32 11h1v1h-1z" class="B"/><g class="D"><path d="M33 11h1v1h-1z"/><path d="M34 11h1v1h-1z"/><path d="M35 11h1v1h-1z"/><path d="M36 11h1v1h-1z"/></g><path d="M37 11h1v1h-1z" class="B"/><path d="M38 11h1v1h-1z" class="C"/><g class="E"><path d="M45 11h1v1h-1z"/><path d="M46 11h1v1h-1z"/><path d="M47 11h1v1h-1z"/><path d="M48 11h1v1h-1z"/><path d="M49 11h1v1h-1zM7 12h1v1H7z"/><path d="M8 12h1v1H8z"/></g><g class="F"><path d="M9 12h1v1H9z"/><path d="M10 12h1v1h-1z"/></g><path d="M11 12h1v1h-1z" class="I"/><path d="M12 12h1v1h-1z" class="G"/><g class="E"><path d="M13 12h1v1h-1z"/><path d="M14 12h1v1h-1z"/></g><g class="B"><path d="M15 12h1v1h-1z"/><path d="M16 12h1v1h-1z"/><path d="M17 12h1v1h-1z"/><path d="M18 12h1v1h-1z"/><path d="M19 12h1v1h-1z"/></g><path d="M20 12h1v1h-1zm11 0h1v1h-1z" class="C"/><g class="B"><path d="M32 12h1v1h-1z"/><path d="M33 12h1v1h-1z"/><path d="M34 12h1v1h-1z"/><path d="M35 12h1v1h-1z"/><path d="M36 12h1v1h-1z"/><path d="M37 12h1v1h-1z"/></g><path d="M38 12h1v1h-1z" class="C"/><path d="M44 12h1v1h-1z" class="E"/><path d="M45 12h1v1h-1z" class="F"/><g class="H"><path d="M46 12h1v1h-1z"/><path d="M47 12h1v1h-1z"/><path d="M48 12h1v1h-1z"/><path d="M49 12h1v1h-1z"/></g><path d="M50 12h1v1h-1zM0 13h1v1H0zm6 0h1v1H6z" class="E"/><g class="F"><path d="M7 13h1v1H7z"/><path d="M8 13h1v1H8z"/></g><g class="I"><path d="M9 13h1v1H9z"/><path d="M10 13h1v1h-1z"/></g><g class="G"><path d="M11 13h1v1h-1z"/><path d="M12 13h1v1h-1z"/><path d="M13 13h1v1h-1z"/><path d="M14 13h1v1h-1z"/></g><path d="M15 13h1v1h-1z" class="E"/><g class="C"><path d="M16 13h1v1h-1z"/><path d="M17 13h1v1h-1z"/><path d="M18 13h1v1h-1z"/><path d="M19 13h1v1h-1z"/><path d="M20 13h1v1h-1zm11 0h1v1h-1z"/><path d="M32 13h1v1h-1z"/><path d="M33 13h1v1h-1z"/><path d="M34 13h1v1h-1z"/><path d="M35 13h1v1h-1z"/><path d="M36 13h1v1h-1z"/><path d="M37 13h1v1h-1z"/><path d="M38 13h1v1h-1z"/></g><path d="M43 13h1v1h-1z" class="E"/><path d="M44 13h1v1h-1z" class="F"/><g class="H"><path d="M45 13h1v1h-1z"/><path d="M46 13h1v1h-1z"/></g><path d="M47 13h1v1h-1z" class="I"/><g class="G"><path d="M48 13h1v1h-1z"/><path d="M49 13h1v1h-1z"/><path d="M50 13h1v1h-1z"/></g><path d="M51 13h1v1h-1zM1 14h1v1H1zm4 0h1v1H5z" class="E"/><g class="F"><path d="M6 14h1v1H6z"/><path d="M7 14h1v1H7z"/></g><g class="I"><path d="M8 14h1v1H8z"/><path d="M9 14h1v1H9z"/></g><g class="G"><path d="M10 14h1v1h-1z"/><path d="M11 14h1v1h-1z"/><path d="M12 14h1v1h-1z"/></g><g class="F"><path d="M13 14h1v1h-1z"/><path d="M14 14h1v1h-1z"/></g><path d="M15 14h1v1h-1z" class="G"/><path d="M16 14h1v1h-1zm26 0h1v1h-1z" class="E"/><path d="M43 14h1v1h-1z" class="F"/><path d="M44 14h1v1h-1z" class="H"/><g class="I"><path d="M45 14h1v1h-1z"/><path d="M46 14h1v1h-1z"/></g><g class="G"><path d="M47 14h1v1h-1z"/><path d="M48 14h1v1h-1z"/></g><g class="F"><path d="M49 14h1v1h-1z"/><path d="M50 14h1v1h-1z"/></g><path d="M51 14h1v1h-1z" class="H"/><g class="E"><path d="M52 14h1v1h-1zM2 15h1v1H2z"/><path d="M3 15h1v1H3zm2 0h1v1H5z"/></g><path d="M6 15h1v1H6z" class="F"/><path d="M7 15h1v1H7z" class="H"/><path d="M8 15h1v1H8z" class="I"/><g class="G"><path d="M9 15h1v1H9z"/><path d="M10 15h1v1h-1z"/><path d="M11 15h1v1h-1z"/></g><path d="M12 15h1v1h-1z" class="F"/><g class="G"><path d="M13 15h1v1h-1z"/><path d="M14 15h1v1h-1z"/><path d="M15 15h1v1h-1z"/></g><path d="M16 15h1v1h-1zm26 0h1v1h-1z" class="E"/><path d="M43 15h1v1h-1z" class="H"/><path d="M44 15h1v1h-1z" class="I"/><path d="M45 15h1v1h-1z" class="G"/><g class="F"><path d="M46 15h1v1h-1z"/><path d="M47 15h1v1h-1z"/><path d="M48 15h1v1h-1z"/><path d="M49 15h1v1h-1z"/></g><path d="M50 15h1v1h-1z" class="I"/><path d="M51 15h1v1h-1z" class="H"/><path d="M52 15h1v1h-1zM4 16h1v1H4z" class="E"/><path d="M5 16h1v1H5z" class="F"/><g class="H"><path d="M6 16h1v1H6z"/><path d="M7 16h1v1H7z"/></g><g class="G"><path d="M8 16h1v1H8z"/><path d="M9 16h1v1H9z"/></g><g class="F"><path d="M10 16h1v1h-1z"/><path d="M11 16h1v1h-1z"/></g><g class="G"><path d="M12 16h1v1h-1z"/><path d="M13 16h1v1h-1z"/></g><path d="M14 16h1v1h-1z" class="I"/><g class="G"><path d="M15 16h1v1h-1z"/><path d="M16 16h1v1h-1z"/></g><path d="M17 16h1v1h-1zm25 0h1v1h-1z" class="E"/><path d="M43 16h1v1h-1z" class="H"/><g class="G"><path d="M44 16h1v1h-1z"/><path d="M45 16h1v1h-1z"/></g><g class="H"><path d="M46 16h1v1h-1z"/><path d="M47 16h1v1h-1z"/></g><g class="I"><path d="M48 16h1v1h-1z"/><path d="M49 16h1v1h-1z"/></g><g class="G"><path d="M50 16h1v1h-1z"/><path d="M51 16h1v1h-1z"/></g><path d="M52 16h1v1h-1zM4 17h1v1H4z" class="E"/><path d="M5 17h1v1H5z" class="F"/><path d="M6 17h1v1H6z" class="H"/><g class="G"><path d="M7 17h1v1H7z"/><path d="M8 17h1v1H8z"/></g><g class="F"><path d="M9 17h1v1H9z"/><path d="M10 17h1v1h-1z"/></g><g class="I"><path d="M11 17h1v1h-1z"/><path d="M12 17h1v1h-1z"/><path d="M13 17h1v1h-1z"/></g><g class="G"><path d="M14 17h1v1h-1z"/><path d="M15 17h1v1h-1z"/><path d="M16 17h1v1h-1z"/></g><path d="M17 17h1v1h-1zm25 0h1v1h-1z" class="E"/><path d="M43 17h1v1h-1z" class="H"/><path d="M44 17h1v1h-1z" class="G"/><g class="H"><path d="M45 17h1v1h-1z"/><path d="M46 17h1v1h-1z"/></g><g class="I"><path d="M47 17h1v1h-1z"/><path d="M48 17h1v1h-1z"/></g><g class="G"><path d="M49 17h1v1h-1z"/><path d="M50 17h1v1h-1z"/><path d="M51 17h1v1h-1z"/></g><path d="M52 17h1v1h-1zM4 18h1v1H4z" class="E"/><path d="M5 18h1v1H5z" class="H"/><g class="G"><path d="M6 18h1v1H6z"/><path d="M7 18h1v1H7z"/></g><g class="F"><path d="M8 18h1v1H8z"/><path d="M9 18h1v1H9z"/></g><g class="I"><path d="M10 18h1v1h-1z"/><path d="M11 18h1v1h-1z"/></g><g class="G"><path d="M12 18h1v1h-1z"/><path d="M13 18h1v1h-1z"/><path d="M14 18h1v1h-1z"/><path d="M15 18h1v1h-1z"/></g><path d="M16 18h1v1h-1z" class="F"/><g class="E"><path d="M17 18h1v1h-1zm23 0h1v1h-1z"/><path d="M41 18h1v1h-1z"/><path d="M42 18h1v1h-1z"/></g><path d="M43 18h1v1h-1z" class="G"/><g class="H"><path d="M44 18h1v1h-1z"/><path d="M45 18h1v1h-1z"/></g><g class="F"><path d="M46 18h1v1h-1z"/><path d="M47 18h1v1h-1z"/><path d="M48 18h1v1h-1z"/></g><path d="M49 18h1v1h-1z" class="H"/><g class="I"><path d="M50 18h1v1h-1z"/><path d="M51 18h1v1h-1z"/></g><path d="M52 18h1v1h-1zM4 19h1v1H4z" class="E"/><path d="M5 19h1v1H5z" class="H"/><path d="M6 19h1v1H6z" class="G"/><g class="F"><path d="M7 19h1v1H7z"/><path d="M8 19h1v1H8z"/></g><g class="I"><path d="M9 19h1v1H9z"/><path d="M10 19h1v1h-1z"/></g><path d="M11 19h1v1h-1z" class="G"/><path d="M12 19h1v1h-1z" class="F"/><g class="G"><path d="M13 19h1v1h-1z"/><path d="M14 19h1v1h-1z"/></g><g class="F"><path d="M15 19h1v1h-1z"/><path d="M16 19h1v1h-1z"/></g><g class="E"><path d="M17 19h1v1h-1zm20 0h1v1h-1z"/><path d="M38 19h1v1h-1z"/><path d="M39 19h1v1h-1zm4 0h1v1h-1z"/></g><path d="M44 19h1v1h-1z" class="G"/><path d="M45 19h1v1h-1z" class="F"/><g class="H"><path d="M46 19h1v1h-1z"/><path d="M47 19h1v1h-1z"/><path d="M48 19h1v1h-1z"/></g><g class="I"><path d="M49 19h1v1h-1z"/><path d="M50 19h1v1h-1z"/></g><path d="M51 19h1v1h-1zM5 20h1v1H5z" class="E"/><path d="M6 20h1v1H6z" class="F"/><g class="H"><path d="M7 20h1v1H7z"/><path d="M8 20h1v1H8z"/><path d="M9 20h1v1H9z"/><path d="M10 20h1v1h-1z"/></g><path d="M11 20h1v1h-1z" class="F"/><g class="G"><path d="M12 20h1v1h-1z"/><path d="M13 20h1v1h-1z"/></g><path d="M14 20h1v1h-1z" class="H"/><path d="M15 20h1v1h-1z" class="F"/><g class="E"><path d="M16 20h1v1h-1zm10 0h1v1h-1zm3 0h1v1h-1zm2 0h1v1h-1z"/><path d="M32 20h1v1h-1z"/><path d="M33 20h1v1h-1zm11 0h1v1h-1z"/></g><g class="H"><path d="M45 20h1v1h-1z"/><path d="M46 20h1v1h-1z"/></g><g class="I"><path d="M47 20h1v1h-1z"/><path d="M48 20h1v1h-1z"/><path d="M49 20h1v1h-1z"/></g><path d="M50 20h1v1h-1zM5 21h1v1H5z" class="E"/><g class="H"><path d="M6 21h1v1H6z"/><path d="M7 21h1v1H7z"/><path d="M8 21h1v1H8z"/></g><g class="F"><path d="M9 21h1v1H9z"/><path d="M10 21h1v1h-1z"/></g><g class="H"><path d="M11 21h1v1h-1z"/><path d="M12 21h1v1h-1z"/><path d="M13 21h1v1h-1z"/></g><path d="M14 21h1v1h-1z" class="F"/><path d="M15 21h1v1h-1z" class="I"/><g class="E"><path d="M16 21h1v1h-1zm29 0h1v1h-1z"/><path d="M46 21h1v1h-1z"/><path d="M47 21h1v1h-1z"/><path d="M48 21h1v1h-1z"/><path d="M49 21h1v1h-1zM6 22h1v1H6z"/></g><g class="F"><path d="M7 22h1v1H7z"/><path d="M8 22h1v1H8z"/><path d="M9 22h1v1H9z"/></g><g class="I"><path d="M10 22h1v1h-1z"/><path d="M11 22h1v1h-1z"/><path d="M12 22h1v1h-1z"/><path d="M13 22h1v1h-1z"/><path d="M14 22h1v1h-1z"/></g><g class="E"><path d="M15 22h1v1h-1zm-8 1h1v1H7z"/><path d="M8 23h1v1H8z"/></g><g class="I"><path d="M9 23h1v1H9z"/><path d="M10 23h1v1h-1z"/><path d="M11 23h1v1h-1z"/><path d="M12 23h1v1h-1z"/></g><g class="E"><path d="M13 23h1v1h-1z"/><path d="M14 23h1v1h-1zm-5 1h1v1H9z"/><path d="M10 24h1v1h-1z"/><path d="M11 24h1v1h-1z"/><path d="M12 24h1v1h-1z"/></g></svg>