<svg xmlns="http://www.w3.org/2000/svg" width="53" height="33" shape-rendering="crispEdges" xmlns:v="https://vecta.io/nano"><style><![CDATA[.B{fill:#71bcf9}.C{fill:#123d5e}.D{fill:#349df2}.E{fill:#050b6d}.F{fill:#2168f6}.G{fill:#0026f5}.H{fill:#3182f6}.I{fill:#cde8ff}]]></style><g class="C"><path d="M14 0h1v1h-1z"/><path d="M15 0h1v1h-1z"/><path d="M16 0h1v1h-1z"/><path d="M17 0h1v1h-1z"/><path d="M18 0h1v1h-1z"/><path d="M19 0h1v1h-1z"/><path d="M20 0h1v1h-1z"/><path d="M21 0h1v1h-1zm9 0h1v1h-1z"/><path d="M31 0h1v1h-1z"/><path d="M32 0h1v1h-1z"/><path d="M33 0h1v1h-1z"/><path d="M34 0h1v1h-1z"/><path d="M35 0h1v1h-1z"/><path d="M36 0h1v1h-1z"/><path d="M37 0h1v1h-1zM14 1h1v1h-1z"/><path d="M15 1h1v1h-1z"/><path d="M16 1h1v1h-1z"/><path d="M17 1h1v1h-1z"/><path d="M18 1h1v1h-1z"/><path d="M19 1h1v1h-1z"/><path d="M20 1h1v1h-1z"/><path d="M21 1h1v1h-1zm9 0h1v1h-1z"/><path d="M31 1h1v1h-1z"/><path d="M32 1h1v1h-1z"/><path d="M33 1h1v1h-1z"/><path d="M34 1h1v1h-1z"/><path d="M35 1h1v1h-1z"/><path d="M36 1h1v1h-1z"/><path d="M37 1h1v1h-1zM12 2h1v1h-1z"/><path d="M13 2h1v1h-1z"/></g><g class="D"><path d="M14 2h1v1h-1z"/><path d="M15 2h1v1h-1z"/><path d="M16 2h1v1h-1z"/><path d="M17 2h1v1h-1z"/><path d="M18 2h1v1h-1z"/><path d="M19 2h1v1h-1z"/><path d="M20 2h1v1h-1z"/><path d="M21 2h1v1h-1z"/></g><g class="C"><path d="M22 2h1v1h-1z"/><path d="M23 2h1v1h-1zm5 0h1v1h-1z"/><path d="M29 2h1v1h-1z"/></g><g class="D"><path d="M30 2h1v1h-1z"/><path d="M31 2h1v1h-1z"/><path d="M32 2h1v1h-1z"/><path d="M33 2h1v1h-1z"/><path d="M34 2h1v1h-1z"/><path d="M35 2h1v1h-1z"/><path d="M36 2h1v1h-1z"/><path d="M37 2h1v1h-1z"/></g><g class="C"><path d="M38 2h1v1h-1z"/><path d="M39 2h1v1h-1zM12 3h1v1h-1z"/><path d="M13 3h1v1h-1z"/></g><path d="M14 3h1v1h-1z" class="D"/><g class="B"><path d="M15 3h1v1h-1z"/><path d="M16 3h1v1h-1z"/><path d="M17 3h1v1h-1z"/><path d="M18 3h1v1h-1z"/><path d="M19 3h1v1h-1z"/><path d="M20 3h1v1h-1z"/><path d="M21 3h1v1h-1z"/></g><g class="C"><path d="M22 3h1v1h-1z"/><path d="M23 3h1v1h-1zm5 0h1v1h-1z"/><path d="M29 3h1v1h-1z"/></g><g class="D"><path d="M30 3h1v1h-1z"/><path d="M31 3h1v1h-1z"/><path d="M32 3h1v1h-1z"/><path d="M33 3h1v1h-1z"/><path d="M34 3h1v1h-1z"/><path d="M35 3h1v1h-1z"/><path d="M36 3h1v1h-1z"/><path d="M37 3h1v1h-1z"/></g><g class="C"><path d="M38 3h1v1h-1z"/><path d="M39 3h1v1h-1zM10 4h1v1h-1z"/><path d="M11 4h1v1h-1z"/></g><path d="M12 4h1v1h-1z" class="D"/><g class="B"><path d="M13 4h1v1h-1z"/><path d="M14 4h1v1h-1z"/><path d="M15 4h1v1h-1z"/><path d="M16 4h1v1h-1z"/><path d="M17 4h1v1h-1z"/><path d="M18 4h1v1h-1z"/><path d="M19 4h1v1h-1z"/><path d="M20 4h1v1h-1z"/><path d="M21 4h1v1h-1z"/></g><g class="D"><path d="M22 4h1v1h-1z"/><path d="M23 4h1v1h-1z"/></g><g class="C"><path d="M24 4h1v1h-1z"/><path d="M25 4h1v1h-1z"/><path d="M26 4h1v1h-1z"/><path d="M27 4h1v1h-1z"/></g><g class="D"><path d="M28 4h1v1h-1z"/><path d="M29 4h1v1h-1z"/></g><g class="B"><path d="M30 4h1v1h-1z"/><path d="M31 4h1v1h-1z"/><path d="M32 4h1v1h-1z"/><path d="M33 4h1v1h-1z"/><path d="M34 4h1v1h-1z"/><path d="M35 4h1v1h-1z"/><path d="M36 4h1v1h-1z"/><path d="M37 4h1v1h-1z"/></g><g class="D"><path d="M38 4h1v1h-1z"/><path d="M39 4h1v1h-1z"/></g><g class="C"><path d="M40 4h1v1h-1z"/><path d="M41 4h1v1h-1zM10 5h1v1h-1z"/><path d="M11 5h1v1h-1z"/></g><path d="M12 5h1v1h-1z" class="D"/><g class="B"><path d="M13 5h1v1h-1z"/><path d="M14 5h1v1h-1z"/><path d="M15 5h1v1h-1z"/><path d="M16 5h1v1h-1z"/><path d="M17 5h1v1h-1z"/><path d="M18 5h1v1h-1z"/><path d="M19 5h1v1h-1z"/><path d="M20 5h1v1h-1z"/><path d="M21 5h1v1h-1z"/><path d="M22 5h1v1h-1z"/><path d="M23 5h1v1h-1z"/></g><g class="C"><path d="M24 5h1v1h-1z"/><path d="M25 5h1v1h-1z"/><path d="M26 5h1v1h-1z"/><path d="M27 5h1v1h-1z"/></g><g class="D"><path d="M28 5h1v1h-1z"/><path d="M29 5h1v1h-1z"/></g><g class="B"><path d="M30 5h1v1h-1z"/><path d="M31 5h1v1h-1z"/><path d="M32 5h1v1h-1z"/><path d="M33 5h1v1h-1z"/><path d="M34 5h1v1h-1z"/><path d="M35 5h1v1h-1z"/><path d="M36 5h1v1h-1z"/><path d="M37 5h1v1h-1z"/></g><g class="D"><path d="M38 5h1v1h-1z"/><path d="M39 5h1v1h-1z"/></g><g class="C"><path d="M40 5h1v1h-1z"/><path d="M41 5h1v1h-1zM10 6h1v1h-1z"/><path d="M11 6h1v1h-1z"/></g><path d="M12 6h1v1h-1z" class="D"/><g class="B"><path d="M13 6h1v1h-1z"/><path d="M14 6h1v1h-1z"/><path d="M15 6h1v1h-1z"/><path d="M16 6h1v1h-1z"/><path d="M17 6h1v1h-1z"/><path d="M18 6h1v1h-1z"/><path d="M19 6h1v1h-1z"/><path d="M20 6h1v1h-1z"/><path d="M21 6h1v1h-1z"/><path d="M22 6h1v1h-1z"/><path d="M23 6h1v1h-1z"/></g><g class="D"><path d="M24 6h1v1h-1z"/><path d="M25 6h1v1h-1z"/><path d="M26 6h1v1h-1z"/><path d="M27 6h1v1h-1z"/></g><g class="B"><path d="M28 6h1v1h-1z"/><path d="M29 6h1v1h-1z"/><path d="M30 6h1v1h-1z"/><path d="M31 6h1v1h-1z"/><path d="M32 6h1v1h-1z"/><path d="M33 6h1v1h-1z"/><path d="M34 6h1v1h-1z"/><path d="M35 6h1v1h-1z"/><path d="M36 6h1v1h-1z"/><path d="M37 6h1v1h-1z"/></g><g class="D"><path d="M38 6h1v1h-1z"/><path d="M39 6h1v1h-1z"/></g><g class="C"><path d="M40 6h1v1h-1z"/><path d="M41 6h1v1h-1zM10 7h1v1h-1z"/><path d="M11 7h1v1h-1z"/></g><path d="M12 7h1v1h-1z" class="D"/><g class="B"><path d="M13 7h1v1h-1z"/><path d="M14 7h1v1h-1z"/><path d="M15 7h1v1h-1z"/><path d="M16 7h1v1h-1z"/><path d="M17 7h1v1h-1z"/><path d="M18 7h1v1h-1z"/><path d="M19 7h1v1h-1z"/><path d="M20 7h1v1h-1z"/><path d="M21 7h1v1h-1z"/><path d="M22 7h1v1h-1z"/><path d="M23 7h1v1h-1z"/><path d="M24 7h1v1h-1z"/><path d="M25 7h1v1h-1z"/></g><g class="D"><path d="M26 7h1v1h-1z"/><path d="M27 7h1v1h-1z"/></g><g class="B"><path d="M28 7h1v1h-1z"/><path d="M29 7h1v1h-1z"/><path d="M30 7h1v1h-1z"/><path d="M31 7h1v1h-1z"/><path d="M32 7h1v1h-1z"/><path d="M33 7h1v1h-1z"/><path d="M34 7h1v1h-1z"/><path d="M35 7h1v1h-1z"/><path d="M36 7h1v1h-1z"/><path d="M37 7h1v1h-1z"/></g><g class="D"><path d="M38 7h1v1h-1z"/><path d="M39 7h1v1h-1z"/></g><g class="C"><path d="M40 7h1v1h-1z"/><path d="M41 7h1v1h-1zM10 8h1v1h-1z"/><path d="M11 8h1v1h-1z"/></g><path d="M12 8h1v1h-1z" class="D"/><g class="B"><path d="M13 8h1v1h-1z"/><path d="M14 8h1v1h-1z"/><path d="M15 8h1v1h-1z"/><path d="M16 8h1v1h-1z"/><path d="M17 8h1v1h-1z"/><path d="M18 8h1v1h-1z"/><path d="M19 8h1v1h-1z"/></g><g class="C"><path d="M20 8h1v1h-1z"/><path d="M21 8h1v1h-1z"/><path d="M22 8h1v1h-1z"/></g><g class="B"><path d="M23 8h1v1h-1z"/><path d="M24 8h1v1h-1z"/><path d="M25 8h1v1h-1z"/><path d="M26 8h1v1h-1z"/><path d="M27 8h1v1h-1z"/><path d="M28 8h1v1h-1z"/></g><g class="C"><path d="M29 8h1v1h-1z"/><path d="M30 8h1v1h-1z"/><path d="M31 8h1v1h-1z"/></g><g class="B"><path d="M32 8h1v1h-1z"/><path d="M33 8h1v1h-1z"/><path d="M34 8h1v1h-1z"/><path d="M35 8h1v1h-1z"/><path d="M36 8h1v1h-1z"/><path d="M37 8h1v1h-1z"/></g><g class="D"><path d="M38 8h1v1h-1z"/><path d="M39 8h1v1h-1z"/></g><g class="C"><path d="M40 8h1v1h-1z"/><path d="M41 8h1v1h-1zM10 9h1v1h-1z"/><path d="M11 9h1v1h-1z"/></g><path d="M12 9h1v1h-1z" class="D"/><g class="B"><path d="M13 9h1v1h-1z"/><path d="M14 9h1v1h-1z"/><path d="M15 9h1v1h-1z"/><path d="M16 9h1v1h-1z"/><path d="M17 9h1v1h-1z"/><path d="M18 9h1v1h-1z"/></g><path d="M19 9h1v1h-1z" class="C"/><g class="I"><path d="M20 9h1v1h-1z"/><path d="M21 9h1v1h-1z"/></g><g class="C"><path d="M22 9h1v1h-1z"/><path d="M23 9h1v1h-1z"/></g><g class="B"><path d="M24 9h1v1h-1z"/><path d="M25 9h1v1h-1z"/><path d="M26 9h1v1h-1z"/><path d="M27 9h1v1h-1z"/></g><path d="M28 9h1v1h-1z" class="C"/><g class="I"><path d="M29 9h1v1h-1z"/><path d="M30 9h1v1h-1z"/></g><g class="C"><path d="M31 9h1v1h-1z"/><path d="M32 9h1v1h-1z"/></g><g class="B"><path d="M33 9h1v1h-1z"/><path d="M34 9h1v1h-1z"/><path d="M35 9h1v1h-1z"/><path d="M36 9h1v1h-1z"/><path d="M37 9h1v1h-1z"/></g><g class="D"><path d="M38 9h1v1h-1z"/><path d="M39 9h1v1h-1z"/></g><g class="C"><path d="M40 9h1v1h-1z"/><path d="M41 9h1v1h-1zm-31 1h1v1h-1z"/><path d="M11 10h1v1h-1z"/></g><path d="M12 10h1v1h-1z" class="D"/><g class="B"><path d="M13 10h1v1h-1z"/><path d="M14 10h1v1h-1z"/><path d="M15 10h1v1h-1z"/><path d="M16 10h1v1h-1z"/><path d="M17 10h1v1h-1z"/><path d="M18 10h1v1h-1z"/></g><path d="M19 10h1v1h-1z" class="C"/><path d="M20 10h1v1h-1z" class="I"/><g class="C"><path d="M21 10h1v1h-1z"/><path d="M22 10h1v1h-1z"/><path d="M23 10h1v1h-1z"/></g><g class="B"><path d="M24 10h1v1h-1z"/><path d="M25 10h1v1h-1z"/><path d="M26 10h1v1h-1z"/><path d="M27 10h1v1h-1z"/></g><path d="M28 10h1v1h-1z" class="C"/><path d="M29 10h1v1h-1z" class="I"/><g class="C"><path d="M30 10h1v1h-1z"/><path d="M31 10h1v1h-1z"/><path d="M32 10h1v1h-1z"/></g><g class="B"><path d="M33 10h1v1h-1z"/><path d="M34 10h1v1h-1z"/><path d="M35 10h1v1h-1z"/><path d="M36 10h1v1h-1z"/><path d="M37 10h1v1h-1z"/></g><g class="D"><path d="M38 10h1v1h-1z"/><path d="M39 10h1v1h-1z"/></g><g class="C"><path d="M40 10h1v1h-1z"/><path d="M41 10h1v1h-1zm-31 1h1v1h-1z"/><path d="M11 11h1v1h-1z"/></g><path d="M12 11h1v1h-1z" class="D"/><g class="B"><path d="M13 11h1v1h-1z"/><path d="M14 11h1v1h-1z"/><path d="M15 11h1v1h-1z"/><path d="M16 11h1v1h-1z"/><path d="M17 11h1v1h-1z"/><path d="M18 11h1v1h-1z"/></g><g class="C"><path d="M19 11h1v1h-1z"/><path d="M20 11h1v1h-1z"/><path d="M21 11h1v1h-1z"/><path d="M22 11h1v1h-1z"/><path d="M23 11h1v1h-1z"/></g><g class="B"><path d="M24 11h1v1h-1z"/><path d="M25 11h1v1h-1z"/><path d="M26 11h1v1h-1z"/><path d="M27 11h1v1h-1z"/></g><g class="C"><path d="M28 11h1v1h-1z"/><path d="M29 11h1v1h-1z"/><path d="M30 11h1v1h-1z"/><path d="M31 11h1v1h-1z"/><path d="M32 11h1v1h-1z"/></g><g class="B"><path d="M33 11h1v1h-1z"/><path d="M34 11h1v1h-1z"/><path d="M35 11h1v1h-1z"/><path d="M36 11h1v1h-1z"/><path d="M37 11h1v1h-1z"/></g><g class="D"><path d="M38 11h1v1h-1z"/><path d="M39 11h1v1h-1z"/></g><g class="C"><path d="M40 11h1v1h-1z"/><path d="M41 11h1v1h-1z"/></g><path d="M43 11h1v1h-1zM5 12h1v1H5z" class="E"/><g class="C"><path d="M10 12h1v1h-1z"/><path d="M11 12h1v1h-1z"/></g><path d="M12 12h1v1h-1z" class="D"/><g class="B"><path d="M13 12h1v1h-1z"/><path d="M14 12h1v1h-1z"/><path d="M15 12h1v1h-1z"/><path d="M16 12h1v1h-1z"/><path d="M17 12h1v1h-1z"/><path d="M18 12h1v1h-1z"/><path d="M19 12h1v1h-1z"/></g><g class="C"><path d="M20 12h1v1h-1z"/><path d="M21 12h1v1h-1z"/><path d="M22 12h1v1h-1z"/></g><g class="B"><path d="M23 12h1v1h-1z"/><path d="M24 12h1v1h-1z"/><path d="M25 12h1v1h-1z"/><path d="M26 12h1v1h-1z"/><path d="M27 12h1v1h-1z"/><path d="M28 12h1v1h-1z"/></g><g class="C"><path d="M29 12h1v1h-1z"/><path d="M30 12h1v1h-1z"/><path d="M31 12h1v1h-1z"/></g><g class="B"><path d="M32 12h1v1h-1z"/><path d="M33 12h1v1h-1z"/><path d="M34 12h1v1h-1z"/><path d="M35 12h1v1h-1z"/><path d="M36 12h1v1h-1z"/><path d="M37 12h1v1h-1z"/></g><g class="D"><path d="M38 12h1v1h-1z"/><path d="M39 12h1v1h-1z"/></g><g class="C"><path d="M40 12h1v1h-1z"/><path d="M41 12h1v1h-1z"/></g><g class="E"><path d="M45 12h1v1h-1z"/><path d="M46 12h1v1h-1zM3 13h1v1H3z"/></g><g class="C"><path d="M10 13h1v1h-1z"/><path d="M11 13h1v1h-1z"/></g><path d="M12 13h1v1h-1z" class="D"/><g class="B"><path d="M13 13h1v1h-1z"/><path d="M14 13h1v1h-1z"/><path d="M15 13h1v1h-1z"/><path d="M16 13h1v1h-1z"/><path d="M17 13h1v1h-1z"/><path d="M18 13h1v1h-1z"/><path d="M19 13h1v1h-1z"/><path d="M20 13h1v1h-1z"/><path d="M21 13h1v1h-1z"/><path d="M22 13h1v1h-1z"/><path d="M23 13h1v1h-1z"/><path d="M24 13h1v1h-1z"/><path d="M25 13h1v1h-1z"/><path d="M26 13h1v1h-1z"/><path d="M27 13h1v1h-1z"/><path d="M28 13h1v1h-1z"/><path d="M29 13h1v1h-1z"/><path d="M30 13h1v1h-1z"/><path d="M31 13h1v1h-1z"/><path d="M32 13h1v1h-1z"/><path d="M33 13h1v1h-1z"/><path d="M34 13h1v1h-1z"/><path d="M35 13h1v1h-1z"/><path d="M36 13h1v1h-1z"/><path d="M37 13h1v1h-1z"/></g><g class="D"><path d="M38 13h1v1h-1z"/><path d="M39 13h1v1h-1z"/></g><g class="C"><path d="M40 13h1v1h-1z"/><path d="M41 13h1v1h-1z"/></g><g class="E"><path d="M48 13h1v1h-1z"/><path d="M49 13h1v1h-1z"/><path d="M50 13h1v1h-1zM1 14h1v1H1z"/></g><g class="C"><path d="M12 14h1v1h-1z"/><path d="M13 14h1v1h-1z"/></g><path d="M14 14h1v1h-1z" class="D"/><g class="B"><path d="M15 14h1v1h-1z"/><path d="M16 14h1v1h-1z"/><path d="M17 14h1v1h-1z"/><path d="M18 14h1v1h-1z"/><path d="M19 14h1v1h-1z"/><path d="M20 14h1v1h-1z"/><path d="M21 14h1v1h-1z"/><path d="M22 14h1v1h-1z"/><path d="M23 14h1v1h-1z"/><path d="M24 14h1v1h-1z"/><path d="M25 14h1v1h-1z"/><path d="M26 14h1v1h-1z"/><path d="M27 14h1v1h-1z"/><path d="M28 14h1v1h-1z"/><path d="M29 14h1v1h-1z"/><path d="M30 14h1v1h-1z"/><path d="M31 14h1v1h-1z"/><path d="M32 14h1v1h-1z"/><path d="M33 14h1v1h-1z"/><path d="M34 14h1v1h-1z"/><path d="M35 14h1v1h-1z"/></g><g class="D"><path d="M36 14h1v1h-1z"/><path d="M37 14h1v1h-1z"/></g><g class="C"><path d="M38 14h1v1h-1z"/><path d="M39 14h1v1h-1z"/></g><path d="M47 14h1v1h-1z" class="E"/><g class="B"><path d="M48 14h1v1h-1z"/><path d="M49 14h1v1h-1z"/></g><path d="M50 14h1v1h-1z" class="F"/><path d="M51 14h1v1h-1zM1 15h1v1H1z" class="E"/><g class="C"><path d="M12 15h1v1h-1z"/><path d="M13 15h1v1h-1z"/></g><path d="M14 15h1v1h-1z" class="D"/><g class="B"><path d="M15 15h1v1h-1z"/><path d="M16 15h1v1h-1z"/><path d="M17 15h1v1h-1z"/><path d="M18 15h1v1h-1z"/><path d="M19 15h1v1h-1z"/><path d="M20 15h1v1h-1z"/><path d="M21 15h1v1h-1z"/><path d="M22 15h1v1h-1z"/><path d="M23 15h1v1h-1z"/><path d="M24 15h1v1h-1z"/><path d="M25 15h1v1h-1z"/><path d="M26 15h1v1h-1z"/><path d="M27 15h1v1h-1z"/><path d="M28 15h1v1h-1z"/><path d="M29 15h1v1h-1z"/><path d="M30 15h1v1h-1z"/><path d="M31 15h1v1h-1z"/><path d="M32 15h1v1h-1z"/><path d="M33 15h1v1h-1z"/><path d="M34 15h1v1h-1z"/><path d="M35 15h1v1h-1z"/></g><g class="D"><path d="M36 15h1v1h-1z"/><path d="M37 15h1v1h-1z"/></g><g class="C"><path d="M38 15h1v1h-1z"/><path d="M39 15h1v1h-1z"/></g><path d="M46 15h1v1h-1z" class="E"/><g class="B"><path d="M47 15h1v1h-1z"/><path d="M48 15h1v1h-1z"/></g><g class="F"><path d="M49 15h1v1h-1z"/><path d="M50 15h1v1h-1z"/></g><path d="M51 15h1v1h-1z" class="H"/><g class="E"><path d="M52 15h1v1h-1zM0 16h1v1H0zm3 0h1v1H3z"/><path d="M4 16h1v1H4z"/><path d="M5 16h1v1H5z"/><path d="M6 16h1v1H6z"/><path d="M7 16h1v1H7z"/></g><g class="C"><path d="M14 16h1v1h-1z"/><path d="M15 16h1v1h-1z"/></g><path d="M16 16h1v1h-1z" class="D"/><g class="B"><path d="M17 16h1v1h-1z"/><path d="M18 16h1v1h-1z"/><path d="M19 16h1v1h-1z"/><path d="M20 16h1v1h-1z"/><path d="M21 16h1v1h-1z"/><path d="M22 16h1v1h-1z"/><path d="M23 16h1v1h-1z"/><path d="M24 16h1v1h-1z"/><path d="M25 16h1v1h-1z"/><path d="M26 16h1v1h-1z"/><path d="M27 16h1v1h-1z"/><path d="M28 16h1v1h-1z"/><path d="M29 16h1v1h-1z"/><path d="M30 16h1v1h-1z"/><path d="M31 16h1v1h-1z"/><path d="M32 16h1v1h-1z"/><path d="M33 16h1v1h-1z"/></g><g class="D"><path d="M34 16h1v1h-1z"/><path d="M35 16h1v1h-1z"/></g><g class="C"><path d="M36 16h1v1h-1z"/><path d="M37 16h1v1h-1z"/></g><path d="M46 16h1v1h-1z" class="E"/><g class="F"><path d="M47 16h1v1h-1z"/><path d="M48 16h1v1h-1z"/><path d="M49 16h1v1h-1z"/></g><path d="M50 16h1v1h-1z" class="H"/><path d="M51 16h1v1h-1z" class="G"/><path d="M52 16h1v1h-1zM0 17h1v1H0zm2 0h1v1H2z" class="E"/><path d="M3 17h1v1H3z" class="H"/><g class="F"><path d="M4 17h1v1H4z"/><path d="M5 17h1v1H5z"/><path d="M6 17h1v1H6z"/><path d="M7 17h1v1H7z"/></g><path d="M8 17h1v1H8z" class="E"/><g class="C"><path d="M14 17h1v1h-1z"/><path d="M15 17h1v1h-1z"/></g><path d="M16 17h1v1h-1z" class="D"/><g class="B"><path d="M17 17h1v1h-1z"/><path d="M18 17h1v1h-1z"/><path d="M19 17h1v1h-1z"/><path d="M20 17h1v1h-1z"/><path d="M21 17h1v1h-1z"/><path d="M22 17h1v1h-1z"/><path d="M23 17h1v1h-1z"/><path d="M24 17h1v1h-1z"/><path d="M25 17h1v1h-1z"/><path d="M26 17h1v1h-1z"/><path d="M27 17h1v1h-1z"/><path d="M28 17h1v1h-1z"/><path d="M29 17h1v1h-1z"/><path d="M30 17h1v1h-1z"/><path d="M31 17h1v1h-1z"/><path d="M32 17h1v1h-1z"/><path d="M33 17h1v1h-1z"/></g><g class="D"><path d="M34 17h1v1h-1z"/><path d="M35 17h1v1h-1z"/></g><g class="C"><path d="M36 17h1v1h-1z"/><path d="M37 17h1v1h-1z"/></g><path d="M46 17h1v1h-1z" class="E"/><path d="M47 17h1v1h-1z" class="F"/><g class="H"><path d="M48 17h1v1h-1z"/><path d="M49 17h1v1h-1z"/></g><g class="G"><path d="M50 17h1v1h-1z"/><path d="M51 17h1v1h-1z"/></g><path d="M52 17h1v1h-1zM1 18h1v1H1z" class="E"/><path d="M2 18h1v1H2z" class="H"/><g class="F"><path d="M3 18h1v1H3z"/><path d="M4 18h1v1H4z"/></g><path d="M5 18h1v1H5z" class="G"/><g class="B"><path d="M6 18h1v1H6z"/><path d="M7 18h1v1H7z"/><path d="M8 18h1v1H8z"/></g><path d="M9 18h1v1H9z" class="E"/><g class="C"><path d="M16 18h1v1h-1z"/><path d="M17 18h1v1h-1z"/></g><g class="D"><path d="M18 18h1v1h-1z"/><path d="M19 18h1v1h-1z"/><path d="M20 18h1v1h-1z"/><path d="M21 18h1v1h-1z"/></g><g class="B"><path d="M22 18h1v1h-1z"/><path d="M23 18h1v1h-1z"/><path d="M24 18h1v1h-1z"/><path d="M25 18h1v1h-1z"/><path d="M26 18h1v1h-1z"/><path d="M27 18h1v1h-1z"/><path d="M28 18h1v1h-1z"/><path d="M29 18h1v1h-1z"/></g><g class="D"><path d="M30 18h1v1h-1z"/><path d="M31 18h1v1h-1z"/><path d="M32 18h1v1h-1z"/><path d="M33 18h1v1h-1z"/></g><g class="C"><path d="M34 18h1v1h-1z"/><path d="M35 18h1v1h-1z"/></g><path d="M47 18h1v1h-1z" class="E"/><g class="G"><path d="M48 18h1v1h-1z"/><path d="M49 18h1v1h-1z"/><path d="M50 18h1v1h-1z"/></g><path d="M51 18h1v1h-1zM0 19h1v1H0z" class="E"/><path d="M1 19h1v1H1z" class="H"/><path d="M2 19h1v1H2z" class="F"/><g class="G"><path d="M3 19h1v1H3z"/><path d="M4 19h1v1H4z"/></g><g class="B"><path d="M5 19h1v1H5z"/><path d="M6 19h1v1H6z"/></g><g class="H"><path d="M7 19h1v1H7z"/><path d="M8 19h1v1H8z"/></g><path d="M9 19h1v1H9z" class="F"/><path d="M10 19h1v1h-1z" class="E"/><g class="C"><path d="M16 19h1v1h-1z"/><path d="M17 19h1v1h-1z"/></g><g class="D"><path d="M18 19h1v1h-1z"/><path d="M19 19h1v1h-1z"/><path d="M20 19h1v1h-1z"/><path d="M21 19h1v1h-1z"/></g><g class="B"><path d="M22 19h1v1h-1z"/><path d="M23 19h1v1h-1z"/><path d="M24 19h1v1h-1z"/><path d="M25 19h1v1h-1z"/><path d="M26 19h1v1h-1z"/><path d="M27 19h1v1h-1z"/><path d="M28 19h1v1h-1z"/><path d="M29 19h1v1h-1z"/></g><g class="D"><path d="M30 19h1v1h-1z"/><path d="M31 19h1v1h-1z"/><path d="M32 19h1v1h-1z"/></g><g class="E"><path d="M33 19h1v1h-1z"/><path d="M34 19h1v1h-1z"/><path d="M35 19h1v1h-1z"/><path d="M36 19h1v1h-1zm12 0h1v1h-1z"/><path d="M49 19h1v1h-1z"/><path d="M50 19h1v1h-1zM0 20h1v1H0z"/></g><path d="M1 20h1v1H1z" class="F"/><path d="M2 20h1v1H2z" class="G"/><path d="M3 20h1v1H3z" class="B"/><g class="H"><path d="M4 20h1v1H4z"/><path d="M5 20h1v1H5z"/><path d="M6 20h1v1H6z"/><path d="M7 20h1v1H7z"/></g><path d="M8 20h1v1H8z" class="G"/><path d="M9 20h1v1H9z" class="F"/><path d="M10 20h1v1h-1z" class="E"/><g class="C"><path d="M18 20h1v1h-1z"/><path d="M19 20h1v1h-1z"/><path d="M20 20h1v1h-1z"/><path d="M21 20h1v1h-1z"/></g><g class="D"><path d="M22 20h1v1h-1z"/><path d="M23 20h1v1h-1z"/><path d="M24 20h1v1h-1z"/><path d="M25 20h1v1h-1z"/><path d="M26 20h1v1h-1z"/><path d="M27 20h1v1h-1z"/><path d="M28 20h1v1h-1z"/><path d="M29 20h1v1h-1z"/></g><path d="M30 20h1v1h-1z" class="C"/><g class="E"><path d="M31 20h1v1h-1z"/><path d="M32 20h1v1h-1z"/></g><g class="B"><path d="M33 20h1v1h-1z"/><path d="M34 20h1v1h-1z"/></g><path d="M35 20h1v1h-1z" class="G"/><path d="M36 20h1v1h-1z" class="F"/><g class="E"><path d="M37 20h1v1h-1z"/><path d="M38 20h1v1h-1zM0 21h1v1H0z"/></g><path d="M1 21h1v1H1z" class="F"/><g class="B"><path d="M2 21h1v1H2z"/><path d="M3 21h1v1H3z"/></g><g class="F"><path d="M4 21h1v1H4z"/><path d="M5 21h1v1H5z"/></g><g class="G"><path d="M6 21h1v1H6z"/><path d="M7 21h1v1H7z"/></g><g class="B"><path d="M8 21h1v1H8z"/><path d="M9 21h1v1H9z"/></g><path d="M10 21h1v1h-1z" class="E"/><g class="C"><path d="M18 21h1v1h-1z"/><path d="M19 21h1v1h-1z"/><path d="M20 21h1v1h-1z"/><path d="M21 21h1v1h-1z"/></g><g class="D"><path d="M22 21h1v1h-1z"/><path d="M23 21h1v1h-1z"/><path d="M24 21h1v1h-1z"/><path d="M25 21h1v1h-1z"/><path d="M26 21h1v1h-1z"/><path d="M27 21h1v1h-1z"/><path d="M28 21h1v1h-1z"/><path d="M29 21h1v1h-1z"/></g><path d="M30 21h1v1h-1z" class="E"/><g class="B"><path d="M31 21h1v1h-1z"/><path d="M32 21h1v1h-1z"/></g><g class="G"><path d="M33 21h1v1h-1z"/><path d="M34 21h1v1h-1z"/></g><g class="F"><path d="M35 21h1v1h-1z"/><path d="M36 21h1v1h-1z"/><path d="M37 21h1v1h-1z"/><path d="M38 21h1v1h-1z"/></g><path d="M39 21h1v1h-1zM0 22h1v1H0z" class="E"/><path d="M1 22h1v1H1z" class="F"/><path d="M2 22h1v1H2z" class="B"/><g class="F"><path d="M3 22h1v1H3z"/><path d="M4 22h1v1H4z"/></g><g class="G"><path d="M5 22h1v1H5z"/><path d="M6 22h1v1H6z"/></g><g class="B"><path d="M7 22h1v1H7z"/><path d="M8 22h1v1H8z"/></g><path d="M9 22h1v1H9z" class="G"/><path d="M10 22h1v1h-1z" class="E"/><g class="C"><path d="M22 22h1v1h-1z"/><path d="M23 22h1v1h-1z"/><path d="M24 22h1v1h-1z"/><path d="M25 22h1v1h-1z"/><path d="M26 22h1v1h-1z"/><path d="M27 22h1v1h-1z"/><path d="M28 22h1v1h-1z"/></g><path d="M29 22h1v1h-1z" class="E"/><g class="B"><path d="M30 22h1v1h-1z"/><path d="M31 22h1v1h-1z"/></g><g class="G"><path d="M32 22h1v1h-1z"/><path d="M33 22h1v1h-1z"/></g><g class="F"><path d="M34 22h1v1h-1z"/><path d="M35 22h1v1h-1z"/><path d="M36 22h1v1h-1z"/></g><g class="B"><path d="M37 22h1v1h-1z"/><path d="M38 22h1v1h-1z"/></g><path d="M39 22h1v1h-1z" class="F"/><g class="E"><path d="M40 22h1v1h-1zm7 0h1v1h-1z"/><path d="M48 22h1v1h-1zM0 23h1v1H0z"/></g><path d="M1 23h1v1H1z" class="B"/><g class="F"><path d="M2 23h1v1H2z"/><path d="M3 23h1v1H3z"/></g><g class="H"><path d="M4 23h1v1H4z"/><path d="M5 23h1v1H5z"/><path d="M6 23h1v1H6z"/></g><path d="M7 23h1v1H7z" class="F"/><g class="G"><path d="M8 23h1v1H8z"/><path d="M9 23h1v1H9z"/></g><path d="M10 23h1v1h-1z" class="E"/><g class="C"><path d="M22 23h1v1h-1z"/><path d="M23 23h1v1h-1z"/><path d="M24 23h1v1h-1z"/><path d="M25 23h1v1h-1z"/><path d="M26 23h1v1h-1z"/><path d="M27 23h1v1h-1z"/><path d="M28 23h1v1h-1z"/></g><path d="M29 23h1v1h-1z" class="E"/><path d="M30 23h1v1h-1z" class="B"/><g class="G"><path d="M31 23h1v1h-1z"/><path d="M32 23h1v1h-1z"/></g><g class="F"><path d="M33 23h1v1h-1z"/><path d="M34 23h1v1h-1z"/><path d="M35 23h1v1h-1z"/></g><path d="M36 23h1v1h-1z" class="B"/><g class="F"><path d="M37 23h1v1h-1z"/><path d="M38 23h1v1h-1z"/><path d="M39 23h1v1h-1z"/></g><g class="E"><path d="M40 23h1v1h-1zm5 0h1v1h-1z"/><path d="M46 23h1v1h-1zM1 24h1v1H1z"/></g><path d="M2 24h1v1H2z" class="B"/><path d="M3 24h1v1H3z" class="H"/><g class="F"><path d="M4 24h1v1H4z"/><path d="M5 24h1v1H5z"/><path d="M6 24h1v1H6z"/></g><g class="G"><path d="M7 24h1v1H7z"/><path d="M8 24h1v1H8z"/></g><path d="M9 24h1v1H9zm19 0h1v1h-1z" class="E"/><path d="M29 24h1v1h-1z" class="B"/><g class="G"><path d="M30 24h1v1h-1z"/><path d="M31 24h1v1h-1z"/></g><g class="F"><path d="M32 24h1v1h-1z"/><path d="M33 24h1v1h-1z"/></g><g class="B"><path d="M34 24h1v1h-1z"/><path d="M35 24h1v1h-1z"/></g><g class="F"><path d="M36 24h1v1h-1z"/><path d="M37 24h1v1h-1z"/></g><path d="M38 24h1v1h-1z" class="G"/><path d="M39 24h1v1h-1z" class="H"/><path d="M40 24h1v1h-1z" class="F"/><path d="M41 24h1v1h-1zm2 0h1v1h-1zM2 25h1v1H2z" class="E"/><g class="F"><path d="M3 25h1v1H3z"/><path d="M4 25h1v1H4z"/></g><g class="G"><path d="M5 25h1v1H5z"/><path d="M6 25h1v1H6z"/><path d="M7 25h1v1H7z"/></g><path d="M8 25h1v1H8zm20 0h1v1h-1z" class="E"/><path d="M29 25h1v1h-1z" class="B"/><path d="M30 25h1v1h-1z" class="G"/><g class="F"><path d="M31 25h1v1h-1z"/><path d="M32 25h1v1h-1z"/></g><g class="B"><path d="M33 25h1v1h-1z"/><path d="M34 25h1v1h-1z"/></g><g class="G"><path d="M35 25h1v1h-1z"/><path d="M36 25h1v1h-1z"/><path d="M37 25h1v1h-1z"/></g><g class="H"><path d="M38 25h1v1h-1z"/><path d="M39 25h1v1h-1z"/></g><path d="M40 25h1v1h-1z" class="F"/><g class="E"><path d="M41 25h1v1h-1zM3 26h1v1H3z"/><path d="M4 26h1v1H4z"/><path d="M5 26h1v1H5z"/><path d="M6 26h1v1H6z"/><path d="M7 26h1v1H7zm4 0h1v1h-1zm2 0h1v1h-1z"/><path d="M14 26h1v1h-1zm14 0h1v1h-1z"/></g><path d="M29 26h1v1h-1z" class="G"/><g class="F"><path d="M30 26h1v1h-1z"/><path d="M31 26h1v1h-1z"/></g><g class="B"><path d="M32 26h1v1h-1z"/><path d="M33 26h1v1h-1z"/></g><g class="G"><path d="M34 26h1v1h-1z"/><path d="M35 26h1v1h-1z"/></g><g class="H"><path d="M36 26h1v1h-1z"/><path d="M37 26h1v1h-1z"/><path d="M38 26h1v1h-1z"/></g><path d="M39 26h1v1h-1z" class="F"/><path d="M40 26h1v1h-1z" class="B"/><g class="E"><path d="M41 26h1v1h-1zm-25 1h1v1h-1z"/><path d="M17 27h1v1h-1zm3 0h1v1h-1z"/><path d="M21 27h1v1h-1z"/><path d="M22 27h1v1h-1z"/><path d="M23 27h1v1h-1z"/><path d="M24 27h1v1h-1z"/><path d="M25 27h1v1h-1z"/><path d="M26 27h1v1h-1zm2 0h1v1h-1z"/></g><path d="M29 27h1v1h-1z" class="G"/><path d="M30 27h1v1h-1z" class="F"/><g class="B"><path d="M31 27h1v1h-1z"/><path d="M32 27h1v1h-1z"/></g><g class="G"><path d="M33 27h1v1h-1z"/><path d="M34 27h1v1h-1z"/></g><g class="H"><path d="M35 27h1v1h-1z"/><path d="M36 27h1v1h-1z"/></g><g class="F"><path d="M37 27h1v1h-1z"/><path d="M38 27h1v1h-1z"/></g><g class="B"><path d="M39 27h1v1h-1z"/><path d="M40 27h1v1h-1z"/></g><path d="M41 27h1v1h-1zm-12 1h1v1h-1z" class="E"/><path d="M30 28h1v1h-1z" class="B"/><g class="G"><path d="M31 28h1v1h-1z"/><path d="M32 28h1v1h-1z"/><path d="M33 28h1v1h-1z"/><path d="M34 28h1v1h-1z"/></g><path d="M35 28h1v1h-1z" class="H"/><g class="F"><path d="M36 28h1v1h-1z"/><path d="M37 28h1v1h-1z"/></g><path d="M38 28h1v1h-1z" class="G"/><path d="M39 28h1v1h-1z" class="B"/><path d="M40 28h1v1h-1zm-11 1h1v1h-1z" class="E"/><g class="G"><path d="M30 29h1v1h-1z"/><path d="M31 29h1v1h-1z"/><path d="M32 29h1v1h-1z"/></g><path d="M33 29h1v1h-1z" class="B"/><path d="M34 29h1v1h-1z" class="H"/><g class="G"><path d="M35 29h1v1h-1z"/><path d="M36 29h1v1h-1z"/><path d="M37 29h1v1h-1z"/></g><path d="M38 29h1v1h-1z" class="B"/><path d="M39 29h1v1h-1z" class="G"/><path d="M40 29h1v1h-1zm-10 1h1v1h-1z" class="E"/><g class="B"><path d="M31 30h1v1h-1z"/><path d="M32 30h1v1h-1z"/><path d="M33 30h1v1h-1z"/></g><g class="G"><path d="M34 30h1v1h-1z"/><path d="M35 30h1v1h-1z"/><path d="M36 30h1v1h-1z"/><path d="M37 30h1v1h-1z"/><path d="M38 30h1v1h-1z"/></g><g class="E"><path d="M39 30h1v1h-1zm-8 1h1v1h-1z"/><path d="M32 31h1v1h-1z"/></g><g class="G"><path d="M33 31h1v1h-1z"/><path d="M34 31h1v1h-1z"/><path d="M35 31h1v1h-1z"/><path d="M36 31h1v1h-1z"/></g><g class="E"><path d="M37 31h1v1h-1z"/><path d="M38 31h1v1h-1zm-5 1h1v1h-1z"/><path d="M34 32h1v1h-1z"/><path d="M35 32h1v1h-1z"/><path d="M36 32h1v1h-1z"/></g></svg>