<svg xmlns="http://www.w3.org/2000/svg" width="53" height="26" shape-rendering="crispEdges" xmlns:v="https://vecta.io/nano"><style><![CDATA[.B{fill:#71bcf9}.C{fill:#349df2}.D{fill:#050b6d}.E{fill:#123d5e}.F{fill:#2168f6}.G{fill:#0026f5}.H{fill:#3182f6}.I{fill:#cde8ff}]]></style><g class="E"><path d="M13 0h1v1h-1z"/><path d="M14 0h1v1h-1z"/><path d="M15 0h1v1h-1z"/><path d="M16 0h1v1h-1z"/><path d="M17 0h1v1h-1z"/><path d="M18 0h1v1h-1z"/><path d="M19 0h1v1h-1z"/><path d="M20 0h1v1h-1zm11 0h1v1h-1z"/><path d="M32 0h1v1h-1z"/><path d="M33 0h1v1h-1z"/><path d="M34 0h1v1h-1z"/><path d="M35 0h1v1h-1z"/><path d="M36 0h1v1h-1z"/><path d="M37 0h1v1h-1z"/><path d="M38 0h1v1h-1zM13 1h1v1h-1z"/></g><g class="C"><path d="M14 1h1v1h-1z"/><path d="M15 1h1v1h-1z"/><path d="M16 1h1v1h-1z"/><path d="M17 1h1v1h-1z"/><path d="M18 1h1v1h-1z"/><path d="M19 1h1v1h-1z"/></g><path d="M20 1h1v1h-1zm11 0h1v1h-1z" class="E"/><g class="C"><path d="M32 1h1v1h-1z"/><path d="M33 1h1v1h-1z"/><path d="M34 1h1v1h-1z"/><path d="M35 1h1v1h-1z"/><path d="M36 1h1v1h-1z"/><path d="M37 1h1v1h-1z"/></g><path d="M38 1h1v1h-1zM13 2h1v1h-1z" class="E"/><path d="M14 2h1v1h-1z" class="C"/><g class="B"><path d="M15 2h1v1h-1z"/><path d="M16 2h1v1h-1z"/><path d="M17 2h1v1h-1z"/><path d="M18 2h1v1h-1z"/></g><path d="M19 2h1v1h-1z" class="C"/><path d="M20 2h1v1h-1zm11 0h1v1h-1z" class="E"/><path d="M32 2h1v1h-1z" class="C"/><g class="B"><path d="M33 2h1v1h-1z"/><path d="M34 2h1v1h-1z"/><path d="M35 2h1v1h-1z"/><path d="M36 2h1v1h-1z"/></g><path d="M37 2h1v1h-1z" class="C"/><g class="E"><path d="M38 2h1v1h-1zM10 3h1v1h-1z"/><path d="M11 3h1v1h-1z"/><path d="M12 3h1v1h-1z"/><path d="M13 3h1v1h-1z"/></g><path d="M14 3h1v1h-1z" class="C"/><g class="B"><path d="M15 3h1v1h-1z"/><path d="M16 3h1v1h-1z"/><path d="M17 3h1v1h-1z"/><path d="M18 3h1v1h-1z"/></g><path d="M19 3h1v1h-1z" class="C"/><g class="E"><path d="M20 3h1v1h-1z"/><path d="M21 3h1v1h-1z"/><path d="M22 3h1v1h-1z"/><path d="M23 3h1v1h-1zm5 0h1v1h-1z"/><path d="M29 3h1v1h-1z"/><path d="M30 3h1v1h-1z"/><path d="M31 3h1v1h-1z"/></g><path d="M32 3h1v1h-1z" class="C"/><g class="B"><path d="M33 3h1v1h-1z"/><path d="M34 3h1v1h-1z"/><path d="M35 3h1v1h-1z"/><path d="M36 3h1v1h-1z"/></g><path d="M37 3h1v1h-1z" class="C"/><g class="E"><path d="M38 3h1v1h-1z"/><path d="M39 3h1v1h-1z"/><path d="M40 3h1v1h-1z"/><path d="M41 3h1v1h-1zM10 4h1v1h-1z"/></g><g class="C"><path d="M11 4h1v1h-1z"/><path d="M12 4h1v1h-1z"/><path d="M13 4h1v1h-1z"/><path d="M14 4h1v1h-1z"/></g><path d="M15 4h1v1h-1z" class="B"/><path d="M16 4h1v1h-1z" class="I"/><path d="M17 4h1v1h-1z" class="B"/><path d="M18 4h1v1h-1z" class="I"/><g class="C"><path d="M19 4h1v1h-1z"/><path d="M20 4h1v1h-1z"/><path d="M21 4h1v1h-1z"/><path d="M22 4h1v1h-1z"/></g><path d="M23 4h1v1h-1zm5 0h1v1h-1z" class="E"/><g class="C"><path d="M29 4h1v1h-1z"/><path d="M30 4h1v1h-1z"/><path d="M31 4h1v1h-1z"/><path d="M32 4h1v1h-1z"/></g><path d="M33 4h1v1h-1z" class="B"/><path d="M34 4h1v1h-1z" class="I"/><path d="M35 4h1v1h-1z" class="B"/><path d="M36 4h1v1h-1z" class="I"/><g class="C"><path d="M37 4h1v1h-1z"/><path d="M38 4h1v1h-1z"/><path d="M39 4h1v1h-1z"/><path d="M40 4h1v1h-1z"/></g><path d="M41 4h1v1h-1z" class="E"/><path d="M43 4h1v1h-1zM5 5h1v1H5z" class="D"/><path d="M10 5h1v1h-1z" class="E"/><path d="M11 5h1v1h-1z" class="C"/><g class="B"><path d="M12 5h1v1h-1z"/><path d="M13 5h1v1h-1z"/><path d="M14 5h1v1h-1z"/></g><path d="M15 5h1v1h-1z" class="I"/><path d="M16 5h1v1h-1z" class="B"/><path d="M17 5h1v1h-1z" class="I"/><g class="B"><path d="M18 5h1v1h-1z"/><path d="M19 5h1v1h-1z"/><path d="M20 5h1v1h-1z"/><path d="M21 5h1v1h-1z"/></g><path d="M22 5h1v1h-1z" class="C"/><path d="M23 5h1v1h-1zm5 0h1v1h-1z" class="E"/><path d="M29 5h1v1h-1z" class="C"/><g class="B"><path d="M30 5h1v1h-1z"/><path d="M31 5h1v1h-1z"/><path d="M32 5h1v1h-1z"/></g><path d="M33 5h1v1h-1z" class="I"/><path d="M34 5h1v1h-1z" class="B"/><path d="M35 5h1v1h-1z" class="I"/><g class="B"><path d="M36 5h1v1h-1z"/><path d="M37 5h1v1h-1z"/><path d="M38 5h1v1h-1z"/><path d="M39 5h1v1h-1z"/></g><path d="M40 5h1v1h-1z" class="C"/><path d="M41 5h1v1h-1z" class="E"/><g class="D"><path d="M45 5h1v1h-1z"/><path d="M46 5h1v1h-1zM3 6h1v1H3z"/></g><path d="M10 6h1v1h-1z" class="E"/><path d="M11 6h1v1h-1z" class="C"/><g class="B"><path d="M12 6h1v1h-1z"/><path d="M13 6h1v1h-1z"/></g><path d="M14 6h1v1h-1z" class="I"/><path d="M15 6h1v1h-1z" class="B"/><path d="M16 6h1v1h-1z" class="I"/><g class="B"><path d="M17 6h1v1h-1z"/><path d="M18 6h1v1h-1z"/><path d="M19 6h1v1h-1z"/><path d="M20 6h1v1h-1z"/><path d="M21 6h1v1h-1z"/></g><path d="M22 6h1v1h-1z" class="C"/><path d="M23 6h1v1h-1zm5 0h1v1h-1z" class="E"/><path d="M29 6h1v1h-1z" class="C"/><g class="B"><path d="M30 6h1v1h-1z"/><path d="M31 6h1v1h-1z"/></g><path d="M32 6h1v1h-1z" class="I"/><path d="M33 6h1v1h-1z" class="B"/><path d="M34 6h1v1h-1z" class="I"/><g class="B"><path d="M35 6h1v1h-1z"/><path d="M36 6h1v1h-1z"/><path d="M37 6h1v1h-1z"/><path d="M38 6h1v1h-1z"/><path d="M39 6h1v1h-1z"/></g><path d="M40 6h1v1h-1z" class="C"/><path d="M41 6h1v1h-1z" class="E"/><g class="D"><path d="M48 6h1v1h-1z"/><path d="M49 6h1v1h-1z"/><path d="M50 6h1v1h-1zM1 7h1v1H1z"/></g><path d="M10 7h1v1h-1z" class="E"/><path d="M11 7h1v1h-1z" class="C"/><g class="B"><path d="M12 7h1v1h-1z"/><path d="M13 7h1v1h-1z"/><path d="M14 7h1v1h-1z"/><path d="M15 7h1v1h-1z"/><path d="M16 7h1v1h-1z"/><path d="M17 7h1v1h-1z"/><path d="M18 7h1v1h-1z"/><path d="M19 7h1v1h-1z"/><path d="M20 7h1v1h-1z"/><path d="M21 7h1v1h-1z"/></g><path d="M22 7h1v1h-1z" class="C"/><path d="M23 7h1v1h-1zm5 0h1v1h-1z" class="E"/><path d="M29 7h1v1h-1z" class="C"/><g class="B"><path d="M30 7h1v1h-1z"/><path d="M31 7h1v1h-1z"/><path d="M32 7h1v1h-1z"/><path d="M33 7h1v1h-1z"/><path d="M34 7h1v1h-1z"/><path d="M35 7h1v1h-1z"/><path d="M36 7h1v1h-1z"/><path d="M37 7h1v1h-1z"/><path d="M38 7h1v1h-1z"/><path d="M39 7h1v1h-1z"/></g><path d="M40 7h1v1h-1z" class="C"/><path d="M41 7h1v1h-1z" class="E"/><path d="M47 7h1v1h-1z" class="D"/><g class="B"><path d="M48 7h1v1h-1z"/><path d="M49 7h1v1h-1z"/></g><path d="M50 7h1v1h-1z" class="F"/><path d="M51 7h1v1h-1zM1 8h1v1H1z" class="D"/><path d="M10 8h1v1h-1z" class="E"/><path d="M11 8h1v1h-1z" class="C"/><g class="B"><path d="M12 8h1v1h-1z"/><path d="M13 8h1v1h-1z"/><path d="M14 8h1v1h-1z"/><path d="M15 8h1v1h-1z"/><path d="M16 8h1v1h-1z"/><path d="M17 8h1v1h-1z"/><path d="M18 8h1v1h-1z"/><path d="M19 8h1v1h-1z"/><path d="M20 8h1v1h-1z"/><path d="M21 8h1v1h-1z"/></g><path d="M22 8h1v1h-1z" class="C"/><path d="M23 8h1v1h-1zm5 0h1v1h-1z" class="E"/><path d="M29 8h1v1h-1z" class="C"/><g class="B"><path d="M30 8h1v1h-1z"/><path d="M31 8h1v1h-1z"/><path d="M32 8h1v1h-1z"/><path d="M33 8h1v1h-1z"/><path d="M34 8h1v1h-1z"/><path d="M35 8h1v1h-1z"/><path d="M36 8h1v1h-1z"/><path d="M37 8h1v1h-1z"/><path d="M38 8h1v1h-1z"/><path d="M39 8h1v1h-1z"/></g><path d="M40 8h1v1h-1z" class="C"/><path d="M41 8h1v1h-1z" class="E"/><path d="M46 8h1v1h-1z" class="D"/><g class="B"><path d="M47 8h1v1h-1z"/><path d="M48 8h1v1h-1z"/></g><g class="F"><path d="M49 8h1v1h-1z"/><path d="M50 8h1v1h-1z"/></g><path d="M51 8h1v1h-1z" class="H"/><g class="D"><path d="M52 8h1v1h-1zM0 9h1v1H0zm3 0h1v1H3z"/><path d="M4 9h1v1H4z"/><path d="M5 9h1v1H5z"/><path d="M6 9h1v1H6z"/><path d="M7 9h1v1H7z"/></g><path d="M10 9h1v1h-1z" class="E"/><g class="C"><path d="M11 9h1v1h-1z"/><path d="M12 9h1v1h-1z"/><path d="M13 9h1v1h-1z"/><path d="M14 9h1v1h-1z"/></g><g class="B"><path d="M15 9h1v1h-1z"/><path d="M16 9h1v1h-1z"/><path d="M17 9h1v1h-1z"/><path d="M18 9h1v1h-1z"/></g><g class="C"><path d="M19 9h1v1h-1z"/><path d="M20 9h1v1h-1z"/><path d="M21 9h1v1h-1z"/><path d="M22 9h1v1h-1z"/></g><path d="M23 9h1v1h-1zm5 0h1v1h-1z" class="E"/><g class="C"><path d="M29 9h1v1h-1z"/><path d="M30 9h1v1h-1z"/><path d="M31 9h1v1h-1z"/><path d="M32 9h1v1h-1z"/></g><g class="B"><path d="M33 9h1v1h-1z"/><path d="M34 9h1v1h-1z"/><path d="M35 9h1v1h-1z"/><path d="M36 9h1v1h-1z"/></g><g class="C"><path d="M37 9h1v1h-1z"/><path d="M38 9h1v1h-1z"/><path d="M39 9h1v1h-1z"/><path d="M40 9h1v1h-1z"/></g><path d="M41 9h1v1h-1z" class="E"/><path d="M46 9h1v1h-1z" class="D"/><g class="F"><path d="M47 9h1v1h-1z"/><path d="M48 9h1v1h-1z"/><path d="M49 9h1v1h-1z"/></g><path d="M50 9h1v1h-1z" class="H"/><path d="M51 9h1v1h-1z" class="G"/><path d="M52 9h1v1h-1zM0 10h1v1H0zm2 0h1v1H2z" class="D"/><path d="M3 10h1v1H3z" class="H"/><g class="F"><path d="M4 10h1v1H4z"/><path d="M5 10h1v1H5z"/><path d="M6 10h1v1H6z"/><path d="M7 10h1v1H7z"/></g><path d="M8 10h1v1H8z" class="D"/><g class="E"><path d="M10 10h1v1h-1z"/><path d="M11 10h1v1h-1z"/><path d="M12 10h1v1h-1z"/><path d="M13 10h1v1h-1z"/></g><path d="M14 10h1v1h-1z" class="C"/><g class="B"><path d="M15 10h1v1h-1z"/><path d="M16 10h1v1h-1z"/><path d="M17 10h1v1h-1z"/><path d="M18 10h1v1h-1z"/></g><path d="M19 10h1v1h-1z" class="C"/><g class="E"><path d="M20 10h1v1h-1z"/><path d="M21 10h1v1h-1z"/><path d="M22 10h1v1h-1z"/><path d="M23 10h1v1h-1zm5 0h1v1h-1z"/><path d="M29 10h1v1h-1z"/><path d="M30 10h1v1h-1z"/><path d="M31 10h1v1h-1z"/></g><path d="M32 10h1v1h-1z" class="C"/><g class="B"><path d="M33 10h1v1h-1z"/><path d="M34 10h1v1h-1z"/><path d="M35 10h1v1h-1z"/><path d="M36 10h1v1h-1z"/></g><path d="M37 10h1v1h-1z" class="C"/><g class="E"><path d="M38 10h1v1h-1z"/><path d="M39 10h1v1h-1z"/><path d="M40 10h1v1h-1z"/><path d="M41 10h1v1h-1z"/></g><path d="M46 10h1v1h-1z" class="D"/><path d="M47 10h1v1h-1z" class="F"/><g class="H"><path d="M48 10h1v1h-1z"/><path d="M49 10h1v1h-1z"/></g><g class="G"><path d="M50 10h1v1h-1z"/><path d="M51 10h1v1h-1z"/></g><path d="M52 10h1v1h-1zM1 11h1v1H1z" class="D"/><path d="M2 11h1v1H2z" class="H"/><g class="F"><path d="M3 11h1v1H3z"/><path d="M4 11h1v1H4z"/></g><path d="M5 11h1v1H5z" class="G"/><g class="B"><path d="M6 11h1v1H6z"/><path d="M7 11h1v1H7z"/><path d="M8 11h1v1H8z"/></g><path d="M9 11h1v1H9z" class="D"/><path d="M13 11h1v1h-1z" class="E"/><path d="M14 11h1v1h-1z" class="C"/><g class="B"><path d="M15 11h1v1h-1z"/><path d="M16 11h1v1h-1z"/><path d="M17 11h1v1h-1z"/><path d="M18 11h1v1h-1z"/></g><path d="M19 11h1v1h-1z" class="C"/><path d="M20 11h1v1h-1zm11 0h1v1h-1z" class="E"/><path d="M32 11h1v1h-1z" class="C"/><g class="B"><path d="M33 11h1v1h-1z"/><path d="M34 11h1v1h-1z"/><path d="M35 11h1v1h-1z"/><path d="M36 11h1v1h-1z"/></g><path d="M37 11h1v1h-1z" class="C"/><path d="M38 11h1v1h-1z" class="E"/><path d="M47 11h1v1h-1z" class="D"/><g class="G"><path d="M48 11h1v1h-1z"/><path d="M49 11h1v1h-1z"/><path d="M50 11h1v1h-1z"/></g><path d="M51 11h1v1h-1zM0 12h1v1H0z" class="D"/><path d="M1 12h1v1H1z" class="H"/><path d="M2 12h1v1H2z" class="F"/><g class="G"><path d="M3 12h1v1H3z"/><path d="M4 12h1v1H4z"/></g><g class="B"><path d="M5 12h1v1H5z"/><path d="M6 12h1v1H6z"/></g><g class="H"><path d="M7 12h1v1H7z"/><path d="M8 12h1v1H8z"/></g><path d="M9 12h1v1H9z" class="F"/><path d="M10 12h1v1h-1z" class="D"/><path d="M13 12h1v1h-1z" class="E"/><g class="C"><path d="M14 12h1v1h-1z"/><path d="M15 12h1v1h-1z"/><path d="M16 12h1v1h-1z"/><path d="M17 12h1v1h-1z"/><path d="M18 12h1v1h-1z"/><path d="M19 12h1v1h-1z"/></g><path d="M20 12h1v1h-1zm11 0h1v1h-1z" class="E"/><path d="M32 12h1v1h-1z" class="C"/><g class="D"><path d="M33 12h1v1h-1z"/><path d="M34 12h1v1h-1z"/><path d="M35 12h1v1h-1z"/><path d="M36 12h1v1h-1z"/></g><path d="M37 12h1v1h-1z" class="C"/><path d="M38 12h1v1h-1z" class="E"/><g class="D"><path d="M48 12h1v1h-1z"/><path d="M49 12h1v1h-1z"/><path d="M50 12h1v1h-1zM0 13h1v1H0z"/></g><path d="M1 13h1v1H1z" class="F"/><path d="M2 13h1v1H2z" class="G"/><path d="M3 13h1v1H3z" class="B"/><g class="H"><path d="M4 13h1v1H4z"/><path d="M5 13h1v1H5z"/><path d="M6 13h1v1H6z"/><path d="M7 13h1v1H7z"/></g><path d="M8 13h1v1H8z" class="G"/><path d="M9 13h1v1H9z" class="F"/><path d="M10 13h1v1h-1z" class="D"/><g class="E"><path d="M13 13h1v1h-1z"/><path d="M14 13h1v1h-1z"/><path d="M15 13h1v1h-1z"/><path d="M16 13h1v1h-1z"/><path d="M17 13h1v1h-1z"/><path d="M18 13h1v1h-1z"/><path d="M19 13h1v1h-1z"/><path d="M20 13h1v1h-1z"/></g><g class="D"><path d="M31 13h1v1h-1z"/><path d="M32 13h1v1h-1z"/></g><g class="B"><path d="M33 13h1v1h-1z"/><path d="M34 13h1v1h-1z"/></g><path d="M35 13h1v1h-1z" class="G"/><path d="M36 13h1v1h-1z" class="F"/><g class="D"><path d="M37 13h1v1h-1z"/><path d="M38 13h1v1h-1zM0 14h1v1H0z"/></g><path d="M1 14h1v1H1z" class="F"/><g class="B"><path d="M2 14h1v1H2z"/><path d="M3 14h1v1H3z"/></g><g class="F"><path d="M4 14h1v1H4z"/><path d="M5 14h1v1H5z"/></g><g class="G"><path d="M6 14h1v1H6z"/><path d="M7 14h1v1H7z"/></g><g class="B"><path d="M8 14h1v1H8z"/><path d="M9 14h1v1H9z"/></g><path d="M10 14h1v1h-1zm20 0h1v1h-1z" class="D"/><g class="B"><path d="M31 14h1v1h-1z"/><path d="M32 14h1v1h-1z"/></g><g class="G"><path d="M33 14h1v1h-1z"/><path d="M34 14h1v1h-1z"/></g><g class="F"><path d="M35 14h1v1h-1z"/><path d="M36 14h1v1h-1z"/><path d="M37 14h1v1h-1z"/><path d="M38 14h1v1h-1z"/></g><path d="M39 14h1v1h-1zM0 15h1v1H0z" class="D"/><path d="M1 15h1v1H1z" class="F"/><path d="M2 15h1v1H2z" class="B"/><g class="F"><path d="M3 15h1v1H3z"/><path d="M4 15h1v1H4z"/></g><g class="G"><path d="M5 15h1v1H5z"/><path d="M6 15h1v1H6z"/></g><g class="B"><path d="M7 15h1v1H7z"/><path d="M8 15h1v1H8z"/></g><path d="M9 15h1v1H9z" class="G"/><path d="M10 15h1v1h-1zm19 0h1v1h-1z" class="D"/><g class="B"><path d="M30 15h1v1h-1z"/><path d="M31 15h1v1h-1z"/></g><g class="G"><path d="M32 15h1v1h-1z"/><path d="M33 15h1v1h-1z"/></g><g class="F"><path d="M34 15h1v1h-1z"/><path d="M35 15h1v1h-1z"/><path d="M36 15h1v1h-1z"/></g><g class="B"><path d="M37 15h1v1h-1z"/><path d="M38 15h1v1h-1z"/></g><path d="M39 15h1v1h-1z" class="F"/><g class="D"><path d="M40 15h1v1h-1zm7 0h1v1h-1z"/><path d="M48 15h1v1h-1zM0 16h1v1H0z"/></g><path d="M1 16h1v1H1z" class="B"/><g class="F"><path d="M2 16h1v1H2z"/><path d="M3 16h1v1H3z"/></g><g class="H"><path d="M4 16h1v1H4z"/><path d="M5 16h1v1H5z"/><path d="M6 16h1v1H6z"/></g><path d="M7 16h1v1H7z" class="F"/><g class="G"><path d="M8 16h1v1H8z"/><path d="M9 16h1v1H9z"/></g><path d="M10 16h1v1h-1zm19 0h1v1h-1z" class="D"/><path d="M30 16h1v1h-1z" class="B"/><g class="G"><path d="M31 16h1v1h-1z"/><path d="M32 16h1v1h-1z"/></g><g class="F"><path d="M33 16h1v1h-1z"/><path d="M34 16h1v1h-1z"/><path d="M35 16h1v1h-1z"/></g><path d="M36 16h1v1h-1z" class="B"/><g class="F"><path d="M37 16h1v1h-1z"/><path d="M38 16h1v1h-1z"/><path d="M39 16h1v1h-1z"/></g><g class="D"><path d="M40 16h1v1h-1zm5 0h1v1h-1z"/><path d="M46 16h1v1h-1zM1 17h1v1H1z"/></g><path d="M2 17h1v1H2z" class="B"/><path d="M3 17h1v1H3z" class="H"/><g class="F"><path d="M4 17h1v1H4z"/><path d="M5 17h1v1H5z"/><path d="M6 17h1v1H6z"/></g><g class="G"><path d="M7 17h1v1H7z"/><path d="M8 17h1v1H8z"/></g><path d="M9 17h1v1H9zm19 0h1v1h-1z" class="D"/><path d="M29 17h1v1h-1z" class="B"/><g class="G"><path d="M30 17h1v1h-1z"/><path d="M31 17h1v1h-1z"/></g><g class="F"><path d="M32 17h1v1h-1z"/><path d="M33 17h1v1h-1z"/></g><g class="B"><path d="M34 17h1v1h-1z"/><path d="M35 17h1v1h-1z"/></g><g class="F"><path d="M36 17h1v1h-1z"/><path d="M37 17h1v1h-1z"/></g><path d="M38 17h1v1h-1z" class="G"/><path d="M39 17h1v1h-1z" class="H"/><path d="M40 17h1v1h-1z" class="F"/><path d="M41 17h1v1h-1zm2 0h1v1h-1zM2 18h1v1H2z" class="D"/><g class="F"><path d="M3 18h1v1H3z"/><path d="M4 18h1v1H4z"/></g><g class="G"><path d="M5 18h1v1H5z"/><path d="M6 18h1v1H6z"/><path d="M7 18h1v1H7z"/></g><path d="M8 18h1v1H8zm20 0h1v1h-1z" class="D"/><path d="M29 18h1v1h-1z" class="B"/><path d="M30 18h1v1h-1z" class="G"/><g class="F"><path d="M31 18h1v1h-1z"/><path d="M32 18h1v1h-1z"/></g><g class="B"><path d="M33 18h1v1h-1z"/><path d="M34 18h1v1h-1z"/></g><g class="G"><path d="M35 18h1v1h-1z"/><path d="M36 18h1v1h-1z"/><path d="M37 18h1v1h-1z"/></g><g class="H"><path d="M38 18h1v1h-1z"/><path d="M39 18h1v1h-1z"/></g><path d="M40 18h1v1h-1z" class="F"/><g class="D"><path d="M41 18h1v1h-1zM3 19h1v1H3z"/><path d="M4 19h1v1H4z"/><path d="M5 19h1v1H5z"/><path d="M6 19h1v1H6z"/><path d="M7 19h1v1H7zm4 0h1v1h-1zm2 0h1v1h-1z"/><path d="M14 19h1v1h-1zm14 0h1v1h-1z"/></g><path d="M29 19h1v1h-1z" class="G"/><g class="F"><path d="M30 19h1v1h-1z"/><path d="M31 19h1v1h-1z"/></g><g class="B"><path d="M32 19h1v1h-1z"/><path d="M33 19h1v1h-1z"/></g><g class="G"><path d="M34 19h1v1h-1z"/><path d="M35 19h1v1h-1z"/></g><g class="H"><path d="M36 19h1v1h-1z"/><path d="M37 19h1v1h-1z"/><path d="M38 19h1v1h-1z"/></g><path d="M39 19h1v1h-1z" class="F"/><path d="M40 19h1v1h-1z" class="B"/><g class="D"><path d="M41 19h1v1h-1zm-25 1h1v1h-1z"/><path d="M17 20h1v1h-1zm3 0h1v1h-1z"/><path d="M21 20h1v1h-1z"/><path d="M22 20h1v1h-1z"/><path d="M23 20h1v1h-1z"/><path d="M24 20h1v1h-1z"/><path d="M25 20h1v1h-1z"/><path d="M26 20h1v1h-1zm2 0h1v1h-1z"/></g><path d="M29 20h1v1h-1z" class="G"/><path d="M30 20h1v1h-1z" class="F"/><g class="B"><path d="M31 20h1v1h-1z"/><path d="M32 20h1v1h-1z"/></g><g class="G"><path d="M33 20h1v1h-1z"/><path d="M34 20h1v1h-1z"/></g><g class="H"><path d="M35 20h1v1h-1z"/><path d="M36 20h1v1h-1z"/></g><g class="F"><path d="M37 20h1v1h-1z"/><path d="M38 20h1v1h-1z"/></g><g class="B"><path d="M39 20h1v1h-1z"/><path d="M40 20h1v1h-1z"/></g><path d="M41 20h1v1h-1zm-12 1h1v1h-1z" class="D"/><path d="M30 21h1v1h-1z" class="B"/><g class="G"><path d="M31 21h1v1h-1z"/><path d="M32 21h1v1h-1z"/><path d="M33 21h1v1h-1z"/><path d="M34 21h1v1h-1z"/></g><path d="M35 21h1v1h-1z" class="H"/><g class="F"><path d="M36 21h1v1h-1z"/><path d="M37 21h1v1h-1z"/></g><path d="M38 21h1v1h-1z" class="G"/><path d="M39 21h1v1h-1z" class="B"/><path d="M40 21h1v1h-1zm-11 1h1v1h-1z" class="D"/><g class="G"><path d="M30 22h1v1h-1z"/><path d="M31 22h1v1h-1z"/><path d="M32 22h1v1h-1z"/></g><path d="M33 22h1v1h-1z" class="B"/><path d="M34 22h1v1h-1z" class="H"/><g class="G"><path d="M35 22h1v1h-1z"/><path d="M36 22h1v1h-1z"/><path d="M37 22h1v1h-1z"/></g><path d="M38 22h1v1h-1z" class="B"/><path d="M39 22h1v1h-1z" class="G"/><path d="M40 22h1v1h-1zm-10 1h1v1h-1z" class="D"/><g class="B"><path d="M31 23h1v1h-1z"/><path d="M32 23h1v1h-1z"/><path d="M33 23h1v1h-1z"/></g><g class="G"><path d="M34 23h1v1h-1z"/><path d="M35 23h1v1h-1z"/><path d="M36 23h1v1h-1z"/><path d="M37 23h1v1h-1z"/><path d="M38 23h1v1h-1z"/></g><g class="D"><path d="M39 23h1v1h-1zm-8 1h1v1h-1z"/><path d="M32 24h1v1h-1z"/></g><g class="G"><path d="M33 24h1v1h-1z"/><path d="M34 24h1v1h-1z"/><path d="M35 24h1v1h-1z"/><path d="M36 24h1v1h-1z"/></g><g class="D"><path d="M37 24h1v1h-1z"/><path d="M38 24h1v1h-1zm-5 1h1v1h-1z"/><path d="M34 25h1v1h-1z"/><path d="M35 25h1v1h-1z"/><path d="M36 25h1v1h-1z"/></g></svg>