<svg xmlns="http://www.w3.org/2000/svg" width="57" height="26" shape-rendering="crispEdges" xmlns:v="https://vecta.io/nano"><style><![CDATA[.B{fill:#f6a125}.C{fill:#5f1917}.D{fill:#fffeca}.E{fill:#f7c479}.F{fill:#633b00}.G{fill:#de8f40}.H{fill:#ffc36b}.I{fill:#f5b33f}.J{fill:#fbecd6}]]></style><g class="F"><path d="M14 0h1v1h-1z"/><path d="M15 0h1v1h-1z"/><path d="M16 0h1v1h-1z"/><path d="M17 0h1v1h-1z"/><path d="M18 0h1v1h-1z"/><path d="M19 0h1v1h-1z"/><path d="M20 0h1v1h-1z"/><path d="M21 0h1v1h-1zm11 0h1v1h-1z"/><path d="M33 0h1v1h-1z"/><path d="M34 0h1v1h-1z"/><path d="M35 0h1v1h-1z"/><path d="M36 0h1v1h-1z"/><path d="M37 0h1v1h-1z"/><path d="M38 0h1v1h-1z"/><path d="M39 0h1v1h-1zM14 1h1v1h-1z"/></g><g class="B"><path d="M15 1h1v1h-1z"/><path d="M16 1h1v1h-1z"/><path d="M17 1h1v1h-1z"/><path d="M18 1h1v1h-1z"/><path d="M19 1h1v1h-1z"/><path d="M20 1h1v1h-1z"/></g><path d="M21 1h1v1h-1zm11 0h1v1h-1z" class="F"/><g class="B"><path d="M33 1h1v1h-1z"/><path d="M34 1h1v1h-1z"/><path d="M35 1h1v1h-1z"/><path d="M36 1h1v1h-1z"/><path d="M37 1h1v1h-1z"/><path d="M38 1h1v1h-1z"/></g><path d="M39 1h1v1h-1zM14 2h1v1h-1z" class="F"/><path d="M15 2h1v1h-1z" class="B"/><g class="H"><path d="M16 2h1v1h-1z"/><path d="M17 2h1v1h-1z"/><path d="M18 2h1v1h-1z"/><path d="M19 2h1v1h-1z"/></g><path d="M20 2h1v1h-1z" class="B"/><path d="M21 2h1v1h-1zm11 0h1v1h-1z" class="F"/><path d="M33 2h1v1h-1z" class="B"/><g class="H"><path d="M34 2h1v1h-1z"/><path d="M35 2h1v1h-1z"/><path d="M36 2h1v1h-1z"/><path d="M37 2h1v1h-1z"/></g><path d="M38 2h1v1h-1z" class="B"/><g class="F"><path d="M39 2h1v1h-1zM11 3h1v1h-1z"/><path d="M12 3h1v1h-1z"/><path d="M13 3h1v1h-1z"/><path d="M14 3h1v1h-1z"/></g><path d="M15 3h1v1h-1z" class="B"/><g class="H"><path d="M16 3h1v1h-1z"/><path d="M17 3h1v1h-1z"/><path d="M18 3h1v1h-1z"/><path d="M19 3h1v1h-1z"/></g><path d="M20 3h1v1h-1z" class="B"/><g class="F"><path d="M21 3h1v1h-1z"/><path d="M22 3h1v1h-1z"/><path d="M23 3h1v1h-1z"/><path d="M24 3h1v1h-1zm5 0h1v1h-1z"/><path d="M30 3h1v1h-1z"/><path d="M31 3h1v1h-1z"/><path d="M32 3h1v1h-1z"/></g><path d="M33 3h1v1h-1z" class="B"/><g class="H"><path d="M34 3h1v1h-1z"/><path d="M35 3h1v1h-1z"/><path d="M36 3h1v1h-1z"/><path d="M37 3h1v1h-1z"/></g><path d="M38 3h1v1h-1z" class="B"/><g class="F"><path d="M39 3h1v1h-1z"/><path d="M40 3h1v1h-1z"/><path d="M41 3h1v1h-1z"/><path d="M42 3h1v1h-1z"/></g><path d="M9 4h1v1H9z" class="C"/><path d="M11 4h1v1h-1z" class="F"/><g class="B"><path d="M12 4h1v1h-1z"/><path d="M13 4h1v1h-1z"/><path d="M14 4h1v1h-1z"/><path d="M15 4h1v1h-1z"/></g><path d="M16 4h1v1h-1z" class="H"/><path d="M17 4h1v1h-1z" class="J"/><path d="M18 4h1v1h-1z" class="H"/><path d="M19 4h1v1h-1z" class="J"/><g class="B"><path d="M20 4h1v1h-1z"/><path d="M21 4h1v1h-1z"/><path d="M22 4h1v1h-1z"/><path d="M23 4h1v1h-1z"/></g><path d="M24 4h1v1h-1zm5 0h1v1h-1z" class="F"/><g class="B"><path d="M30 4h1v1h-1z"/><path d="M31 4h1v1h-1z"/><path d="M32 4h1v1h-1z"/><path d="M33 4h1v1h-1z"/></g><path d="M34 4h1v1h-1z" class="H"/><path d="M35 4h1v1h-1z" class="J"/><path d="M36 4h1v1h-1z" class="H"/><path d="M37 4h1v1h-1z" class="J"/><g class="B"><path d="M38 4h1v1h-1z"/><path d="M39 4h1v1h-1z"/><path d="M40 4h1v1h-1z"/><path d="M41 4h1v1h-1z"/></g><path d="M42 4h1v1h-1z" class="F"/><g class="C"><path d="M6 5h1v1H6z"/><path d="M7 5h1v1H7z"/></g><path d="M11 5h1v1h-1z" class="F"/><path d="M12 5h1v1h-1z" class="B"/><g class="H"><path d="M13 5h1v1h-1z"/><path d="M14 5h1v1h-1z"/><path d="M15 5h1v1h-1z"/></g><path d="M16 5h1v1h-1z" class="J"/><path d="M17 5h1v1h-1z" class="H"/><path d="M18 5h1v1h-1z" class="J"/><g class="H"><path d="M19 5h1v1h-1z"/><path d="M20 5h1v1h-1z"/><path d="M21 5h1v1h-1z"/><path d="M22 5h1v1h-1z"/></g><path d="M23 5h1v1h-1z" class="B"/><path d="M24 5h1v1h-1zm5 0h1v1h-1z" class="F"/><path d="M30 5h1v1h-1z" class="B"/><g class="H"><path d="M31 5h1v1h-1z"/><path d="M32 5h1v1h-1z"/><path d="M33 5h1v1h-1z"/></g><path d="M34 5h1v1h-1z" class="J"/><path d="M35 5h1v1h-1z" class="H"/><path d="M36 5h1v1h-1z" class="J"/><g class="H"><path d="M37 5h1v1h-1z"/><path d="M38 5h1v1h-1z"/><path d="M39 5h1v1h-1z"/><path d="M40 5h1v1h-1z"/></g><path d="M41 5h1v1h-1z" class="B"/><path d="M42 5h1v1h-1z" class="F"/><g class="C"><path d="M47 5h1v1h-1zM2 6h1v1H2z"/><path d="M3 6h1v1H3z"/><path d="M4 6h1v1H4z"/></g><path d="M11 6h1v1h-1z" class="F"/><path d="M12 6h1v1h-1z" class="B"/><g class="H"><path d="M13 6h1v1h-1z"/><path d="M14 6h1v1h-1z"/></g><path d="M15 6h1v1h-1z" class="J"/><path d="M16 6h1v1h-1z" class="H"/><path d="M17 6h1v1h-1z" class="J"/><g class="H"><path d="M18 6h1v1h-1z"/><path d="M19 6h1v1h-1z"/><path d="M20 6h1v1h-1z"/><path d="M21 6h1v1h-1z"/><path d="M22 6h1v1h-1z"/></g><path d="M23 6h1v1h-1z" class="B"/><path d="M24 6h1v1h-1zm5 0h1v1h-1z" class="F"/><path d="M30 6h1v1h-1z" class="B"/><g class="H"><path d="M31 6h1v1h-1z"/><path d="M32 6h1v1h-1z"/></g><path d="M33 6h1v1h-1z" class="J"/><path d="M34 6h1v1h-1z" class="H"/><path d="M35 6h1v1h-1z" class="J"/><g class="H"><path d="M36 6h1v1h-1z"/><path d="M37 6h1v1h-1z"/><path d="M38 6h1v1h-1z"/><path d="M39 6h1v1h-1z"/><path d="M40 6h1v1h-1z"/></g><path d="M41 6h1v1h-1z" class="B"/><path d="M42 6h1v1h-1z" class="F"/><path d="M49 6h1v1h-1zM1 7h1v1H1z" class="C"/><g class="D"><path d="M2 7h1v1H2z"/><path d="M3 7h1v1H3z"/></g><path d="M4 7h1v1H4z" class="E"/><path d="M5 7h1v1H5z" class="C"/><path d="M11 7h1v1h-1z" class="F"/><path d="M12 7h1v1h-1z" class="B"/><g class="H"><path d="M13 7h1v1h-1z"/><path d="M14 7h1v1h-1z"/><path d="M15 7h1v1h-1z"/><path d="M16 7h1v1h-1z"/><path d="M17 7h1v1h-1z"/><path d="M18 7h1v1h-1z"/><path d="M19 7h1v1h-1z"/><path d="M20 7h1v1h-1z"/><path d="M21 7h1v1h-1z"/><path d="M22 7h1v1h-1z"/></g><path d="M23 7h1v1h-1z" class="B"/><path d="M24 7h1v1h-1zm5 0h1v1h-1z" class="F"/><path d="M30 7h1v1h-1z" class="B"/><g class="H"><path d="M31 7h1v1h-1z"/><path d="M32 7h1v1h-1z"/><path d="M33 7h1v1h-1z"/><path d="M34 7h1v1h-1z"/><path d="M35 7h1v1h-1z"/><path d="M36 7h1v1h-1z"/><path d="M37 7h1v1h-1z"/><path d="M38 7h1v1h-1z"/><path d="M39 7h1v1h-1z"/><path d="M40 7h1v1h-1z"/></g><path d="M41 7h1v1h-1z" class="B"/><path d="M42 7h1v1h-1z" class="F"/><g class="C"><path d="M49 7h1v1h-1z"/><path d="M50 7h1v1h-1z"/><path d="M51 7h1v1h-1z"/><path d="M52 7h1v1h-1z"/><path d="M53 7h1v1h-1zM0 8h1v1H0z"/></g><g class="D"><path d="M1 8h1v1H1z"/><path d="M2 8h1v1H2z"/></g><g class="E"><path d="M3 8h1v1H3z"/><path d="M4 8h1v1H4z"/><path d="M5 8h1v1H5z"/></g><path d="M6 8h1v1H6z" class="C"/><path d="M11 8h1v1h-1z" class="F"/><path d="M12 8h1v1h-1z" class="B"/><g class="H"><path d="M13 8h1v1h-1z"/><path d="M14 8h1v1h-1z"/><path d="M15 8h1v1h-1z"/><path d="M16 8h1v1h-1z"/><path d="M17 8h1v1h-1z"/><path d="M18 8h1v1h-1z"/><path d="M19 8h1v1h-1z"/><path d="M20 8h1v1h-1z"/><path d="M21 8h1v1h-1z"/><path d="M22 8h1v1h-1z"/></g><path d="M23 8h1v1h-1z" class="B"/><path d="M24 8h1v1h-1zm5 0h1v1h-1z" class="F"/><path d="M30 8h1v1h-1z" class="B"/><g class="H"><path d="M31 8h1v1h-1z"/><path d="M32 8h1v1h-1z"/><path d="M33 8h1v1h-1z"/><path d="M34 8h1v1h-1z"/><path d="M35 8h1v1h-1z"/><path d="M36 8h1v1h-1z"/><path d="M37 8h1v1h-1z"/><path d="M38 8h1v1h-1z"/><path d="M39 8h1v1h-1z"/><path d="M40 8h1v1h-1z"/></g><path d="M41 8h1v1h-1z" class="B"/><path d="M42 8h1v1h-1z" class="F"/><path d="M48 8h1v1h-1z" class="C"/><path d="M49 8h1v1h-1z" class="I"/><g class="E"><path d="M50 8h1v1h-1z"/><path d="M51 8h1v1h-1z"/><path d="M52 8h1v1h-1z"/><path d="M53 8h1v1h-1z"/></g><path d="M54 8h1v1h-1zM0 9h1v1H0z" class="C"/><g class="E"><path d="M1 9h1v1H1z"/><path d="M2 9h1v1H2z"/><path d="M3 9h1v1H3z"/></g><path d="M4 9h1v1H4z" class="D"/><path d="M5 9h1v1H5z" class="G"/><path d="M6 9h1v1H6z" class="C"/><path d="M11 9h1v1h-1z" class="F"/><g class="B"><path d="M12 9h1v1h-1z"/><path d="M13 9h1v1h-1z"/><path d="M14 9h1v1h-1z"/><path d="M15 9h1v1h-1z"/></g><g class="H"><path d="M16 9h1v1h-1z"/><path d="M17 9h1v1h-1z"/><path d="M18 9h1v1h-1z"/><path d="M19 9h1v1h-1z"/></g><g class="B"><path d="M20 9h1v1h-1z"/><path d="M21 9h1v1h-1z"/><path d="M22 9h1v1h-1z"/><path d="M23 9h1v1h-1z"/></g><path d="M24 9h1v1h-1zm5 0h1v1h-1z" class="F"/><g class="B"><path d="M30 9h1v1h-1z"/><path d="M31 9h1v1h-1z"/><path d="M32 9h1v1h-1z"/><path d="M33 9h1v1h-1z"/></g><g class="H"><path d="M34 9h1v1h-1z"/><path d="M35 9h1v1h-1z"/><path d="M36 9h1v1h-1z"/><path d="M37 9h1v1h-1z"/></g><g class="B"><path d="M38 9h1v1h-1z"/><path d="M39 9h1v1h-1z"/><path d="M40 9h1v1h-1z"/><path d="M41 9h1v1h-1z"/></g><path d="M42 9h1v1h-1z" class="F"/><path d="M47 9h1v1h-1z" class="C"/><path d="M48 9h1v1h-1z" class="I"/><g class="E"><path d="M49 9h1v1h-1z"/><path d="M50 9h1v1h-1z"/></g><path d="M51 9h1v1h-1z" class="G"/><g class="D"><path d="M52 9h1v1h-1z"/><path d="M53 9h1v1h-1z"/><path d="M54 9h1v1h-1z"/></g><path d="M55 9h1v1h-1zM0 10h1v1H0z" class="C"/><g class="E"><path d="M1 10h1v1H1z"/><path d="M2 10h1v1H2z"/></g><path d="M3 10h1v1H3z" class="D"/><g class="G"><path d="M4 10h1v1H4z"/><path d="M5 10h1v1H5z"/></g><path d="M6 10h1v1H6z" class="C"/><g class="F"><path d="M11 10h1v1h-1z"/><path d="M12 10h1v1h-1z"/><path d="M13 10h1v1h-1z"/><path d="M14 10h1v1h-1z"/></g><path d="M15 10h1v1h-1z" class="B"/><g class="H"><path d="M16 10h1v1h-1z"/><path d="M17 10h1v1h-1z"/><path d="M18 10h1v1h-1z"/><path d="M19 10h1v1h-1z"/></g><path d="M20 10h1v1h-1z" class="B"/><g class="F"><path d="M21 10h1v1h-1z"/><path d="M22 10h1v1h-1z"/><path d="M23 10h1v1h-1z"/><path d="M24 10h1v1h-1zm5 0h1v1h-1z"/><path d="M30 10h1v1h-1z"/><path d="M31 10h1v1h-1z"/><path d="M32 10h1v1h-1z"/></g><path d="M33 10h1v1h-1z" class="B"/><g class="H"><path d="M34 10h1v1h-1z"/><path d="M35 10h1v1h-1z"/><path d="M36 10h1v1h-1z"/><path d="M37 10h1v1h-1z"/></g><path d="M38 10h1v1h-1z" class="B"/><g class="F"><path d="M39 10h1v1h-1z"/><path d="M40 10h1v1h-1z"/><path d="M41 10h1v1h-1z"/><path d="M42 10h1v1h-1z"/></g><path d="M46 10h1v1h-1z" class="C"/><path d="M47 10h1v1h-1z" class="I"/><path d="M48 10h1v1h-1z" class="E"/><g class="G"><path d="M49 10h1v1h-1z"/><path d="M50 10h1v1h-1z"/></g><g class="D"><path d="M51 10h1v1h-1z"/><path d="M52 10h1v1h-1z"/></g><g class="I"><path d="M53 10h1v1h-1z"/><path d="M54 10h1v1h-1z"/></g><path d="M55 10h1v1h-1z" class="E"/><path d="M56 10h1v1h-1zM1 11h1v1H1z" class="C"/><g class="G"><path d="M2 11h1v1H2z"/><path d="M3 11h1v1H3z"/><path d="M4 11h1v1H4z"/></g><path d="M5 11h1v1H5z" class="C"/><path d="M14 11h1v1h-1z" class="F"/><path d="M15 11h1v1h-1z" class="B"/><g class="H"><path d="M16 11h1v1h-1z"/><path d="M17 11h1v1h-1z"/><path d="M18 11h1v1h-1z"/><path d="M19 11h1v1h-1z"/></g><path d="M20 11h1v1h-1z" class="B"/><path d="M21 11h1v1h-1zm11 0h1v1h-1z" class="F"/><path d="M33 11h1v1h-1z" class="B"/><g class="H"><path d="M34 11h1v1h-1z"/><path d="M35 11h1v1h-1z"/><path d="M36 11h1v1h-1z"/><path d="M37 11h1v1h-1z"/></g><path d="M38 11h1v1h-1z" class="B"/><path d="M39 11h1v1h-1z" class="F"/><path d="M46 11h1v1h-1z" class="C"/><path d="M47 11h1v1h-1z" class="E"/><path d="M48 11h1v1h-1z" class="G"/><path d="M49 11h1v1h-1z" class="D"/><g class="I"><path d="M50 11h1v1h-1z"/><path d="M51 11h1v1h-1z"/><path d="M52 11h1v1h-1z"/><path d="M53 11h1v1h-1z"/></g><path d="M54 11h1v1h-1z" class="G"/><path d="M55 11h1v1h-1z" class="E"/><g class="C"><path d="M56 11h1v1h-1zM2 12h1v1H2z"/><path d="M3 12h1v1H3z"/><path d="M4 12h1v1H4z"/></g><path d="M14 12h1v1h-1z" class="F"/><path d="M15 12h1v1h-1z" class="B"/><g class="C"><path d="M16 12h1v1h-1z"/><path d="M17 12h1v1h-1z"/><path d="M18 12h1v1h-1z"/><path d="M19 12h1v1h-1z"/></g><path d="M20 12h1v1h-1z" class="B"/><path d="M21 12h1v1h-1zm11 0h1v1h-1z" class="F"/><g class="B"><path d="M33 12h1v1h-1z"/><path d="M34 12h1v1h-1z"/><path d="M35 12h1v1h-1z"/><path d="M36 12h1v1h-1z"/><path d="M37 12h1v1h-1z"/><path d="M38 12h1v1h-1z"/></g><path d="M39 12h1v1h-1z" class="F"/><path d="M46 12h1v1h-1z" class="C"/><path d="M47 12h1v1h-1z" class="E"/><g class="D"><path d="M48 12h1v1h-1z"/><path d="M49 12h1v1h-1z"/></g><g class="E"><path d="M50 12h1v1h-1z"/><path d="M51 12h1v1h-1z"/></g><g class="G"><path d="M52 12h1v1h-1z"/><path d="M53 12h1v1h-1z"/></g><g class="D"><path d="M54 12h1v1h-1z"/><path d="M55 12h1v1h-1z"/></g><g class="C"><path d="M56 12h1v1h-1zm-42 1h1v1h-1z"/><path d="M15 13h1v1h-1z"/></g><g class="D"><path d="M16 13h1v1h-1z"/><path d="M17 13h1v1h-1z"/></g><path d="M18 13h1v1h-1z" class="G"/><path d="M19 13h1v1h-1z" class="E"/><g class="C"><path d="M20 13h1v1h-1z"/><path d="M21 13h1v1h-1z"/></g><g class="F"><path d="M32 13h1v1h-1z"/><path d="M33 13h1v1h-1z"/><path d="M34 13h1v1h-1z"/><path d="M35 13h1v1h-1z"/><path d="M36 13h1v1h-1z"/><path d="M37 13h1v1h-1z"/><path d="M38 13h1v1h-1z"/><path d="M39 13h1v1h-1z"/></g><path d="M46 13h1v1h-1z" class="C"/><path d="M47 13h1v1h-1z" class="E"/><path d="M48 13h1v1h-1z" class="D"/><g class="E"><path d="M49 13h1v1h-1z"/><path d="M50 13h1v1h-1z"/></g><g class="G"><path d="M51 13h1v1h-1z"/><path d="M52 13h1v1h-1z"/></g><g class="D"><path d="M53 13h1v1h-1z"/><path d="M54 13h1v1h-1z"/></g><path d="M55 13h1v1h-1z" class="G"/><path d="M56 13h1v1h-1zm-43 1h1v1h-1z" class="C"/><g class="D"><path d="M14 14h1v1h-1z"/><path d="M15 14h1v1h-1z"/></g><g class="G"><path d="M16 14h1v1h-1z"/><path d="M17 14h1v1h-1z"/></g><g class="E"><path d="M18 14h1v1h-1z"/><path d="M19 14h1v1h-1z"/><path d="M20 14h1v1h-1z"/><path d="M21 14h1v1h-1z"/></g><path d="M22 14h1v1h-1zm24 0h1v1h-1z" class="C"/><path d="M47 14h1v1h-1z" class="D"/><g class="E"><path d="M48 14h1v1h-1z"/><path d="M49 14h1v1h-1z"/></g><g class="I"><path d="M50 14h1v1h-1z"/><path d="M51 14h1v1h-1z"/><path d="M52 14h1v1h-1z"/></g><path d="M53 14h1v1h-1z" class="E"/><g class="G"><path d="M54 14h1v1h-1z"/><path d="M55 14h1v1h-1z"/></g><g class="C"><path d="M56 14h1v1h-1zM4 15h1v1H4z"/><path d="M5 15h1v1H5zm7 0h1v1h-1z"/></g><g class="D"><path d="M13 15h1v1h-1z"/><path d="M14 15h1v1h-1z"/></g><g class="G"><path d="M15 15h1v1h-1z"/><path d="M16 15h1v1h-1z"/></g><g class="E"><path d="M17 15h1v1h-1z"/><path d="M18 15h1v1h-1z"/><path d="M19 15h1v1h-1z"/></g><g class="D"><path d="M20 15h1v1h-1z"/><path d="M21 15h1v1h-1z"/></g><path d="M22 15h1v1h-1z" class="E"/><path d="M23 15h1v1h-1zm24 0h1v1h-1z" class="C"/><path d="M48 15h1v1h-1z" class="D"/><path d="M49 15h1v1h-1z" class="I"/><g class="E"><path d="M50 15h1v1h-1z"/><path d="M51 15h1v1h-1z"/><path d="M52 15h1v1h-1z"/></g><g class="G"><path d="M53 15h1v1h-1z"/><path d="M54 15h1v1h-1z"/></g><g class="C"><path d="M55 15h1v1h-1zM6 16h1v1H6z"/><path d="M7 16h1v1H7zm5 0h1v1h-1z"/></g><path d="M13 16h1v1h-1z" class="D"/><g class="G"><path d="M14 16h1v1h-1z"/><path d="M15 16h1v1h-1z"/></g><g class="E"><path d="M16 16h1v1h-1z"/><path d="M17 16h1v1h-1z"/><path d="M18 16h1v1h-1z"/></g><path d="M19 16h1v1h-1z" class="D"/><g class="E"><path d="M20 16h1v1h-1z"/><path d="M21 16h1v1h-1z"/><path d="M22 16h1v1h-1z"/></g><g class="C"><path d="M23 16h1v1h-1zm14 0h1v1h-1z"/><path d="M38 16h1v1h-1z"/><path d="M39 16h1v1h-1zm9 0h1v1h-1z"/></g><g class="E"><path d="M49 16h1v1h-1z"/><path d="M50 16h1v1h-1z"/></g><g class="G"><path d="M51 16h1v1h-1z"/><path d="M52 16h1v1h-1z"/><path d="M53 16h1v1h-1z"/></g><path d="M54 16h1v1h-1zM9 17h1v1H9zm2 0h1v1h-1z" class="C"/><path d="M12 17h1v1h-1z" class="D"/><g class="G"><path d="M13 17h1v1h-1z"/><path d="M14 17h1v1h-1z"/></g><g class="E"><path d="M15 17h1v1h-1z"/><path d="M16 17h1v1h-1z"/></g><g class="D"><path d="M17 17h1v1h-1z"/><path d="M18 17h1v1h-1z"/></g><g class="E"><path d="M19 17h1v1h-1z"/><path d="M20 17h1v1h-1z"/></g><path d="M21 17h1v1h-1z" class="I"/><g class="E"><path d="M22 17h1v1h-1z"/><path d="M23 17h1v1h-1z"/></g><path d="M24 17h1v1h-1zm12 0h1v1h-1z" class="C"/><g class="D"><path d="M37 17h1v1h-1z"/><path d="M38 17h1v1h-1z"/></g><path d="M39 17h1v1h-1z" class="I"/><g class="C"><path d="M40 17h1v1h-1zm5 0h1v1h-1z"/><path d="M46 17h1v1h-1zm3 0h1v1h-1z"/><path d="M50 17h1v1h-1z"/><path d="M51 17h1v1h-1z"/><path d="M52 17h1v1h-1z"/><path d="M53 17h1v1h-1zm-42 1h1v1h-1z"/></g><path d="M12 18h1v1h-1z" class="D"/><path d="M13 18h1v1h-1z" class="G"/><g class="E"><path d="M14 18h1v1h-1z"/><path d="M15 18h1v1h-1z"/></g><g class="D"><path d="M16 18h1v1h-1z"/><path d="M17 18h1v1h-1z"/></g><g class="I"><path d="M18 18h1v1h-1z"/><path d="M19 18h1v1h-1z"/><path d="M20 18h1v1h-1z"/></g><g class="E"><path d="M21 18h1v1h-1z"/><path d="M22 18h1v1h-1z"/><path d="M23 18h1v1h-1z"/></g><path d="M24 18h1v1h-1zm11 0h1v1h-1z" class="C"/><path d="M36 18h1v1h-1z" class="I"/><g class="E"><path d="M37 18h1v1h-1z"/><path d="M38 18h1v1h-1z"/><path d="M39 18h1v1h-1z"/></g><path d="M40 18h1v1h-1z" class="D"/><g class="C"><path d="M41 18h1v1h-1zm2 0h1v1h-1z"/><path d="M44 18h1v1h-1zm-33 1h1v1h-1z"/></g><path d="M12 19h1v1h-1z" class="G"/><g class="E"><path d="M13 19h1v1h-1z"/><path d="M14 19h1v1h-1z"/></g><g class="D"><path d="M15 19h1v1h-1z"/><path d="M16 19h1v1h-1z"/></g><path d="M17 19h1v1h-1z" class="I"/><path d="M18 19h1v1h-1z" class="G"/><g class="E"><path d="M19 19h1v1h-1z"/><path d="M20 19h1v1h-1z"/><path d="M21 19h1v1h-1z"/><path d="M22 19h1v1h-1z"/></g><path d="M23 19h1v1h-1z" class="D"/><path d="M24 19h1v1h-1zm11 0h1v1h-1z" class="C"/><g class="E"><path d="M36 19h1v1h-1z"/><path d="M37 19h1v1h-1z"/></g><g class="D"><path d="M38 19h1v1h-1z"/><path d="M39 19h1v1h-1z"/></g><path d="M40 19h1v1h-1z" class="G"/><path d="M41 19h1v1h-1zm-30 1h1v1h-1z" class="C"/><path d="M12 20h1v1h-1z" class="G"/><path d="M13 20h1v1h-1z" class="E"/><g class="D"><path d="M14 20h1v1h-1z"/><path d="M15 20h1v1h-1z"/></g><path d="M16 20h1v1h-1z" class="I"/><path d="M17 20h1v1h-1z" class="G"/><path d="M18 20h1v1h-1z" class="E"/><path d="M19 20h1v1h-1z" class="D"/><g class="E"><path d="M20 20h1v1h-1z"/><path d="M21 20h1v1h-1z"/></g><g class="D"><path d="M22 20h1v1h-1z"/><path d="M23 20h1v1h-1z"/></g><g class="C"><path d="M24 20h1v1h-1zm2 0h1v1h-1z"/><path d="M27 20h1v1h-1z"/><path d="M28 20h1v1h-1z"/><path d="M29 20h1v1h-1z"/><path d="M30 20h1v1h-1z"/><path d="M31 20h1v1h-1z"/><path d="M32 20h1v1h-1zm3 0h1v1h-1z"/></g><g class="D"><path d="M36 20h1v1h-1z"/><path d="M37 20h1v1h-1z"/></g><g class="G"><path d="M38 20h1v1h-1z"/><path d="M39 20h1v1h-1z"/><path d="M40 20h1v1h-1z"/></g><path d="M41 20h1v1h-1zm-29 1h1v1h-1z" class="C"/><path d="M13 21h1v1h-1z" class="D"/><g class="I"><path d="M14 21h1v1h-1z"/><path d="M15 21h1v1h-1z"/></g><g class="G"><path d="M16 21h1v1h-1z"/><path d="M17 21h1v1h-1z"/></g><path d="M18 21h1v1h-1z" class="D"/><g class="E"><path d="M19 21h1v1h-1z"/><path d="M20 21h1v1h-1z"/></g><path d="M21 21h1v1h-1z" class="G"/><path d="M22 21h1v1h-1z" class="D"/><path d="M23 21h1v1h-1zm13 0h1v1h-1z" class="C"/><g class="G"><path d="M37 21h1v1h-1z"/><path d="M38 21h1v1h-1z"/><path d="M39 21h1v1h-1z"/></g><path d="M40 21h1v1h-1zm-28 1h1v1h-1z" class="C"/><g class="G"><path d="M13 22h1v1h-1z"/><path d="M14 22h1v1h-1z"/><path d="M15 22h1v1h-1z"/></g><g class="D"><path d="M16 22h1v1h-1z"/><path d="M17 22h1v1h-1z"/></g><g class="G"><path d="M18 22h1v1h-1z"/><path d="M19 22h1v1h-1z"/><path d="M20 22h1v1h-1z"/></g><path d="M21 22h1v1h-1z" class="D"/><path d="M22 22h1v1h-1z" class="G"/><g class="C"><path d="M23 22h1v1h-1zm14 0h1v1h-1z"/><path d="M38 22h1v1h-1z"/><path d="M39 22h1v1h-1zm-26 1h1v1h-1z"/></g><g class="D"><path d="M14 23h1v1h-1z"/><path d="M15 23h1v1h-1z"/><path d="M16 23h1v1h-1z"/></g><g class="G"><path d="M17 23h1v1h-1z"/><path d="M18 23h1v1h-1z"/><path d="M19 23h1v1h-1z"/><path d="M20 23h1v1h-1z"/><path d="M21 23h1v1h-1z"/></g><g class="C"><path d="M22 23h1v1h-1zm-8 1h1v1h-1z"/><path d="M15 24h1v1h-1z"/></g><g class="G"><path d="M16 24h1v1h-1z"/><path d="M17 24h1v1h-1z"/><path d="M18 24h1v1h-1z"/><path d="M19 24h1v1h-1z"/></g><g class="C"><path d="M20 24h1v1h-1z"/><path d="M21 24h1v1h-1zm-5 1h1v1h-1z"/><path d="M17 25h1v1h-1z"/><path d="M18 25h1v1h-1z"/><path d="M19 25h1v1h-1z"/></g></svg>