<svg xmlns="http://www.w3.org/2000/svg" width="54" height="34" shape-rendering="crispEdges" xmlns:v="https://vecta.io/nano"><style><![CDATA[.B{fill:#7b0b86}.C{fill:#870075}.D{fill:#ffc8ff}.E{fill:#e55ff2}.F{fill:#d700c1}.G{fill:#ff96ff}.H{fill:#f19ef9}.I{fill:#f248e1}]]></style><g class="B"><path d="M22 0h1v1h-1z"/><path d="M23 0h1v1h-1z"/><path d="M24 0h1v1h-1z"/><path d="M25 0h1v1h-1z"/><path d="M26 0h1v1h-1z"/><path d="M27 0h1v1h-1z"/><path d="M28 0h1v1h-1z"/><path d="M29 0h1v1h-1z"/><path d="M30 0h1v1h-1z"/><path d="M31 0h1v1h-1zm-9 1h1v1h-1z"/><path d="M23 1h1v1h-1z"/><path d="M24 1h1v1h-1z"/><path d="M25 1h1v1h-1z"/><path d="M26 1h1v1h-1z"/><path d="M27 1h1v1h-1z"/><path d="M28 1h1v1h-1z"/><path d="M29 1h1v1h-1z"/><path d="M30 1h1v1h-1z"/><path d="M31 1h1v1h-1zM18 2h1v1h-1z"/><path d="M19 2h1v1h-1z"/><path d="M20 2h1v1h-1z"/><path d="M21 2h1v1h-1z"/></g><g class="E"><path d="M22 2h1v1h-1z"/><path d="M23 2h1v1h-1z"/><path d="M24 2h1v1h-1z"/><path d="M25 2h1v1h-1z"/><path d="M26 2h1v1h-1z"/><path d="M27 2h1v1h-1z"/><path d="M28 2h1v1h-1z"/><path d="M29 2h1v1h-1z"/><path d="M30 2h1v1h-1z"/><path d="M31 2h1v1h-1z"/></g><g class="B"><path d="M32 2h1v1h-1z"/><path d="M33 2h1v1h-1z"/><path d="M34 2h1v1h-1z"/><path d="M35 2h1v1h-1zM18 3h1v1h-1z"/><path d="M19 3h1v1h-1z"/><path d="M20 3h1v1h-1z"/><path d="M21 3h1v1h-1z"/></g><g class="H"><path d="M22 3h1v1h-1z"/><path d="M23 3h1v1h-1z"/><path d="M24 3h1v1h-1z"/><path d="M25 3h1v1h-1z"/><path d="M26 3h1v1h-1z"/></g><g class="E"><path d="M27 3h1v1h-1z"/><path d="M28 3h1v1h-1z"/><path d="M29 3h1v1h-1z"/><path d="M30 3h1v1h-1z"/><path d="M31 3h1v1h-1z"/></g><g class="B"><path d="M32 3h1v1h-1z"/><path d="M33 3h1v1h-1z"/><path d="M34 3h1v1h-1z"/><path d="M35 3h1v1h-1zM14 4h1v1h-1z"/><path d="M15 4h1v1h-1z"/><path d="M16 4h1v1h-1z"/><path d="M17 4h1v1h-1z"/></g><g class="E"><path d="M18 4h1v1h-1z"/><path d="M19 4h1v1h-1z"/><path d="M20 4h1v1h-1z"/><path d="M21 4h1v1h-1z"/></g><g class="H"><path d="M22 4h1v1h-1z"/><path d="M23 4h1v1h-1z"/><path d="M24 4h1v1h-1z"/><path d="M25 4h1v1h-1z"/><path d="M26 4h1v1h-1z"/><path d="M27 4h1v1h-1z"/><path d="M28 4h1v1h-1z"/><path d="M29 4h1v1h-1z"/><path d="M30 4h1v1h-1z"/><path d="M31 4h1v1h-1z"/></g><g class="E"><path d="M32 4h1v1h-1z"/><path d="M33 4h1v1h-1z"/><path d="M34 4h1v1h-1z"/><path d="M35 4h1v1h-1z"/></g><g class="B"><path d="M36 4h1v1h-1z"/><path d="M37 4h1v1h-1z"/><path d="M38 4h1v1h-1z"/><path d="M39 4h1v1h-1zM14 5h1v1h-1z"/><path d="M15 5h1v1h-1z"/><path d="M16 5h1v1h-1z"/><path d="M17 5h1v1h-1z"/></g><g class="H"><path d="M18 5h1v1h-1z"/><path d="M19 5h1v1h-1z"/><path d="M20 5h1v1h-1z"/><path d="M21 5h1v1h-1z"/><path d="M22 5h1v1h-1z"/><path d="M23 5h1v1h-1z"/><path d="M24 5h1v1h-1z"/><path d="M25 5h1v1h-1z"/><path d="M26 5h1v1h-1z"/><path d="M27 5h1v1h-1z"/><path d="M28 5h1v1h-1z"/><path d="M29 5h1v1h-1z"/><path d="M30 5h1v1h-1z"/><path d="M31 5h1v1h-1z"/></g><g class="E"><path d="M32 5h1v1h-1z"/><path d="M33 5h1v1h-1z"/><path d="M34 5h1v1h-1z"/><path d="M35 5h1v1h-1z"/></g><g class="B"><path d="M36 5h1v1h-1z"/><path d="M37 5h1v1h-1z"/><path d="M38 5h1v1h-1z"/><path d="M39 5h1v1h-1zM12 6h1v1h-1z"/><path d="M13 6h1v1h-1z"/></g><g class="E"><path d="M14 6h1v1h-1z"/><path d="M15 6h1v1h-1z"/><path d="M16 6h1v1h-1z"/><path d="M17 6h1v1h-1z"/></g><g class="H"><path d="M18 6h1v1h-1z"/><path d="M19 6h1v1h-1z"/><path d="M20 6h1v1h-1z"/><path d="M21 6h1v1h-1z"/><path d="M22 6h1v1h-1z"/><path d="M23 6h1v1h-1z"/><path d="M24 6h1v1h-1z"/><path d="M25 6h1v1h-1z"/></g><g class="B"><path d="M26 6h1v1h-1z"/><path d="M27 6h1v1h-1z"/></g><g class="H"><path d="M28 6h1v1h-1z"/><path d="M29 6h1v1h-1z"/><path d="M30 6h1v1h-1z"/><path d="M31 6h1v1h-1z"/><path d="M32 6h1v1h-1z"/><path d="M33 6h1v1h-1z"/><path d="M34 6h1v1h-1z"/><path d="M35 6h1v1h-1z"/></g><g class="E"><path d="M36 6h1v1h-1z"/><path d="M37 6h1v1h-1z"/><path d="M38 6h1v1h-1z"/><path d="M39 6h1v1h-1z"/></g><g class="B"><path d="M40 6h1v1h-1z"/><path d="M41 6h1v1h-1zM12 7h1v1h-1z"/><path d="M13 7h1v1h-1z"/></g><g class="H"><path d="M14 7h1v1h-1z"/><path d="M15 7h1v1h-1z"/><path d="M16 7h1v1h-1z"/><path d="M17 7h1v1h-1z"/><path d="M18 7h1v1h-1z"/><path d="M19 7h1v1h-1z"/><path d="M20 7h1v1h-1z"/><path d="M21 7h1v1h-1z"/><path d="M22 7h1v1h-1z"/><path d="M23 7h1v1h-1z"/><path d="M24 7h1v1h-1z"/></g><path d="M25 7h1v1h-1z" class="B"/><g class="E"><path d="M26 7h1v1h-1z"/><path d="M27 7h1v1h-1z"/></g><path d="M28 7h1v1h-1z" class="B"/><g class="H"><path d="M29 7h1v1h-1z"/><path d="M30 7h1v1h-1z"/><path d="M31 7h1v1h-1z"/><path d="M32 7h1v1h-1z"/><path d="M33 7h1v1h-1z"/><path d="M34 7h1v1h-1z"/><path d="M35 7h1v1h-1z"/></g><g class="E"><path d="M36 7h1v1h-1z"/><path d="M37 7h1v1h-1z"/><path d="M38 7h1v1h-1z"/><path d="M39 7h1v1h-1z"/></g><g class="B"><path d="M40 7h1v1h-1z"/><path d="M41 7h1v1h-1zM10 8h1v1h-1z"/><path d="M11 8h1v1h-1z"/></g><g class="E"><path d="M12 8h1v1h-1z"/><path d="M13 8h1v1h-1z"/></g><g class="H"><path d="M14 8h1v1h-1z"/><path d="M15 8h1v1h-1z"/><path d="M16 8h1v1h-1z"/><path d="M17 8h1v1h-1z"/><path d="M18 8h1v1h-1z"/><path d="M19 8h1v1h-1z"/><path d="M20 8h1v1h-1z"/><path d="M21 8h1v1h-1z"/><path d="M22 8h1v1h-1z"/><path d="M23 8h1v1h-1z"/></g><path d="M24 8h1v1h-1z" class="B"/><g class="E"><path d="M25 8h1v1h-1z"/><path d="M26 8h1v1h-1z"/><path d="M27 8h1v1h-1z"/><path d="M28 8h1v1h-1z"/></g><path d="M29 8h1v1h-1z" class="B"/><g class="H"><path d="M30 8h1v1h-1z"/><path d="M31 8h1v1h-1z"/><path d="M32 8h1v1h-1z"/><path d="M33 8h1v1h-1z"/><path d="M34 8h1v1h-1z"/><path d="M35 8h1v1h-1z"/><path d="M36 8h1v1h-1z"/><path d="M37 8h1v1h-1z"/><path d="M38 8h1v1h-1z"/><path d="M39 8h1v1h-1z"/></g><g class="E"><path d="M40 8h1v1h-1z"/><path d="M41 8h1v1h-1z"/></g><g class="B"><path d="M42 8h1v1h-1z"/><path d="M43 8h1v1h-1zM10 9h1v1h-1z"/><path d="M11 9h1v1h-1z"/></g><path d="M12 9h1v1h-1z" class="E"/><g class="H"><path d="M13 9h1v1h-1z"/><path d="M14 9h1v1h-1z"/><path d="M15 9h1v1h-1z"/><path d="M16 9h1v1h-1z"/><path d="M17 9h1v1h-1z"/><path d="M18 9h1v1h-1z"/><path d="M19 9h1v1h-1z"/><path d="M20 9h1v1h-1z"/><path d="M21 9h1v1h-1z"/><path d="M22 9h1v1h-1z"/></g><path d="M23 9h1v1h-1z" class="B"/><g class="E"><path d="M24 9h1v1h-1z"/><path d="M25 9h1v1h-1z"/><path d="M26 9h1v1h-1z"/><path d="M27 9h1v1h-1z"/><path d="M28 9h1v1h-1z"/><path d="M29 9h1v1h-1z"/></g><path d="M30 9h1v1h-1z" class="B"/><g class="H"><path d="M31 9h1v1h-1z"/><path d="M32 9h1v1h-1z"/><path d="M33 9h1v1h-1z"/><path d="M34 9h1v1h-1z"/><path d="M35 9h1v1h-1z"/><path d="M36 9h1v1h-1z"/><path d="M37 9h1v1h-1z"/><path d="M38 9h1v1h-1z"/><path d="M39 9h1v1h-1z"/></g><g class="E"><path d="M40 9h1v1h-1z"/><path d="M41 9h1v1h-1z"/></g><g class="B"><path d="M42 9h1v1h-1z"/><path d="M43 9h1v1h-1zm-33 1h1v1h-1z"/><path d="M11 10h1v1h-1z"/></g><path d="M12 10h1v1h-1z" class="E"/><g class="H"><path d="M13 10h1v1h-1z"/><path d="M14 10h1v1h-1z"/><path d="M15 10h1v1h-1z"/><path d="M16 10h1v1h-1z"/><path d="M17 10h1v1h-1z"/><path d="M18 10h1v1h-1z"/><path d="M19 10h1v1h-1z"/><path d="M20 10h1v1h-1z"/><path d="M21 10h1v1h-1z"/><path d="M22 10h1v1h-1z"/></g><path d="M23 10h1v1h-1z" class="B"/><g class="E"><path d="M24 10h1v1h-1z"/><path d="M25 10h1v1h-1z"/><path d="M26 10h1v1h-1z"/><path d="M27 10h1v1h-1z"/><path d="M28 10h1v1h-1z"/><path d="M29 10h1v1h-1z"/></g><path d="M30 10h1v1h-1z" class="B"/><g class="H"><path d="M31 10h1v1h-1z"/><path d="M32 10h1v1h-1z"/><path d="M33 10h1v1h-1z"/><path d="M34 10h1v1h-1z"/><path d="M35 10h1v1h-1z"/><path d="M36 10h1v1h-1z"/><path d="M37 10h1v1h-1z"/><path d="M38 10h1v1h-1z"/><path d="M39 10h1v1h-1z"/></g><g class="E"><path d="M40 10h1v1h-1z"/><path d="M41 10h1v1h-1z"/></g><g class="B"><path d="M42 10h1v1h-1z"/><path d="M43 10h1v1h-1zm-33 1h1v1h-1z"/><path d="M11 11h1v1h-1z"/></g><path d="M12 11h1v1h-1z" class="E"/><g class="H"><path d="M13 11h1v1h-1z"/><path d="M14 11h1v1h-1z"/><path d="M15 11h1v1h-1z"/><path d="M16 11h1v1h-1z"/><path d="M17 11h1v1h-1z"/><path d="M18 11h1v1h-1z"/><path d="M19 11h1v1h-1z"/><path d="M20 11h1v1h-1z"/><path d="M21 11h1v1h-1z"/><path d="M22 11h1v1h-1z"/></g><path d="M23 11h1v1h-1z" class="B"/><g class="E"><path d="M24 11h1v1h-1z"/><path d="M25 11h1v1h-1z"/><path d="M26 11h1v1h-1z"/><path d="M27 11h1v1h-1z"/><path d="M28 11h1v1h-1z"/><path d="M29 11h1v1h-1z"/></g><path d="M30 11h1v1h-1z" class="B"/><g class="H"><path d="M31 11h1v1h-1z"/><path d="M32 11h1v1h-1z"/><path d="M33 11h1v1h-1z"/><path d="M34 11h1v1h-1z"/><path d="M35 11h1v1h-1z"/><path d="M36 11h1v1h-1z"/><path d="M37 11h1v1h-1z"/><path d="M38 11h1v1h-1z"/><path d="M39 11h1v1h-1z"/></g><g class="E"><path d="M40 11h1v1h-1z"/><path d="M41 11h1v1h-1z"/></g><g class="B"><path d="M42 11h1v1h-1z"/><path d="M43 11h1v1h-1z"/></g><g class="C"><path d="M47 11h1v1h-1z"/><path d="M48 11h1v1h-1zM9 12h1v1H9z"/><path d="M10 12h1v1h-1z"/></g><path d="M11 12h1v1h-1z" class="B"/><path d="M12 12h1v1h-1z" class="E"/><g class="H"><path d="M13 12h1v1h-1z"/><path d="M14 12h1v1h-1z"/><path d="M15 12h1v1h-1z"/><path d="M16 12h1v1h-1z"/><path d="M17 12h1v1h-1z"/><path d="M18 12h1v1h-1z"/><path d="M19 12h1v1h-1z"/><path d="M20 12h1v1h-1z"/><path d="M21 12h1v1h-1z"/><path d="M22 12h1v1h-1z"/></g><path d="M23 12h1v1h-1z" class="B"/><g class="E"><path d="M24 12h1v1h-1z"/><path d="M25 12h1v1h-1z"/><path d="M26 12h1v1h-1z"/><path d="M27 12h1v1h-1z"/><path d="M28 12h1v1h-1z"/><path d="M29 12h1v1h-1z"/></g><path d="M30 12h1v1h-1z" class="B"/><g class="H"><path d="M31 12h1v1h-1z"/><path d="M32 12h1v1h-1z"/><path d="M33 12h1v1h-1z"/><path d="M34 12h1v1h-1z"/><path d="M35 12h1v1h-1z"/><path d="M36 12h1v1h-1z"/><path d="M37 12h1v1h-1z"/><path d="M38 12h1v1h-1z"/><path d="M39 12h1v1h-1z"/></g><g class="E"><path d="M40 12h1v1h-1z"/><path d="M41 12h1v1h-1z"/></g><g class="B"><path d="M42 12h1v1h-1z"/><path d="M43 12h1v1h-1z"/></g><path d="M46 12h1v1h-1z" class="C"/><path d="M47 12h1v1h-1z" class="G"/><path fill="#ff62ff" d="M48 12h1v1h-1z"/><g class="C"><path d="M49 12h1v1h-1zM6 13h1v1H6z"/><path d="M7 13h1v1H7z"/><path d="M8 13h1v1H8z"/></g><g class="B"><path d="M10 13h1v1h-1z"/><path d="M11 13h1v1h-1z"/></g><path d="M12 13h1v1h-1z" class="E"/><g class="H"><path d="M13 13h1v1h-1z"/><path d="M14 13h1v1h-1z"/><path d="M15 13h1v1h-1z"/><path d="M16 13h1v1h-1z"/><path d="M17 13h1v1h-1z"/><path d="M18 13h1v1h-1z"/><path d="M19 13h1v1h-1z"/><path d="M20 13h1v1h-1z"/><path d="M21 13h1v1h-1z"/><path d="M22 13h1v1h-1z"/><path d="M23 13h1v1h-1z"/></g><path d="M24 13h1v1h-1z" class="B"/><g class="E"><path d="M25 13h1v1h-1z"/><path d="M26 13h1v1h-1z"/><path d="M27 13h1v1h-1z"/><path d="M28 13h1v1h-1z"/></g><path d="M29 13h1v1h-1z" class="B"/><g class="H"><path d="M30 13h1v1h-1z"/><path d="M31 13h1v1h-1z"/><path d="M32 13h1v1h-1z"/><path d="M33 13h1v1h-1z"/><path d="M34 13h1v1h-1z"/><path d="M35 13h1v1h-1z"/><path d="M36 13h1v1h-1z"/><path d="M37 13h1v1h-1z"/><path d="M38 13h1v1h-1z"/><path d="M39 13h1v1h-1z"/></g><g class="E"><path d="M40 13h1v1h-1z"/><path d="M41 13h1v1h-1z"/></g><g class="B"><path d="M42 13h1v1h-1z"/><path d="M43 13h1v1h-1z"/></g><path d="M45 13h1v1h-1z" class="C"/><path d="M46 13h1v1h-1z" class="G"/><g class="D"><path d="M47 13h1v1h-1z"/><path d="M48 13h1v1h-1z"/></g><path d="M49 13h1v1h-1z" class="F"/><path d="M50 13h1v1h-1zM5 14h1v1H5z" class="C"/><g class="B"><path d="M10 14h1v1h-1z"/><path d="M11 14h1v1h-1z"/></g><path d="M12 14h1v1h-1z" class="E"/><g class="H"><path d="M13 14h1v1h-1z"/><path d="M14 14h1v1h-1z"/><path d="M15 14h1v1h-1z"/><path d="M16 14h1v1h-1z"/><path d="M17 14h1v1h-1z"/><path d="M18 14h1v1h-1z"/><path d="M19 14h1v1h-1z"/><path d="M20 14h1v1h-1z"/><path d="M21 14h1v1h-1z"/><path d="M22 14h1v1h-1z"/><path d="M23 14h1v1h-1z"/><path d="M24 14h1v1h-1z"/></g><path d="M25 14h1v1h-1z" class="B"/><g class="E"><path d="M26 14h1v1h-1z"/><path d="M27 14h1v1h-1z"/></g><path d="M28 14h1v1h-1z" class="B"/><g class="H"><path d="M29 14h1v1h-1z"/><path d="M30 14h1v1h-1z"/><path d="M31 14h1v1h-1z"/><path d="M32 14h1v1h-1z"/><path d="M33 14h1v1h-1z"/><path d="M34 14h1v1h-1z"/><path d="M35 14h1v1h-1z"/><path d="M36 14h1v1h-1z"/><path d="M37 14h1v1h-1z"/><path d="M38 14h1v1h-1z"/><path d="M39 14h1v1h-1z"/></g><g class="E"><path d="M40 14h1v1h-1z"/><path d="M41 14h1v1h-1z"/></g><g class="B"><path d="M42 14h1v1h-1z"/><path d="M43 14h1v1h-1z"/></g><path d="M45 14h1v1h-1z" class="C"/><path fill="#ff62ff" d="M46 14h1v1h-1z"/><path d="M47 14h1v1h-1z" class="D"/><g class="F"><path d="M48 14h1v1h-1z"/><path d="M49 14h1v1h-1z"/></g><g class="C"><path d="M50 14h1v1h-1zM3 15h1v1H3z"/><path d="M4 15h1v1H4z"/><path d="M5 15h1v1H5z"/><path d="M6 15h1v1H6z"/><path d="M7 15h1v1H7z"/></g><g class="B"><path d="M10 15h1v1h-1z"/><path d="M11 15h1v1h-1z"/></g><path d="M12 15h1v1h-1z" class="E"/><g class="H"><path d="M13 15h1v1h-1z"/><path d="M14 15h1v1h-1z"/><path d="M15 15h1v1h-1z"/><path d="M16 15h1v1h-1z"/><path d="M17 15h1v1h-1z"/><path d="M18 15h1v1h-1z"/><path d="M19 15h1v1h-1z"/><path d="M20 15h1v1h-1z"/><path d="M21 15h1v1h-1z"/><path d="M22 15h1v1h-1z"/><path d="M23 15h1v1h-1z"/><path d="M24 15h1v1h-1z"/><path d="M25 15h1v1h-1z"/></g><g class="B"><path d="M26 15h1v1h-1z"/><path d="M27 15h1v1h-1z"/></g><g class="H"><path d="M28 15h1v1h-1z"/><path d="M29 15h1v1h-1z"/><path d="M30 15h1v1h-1z"/><path d="M31 15h1v1h-1z"/><path d="M32 15h1v1h-1z"/><path d="M33 15h1v1h-1z"/><path d="M34 15h1v1h-1z"/><path d="M35 15h1v1h-1z"/><path d="M36 15h1v1h-1z"/><path d="M37 15h1v1h-1z"/><path d="M38 15h1v1h-1z"/><path d="M39 15h1v1h-1z"/></g><g class="E"><path d="M40 15h1v1h-1z"/><path d="M41 15h1v1h-1z"/></g><g class="B"><path d="M42 15h1v1h-1z"/><path d="M43 15h1v1h-1z"/></g><path d="M46 15h1v1h-1z" class="C"/><g class="F"><path d="M47 15h1v1h-1z"/><path d="M48 15h1v1h-1z"/></g><path d="M49 15h1v1h-1zM2 16h1v1H2z" class="C"/><path d="M3 16h1v1H3z" class="I"/><g class="G"><path d="M4 16h1v1H4z"/><path d="M5 16h1v1H5z"/><path d="M6 16h1v1H6z"/><path d="M7 16h1v1H7z"/></g><path d="M8 16h1v1H8z" class="C"/><g class="B"><path d="M10 16h1v1h-1z"/><path d="M11 16h1v1h-1z"/></g><path d="M12 16h1v1h-1z" class="E"/><g class="H"><path d="M13 16h1v1h-1z"/><path d="M14 16h1v1h-1z"/><path d="M15 16h1v1h-1z"/><path d="M16 16h1v1h-1z"/><path d="M17 16h1v1h-1z"/></g><g class="B"><path d="M18 16h1v1h-1z"/><path d="M19 16h1v1h-1z"/><path d="M20 16h1v1h-1z"/><path d="M21 16h1v1h-1z"/></g><g class="H"><path d="M22 16h1v1h-1z"/><path d="M23 16h1v1h-1z"/><path d="M24 16h1v1h-1z"/><path d="M25 16h1v1h-1z"/><path d="M26 16h1v1h-1z"/><path d="M27 16h1v1h-1z"/><path d="M28 16h1v1h-1z"/><path d="M29 16h1v1h-1z"/><path d="M30 16h1v1h-1z"/><path d="M31 16h1v1h-1z"/></g><g class="B"><path d="M32 16h1v1h-1z"/><path d="M33 16h1v1h-1z"/><path d="M34 16h1v1h-1z"/><path d="M35 16h1v1h-1z"/></g><g class="H"><path d="M36 16h1v1h-1z"/><path d="M37 16h1v1h-1z"/><path d="M38 16h1v1h-1z"/><path d="M39 16h1v1h-1z"/></g><g class="E"><path d="M40 16h1v1h-1z"/><path d="M41 16h1v1h-1z"/></g><g class="B"><path d="M42 16h1v1h-1z"/><path d="M43 16h1v1h-1z"/></g><g class="C"><path d="M47 16h1v1h-1z"/><path d="M48 16h1v1h-1zm3 0h1v1h-1zM1 17h1v1H1z"/></g><path d="M2 17h1v1H2z" class="I"/><g class="G"><path d="M3 17h1v1H3z"/><path d="M4 17h1v1H4z"/></g><path d="M5 17h1v1H5z" class="F"/><g class="D"><path d="M6 17h1v1H6z"/><path d="M7 17h1v1H7z"/><path d="M8 17h1v1H8z"/></g><path d="M9 17h1v1H9z" class="C"/><g class="B"><path d="M10 17h1v1h-1z"/><path d="M11 17h1v1h-1z"/></g><path d="M12 17h1v1h-1z" class="E"/><g class="H"><path d="M13 17h1v1h-1z"/><path d="M14 17h1v1h-1z"/><path d="M15 17h1v1h-1z"/><path d="M16 17h1v1h-1z"/></g><path d="M17 17h1v1h-1zm5 0h1v1h-1z" class="B"/><g class="H"><path d="M23 17h1v1h-1z"/><path d="M24 17h1v1h-1z"/><path d="M25 17h1v1h-1z"/><path d="M26 17h1v1h-1z"/><path d="M27 17h1v1h-1z"/><path d="M28 17h1v1h-1z"/><path d="M29 17h1v1h-1z"/><path d="M30 17h1v1h-1z"/></g><path d="M31 17h1v1h-1zm5 0h1v1h-1z" class="B"/><g class="H"><path d="M37 17h1v1h-1z"/><path d="M38 17h1v1h-1z"/><path d="M39 17h1v1h-1z"/></g><g class="E"><path d="M40 17h1v1h-1z"/><path d="M41 17h1v1h-1z"/></g><g class="B"><path d="M42 17h1v1h-1z"/><path d="M43 17h1v1h-1z"/></g><path d="M52 17h1v1h-1zM0 18h1v1H0z" class="C"/><path d="M1 18h1v1H1z" class="I"/><path d="M2 18h1v1H2z" class="G"/><g class="F"><path d="M3 18h1v1H3z"/><path d="M4 18h1v1H4z"/></g><g class="D"><path d="M5 18h1v1H5z"/><path d="M6 18h1v1H6z"/></g><g class="I"><path d="M7 18h1v1H7z"/><path d="M8 18h1v1H8z"/></g><path d="M9 18h1v1H9z" class="G"/><path d="M10 18h1v1h-1z" class="C"/><path d="M11 18h1v1h-1z" class="B"/><path d="M12 18h1v1h-1z" class="E"/><g class="H"><path d="M13 18h1v1h-1z"/><path d="M14 18h1v1h-1z"/><path d="M15 18h1v1h-1z"/></g><path d="M16 18h1v1h-1zm7 0h1v1h-1z" class="B"/><g class="H"><path d="M24 18h1v1h-1z"/><path d="M25 18h1v1h-1z"/><path d="M26 18h1v1h-1z"/><path d="M27 18h1v1h-1z"/><path d="M28 18h1v1h-1z"/><path d="M29 18h1v1h-1z"/></g><path d="M30 18h1v1h-1zm7 0h1v1h-1z" class="B"/><g class="H"><path d="M38 18h1v1h-1z"/><path d="M39 18h1v1h-1z"/></g><g class="E"><path d="M40 18h1v1h-1z"/><path d="M41 18h1v1h-1z"/></g><g class="B"><path d="M42 18h1v1h-1z"/><path d="M43 18h1v1h-1z"/></g><g class="C"><path d="M49 18h1v1h-1z"/><path d="M50 18h1v1h-1z"/><path d="M51 18h1v1h-1zM0 19h1v1H0z"/></g><path d="M1 19h1v1H1z" class="G"/><path d="M2 19h1v1H2z" class="F"/><g class="D"><path d="M3 19h1v1H3z"/><path d="M4 19h1v1H4z"/></g><g class="I"><path d="M5 19h1v1H5z"/><path d="M6 19h1v1H6z"/><path d="M7 19h1v1H7z"/></g><path d="M8 19h1v1H8z" class="F"/><path d="M9 19h1v1H9z" class="G"/><path d="M10 19h1v1h-1z" class="C"/><path d="M11 19h1v1h-1z" class="B"/><g class="E"><path d="M12 19h1v1h-1z"/><path d="M13 19h1v1h-1z"/><path d="M14 19h1v1h-1z"/><path d="M15 19h1v1h-1z"/></g><path d="M16 19h1v1h-1zm7 0h1v1h-1z" class="B"/><g class="E"><path d="M24 19h1v1h-1z"/><path d="M25 19h1v1h-1z"/><path d="M26 19h1v1h-1z"/><path d="M27 19h1v1h-1z"/><path d="M28 19h1v1h-1z"/><path d="M29 19h1v1h-1z"/></g><path d="M30 19h1v1h-1zm7 0h1v1h-1z" class="B"/><g class="E"><path d="M38 19h1v1h-1z"/><path d="M39 19h1v1h-1z"/><path d="M40 19h1v1h-1z"/><path d="M41 19h1v1h-1z"/></g><g class="B"><path d="M42 19h1v1h-1z"/><path d="M43 19h1v1h-1z"/></g><path d="M48 19h1v1h-1z" class="C"/><g class="D"><path d="M49 19h1v1h-1z"/><path d="M50 19h1v1h-1z"/></g><path d="M51 19h1v1h-1z" class="I"/><path d="M52 19h1v1h-1zM0 20h1v1H0z" class="C"/><path d="M1 20h1v1H1z" class="G"/><g class="D"><path d="M2 20h1v1H2z"/><path d="M3 20h1v1H3z"/></g><g class="G"><path d="M4 20h1v1H4z"/><path d="M5 20h1v1H5z"/></g><g class="F"><path d="M6 20h1v1H6z"/><path d="M7 20h1v1H7z"/></g><g class="D"><path d="M8 20h1v1H8z"/><path d="M9 20h1v1H9z"/></g><path d="M10 20h1v1h-1z" class="C"/><g class="B"><path d="M11 20h1v1h-1z"/><path d="M12 20h1v1h-1z"/><path d="M13 20h1v1h-1z"/><path d="M14 20h1v1h-1z"/><path d="M15 20h1v1h-1zm9 0h1v1h-1z"/><path d="M25 20h1v1h-1z"/><path d="M26 20h1v1h-1z"/><path d="M27 20h1v1h-1z"/><path d="M28 20h1v1h-1z"/><path d="M29 20h1v1h-1z"/></g><g class="C"><path d="M35 20h1v1h-1z"/><path d="M36 20h1v1h-1z"/><path d="M37 20h1v1h-1z"/><path d="M38 20h1v1h-1z"/></g><g class="B"><path d="M39 20h1v1h-1z"/><path d="M40 20h1v1h-1z"/><path d="M41 20h1v1h-1z"/><path d="M42 20h1v1h-1z"/><path d="M43 20h1v1h-1z"/></g><path d="M47 20h1v1h-1z" class="C"/><path d="M48 20h1v1h-1z" class="I"/><g class="G"><path d="M49 20h1v1h-1z"/><path d="M50 20h1v1h-1z"/><path d="M51 20h1v1h-1z"/></g><path d="M52 20h1v1h-1z" class="D"/><path d="M53 20h1v1h-1zM0 21h1v1H0z" class="C"/><path d="M1 21h1v1H1z" class="G"/><path d="M2 21h1v1H2z" class="D"/><g class="G"><path d="M3 21h1v1H3z"/><path d="M4 21h1v1H4z"/></g><g class="F"><path d="M5 21h1v1H5z"/><path d="M6 21h1v1H6z"/></g><g class="D"><path d="M7 21h1v1H7z"/><path d="M8 21h1v1H8z"/></g><path d="M9 21h1v1H9z" class="F"/><g class="C"><path d="M10 21h1v1h-1zm23 0h1v1h-1z"/><path d="M34 21h1v1h-1z"/></g><g class="D"><path d="M35 21h1v1h-1z"/><path d="M36 21h1v1h-1z"/></g><path d="M37 21h1v1h-1z" class="F"/><path d="M38 21h1v1h-1z" class="G"/><g class="C"><path d="M39 21h1v1h-1z"/><path d="M40 21h1v1h-1zm7 0h1v1h-1z"/></g><g class="G"><path d="M48 21h1v1h-1z"/><path d="M49 21h1v1h-1z"/></g><g class="D"><path d="M50 21h1v1h-1z"/><path d="M51 21h1v1h-1z"/></g><path d="M52 21h1v1h-1z" class="F"/><path d="M53 21h1v1h-1zM0 22h1v1H0z" class="C"/><path d="M1 22h1v1H1z" class="D"/><g class="G"><path d="M2 22h1v1H2z"/><path d="M3 22h1v1H3z"/></g><g class="I"><path d="M4 22h1v1H4z"/><path d="M5 22h1v1H5z"/><path d="M6 22h1v1H6z"/></g><path d="M7 22h1v1H7z" class="G"/><g class="F"><path d="M8 22h1v1H8z"/><path d="M9 22h1v1H9z"/></g><path d="M10 22h1v1h-1zm22 0h1v1h-1z" class="C"/><g class="D"><path d="M33 22h1v1h-1z"/><path d="M34 22h1v1h-1z"/></g><g class="F"><path d="M35 22h1v1h-1z"/><path d="M36 22h1v1h-1z"/></g><g class="G"><path d="M37 22h1v1h-1z"/><path d="M38 22h1v1h-1z"/><path d="M39 22h1v1h-1z"/><path d="M40 22h1v1h-1z"/></g><path d="M41 22h1v1h-1zm6 0h1v1h-1z" class="C"/><g class="D"><path d="M48 22h1v1h-1z"/><path d="M49 22h1v1h-1z"/></g><g class="F"><path d="M50 22h1v1h-1z"/><path d="M51 22h1v1h-1z"/><path d="M52 22h1v1h-1z"/></g><path d="M53 22h1v1h-1zM1 23h1v1H1z" class="C"/><path d="M2 23h1v1H2z" class="D"/><path d="M3 23h1v1H3z" class="I"/><g class="G"><path d="M4 23h1v1H4z"/><path d="M5 23h1v1H5z"/><path d="M6 23h1v1H6z"/></g><g class="F"><path d="M7 23h1v1H7z"/><path d="M8 23h1v1H8z"/></g><path d="M9 23h1v1H9zm22 0h1v1h-1z" class="C"/><g class="D"><path d="M32 23h1v1h-1z"/><path d="M33 23h1v1h-1z"/></g><g class="F"><path d="M34 23h1v1h-1z"/><path d="M35 23h1v1h-1z"/></g><g class="G"><path d="M36 23h1v1h-1z"/><path d="M37 23h1v1h-1z"/><path d="M38 23h1v1h-1z"/></g><g class="D"><path d="M39 23h1v1h-1z"/><path d="M40 23h1v1h-1z"/></g><path d="M41 23h1v1h-1z" class="G"/><path d="M42 23h1v1h-1zm6 0h1v1h-1z" class="C"/><g class="F"><path d="M49 23h1v1h-1z"/><path d="M50 23h1v1h-1z"/><path d="M51 23h1v1h-1z"/></g><path d="M52 23h1v1h-1zM2 24h1v1H2z" class="C"/><g class="G"><path d="M3 24h1v1H3z"/><path d="M4 24h1v1H4z"/></g><g class="F"><path d="M5 24h1v1H5z"/><path d="M6 24h1v1H6z"/><path d="M7 24h1v1H7z"/></g><g class="C"><path d="M8 24h1v1H8zm9 0h1v1h-1z"/><path d="M18 24h1v1h-1z"/><path d="M19 24h1v1h-1z"/><path d="M20 24h1v1h-1zm11 0h1v1h-1z"/></g><path d="M32 24h1v1h-1z" class="D"/><g class="F"><path d="M33 24h1v1h-1z"/><path d="M34 24h1v1h-1z"/></g><g class="G"><path d="M35 24h1v1h-1z"/><path d="M36 24h1v1h-1z"/><path d="M37 24h1v1h-1z"/></g><path d="M38 24h1v1h-1z" class="D"/><g class="G"><path d="M39 24h1v1h-1z"/><path d="M40 24h1v1h-1z"/><path d="M41 24h1v1h-1z"/></g><g class="C"><path d="M42 24h1v1h-1zm3 0h1v1h-1z"/><path d="M46 24h1v1h-1z"/><path d="M47 24h1v1h-1zm2 0h1v1h-1z"/><path d="M50 24h1v1h-1z"/><path d="M51 24h1v1h-1zM3 25h1v1H3z"/><path d="M4 25h1v1H4z"/><path d="M5 25h1v1H5z"/><path d="M6 25h1v1H6z"/><path d="M7 25h1v1H7zm4 0h1v1h-1z"/><path d="M12 25h1v1h-1zm4 0h1v1h-1z"/></g><path d="M17 25h1v1h-1z" class="I"/><path d="M18 25h1v1h-1z" class="D"/><path d="M19 25h1v1h-1z" class="F"/><path d="M20 25h1v1h-1z" class="I"/><path d="M21 25h1v1h-1zm9 0h1v1h-1z" class="C"/><path d="M31 25h1v1h-1z" class="D"/><g class="F"><path d="M32 25h1v1h-1z"/><path d="M33 25h1v1h-1z"/></g><g class="G"><path d="M34 25h1v1h-1z"/><path d="M35 25h1v1h-1z"/></g><g class="D"><path d="M36 25h1v1h-1z"/><path d="M37 25h1v1h-1z"/></g><g class="G"><path d="M38 25h1v1h-1z"/><path d="M39 25h1v1h-1z"/></g><path d="M40 25h1v1h-1z" class="I"/><g class="G"><path d="M41 25h1v1h-1z"/><path d="M42 25h1v1h-1z"/></g><g class="C"><path d="M43 25h1v1h-1z"/><path d="M44 25h1v1h-1zm-31 1h1v1h-1z"/><path d="M14 26h1v1h-1z"/><path d="M15 26h1v1h-1z"/></g><path d="M16 26h1v1h-1z" class="I"/><path d="M17 26h1v1h-1z" class="D"/><path d="M18 26h1v1h-1z" class="F"/><path d="M19 26h1v1h-1z" class="I"/><g class="G"><path d="M20 26h1v1h-1z"/><path d="M21 26h1v1h-1z"/></g><path d="M22 26h1v1h-1zm8 0h1v1h-1z" class="C"/><path d="M31 26h1v1h-1z" class="D"/><path d="M32 26h1v1h-1z" class="F"/><g class="G"><path d="M33 26h1v1h-1z"/><path d="M34 26h1v1h-1z"/></g><g class="D"><path d="M35 26h1v1h-1z"/><path d="M36 26h1v1h-1z"/></g><g class="I"><path d="M37 26h1v1h-1z"/><path d="M38 26h1v1h-1z"/><path d="M39 26h1v1h-1z"/></g><g class="G"><path d="M40 26h1v1h-1z"/><path d="M41 26h1v1h-1z"/><path d="M42 26h1v1h-1z"/></g><path d="M43 26h1v1h-1zm-28 1h1v1h-1z" class="C"/><path d="M16 27h1v1h-1z" class="D"/><path d="M17 27h1v1h-1z" class="F"/><g class="I"><path d="M18 27h1v1h-1z"/><path d="M19 27h1v1h-1z"/></g><path d="M20 27h1v1h-1z" class="G"/><path d="M21 27h1v1h-1z" class="D"/><g class="C"><path d="M22 27h1v1h-1z"/><path d="M23 27h1v1h-1z"/><path d="M24 27h1v1h-1z"/><path d="M25 27h1v1h-1z"/><path d="M26 27h1v1h-1z"/><path d="M27 27h1v1h-1zm3 0h1v1h-1z"/></g><path d="M31 27h1v1h-1z" class="F"/><g class="G"><path d="M32 27h1v1h-1z"/><path d="M33 27h1v1h-1z"/></g><g class="D"><path d="M34 27h1v1h-1z"/><path d="M35 27h1v1h-1z"/></g><path d="M36 27h1v1h-1z" class="I"/><path d="M37 27h1v1h-1z" class="F"/><g class="G"><path d="M38 27h1v1h-1z"/><path d="M39 27h1v1h-1z"/><path d="M40 27h1v1h-1z"/><path d="M41 27h1v1h-1z"/></g><path d="M42 27h1v1h-1z" class="D"/><path d="M43 27h1v1h-1zm-28 1h1v1h-1z" class="C"/><path d="M16 28h1v1h-1z" class="F"/><g class="I"><path d="M17 28h1v1h-1z"/><path d="M18 28h1v1h-1z"/></g><path d="M19 28h1v1h-1z" class="G"/><path d="M20 28h1v1h-1z" class="D"/><path d="M21 28h1v1h-1z" class="F"/><path d="M22 28h1v1h-1zm8 0h1v1h-1z" class="C"/><path d="M31 28h1v1h-1z" class="F"/><path d="M32 28h1v1h-1z" class="G"/><g class="D"><path d="M33 28h1v1h-1z"/><path d="M34 28h1v1h-1z"/></g><path d="M35 28h1v1h-1z" class="I"/><path d="M36 28h1v1h-1z" class="F"/><path d="M37 28h1v1h-1z" class="G"/><path d="M38 28h1v1h-1z" class="D"/><g class="G"><path d="M39 28h1v1h-1z"/><path d="M40 28h1v1h-1z"/></g><g class="D"><path d="M41 28h1v1h-1z"/><path d="M42 28h1v1h-1z"/></g><path d="M43 28h1v1h-1zm-28 1h1v1h-1z" class="C"/><path d="M16 29h1v1h-1z" class="I"/><path d="M17 29h1v1h-1z" class="G"/><g class="D"><path d="M18 29h1v1h-1z"/><path d="M19 29h1v1h-1z"/></g><g class="F"><path d="M20 29h1v1h-1z"/><path d="M21 29h1v1h-1z"/></g><path d="M22 29h1v1h-1zm9 0h1v1h-1z" class="C"/><path d="M32 29h1v1h-1z" class="D"/><g class="I"><path d="M33 29h1v1h-1z"/><path d="M34 29h1v1h-1z"/></g><g class="F"><path d="M35 29h1v1h-1z"/><path d="M36 29h1v1h-1z"/></g><path d="M37 29h1v1h-1z" class="D"/><g class="G"><path d="M38 29h1v1h-1z"/><path d="M39 29h1v1h-1z"/></g><path d="M40 29h1v1h-1z" class="F"/><path d="M41 29h1v1h-1z" class="D"/><path d="M42 29h1v1h-1zm-26 1h1v1h-1z" class="C"/><path d="M17 30h1v1h-1z" class="I"/><g class="F"><path d="M18 30h1v1h-1z"/><path d="M19 30h1v1h-1z"/><path d="M20 30h1v1h-1z"/></g><path d="M21 30h1v1h-1zm10 0h1v1h-1z" class="C"/><g class="F"><path d="M32 30h1v1h-1z"/><path d="M33 30h1v1h-1z"/><path d="M34 30h1v1h-1z"/></g><g class="D"><path d="M35 30h1v1h-1z"/><path d="M36 30h1v1h-1z"/></g><g class="F"><path d="M37 30h1v1h-1z"/><path d="M38 30h1v1h-1z"/><path d="M39 30h1v1h-1z"/></g><path d="M40 30h1v1h-1z" class="D"/><path d="M41 30h1v1h-1z" class="F"/><g class="C"><path d="M42 30h1v1h-1zm-25 1h1v1h-1z"/><path d="M18 31h1v1h-1z"/><path d="M19 31h1v1h-1z"/><path d="M20 31h1v1h-1zm12 0h1v1h-1z"/></g><g class="D"><path d="M33 31h1v1h-1z"/><path d="M34 31h1v1h-1z"/><path d="M35 31h1v1h-1z"/></g><g class="F"><path d="M36 31h1v1h-1z"/><path d="M37 31h1v1h-1z"/><path d="M38 31h1v1h-1z"/><path d="M39 31h1v1h-1z"/><path d="M40 31h1v1h-1z"/></g><g class="C"><path d="M41 31h1v1h-1zm-8 1h1v1h-1z"/><path d="M34 32h1v1h-1z"/></g><g class="F"><path d="M35 32h1v1h-1z"/><path d="M36 32h1v1h-1z"/><path d="M37 32h1v1h-1z"/><path d="M38 32h1v1h-1z"/></g><g class="C"><path d="M39 32h1v1h-1z"/><path d="M40 32h1v1h-1zm-5 1h1v1h-1z"/><path d="M36 33h1v1h-1z"/><path d="M37 33h1v1h-1z"/><path d="M38 33h1v1h-1z"/></g></svg>