<?xml version="1.0" encoding="utf-8"?>
<!-- Generator: Adobe Illustrator 26.1.0, SVG Export Plug-In . SVG Version: 6.00 Build 0)  -->
<svg version="1.1" id="Layer_1" xmlns="http://www.w3.org/2000/svg" xmlns:xlink="http://www.w3.org/1999/xlink" x="0px" y="0px"
	 viewBox="0 0 18.61 19.19" style="enable-background:new 0 0 18.61 19.19;" xml:space="preserve">
<style type="text/css">
	.st0{fill:#2D2B6E;}
	.st1{fill:#6B98D0;}
</style>
<g>
	<g>
		<path class="st0" d="M18.61,5.58h-1.86v7.44h1.86V5.58z M13.02,14.89h1.86v1.86h-1.86V14.89z"/>
		<path class="st0" d="M14.89,13.02h1.86v1.86h-1.86V13.02z M3.72,14.89h1.86v1.86H3.72V14.89z"/>
		<path class="st0" d="M13.02,18.61v-1.86H5.58v1.86H13.02z"/>
	</g>
	<g>
		<path class="st1" d="M6.51,5.58v1.86h1.86v5.58h1.86V7.44h1.86V5.58H6.51z M5.58,0v1.86h7.44V0H5.58z"/>
		<path class="st1" d="M13.02,1.86h1.86v1.86h-1.86V1.86z M0,13.02h1.86V5.58H0V13.02z M3.72,1.86h1.86v1.86H3.72V1.86z"/>
		<path class="st1" d="M1.86,3.72h1.86v1.86H1.86V3.72z"/>
	</g>
</g>
</svg>
