<?xml version="1.0" encoding="utf-8"?>
<!-- Generator: Adobe Illustrator 26.1.0, SVG Export Plug-In . SVG Version: 6.00 Build 0)  -->
<svg version="1.1" id="Layer_1" xmlns="http://www.w3.org/2000/svg" xmlns:xlink="http://www.w3.org/1999/xlink" x="0px" y="0px"
	 viewBox="0 0 15.86 17.97" style="enable-background:new 0 0 15.86 17.97;" xml:space="preserve">
<style type="text/css">
	.st0{fill:#F8C1D9;}
	.st1{fill:#FBDDEA;}
	.st2{fill:#FFFFFF;}
	.st3{fill:#F287B7;}
	.st4{fill:#EE3A85;}
</style>
<g>
	<path class="st0" d="M8.95,8.3V6.91H7.57V8.3H6.18v2.77h1.38v1.38h2.77V8.3H8.95z"/>
	<path class="st1" d="M6.18,5.53V4.15H4.8v2.77h2.77V5.53H6.18z"/>
	<path class="st2" d="M3.42,2.77H4.8v1.38H3.42V2.77z"/>
	<path class="st3" d="M13.1,13.83v-2.77h-1.38v1.38h-1.38v1.38H7.57v1.38h1.38v1.38h5.53v-2.77H13.1z"/>
	<g>
		<path class="st4" d="M4.8,2.77V1.38H3.42V0H2.04v4.15h1.38V2.77H4.8z"/>
		<path class="st4" d="M4.8,2.77h1.38v1.38H4.8V2.77z"/>
		<path class="st4" d="M6.18,4.15h1.38v1.38H6.18V4.15z"/>
		<path class="st4" d="M7.57,5.53h1.38v1.38H7.57V5.53z"/>
		<path class="st4" d="M8.95,6.91h1.38V8.3H8.95V6.91z M6.18,8.3h1.38V6.91H4.8v4.15h1.38V8.3z"/>
		<path class="st4" d="M10.33,13.83v-1.38H7.57v-1.38H6.18v4.15h1.38v-1.38H10.33z"/>
		<path class="st4" d="M10.33,12.44h1.38v-1.38h1.38V9.68h-1.38V8.3h-1.38V12.44z"/>
		<path class="st4" d="M14.48,12.44v-1.38H13.1v2.77h1.38v2.77h1.38v-4.15H14.48z"/>
		<path class="st4" d="M8.95,16.59v-1.38H7.57v2.77h6.91v-1.38H8.95z M3.42,4.15H4.8v2.77H3.42V4.15z"/>
	</g>
</g>
</svg>
