<?xml version="1.0" encoding="utf-8"?>
<!-- Generator: Adobe Illustrator 26.1.0, SVG Export Plug-In . SVG Version: 6.00 Build 0)  -->
<svg version="1.1" id="Layer_1" xmlns="http://www.w3.org/2000/svg" xmlns:xlink="http://www.w3.org/1999/xlink" x="0px" y="0px"
	 viewBox="0 0 16.87 15.18" style="enable-background:new 0 0 16.87 15.18;" xml:space="preserve">
<style type="text/css">
	.st0{fill:#1F7CC1;}
</style>
<g>
	<path class="st0" d="M5.06,5.06v3.37h5.06v1.69H5.06v1.69h2.53v1.69h1.69v-1.69h2.53V6.75H6.75V5.06h5.06V3.37H9.28V1.69H7.59v1.69
		H5.06V5.06z M11.81,13.49h1.69v1.69h-1.69V13.49z"/>
	<path class="st0" d="M13.49,11.81h1.69v1.69h-1.69V11.81z"/>
	<path class="st0" d="M15.18,6.75v5.06h1.69V3.37h-1.69v1.69V6.75z M11.81,0h1.69v1.69h-1.69V0z"/>
	<path class="st0" d="M13.49,1.69h1.69v1.69h-1.69V1.69z M1.69,10.12V3.37H0v8.43h1.69V10.12z M3.37,13.49h1.69v1.69H3.37V13.49z"/>
	<path class="st0" d="M1.69,11.81h1.69v1.69H1.69V11.81z M3.37,0h1.69v1.69H3.37V0z"/>
	<path class="st0" d="M1.69,1.69h1.69v1.69H1.69V1.69z"/>
</g>
</svg>
