<?xml version="1.0" encoding="UTF-8" standalone="no"?><!DOCTYPE svg PUBLIC "-//W3C//DTD SVG 1.1//EN" "http://www.w3.org/Graphics/SVG/1.1/DTD/svg11.dtd"><svg width="100%" height="100%" viewBox="0 0 8338 8334" version="1.1" xmlns="http://www.w3.org/2000/svg" xmlns:xlink="http://www.w3.org/1999/xlink" xml:space="preserve" xmlns:serif="http://www.serif.com/" style="fill-rule:evenodd;clip-rule:evenodd;stroke-linejoin:round;stroke-miterlimit:2;"><rect id="Orden_GG_RGB-color" x="4.058" y="0" width="8333.33" height="8333.33" style="fill:none;"/><clipPath id="_clip1"><rect x="4.058" y="0" width="8333.33" height="8333.33"/></clipPath><g clip-path="url(#_clip1)"><rect id="Background" x="-339.308" y="-279.78" width="8964.96" height="9070.93" style="fill:#0c0b1d;"/><g><path d="M5491.31,3465.62l-588.748,340.785l-0.826,125.645l95.155,-54.997c34.762,-20.091 78.235,4.99 78.235,45.137l-0,1488.05c241.717,-79.946 416.184,-307.77 416.184,-576.291l-0,-1368.33Z" style="fill:#fff;fill-rule:nonzero;"/><path d="M5491.27,3136.53l0,121.696l-416.184,240.03l0,-590.639l0.359,4.068c0,-105.661 -85.558,-191.339 -191.339,-191.339c-105.661,0 -191.339,85.678 -191.339,191.339l0.359,0l-0,2498.54c-120.859,-39.967 -224.845,-116.909 -298.676,-217.425c-44.754,-61.028 -78.379,-130.791 -98.003,-206.19c-5.624,-21.766 -10.171,-44.023 -13.402,-66.771c-3.949,-28.108 -5.983,-56.708 -5.983,-85.905l-0,-1697.4c-0,-335.305 271.871,-607.045 607.044,-607.045c167.646,0 319.497,67.968 429.347,177.818c109.849,109.849 177.817,261.581 177.817,429.227" style="fill:#fff;fill-rule:nonzero;"/><path d="M4063.7,3465.62l-588.748,340.785l-0.826,125.645l53.058,-30.658c53.465,-30.908 120.332,7.683 120.332,69.44l0,1439.41c241.717,-79.946 416.184,-307.77 416.184,-576.291l-0,-1368.33Z" style="fill:#fff;fill-rule:nonzero;"/><path d="M3265.2,2911.71c-0,-105.661 85.677,-191.339 191.339,-191.339c105.781,-0 191.339,85.678 191.339,191.339l-0.359,-4.08l0,590.662l416.184,-240.041l-0,-121.696c-0,-167.659 -67.968,-319.378 -177.818,-429.227c-109.849,-109.862 -261.7,-177.818 -429.346,-177.818c-335.173,0 -607.045,271.752 -607.045,607.045l0,1697.4c0,134.248 43.677,258.338 117.389,358.866c73.831,100.503 177.817,177.458 298.676,217.425l-0,-2498.54l-0.359,0Z" style="fill:#fff;fill-rule:nonzero;"/><path d="M4170.72,1885.89c-1296.38,0 -1962.67,645.48 -1962.67,1313.38l-0,1688.25c-0,506.888 441.995,1034.78 1106.2,1034.78c-576.818,-291.305 -690.138,-795.895 -690.138,-1034.78l0,-1688.25c0,-446.506 369.683,-1122.52 1546.61,-1122.52c1176.92,-0 1546.61,676.017 1546.61,1122.52l0,1688.25c0,238.881 -113.319,743.471 -690.137,1034.78c664.207,-0 1106.2,-527.888 1106.2,-1034.78l-0,-1688.25c-0,-667.904 -666.289,-1313.38 -1962.67,-1313.38" style="fill:#fff;fill-rule:nonzero;"/><path d="M4696.24,5922.85c-266.008,146.586 -428.27,338.643 -524.837,524.597c-96.567,-185.954 -258.828,-378.011 -524.836,-524.597c266.008,-146.586 428.269,-338.643 524.836,-524.598c96.567,185.955 258.829,378.012 524.837,524.598" style="fill:#fff200;fill-rule:nonzero;"/></g></g></svg>