<svg width="280" height="300" viewBox="0 0 280 300" fill="none" xmlns="http://www.w3.org/2000/svg">
<path d="M100.595 195.732V193.902H96.9366V192.073H89.6196V193.902H87.8049V201.22H89.6196V203.049H93.2781V204.878H96.9366V206.707H98.7805V208.537H100.595V210.366H102.439V195.732H100.595Z" fill="#64438E"/>
<path d="M100.595 197.561V195.732H96.9367V193.902H89.6196V201.22H93.2782V203.049H96.9367V204.878H98.7806V206.707H100.595V208.537H102.439V197.561H100.595Z" fill="#EDD3FD"/>
<path d="M89.6196 193.902V199.39H93.2782V201.22H96.9367V203.049H98.766V204.878H100.595V206.707H102.425V197.561H100.595V195.732H96.9367V193.902H89.6196Z" fill="white"/>
<path d="M177.425 204.878V203.049H173.766V201.22H170.107V199.39H168.293V197.561H166.449V195.732H164.634V210.366H166.449V212.195H170.107V214.025H177.425V212.195H179.268V204.878H177.425Z" fill="#64438E"/>
<path d="M173.766 204.878V203.049H170.107V201.22H168.293V199.39H166.449V197.561H164.634V208.537H166.449V210.366H170.107V212.195H177.425V204.878H173.766Z" fill="#EDD3FD"/>
<path d="M173.766 204.878V203.049H170.107V201.22H168.278V199.39H166.449V197.561H164.62V206.708H166.449V208.537H170.107V210.366H177.425V204.878H173.766Z" fill="white"/>
<path d="M160.976 160.976V157.317H157.317V153.659H150V150H142.683V146.341H124.39V150H117.073V153.659H109.756V157.317H106.098V160.976H102.439V235.976H109.756V232.317H118.888V235.976H128.049V232.317H139.024V235.976H148.156V232.317H157.317V235.976H164.634V160.976H160.976Z" fill="#64438E"/>
<path d="M157.317 160.976V157.317H150V153.659H142.683V150H124.39V153.659H117.073V157.317H109.756V160.976H106.098V232.317H109.756V228.659H118.888V232.317H128.049V228.659H139.025V232.317H148.156V228.659H157.317V232.317H160.976V160.976H157.317Z" fill="#EDD3FD"/>
<path d="M107.912 225H111.571V223.171H115.229V225H118.888V228.659H128.034V225H131.693V223.171H135.351V225H139.01V228.659H148.156V225H151.815V223.171H155.473V225H157.303V160.976H149.986V157.317H142.668V153.659H133.522V151.829H124.376V155.488H117.059V159.147H109.742V162.805H107.912V225Z" fill="white"/>
<path d="M139.025 162.805V160.976H137.181V159.146H135.366V157.317H131.708V159.146H129.864V160.976H128.049V162.805H126.205V170.122H128.049V171.951H129.864V173.781H131.708V175.61H135.366V173.781H137.181V171.951H139.025V170.122H140.839V162.805H139.025Z" fill="#64438E"/>
<path d="M128.049 166.464V170.122H129.878V171.951H131.707V173.781H133.537V166.464H128.049Z" fill="#DEA8FF"/>
<path d="M137.181 162.805V160.976H135.351V159.146H133.522V166.464H139.01V162.805H137.181Z" fill="#DEA8FF"/>
<path d="M133.522 166.464V173.781H135.351V171.951H137.181V170.122H139.01V166.464H133.522Z" fill="#C260FF"/>
<path d="M131.708 159.146V160.976H129.878V162.805H128.049V166.464H133.537V159.146H131.708Z" fill="#EDD3FD"/>
<path d="M113.415 193.903V197.561H117.073V193.903H113.415ZM150 193.903V197.561H153.659V193.903H150Z" fill="#F696C6"/>
<path d="M128.049 193.903H124.391V197.561H128.049V193.903Z" fill="#64438E"/>
<path d="M128.049 197.561V201.22H139.025V197.561H128.049Z" fill="#64438E"/>
<path d="M139.025 193.903V197.561H142.683V193.903H139.025Z" fill="#64438E"/>
<path d="M117.073 186.585V190.244H124.391V186.585H128.049V179.268H124.391V175.61H117.073V179.268H113.415V186.585H117.073ZM139.025 179.268V186.585H142.683V190.244H150V186.585H153.659V179.268H150V175.61H142.683V179.268H139.025Z" fill="#64438E"/>
<path d="M250.595 171.951V168.293H246.937V164.634H243.278V160.976H239.62V164.634H235.961V168.293H232.302V171.951H228.644V179.268H232.302V182.927H235.961V186.585H239.62V274.39H243.278V186.585H246.937V182.927H250.595V179.268H254.254V171.951H250.595Z" fill="#64438E"/>
<path d="M250.595 171.951H232.302V179.268H250.595V171.951Z" fill="#C260FF"/>
<path d="M246.937 168.293H235.961V182.927H246.937V168.293Z" fill="#DEA8FF"/>
<path d="M239.62 164.634V186.585H243.278V164.634H239.62Z" fill="#EDD3FD"/>
<path d="M115.229 109.756H107.912H100.595V117.073V124.39V131.707H107.912V139.024H115.229H122.546V131.707H129.863V124.39V117.073V109.756H122.546H115.229Z" fill="#37F4F1"/>
<path d="M42.0731 109.756H34.756H27.439V117.073V124.39V131.707H34.756V139.024H42.0731H49.3902V131.707H56.6926V124.39V117.073V109.756H49.3902H42.0731Z" fill="#37F4F1"/>
<path d="M195.717 131.707H203.034V124.39V117.073V109.756H195.717H188.4H181.083H173.766V117.073V124.39V131.707H181.083V139.024H188.4H195.717V131.707Z" fill="#37F4F1"/>
<path d="M85.9609 234.146H78.6438V241.464V248.781V256.098V263.415V270.732V278.049V285.366H85.9609H93.2779H100.595V278.049V270.732V263.415V256.098V248.781V241.464V234.146H93.2779H85.9609Z" fill="#37F4F1"/>
<path d="M144.497 234.146H137.18V241.464V248.781V256.098V263.415V270.732V278.049V285.366H144.497H151.815H159.132V278.049V270.732V263.415V256.098V248.781V241.464V234.146H151.815H144.497Z" fill="#37F4F1"/>
<path d="M210.351 234.146H203.034H195.717V241.464V248.781V256.098V263.415V270.732V278.049V285.366H203.034H210.351H217.668V278.049V270.732V263.415V256.098V248.781V241.464V234.146H210.351Z" fill="#37F4F1"/>
<path d="M85.9608 80.4879V87.8049H78.6437V95.122H71.3267V102.439H78.6437H85.9608H93.2779V95.122V87.8049H100.595V80.4879H93.2779H85.9608Z" fill="#CF15F9"/>
<path d="M144.497 73.1709H151.814V65.8538H144.497H137.18H129.863H122.546H115.229V73.1709H122.546H129.863H137.18H144.497Z" fill="#CF15F9"/>
<path d="M159.132 14.6341H151.814V21.9512V29.2682H159.132H166.449V21.9512H159.132V14.6341Z" fill="#CF15F9"/>
<path d="M217.668 95.122V87.8049H210.351V80.4879H203.034H195.717H188.4V87.8049H195.717V95.122H203.034V102.439H210.351H217.668H224.985V95.122H217.668Z" fill="#CF15F9"/>
<path d="M159.132 80.4879H151.815H144.497H137.18V87.8049V95.122V102.439H144.497H151.815H159.132H166.449V95.122V87.8049H159.132V80.4879Z" fill="#CF15F9"/>
<path d="M49.3903 87.8049H42.0732V95.1219H49.3903V87.8049Z" fill="black"/>
<path d="M78.644 87.8049H71.3269V95.1219H78.644V87.8049Z" fill="black"/>
<path d="M56.7073 80.4878H49.3903V87.8049H56.7073V80.4878Z" fill="black"/>
<path d="M42.0732 109.756H49.3903H56.6927V117.073V124.39V131.707H64.0098V124.39V117.073V109.756H71.3269H78.644H85.961H93.2781V117.073V124.39V131.707H100.595V124.39V117.073V109.756H107.912H115.229H122.546H129.863V117.073V124.39V131.707H137.181V124.39V117.073V109.756H144.498H151.815H159.132H166.449V117.073V124.39V131.707H173.766V124.39V117.073V109.756H181.083H188.4H195.717H203.034V117.073V124.39V131.707H210.351V124.39V117.073V109.756H217.668H224.985H232.303H239.62V102.439H232.303V95.1221H224.985V102.439H217.668H210.351H203.034V95.1221H195.717V102.439H188.4H181.083H173.766V95.1221V87.805H166.449V95.1221V102.439H159.132H151.815H144.498H137.181V95.1221V87.805V80.4879H144.498H151.815H159.132V87.805H166.449V80.4879H173.766H181.083V87.805H188.4V80.4879H195.717H203.034H210.351V73.1708H203.034H195.717H188.4H181.083H173.766H166.449H159.132V65.8538H151.815V73.1708H144.498H137.181H129.863H122.546H115.229V65.8538H107.912V73.1708H100.595H93.2781H85.961H78.644H71.3269H64.0098H56.6927V80.4879H64.0098H71.3269H78.644V87.805H85.961V80.4879H93.2781H100.595V87.805H107.912V80.4879H115.229H122.546H129.863V87.805V95.1221V102.439H122.546H115.229H107.912H100.595V95.1221V87.805H93.2781V95.1221V102.439H85.961H78.644H71.3269V95.1221H64.0098V102.439H56.6927H49.3903H42.0732V95.1221H34.7562V102.439H27.4391V109.756H34.7562H42.0732Z" fill="black"/>
<path d="M224.985 87.8049H217.668V95.1219H224.985V87.8049Z" fill="black"/>
<path d="M195.717 87.8049H188.4V95.1219H195.717V87.8049Z" fill="black"/>
<path d="M122.546 58.5365H115.229V65.8536H122.546V58.5365Z" fill="black"/>
<path d="M137.181 58.5366H144.498V51.2195H137.181V43.9024V36.5854V29.2683V21.9512V14.6341V7.31707V0H129.863V7.31707V14.6341V21.9512V29.2683V36.5854V43.9024V51.2195H122.546V58.5366H129.863H137.181Z" fill="black"/>
<path d="M151.815 58.5365H144.498V65.8536H151.815V58.5365Z" fill="black"/>
<path d="M217.668 80.4878H210.351V87.8049H217.668V80.4878Z" fill="black"/>
<path d="M239.62 124.39V131.707H246.937V124.39V117.073V109.756H239.62V117.073V124.39Z" fill="black"/>
<path d="M239.62 131.707H232.302V139.024H239.62V131.707Z" fill="black"/>
<path d="M203.034 131.707H195.717V139.024H203.034V131.707Z" fill="black"/>
<path d="M181.083 139.024V146.341H188.4H195.717V139.024H188.4H181.083Z" fill="black"/>
<path d="M181.083 131.707H173.766V139.024H181.083V131.707Z" fill="black"/>
<path d="M166.449 131.707H159.132V139.024H166.449V131.707Z" fill="black"/>
<path d="M144.498 139.024V146.341H151.815H159.132V139.024H151.815H144.498Z" fill="black"/>
<path d="M144.498 131.707H137.181V139.024H144.498V131.707Z" fill="black"/>
<path d="M129.863 131.707H122.546V139.024H129.863V131.707Z" fill="black"/>
<path d="M254.254 292.683H246.937V300H254.254V292.683Z" fill="black"/>
<path d="M268.888 292.683H261.571V300H268.888H276.205V292.683H268.888Z" fill="black"/>
<path d="M5.48792 292.683V300H12.805H20.1221V292.683H12.805H5.48792Z" fill="black"/>
<path d="M246.937 219.512H239.62H232.303H224.985V212.195V204.878V197.561V190.244V182.927V175.61V168.293V160.976V153.659V146.341H232.303V139.024H224.985H217.668V131.707H210.351V139.024V146.341V153.659V160.976V168.293V175.61V182.927V190.244V197.561V204.878V212.195V219.512H203.034H195.717H188.4H181.083H173.766H166.449H159.132H151.815H144.498H137.181H129.864H122.546H115.229H107.912H100.595H93.2781H85.9611H78.644H71.3269H64.0098H56.6928V212.195V204.878V197.561V190.244V182.927V175.61V168.293V160.976V153.659V146.341V139.024V131.707H49.3757V139.024H42.0586H34.7416V146.341H42.0586V153.659V160.976V168.293V175.61V182.927V190.244V197.561V204.878V212.195V219.512H34.7416H27.4245H20.1074V226.829H27.4245V234.146H34.7416V241.463V248.78V256.098V263.415V270.732V278.049V285.366V292.683H27.4245V300H34.7416H42.0586H49.3757H56.6928H64.0098H71.3269H78.644H85.9611H93.2781H100.595H107.912H115.229H122.546H129.864H137.181H144.498H151.815H159.132H166.449H173.766H181.083H188.4H195.717H203.034H210.351H217.668H224.985H232.303H239.62V292.683H232.303V285.366V278.049V270.732V263.415V256.098V248.78V241.463V234.146H239.62V226.829H246.937V219.512ZM217.668 241.463V248.78V256.098V263.415V270.732V278.049V285.366H210.351H203.034H195.717V278.049V270.732V263.415V256.098V248.78V241.463V234.146H203.034H210.351H217.668V241.463ZM49.3903 278.049V270.732V263.415V256.098V248.78V241.463V234.146H56.7074H64.0245H71.3416V241.463V248.78V256.098V263.415V270.732V278.049V285.366H64.0245H56.7074H49.3903V278.049ZM78.644 278.049V270.732V263.415V256.098V248.78V241.463V234.146H85.9611H93.2781H100.595V241.463V248.78V256.098V263.415V270.732V278.049V285.366H93.2781H85.9611H78.644V278.049ZM107.912 278.049V270.732V263.415V256.098V248.78V241.463V234.146H115.229H122.546H129.864V241.463V245.122V248.78V256.098V263.415V270.732V278.049V285.366H122.546H115.229H107.912V278.049ZM137.181 278.049V270.732V263.415V256.098V248.78V234.146H144.498H151.815H159.132V241.463V248.78V256.098V263.415V270.732V278.049V285.366H151.815H144.498H137.181V278.049ZM166.449 278.049V270.732V263.415V256.098V248.78V241.463V234.146H173.766H181.083H188.4V241.463V248.78V256.098V263.415V270.732V278.049V285.366H181.083H173.766H166.449V278.049Z" fill="black"/>
<path d="M107.912 131.707H100.595V139.024H107.912V131.707Z" fill="black"/>
<path d="M93.2781 131.707H85.9611V139.024H93.2781V131.707Z" fill="black"/>
<path d="M71.3269 139.024V146.341H78.644H85.9611V139.024H78.644H71.3269Z" fill="black"/>
<path d="M71.327 131.707H64.0099V139.024H71.327V131.707Z" fill="black"/>
<path d="M34.7562 131.707H27.4391V139.024H34.7562V131.707Z" fill="black"/>
<path d="M107.912 139.024V146.341H115.229H122.546V139.024H115.229H107.912Z" fill="black"/>
<path d="M27.4391 117.073V109.756H20.1221V117.073V124.39V131.707H27.4391V124.39V117.073Z" fill="black"/>
<path d="M115.229 80.4879H107.912V87.8049H100.595V95.122V102.439H107.912H115.229H122.546H129.863V95.122V87.8049V80.4879H122.546H115.229Z" fill="#04B7BD"/>
<path d="M64.0097 80.4878H56.6926V87.8049H49.3902V95.122H42.0731V102.439H49.3902H56.6926H64.0097V95.122H71.3268V87.8049H78.6438V80.4878H71.3268H64.0097Z" fill="#04B7BD"/>
<path d="M188.4 95.122V87.8049H181.083V80.4879H173.766H166.449V87.8049H173.766V95.122V102.439H181.083H188.4H195.717V95.122H188.4Z" fill="#04B7BD"/>
<path d="M47.5609 151.829H45.717V153.658H42.0585V155.488H34.7414V157.317H32.9268V160.976H31.0829V177.439H32.9268V181.097H34.7414V182.927H42.0585V184.756H45.717V186.585H47.5609V192.073H49.3756V146.341H47.5609V151.829Z" fill="#A97955"/>
<path d="M32.9269 171.951V170.122H34.7561V171.951H32.9269ZM32.9269 168.293V166.464H34.7561V168.293H32.9269ZM32.9269 164.634V162.805H34.7561V164.634H32.9269Z" fill="#DE9A53"/>
<path d="M34.7415 166.463V164.634H36.5708V166.463H34.7415ZM34.7415 162.805V160.976H36.5708V162.805H34.7415ZM34.7415 159.146V157.317H36.5708V159.146H34.7415ZM32.9269 175.61V173.78H34.7561V175.61H32.9269Z" fill="#DE9A53"/>
<path d="M36.5854 171.951V170.122H38.4147V171.951H36.5854ZM36.5854 168.293V166.463H38.4147V168.293H36.5854ZM36.5854 164.634V162.805H38.4147V164.634H36.5854ZM36.5854 175.61V173.78H38.4147V175.61H36.5854ZM40.244 171.951V170.122H42.0733V171.951H40.244ZM40.244 168.293V166.463H42.0733V168.293H40.244ZM40.244 164.634V162.805H42.0733V164.634H40.244ZM40.244 175.61V173.78H42.0733V175.61H40.244ZM43.9025 171.951V170.122H45.7318V171.951H43.9025ZM43.9025 168.293V166.463H45.7318V168.293H43.9025ZM43.9025 164.634V162.805H45.7318V164.634H43.9025ZM36.5854 160.976V159.146H38.4147V160.976H36.5854ZM40.244 160.976V159.146H42.0733V160.976H40.244ZM43.9025 160.976V159.146H45.7318V160.976H43.9025ZM43.9025 175.61V173.78H45.7318V175.61H43.9025ZM36.5854 179.268V177.439H38.4147V179.268H36.5854Z" fill="#DE9A53"/>
<path d="M40.244 179.268V177.439H42.0733V179.268H40.244ZM43.9025 179.268V177.439H45.7318V179.268H43.9025ZM34.7416 177.439V175.61H36.5708V177.439H34.7416ZM34.7416 173.781V171.951H36.5708V173.781H34.7416ZM34.7416 170.122V168.293H36.5708V170.122H34.7416ZM34.7416 181.098V179.268H36.5708V181.098H34.7416ZM38.4001 166.463V164.634H40.2294V166.463H38.4001ZM38.4001 162.805V160.976H40.2294V162.805H38.4001Z" fill="#DE9A53"/>
<path d="M38.4001 159.146V157.317H40.2294V159.146H38.4001ZM38.4001 177.439V175.61H40.2294V177.439H38.4001ZM38.4001 173.78V171.951H40.2294V173.78H38.4001ZM38.4001 170.122V168.293H40.2294V170.122H38.4001ZM38.4001 181.098V179.268H40.2294V181.098H38.4001ZM42.0587 166.463V164.634H43.888V166.463H42.0587ZM42.0587 162.805V160.976H43.888V162.805H42.0587ZM42.0587 159.146V157.317H43.888V159.146H42.0587ZM42.0587 177.439V175.61H43.888V177.439H42.0587ZM42.0587 173.78V171.951H43.888V173.78H42.0587ZM42.0587 170.122V168.293H43.888V170.122H42.0587ZM42.0587 181.098V179.268H43.888V181.098H42.0587ZM45.7172 166.463V164.634H47.5465V166.463H45.7172ZM45.7172 162.805V160.976H47.5465V162.805H45.7172ZM45.7172 159.146V157.317H47.5465V159.146H45.7172Z" fill="#DE9A53"/>
<path d="M43.9026 157.317V155.488H45.7319V157.317H43.9026Z" fill="#DE9A53"/>
<path d="M45.7172 155.488V153.659H47.5464V155.488H45.7172ZM45.7172 177.439V175.61H47.5464V177.439H45.7172ZM45.7172 173.781V171.951H47.5464V173.781H45.7172ZM45.7172 170.122V168.293H47.5464V170.122H45.7172ZM45.7172 181.098V179.268H47.5464V181.098H45.7172Z" fill="#DE9A53"/>
<path d="M43.9026 182.927V181.098H45.7319V182.927H43.9026Z" fill="#DE9A53"/>
<path d="M45.7172 184.756V182.927H47.5464V184.756H45.7172Z" fill="#DE9A53"/>
<path d="M210.351 212.195V208.536H208.537V206.707H206.693V204.878H204.878V203.049H203.034V201.219H199.376V199.39H188.4V201.219H184.741V203.049H182.927V204.878H181.083V206.707H179.268V208.536H177.424V212.195H175.61V215.854H173.766V217.683H171.951V219.512H210.351V217.683H208.537V215.854H206.693V212.195H204.878V210.366H203.034V208.536H206.693V210.366H208.537V212.195H210.351Z" fill="#64438E"/>
<path d="M175.61 215.854V217.683H206.707V215.854H175.61ZM204.878 214.024V212.195H201.219V210.366H199.39V208.537H201.219V206.707H204.878V204.878H203.049V203.049H199.39V201.219H188.414V203.049H184.756V204.878H182.927V206.707H181.097V208.537H179.268V212.195H177.439V214.024H204.878Z" fill="#947DB0"/>
<path d="M192.073 214.024H190.244V215.854H192.073V214.024Z" fill="#EDD3FD"/>
<path d="M190.244 214.946H191.151V215.854H190.244V214.946Z" fill="#DEA8FF"/>
<path d="M191.151 214.025H192.059V214.932H191.151V214.025Z" fill="#DEA8FF"/>
<path d="M191.151 214.946H192.059V215.854H191.151V214.946Z" fill="#C260FF"/>
<path d="M193.902 206.707V205.785H192.98V204.878H192.058V203.971H190.244V204.878H189.322V205.785H188.4V206.707H187.493V210.366H188.4V211.288H189.322V212.195H190.244V213.102H192.058V212.195H192.98V211.288H193.902V210.366H194.81V206.707H193.902Z" fill="#64438E"/>
<path d="M188.4 208.537V210.366H189.307V211.273H190.215V212.181H191.122V208.522H188.4V208.537Z" fill="#DEA8FF"/>
<path d="M192.981 206.707V205.8H192.073V204.893H191.166V208.551H193.917V206.722H192.981V206.707Z" fill="#DEA8FF"/>
<path d="M191.151 208.537V212.195H192.058V211.288H192.966V210.38H193.873V208.537H191.151Z" fill="#C260FF"/>
<path d="M190.244 204.878V205.785H189.337V206.693H188.429V208.522H191.18V204.863H190.244V204.878Z" fill="#EDD3FD"/>
<path d="M171.951 212.195V208.536H170.107V206.707H168.293V204.878H166.449V203.049H164.634V201.219H160.976V199.39H150V201.219H146.342V203.049H144.498V204.878H142.683V206.707H140.839V208.536H139.024V212.195H137.181V215.854H135.366V217.683H133.522V219.512H171.951V217.683H170.107V215.854H168.293V212.195H166.449V210.366H164.634V208.536H168.293V210.366H170.107V212.195H171.951Z" fill="#3A2B77"/>
<path d="M137.18 215.854V217.683H168.278V215.854H137.18ZM166.449 214.024V212.195H162.79V210.366H160.961V208.537H162.79V206.707H166.449V204.878H164.619V203.049H160.961V201.219H149.985V203.049H146.327V204.878H144.497V206.707H142.668V208.537H140.839V212.195H139.01V214.024H166.449Z" fill="#B135FF"/>
<path d="M154.566 213.937H151.815V215.854H154.566V213.937Z" fill="#B135FF"/>
<path d="M156.395 207.629V206.707H155.473V205.785H154.566V203.971H153.658V203.049H152.737V203.971H151.815V205.785H150.907V206.707H150V207.629H149.078V208.537H150V209.444H150.907V210.366H151.815V212.195H152.737V213.102H153.658V212.195H154.566V210.366H155.473V209.444H156.395V208.537H157.317V207.629H156.395Z" fill="#47289B"/>
<path d="M151.815 209.444H154.566V210.351H151.815V209.444Z" fill="#CB5BFF"/>
<path d="M153.659 206.707H155.488V207.615H153.659V206.707Z" fill="#6F16E2"/>
<path d="M153.659 208.537H154.566V209.444H153.659V208.537ZM153.659 203.971H154.566V205.8H153.659V203.971Z" fill="#3A2B77"/>
<path d="M154.566 205.785H155.473V206.693H154.566V205.785ZM156.395 207.629H157.302V208.537H156.395V207.629Z" fill="#3A2B77"/>
<path d="M155.473 206.707H156.38V207.615H155.473V206.707ZM155.473 208.537H156.38V209.444H155.473V208.537ZM150 206.707H150.907V207.615H150V206.707ZM150 208.537H150.907V209.444H150V208.537ZM151.815 212.195H152.722V210.366H151.815V212.195Z" fill="#3A2B77"/>
<path d="M150.907 209.444H151.815V210.351H150.907V209.444Z" fill="#3A2B77"/>
<path d="M152.737 207.629H155.488V208.537H152.737V207.629Z" fill="#F37AFF"/>
<path d="M153.659 205.785H154.566V207.615H153.659V205.785Z" fill="#5D24BF"/>
<path d="M151.815 208.537H153.644V209.444H151.815V208.537ZM153.658 205.785H154.566V206.693H153.658V205.785Z" fill="#8000FF"/>
<path d="M152.736 209.444H153.644V212.195H152.736V209.444Z" fill="#8000FF"/>
<path d="M152.737 207.629H153.644V209.459H152.737V207.629Z" fill="#B135FF"/>
<path d="M153.658 209.444H154.566V210.351H153.658V209.444Z" fill="#B135FF"/>
<path d="M154.566 207.629H155.473V209.459H154.566V207.629Z" fill="#B135FF"/>
<path d="M151.815 205.785V206.707H150.907V208.537H153.658V205.785H151.815Z" fill="#FFA3FF"/>
<path d="M151.814 206.707H152.722V208.537H151.814V206.707Z" fill="#FFC9FF"/>
<path d="M150.907 208.083H151.815V209.459H150.907V208.083ZM154.566 207.629V208.537H156.395V207.629H154.566Z" fill="#CB5BFF"/>
<path d="M153.644 203.971H152.737V208.537H153.644V203.971Z" fill="white"/>
<path d="M153.659 207.629H150V208.537H153.659V207.629Z" fill="#FFC9FF"/>
<path d="M152.722 207.629H151.815V208.537H152.722V207.629Z" fill="white"/>
<path d="M152.722 214.024H151.815V214.932H152.722V214.024Z" fill="#F37AFF"/>
<path d="M152.722 214.946H151.814V215.854H152.722V214.946Z" fill="#FFC9FF"/>
<path d="M153.644 214.024H152.736V214.932H153.644V214.024Z" fill="white"/>
<path d="M153.644 214.946H152.736V215.854H153.644V214.946Z" fill="#5D24BF"/>
<path d="M154.566 214.024H153.658V214.932H154.566V214.024Z" fill="#8000FF"/>
<path d="M154.566 214.946H153.658V215.854H154.566V214.946Z" fill="#B135FF"/>
<path d="M133.522 212.195V208.537H131.707V206.707H129.864V204.878H128.049V203.049H126.205V201.219H122.546V199.39H111.571V201.219H107.912V203.049H106.098V204.878H104.254V206.707H102.439V208.537H100.595V212.195H98.7806V215.854H96.9367V217.683H95.1221V219.512H133.522V217.683H131.707V215.854H129.864V212.195H128.049V210.366H126.205V208.537H129.864V210.366H131.707V212.195H133.522Z" fill="#501E80"/>
<path d="M78.644 109.756H71.327H64.0099V117.073V124.39V131.707H71.327V139.025H78.644H85.9611V131.707H93.2782V124.39V117.073V109.756H85.9611H78.644Z" fill="#FA34F3"/>
<path d="M232.303 109.756H224.985H217.668H210.351V117.073V124.39V131.707H217.668V139.025H224.985H232.303V131.707H239.62V124.39V117.073V109.756H232.303Z" fill="#FA34F3"/>
<path d="M144.498 65.8536V58.5365H137.181H129.864H122.547V65.8536H129.864H137.181H144.498Z" fill="#FA34F3"/>
<path d="M151.815 21.9512V14.6342V7.31708H144.498H137.181V14.6342V21.9512H144.498H151.815Z" fill="#FA34F3"/>
<path d="M166.449 124.39V117.073V109.756H159.132H151.815H144.498H137.181V117.073V124.39V131.707H144.498V139.025H151.815H159.132V131.707H166.449V124.39Z" fill="#FA34F3"/>
<path d="M56.6928 234.146H49.3904V241.464V248.781V256.098V263.415V270.732V278.049V285.366H56.6928H64.0099H71.327V278.049V270.732V263.415V256.098V248.781V241.464V234.146H64.0099H56.6928Z" fill="#FA34F3"/>
<path d="M115.229 234.146H107.912V241.464V248.781V256.098V263.415V270.732V278.049V285.366H115.229H122.546H129.864V278.049V270.732V263.415V256.098V248.781V241.464V234.146H122.546H115.229Z" fill="#FA34F3"/>
<path d="M173.766 234.146H166.449V241.464V248.781V256.098V263.415V270.732V278.049V285.366H173.766H181.083H188.4V278.049V270.732V263.415V256.098V248.781V241.464V234.146H181.083H173.766Z" fill="#FA34F3"/>
<path d="M128.049 212.195H124.39V210.366H122.546V208.537H124.39V206.707H128.049V204.878H126.205V203.049H122.546V201.219H111.571V203.049H107.912V204.878H106.098V206.707H104.254V208.537H102.439V212.195H100.595V214.024H128.049V212.195Z" fill="#FA34F3"/>
<path d="M129.878 215.854H98.7806V217.683H129.878V215.854Z" fill="#FA34F3"/>
<path d="M115.229 215.854V217.683H117.059V215.854H115.229ZM104.254 215.854V217.683H106.083V215.854H104.254ZM107.912 215.854V217.683H109.742V215.854H107.912ZM122.546 215.854V217.683H124.376V215.854H122.546ZM118.888 215.854V217.683H120.717V215.854H118.888ZM100.595 215.854V217.683H102.424V215.854H100.595ZM126.205 215.854V217.683H128.034V215.854H126.205ZM111.571 215.854V217.683H113.4V215.854H111.571ZM122.546 210.366V214.024H124.376V210.366H122.546ZM104.254 206.707V214.024H106.083V206.707H104.254ZM122.546 203.049V208.537H124.376V203.049H122.546ZM107.912 203.049V214.024H109.742V203.049H107.912ZM115.229 201.219V214.024H117.059V201.219H115.229ZM118.888 201.219V214.024H120.717V201.219H118.888ZM111.571 201.219V214.024H113.4V201.219H111.571ZM100.595 212.195V214.024H102.424V212.195H100.595ZM126.205 212.195V214.024H128.034V212.195H126.205ZM126.205 204.878V206.707H128.034V204.878H126.205Z" fill="#FAAFF3"/>
<path d="M114.322 214.025H113.415V214.932H114.322V214.025Z" fill="#D700C1"/>
<path d="M114.322 214.946H113.415V215.854H114.322V214.946Z" fill="#FFC8FF"/>
<path d="M115.229 214.025H114.322V214.932H115.229V214.025Z" fill="white"/>
<path d="M115.229 214.946H114.322V215.854H115.229V214.946Z" fill="#870075"/>
<path d="M116.137 214.025H115.229V214.932H116.137V214.025Z" fill="#FF96FF"/>
<path d="M116.137 214.946H115.229V215.854H116.137V214.946Z" fill="#FF00FF"/>
<path d="M118.888 205.785V204.878H117.073V203.971H112.493V204.878H110.664V205.785H109.756V207.629H110.664V209.444H111.571V210.366H112.493V211.288H113.415V212.195H114.322V213.102H115.229V212.195H116.151V211.288H117.073V210.366H117.981V209.444H118.888V207.629H119.81V205.785H118.888Z" fill="#870075"/>
<path d="M117.073 205.785V204.878H112.493V205.785H110.663V207.629H111.571V209.444H112.493V210.366H113.415V211.288H114.322V212.195H115.229V211.288H116.151V210.366H117.073V209.444H117.981V207.629H118.888V205.785H117.073Z" fill="#FF00FF"/>
<path d="M115.229 210.366H116.137V211.273H115.229V210.366Z" fill="#9A298B"/>
<path d="M113.415 210.366H114.322V211.273H113.415V210.366ZM117.981 205.786H118.888V206.693H117.981V205.786ZM113.415 205.786V206.693H116.166V205.786H113.415ZM111.571 207.629H112.478V209.459H111.571V207.629Z" fill="#FF62FF"/>
<path d="M112.493 209.444H113.4V210.351H112.493V209.444ZM110.664 206.707H111.571V207.615H110.664V206.707Z" fill="#FF62FF"/>
<path d="M117.073 209.444H117.981V207.615H117.073V209.444Z" fill="#D700C1"/>
<path d="M116.151 209.444H117.059V210.351H116.151V209.444ZM117.981 206.707H118.888V207.615H117.981V206.707ZM116.151 205.786H117.059V206.693H116.151V205.786ZM112.493 205.786H113.4V206.693H112.493V205.786ZM114.322 207.629H112.493V209.459H113.4V210.366H114.307V207.629H115.215V206.722H114.307V207.629H114.322Z" fill="#D700C1"/>
<path d="M111.571 206.707H112.478V207.615H111.571V206.707Z" fill="#D700C1"/>
<path d="M113.415 204.878H116.166V205.785H113.415V204.878ZM114.322 210.366H115.229V207.615H114.322V210.366ZM110.663 205.785H112.493V206.693H110.663V205.785ZM115.229 206.707H116.137V207.615H115.229V206.707ZM112.493 206.707H114.322V207.615H112.493V206.707Z" fill="#FFC8FF"/>
<path d="M114.322 204.878H115.229V205.785H114.322V204.878ZM114.322 207.629H115.229V208.537H114.322V207.629Z" fill="white"/>
<path d="M113.415 206.707H114.322V207.615H113.415V206.707ZM111.571 205.785H112.478V206.693H111.571V205.785Z" fill="white"/>
<path d="M116.151 204.878H117.059V205.785H116.151V204.878Z" fill="#FF96FF"/>
<path d="M117.073 205.785H117.981V206.693H117.073V205.785ZM112.493 204.878H113.4V205.785H112.493V204.878ZM115.229 210.366H114.322V212.195H115.229V210.366Z" fill="#FF96FF"/>
<path d="M116.151 206.707V207.615H115.244V210.366H116.151V209.459H117.059V207.629H117.966V206.722H116.151V206.707Z" fill="#FF00FF"/>
<path d="M95.1219 212.195V208.536H93.278V206.707H91.4634V204.878H89.6195V203.049H87.8048V201.219H84.1463V199.39H73.1707V201.219H69.5122V203.049H67.6682V204.878H65.8536V206.707H64.0097V208.536H62.1951V212.195H60.3512V215.854H58.5365V217.683H56.6926V219.512H95.1219V217.683H93.278V215.854H91.4634V212.195H89.6195V210.366H87.8048V208.536H91.4634V210.366H93.278V212.195H95.1219Z" fill="#009600"/>
<path d="M89.6194 214.024V212.195H85.9609V210.366H84.1463V208.537H85.9609V206.707H89.6194V204.878H87.8048V203.049H84.1463V201.219H73.1707V203.049H69.5121V204.878H67.6682V206.707H65.8536V208.537H64.0097V212.195H62.1951V214.024H89.6194Z" fill="#51FFA8"/>
<path d="M91.4488 215.854H60.3512V217.683H91.4488V215.854Z" fill="#51FFA8"/>
<path d="M76.8292 215.854V217.683H78.6585V215.854H76.8292ZM65.8536 215.854V217.683H67.6829V215.854H65.8536ZM69.5121 215.854V217.683H71.3414V215.854H69.5121ZM84.1463 215.854V217.683H85.9756V215.854H84.1463ZM80.4878 215.854V217.683H82.317V215.854H80.4878ZM62.1951 215.854V217.683H64.0243V215.854H62.1951ZM87.8048 215.854V217.683H89.6341V215.854H87.8048ZM73.1707 215.854V217.683H74.9999V215.854H73.1707ZM84.1463 210.366V214.024H85.9756V210.366H84.1463ZM65.8536 206.707V214.024H67.6829V206.707H65.8536ZM84.1463 203.049V208.537H85.9756V203.049H84.1463ZM69.5121 203.049V214.024H71.3414V203.049H69.5121ZM76.8292 201.219V214.024H78.6585V201.219H76.8292ZM80.4878 201.219V214.024H82.317V201.219H80.4878ZM73.1707 201.219V214.024H74.9999V201.219H73.1707ZM62.1951 212.195V214.024H64.0243V212.195H62.1951ZM87.8048 212.195V214.024H89.6341V212.195H87.8048ZM87.8048 204.878V206.707H89.6341V204.878H87.8048Z" fill="#E1FFF1"/>
<path d="M80.4878 204.878V203.971H79.5659V203.049H78.6439V202.127H74.9854V203.049H74.078V203.971H73.1707V204.878H72.2488V210.366H73.1707V211.288H74.078V212.195H74.9854V213.102H78.6439V212.195H79.5659V211.288H80.4878V210.366H81.3951V204.878H80.4878Z" fill="#009600"/>
<path d="M78.6439 214.024H74.9854V215.854H78.6439V214.024Z" fill="#009600"/>
<path d="M79.5658 204.878V203.971H78.6438V203.049H74.9853V203.971H74.078V204.878H73.1707V210.366H74.078V211.288H74.9853V212.195H78.6438V211.288H79.5658V210.366H80.4877V204.878H79.5658Z" fill="white"/>
<path d="M75.9072 208.537H76.8145V209.444H75.9072V208.537ZM74.9853 205.785H75.8926V204.878H76.7999V203.971H74.9706V204.878H74.0633V206.707H73.156V208.537H74.0633V207.629H74.9706V205.785H74.9853ZM74.9853 211.288V212.195H78.6438V211.288H74.9853Z" fill="white"/>
<path d="M78.6439 210.366H79.5512V211.273H78.6439V210.366Z" fill="white"/>
<path d="M79.5658 210.366H80.4732V208.537H79.5658V210.366ZM79.5658 204.878V206.707H80.4732V204.878H79.5658ZM77.7366 203.971H78.6439V204.878H77.7366V203.971Z" fill="white"/>
<path d="M74.0778 207.629V208.537H75.9071V207.629H74.0778ZM73.1705 209.444V210.351H74.9998V209.444H73.1705ZM75.9071 210.366H76.8144V211.273H75.9071V210.366ZM78.6437 208.537H79.551V209.444H78.6437V208.537Z" fill="#51FFA8"/>
<path d="M75.9071 206.707H76.8145V207.615H75.9071V206.707ZM74.0779 203.971H74.9852V204.878H74.0779V203.971Z" fill="#51FFA8"/>
<path d="M73.1707 203.971H74.078V204.878H73.1707V203.971ZM72.2488 205.785H73.1561V206.693H72.2488V205.785ZM74.078 211.288H74.9854V212.195H74.078V211.288ZM80.4878 204.878V206.707H81.3951V204.878H80.4878ZM75.9073 202.127V203.034H78.6585V202.127H75.9073ZM72.2488 207.629H73.1561V208.537H72.2488V207.629ZM80.4878 207.629H81.3951V208.537H80.4878V207.629ZM75.9073 212.195V213.102H78.6585V212.195H75.9073Z" fill="#1E661E"/>
<path d="M78.6438 207.629H79.5511V208.537H78.6438V207.629ZM75.9072 204.878H76.8145V205.785H75.9072V204.878Z" fill="#FFC4E1"/>
<path d="M76.8292 205.785H77.7365V206.693H76.8292V205.785Z" fill="#FFC4E1"/>
<path d="M76.8293 206.707V207.615H79.5805V206.707H76.8293ZM75.9073 209.444V210.351H77.7366V209.444H75.9073Z" fill="#00FF00"/>
<path d="M74.0781 210.366V211.273H75.9074V210.366H74.0781ZM76.8294 214.024H77.7367V214.932H76.8294V214.024Z" fill="#00FF00"/>
<path d="M72.2488 204.878H73.1561V205.785H72.2488V204.878ZM72.2488 208.537H73.1561V209.444H72.2488V208.537ZM80.4878 208.537H81.3951V209.444H80.4878V208.537ZM78.6439 211.288H79.5512V212.195H78.6439V211.288ZM80.4878 206.707H81.3951V207.615H80.4878V206.707ZM74.9854 202.127H75.8927V203.034H74.9854V202.127Z" fill="#33297C"/>
<path d="M74.078 203.049H74.9853V203.956H74.078V203.049ZM77.7365 214.946H78.6438V215.854H77.7365V214.946Z" fill="#33297C"/>
<path d="M72.2488 209.444H73.1561V210.351H72.2488V209.444ZM78.6439 203.049H79.5512V203.956H78.6439V203.049Z" fill="#815382"/>
<path d="M79.5658 203.971H80.4731V204.878H79.5658V203.971ZM80.4878 209.444H81.3951V210.351H80.4878V209.444Z" fill="#815382"/>
<path d="M79.5659 210.366H80.4732V211.273H79.5659V210.366ZM73.1707 210.366H74.078V211.273H73.1707V210.366ZM74.9854 212.195H75.8927V213.102H74.9854V212.195ZM72.2488 206.707H73.1561V207.615H72.2488V206.707ZM76.8293 214.946H77.7366V215.854H76.8293V214.946Z" fill="#815382"/>
<path d="M74.9853 203.049H75.8926V203.956H74.9853V203.049ZM73.1707 204.878H74.078V205.785H73.1707V204.878ZM77.7365 209.444H78.6438V210.351H77.7365V209.444ZM76.8292 207.629H77.7365V208.537H76.8292V207.629ZM78.6438 203.971V205.8H79.5511V203.971H78.6438Z" fill="#54ACFF"/>
<path d="M77.7365 205.785H78.6438V206.693H77.7365V205.785ZM74.9852 206.707H75.8926V207.615H74.9852V206.707ZM74.9852 214.024H75.8926V214.932H74.9852V214.024Z" fill="#54ACFF"/>
<path d="M75.9073 205.785H76.8147V206.693H75.9073V205.785Z" fill="#FF93C9"/>
<path d="M76.8293 204.878H77.7366V205.785H76.8293V204.878ZM77.7366 214.024H78.6439V214.932H77.7366V214.024ZM74.9854 214.946H75.8927V215.854H74.9854V214.946Z" fill="#FF93C9"/>
<path d="M73.1707 205.785H74.078V206.693H73.1707V205.785ZM79.5658 206.707V208.537H80.4731V206.707H79.5658ZM78.6438 207.629H77.7365V208.537H76.8292V209.444H78.6585V207.629H78.6438Z" fill="#BAFFFF"/>
<path d="M78.6438 209.444H79.5511V210.351H78.6438V209.444Z" fill="#BAFFFF"/>
<path d="M76.8291 210.366V211.273H78.6584V210.366H76.8291ZM74.9852 209.444H75.8926V210.351H74.9852V209.444Z" fill="#BAFFFF"/>
<path d="M73.1707 208.536V209.444H74.9999V208.536H73.1707ZM78.6438 205.785H79.5511V206.693H78.6438V205.785ZM74.9853 205.785H75.8926V206.693H74.9853V205.785ZM78.6438 203.971V203.063H75.8926V203.971H78.6438ZM75.9072 214.024H76.8145V214.932H75.9072V214.024Z" fill="#BAFFFF"/>
<path d="M74.9854 208.537H75.8927V209.444H74.9854V208.537Z" fill="#2B59FF"/>
<path d="M75.9073 207.629H76.8147V208.537H75.9073V207.629ZM76.8293 203.971H77.7366V204.878H76.8293V203.971Z" fill="#2B59FF"/>
<path d="M77.7366 204.878H78.6439V205.785H77.7366V204.878ZM75.9073 214.946H76.8147V215.854H75.9073V214.946Z" fill="#2B59FF"/>
<path d="M10.9756 292.683H14.6342V204.878H21.9513V201.22H14.6342V179.268H10.9756V201.22H3.65857V204.878H10.9756V292.683Z" fill="#935628"/>
<path d="M3.65854 179.268H0V201.22H3.65854V179.268ZM21.9512 179.268V201.22H25.6098V179.268H21.9512Z" fill="#935628"/>
<path d="M276.205 190.244V186.585H272.546V182.927H268.888V175.61H265.229V171.951H261.571V175.61H257.912V182.927H254.254V186.585H250.595V190.244H246.937V193.903H250.595V197.561H254.254V201.22H257.912V208.537H261.571V292.683H265.229V208.537H268.888V201.22H272.546V197.561H276.205V193.903H279.863V190.244H276.205Z" fill="#47289B"/>
<path d="M257.912 197.561H268.888V201.22H257.912V197.561Z" fill="#CB5BFF"/>
<path d="M265.229 186.585H272.546V190.244H265.229V186.585Z" fill="#6F16E2"/>
<path d="M265.229 193.902H268.888V197.561H265.229V193.902ZM265.229 175.61H268.888V182.927H265.229V175.61Z" fill="#3A2B77"/>
<path d="M268.888 182.927H272.546V186.585H268.888V182.927ZM276.205 190.244H279.863V193.902H276.205V190.244Z" fill="#3A2B77"/>
<path d="M272.546 186.585H276.205V190.244H272.546V186.585ZM272.546 193.903H276.205V197.561H272.546V193.903ZM250.595 186.585H254.254V190.244H250.595V186.585ZM250.595 193.903H254.254V197.561H250.595V193.903ZM257.912 208.537H261.571V201.22H257.912V208.537Z" fill="#3A2B77"/>
<path d="M254.254 197.561H257.912V201.22H254.254V197.561Z" fill="#3A2B77"/>
<path d="M261.571 190.244H272.546V193.902H261.571V190.244Z" fill="#F37AFF"/>
<path d="M265.229 182.927H268.888V190.244H265.229V182.927Z" fill="#5D24BF"/>
<path d="M257.912 193.902H265.229V197.561H257.912V193.902ZM265.229 182.927H268.888V186.585H265.229V182.927Z" fill="#8000FF"/>
<path d="M261.571 197.561H265.229V208.537H261.571V197.561Z" fill="#8000FF"/>
<path d="M261.571 190.244H265.229V197.561H261.571V190.244Z" fill="#B135FF"/>
<path d="M265.229 197.561H268.888V201.22H265.229V197.561Z" fill="#B135FF"/>
<path d="M268.888 190.244H272.546V197.561H268.888V190.244Z" fill="#B135FF"/>
<path d="M257.912 182.927V186.585H254.254V193.902H265.229V182.927H257.912Z" fill="#FFA3FF"/>
<path d="M257.912 186.585H261.571V193.903H257.912V186.585Z" fill="#FFC9FF"/>
<path d="M254.254 192.073H257.912V197.561H254.254V192.073ZM268.888 190.244V193.902H276.205V190.244H268.888Z" fill="#CB5BFF"/>
<path d="M265.229 175.61H261.571V193.902H265.229V175.61Z" fill="white"/>
<path d="M265.229 190.244H250.595V193.902H265.229V190.244Z" fill="#FFC9FF"/>
<path d="M261.571 190.244H257.912V193.902H261.571V190.244Z" fill="white"/>
</svg>
