<svg width="790" height="336" viewBox="0 0 790 336" fill="none" xmlns="http://www.w3.org/2000/svg">
<path d="M717.55 311.09H645.76V335.02H717.55V311.09Z" fill="#FFED00"/>
<path d="M765.55 287.16H597.76V311.09H765.55V287.16Z" fill="#FFED00"/>
<path d="M765.55 119.65H597.76V143.58H765.55V119.65Z" fill="#FF0000"/>
<path d="M765.55 95.72H597.76V119.65H765.55V95.72Z" fill="#FF0000"/>
<path d="M789.48 263.23H573.83V287.16H789.48V263.23Z" fill="#FFED00"/>
<path d="M789.48 239.3H573.83V263.23H789.48V239.3Z" fill="#FFC400"/>
<path d="M789.48 215.37H573.83V239.3H789.48V215.37Z" fill="#FF8300"/>
<path d="M789.48 191.44H573.83V215.37H789.48V191.44Z" fill="#FF6D00"/>
<path d="M789.48 167.51H573.83V191.44H789.48V167.51Z" fill="#FF4800"/>
<path d="M789.48 143.58H573.83V167.51H789.48V143.58Z" fill="#FF0000"/>
<path d="M645.76 71.79H621.83V95.7201H645.76V71.79Z" fill="#FF0000"/>
<path d="M669.69 71.79H645.76V95.7201H669.69V71.79Z" fill="#FF0000"/>
<path d="M669.69 47.86H645.76V71.79H669.69V47.86Z" fill="#FF0000"/>
<path d="M717.55 71.79H693.62V95.7201H717.55V71.79Z" fill="#FF0000"/>
<path d="M741.48 71.79H717.55V95.7201H741.48V71.79Z" fill="#FF0000"/>
<path d="M741.48 47.86H717.55V71.79H741.48V47.86Z" fill="#FF0000"/>
<path d="M741.48 23.9301H717.55V47.86H741.48V23.9301Z" fill="#FF0000"/>
<path d="M693.62 0H669.69V23.93H693.62V0Z" fill="#FF0000"/>
<path d="M637.1 140.61H628.95V156.91H637.1V140.61Z" fill="#0D1316"/>
<path d="M628.95 148.75H620.8V156.9H628.95V148.75Z" fill="#0D1316"/>
<path d="M645.25 140.61H637.1V148.76H645.25V140.61Z" fill="#0D1316"/>
<path d="M653.4 140.61H645.25V148.76H653.4V140.61Z" fill="#0D1316"/>
<path d="M628.95 156.9H620.8V165.05H628.95V156.9Z" fill="#0D1316"/>
<path d="M637.1 156.9H628.95V165.05H637.1V156.9Z" fill="#0D1316"/>
<path d="M628.95 165.05H620.8V173.2H628.95V165.05Z" fill="#0D1316"/>
<path d="M637.1 165.05H628.95V173.2H637.1V165.05Z" fill="#0D1316"/>
<path d="M628.95 173.2H620.8V181.35H628.95V173.2Z" fill="#0D1316"/>
<path d="M637.1 173.2H628.95V181.35H637.1V173.2Z" fill="#0D1316"/>
<path d="M628.95 181.35H620.8V189.5H628.95V181.35Z" fill="#0D1316"/>
<path d="M637.1 181.35H628.95V189.5H637.1V181.35Z" fill="#0D1316"/>
<path d="M628.95 189.5H620.8V197.65H628.95V189.5Z" fill="#0D1316"/>
<path d="M637.1 189.5H628.95V197.65H637.1V189.5Z" fill="#0D1316"/>
<path d="M628.95 197.65H620.8V205.8H628.95V197.65Z" fill="#0D1316"/>
<path d="M637.1 197.65H628.95V205.8H637.1V197.65Z" fill="#0D1316"/>
<path d="M628.95 205.79H620.8V213.94H628.95V205.79Z" fill="#0D1316"/>
<path d="M637.1 205.79H628.95V213.94H637.1V205.79Z" fill="#0D1316"/>
<path d="M628.95 213.94H620.8V222.09H628.95V213.94Z" fill="#0D1316"/>
<path d="M637.1 213.94H628.95V222.09H637.1V213.94Z" fill="#0D1316"/>
<path d="M628.95 222.09H620.8V230.24H628.95V222.09Z" fill="#0D1316"/>
<path d="M637.1 222.09H628.95V230.24H637.1V222.09Z" fill="#0D1316"/>
<path d="M628.95 230.24H620.8V238.39H628.95V230.24Z" fill="#0D1316"/>
<path d="M637.1 230.24H628.95V238.39H637.1V230.24Z" fill="#0D1316"/>
<path d="M628.95 238.39H620.8V246.54H628.95V238.39Z" fill="#0D1316"/>
<path d="M637.1 238.39H628.95V246.54H637.1V238.39Z" fill="#0D1316"/>
<path d="M628.95 246.54H620.8V254.69H628.95V246.54Z" fill="#0D1316"/>
<path d="M637.1 246.54H628.95V254.69H637.1V246.54Z" fill="#0D1316"/>
<path d="M628.95 254.69H620.8V262.84H628.95V254.69Z" fill="#0D1316"/>
<path d="M620.8 156.9H612.65V165.05H620.8V156.9Z" fill="#0D1316"/>
<path d="M620.8 165.05H612.65V173.2H620.8V165.05Z" fill="#0D1316"/>
<path d="M620.8 173.2H612.65V181.35H620.8V173.2Z" fill="#0D1316"/>
<path d="M620.8 181.35H612.65V189.5H620.8V181.35Z" fill="#0D1316"/>
<path d="M620.8 189.5H612.65V197.65H620.8V189.5Z" fill="#0D1316"/>
<path d="M620.8 197.65H612.65V205.8H620.8V197.65Z" fill="#0D1316"/>
<path d="M620.8 205.79H612.65V213.94H620.8V205.79Z" fill="#0D1316"/>
<path d="M620.8 213.94H612.65V222.09H620.8V213.94Z" fill="#0D1316"/>
<path d="M620.8 222.09H612.65V230.24H620.8V222.09Z" fill="#0D1316"/>
<path d="M620.8 230.24H612.65V238.39H620.8V230.24Z" fill="#0D1316"/>
<path d="M620.8 238.39H612.65V246.54H620.8V238.39Z" fill="#0D1316"/>
<path d="M620.8 246.54H612.65V254.69H620.8V246.54Z" fill="#0D1316"/>
<path d="M620.8 254.69H612.65V262.84H620.8V254.69Z" fill="#0D1316"/>
<path d="M637.1 254.69H628.95V279.14H637.1V254.69Z" fill="#0D1316"/>
<path d="M637.1 262.83H628.95V270.98H637.1V262.83Z" fill="#0D1316"/>
<path d="M628.95 262.83H620.8V270.98H628.95V262.83Z" fill="#0D1316"/>
<path d="M653.396 156.899L661.547 156.899L661.547 140.599L653.396 140.599L653.396 156.899Z" fill="#0D1316"/>
<path d="M661.543 156.907L669.693 156.907L669.693 148.757L661.543 148.757L661.543 156.907Z" fill="#0D1316"/>
<path d="M661.543 165.055L669.693 165.055L669.693 156.905L661.543 156.905L661.543 165.055Z" fill="#0D1316"/>
<path d="M653.396 165.055L661.546 165.055L661.546 156.905L653.396 156.905L653.396 165.055Z" fill="#0D1316"/>
<path d="M661.543 173.202L669.693 173.202L669.693 165.052L661.543 165.052L661.543 173.202Z" fill="#0D1316"/>
<path d="M653.396 173.202L661.546 173.202L661.546 165.052L653.396 165.052L653.396 173.202Z" fill="#0D1316"/>
<path d="M661.543 181.349L669.693 181.349L669.693 173.199L661.543 173.199L661.543 181.349Z" fill="#0D1316"/>
<path d="M653.396 181.349L661.546 181.349L661.546 173.199L653.396 173.199L653.396 181.349Z" fill="#0D1316"/>
<path d="M653.396 189.496L661.546 189.496L661.546 181.346L653.396 181.346L653.396 189.496Z" fill="#0D1316"/>
<path d="M661.543 205.79L669.693 205.79L669.693 197.64L661.543 197.64L661.543 205.79Z" fill="#0D1316"/>
<path d="M661.544 222.094L669.694 222.094L669.694 205.794L661.544 205.794L661.544 222.094Z" fill="#0D1316"/>
<path d="M653.396 213.947L661.546 213.947L661.546 205.797L653.396 205.797L653.396 213.947Z" fill="#0D1316"/>
<path d="M645.238 222.094L653.388 222.094L653.388 213.944L645.238 213.944L645.238 222.094Z" fill="#0D1316"/>
<path d="M661.543 230.241L669.693 230.241L669.693 222.091L661.543 222.091L661.543 230.241Z" fill="#0D1316"/>
<path d="M653.396 230.242L661.547 230.242L661.547 213.942L653.396 213.942L653.396 230.242Z" fill="#0D1316"/>
<path d="M661.543 238.388L669.693 238.388L669.693 230.238L661.543 230.238L661.543 238.388Z" fill="#0D1316"/>
<path d="M653.396 238.388L661.546 238.388L661.546 230.238L653.396 230.238L653.396 238.388Z" fill="#0D1316"/>
<path d="M661.543 246.535L669.693 246.535L669.693 238.385L661.543 238.385L661.543 246.535Z" fill="#0D1316"/>
<path d="M653.396 246.535L661.546 246.535L661.546 238.385L653.396 238.385L653.396 246.535Z" fill="#0D1316"/>
<path d="M661.543 254.682L669.693 254.682L669.693 246.532L661.543 246.532L661.543 254.682Z" fill="#0D1316"/>
<path d="M653.396 254.682L661.546 254.682L661.546 246.532L653.396 246.532L653.396 254.682Z" fill="#0D1316"/>
<path d="M661.543 262.829L669.693 262.829L669.693 254.679L661.543 254.679L661.543 262.829Z" fill="#0D1316"/>
<path d="M669.689 165.055L677.839 165.055L677.839 156.905L669.689 156.905L669.689 165.055Z" fill="#0D1316"/>
<path d="M669.689 173.202L677.839 173.202L677.839 165.052L669.689 165.052L669.689 173.202Z" fill="#0D1316"/>
<path d="M669.689 205.79L677.839 205.79L677.839 197.64L669.689 197.64L669.689 205.79Z" fill="#0D1316"/>
<path d="M669.689 197.643L677.839 197.643L677.839 189.493L669.689 189.493L669.689 197.643Z" fill="#0D1316"/>
<path d="M669.69 222.094L677.84 222.094L677.84 205.794L669.69 205.794L669.69 222.094Z" fill="#0D1316"/>
<path d="M669.689 230.241L677.839 230.241L677.839 222.091L669.689 222.091L669.689 230.241Z" fill="#0D1316"/>
<path d="M669.689 238.388L677.839 238.388L677.839 230.238L669.689 230.238L669.689 238.388Z" fill="#0D1316"/>
<path d="M669.689 246.535L677.839 246.535L677.839 238.385L669.689 238.385L669.689 246.535Z" fill="#0D1316"/>
<path d="M669.689 254.682L677.839 254.682L677.839 246.532L669.689 246.532L669.689 254.682Z" fill="#0D1316"/>
<path d="M669.689 262.829L677.839 262.829L677.839 254.679L669.689 254.679L669.689 262.829Z" fill="#0D1316"/>
<path d="M677.831 279.133L685.981 279.133L685.981 270.983L677.831 270.983L677.831 279.133Z" fill="#0D1316"/>
<path d="M677.831 287.28L685.981 287.28L685.981 279.13L677.831 279.13L677.831 287.28Z" fill="#0D1316"/>
<path d="M677.831 295.427L685.981 295.427L685.981 287.277L677.831 287.277L677.831 295.427Z" fill="#0D1316"/>
<path d="M677.831 303.574L685.981 303.574L685.981 295.424L677.831 295.424L677.831 303.574Z" fill="#0D1316"/>
<path d="M669.684 287.28L677.834 287.28L677.834 279.13L669.684 279.13L669.684 287.28Z" fill="#0D1316"/>
<path d="M669.684 295.427L677.834 295.427L677.834 287.277L669.684 287.277L669.684 295.427Z" fill="#0D1316"/>
<path d="M661.537 295.427L669.687 295.427L669.687 287.277L661.537 287.277L661.537 295.427Z" fill="#0D1316"/>
<path d="M669.684 303.574L677.834 303.574L677.834 295.424L669.684 295.424L669.684 303.574Z" fill="#0D1316"/>
<path d="M685.983 287.28L694.133 287.28L694.133 279.13L685.983 279.13L685.983 287.28Z" fill="#0D1316"/>
<path d="M685.983 295.427L694.133 295.427L694.133 287.277L685.983 287.277L685.983 295.427Z" fill="#0D1316"/>
<path d="M694.13 295.427L702.28 295.427L702.28 287.277L694.13 287.277L694.13 295.427Z" fill="#0D1316"/>
<path d="M685.983 303.574L694.133 303.574L694.133 295.424L685.983 295.424L685.983 303.574Z" fill="#0D1316"/>
<path d="M677.831 311.721L685.981 311.721L685.981 303.571L677.831 303.571L677.831 311.721Z" fill="#0D1316"/>
<path d="M653.396 262.829L661.546 262.829L661.546 254.679L653.396 254.679L653.396 262.829Z" fill="#0D1316"/>
<path d="M653.396 279.135L661.546 279.135L661.546 262.835L653.396 262.835L653.396 279.135Z" fill="#0D1316"/>
<path d="M661.544 270.986L669.694 270.986L669.694 262.836L661.544 262.836L661.544 270.986Z" fill="#0D1316"/>
<path d="M710.43 140.61H702.28V156.91H710.43V140.61Z" fill="#0D1316"/>
<path d="M718.58 140.61H710.43V148.76H718.58V140.61Z" fill="#0D1316"/>
<path d="M726.73 140.61H718.58V148.76H726.73V140.61Z" fill="#0D1316"/>
<path d="M702.29 148.75H694.14V165.05H702.29V148.75Z" fill="#0D1316"/>
<path d="M710.43 156.9H702.28V165.05H710.43V156.9Z" fill="#0D1316"/>
<path d="M702.29 165.05H694.14V173.2H702.29V165.05Z" fill="#0D1316"/>
<path d="M710.43 165.05H702.28V173.2H710.43V165.05Z" fill="#0D1316"/>
<path d="M702.29 173.2H694.14V181.35H702.29V173.2Z" fill="#0D1316"/>
<path d="M710.43 173.2H702.28V181.35H710.43V173.2Z" fill="#0D1316"/>
<path d="M702.29 181.35H694.14V189.5H702.29V181.35Z" fill="#0D1316"/>
<path d="M710.43 181.35H702.28V189.5H710.43V181.35Z" fill="#0D1316"/>
<path d="M702.29 189.5H694.14V197.65H702.29V189.5Z" fill="#0D1316"/>
<path d="M710.43 189.5H702.28V197.65H710.43V189.5Z" fill="#0D1316"/>
<path d="M702.29 197.65H694.14V205.8H702.29V197.65Z" fill="#0D1316"/>
<path d="M710.43 197.65H702.28V205.8H710.43V197.65Z" fill="#0D1316"/>
<path d="M702.29 205.79H694.14V213.94H702.29V205.79Z" fill="#0D1316"/>
<path d="M710.43 205.79H702.28V213.94H710.43V205.79Z" fill="#0D1316"/>
<path d="M702.29 213.94H694.14V222.09H702.29V213.94Z" fill="#0D1316"/>
<path d="M710.43 213.94H702.28V222.09H710.43V213.94Z" fill="#0D1316"/>
<path d="M702.29 222.09H694.14V230.24H702.29V222.09Z" fill="#0D1316"/>
<path d="M710.43 222.09H702.28V230.24H710.43V222.09Z" fill="#0D1316"/>
<path d="M702.29 230.24H694.14V238.39H702.29V230.24Z" fill="#0D1316"/>
<path d="M710.43 230.24H702.28V238.39H710.43V230.24Z" fill="#0D1316"/>
<path d="M702.29 238.39H694.14V246.54H702.29V238.39Z" fill="#0D1316"/>
<path d="M710.43 238.39H702.28V246.54H710.43V238.39Z" fill="#0D1316"/>
<path d="M702.29 246.54H694.14V254.69H702.29V246.54Z" fill="#0D1316"/>
<path d="M694.14 156.9H685.99V173.2H694.14V156.9Z" fill="#0D1316"/>
<path d="M694.14 173.2H685.99V181.35H694.14V173.2Z" fill="#0D1316"/>
<path d="M694.14 181.35H685.99V189.5H694.14V181.35Z" fill="#0D1316"/>
<path d="M694.14 189.5H685.99V197.65H694.14V189.5Z" fill="#0D1316"/>
<path d="M694.14 197.65H685.99V205.8H694.14V197.65Z" fill="#0D1316"/>
<path d="M694.14 205.79H685.99V213.94H694.14V205.79Z" fill="#0D1316"/>
<path d="M694.14 213.94H685.99V222.09H694.14V213.94Z" fill="#0D1316"/>
<path d="M694.14 222.09H685.99V230.24H694.14V222.09Z" fill="#0D1316"/>
<path d="M694.14 230.24H685.99V238.39H694.14V230.24Z" fill="#0D1316"/>
<path d="M694.14 238.39H685.99V246.54H694.14V238.39Z" fill="#0D1316"/>
<path d="M694.14 246.54H685.99V262.84H694.14V246.54Z" fill="#0D1316"/>
<path d="M710.43 246.54H702.28V254.69H710.43V246.54Z" fill="#0D1316"/>
<path d="M702.29 254.69H694.14V270.99H702.29V254.69Z" fill="#0D1316"/>
<path d="M710.43 254.69H702.28V262.84H710.43V254.69Z" fill="#0D1316"/>
<path d="M710.43 262.83H702.28V279.13H710.43V262.83Z" fill="#0D1316"/>
<path d="M726.729 156.899L734.879 156.899L734.879 140.599L726.729 140.599L726.729 156.899Z" fill="#0D1316"/>
<path d="M734.875 165.056L743.025 165.056L743.025 148.756L734.875 148.756L734.875 165.056Z" fill="#0D1316"/>
<path d="M726.728 165.055L734.878 165.055L734.878 156.905L726.728 156.905L726.728 165.055Z" fill="#0D1316"/>
<path d="M734.875 173.202L743.025 173.202L743.025 165.052L734.875 165.052L734.875 173.202Z" fill="#0D1316"/>
<path d="M726.728 173.202L734.878 173.202L734.878 165.052L726.728 165.052L726.728 173.202Z" fill="#0D1316"/>
<path d="M734.875 181.349L743.025 181.349L743.025 173.199L734.875 173.199L734.875 181.349Z" fill="#0D1316"/>
<path d="M726.728 181.349L734.878 181.349L734.878 173.199L726.728 173.199L726.728 181.349Z" fill="#0D1316"/>
<path d="M726.728 189.496L734.878 189.496L734.878 181.346L726.728 181.346L726.728 189.496Z" fill="#0D1316"/>
<path d="M734.875 205.79L743.025 205.79L743.025 197.64L734.875 197.64L734.875 205.79Z" fill="#0D1316"/>
<path d="M734.876 222.094L743.026 222.094L743.026 205.794L734.876 205.794L734.876 222.094Z" fill="#0D1316"/>
<path d="M726.728 213.947L734.878 213.947L734.878 205.797L726.728 205.797L726.728 213.947Z" fill="#0D1316"/>
<path d="M718.581 222.094L726.731 222.094L726.731 213.944L718.581 213.944L718.581 222.094Z" fill="#0D1316"/>
<path d="M734.875 230.241L743.025 230.241L743.025 222.091L734.875 222.091L734.875 230.241Z" fill="#0D1316"/>
<path d="M726.729 230.242L734.879 230.242L734.879 213.942L726.729 213.942L726.729 230.242Z" fill="#0D1316"/>
<path d="M734.875 238.388L743.025 238.388L743.025 230.238L734.875 230.238L734.875 238.388Z" fill="#0D1316"/>
<path d="M726.728 238.388L734.878 238.388L734.878 230.238L726.728 230.238L726.728 238.388Z" fill="#0D1316"/>
<path d="M734.875 246.535L743.025 246.535L743.025 238.385L734.875 238.385L734.875 246.535Z" fill="#0D1316"/>
<path d="M726.728 246.535L734.878 246.535L734.878 238.385L726.728 238.385L726.728 246.535Z" fill="#0D1316"/>
<path d="M734.875 254.682L743.025 254.682L743.025 246.532L734.875 246.532L734.875 254.682Z" fill="#0D1316"/>
<path d="M726.728 254.682L734.878 254.682L734.878 246.532L726.728 246.532L726.728 254.682Z" fill="#0D1316"/>
<path d="M734.875 262.829L743.025 262.829L743.025 254.679L734.875 254.679L734.875 262.829Z" fill="#0D1316"/>
<path d="M743.023 165.055L751.173 165.055L751.173 156.905L743.023 156.905L743.023 165.055Z" fill="#0D1316"/>
<path d="M743.023 173.202L751.173 173.202L751.173 165.052L743.023 165.052L743.023 173.202Z" fill="#0D1316"/>
<path d="M743.023 205.791L751.173 205.791L751.173 189.491L743.023 189.491L743.023 205.791Z" fill="#0D1316"/>
<path d="M743.024 222.094L751.174 222.094L751.174 205.794L743.024 205.794L743.024 222.094Z" fill="#0D1316"/>
<path d="M743.023 230.241L751.173 230.241L751.173 222.091L743.023 222.091L743.023 230.241Z" fill="#0D1316"/>
<path d="M743.023 238.388L751.173 238.388L751.173 230.238L743.023 230.238L743.023 238.388Z" fill="#0D1316"/>
<path d="M743.023 246.535L751.173 246.535L751.173 238.385L743.023 238.385L743.023 246.535Z" fill="#0D1316"/>
<path d="M743.023 254.682L751.173 254.682L751.173 246.532L743.023 246.532L743.023 254.682Z" fill="#0D1316"/>
<path d="M743.023 262.829L751.173 262.829L751.173 254.679L743.023 254.679L743.023 262.829Z" fill="#0D1316"/>
<path d="M726.728 279.126L734.878 279.126L734.878 254.676L726.728 254.676L726.728 279.126Z" fill="#0D1316"/>
<path d="M726.727 270.986L743.027 270.986L743.027 262.836L726.727 262.836L726.727 270.986Z" fill="#0D1316"/>
<path d="M10.18 200.48C6.39999 200.48 3.39 200.48 0 200.48C0 194.04 0 187.82 0 181C3.13 181 6.33998 181 10.04 181C10.04 168.57 10.04 156.73 10.04 144.67C23.59 144.67 36.64 144.67 50.08 144.67C50.08 151.02 50.08 157.35 50.08 164.05C46.34 164.05 42.79 164.05 38.98 164.05C38.98 169.65 38.98 174.9 38.98 180.68C54.82 180.68 70.7 180.68 87.22 180.68C87.22 217.84 87.22 254.48 87.22 291.55C90.95 291.55 83.8 291.55 87.22 291.55C87.22 298.08 87.22 304.19 87.22 310.7C74.52 310.7 71.95 310.7 58.69 310.7C58.69 274.06 58.69 237.51 58.69 200.71C51.99 200.71 45.71 200.71 38.95 200.71C38.95 248.96 38.95 262.03 38.95 310.7C29.22 310.7 19.96 310.7 10.19 310.7C10.18 262.44 10.18 249.37 10.18 200.48Z" fill="#5D5F63"/>
<path d="M285.94 310.72C285.94 261.81 285.94 213.19 285.94 164.14C282.43 164.14 289.35 164.14 285.94 164.14C285.94 157.49 285.94 151.26 285.94 144.74C298.79 144.74 301.5 144.74 314.74 144.74C314.74 156.6 314.74 168.44 314.74 180.8C330.12 180.8 345 180.8 360.19 180.8C360.19 224.33 360.19 267.34 360.19 310.72C335.67 310.72 311.16 310.72 285.94 310.72ZM331.4 291.41C331.4 260.87 331.4 230.82 331.4 200.71C325.8 200.71 320.55 200.71 315.14 200.71C315.14 231.03 315.14 261.09 315.14 291.41C320.63 291.41 325.88 291.41 331.4 291.41Z" fill="#5D5F63"/>
<path d="M378.61 217.93C393.71 217.93 408.5 217.93 423.67 217.93C423.67 212.11 423.67 206.62 423.67 200.66C408.87 200.66 393.97 200.66 378.73 200.66C378.73 194 378.73 187.78 378.73 181.23C403.26 181.23 427.77 181.23 452.74 181.23C452.74 217.98 452.74 254.53 452.74 291.5C456.28 291.5 449.27 291.5 452.74 291.5C452.74 298.13 452.74 304.33 452.74 310.82C424.69 310.82 406.84 310.82 378.62 310.82C378.61 279.92 378.61 249.25 378.61 217.93ZM407.43 237.61C407.43 255.83 407.43 273.53 407.43 291.3C413.1 291.3 418.45 291.3 423.79 291.3C423.79 273.22 423.79 255.51 423.79 237.61C418.24 237.61 412.97 237.61 407.43 237.61Z" fill="#5D5F63"/>
<path d="M267.16 310.85C242.62 310.85 218.19 310.85 193.4 310.85C193.4 267.7 193.4 224.56 193.4 181.17C217.95 181.17 242.38 181.17 267.15 181.17C267.15 212.19 267.15 243.12 267.15 274.51C252.26 274.51 237.36 274.51 222.11 274.51C222.11 280.32 222.11 285.68 222.11 291.5C237 291.5 251.92 291.5 267.16 291.5C267.16 298.17 267.16 304.38 267.16 310.85ZM238.54 254.79C238.54 236.63 238.54 218.76 238.54 200.73C232.9 200.73 227.52 200.73 221.98 200.73C221.98 218.88 221.98 236.75 221.98 254.79C227.59 254.79 232.97 254.79 238.54 254.79Z" fill="#5D5F63"/>
<path d="M107.12 200.47C103.37 200.47 110.49 200.47 107.12 200.47C107.12 194.01 107.12 187.8 107.12 181.24C133.78 181.24 150.35 181.24 177.34 181.24C177.34 204.45 177.34 227.6 177.34 251.02C169.22 251.02 161.25 251.02 152.84 251.02C152.84 234.19 152.84 217.6 152.84 200.74C147.14 200.74 141.89 200.74 136.27 200.74C136.27 230.78 136.27 260.84 136.27 291.48C141.44 291.48 130.77 291.48 136.27 291.48C136.27 298.16 136.27 304.26 136.27 310.73C121.4 310.73 122.43 310.73 107.12 310.73C107.12 274.11 107.12 237.56 107.12 200.47Z" fill="#5D5F63"/>
<path d="M498.07 291.66C501.98 291.66 494.72 291.66 498.07 291.66C498.07 298.18 498.07 304.29 498.07 310.75C485.32 310.75 482.96 310.75 469.74 310.75C469.74 262.09 469.74 213.35 469.74 164.08C466.05 164.08 473.15 164.08 469.74 164.08C469.74 157.42 469.74 151.29 469.74 144.8C482.47 144.8 484.86 144.8 498.07 144.8C498.07 193.47 498.07 242.21 498.07 291.66Z" fill="#5D5F63"/>
<path d="M511.56 164.08C507.84 164.08 514.95 164.08 511.56 164.08C511.56 157.47 511.56 151.25 511.56 144.74C524.38 144.74 526.87 144.74 540.08 144.74C540.08 193.62 540.08 242.36 540.08 291.52C543.66 291.52 536.64 291.52 540.08 291.52C540.08 298.15 540.08 304.36 540.08 310.84C527.23 310.84 524.63 310.84 511.56 310.84C511.56 262.05 511.56 213.42 511.56 164.08Z" fill="#5D5F63"/>
<path d="M58.95 144.7C68.3 144.7 77.45 144.7 86.97 144.7C86.97 151.35 86.97 158 86.97 164.97C77.76 164.97 68.49 164.97 58.95 164.97C58.95 158.25 58.95 151.59 58.95 144.7Z" fill="#5D5F63"/>
</svg>
