<svg width="80" height="65" viewBox="0 0 80 65" fill="none" xmlns="http://www.w3.org/2000/svg">
<path d="M75 15V10H70V5H65V0H55V5H50V10H30V5H25V0H15V5H10V10H5V15H0V30H5V60H10V65H25V60H30V45H35V40H45V45H50V60H55V65H70V60H75V30H80V15H75Z" fill="black"/>
<path d="M35 15H45V20H35V15ZM55 55H70V60H55V55ZM10 55H25V60H10V55Z" fill="#4B4B4B"/>
<path d="M70 15V10H65V5H55V10H50V20H45V25H35V20H30V10H25V5H15V10H10V15H5V30H10V50H25V45H30V40H25V30H35V35H45V30H55V40H50V45H55V50H70V30H75V15H70ZM65 25H60V20H65V25Z" fill="#969696"/>
<path d="M30 35H35V40H30V35ZM45 35H50V40H45V35ZM55 20H60V25H55V20ZM65 20H70V25H65V20Z" fill="#FF14FF"/>
<path d="M60 15H65V20H60V15ZM60 25H65V30H60V25ZM15 20H20V25H15V20Z" fill="#00FFE1"/>
<path d="M60 20H65V25H60V20ZM65 15H70V20H65V15ZM65 25H70V30H65V25ZM55 25H60V30H55V25ZM55 15H60V20H55V15ZM15 15H20V20H15V15ZM10 20H15V25H10V20ZM20 20H25V25H20V20ZM15 25H20V30H15V25Z" fill="black"/>
</svg>
