<svg width="96" height="45" viewBox="0 0 96 45" fill="none" xmlns="http://www.w3.org/2000/svg">
<path d="M10.4347 2.04255V16.3404H12.5216V0H10.4347V2.04255ZM83.4782 0V16.3404H85.5651V0H83.4782ZM62.6086 12.2553H58.4347V16.3404H66.7825V12.2553H64.6956H62.6086ZM33.3912 12.2553H29.2173V16.3404H37.5651V12.2553H35.4782H33.3912Z" fill="#C0642E"/>
<path d="M37.5652 32.6809H31.3043V38.8085H41.7391V32.6809H39.6521H37.5652ZM60.5217 32.6809H54.2608V38.8085H64.6956V32.6809H62.6087H60.5217ZM62.6087 20.4255H58.4348V24.5106H64.6956V20.4255H62.6087ZM35.4782 24.5106H37.5652V20.4255H31.3043V24.5106H33.3913H35.4782Z" fill="#8E9397"/>
<path d="M52.1739 20.4255H50.087V24.5106H45.913V20.4255H41.7391V32.6809H45.913V28.5957H50.087V32.6809H54.2609V20.4255H52.1739Z" fill="#5ABDCE"/>
<path d="M50.087 20.4256V16.3405H45.9131V20.4256H48H50.087Z" fill="#5ABDCE"/>
<path d="M50.087 32.6809V28.5958H45.913V32.6809H41.7391V40.8511H54.2609V32.6809H52.1739H50.087ZM81.3913 2.0426V4.08516H79.3044V6.12771H75.1304V8.17026H70.9565V10.2128H66.7826V16.3405H50.087V20.4256H54.2609V24.5107H58.4348V20.4256H64.6957V24.5107H83.4783V2.0426H81.3913Z" fill="black"/>
<path d="M45.9131 20.4255V24.5106H50.087V20.4255H48H45.9131Z" fill="black"/>
<path d="M45.9132 16.3405H29.2175V10.2128H25.0436V8.17026H20.8697V6.12771H16.6958V4.08516H14.6088V2.0426H12.5219V24.5107H31.3045V20.4256H37.5653V24.5107H41.7392V20.4256H45.9132V18.383V16.3405ZM41.7392 28.5958H12.5219V44.9362H20.8697V40.8511H31.3045V32.6809H41.7392V30.6383V28.5958ZM79.3045 28.5958H54.261V32.6809H64.6958V40.8511H75.1306V44.9362H83.4784V28.5958H81.3914H79.3045Z" fill="black"/>
<path d="M37.5653 38.8085H31.3045V44.9362H41.7392V38.8085H39.6523H37.5653ZM60.5219 38.8085H54.261V44.9362H64.6958V38.8085H62.6088H60.5219ZM81.3914 24.5106H54.261V28.5957H83.4784V24.5106H81.3914ZM37.5653 24.5106H12.5219V28.5957H41.7392V24.5106H39.6523H37.5653Z" fill="#FFC500"/>
<path d="M10.4347 34.7234V36.766H8.34778V42.8936H12.5217V30.6383H10.4347V32.6809V34.7234Z" fill="#C22B2A"/>
<path d="M10.4347 18.383H8.34778V26.5532H6.26083V34.7234H4.17387V36.766H2.08691V42.8936H6.26083V36.766H8.34778V30.6383H10.4347V28.5958H12.5217V16.3405H10.4347V18.383ZM20.8695 40.8511V42.8936H25.0434V40.8511H22.9565H20.8695ZM27.1304 40.8511V42.8936H31.3043V40.8511H29.2173H27.1304ZM64.6956 40.8511V42.8936H68.8695V40.8511H66.7826H64.6956ZM70.9565 40.8511V42.8936H75.1304V40.8511H73.0434H70.9565ZM41.7391 40.8511V42.8936H45.913V40.8511H43.826H41.7391ZM50.0869 40.8511V42.8936H54.2608V40.8511H52.1739H50.0869ZM85.5652 34.7234V30.6383H83.4782V42.8936H87.6521V36.766H85.5652V34.7234Z" fill="#C22B2A"/>
<path d="M91.826 36.766V34.7234H89.739V26.5532H87.6521V18.383H85.5651V16.3405H83.4781V28.5958H85.5651V30.6383H87.6521V36.766H89.739V42.8936H93.9129V36.766H91.826Z" fill="#C22B2A"/>
<path d="M10.4347 28.5957H12.5216V30.6383H10.4347V28.5957Z" fill="#7D0019"/>
<path d="M8.34778 32.6809V36.766H10.4347V30.6383H8.34778V32.6809ZM27.1304 42.8936V40.8511H25.0434V42.8936H20.8695V44.9362H31.3043V42.8936H29.2173H27.1304ZM70.9565 42.8936V40.8511H68.8695V42.8936H64.6956V44.9362H75.1304V42.8936H73.0434H70.9565ZM50.0869 42.8936V40.8511H45.913V42.8936H41.7391V44.9362H54.2608V42.8936H52.1739H50.0869Z" fill="#7D0019"/>
<path d="M6.26087 38.8085V42.8936H2.08696V36.7659H4.17391V34.7234H0V44.9362H12.5217V42.8936H8.34783V36.7659H6.26087V38.8085Z" fill="#7D0019"/>
<path d="M6.26078 32.6808V26.5531H8.34774V18.3829H6.26078V24.5106H4.17383V34.7234H6.26078V32.6808ZM83.4782 28.5957H85.5651V30.6383H83.4782V28.5957Z" fill="#7D0019"/>
<path d="M87.6523 32.6808V30.6383H85.5653V36.7659H87.6523V34.7234V32.6808ZM91.8262 30.6383V24.5106H89.7392V18.3829H87.6523V26.5531H89.7392V34.7234H91.8262V32.6808V30.6383Z" fill="#7D0019"/>
<path d="M93.9129 34.7234H91.826V36.7659H93.9129V42.8936H89.739V36.7659H87.6521V42.8936H83.4781V44.9362H95.9999V34.7234H93.9129Z" fill="#7D0019"/>
</svg>
