<svg width="920" height="920" viewBox="0 0 920 920" fill="none" xmlns="http://www.w3.org/2000/svg">
<g clip-path="url(#clip0_1_116)">
<path d="M460 912.2C709.743 912.2 912.2 709.743 912.2 460C912.2 210.257 709.743 7.8 460 7.8C210.257 7.8 7.79999 210.257 7.79999 460C7.79999 709.743 210.257 912.2 460 912.2Z" fill="black"/>
<path d="M460 15.7C705.4 15.7 904.3 214.6 904.3 460C904.3 705.4 705.4 904.3 460 904.3C214.6 904.3 15.7 705.4 15.7 460C15.7 214.6 214.6 15.7 460 15.7ZM460 -0.100006C206.3 -0.100006 -0.0999756 206.3 -0.0999756 460C-0.0999756 713.7 206.3 920.1 460 920.1C713.7 920.1 920.1 713.7 920.1 460C920.1 206.3 713.7 -0.100006 460 -0.100006V-0.100006Z" fill="#F500EB"/>
<path d="M48.9 367.3L46.2 379.8L42.1 378.9L44.8 366.4L48.9 367.3ZM49.8 363.2L74.7 368.5L73.8 372.6L61.4 369.9L58.7 382.4L71.1 385.1L70.2 389.2L45.3 383.9L46.2 379.8L54.5 381.6L57.2 369.1L48.9 367.3L49.8 363.2V363.2ZM57.5 334.8L53.9 347L49.9 345.8L53.5 333.6L57.5 334.8V334.8ZM58.7 330.7L83.1 337.9L81.9 341.9L69.7 338.3L66.1 350.5L78.2 354.1L77 358.1L52.7 351L53.9 347L62 349.4L65.6 337.2L57.5 334.8L58.7 330.7V330.7ZM60.4 313.1L80.1 320.7L78.6 324.6L58.8 317L60.4 313.1ZM66.4 297.3L86.1 304.9L84.6 308.8L64.9 301.2L66.4 297.3ZM85.5 318.3L87 314.4L90.9 315.9L89.4 319.8L85.5 318.3L84 322.3L80.1 320.8L81.6 316.8L85.5 318.3ZM83.1 312.8L84.6 308.8L88.6 310.3L87.1 314.3L83.1 312.8ZM77.3 282.8L84.9 286.5L92.3 271.3L96.1 273.2L88.7 288.4L96.3 292.1L103.7 276.9L107.5 278.7L98.2 297.7L71.6 284.7L80.9 265.7L84.7 267.5L77.3 282.8V282.8ZM101.4 237.9L92.8 252.5L89.2 250.4L97.8 235.8L101.4 237.9ZM92.8 252.5L111.1 263.3L109 266.9L90.7 256.1L92.8 252.5ZM114.7 265.5L111.1 263.4L117.6 252.4L106.6 245.9L108.7 242.3L123.3 250.9L114.7 265.5ZM118 213.3L110.6 223.7L107.1 221.3L114.5 210.9L118 213.3ZM110.6 223.7L127.9 236L125.5 239.4L108.2 227.1L110.6 223.7ZM120.4 209.9L137.7 222.2L135.3 225.6L118 213.3L120.4 209.9V209.9ZM127.9 236L135.3 225.6L138.8 228L131.4 238.4L127.9 236ZM141.3 183.6L135.9 190.1L155.5 206.3L152.8 209.5L133.2 193.3L127.8 199.8L124.5 197.1L138 180.8L141.3 183.6ZM164.7 158.7L152.9 170.8L149.9 167.9L161.7 155.8L164.7 158.7ZM152.9 170.8L168.1 185.6L165.2 188.6L150 173.8L152.9 170.8ZM171.1 188.6L168.1 185.7L179.9 173.6L182.9 176.5L171.1 188.6ZM187.1 132.9L206.5 155.2L203.3 158L195 148.4L185.4 156.8L193.7 166.4L190.5 169.2L171.1 146.9L174.3 144.1L182.6 153.7L192.2 145.4L183.9 135.8L187.1 132.9ZM206.3 123.1L219 140L222.3 137.5L224.8 140.9L214.7 148.5L212.2 145.1L215.5 142.6L202.7 125.7L199.4 128.2L196.9 124.8L207 117.2L209.5 120.6L206.3 123.1V123.1ZM251.7 117.6L245.3 106.6L256.3 100.2L262.7 111.2L251.7 117.6ZM304.9 67.4L314.7 90.9L310.8 92.5L305.9 80.8L294.2 85.7L299.1 97.4L295.2 99L285.3 75.5L289.2 73.9L292.5 81.7L304.3 76.8L301 69L304.9 67.4V67.4ZM301 69L289.3 73.9L287.7 70L299.4 65.1L301 69ZM336.9 56.2L344.8 80.4L340.8 81.7L336.8 69.6L324.7 73.6L328.6 85.7L324.6 87L316.7 62.8L320.7 61.5L323.3 69.6L335.4 65.6L332.8 57.5L336.9 56.2ZM332.9 57.5L320.8 61.5L319.5 57.5L331.6 53.5L332.9 57.5ZM353.3 51.5L355.3 59.7L351.2 60.7L349.2 52.5L353.3 51.5ZM369.8 47.5L353.3 51.5L352.3 47.4L368.8 43.4L369.8 47.5ZM354.2 73.1L370.7 69.1L371.7 73.2L355.2 77.2L354.2 73.1ZM356.3 63.9L355.3 59.8L367.7 56.8L368.7 60.9L356.3 63.9ZM370.6 69.2L368.6 61L372.7 60L374.7 68.2L370.6 69.2ZM403.3 41.6L394.9 42.9L398.8 68L394.7 68.6L390.8 43.5L382.4 44.8L381.7 40.6L402.6 37.3L403.3 41.6ZM433.3 47.3L433.6 51.5L437.8 51.2L438.7 63.8L434.5 64.1L433.6 51.5L421 52.5L421.9 65.1L417.7 65.4L415.6 35.9L432.5 34.7L432.8 38.9L420 39.8L420.6 48.3L433.3 47.3V47.3ZM433.3 47.3L432.7 38.9L436.9 38.6L437.5 47.1L433.3 47.3ZM454.1 37.9L454 59.1H449.8L449.9 37.9H454.1ZM453.9 59.1L466.7 59.2V63.4L454 63.3L453.9 59.1ZM466.8 38L454.1 37.9V33.7L466.8 33.8V38ZM471 38L470.9 59.2H466.7L466.8 38H471ZM491.9 43.5L491.6 47.7L487.3 47.3L485.8 64.2L481.6 63.8L484.2 34.3L488.4 34.7L487.7 43.1L491.9 43.5V43.5ZM495.8 48L495.4 52.3L491.2 51.9L491.6 47.6L495.8 48ZM505.3 36.1L502.7 65.6L498.5 65.2L499.2 56.8L495 56.4L495.4 52.2L499.6 52.6L501.1 35.7L505.3 36.1ZM538.4 45.2L534.2 70.3L530.1 69.6L532.2 57.1L519.6 55L517.5 67.5L513.4 66.8L517.6 41.7L521.7 42.4L520.3 50.8L532.9 52.9L534.3 44.5L538.4 45.2ZM534.3 44.5L521.7 42.4L522.4 38.2L535 40.3L534.3 44.5ZM556.2 44.6L550 69.3L545.9 68.3L552.1 43.6L556.2 44.6ZM550 69.3L562.4 72.4L561.3 76.5L548.9 73.4L550 69.3ZM572.7 48.8L566.5 73.5L562.4 72.5L568.6 47.8L572.7 48.8ZM603.9 63.1L595.9 60.4L587.7 84.5L583.7 83.1L591.8 59L583.8 56.3L585.2 52.3L605.2 59.1L603.9 63.1V63.1ZM607.7 87.1L623.3 93.9L621.6 97.8L606 91L607.7 87.1V87.1ZM620 69.3L616.6 77.1L612.8 75.4L616.2 67.6L620 69.3ZM614.9 81L616.6 77.1L628.3 82.2L626.6 86.1L614.9 81ZM635.6 76.1L620.1 69.3L621.8 65.4L637.4 72.2L635.6 76.1V76.1ZM623.2 93.9L626.6 86.1L630.5 87.8L627.1 95.6L623.2 93.9V93.9ZM658.2 111.5L664.7 100.6L675.6 107.1L669.1 118L658.2 111.5ZM717.3 120.2L701.5 140.1L698.2 137.5L714 117.6L717.3 120.2ZM701.6 140.1L711.6 148L709 151.3L699 143.4L701.6 140.1ZM730.6 130.7L714.8 150.6L711.5 148L727.3 128.1L730.6 130.7ZM740.9 150.8L738 153.9L734.9 151L723.4 163.4L720.3 160.5L740.5 138.8L743.6 141.7L737.8 147.9L740.9 150.8V150.8ZM755.9 153.3L735.8 175L732.7 172.1L738.5 165.9L735.4 163L738.2 159.9L741.3 162.8L752.8 150.4L755.9 153.3V153.3ZM741.1 156.8L738.2 159.9L735.1 157L738 153.9L741.1 156.8ZM767.9 171.6L752.4 186.1L755.3 189.2L752.2 192.1L743.6 182.8L746.7 179.9L749.5 183L765 168.5L762.2 165.4L765.3 162.5L773.9 171.8L770.8 174.7L767.9 171.6ZM762.3 203.4L765.6 200.8L776.2 213.9L772.9 216.5L762.3 203.4V203.4ZM782 187.4L765.6 200.7L762.9 197.4L779.4 184.1L782 187.4ZM792.7 200.6L782 187.4L785.3 184.8L796 197.9L792.7 200.6V200.6ZM794.7 239.8L791.2 242.2L779.2 224.8L803.6 208L806 211.5L785.1 225.9L794.7 239.8V239.8ZM812.5 252.4L814.6 256.1L803.6 262.4L801.5 258.7L812.5 252.4ZM816.2 250.3L812.5 252.4L810.4 248.7L814.1 246.6L816.2 250.3ZM825.1 240.2L814.1 246.5L812 242.8L823 236.5L825.1 240.2ZM818.3 253.9L820.4 257.6L816.7 259.7L814.6 256L818.3 253.9ZM833.6 254.9L822.6 261.2L820.5 257.6L831.5 251.3L833.6 254.9ZM826.8 299L838.6 294.1L843.5 305.9L831.7 310.8L826.8 299ZM852.8 345.9L844.6 348.1L848.9 364.5L844.8 365.6L839.4 345.2L851.7 341.9L852.8 345.9V345.9ZM856.1 358.2L852.8 345.9L856.9 344.8L860.2 357.1L856.1 358.2ZM861.3 361.2L860.2 357.1L868.4 354.9L869.5 359L861.3 361.2ZM872.5 353.9L868.4 355L864 338.6L868.1 337.5L872.5 353.9ZM852.3 379L854.6 391.5L850.5 392.3L848.2 379.8L852.3 379ZM873.1 375.2L852.3 379L851.5 374.9L872.4 371.1L873.1 375.2V375.2ZM876.2 391.9L855.3 395.7L854.6 391.6L875.5 387.8L876.2 391.9ZM875.4 387.7L873.1 375.2L877.2 374.4L879.5 386.9L875.4 387.7Z" fill="white"/>
<path d="M865.9 410L857.5 410.9L859.2 427.8L855.1 428.2L852.9 407.2L865.5 405.9L865.9 410V410ZM867.2 422.6L865.9 409.9L870.1 409.5L871.4 422.2L867.2 422.6ZM871.8 426.4L871.4 422.2L879.9 421.3L880.3 425.5L871.8 426.4ZM884 420.9L879.8 421.3L878.1 404.4L882.3 404L884 420.9ZM885.5 446.7L855.9 447.7L855.7 443.4L881.1 442.5L880.9 438.3L885.1 438.2L885.5 446.7V446.7ZM859.6 482.5L872.3 483.5L871.3 496.2L858.6 495.2L859.6 482.5ZM870.4 555.4L845.5 550.1L846.4 546L858.8 548.6L861.5 536.1L849.1 533.4L850 529.3L874.9 534.6L874 538.7L865.7 536.9L863 549.4L871.3 551.2L870.4 555.4ZM871.3 551.3L874 538.8L878.1 539.7L875.4 552.2L871.3 551.3ZM861.5 587.9L837.1 580.7L838.3 576.7L850.5 580.3L854.1 568.1L841.9 564.5L843.1 560.5L867.5 567.7L866.3 571.7L858.2 569.3L854.5 581.5L862.6 583.9L861.5 587.9ZM862.7 583.8L866.4 571.6L870.4 572.8L866.8 585L862.7 583.8ZM834.7 600.3L833.2 604.2L829.3 602.7L830.8 598.8L834.7 600.3L836.2 596.3L840.2 597.8L838.7 601.8L834.7 600.3ZM837.1 605.8L835.6 609.8L831.6 608.3L833.1 604.3L837.1 605.8ZM853.7 621.3L834 613.7L835.5 609.8L855.2 617.4L853.7 621.3ZM859.9 605.5L840.2 597.9L841.7 594L861.4 601.6L859.9 605.5ZM843.2 635.2L835.6 631.5L828.2 646.8L824.4 644.9L831.8 629.6L824.1 625.9L816.7 641.2L812.9 639.4L822.1 620.3L848.8 633.2L839.6 652.3L835.8 650.5L843.2 635.2V635.2ZM805.8 652.6L809.4 654.7L802.9 665.7L813.9 672.2L811.8 675.8L797.2 667.2L805.8 652.6ZM827.7 665.5L809.4 654.7L811.5 651.1L829.8 661.9L827.7 665.5ZM819.1 680.1L827.7 665.5L831.3 667.7L822.7 682.3L819.1 680.1ZM792.6 682.1L785.3 692.5L781.9 690.1L789.2 679.7L792.6 682.1ZM800.2 708.1L782.9 696L785.3 692.6L802.7 704.8L800.2 708.1V708.1ZM810 694.3L792.6 682.1L795 678.7L812.3 690.9L810 694.3ZM802.7 704.7L810 694.3L813.4 696.7L806.1 707.1L802.7 704.7ZM778.9 735L784.3 728.5L764.7 712.3L767.4 709L787 725.3L792.4 718.8L795.7 721.5L782.2 737.8L778.9 735ZM749.5 729.6L752.5 732.5L740.7 744.6L737.7 741.7L749.5 729.6ZM767.7 747.3L752.5 732.5L755.4 729.5L770.6 744.3L767.7 747.3ZM755.8 759.4L767.7 747.3L770.7 750.3L758.9 762.4L755.8 759.4ZM733.3 785.5L713.9 763.2L717.1 760.4L725.4 770L735 761.6L726.7 752L729.9 749.2L749.3 771.5L746.1 774.3L737.8 764.7L728.2 773.1L736.5 782.6L733.3 785.5ZM713.9 795.5L701.1 778.6L697.8 781.1L695.3 777.7L705.4 770.1L707.9 773.4L704.6 775.9L717.4 792.8L720.7 790.3L723.2 793.6L713.1 801.2L710.6 797.8L713.9 795.5ZM669 800.6L675.4 811.6L664.4 818L658 807L669 800.6ZM615.3 851.2L605.5 827.7L609.4 826.1L614.3 837.8L626.1 832.9L621.2 821.2L625.1 819.6L634.9 843.1L631 844.7L627.7 836.9L615.9 841.8L619.2 849.6L615.3 851.2ZM619.2 849.6L630.9 844.7L632.5 848.6L620.7 853.6L619.2 849.6V849.6ZM583.3 862.4L575.4 838.2L579.4 836.9L583.3 849L595.4 845L591.5 832.9L595.5 831.6L603.4 855.8L599.4 857.1L596.7 849.1L584.6 853L587.2 861.1L583.3 862.4ZM587.3 861.1L599.4 857.1L600.7 861.1L588.6 865.1L587.3 861.1ZM549.8 849.3L551.8 857.5L547.7 858.5L545.7 850.3L549.8 849.3ZM566.3 845.4L549.8 849.4L548.8 845.3L565.3 841.3L566.3 845.4ZM550.7 870.9L567.2 866.9L568.2 871L551.7 875L550.7 870.9ZM564.2 854.6L565.2 858.7L552.8 861.7L551.8 857.6L564.2 854.6ZM567.2 867L565.2 858.8L569.3 857.8L571.3 866L567.2 867ZM517.2 876.9L525.6 875.6L521.7 850.5L525.8 849.8L529.7 874.9L538.1 873.6L538.8 877.7L517.9 881L517.2 876.9ZM486.9 871.3L486.6 867.1L482.4 867.4L481.5 854.8L485.7 854.5L486.6 867.1L499.3 866.2L498.4 853.6L502.6 853.3L504.7 882.8L487.8 884L487.5 879.8L500.2 878.9L499.6 870.5L486.9 871.3V871.3ZM486.9 871.3L487.5 879.8L483.3 880.1L482.7 871.6L486.9 871.3ZM449.5 880.6L449.6 859.4H453.8L453.7 880.6H449.5ZM453.7 880.6L466.5 880.7V884.9L453.7 884.8V880.6ZM466.6 859.5L453.8 859.4V855.2L466.6 855.3V859.5ZM466.5 880.7L466.6 859.5H470.8L470.7 880.7H466.5ZM415.2 882.5L417.8 853L422 853.4L421.3 861.9L425.6 862.3L425.2 866.5L420.9 866.1L419.4 883L415.2 882.5V882.5ZM424.8 870.6L425.2 866.4L429.4 866.8L429 871L424.8 870.6ZM428.6 875.2L429 871L433.3 871.4L434.8 854.5L439 854.9L436.4 884.4L432.2 884L433 875.5L428.6 875.2ZM382.1 873.5L386.3 848.4L390.4 849.1L388.3 861.6L400.9 863.7L403 851.2L407.1 851.9L403 877L398.9 876.3L400.3 867.9L387.7 865.8L386.3 874.2L382.1 873.5V873.5ZM386.2 874.1L398.8 876.2L398.1 880.3L385.5 878.2L386.2 874.1ZM348.2 870.1L354.3 845.4L358.4 846.4L352.3 871.1L348.2 870.1ZM370.9 849.5L358.5 846.4L359.5 842.3L371.9 845.4L370.9 849.5ZM364.7 874.2L370.8 849.5L374.9 850.5L368.8 875.2L364.7 874.2ZM316.6 855.6L324.6 858.3L332.8 834.2L336.8 835.5L328.7 859.6L336.7 862.3L335.4 866.3L315.4 859.5L316.6 855.6V855.6ZM285.3 842.9L300.9 849.6L299.2 853.5L283.6 846.8L285.3 842.9ZM297.5 825L294.1 832.8L290.2 831.1L293.5 823.3L297.5 825V825ZM305.9 837.9L304.2 841.8L292.5 836.8L294.2 832.9L305.9 837.9ZM313.1 831.7L297.5 825L299.2 821.1L314.8 827.8L313.1 831.7ZM300.8 849.6L304.1 841.8L308 843.5L304.7 851.3L300.8 849.6ZM262.5 807.4L256 818.3L245.1 811.8L251.6 800.9L262.5 807.4ZM190 788.3L205.8 768.4L209.1 771L193.4 790.9L190 788.3V788.3ZM203.3 798.8L219.1 778.9L222.4 781.5L206.7 801.4L203.3 798.8V798.8ZM219.1 778.9L209.1 771L211.7 767.7L221.7 775.6L219.1 778.9ZM164.3 765.4L184.5 743.7L187.6 746.5L181.8 752.7L184.9 755.6L182 758.7L178.9 755.8L167.4 768.2L164.3 765.4V765.4ZM179.3 767.7L182.1 764.6L185.2 767.5L196.7 755.1L199.8 758L179.7 779.7L176.6 776.9L182.4 770.7L179.3 767.7V767.7ZM179.1 761.8L182 758.7L185.1 761.6L182.2 764.7L179.1 761.8ZM152.8 747.4L168.2 732.9L165.3 729.8L168.4 726.9L177.1 736.1L174 739L171.1 735.9L155.7 750.4L158.6 753.5L155.5 756.4L146.8 747.2L149.9 744.3L152.8 747.4ZM127.8 718.6L138.5 731.8L135.2 734.5L124.5 721.3L127.8 718.6ZM138.5 731.7L155 718.3L157.7 721.6L141.2 735L138.5 731.7ZM158.3 715.6L155 718.3L144.3 705.1L147.6 702.4L158.3 715.6ZM125.5 678.8L129 676.4L141 693.8L116.6 710.6L114.2 707.1L135.1 692.7L125.5 678.8ZM86.8 663.9L97.8 657.6L99.9 661.3L88.9 667.6L86.8 663.9V663.9ZM95.3 678.6L106.3 672.3L108.4 676L97.4 682.3L95.3 678.6ZM102 664.9L99.9 661.2L103.6 659.1L105.7 662.8L102 664.9ZM104.1 668.6L107.8 666.5L109.9 670.2L106.2 672.3L104.1 668.6ZM107.8 666.5L105.7 662.8L116.7 656.5L118.8 660.2L107.8 666.5ZM93.3 619.6L81.5 624.5L76.6 612.7L88.4 607.8L93.3 619.6ZM47.9 565.4L52 564.3L56.4 580.7L52.3 581.8L47.9 565.4ZM59 558.1L60.1 562.2L51.9 564.4L50.8 560.3L59 558.1ZM64.2 561L67.5 573.3L63.4 574.4L60.1 562.1L64.2 561ZM67.5 573.3L75.7 571.1L71.3 554.7L75.4 553.6L80.9 574.1L68.6 577.4L67.5 573.3V573.3ZM44.8 530.9L47.1 543.4L43 544.2L40.7 531.7L44.8 530.9ZM44 526.7L64.9 522.9L65.6 527L44.8 530.8L44 526.7V526.7ZM47.1 543.4L68 539.6L68.8 543.7L48 547.5L47.1 543.4ZM67.9 539.6L65.6 527.1L69.7 526.3L72 538.8L67.9 539.6ZM36.2 497.7L40.4 497.3L42.1 514.2L37.9 514.6L36.2 497.7ZM48.4 492.2L48.8 496.4L40.4 497.3L40 493.1L48.4 492.2ZM53 496L54.3 508.7L50 509.1L48.7 496.4L53 496ZM54.3 508.6L62.7 507.7L61 490.8L65.2 490.4L67.3 511.4L54.7 512.7L54.3 508.6ZM34.7 472.5L64.3 471.5L64.5 475.8L39 476.6L39.2 480.8L35 481L34.7 472.5ZM60.6 436.4L47.9 435.4L48.9 422.8L61.6 423.8L60.6 436.4Z" fill="white"/>
<path d="M460 838.8C669.205 838.8 838.8 669.205 838.8 460C838.8 250.795 669.205 81.2 460 81.2C250.795 81.2 81.2 250.795 81.2 460C81.2 669.205 250.795 838.8 460 838.8Z" fill="#00F0FF"/>
<path d="M460 822.5C660.203 822.5 822.5 660.203 822.5 460C822.5 259.797 660.203 97.5 460 97.5C259.797 97.5 97.5 259.797 97.5 460C97.5 660.203 259.797 822.5 460 822.5Z" fill="#003C82"/>
<path d="M214.2 275.2H221.9V282.9H214.2V275.2ZM222 283H229.7V290.7H222V283ZM206.5 283H214.2V290.7H206.5V283Z" fill="#FFFF00"/>
<path d="M214.2 290.7H221.9V298.4H214.2V290.7Z" fill="#FFFF00"/>
<path d="M278.1 335.2H285.8V342.9H278.1V335.2Z" fill="#F500EB"/>
<path d="M285.8 342.9H293.5V350.6H285.8V342.9ZM270.4 342.9H278.1V350.6H270.4V342.9ZM278.1 350.7H285.8V358.4H278.1V350.7Z" fill="#F500EB"/>
<path d="M237.5 471.6H245.2V479.3H237.5V471.6Z" fill="#FFFF00"/>
<path d="M245.2 479.3H252.9V487H245.2V479.3ZM229.7 479.3H237.4V487H229.7V479.3ZM237.5 487.1H245.2V494.8H237.5V487.1Z" fill="#FFFF00"/>
<path d="M179.4 515.1H187.1V522.8H179.4V515.1ZM187.2 522.9H194.9V530.6H187.2V522.9ZM171.7 522.9H179.4V530.6H171.7V522.9Z" fill="#00F0FF"/>
<path d="M179.4 530.6H187.1V538.3H179.4V530.6Z" fill="#00F0FF"/>
<path d="M148.5 444.5H156.2V452.2H148.5V444.5ZM156.2 452.3H163.9V460H156.2V452.3Z" fill="#F500EB"/>
<path d="M140.7 452.3H148.4V460H140.7V452.3ZM148.5 460H156.2V467.7H148.5V460Z" fill="#F500EB"/>
<path d="M291.6 231.7H299.3V239.4H291.6V231.7ZM299.4 239.4H307.1V247.1H299.4V239.4Z" fill="#00F0FF"/>
<path d="M283.9 239.4H291.6V247.1H283.9V239.4Z" fill="#00F0FF"/>
<path d="M291.6 247.1H299.3V254.8H291.6V247.1Z" fill="#00F0FF"/>
<path d="M229.7 391.3H222V383.6H214.3V368.1H206.6V383.6H198.9V391.3H183.4V399H198.9V406.7H206.6V422.2H214.3V406.7H222V399H237.5V391.3H229.7Z" fill="white"/>
<path d="M691.1 321.7H698.8V329.4H691.1V321.7ZM683.3 329.4H691V337.1H683.3V329.4Z" fill="#F500EB"/>
<path d="M698.8 329.4H706.5V337.1H698.8V329.4Z" fill="#F500EB"/>
<path d="M691.1 337.1H698.8V344.8H691.1V337.1Z" fill="#F500EB"/>
<path d="M635.7 271.4H643.4V279.1H635.7V271.4Z" fill="#00F0FF"/>
<path d="M628 279.1H635.7V286.8H628V279.1ZM643.5 279.1H651.2V286.8H643.5V279.1Z" fill="#00F0FF"/>
<path d="M635.7 286.8H643.4V294.5H635.7V286.8ZM724.7 538.3H732.4V546H724.7V538.3ZM717 546.1H724.7V553.8H717V546.1ZM732.5 546.1H740.2V553.8H732.5V546.1Z" fill="#00F0FF"/>
<path d="M724.7 553.8H732.4V561.5H724.7V553.8Z" fill="#00F0FF"/>
<path d="M687.2 456.1H694.9V463.8H687.2V456.1ZM679.5 463.9H687.2V471.6H679.5V463.9Z" fill="#F500EB"/>
<path d="M695 463.9H702.7V471.6H695V463.9ZM687.2 471.6H694.9V479.3H687.2V471.6Z" fill="#F500EB"/>
<path d="M643.5 383.6H651.2V391.3H643.5V383.6ZM635.7 391.3H643.4V399H635.7V391.3Z" fill="#FFFF00"/>
<path d="M651.2 391.3H658.9V399H651.2V391.3Z" fill="#FFFF00"/>
<path d="M643.5 399H651.2V406.7H643.5V399ZM612.5 196.8H620.2V204.5H612.5V196.8ZM604.8 204.6H612.5V212.3H604.8V204.6ZM620.3 204.6H628V212.3H620.3V204.6Z" fill="#FFFF00"/>
<path d="M612.5 212.3H620.2V220H612.5V212.3Z" fill="#FFFF00"/>
<path d="M755.7 402.9H748V395.2H740.3V379.7H732.6V395.2H724.9V402.9H709.4V410.6H724.9V418.3H732.6V433.8H740.3V418.3H748V410.6H763.5V402.9H755.7Z" fill="white"/>
<path d="M413.6 673.8V658.3H444.6V673.8H475.6V658.3H506.6V673.8H537.6V240.4H522.1V209.4H506.6V178.4H491V163H475.5V147.5H444.5V163H429V178.5H413.5V209.5H398V240.5H382.5V673.9L413.6 673.8ZM429 642.8H413.5V627.3H444.5V642.8H429ZM413.6 596.4H444.6V611.9H413.6V596.4ZM413.6 565.4H444.6V580.9H413.6V565.4ZM413.6 286.8H429V271.3H490.9V286.8H506.4V302.3H491V286.8H429.1V302.3H413.6V286.8ZM506.4 580.9H475.4V565.4H506.4V580.9ZM506.4 611.8H475.4V596.3H506.4V611.8ZM429 519V472.6H444.5V457.1H475.5V472.6H491V534.5H475.5V519H444.5V534.5H429V519ZM491 642.8H475.5V627.3H506.5V642.8H491Z" fill="#E1E1E1"/>
<path d="M444.5 503.5H475.5V472.5H444.5V503.5Z" fill="#E1E1E1"/>
<path d="M305.2 735.7H320.7V751.2H305.2V735.7Z" fill="#E1E1E1"/>
<path d="M274.3 735.7H289.8V751.2H274.3V735.7Z" fill="#E1E1E1"/>
<path d="M243.3 751.1V766.6H274.3V751.1H243.3ZM336.2 766.6V782.1H351.7V751.1H320.7V766.6H336.2Z" fill="#E1E1E1"/>
<path d="M336.2 782.1H305.2V751.1H289.7V782.1H274.2V797.6H320.6V813.1H336.1L336.2 782.1ZM429 766.6H444.5V751.1H413.5V766.6H398V797.6H429V766.6Z" fill="#E1E1E1"/>
<path d="M460 751.1H475.5V735.6H444.5V751.1H460Z" fill="#E1E1E1"/>
<path d="M475.5 766.6H444.5V797.6H475.5V766.6ZM382.6 797.6V766.6H398.1V751.1H413.6V735.6H444.6V720.1H398.2V735.6H382.7V751.1H367.2V782.1H351.7V813.1H367.2V797.6H382.6Z" fill="#E1E1E1"/>
<path d="M382.6 797.6H398.1V813.1H382.6V797.6ZM429 797.6H444.5V813.1H429V797.6Z" fill="#E1E1E1"/>
<path d="M367.1 813.1H382.6V828.6H367.1V813.1ZM336.2 813.1H351.7V828.6H336.2V813.1ZM398.1 813.1V828.6H429.1V813.1H398.1ZM599.3 735.7H614.8V751.2H599.3V735.7ZM630.2 735.7H645.7V751.2H630.2V735.7Z" fill="#E1E1E1"/>
<path d="M614.8 766.6V782.1H583.8V813.1H599.3V797.6H645.7V782.1H630.2V751.1H614.7V766.6H614.8ZM645.7 751.1V766.6H676.7V751.1H645.7Z" fill="#E1E1E1"/>
<path d="M583.8 766.6H599.3V751.1H568.3V782.1H583.8V766.6ZM475.5 751.1V766.6H491V797.6H522V766.6H506.5V751.1H475.5Z" fill="#E1E1E1"/>
<path d="M568.3 782.1H552.8V751.1H537.3V735.6H521.8V720.1H475.4V735.6H506.4V751.1H521.9V766.6H537.4V797.6H552.9V813.1H568.4L568.3 782.1Z" fill="#E1E1E1"/>
<path d="M521.9 797.6H537.4V813.1H521.9V797.6ZM475.5 797.6H491V813.1H475.5V797.6Z" fill="#E1E1E1"/>
<path d="M537.4 813.1H552.9V828.6H537.4V813.1ZM568.3 813.1H583.8V828.6H568.3V813.1ZM491 813.1V828.6H522V813.1H491ZM444.5 813.1V828.6H475.5V813.1H444.5ZM661.2 627.3V596.3H645.7V565.3H630.2V534.3H614.7V503.3H599.2V472.3H583.7V658H676.6V627H661.2V627.3ZM599.3 565.4H614.8V580.9H599.3V565.4ZM599.3 596.4H630.3V611.9H599.3V596.4ZM630.2 642.8H599.2V627.3H645.6V642.8H630.2ZM274.3 658.3H336.2V472.6H320.7V503.6H305.2V534.6H289.7V565.6H274.2V596.6H258.7V627.6H243.2V658.6C251 658.3 266.6 658.3 274.3 658.3V658.3ZM320.7 565.4V580.9H305.2V565.4H320.7ZM305.2 596.4H320.7V611.9H289.7V596.4H305.2ZM289.8 627.3H320.8V642.8H274.4V627.3H289.8Z" fill="#E1E1E1"/>
<path d="M475.5 147.5V132H444.5V147.5H475.5Z" fill="#969696"/>
<path d="M429 147.5H444.5V163H429V147.5Z" fill="#969696"/>
<path d="M413.6 163H429.1V178.5H413.6V163Z" fill="#969696"/>
<path d="M413.6 194V178.5H398.1V209.5H413.6V194ZM506.4 209.4H521.9V178.4H506.4V209.4Z" fill="#969696"/>
<path d="M398.1 224.9V209.4H382.6V240.4H398.1V224.9ZM521.9 240.4H537.4V209.4H521.9V240.4Z" fill="#969696"/>
<path d="M382.6 658.3V240.4H367.1V673.8H382.6V658.3ZM413.6 286.8H429.1V302.3H413.6V286.8Z" fill="#969696"/>
<path d="M444.5 580.9V565.4H413.5V580.9H444.5Z" fill="#969696"/>
<path d="M444.5 611.8V596.3H413.5V611.8H444.5ZM444.5 642.8V627.3H413.5V642.8H444.5ZM429 658.3H413.5V673.8H444.5V658.3H429ZM460 286.8H491V271.3H429.1V286.8H460ZM475.5 472.6V457.1H444.5V472.6H475.5Z" fill="#969696"/>
<path d="M475.5 534.5H491V472.6H475.5V503.6H444.5V472.6H429V534.5H444.5V519H475.5V534.5ZM475.5 565.4V580.9H506.5V565.4H475.5ZM475.5 596.4V611.9H506.5V596.4H475.5ZM475.5 627.3V642.8H506.5V627.3H475.5ZM491 286.8H506.5V302.3H491V286.8ZM491 658.3H475.5V673.8H506.5V658.3H491ZM382.6 673.8V689.3H413.6V673.8H382.6ZM382.6 720.2H398.1V735.7H382.6V720.2Z" fill="#969696"/>
<path d="M367.1 735.7H382.6V751.2H367.1V735.7ZM398.1 751.1H413.6V766.6H398.1V751.1Z" fill="#969696"/>
<path d="M398.1 766.6H382.6V797.6H398.1V766.6ZM351.7 782.1H367.2V751.1H351.7V782.1Z" fill="#969696"/>
<path d="M336.2 751.1H351.7V735.6H320.7V751.1H336.2Z" fill="#969696"/>
<path d="M320.7 735.7V720.2H274.3V735.7H289.8V751.2H305.3V735.7H320.7Z" fill="#969696"/>
<path d="M274.3 766.6H258.8V782.1H289.8V751.1H274.3V766.6ZM320.7 766.6V751.1H305.2V782.1H336.2V766.6H320.7Z" fill="#969696"/>
<path d="M258.8 735.7H243.3V751.2H274.3V735.7H258.8Z" fill="#969696"/>
<path d="M227.8 751.1H243.3V766.6H227.8V751.1ZM429 720.2H444.5V704.7H398.1V720.2H429ZM444.5 751.1V735.6H413.5V751.1H444.5ZM444.5 766.6H429V797.6H444.5V766.6Z" fill="#969696"/>
<path d="M460 735.7H475.5V720.2H444.5V735.7H460ZM460 766.6H475.5V751.1H444.5V766.6H460ZM367.1 797.6H382.6V813.1H367.1V797.6ZM413.6 797.6H398.1V813.1H429.1V797.6H413.6Z" fill="#969696"/>
<path d="M460 797.6H444.5V813.1H475.5V797.6H460ZM382.6 813.1H398.1V828.6H382.6V813.1ZM351.7 813.1H367.2V828.6H351.7V813.1Z" fill="#969696"/>
<path d="M351.7 782.1H336.2V813.1H351.7V782.1Z" fill="#969696"/>
<path d="M320.7 813.1H336.2V828.6H320.7V813.1ZM429 813.1H444.5V828.6H429V813.1ZM521.9 720.2H537.4V735.7H521.9V720.2Z" fill="#969696"/>
<path d="M537.4 735.7H552.9V751.2H537.4V735.7ZM506.4 751.1H521.9V766.6H506.4V751.1Z" fill="#969696"/>
<path d="M552.9 782.1H568.4V751.1H552.9V782.1Z" fill="#969696"/>
<path d="M599.3 751.1V735.6H568.3V751.1H599.3Z" fill="#969696"/>
<path d="M645.7 735.7V720.2H599.3V735.7H614.8V751.2H630.3V735.7H645.7Z" fill="#969696"/>
<path d="M599.3 766.6H583.8V782.1H614.8V751.1H599.3V766.6ZM630.2 766.6V782.1H661.2V766.6H645.7V751.1H630.2V766.6Z" fill="#969696"/>
<path d="M661.2 735.7H645.7V751.2H676.7V735.7H661.2Z" fill="#969696"/>
<path d="M676.7 751.1H692.2V766.6H676.7V751.1ZM506.4 720.2H521.9V704.7H475.5V720.2H506.4ZM491 751.1H506.5V735.6H475.5V751.1H491ZM491 766.6H475.5V797.6H491V766.6ZM521.9 797.6H537.4V766.6H521.9V797.6Z" fill="#969696"/>
<path d="M537.4 797.6H552.9V813.1H537.4V797.6ZM506.4 797.6H491V813.1H522V797.6H506.4Z" fill="#969696"/>
<path d="M521.9 813.1H537.4V828.6H521.9V813.1ZM552.9 813.1H568.4V828.6H552.9V813.1Z" fill="#969696"/>
<path d="M568.3 797.6V813.1H583.8V782.1H568.3V797.6Z" fill="#969696"/>
<path d="M583.8 813.1H599.3V828.6H583.8V813.1ZM475.5 813.1H491V828.6H475.5V813.1ZM444.5 673.8V689.3H475.5V673.8H444.5ZM506.4 673.8V689.3H537.4V673.8H506.4ZM475.5 147.5H491V163H475.5V147.5Z" fill="#969696"/>
<path d="M491 163H506.5V178.5H491V163ZM537.4 271.4V673.8H552.9V240.4H537.4V271.4ZM676.7 627.3V658.3H583.8V472.6H599.3V441.6H583.8V410.6H568.3V673.7H692.1V627.3H676.7V627.3ZM630.2 642.8H645.7V627.3H599.3V642.8H630.2Z" fill="#969696"/>
<path d="M661.2 627.3H676.7V596.3H661.2V627.3ZM630.2 611.8V596.3H599.2V611.8H630.2Z" fill="#969696"/>
<path d="M645.7 596.4H661.2V565.4H645.7V596.4ZM599.3 565.4H614.8V580.9H599.3V565.4Z" fill="#969696"/>
<path d="M630.2 565.4H645.7V534.4H630.2V565.4Z" fill="#969696"/>
<path d="M614.8 534.5H630.3V503.5H614.8V534.5Z" fill="#969696"/>
<path d="M599.3 503.5H614.8V472.5H599.3V503.5ZM305.2 642.8H320.7V627.3H274.3V642.8H305.2ZM258.8 611.8V596.3H243.3V627.3H258.8V611.8ZM320.7 611.8V596.3H289.7V611.8H320.7Z" fill="#969696"/>
<path d="M274.3 580.9V565.4H258.8V596.4H274.3V580.9ZM305.2 565.4H320.7V580.9H305.2V565.4Z" fill="#969696"/>
<path d="M289.8 549.9V534.4H274.3V565.4H289.8V549.9Z" fill="#969696"/>
<path d="M305.2 519V503.5H289.7V534.5H305.2V519Z" fill="#969696"/>
<path d="M320.7 488V472.5H305.2V503.5H320.7V488Z" fill="#969696"/>
<path d="M258.8 673.8H351.7V410.7H336.2V441.7H320.7V472.7H336.2V658.4H243.3V627.4H227.8V673.8H258.8V673.8Z" fill="#969696"/>
<path d="M498.7 341V333.3H491V325.6H475.5V317.9H444.5V325.6H429V333.3H421.3V341H413.6V433.9H421.3V426.2H429V433.9H436.7V426.2H444.4V433.9H452.1V426.2H467.6V433.9H475.3V426.2H483V433.9H490.7V426.2H498.4V433.9H506.1V341H498.7V341Z" fill="black"/>
<path d="M491 341V333.3H475.5V325.6H444.5V333.3H429V341H421.3V418.4H429V426.1H436.7V418.4H444.4V426.1H452.1V418.4H467.6V426.1H475.3V418.4H483V426.1H490.7V418.4H498.4V341H491Z" fill="#00F0FF"/>
<path d="M491 341V333.3H475.5V325.6H444.5V333.3H429V341H421.3V364.2H498.7V341H491Z" fill="#00D2FF"/>
<path d="M421.3 379.7V418.4H429V426.1H436.7V418.4H444.4V426.1H452.1V418.4H467.6V426.1H475.3V418.4H483V426.1H490.7V418.4H498.4V379.7C498.7 379.7 444.3 379.7 421.3 379.7V379.7Z" fill="#F500EB"/>
<path d="M421.3 410.6V418.3H429V426H436.7V418.3H444.4V426H452.1V418.3H467.6V426H475.3V418.3H483V426H490.7V418.3H498.4V410.6C498.7 410.6 444.3 410.6 421.3 410.6V410.6Z" fill="#CD00C3"/>
<path d="M421.3 395.2V410.7H498.7V395.2H421.3V395.2Z" fill="#D719CD"/>
</g>
<defs>
<clipPath id="clip0_1_116">
<rect width="920" height="920" fill="white"/>
</clipPath>
</defs>
</svg>
