<svg width="180" height="296" viewBox="0 0 180 296" fill="none" xmlns="http://www.w3.org/2000/svg">
<g clip-path="url(#clip0_1_666)">
<path d="M179.9 160.1V120.1H159.9V60.1H149.9V50.1H139.9V40.1H129.9V30.1H119.9V20.1H109.9V10.1H99.9V0.0999756H79.9V10.1H69.9V20.1H59.9V30.1H49.9V40.1H39.9V50.1H29.9V60.1H19.9V120.1H-0.100006V160.1H9.89999V170.1H-0.100006V248.5H9.39999V258H18.9V286.4H28.4V295.9H151.6V286.4H161.1V258H170.6V248.5H180.1V170.1H170.1V160.1H179.9ZM59.9 220.1H49.9V210.1H59.9V220.1ZM129.9 220.1H119.9V210.1H129.9V220.1Z" fill="black"/>
<path d="M159.9 130.1V140.1H149.9V150.1H139.9V160.1H129.9V170.1H119.9V180.1H109.9V190.1H99.9V200.1H79.9V190.1H69.9V180.1H59.9V170.1H49.9V160.1H39.9V150.1H29.9V140.1H19.9V130.1H9.89999V160.1H19.9V170.1H29.9V180.1H39.9V190.1H49.9V200.1H59.9V210.1H119.9V200.1H129.9V190.1H139.9V180.1H149.9V170.1H159.9V160.1H169.9V130.1H159.9V130.1ZM9.89999 200.1H19.9V210.1H9.89999V200.1Z" fill="#FEE433"/>
<path d="M159.9 200.1H169.9V210.1H159.9V200.1ZM49.9 140.1V130.1H39.9V70.1H49.9V60.1H59.9V50.1H69.9V40.1H79.9V30.1H99.9V40.1H109.9V50.1H119.9V60.1H129.9V70.1H139.9V130.1H129.9V140.1H119.9V150.1H109.9V140.1H99.9V130.1H79.9V140.1H69.9V150.1H59.9V140.1H49.9V160.1H59.9V170.1H69.9V180.1H79.9V190.1H99.9V180.1H109.9V170.1H119.9V160.1H129.9V150.1H139.9V140.1H149.9V60.1H139.9V50.1H129.9V40.1H119.9V30.1H109.9V20.1H99.9V10.1H79.9V20.1H69.9V30.1H59.9V40.1H49.9V50.1H39.9V60.1H29.9V140.1H49.9Z" fill="#FEE433"/>
<path d="M59.9 140.1H69.9V130.1H79.9V120.1H99.9V110.1H109.9V120.1H119.9V130.1H129.9V70.1H119.9V60.1H109.9V50.1H99.9V40.1H79.9V50.1H69.9V60.1H59.9V70.1H49.9V130.1H59.9V140.1V140.1ZM39.9 190.1H29.9V180.1H19.9V170.1H9.89999V190.1H19.9V200.1H29.9V210.1H49.9V200.1H39.9V190.1Z" fill="#FEE433"/>
<path d="M149.9 180.1V190.1H139.9V200.1H129.9V210.1H149.9V200.1H159.9V190.1H169.9V170.1H159.9V180.1H149.9ZM109.9 130.1H119.9V140.1H109.9V130.1Z" fill="#FEE433"/>
<path d="M99.9 120.1H109.9V130.1H99.9V120.1Z" fill="#FEE433"/>
<path d="M89.9 110.1H99.9V120.1H89.9V110.1ZM79.9 140.1V150.1V160.1H89.9V150.1H99.9V140.1H89.9H79.9ZM109.9 130.1H119.9V140.1H109.9V130.1Z" fill="#FEB423"/>
<path d="M89.9 10.1H99.9V20.1H89.9V10.1Z" fill="#FEAA23"/>
<path d="M99.9 20.1H109.9V30.1H99.9V20.1Z" fill="#FEAA23"/>
<path d="M109.9 30.1H119.9V40.1H109.9V30.1Z" fill="#FEAA23"/>
<path d="M119.9 40.1H129.9V50.1H119.9V40.1Z" fill="#FEAA23"/>
<path d="M129.9 50.1H139.9V60.1H129.9V50.1Z" fill="#FEAA23"/>
<path d="M139.9 60.1H149.9V70.1H139.9V60.1ZM139.9 110.1V140.1H149.9V100.1H139.9V110.1Z" fill="#FEAA23"/>
<path d="M29.9 130.1H39.9V140.1H29.9V130.1ZM129.9 140.1H139.9V150.1H129.9V140.1Z" fill="#FEAA23"/>
<path d="M119.9 150.1H129.9V160.1H119.9V150.1Z" fill="#FEAA23"/>
<path d="M109.9 160.1H119.9V170.1H109.9V160.1Z" fill="#FEAA23"/>
<path d="M99.9 170.1H109.9V180.1H99.9V170.1Z" fill="#FEAA23"/>
<path d="M89.9 180.1H99.9V190.1H89.9V180.1ZM89.9 160.1H99.9V170.1H89.9V160.1Z" fill="#FEAA23"/>
<path d="M99.9 150.1H109.9V160.1H99.9V150.1Z" fill="#FEAA23"/>
<path d="M69.9 90.1V80.1H59.9V100.1H69.9V90.1Z" fill="#FEE433"/>
<path d="M49.9 110.1V120.1H59.9V100.1H49.9V110.1ZM69.9 70.1H79.9V80.1H69.9V70.1ZM69.9 120.1H79.9V130.1H69.9V120.1Z" fill="#FEE433"/>
<path d="M79.9 110.1H89.9V120.1H79.9V110.1Z" fill="#FEE433"/>
<path d="M99.9 80.1H89.9V110.1H99.9V90.1H109.9V60.1H99.9V80.1ZM79.9 60.1H89.9V70.1H79.9V60.1Z" fill="#FEE433"/>
<path d="M99.9 50.1V40.1H89.9V60.1H99.9V50.1ZM79.9 10.1H89.9V20.1H79.9V10.1Z" fill="#FEE433"/>
<path d="M69.9 20.1H79.9V30.1H69.9V20.1Z" fill="#FEE433"/>
<path d="M59.9 30.1H69.9V40.1H59.9V30.1Z" fill="#FEE433"/>
<path d="M49.9 40.1H59.9V50.1H49.9V40.1Z" fill="#FEE433"/>
<path d="M39.9 50.1H49.9V60.1H39.9V50.1Z" fill="#FEE433"/>
<path d="M29.9 60.1H39.9V70.1H29.9V60.1ZM129.9 130.1H139.9V140.1H129.9V130.1Z" fill="#FEE433"/>
<path d="M119.9 140.1H129.9V150.1H119.9V140.1Z" fill="#FEE433"/>
<path d="M109.9 150.1H119.9V160.1H109.9V150.1Z" fill="#FEE433"/>
<path d="M99.9 160.1H109.9V170.1H99.9V160.1Z" fill="#FEE433"/>
<path d="M89.9 170.1H99.9V180.1H89.9V170.1ZM159.9 130.1H169.9V140.1H159.9V130.1ZM89.9 150.1H99.9V130.1H89.9V140.1H79.9V150.1H69.9V160.1H89.9V150.1ZM9.89999 200.1H19.9V210.1H9.89999V200.1ZM159.9 200.1H169.9V210.1H159.9V200.1ZM9.89999 130.1H19.9V140.1H9.89999V130.1Z" fill="#FEE433"/>
<path d="M109.9 60.1V90.1H119.9V60.1H109.9ZM109.9 100.1H119.9V120.1H109.9V100.1ZM39.9 110.1H29.9V130.1H39.9V110.1Z" fill="#FEC223"/>
<path d="M39.9 130.1H49.9V140.1H39.9V130.1Z" fill="#FEC223"/>
<path d="M49.9 140.1H59.9V150.1H49.9V140.1Z" fill="#FEC223"/>
<path d="M59.9 150.1H69.9V160.1H59.9V150.1Z" fill="#FEC223"/>
<path d="M69.9 160.1V170.1H79.9V180.1H89.9V160.1H69.9Z" fill="#FEC223"/>
<path d="M89.9 150.1H99.9V160.1H89.9V150.1Z" fill="#FEC223"/>
<path d="M79.9 50.1H69.9V60.1H59.9V70.1H49.9V80.1V90.1V100.1H59.9V90.1V80.1H69.9V70.1H79.9V60.1H89.9V50.1V40.1H79.9V50.1ZM99.9 190.1H109.9V200.1H99.9V190.1Z" fill="white"/>
<path d="M109.9 180.1H119.9V190.1H109.9V180.1Z" fill="white"/>
<path d="M119.9 170.1H129.9V180.1H119.9V170.1Z" fill="white"/>
<path d="M129.9 160.1H139.9V170.1H129.9V160.1Z" fill="white"/>
<path d="M139.9 150.1H149.9V160.1H139.9V150.1Z" fill="white"/>
<path d="M149.9 140.1H159.9V150.1H149.9V140.1ZM9.89999 180.1H19.9V190.1H9.89999V180.1ZM159.9 180.1H169.9V190.1H159.9V180.1ZM69.9 190.1H79.9V200.1H69.9V190.1Z" fill="white"/>
<path d="M59.9 180.1H69.9V190.1H59.9V180.1Z" fill="white"/>
<path d="M49.9 170.1H59.9V180.1H49.9V170.1Z" fill="white"/>
<path d="M39.9 160.1H49.9V170.1H39.9V160.1Z" fill="white"/>
<path d="M29.9 150.1H39.9V160.1H29.9V150.1ZM79.9 130.1H89.9V140.1H79.9V130.1ZM79.9 110.1H89.9V120.1H79.9V110.1Z" fill="white"/>
<path d="M69.9 120.1H79.9V130.1H69.9V120.1ZM69.9 140.1H79.9V150.1H69.9V140.1ZM49.9 140.1H59.9V150.1H49.9V140.1Z" fill="white"/>
<path d="M59.9 130.1H69.9V140.1H59.9V130.1ZM19.9 140.1H29.9V150.1H19.9V140.1Z" fill="white"/>
<path d="M79.9 160.1H89.9V170.1H79.9V160.1ZM109.9 100.1H119.9V130.1H129.9V70.1H119.9V90.1H99.9V110.1H109.9V100.1Z" fill="#FEB423"/>
<path d="M89.9 150.1H99.9V160.1H89.9V150.1Z" fill="#FEB423"/>
<path d="M99.9 140.1H109.9V150.1H99.9V140.1ZM99.9 200.1H59.9V210.1H119.9V200.1H99.9ZM99.9 170.1H109.9V180.1H99.9V170.1Z" fill="#FEB423"/>
<path d="M89.9 180.1H99.9V190.1H89.9V180.1ZM109.9 160.1H119.9V170.1H109.9V160.1ZM119.9 190.1H129.9V200.1H119.9V190.1ZM149.9 160.1H159.9V170.1H149.9V160.1Z" fill="#FEB423"/>
<path d="M159.9 150.1H169.9V160.1H159.9V150.1ZM129.9 180.1H139.9V190.1H129.9V180.1Z" fill="#FEB423"/>
<path d="M139.9 170.1H149.9V180.1H139.9V170.1ZM19.9 180.1H29.9V190.1H19.9V180.1Z" fill="#FEB423"/>
<path d="M9.89999 170.1H19.9V180.1H9.89999V170.1ZM39.9 200.1H49.9V210.1H39.9V200.1Z" fill="#FEB423"/>
<path d="M29.9 190.1H39.9V200.1H29.9V190.1ZM149.9 180.1H159.9V190.1H149.9V180.1Z" fill="#FEB423"/>
<path d="M159.9 170.1H169.9V180.1H159.9V170.1ZM129.9 200.1H139.9V210.1H129.9V200.1Z" fill="#FEB423"/>
<path d="M139.9 190.1H149.9V200.1H139.9V190.1ZM119.9 150.1H129.9V160.1H119.9V150.1ZM49.9 190.1H59.9V200.1H49.9V190.1ZM19.9 160.1H29.9V170.1H19.9V160.1Z" fill="#FEB423"/>
<path d="M9.89999 150.1H19.9V160.1H9.89999V150.1ZM39.9 180.1H49.9V190.1H39.9V180.1Z" fill="#FEB423"/>
<path d="M29.9 170.1H39.9V180.1H29.9V170.1Z" fill="#FEB423"/>
<path d="M28.3 258V286.4H151.5V258H28.3Z" fill="#C300FF"/>
<path d="M89.9 70.1H79.9V80.1H69.9V100.1H59.9V120.1H49.9V130.1H69.9V120.1H79.9V110.1H89.9V80.1H99.9V60.1H89.9V70.1V70.1Z" fill="#FED223"/>
<path d="M99.9 50.1H109.9V60.1H99.9V50.1ZM99.9 30.1V20.1H79.9V30.1H99.9Z" fill="#FED223"/>
<path d="M99.9 30.1H109.9V40.1H99.9V30.1Z" fill="#FED223"/>
<path d="M109.9 40.1H119.9V50.1H109.9V40.1Z" fill="#FED223"/>
<path d="M119.9 50.1H129.9V60.1H119.9V50.1Z" fill="#FED223"/>
<path d="M129.9 60.1H139.9V70.1H129.9V60.1Z" fill="#FED223"/>
<path d="M139.9 90.1V100.1H149.9V70.1H139.9V90.1ZM39.9 100.1V70.1H29.9V110.1H39.9V100.1ZM69.9 30.1H79.9V40.1H69.9V30.1Z" fill="#FED223"/>
<path d="M59.9 40.1H69.9V50.1H59.9V40.1Z" fill="#FED223"/>
<path d="M49.9 50.1H59.9V60.1H49.9V50.1Z" fill="#FED223"/>
<path d="M39.9 60.1H49.9V70.1H39.9V60.1ZM109.9 190.1H119.9V200.1H109.9V190.1Z" fill="#FED223"/>
<path d="M79.9 180.1H89.9V190.1H79.9V180.1ZM119.9 180.1H129.9V190.1H119.9V180.1ZM149.9 150.1H159.9V160.1H149.9V150.1Z" fill="#FED223"/>
<path d="M159.9 140.1H169.9V150.1H159.9V140.1ZM129.9 170.1H139.9V180.1H129.9V170.1Z" fill="#FED223"/>
<path d="M139.9 160.1H149.9V170.1H139.9V160.1ZM19.9 190.1H29.9V200.1H19.9V190.1Z" fill="#FED223"/>
<path d="M29.9 200.1H39.9V210.1H29.9V200.1ZM149.9 190.1H159.9V200.1H149.9V190.1Z" fill="#FED223"/>
<path d="M139.9 200.1H149.9V210.1H139.9V200.1ZM59.9 190.1H69.9V200.1H59.9V190.1ZM69.9 170.1H79.9V180.1H69.9V170.1ZM89.9 110.1H99.9V120.1H89.9V110.1ZM109.9 130.1H119.9V140.1H109.9V130.1Z" fill="#FED223"/>
<path d="M99.9 120.1H109.9V130.1H99.9V120.1ZM49.9 150.1H59.9V160.1H49.9V150.1Z" fill="#FED223"/>
<path d="M119.9 140.1H129.9V150.1H119.9V140.1ZM59.9 160.1H69.9V170.1H59.9V160.1ZM49.9 180.1H59.9V190.1H49.9V180.1ZM19.9 150.1H29.9V160.1H19.9V150.1Z" fill="#FED223"/>
<path d="M9.89996 140.1H19.9V150.1H9.89996V140.1ZM39.9 170.1H49.9V180.1H39.9V170.1Z" fill="#FED223"/>
<path d="M29.9 160.1H39.9V170.1H29.9V160.1ZM160.9 220.1H9.29999V248.5H170.4V220.1H160.9Z" fill="#FED223"/>
<path d="M99.9 10.1V0.0999756H79.9V10.1H99.9Z" fill="black"/>
<path d="M99.9 10.1H109.9V20.1H99.9V10.1Z" fill="black"/>
<path d="M109.9 20.1H119.9V30.1H109.9V20.1Z" fill="black"/>
<path d="M119.9 30.1H129.9V40.1H119.9V30.1Z" fill="black"/>
<path d="M129.9 40.1H139.9V50.1H129.9V40.1Z" fill="black"/>
<path d="M139.9 50.1H149.9V60.1H139.9V50.1ZM69.9 10.1H79.9V20.1H69.9V10.1Z" fill="black"/>
<path d="M59.9 20.1H69.9V30.1H59.9V20.1Z" fill="black"/>
<path d="M49.9 30.1H59.9V40.1H49.9V30.1Z" fill="black"/>
<path d="M39.9 40.1H49.9V50.1H39.9V40.1Z" fill="black"/>
<path d="M29.9 50.1H39.9V60.1H29.9V50.1ZM129.9 90.1V130.1H139.9V70.1H129.9V90.1ZM49.9 110.1V70.1H39.9V130.1H49.9V110.1ZM99.9 40.1V30.1H79.9V40.1H99.9Z" fill="black"/>
<path d="M69.9 40.1H79.9V50.1H69.9V40.1ZM99.9 40.1H109.9V50.1H99.9V40.1Z" fill="black"/>
<path d="M109.9 50.1H119.9V60.1H109.9V50.1Z" fill="black"/>
<path d="M119.9 60.1H129.9V70.1H119.9V60.1ZM59.9 50.1H69.9V60.1H59.9V50.1Z" fill="black"/>
<path d="M49.9 60.1H59.9V70.1H49.9V60.1ZM79.9 190.1V200.1H99.9V190.1H79.9V190.1ZM99.9 110.1V100.1H79.9V110.1H99.9ZM79.9 170.1V180.1H99.9V170.1H79.9Z" fill="black"/>
<path d="M99.9 160.1H109.9V170.1H99.9V160.1ZM99.9 110.1H109.9V120.1H99.9V110.1ZM119.9 130.1H129.9V140.1H119.9V130.1Z" fill="black"/>
<path d="M129.9 140.1V160.1H139.9V150.1H149.9V140.1H129.9V140.1ZM109.9 120.1H119.9V130.1H109.9V120.1ZM159.9 160.1H169.9V170.1H159.9V160.1Z" fill="black"/>
<path d="M159.9 120.1V60.1H149.9V140.1H159.9V130.1H169.9V160.1H179.9V120.1H159.9V120.1ZM119.9 160.1H129.9V170.1H119.9V160.1Z" fill="black"/>
<path d="M109.9 170.1H119.9V180.1H109.9V170.1Z" fill="black"/>
<path d="M99.9 180.1H109.9V190.1H99.9V180.1ZM19.9 170.1H29.9V180.1H19.9V170.1Z" fill="black"/>
<path d="M29.9 180.1H39.9V190.1H29.9V180.1Z" fill="black"/>
<path d="M39.9 190.1H49.9V200.1H39.9V190.1Z" fill="black"/>
<path d="M49.9 200.1H59.9V210.1H49.9V200.1Z" fill="black"/>
<path d="M69.9 220.1H119.9V210.1H59.9V220.1H69.9V220.1ZM149.9 170.1H159.9V180.1H149.9V170.1Z" fill="black"/>
<path d="M139.9 180.1H149.9V190.1H139.9V180.1Z" fill="black"/>
<path d="M129.9 190.1H139.9V200.1H129.9V190.1Z" fill="black"/>
<path d="M119.9 200.1H129.9V210.1H119.9V200.1Z" fill="black"/>
<path d="M169.9 190.1H159.9V200.1H169.9V210.1H159.9V200.1H149.9V210.1H129.9V220.1H170.4V248.5H179.9V170.1H169.9V190.1ZM69.9 160.1H79.9V170.1H69.9V160.1ZM89.9 120.1H79.9V130.1H99.9V120.1H89.9Z" fill="black"/>
<path d="M99.9 130.1H109.9V140.1H99.9V130.1ZM69.9 130.1H79.9V140.1H69.9V130.1Z" fill="black"/>
<path d="M109.9 150.1V160.1H119.9V140.1H109.9V150.1V150.1ZM69.9 140.1H59.9V160.1H69.9V140.1V140.1Z" fill="black"/>
<path d="M69.9 110.1H79.9V120.1H69.9V110.1ZM49.9 130.1H59.9V140.1H49.9V130.1Z" fill="black"/>
<path d="M49.9 140.1H29.9V150.1H39.9V160.1H49.9V140.1V140.1ZM59.9 120.1H69.9V130.1H59.9V120.1ZM9.89999 160.1H19.9V170.1H9.89999V160.1Z" fill="black"/>
<path d="M9.89999 140.1V130.1H19.9V140.1H29.9V60.1H19.9V120.1H-0.100006V160.1H9.89999V140.1V140.1ZM49.9 160.1H59.9V170.1H49.9V160.1Z" fill="black"/>
<path d="M59.9 170.1H69.9V180.1H59.9V170.1Z" fill="black"/>
<path d="M69.9 180.1H79.9V190.1H69.9V180.1ZM9.39999 229.5V220H49.9V210H29.9V200H19.9V210H9.89999V200H19.9V190H9.89999V170H-0.100006V248.4H9.39999V229.5ZM132.5 286.4H28.3V295.9H151.5V286.4H132.5Z" fill="black"/>
<path d="M151.5 248.5H9.39999V258H18.9V286.4H28.4V258H151.6V286.4H161.1V258H170.6V248.5H151.5Z" fill="black"/>
<path d="M18.1 230V238.6H16.4V230H18.1ZM24.9 230H18V228.3H24.9V230ZM18.1 240.4V238.7H25V240.4H18.1ZM35.3 228.3V240.4H33.6V235.2H28.4V240.4H26.7V228.3H28.4V233.5H33.6V228.3H35.3ZM45.6 230V240.3H43.9V235.1H38.7V240.3H37V230H38.7V233.4H43.9V230H45.6V230ZM43.9 230H38.7V228.3H43.9V230ZM56 230V240.3H54.3V235.1H49.1V240.3H47.4V230H49.1V233.4H54.3V230H56V230ZM54.3 230H49.1V228.3H54.3V230ZM61.1 230V231.7H59.4V240.3H57.7V228.2H59.4V229.9L61.1 230ZM62.9 231.8V233.5H61.2V231.8H62.9ZM62.9 233.5H64.6V235.2H62.9V233.5ZM64.6 231.8H66.3V233.5H64.6V231.8ZM69.7 228.3V240.4H68V231.8H66.3V230.1H68V228.4L69.7 228.3V228.3ZM73.2 233.5H78.4V235.2H73.2V240.4H71.5V228.3H78.4V230H73.2V233.5V233.5ZM80.1 230V233.4H78.4V230H80.1V230ZM85.3 230V238.6H87V240.3H81.8V238.6H83.5V230H81.8V228.3H87V230H85.3V230ZM90.4 230V238.6H88.7V230H90.4V230ZM95.6 230H90.4V228.3H95.6V230ZM90.4 238.7H95.6V240.4H90.4V238.7ZM97.3 230V238.6H95.6V230H97.3V230ZM102.5 231.8V233.5H100.8V240.4H99.1V228.3H100.8V231.7L102.5 231.8V231.8ZM104.2 233.5V235.2H102.5V233.5H104.2ZM107.7 228.3V240.4H106V237H104.3V235.3H106V228.4L107.7 228.3V228.3ZM118 230V233.4H116.3V230H118ZM116.3 238.7H123.2V240.4H116.3V238.7ZM124.9 230H118V228.3H124.9V230V230ZM118 235.2V233.5H123.2V235.2H118V235.2ZM123.2 238.7V235.3H124.9V238.7H123.2ZM135.2 228.3V231.7H133.5V230H126.6V228.3H135.2V228.3ZM126.6 236.9H128.3V238.6H135.2V240.3H126.6V236.9V236.9ZM128.4 235.2H130.1V236.9H128.4V235.2ZM130.1 233.5H131.8V235.2H130.1V233.5ZM131.8 231.8H133.5V233.5H131.8V231.8ZM140.4 231.8V233.5H138.7V240.4H137V228.3H138.7V231.7L140.4 231.8V231.8ZM142.1 233.5V235.2H140.4V233.5H142.1ZM145.6 228.3V240.4H143.9V237H142.2V235.3H143.9V228.4L145.6 228.3V228.3ZM161.1 228.3V230H154.2V228.3H161.1ZM155.9 235.2V238.6H162.8V240.3H154.2V235.1L155.9 235.2V235.2ZM161.1 235.2H155.9V233.5H161.1V235.2ZM162.8 233.5H161.1V230.1H162.8V233.5Z" fill="black" stroke="black" stroke-width="0.199" stroke-miterlimit="10"/>
<path d="M63 271.8V273.6H64.8V279.1H63V273.6H57.5V279.1H55.7V266.3H63V268.1H57.5V271.8H63ZM63 271.8V268.1H64.8V271.8H63ZM77.1 268.2V279.2H75.3V273.7H69.8V279.2H68V268.2H69.8V271.9H75.3V268.2H77.1V268.2ZM75.2 268.2H69.7V266.4H75.2V268.2ZM87.5 271.8V273.6H89.3V279.1H87.5V273.6H82V279.1H80.2V266.3H87.5V268.1H82V271.8H87.5ZM87.5 271.8V268.1H89.3V271.8H87.5ZM96 268.2V277.4H97.8V279.2H92.3V277.4H94.1V268.2H92.3V266.4H97.8V268.2H96ZM110.1 268.2H106.4V279.2H104.6V268.2H100.9V266.4H110.1V268.2ZM115 266.4V271.9H113.2V266.4H115ZM116.8 271.8V273.6H115V271.8H116.8ZM116.8 273.7H118.6V279.2H116.8V273.7ZM118.6 271.8H120.4V273.6H118.6V271.8ZM122.3 266.4V271.9H120.5V266.4H122.3Z" fill="white" stroke="white" stroke-width="0.234" stroke-miterlimit="10"/>
</g>
<defs>
<clipPath id="clip0_1_666">
<rect width="180" height="296" fill="white"/>
</clipPath>
</defs>
</svg>
