<svg width="216" height="286" viewBox="0 0 216 286" fill="none" xmlns="http://www.w3.org/2000/svg">
<g clip-path="url(#clip0_1_2416)">
<path d="M197.9 155.1V115.1H177.9V55.1H167.9V45.1H157.9V35.1H147.9V25.1H137.9V15.1H127.9V5.09998H117.9V-4.90002H97.9V5.09998H87.9V15.1H77.9V25.1H67.9V35.1H57.9V45.1H47.9V55.1H37.9V115.1H17.9V155.1H27.9V165.1H17.9V243.5H27.4V253H36.9V281.4H46.4V290.9H169.6V281.4H179.1V253H188.6V243.5H198.1V165.1H188.1V155.1H197.9ZM77.9 215.1H67.9V205.1H77.9V215.1ZM147.9 215.1H137.9V205.1H147.9V215.1Z" fill="black"/>
<path d="M177.9 125.1V135.1H167.9V145.1H157.9V155.1H147.9V165.1H137.9V175.1H127.9V185.1H117.9V195.1H97.9V185.1H87.9V175.1H77.9V165.1H67.9V155.1H57.9V145.1H47.9V135.1H37.9V125.1H27.9V155.1H37.9V165.1H47.9V175.1H57.9V185.1H67.9V195.1H77.9V205.1H137.9V195.1H147.9V185.1H157.9V175.1H167.9V165.1H177.9V155.1H187.9V125.1H177.9V125.1ZM27.9 195.1H37.9V205.1H27.9V195.1Z" fill="#FEE433"/>
<path d="M177.9 195.1H187.9V205.1H177.9V195.1ZM67.9 135.1V125.1H57.9V65.1H67.9V55.1H77.9V45.1H87.9V35.1H97.9V25.1H117.9V35.1H127.9V45.1H137.9V55.1H147.9V65.1H157.9V125.1H147.9V135.1H137.9V145.1H127.9V135.1H117.9V125.1H97.9V135.1H87.9V145.1H77.9V135.1H67.9V155.1H77.9V165.1H87.9V175.1H97.9V185.1H117.9V175.1H127.9V165.1H137.9V155.1H147.9V145.1H157.9V135.1H167.9V55.1H157.9V45.1H147.9V35.1H137.9V25.1H127.9V15.1H117.9V5.09998H97.9V15.1H87.9V25.1H77.9V35.1H67.9V45.1H57.9V55.1H47.9V135.1H67.9Z" fill="#FEE433"/>
<path d="M77.9 135.1H87.9V125.1H97.9V115.1H117.9V105.1H127.9V115.1H137.9V125.1H147.9V65.1H137.9V55.1H127.9V45.1H117.9V35.1H97.9V45.1H87.9V55.1H77.9V65.1H67.9V125.1H77.9V135.1V135.1ZM57.9 185.1H47.9V175.1H37.9V165.1H27.9V185.1H37.9V195.1H47.9V205.1H67.9V195.1H57.9V185.1Z" fill="#FEE433"/>
<path d="M167.9 175.1V185.1H157.9V195.1H147.9V205.1H167.9V195.1H177.9V185.1H187.9V165.1H177.9V175.1H167.9ZM127.9 125.1H137.9V135.1H127.9V125.1Z" fill="#FEE433"/>
<path d="M117.9 115.1H127.9V125.1H117.9V115.1Z" fill="#FEE433"/>
<path d="M107.9 105.1H117.9V115.1H107.9V105.1ZM97.9 135.1V145.1V155.1H107.9V145.1H117.9V135.1H107.9H97.9ZM127.9 125.1H137.9V135.1H127.9V125.1Z" fill="#FEB423"/>
<path d="M107.9 5.09998H117.9V15.1H107.9V5.09998Z" fill="#FEAA23"/>
<path d="M117.9 15.1H127.9V25.1H117.9V15.1Z" fill="#FEAA23"/>
<path d="M127.9 25.1H137.9V35.1H127.9V25.1Z" fill="#FEAA23"/>
<path d="M137.9 35.1H147.9V45.1H137.9V35.1Z" fill="#FEAA23"/>
<path d="M147.9 45.1H157.9V55.1H147.9V45.1Z" fill="#FEAA23"/>
<path d="M157.9 55.1H167.9V65.1H157.9V55.1ZM157.9 105.1V135.1H167.9V95.1H157.9V105.1Z" fill="#FEAA23"/>
<path d="M47.9 125.1H57.9V135.1H47.9V125.1ZM147.9 135.1H157.9V145.1H147.9V135.1Z" fill="#FEAA23"/>
<path d="M137.9 145.1H147.9V155.1H137.9V145.1Z" fill="#FEAA23"/>
<path d="M127.9 155.1H137.9V165.1H127.9V155.1Z" fill="#FEAA23"/>
<path d="M117.9 165.1H127.9V175.1H117.9V165.1Z" fill="#FEAA23"/>
<path d="M107.9 175.1H117.9V185.1H107.9V175.1ZM107.9 155.1H117.9V165.1H107.9V155.1Z" fill="#FEAA23"/>
<path d="M117.9 145.1H127.9V155.1H117.9V145.1Z" fill="#FEAA23"/>
<path d="M87.9 85.1V75.1H77.9V95.1H87.9V85.1Z" fill="#FEE433"/>
<path d="M67.9 105.1V115.1H77.9V95.1H67.9V105.1ZM87.9 65.1H97.9V75.1H87.9V65.1ZM87.9 115.1H97.9V125.1H87.9V115.1Z" fill="#FEE433"/>
<path d="M97.9 105.1H107.9V115.1H97.9V105.1Z" fill="#FEE433"/>
<path d="M117.9 75.1H107.9V105.1H117.9V85.1H127.9V55.1H117.9V75.1ZM97.9 55.1H107.9V65.1H97.9V55.1Z" fill="#FEE433"/>
<path d="M117.9 45.1V35.1H107.9V55.1H117.9V45.1ZM97.9 5.09998H107.9V15.1H97.9V5.09998Z" fill="#FEE433"/>
<path d="M87.9 15.1H97.9V25.1H87.9V15.1Z" fill="#FEE433"/>
<path d="M77.9 25.1H87.9V35.1H77.9V25.1Z" fill="#FEE433"/>
<path d="M67.9 35.1H77.9V45.1H67.9V35.1Z" fill="#FEE433"/>
<path d="M57.9 45.1H67.9V55.1H57.9V45.1Z" fill="#FEE433"/>
<path d="M47.9 55.1H57.9V65.1H47.9V55.1ZM147.9 125.1H157.9V135.1H147.9V125.1Z" fill="#FEE433"/>
<path d="M137.9 135.1H147.9V145.1H137.9V135.1Z" fill="#FEE433"/>
<path d="M127.9 145.1H137.9V155.1H127.9V145.1Z" fill="#FEE433"/>
<path d="M117.9 155.1H127.9V165.1H117.9V155.1Z" fill="#FEE433"/>
<path d="M107.9 165.1H117.9V175.1H107.9V165.1ZM177.9 125.1H187.9V135.1H177.9V125.1ZM107.9 145.1H117.9V125.1H107.9V135.1H97.9V145.1H87.9V155.1H107.9V145.1ZM27.9 195.1H37.9V205.1H27.9V195.1ZM177.9 195.1H187.9V205.1H177.9V195.1ZM27.9 125.1H37.9V135.1H27.9V125.1Z" fill="#FEE433"/>
<path d="M127.9 55.1V85.1H137.9V55.1H127.9ZM127.9 95.1H137.9V115.1H127.9V95.1ZM57.9 105.1H47.9V125.1H57.9V105.1Z" fill="#FEC223"/>
<path d="M57.9 125.1H67.9V135.1H57.9V125.1Z" fill="#FEC223"/>
<path d="M67.9 135.1H77.9V145.1H67.9V135.1Z" fill="#FEC223"/>
<path d="M77.9 145.1H87.9V155.1H77.9V145.1Z" fill="#FEC223"/>
<path d="M87.9 155.1V165.1H97.9V175.1H107.9V155.1H87.9Z" fill="#FEC223"/>
<path d="M107.9 145.1H117.9V155.1H107.9V145.1Z" fill="#FEC223"/>
<path d="M97.9 45.1H87.9V55.1H77.9V65.1H67.9V75.1V85.1V95.1H77.9V85.1V75.1H87.9V65.1H97.9V55.1H107.9V45.1V35.1H97.9V45.1ZM117.9 185.1H127.9V195.1H117.9V185.1Z" fill="white"/>
<path d="M127.9 175.1H137.9V185.1H127.9V175.1Z" fill="white"/>
<path d="M137.9 165.1H147.9V175.1H137.9V165.1Z" fill="white"/>
<path d="M147.9 155.1H157.9V165.1H147.9V155.1Z" fill="white"/>
<path d="M157.9 145.1H167.9V155.1H157.9V145.1Z" fill="white"/>
<path d="M167.9 135.1H177.9V145.1H167.9V135.1ZM27.9 175.1H37.9V185.1H27.9V175.1ZM177.9 175.1H187.9V185.1H177.9V175.1ZM87.9 185.1H97.9V195.1H87.9V185.1Z" fill="white"/>
<path d="M77.9 175.1H87.9V185.1H77.9V175.1Z" fill="white"/>
<path d="M67.9 165.1H77.9V175.1H67.9V165.1Z" fill="white"/>
<path d="M57.9 155.1H67.9V165.1H57.9V155.1Z" fill="white"/>
<path d="M47.9 145.1H57.9V155.1H47.9V145.1ZM97.9 125.1H107.9V135.1H97.9V125.1ZM97.9 105.1H107.9V115.1H97.9V105.1Z" fill="white"/>
<path d="M87.9 115.1H97.9V125.1H87.9V115.1ZM87.9 135.1H97.9V145.1H87.9V135.1ZM67.9 135.1H77.9V145.1H67.9V135.1Z" fill="white"/>
<path d="M77.9 125.1H87.9V135.1H77.9V125.1ZM37.9 135.1H47.9V145.1H37.9V135.1Z" fill="white"/>
<path d="M97.9 155.1H107.9V165.1H97.9V155.1ZM127.9 95.1H137.9V125.1H147.9V65.1H137.9V85.1H117.9V105.1H127.9V95.1Z" fill="#FEB423"/>
<path d="M107.9 145.1H117.9V155.1H107.9V145.1Z" fill="#FEB423"/>
<path d="M117.9 135.1H127.9V145.1H117.9V135.1ZM117.9 195.1H77.9V205.1H137.9V195.1H117.9ZM117.9 165.1H127.9V175.1H117.9V165.1Z" fill="#FEB423"/>
<path d="M107.9 175.1H117.9V185.1H107.9V175.1ZM127.9 155.1H137.9V165.1H127.9V155.1ZM137.9 185.1H147.9V195.1H137.9V185.1ZM167.9 155.1H177.9V165.1H167.9V155.1Z" fill="#FEB423"/>
<path d="M177.9 145.1H187.9V155.1H177.9V145.1ZM147.9 175.1H157.9V185.1H147.9V175.1Z" fill="#FEB423"/>
<path d="M157.9 165.1H167.9V175.1H157.9V165.1ZM37.9 175.1H47.9V185.1H37.9V175.1Z" fill="#FEB423"/>
<path d="M27.9 165.1H37.9V175.1H27.9V165.1ZM57.9 195.1H67.9V205.1H57.9V195.1Z" fill="#FEB423"/>
<path d="M47.9 185.1H57.9V195.1H47.9V185.1ZM167.9 175.1H177.9V185.1H167.9V175.1Z" fill="#FEB423"/>
<path d="M177.9 165.1H187.9V175.1H177.9V165.1ZM147.9 195.1H157.9V205.1H147.9V195.1Z" fill="#FEB423"/>
<path d="M157.9 185.1H167.9V195.1H157.9V185.1ZM137.9 145.1H147.9V155.1H137.9V145.1ZM67.9 185.1H77.9V195.1H67.9V185.1ZM37.9 155.1H47.9V165.1H37.9V155.1Z" fill="#FEB423"/>
<path d="M27.9 145.1H37.9V155.1H27.9V145.1ZM57.9 175.1H67.9V185.1H57.9V175.1Z" fill="#FEB423"/>
<path d="M47.9 165.1H57.9V175.1H47.9V165.1Z" fill="#FEB423"/>
<path d="M46.3 253V281.4H169.5V253H46.3Z" fill="#FF00FF"/>
<path d="M107.9 65.1H97.9V75.1H87.9V95.1H77.9V115.1H67.9V125.1H87.9V115.1H97.9V105.1H107.9V75.1H117.9V55.1H107.9V65.1V65.1Z" fill="#FED223"/>
<path d="M117.9 45.1H127.9V55.1H117.9V45.1ZM117.9 25.1V15.1H97.9V25.1H117.9Z" fill="#FED223"/>
<path d="M117.9 25.1H127.9V35.1H117.9V25.1Z" fill="#FED223"/>
<path d="M127.9 35.1H137.9V45.1H127.9V35.1Z" fill="#FED223"/>
<path d="M137.9 45.1H147.9V55.1H137.9V45.1Z" fill="#FED223"/>
<path d="M147.9 55.1H157.9V65.1H147.9V55.1Z" fill="#FED223"/>
<path d="M157.9 85.1V95.1H167.9V65.1H157.9V85.1ZM57.9 95.1V65.1H47.9V105.1H57.9V95.1ZM87.9 25.1H97.9V35.1H87.9V25.1Z" fill="#FED223"/>
<path d="M77.9 35.1H87.9V45.1H77.9V35.1Z" fill="#FED223"/>
<path d="M67.9 45.1H77.9V55.1H67.9V45.1Z" fill="#FED223"/>
<path d="M57.9 55.1H67.9V65.1H57.9V55.1ZM127.9 185.1H137.9V195.1H127.9V185.1Z" fill="#FED223"/>
<path d="M97.9 175.1H107.9V185.1H97.9V175.1ZM137.9 175.1H147.9V185.1H137.9V175.1ZM167.9 145.1H177.9V155.1H167.9V145.1Z" fill="#FED223"/>
<path d="M177.9 135.1H187.9V145.1H177.9V135.1ZM147.9 165.1H157.9V175.1H147.9V165.1Z" fill="#FED223"/>
<path d="M157.9 155.1H167.9V165.1H157.9V155.1ZM37.9 185.1H47.9V195.1H37.9V185.1Z" fill="#FED223"/>
<path d="M47.9 195.1H57.9V205.1H47.9V195.1ZM167.9 185.1H177.9V195.1H167.9V185.1Z" fill="#FED223"/>
<path d="M157.9 195.1H167.9V205.1H157.9V195.1ZM77.9 185.1H87.9V195.1H77.9V185.1ZM87.9 165.1H97.9V175.1H87.9V165.1ZM107.9 105.1H117.9V115.1H107.9V105.1ZM127.9 125.1H137.9V135.1H127.9V125.1Z" fill="#FED223"/>
<path d="M117.9 115.1H127.9V125.1H117.9V115.1ZM67.9 145.1H77.9V155.1H67.9V145.1Z" fill="#FED223"/>
<path d="M137.9 135.1H147.9V145.1H137.9V135.1ZM77.9 155.1H87.9V165.1H77.9V155.1ZM67.9 175.1H77.9V185.1H67.9V175.1ZM37.9 145.1H47.9V155.1H37.9V145.1Z" fill="#FED223"/>
<path d="M27.9 135.1H37.9V145.1H27.9V135.1ZM57.9 165.1H67.9V175.1H57.9V165.1Z" fill="#FED223"/>
<path d="M47.9 155.1H57.9V165.1H47.9V155.1ZM178.9 215.1H27.3V243.5H188.4V215.1H178.9Z" fill="#FED223"/>
<path d="M117.9 5.09998V-4.90002H97.9V5.09998H117.9Z" fill="black"/>
<path d="M117.9 5.09998H127.9V15.1H117.9V5.09998Z" fill="black"/>
<path d="M127.9 15.1H137.9V25.1H127.9V15.1Z" fill="black"/>
<path d="M137.9 25.1H147.9V35.1H137.9V25.1Z" fill="black"/>
<path d="M147.9 35.1H157.9V45.1H147.9V35.1Z" fill="black"/>
<path d="M157.9 45.1H167.9V55.1H157.9V45.1ZM87.9 5.09998H97.9V15.1H87.9V5.09998Z" fill="black"/>
<path d="M77.9 15.1H87.9V25.1H77.9V15.1Z" fill="black"/>
<path d="M67.9 25.1H77.9V35.1H67.9V25.1Z" fill="black"/>
<path d="M57.9 35.1H67.9V45.1H57.9V35.1Z" fill="black"/>
<path d="M47.9 45.1H57.9V55.1H47.9V45.1ZM147.9 85.1V125.1H157.9V65.1H147.9V85.1ZM67.9 105.1V65.1H57.9V125.1H67.9V105.1ZM117.9 35.1V25.1H97.9V35.1H117.9Z" fill="black"/>
<path d="M87.9 35.1H97.9V45.1H87.9V35.1ZM117.9 35.1H127.9V45.1H117.9V35.1Z" fill="black"/>
<path d="M127.9 45.1H137.9V55.1H127.9V45.1Z" fill="black"/>
<path d="M137.9 55.1H147.9V65.1H137.9V55.1ZM77.9 45.1H87.9V55.1H77.9V45.1Z" fill="black"/>
<path d="M67.9 55.1H77.9V65.1H67.9V55.1ZM97.9 185.1V195.1H117.9V185.1H97.9V185.1ZM117.9 105.1V95.1H97.9V105.1H117.9ZM97.9 165.1V175.1H117.9V165.1H97.9Z" fill="black"/>
<path d="M117.9 155.1H127.9V165.1H117.9V155.1ZM117.9 105.1H127.9V115.1H117.9V105.1ZM137.9 125.1H147.9V135.1H137.9V125.1Z" fill="black"/>
<path d="M147.9 135.1V155.1H157.9V145.1H167.9V135.1H147.9V135.1ZM127.9 115.1H137.9V125.1H127.9V115.1ZM177.9 155.1H187.9V165.1H177.9V155.1Z" fill="black"/>
<path d="M177.9 115.1V55.1H167.9V135.1H177.9V125.1H187.9V155.1H197.9V115.1H177.9V115.1ZM137.9 155.1H147.9V165.1H137.9V155.1Z" fill="black"/>
<path d="M127.9 165.1H137.9V175.1H127.9V165.1Z" fill="black"/>
<path d="M117.9 175.1H127.9V185.1H117.9V175.1ZM37.9 165.1H47.9V175.1H37.9V165.1Z" fill="black"/>
<path d="M47.9 175.1H57.9V185.1H47.9V175.1Z" fill="black"/>
<path d="M57.9 185.1H67.9V195.1H57.9V185.1Z" fill="black"/>
<path d="M67.9 195.1H77.9V205.1H67.9V195.1Z" fill="black"/>
<path d="M87.9 215.1H137.9V205.1H77.9V215.1H87.9V215.1ZM167.9 165.1H177.9V175.1H167.9V165.1Z" fill="black"/>
<path d="M157.9 175.1H167.9V185.1H157.9V175.1Z" fill="black"/>
<path d="M147.9 185.1H157.9V195.1H147.9V185.1Z" fill="black"/>
<path d="M137.9 195.1H147.9V205.1H137.9V195.1Z" fill="black"/>
<path d="M187.9 185.1H177.9V195.1H187.9V205.1H177.9V195.1H167.9V205.1H147.9V215.1H188.4V243.5H197.9V165.1H187.9V185.1ZM87.9 155.1H97.9V165.1H87.9V155.1ZM107.9 115.1H97.9V125.1H117.9V115.1H107.9Z" fill="black"/>
<path d="M117.9 125.1H127.9V135.1H117.9V125.1ZM87.9 125.1H97.9V135.1H87.9V125.1Z" fill="black"/>
<path d="M127.9 145.1V155.1H137.9V135.1H127.9V145.1V145.1ZM87.9 135.1H77.9V155.1H87.9V135.1V135.1Z" fill="black"/>
<path d="M87.9 105.1H97.9V115.1H87.9V105.1ZM67.9 125.1H77.9V135.1H67.9V125.1Z" fill="black"/>
<path d="M67.9 135.1H47.9V145.1H57.9V155.1H67.9V135.1V135.1ZM77.9 115.1H87.9V125.1H77.9V115.1ZM27.9 155.1H37.9V165.1H27.9V155.1Z" fill="black"/>
<path d="M27.9 135.1V125.1H37.9V135.1H47.9V55.1H37.9V115.1H17.9V155.1H27.9V135.1V135.1ZM67.9 155.1H77.9V165.1H67.9V155.1Z" fill="black"/>
<path d="M77.9 165.1H87.9V175.1H77.9V165.1Z" fill="black"/>
<path d="M87.9 175.1H97.9V185.1H87.9V175.1ZM27.4 224.6V215.1H67.9V205.1H47.9V195.1H37.9V205.1H27.9V195.1H37.9V185.1H27.9V165.1H17.9V243.5H27.4V224.6ZM150.5 281.4H46.3V290.9H169.5V281.4H150.5Z" fill="black"/>
<path d="M169.5 243.5H27.4V253H36.9V281.4H46.4V253H169.6V281.4H179.1V253H188.6V243.5H169.5Z" fill="black"/>
<path d="M36.1 225.1V233.7H34.4V225.1H36.1ZM42.9 225.1H36V223.4H42.9V225.1ZM36.1 235.5V233.8H43V235.5H36.1ZM53.3 223.4V235.5H51.6V230.3H46.4V235.5H44.7V223.4H46.4V228.6H51.6V223.4H53.3ZM63.6 225.1V235.4H61.9V230.2H56.7V235.4H55V225.1H56.7V228.5H61.9V225.1H63.6V225.1ZM61.9 225.1H56.7V223.4H61.9V225.1ZM74 225.1V235.4H72.3V230.2H67.1V235.4H65.4V225.1H67.1V228.5H72.3V225.1H74ZM72.3 225.1H67.1V223.4H72.3V225.1ZM79.1 225.1V226.8H77.4V235.4H75.7V223.3H77.4V225L79.1 225.1ZM80.9 226.8V228.5H79.2V226.8H80.9ZM80.9 228.6H82.6V230.3H80.9V228.6ZM82.6 226.8H84.3V228.5H82.6V226.8ZM87.7 223.4V235.5H86V226.9H84.3V225.2H86V223.5L87.7 223.4V223.4ZM91.2 228.6H96.4V230.3H91.2V235.5H89.5V223.4H96.4V225.1H91.2V228.6V228.6ZM98.1 225.1V228.5H96.4V225.1H98.1ZM103.3 225.1V233.7H105V235.4H99.8V233.7H101.5V225.1H99.8V223.4H105V225.1H103.3ZM108.4 225.1V233.7H106.7V225.1H108.4ZM113.6 225.1H108.4V223.4H113.6V225.1ZM108.4 233.7H113.6V235.4H108.4V233.7ZM115.3 225.1V233.7H113.6V225.1H115.3ZM120.5 226.8V228.5H118.8V235.4H117.1V223.3H118.8V226.7L120.5 226.8V226.8ZM122.2 228.6V230.3H120.5V228.6H122.2ZM125.7 223.4V235.5H124V232.1H122.3V230.4H124V223.5L125.7 223.4V223.4ZM136 225.1V228.5H134.3V225.1H136ZM134.3 233.7H141.2V235.4H134.3V233.7ZM142.9 225.1H136V223.4H142.9V225.1V225.1ZM136 230.3V228.6H141.2V230.3H136V230.3ZM141.2 233.7V230.3H142.9V233.7H141.2ZM153.2 223.4V226.8H151.5V225.1H144.6V223.4H153.2V223.4ZM144.6 232H146.3V233.7H153.2V235.4H144.6V232V232ZM146.4 230.3H148.1V232H146.4V230.3ZM148.1 228.6H149.8V230.3H148.1V228.6ZM149.8 226.8H151.5V228.5H149.8V226.8ZM158.4 226.8V228.5H156.7V235.4H155V223.3H156.7V226.7L158.4 226.8V226.8ZM160.1 228.6V230.3H158.4V228.6H160.1ZM163.6 223.4V235.5H161.9V232.1H160.2V230.4H161.9V223.5L163.6 223.4V223.4ZM179.1 223.4V225.1H172.2V223.4H179.1ZM173.9 230.3V233.7H180.8V235.4H172.2V230.2L173.9 230.3V230.3ZM179.1 230.3H173.9V228.6H179.1V230.3ZM180.8 228.6H179.1V225.2H180.8V228.6Z" fill="black" stroke="black" stroke-width="0.199" stroke-miterlimit="10"/>
<path d="M73.1 266.9V268.7H71.3V274.2H69.5V261.4H71.3V266.9H73.1ZM74.9 266.9H73.1V265.1H74.9V266.9ZM73.1 270.6V268.8H74.9V270.6H73.1ZM76.7 265.1H74.9V263.3H76.7V265.1ZM74.9 272.4V270.6H76.7V272.4H74.9ZM78.5 263.2H76.7V261.4H78.5V263.2ZM76.7 274.2V272.4H78.5V274.2H76.7Z" fill="white" stroke="white" stroke-width="0.234" stroke-miterlimit="10"/>
<path d="M93.8 265.1V266.9H92V274.2H90.2V261.4H92V265.1H93.8ZM95.7 266.9V268.7H93.9V266.9H95.7ZM99.3 261.4V274.2H97.5V270.5H95.7V268.7H97.5V261.4H99.3ZM104.2 263.2V266.9H102.4V263.2H104.2ZM102.4 272.4H109.7V274.2H102.4V272.4ZM111.6 263.2H104.3V261.4H111.6V263.2ZM104.2 268.7V266.9H109.7V268.7H104.2ZM109.7 272.4V268.7H111.5V272.4H109.7ZM123.8 261.4V274.2H122V268.7H116.5V274.2H114.7V261.4H116.5V266.9H122V261.4H123.8Z" fill="white" stroke="white" stroke-width="0.234" stroke-miterlimit="10"/>
<path d="M137.3 266.9H142.8V268.7H137.3V274.2H135.5V261.4H142.8V263.2H137.3V266.9ZM144.6 263.2V266.9H142.8V263.2H144.6Z" fill="white" stroke="white" stroke-width="0.234" stroke-miterlimit="10"/>
</g>
<defs>
<clipPath id="clip0_1_2416">
<rect width="216" height="286" fill="white"/>
</clipPath>
</defs>
</svg>
