<svg width="294" height="296" viewBox="0 0 294 296" fill="none" xmlns="http://www.w3.org/2000/svg">
<path d="M236.9 160.1V120.1H216.9V60.1H206.9V50.1H196.9V40.1H186.9V30.1H176.9V20.1H166.9V10.1H156.9V0.0999756H136.9V10.1H126.9V20.1H116.9V30.1H106.9V40.1H96.9V50.1H86.9V60.1H76.9V120.1H56.9V160.1H66.9V170.1H56.9V248.5H66.4V258H75.9V286.4H85.4V295.9H208.6V286.4H218.1V258H227.6V248.5H237.1V170.1H227.1V160.1H236.9ZM116.9 220.1H106.9V210.1H116.9V220.1ZM186.9 220.1H176.9V210.1H186.9V220.1Z" fill="black"/>
<path d="M216.9 130.1V140.1H206.9V150.1H196.9V160.1H186.9V170.1H176.9V180.1H166.9V190.1H156.9V200.1H136.9V190.1H126.9V180.1H116.9V170.1H106.9V160.1H96.9V150.1H86.9V140.1H76.9V130.1H66.9V160.1H76.9V170.1H86.9V180.1H96.9V190.1H106.9V200.1H116.9V210.1H176.9V200.1H186.9V190.1H196.9V180.1H206.9V170.1H216.9V160.1H226.9V130.1H216.9V130.1ZM66.9 200.1H76.9V210.1H66.9V200.1Z" fill="#FEE433"/>
<path d="M216.9 200.1H226.9V210.1H216.9V200.1ZM106.9 140.1V130.1H96.9V70.1H106.9V60.1H116.9V50.1H126.9V40.1H136.9V30.1H156.9V40.1H166.9V50.1H176.9V60.1H186.9V70.1H196.9V130.1H186.9V140.1H176.9V150.1H166.9V140.1H156.9V130.1H136.9V140.1H126.9V150.1H116.9V140.1H106.9V160.1H116.9V170.1H126.9V180.1H136.9V190.1H156.9V180.1H166.9V170.1H176.9V160.1H186.9V150.1H196.9V140.1H206.9V60.1H196.9V50.1H186.9V40.1H176.9V30.1H166.9V20.1H156.9V10.1H136.9V20.1H126.9V30.1H116.9V40.1H106.9V50.1H96.9V60.1H86.9V140.1H106.9Z" fill="#FEE433"/>
<path d="M116.9 140.1H126.9V130.1H136.9V120.1H156.9V110.1H166.9V120.1H176.9V130.1H186.9V70.1H176.9V60.1H166.9V50.1H156.9V40.1H136.9V50.1H126.9V60.1H116.9V70.1H106.9V130.1H116.9V140.1V140.1ZM96.9 190.1H86.9V180.1H76.9V170.1H66.9V190.1H76.9V200.1H86.9V210.1H106.9V200.1H96.9V190.1Z" fill="#FEE433"/>
<path d="M206.9 180.1V190.1H196.9V200.1H186.9V210.1H206.9V200.1H216.9V190.1H226.9V170.1H216.9V180.1H206.9ZM166.9 130.1H176.9V140.1H166.9V130.1Z" fill="#FEE433"/>
<path d="M156.9 120.1H166.9V130.1H156.9V120.1Z" fill="#FEE433"/>
<path d="M146.9 110.1H156.9V120.1H146.9V110.1ZM136.9 140.1V150.1V160.1H146.9V150.1H156.9V140.1H146.9H136.9ZM166.9 130.1H176.9V140.1H166.9V130.1Z" fill="#FEB423"/>
<path d="M146.9 10.1H156.9V20.1H146.9V10.1Z" fill="#FEAA23"/>
<path d="M156.9 20.1H166.9V30.1H156.9V20.1Z" fill="#FEAA23"/>
<path d="M166.9 30.1H176.9V40.1H166.9V30.1Z" fill="#FEAA23"/>
<path d="M176.9 40.1H186.9V50.1H176.9V40.1Z" fill="#FEAA23"/>
<path d="M186.9 50.1H196.9V60.1H186.9V50.1Z" fill="#FEAA23"/>
<path d="M196.9 60.1H206.9V70.1H196.9V60.1ZM196.9 110.1V140.1H206.9V100.1H196.9V110.1Z" fill="#FEAA23"/>
<path d="M86.9 130.1H96.9V140.1H86.9V130.1ZM186.9 140.1H196.9V150.1H186.9V140.1Z" fill="#FEAA23"/>
<path d="M176.9 150.1H186.9V160.1H176.9V150.1Z" fill="#FEAA23"/>
<path d="M166.9 160.1H176.9V170.1H166.9V160.1Z" fill="#FEAA23"/>
<path d="M156.9 170.1H166.9V180.1H156.9V170.1Z" fill="#FEAA23"/>
<path d="M146.9 180.1H156.9V190.1H146.9V180.1ZM146.9 160.1H156.9V170.1H146.9V160.1Z" fill="#FEAA23"/>
<path d="M156.9 150.1H166.9V160.1H156.9V150.1Z" fill="#FEAA23"/>
<path d="M126.9 90.1V80.1H116.9V100.1H126.9V90.1Z" fill="#FEE433"/>
<path d="M106.9 110.1V120.1H116.9V100.1H106.9V110.1ZM126.9 70.1H136.9V80.1H126.9V70.1ZM126.9 120.1H136.9V130.1H126.9V120.1Z" fill="#FEE433"/>
<path d="M136.9 110.1H146.9V120.1H136.9V110.1Z" fill="#FEE433"/>
<path d="M156.9 80.1H146.9V110.1H156.9V90.1H166.9V60.1H156.9V80.1ZM136.9 60.1H146.9V70.1H136.9V60.1Z" fill="#FEE433"/>
<path d="M156.9 50.1V40.1H146.9V60.1H156.9V50.1ZM136.9 10.1H146.9V20.1H136.9V10.1Z" fill="#FEE433"/>
<path d="M126.9 20.1H136.9V30.1H126.9V20.1Z" fill="#FEE433"/>
<path d="M116.9 30.1H126.9V40.1H116.9V30.1Z" fill="#FEE433"/>
<path d="M106.9 40.1H116.9V50.1H106.9V40.1Z" fill="#FEE433"/>
<path d="M96.9 50.1H106.9V60.1H96.9V50.1Z" fill="#FEE433"/>
<path d="M86.9 60.1H96.9V70.1H86.9V60.1ZM186.9 130.1H196.9V140.1H186.9V130.1Z" fill="#FEE433"/>
<path d="M176.9 140.1H186.9V150.1H176.9V140.1Z" fill="#FEE433"/>
<path d="M166.9 150.1H176.9V160.1H166.9V150.1Z" fill="#FEE433"/>
<path d="M156.9 160.1H166.9V170.1H156.9V160.1Z" fill="#FEE433"/>
<path d="M146.9 170.1H156.9V180.1H146.9V170.1ZM216.9 130.1H226.9V140.1H216.9V130.1ZM146.9 150.1H156.9V130.1H146.9V140.1H136.9V150.1H126.9V160.1H146.9V150.1ZM66.9 200.1H76.9V210.1H66.9V200.1ZM216.9 200.1H226.9V210.1H216.9V200.1ZM66.9 130.1H76.9V140.1H66.9V130.1Z" fill="#FEE433"/>
<path d="M166.9 60.1V90.1H176.9V60.1H166.9ZM166.9 100.1H176.9V120.1H166.9V100.1ZM96.9 110.1H86.9V130.1H96.9V110.1Z" fill="#FEC223"/>
<path d="M96.9 130.1H106.9V140.1H96.9V130.1Z" fill="#FEC223"/>
<path d="M106.9 140.1H116.9V150.1H106.9V140.1Z" fill="#FEC223"/>
<path d="M116.9 150.1H126.9V160.1H116.9V150.1Z" fill="#FEC223"/>
<path d="M126.9 160.1V170.1H136.9V180.1H146.9V160.1H126.9Z" fill="#FEC223"/>
<path d="M146.9 150.1H156.9V160.1H146.9V150.1Z" fill="#FEC223"/>
<path d="M136.9 50.1H126.9V60.1H116.9V70.1H106.9V80.1V90.1V100.1H116.9V90.1V80.1H126.9V70.1H136.9V60.1H146.9V50.1V40.1H136.9V50.1ZM156.9 190.1H166.9V200.1H156.9V190.1Z" fill="white"/>
<path d="M166.9 180.1H176.9V190.1H166.9V180.1Z" fill="white"/>
<path d="M176.9 170.1H186.9V180.1H176.9V170.1Z" fill="white"/>
<path d="M186.9 160.1H196.9V170.1H186.9V160.1Z" fill="white"/>
<path d="M196.9 150.1H206.9V160.1H196.9V150.1Z" fill="white"/>
<path d="M206.9 140.1H216.9V150.1H206.9V140.1ZM66.9 180.1H76.9V190.1H66.9V180.1ZM216.9 180.1H226.9V190.1H216.9V180.1ZM126.9 190.1H136.9V200.1H126.9V190.1Z" fill="white"/>
<path d="M116.9 180.1H126.9V190.1H116.9V180.1Z" fill="white"/>
<path d="M106.9 170.1H116.9V180.1H106.9V170.1Z" fill="white"/>
<path d="M96.9 160.1H106.9V170.1H96.9V160.1Z" fill="white"/>
<path d="M86.9 150.1H96.9V160.1H86.9V150.1ZM136.9 130.1H146.9V140.1H136.9V130.1ZM136.9 110.1H146.9V120.1H136.9V110.1Z" fill="white"/>
<path d="M126.9 120.1H136.9V130.1H126.9V120.1ZM126.9 140.1H136.9V150.1H126.9V140.1ZM106.9 140.1H116.9V150.1H106.9V140.1Z" fill="white"/>
<path d="M116.9 130.1H126.9V140.1H116.9V130.1ZM76.9 140.1H86.9V150.1H76.9V140.1Z" fill="white"/>
<path d="M136.9 160.1H146.9V170.1H136.9V160.1ZM166.9 100.1H176.9V130.1H186.9V70.1H176.9V90.1H156.9V110.1H166.9V100.1Z" fill="#FEB423"/>
<path d="M146.9 150.1H156.9V160.1H146.9V150.1Z" fill="#FEB423"/>
<path d="M156.9 140.1H166.9V150.1H156.9V140.1ZM156.9 200.1H116.9V210.1H176.9V200.1H156.9ZM156.9 170.1H166.9V180.1H156.9V170.1Z" fill="#FEB423"/>
<path d="M146.9 180.1H156.9V190.1H146.9V180.1ZM166.9 160.1H176.9V170.1H166.9V160.1ZM176.9 190.1H186.9V200.1H176.9V190.1ZM206.9 160.1H216.9V170.1H206.9V160.1Z" fill="#FEB423"/>
<path d="M216.9 150.1H226.9V160.1H216.9V150.1ZM186.9 180.1H196.9V190.1H186.9V180.1Z" fill="#FEB423"/>
<path d="M196.9 170.1H206.9V180.1H196.9V170.1ZM76.9 180.1H86.9V190.1H76.9V180.1Z" fill="#FEB423"/>
<path d="M66.9 170.1H76.9V180.1H66.9V170.1ZM96.9 200.1H106.9V210.1H96.9V200.1Z" fill="#FEB423"/>
<path d="M86.9 190.1H96.9V200.1H86.9V190.1ZM206.9 180.1H216.9V190.1H206.9V180.1Z" fill="#FEB423"/>
<path d="M216.9 170.1H226.9V180.1H216.9V170.1ZM186.9 200.1H196.9V210.1H186.9V200.1Z" fill="#FEB423"/>
<path d="M196.9 190.1H206.9V200.1H196.9V190.1ZM176.9 150.1H186.9V160.1H176.9V150.1ZM106.9 190.1H116.9V200.1H106.9V190.1ZM76.9 160.1H86.9V170.1H76.9V160.1Z" fill="#FEB423"/>
<path d="M66.9 150.1H76.9V160.1H66.9V150.1ZM96.9 180.1H106.9V190.1H96.9V180.1Z" fill="#FEB423"/>
<path d="M86.9 170.1H96.9V180.1H86.9V170.1Z" fill="#FEB423"/>
<path d="M85.3 258V286.4H208.5V258H85.3Z" fill="#22DFF0"/>
<path d="M146.9 70.1H136.9V80.1H126.9V100.1H116.9V120.1H106.9V130.1H126.9V120.1H136.9V110.1H146.9V80.1H156.9V60.1H146.9V70.1V70.1Z" fill="#FED223"/>
<path d="M156.9 50.1H166.9V60.1H156.9V50.1ZM156.9 30.1V20.1H136.9V30.1H156.9Z" fill="#FED223"/>
<path d="M156.9 30.1H166.9V40.1H156.9V30.1Z" fill="#FED223"/>
<path d="M166.9 40.1H176.9V50.1H166.9V40.1Z" fill="#FED223"/>
<path d="M176.9 50.1H186.9V60.1H176.9V50.1Z" fill="#FED223"/>
<path d="M186.9 60.1H196.9V70.1H186.9V60.1Z" fill="#FED223"/>
<path d="M196.9 90.1V100.1H206.9V70.1H196.9V90.1ZM96.9 100.1V70.1H86.9V110.1H96.9V100.1ZM126.9 30.1H136.9V40.1H126.9V30.1Z" fill="#FED223"/>
<path d="M116.9 40.1H126.9V50.1H116.9V40.1Z" fill="#FED223"/>
<path d="M106.9 50.1H116.9V60.1H106.9V50.1Z" fill="#FED223"/>
<path d="M96.9 60.1H106.9V70.1H96.9V60.1ZM166.9 190.1H176.9V200.1H166.9V190.1Z" fill="#FED223"/>
<path d="M136.9 180.1H146.9V190.1H136.9V180.1ZM176.9 180.1H186.9V190.1H176.9V180.1ZM206.9 150.1H216.9V160.1H206.9V150.1Z" fill="#FED223"/>
<path d="M216.9 140.1H226.9V150.1H216.9V140.1ZM186.9 170.1H196.9V180.1H186.9V170.1Z" fill="#FED223"/>
<path d="M196.9 160.1H206.9V170.1H196.9V160.1ZM76.9 190.1H86.9V200.1H76.9V190.1Z" fill="#FED223"/>
<path d="M86.9 200.1H96.9V210.1H86.9V200.1ZM206.9 190.1H216.9V200.1H206.9V190.1Z" fill="#FED223"/>
<path d="M196.9 200.1H206.9V210.1H196.9V200.1ZM116.9 190.1H126.9V200.1H116.9V190.1ZM126.9 170.1H136.9V180.1H126.9V170.1ZM146.9 110.1H156.9V120.1H146.9V110.1ZM166.9 130.1H176.9V140.1H166.9V130.1Z" fill="#FED223"/>
<path d="M156.9 120.1H166.9V130.1H156.9V120.1ZM106.9 150.1H116.9V160.1H106.9V150.1Z" fill="#FED223"/>
<path d="M176.9 140.1H186.9V150.1H176.9V140.1ZM116.9 160.1H126.9V170.1H116.9V160.1ZM106.9 180.1H116.9V190.1H106.9V180.1ZM76.9 150.1H86.9V160.1H76.9V150.1Z" fill="#FED223"/>
<path d="M66.9 140.1H76.9V150.1H66.9V140.1ZM96.9 170.1H106.9V180.1H96.9V170.1Z" fill="#FED223"/>
<path d="M86.9 160.1H96.9V170.1H86.9V160.1ZM217.9 220.1H66.3V248.5H227.4V220.1H217.9Z" fill="#FED223"/>
<path d="M156.9 10.1V0.0999756H136.9V10.1H156.9Z" fill="black"/>
<path d="M156.9 10.1H166.9V20.1H156.9V10.1Z" fill="black"/>
<path d="M166.9 20.1H176.9V30.1H166.9V20.1Z" fill="black"/>
<path d="M176.9 30.1H186.9V40.1H176.9V30.1Z" fill="black"/>
<path d="M186.9 40.1H196.9V50.1H186.9V40.1Z" fill="black"/>
<path d="M196.9 50.1H206.9V60.1H196.9V50.1ZM126.9 10.1H136.9V20.1H126.9V10.1Z" fill="black"/>
<path d="M116.9 20.1H126.9V30.1H116.9V20.1Z" fill="black"/>
<path d="M106.9 30.1H116.9V40.1H106.9V30.1Z" fill="black"/>
<path d="M96.9 40.1H106.9V50.1H96.9V40.1Z" fill="black"/>
<path d="M86.9 50.1H96.9V60.1H86.9V50.1ZM186.9 90.1V130.1H196.9V70.1H186.9V90.1ZM106.9 110.1V70.1H96.9V130.1H106.9V110.1ZM156.9 40.1V30.1H136.9V40.1H156.9Z" fill="black"/>
<path d="M126.9 40.1H136.9V50.1H126.9V40.1ZM156.9 40.1H166.9V50.1H156.9V40.1Z" fill="black"/>
<path d="M166.9 50.1H176.9V60.1H166.9V50.1Z" fill="black"/>
<path d="M176.9 60.1H186.9V70.1H176.9V60.1ZM116.9 50.1H126.9V60.1H116.9V50.1Z" fill="black"/>
<path d="M106.9 60.1H116.9V70.1H106.9V60.1ZM136.9 190.1V200.1H156.9V190.1H136.9V190.1ZM156.9 110.1V100.1H136.9V110.1H156.9ZM136.9 170.1V180.1H156.9V170.1H136.9Z" fill="black"/>
<path d="M156.9 160.1H166.9V170.1H156.9V160.1ZM156.9 110.1H166.9V120.1H156.9V110.1ZM176.9 130.1H186.9V140.1H176.9V130.1Z" fill="black"/>
<path d="M186.9 140.1V160.1H196.9V150.1H206.9V140.1H186.9V140.1ZM166.9 120.1H176.9V130.1H166.9V120.1ZM216.9 160.1H226.9V170.1H216.9V160.1Z" fill="black"/>
<path d="M216.9 120.1V60.1H206.9V140.1H216.9V130.1H226.9V160.1H236.9V120.1H216.9V120.1ZM176.9 160.1H186.9V170.1H176.9V160.1Z" fill="black"/>
<path d="M166.9 170.1H176.9V180.1H166.9V170.1Z" fill="black"/>
<path d="M156.9 180.1H166.9V190.1H156.9V180.1ZM76.9 170.1H86.9V180.1H76.9V170.1Z" fill="black"/>
<path d="M86.9 180.1H96.9V190.1H86.9V180.1Z" fill="black"/>
<path d="M96.9 190.1H106.9V200.1H96.9V190.1Z" fill="black"/>
<path d="M106.9 200.1H116.9V210.1H106.9V200.1Z" fill="black"/>
<path d="M126.9 220.1H176.9V210.1H116.9V220.1H126.9V220.1ZM206.9 170.1H216.9V180.1H206.9V170.1Z" fill="black"/>
<path d="M196.9 180.1H206.9V190.1H196.9V180.1Z" fill="black"/>
<path d="M186.9 190.1H196.9V200.1H186.9V190.1Z" fill="black"/>
<path d="M176.9 200.1H186.9V210.1H176.9V200.1Z" fill="black"/>
<path d="M226.9 190.1H216.9V200.1H226.9V210.1H216.9V200.1H206.9V210.1H186.9V220.1H227.4V248.5H236.9V170.1H226.9V190.1ZM126.9 160.1H136.9V170.1H126.9V160.1ZM146.9 120.1H136.9V130.1H156.9V120.1H146.9Z" fill="black"/>
<path d="M156.9 130.1H166.9V140.1H156.9V130.1ZM126.9 130.1H136.9V140.1H126.9V130.1Z" fill="black"/>
<path d="M166.9 150.1V160.1H176.9V140.1H166.9V150.1V150.1ZM126.9 140.1H116.9V160.1H126.9V140.1V140.1Z" fill="black"/>
<path d="M126.9 110.1H136.9V120.1H126.9V110.1ZM106.9 130.1H116.9V140.1H106.9V130.1Z" fill="black"/>
<path d="M106.9 140.1H86.9V150.1H96.9V160.1H106.9V140.1V140.1ZM116.9 120.1H126.9V130.1H116.9V120.1ZM66.9 160.1H76.9V170.1H66.9V160.1Z" fill="black"/>
<path d="M66.9 140.1V130.1H76.9V140.1H86.9V60.1H76.9V120.1H56.9V160.1H66.9V140.1V140.1ZM106.9 160.1H116.9V170.1H106.9V160.1Z" fill="black"/>
<path d="M116.9 170.1H126.9V180.1H116.9V170.1Z" fill="black"/>
<path d="M126.9 180.1H136.9V190.1H126.9V180.1ZM66.4 229.6V220.1H106.9V210.1H86.9V200.1H76.9V210.1H66.9V200.1H76.9V190.1H66.9V170.1H56.9V248.5H66.4V229.6ZM189.5 286.4H85.3V295.9H208.5V286.4H189.5Z" fill="black"/>
<path d="M208.5 248.5H66.4V258H75.9V286.4H85.4V258H208.6V286.4H218.1V258H227.6V248.5H208.5Z" fill="black"/>
<path d="M75.1 230.1V238.7H73.4V230.1H75.1ZM81.9 230.1H75V228.4H81.9V230.1ZM75.1 240.4V238.7H82V240.4H75.1ZM92.3 228.4V240.5H90.6V235.3H85.4V240.5H83.7V228.4H85.4V233.6H90.6V228.4H92.3ZM102.6 230.1V240.4H100.9V235.2H95.7V240.4H94V230.1H95.7V233.5H100.9V230.1H102.6V230.1ZM100.9 230.1H95.7V228.4H100.9V230.1ZM113 230.1V240.4H111.3V235.2H106.1V240.4H104.4V230.1H106.1V233.5H111.3V230.1H113ZM111.3 230.1H106.1V228.4H111.3V230.1ZM118.1 230.1V231.8H116.4V240.4H114.7V228.3H116.4V230L118.1 230.1ZM119.9 231.8V233.5H118.2V231.8H119.9ZM119.9 233.5H121.6V235.2H119.9V233.5ZM121.6 231.8H123.3V233.5H121.6V231.8ZM126.7 228.4V240.5H125V231.9H123.3V230.2H125V228.5L126.7 228.4V228.4ZM130.2 233.5H135.4V235.2H130.2V240.4H128.5V228.3H135.4V230H130.2V233.5V233.5ZM137.1 230.1V233.5H135.4V230.1H137.1ZM142.3 230.1V238.7H144V240.4H138.8V238.7H140.5V230.1H138.8V228.4H144V230.1H142.3ZM147.4 230.1V238.7H145.7V230.1H147.4ZM152.6 230.1H147.4V228.4H152.6V230.1ZM147.4 238.7H152.6V240.4H147.4V238.7ZM154.3 230.1V238.7H152.6V230.1H154.3ZM159.5 231.8V233.5H157.8V240.4H156.1V228.3H157.8V231.7L159.5 231.8V231.8ZM161.2 233.5V235.2H159.5V233.5H161.2ZM164.7 228.4V240.5H163V237.1H161.3V235.4H163V228.5L164.7 228.4V228.4ZM175 230.1V233.5H173.3V230.1H175ZM173.3 238.7H180.2V240.4H173.3V238.7ZM181.9 230.1H175V228.4H181.9V230.1V230.1ZM175 235.3V233.6H180.2V235.3H175V235.3ZM180.2 238.7V235.3H181.9V238.7H180.2ZM192.2 228.4V231.8H190.5V230.1H183.6V228.4H192.2V228.4ZM183.6 237H185.3V238.7H192.2V240.4H183.6V237V237ZM185.4 235.3H187.1V237H185.4V235.3ZM187.1 233.5H188.8V235.2H187.1V233.5ZM188.8 231.8H190.5V233.5H188.8V231.8ZM197.4 231.8V233.5H195.7V240.4H194V228.3H195.7V231.7L197.4 231.8V231.8ZM199.1 233.5V235.2H197.4V233.5H199.1ZM202.6 228.4V240.5H200.9V237.1H199.2V235.4H200.9V228.5L202.6 228.4V228.4ZM218.1 228.4V230.1H211.2V228.4H218.1ZM212.9 235.3V238.7H219.8V240.4H211.2V235.2L212.9 235.3V235.3ZM218.1 235.3H212.9V233.6H218.1V235.3ZM219.8 233.5H218.1V230.1H219.8V233.5Z" fill="black" stroke="black" stroke-width="0.199" stroke-miterlimit="10"/>
<path d="M137.1 266.4V270.1H135.3V266.4H137.1ZM135.3 275.5H137.1V279.2H135.3V275.5ZM139 270.1V271.9H137.2V270.1H139ZM137.1 273.7H138.9V275.5H137.1V273.7ZM140.8 271.9V273.7H139V271.9H140.8V271.9ZM142.6 271.9H140.8V270.1H142.6V271.9ZM140.8 275.5V273.7H142.6V275.5H140.8ZM144.4 270.1H142.6V266.4H144.4V270.1ZM142.6 279.2V275.5H144.4V279.2H142.6ZM149.3 271.9H154.8V273.7H149.3V279.2H147.5V266.4H154.8V268.2H149.3V271.9V271.9ZM156.7 268.2V271.9H154.9V268.2H156.7Z" fill="black"/>
</svg>
