<svg width="292" height="296" viewBox="0 0 292 296" fill="none" xmlns="http://www.w3.org/2000/svg">
<path d="M235.9 160.1V120.1H215.9V60.1H205.9V50.1H195.9V40.1H185.9V30.1H175.9V20.1H165.9V10.1H155.9V0.0999756H135.9V10.1H125.9V20.1H115.9V30.1H105.9V40.1H95.9V50.1H85.9V60.1H75.9V120.1H55.9V160.1H65.9V170.1H55.9V248.5H65.4V258H74.9V286.4H84.4V295.9H207.6V286.4H217.1V258H226.6V248.5H236.1V170.1H226.1V160.1H235.9ZM115.9 220.1H105.9V210.1H115.9V220.1ZM185.9 220.1H175.9V210.1H185.9V220.1Z" fill="black"/>
<path d="M215.9 130.1V140.1H205.9V150.1H195.9V160.1H185.9V170.1H175.9V180.1H165.9V190.1H155.9V200.1H135.9V190.1H125.9V180.1H115.9V170.1H105.9V160.1H95.9V150.1H85.9V140.1H75.9V130.1H65.9V160.1H75.9V170.1H85.9V180.1H95.9V190.1H105.9V200.1H115.9V210.1H175.9V200.1H185.9V190.1H195.9V180.1H205.9V170.1H215.9V160.1H225.9V130.1H215.9V130.1ZM65.9 200.1H75.9V210.1H65.9V200.1Z" fill="#F7F5F5"/>
<path d="M215.9 200.1H225.9V210.1H215.9V200.1ZM105.9 140.1V130.1H95.9V70.1H105.9V60.1H115.9V50.1H125.9V40.1H135.9V30.1H155.9V40.1H165.9V50.1H175.9V60.1H185.9V70.1H195.9V130.1H185.9V140.1H175.9V150.1H165.9V140.1H155.9V130.1H135.9V140.1H125.9V150.1H115.9V140.1H105.9V160.1H115.9V170.1H125.9V180.1H135.9V190.1H155.9V180.1H165.9V170.1H175.9V160.1H185.9V150.1H195.9V140.1H205.9V60.1H195.9V50.1H185.9V40.1H175.9V30.1H165.9V20.1H155.9V10.1H135.9V20.1H125.9V30.1H115.9V40.1H105.9V50.1H95.9V60.1H85.9V140.1H105.9Z" fill="#F7F5F5"/>
<path d="M115.9 140.1H125.9V130.1H135.9V120.1H155.9V110.1H165.9V120.1H175.9V130.1H185.9V70.1H175.9V60.1H165.9V50.1H155.9V40.1H135.9V50.1H125.9V60.1H115.9V70.1H105.9V130.1H115.9V140.1V140.1ZM95.9 190.1H85.9V180.1H75.9V170.1H65.9V190.1H75.9V200.1H85.9V210.1H105.9V200.1H95.9V190.1Z" fill="#F7F5F5"/>
<path d="M205.9 180.1V190.1H195.9V200.1H185.9V210.1H205.9V200.1H215.9V190.1H225.9V170.1H215.9V180.1H205.9ZM165.9 130.1H175.9V140.1H165.9V130.1Z" fill="#F7F5F5"/>
<path d="M155.9 120.1H165.9V130.1H155.9V120.1Z" fill="#F7F5F5"/>
<path d="M145.9 110.1H155.9V120.1H145.9V110.1ZM135.9 140.1V150.1V160.1H145.9V150.1H155.9V140.1H145.9H135.9ZM165.9 130.1H175.9V140.1H165.9V130.1Z" fill="#A0A0A0"/>
<path d="M145.9 10.1H155.9V20.1H145.9V10.1Z" fill="#919191"/>
<path d="M155.9 20.1H165.9V30.1H155.9V20.1Z" fill="#919191"/>
<path d="M165.9 30.1H175.9V40.1H165.9V30.1Z" fill="#919191"/>
<path d="M175.9 40.1H185.9V50.1H175.9V40.1Z" fill="#919191"/>
<path d="M185.9 50.1H195.9V60.1H185.9V50.1Z" fill="#919191"/>
<path d="M195.9 60.1H205.9V70.1H195.9V60.1ZM195.9 110.1V140.1H205.9V100.1H195.9V110.1Z" fill="#919191"/>
<path d="M85.9 130.1H95.9V140.1H85.9V130.1ZM185.9 140.1H195.9V150.1H185.9V140.1Z" fill="#919191"/>
<path d="M175.9 150.1H185.9V160.1H175.9V150.1Z" fill="#919191"/>
<path d="M165.9 160.1H175.9V170.1H165.9V160.1Z" fill="#919191"/>
<path d="M155.9 170.1H165.9V180.1H155.9V170.1Z" fill="#919191"/>
<path d="M145.9 180.1H155.9V190.1H145.9V180.1ZM145.9 160.1H155.9V170.1H145.9V160.1Z" fill="#919191"/>
<path d="M155.9 150.1H165.9V160.1H155.9V150.1Z" fill="#919191"/>
<path d="M125.9 90.1V80.1H115.9V100.1H125.9V90.1Z" fill="#F7F5F5"/>
<path d="M105.9 110.1V120.1H115.9V100.1H105.9V110.1ZM125.9 70.1H135.9V80.1H125.9V70.1ZM125.9 120.1H135.9V130.1H125.9V120.1Z" fill="#F7F5F5"/>
<path d="M135.9 110.1H145.9V120.1H135.9V110.1Z" fill="#F7F5F5"/>
<path d="M155.9 80.1H145.9V110.1H155.9V90.1H165.9V60.1H155.9V80.1ZM135.9 60.1H145.9V70.1H135.9V60.1Z" fill="#F7F5F5"/>
<path d="M155.9 50.1V40.1H145.9V60.1H155.9V50.1Z" fill="#F7F5F5"/>
<path d="M135.9 10.1H145.9V20.1H135.9V10.1Z" fill="white"/>
<path d="M125.9 20.1H135.9V30.1H125.9V20.1Z" fill="white"/>
<path d="M115.9 30.1H125.9V40.1H115.9V30.1Z" fill="white"/>
<path d="M105.9 40.1H115.9V50.1H105.9V40.1Z" fill="white"/>
<path d="M95.9 50.1H105.9V60.1H95.9V50.1Z" fill="white"/>
<path d="M85.9 60.1H95.9V70.1H85.9V60.1Z" fill="white"/>
<path d="M185.9 130.1H195.9V140.1H185.9V130.1Z" fill="#F7F5F5"/>
<path d="M175.9 140.1H185.9V150.1H175.9V140.1Z" fill="#F7F5F5"/>
<path d="M165.9 150.1H175.9V160.1H165.9V150.1Z" fill="#F7F5F5"/>
<path d="M155.9 160.1H165.9V170.1H155.9V160.1Z" fill="#F7F5F5"/>
<path d="M145.9 170.1H155.9V180.1H145.9V170.1ZM215.9 130.1H225.9V140.1H215.9V130.1ZM145.9 150.1H155.9V130.1H145.9V140.1H135.9V150.1H125.9V160.1H145.9V150.1ZM65.9 200.1H75.9V210.1H65.9V200.1ZM215.9 200.1H225.9V210.1H215.9V200.1ZM65.9 130.1H75.9V140.1H65.9V130.1Z" fill="#F7F5F5"/>
<path d="M165.9 60.1V90.1H175.9V60.1H165.9ZM165.9 100.1H175.9V120.1H165.9V100.1ZM95.9 110.1H85.9V130.1H95.9V110.1Z" fill="#C0C0C0"/>
<path d="M95.9 130.1H105.9V140.1H95.9V130.1Z" fill="#C0C0C0"/>
<path d="M105.9 140.1H115.9V150.1H105.9V140.1Z" fill="#C0C0C0"/>
<path d="M115.9 150.1H125.9V160.1H115.9V150.1Z" fill="#C0C0C0"/>
<path d="M125.9 160.1V170.1H135.9V180.1H145.9V160.1H125.9Z" fill="#C0C0C0"/>
<path d="M145.9 150.1H155.9V160.1H145.9V150.1Z" fill="#C0C0C0"/>
<path d="M135.9 50.1H125.9V60.1H115.9V70.1H105.9V80.1V90.1V100.1H115.9V90.1V80.1H125.9V70.1H135.9V60.1H145.9V50.1V40.1H135.9V50.1ZM155.9 190.1H165.9V200.1H155.9V190.1Z" fill="white"/>
<path d="M165.9 180.1H175.9V190.1H165.9V180.1Z" fill="white"/>
<path d="M175.9 170.1H185.9V180.1H175.9V170.1Z" fill="white"/>
<path d="M185.9 160.1H195.9V170.1H185.9V160.1Z" fill="white"/>
<path d="M195.9 150.1H205.9V160.1H195.9V150.1Z" fill="white"/>
<path d="M205.9 140.1H215.9V150.1H205.9V140.1ZM65.9 180.1H75.9V190.1H65.9V180.1ZM215.9 180.1H225.9V190.1H215.9V180.1ZM125.9 190.1H135.9V200.1H125.9V190.1Z" fill="white"/>
<path d="M115.9 180.1H125.9V190.1H115.9V180.1Z" fill="white"/>
<path d="M105.9 170.1H115.9V180.1H105.9V170.1Z" fill="white"/>
<path d="M95.9 160.1H105.9V170.1H95.9V160.1Z" fill="white"/>
<path d="M85.9 150.1H95.9V160.1H85.9V150.1ZM135.9 130.1H145.9V140.1H135.9V130.1ZM135.9 110.1H145.9V120.1H135.9V110.1Z" fill="white"/>
<path d="M125.9 120.1H135.9V130.1H125.9V120.1ZM125.9 140.1H135.9V150.1H125.9V140.1ZM105.9 140.1H115.9V150.1H105.9V140.1Z" fill="white"/>
<path d="M115.9 130.1H125.9V140.1H115.9V130.1ZM75.9 140.1H85.9V150.1H75.9V140.1Z" fill="white"/>
<path d="M135.9 160.1H145.9V170.1H135.9V160.1ZM165.9 100.1H175.9V130.1H185.9V70.1H175.9V90.1H155.9V110.1H165.9V100.1Z" fill="#A0A0A0"/>
<path d="M145.9 150.1H155.9V160.1H145.9V150.1Z" fill="#A0A0A0"/>
<path d="M155.9 140.1H165.9V150.1H155.9V140.1ZM155.9 200.1H115.9V210.1H175.9V200.1H155.9ZM155.9 170.1H165.9V180.1H155.9V170.1Z" fill="#A0A0A0"/>
<path d="M145.9 180.1H155.9V190.1H145.9V180.1ZM165.9 160.1H175.9V170.1H165.9V160.1ZM175.9 190.1H185.9V200.1H175.9V190.1ZM205.9 160.1H215.9V170.1H205.9V160.1Z" fill="#A0A0A0"/>
<path d="M215.9 150.1H225.9V160.1H215.9V150.1ZM185.9 180.1H195.9V190.1H185.9V180.1Z" fill="#A0A0A0"/>
<path d="M195.9 170.1H205.9V180.1H195.9V170.1ZM75.9 180.1H85.9V190.1H75.9V180.1Z" fill="#A0A0A0"/>
<path d="M65.9 170.1H75.9V180.1H65.9V170.1ZM95.9 200.1H105.9V210.1H95.9V200.1Z" fill="#A0A0A0"/>
<path d="M85.9 190.1H95.9V200.1H85.9V190.1ZM205.9 180.1H215.9V190.1H205.9V180.1Z" fill="#A0A0A0"/>
<path d="M215.9 170.1H225.9V180.1H215.9V170.1ZM185.9 200.1H195.9V210.1H185.9V200.1Z" fill="#A0A0A0"/>
<path d="M195.9 190.1H205.9V200.1H195.9V190.1ZM175.9 150.1H185.9V160.1H175.9V150.1ZM105.9 190.1H115.9V200.1H105.9V190.1ZM75.9 160.1H85.9V170.1H75.9V160.1Z" fill="#A0A0A0"/>
<path d="M65.9 150.1H75.9V160.1H65.9V150.1ZM95.9 180.1H105.9V190.1H95.9V180.1Z" fill="#A0A0A0"/>
<path d="M85.9 170.1H95.9V180.1H85.9V170.1Z" fill="#A0A0A0"/>
<path d="M84.3 258V286.4H207.5V258H84.3Z" fill="#C300FF"/>
<path d="M145.9 70.1H135.9V80.1H125.9V100.1H115.9V120.1H105.9V130.1H125.9V120.1H135.9V110.1H145.9V80.1H155.9V60.1H145.9V70.1V70.1Z" fill="#DAD6D6"/>
<path d="M155.9 50.1H165.9V60.1H155.9V50.1ZM155.9 30.1V20.1H135.9V30.1H155.9Z" fill="#DAD6D6"/>
<path d="M155.9 30.1H165.9V40.1H155.9V30.1Z" fill="#DAD6D6"/>
<path d="M165.9 40.1H175.9V50.1H165.9V40.1Z" fill="#DAD6D6"/>
<path d="M175.9 50.1H185.9V60.1H175.9V50.1Z" fill="#DAD6D6"/>
<path d="M185.9 60.1H195.9V70.1H185.9V60.1Z" fill="#DAD6D6"/>
<path d="M195.9 90.1V100.1H205.9V70.1H195.9V90.1ZM95.9 100.1V70.1H85.9V110.1H95.9V100.1ZM125.9 30.1H135.9V40.1H125.9V30.1Z" fill="#DAD6D6"/>
<path d="M115.9 40.1H125.9V50.1H115.9V40.1Z" fill="#DAD6D6"/>
<path d="M105.9 50.1H115.9V60.1H105.9V50.1Z" fill="#DAD6D6"/>
<path d="M95.9 60.1H105.9V70.1H95.9V60.1ZM165.9 190.1H175.9V200.1H165.9V190.1Z" fill="#DAD6D6"/>
<path d="M135.9 180.1H145.9V190.1H135.9V180.1ZM175.9 180.1H185.9V190.1H175.9V180.1ZM205.9 150.1H215.9V160.1H205.9V150.1Z" fill="#DAD6D6"/>
<path d="M215.9 140.1H225.9V150.1H215.9V140.1ZM185.9 170.1H195.9V180.1H185.9V170.1Z" fill="#DAD6D6"/>
<path d="M195.9 160.1H205.9V170.1H195.9V160.1ZM75.9 190.1H85.9V200.1H75.9V190.1Z" fill="#DAD6D6"/>
<path d="M85.9 200.1H95.9V210.1H85.9V200.1ZM205.9 190.1H215.9V200.1H205.9V190.1Z" fill="#DAD6D6"/>
<path d="M195.9 200.1H205.9V210.1H195.9V200.1ZM115.9 190.1H125.9V200.1H115.9V190.1ZM125.9 170.1H135.9V180.1H125.9V170.1ZM145.9 110.1H155.9V120.1H145.9V110.1ZM165.9 130.1H175.9V140.1H165.9V130.1Z" fill="#DAD6D6"/>
<path d="M155.9 120.1H165.9V130.1H155.9V120.1ZM105.9 150.1H115.9V160.1H105.9V150.1Z" fill="#DAD6D6"/>
<path d="M175.9 140.1H185.9V150.1H175.9V140.1ZM115.9 160.1H125.9V170.1H115.9V160.1ZM105.9 180.1H115.9V190.1H105.9V180.1ZM75.9 150.1H85.9V160.1H75.9V150.1Z" fill="#DAD6D6"/>
<path d="M65.9 140.1H75.9V150.1H65.9V140.1ZM95.9 170.1H105.9V180.1H95.9V170.1Z" fill="#DAD6D6"/>
<path d="M85.9 160.1H95.9V170.1H85.9V160.1Z" fill="#DAD6D6"/>
<path d="M216.9 220.1H65.3V248.5H226.4V220.1H216.9Z" fill="#F7F5F5"/>
<path d="M155.9 10.1V0.0999756H135.9V10.1H155.9Z" fill="black"/>
<path d="M155.9 10.1H165.9V20.1H155.9V10.1Z" fill="black"/>
<path d="M165.9 20.1H175.9V30.1H165.9V20.1Z" fill="black"/>
<path d="M175.9 30.1H185.9V40.1H175.9V30.1Z" fill="black"/>
<path d="M185.9 40.1H195.9V50.1H185.9V40.1Z" fill="black"/>
<path d="M195.9 50.1H205.9V60.1H195.9V50.1ZM125.9 10.1H135.9V20.1H125.9V10.1Z" fill="black"/>
<path d="M115.9 20.1H125.9V30.1H115.9V20.1Z" fill="black"/>
<path d="M105.9 30.1H115.9V40.1H105.9V30.1Z" fill="black"/>
<path d="M95.9 40.1H105.9V50.1H95.9V40.1Z" fill="black"/>
<path d="M85.9 50.1H95.9V60.1H85.9V50.1ZM185.9 90.1V130.1H195.9V70.1H185.9V90.1ZM105.9 110.1V70.1H95.9V130.1H105.9V110.1ZM155.9 40.1V30.1H135.9V40.1H155.9Z" fill="black"/>
<path d="M125.9 40.1H135.9V50.1H125.9V40.1ZM155.9 40.1H165.9V50.1H155.9V40.1Z" fill="black"/>
<path d="M165.9 50.1H175.9V60.1H165.9V50.1Z" fill="black"/>
<path d="M175.9 60.1H185.9V70.1H175.9V60.1ZM115.9 50.1H125.9V60.1H115.9V50.1Z" fill="black"/>
<path d="M105.9 60.1H115.9V70.1H105.9V60.1ZM135.9 190.1V200.1H155.9V190.1H135.9V190.1ZM155.9 110.1V100.1H135.9V110.1H155.9ZM135.9 170.1V180.1H155.9V170.1H135.9Z" fill="black"/>
<path d="M155.9 160.1H165.9V170.1H155.9V160.1ZM155.9 110.1H165.9V120.1H155.9V110.1ZM175.9 130.1H185.9V140.1H175.9V130.1Z" fill="black"/>
<path d="M185.9 140.1V160.1H195.9V150.1H205.9V140.1H185.9V140.1ZM165.9 120.1H175.9V130.1H165.9V120.1ZM215.9 160.1H225.9V170.1H215.9V160.1Z" fill="black"/>
<path d="M215.9 120.1V60.1H205.9V140.1H215.9V130.1H225.9V160.1H235.9V120.1H215.9V120.1ZM175.9 160.1H185.9V170.1H175.9V160.1Z" fill="black"/>
<path d="M165.9 170.1H175.9V180.1H165.9V170.1Z" fill="black"/>
<path d="M155.9 180.1H165.9V190.1H155.9V180.1ZM75.9 170.1H85.9V180.1H75.9V170.1Z" fill="black"/>
<path d="M85.9 180.1H95.9V190.1H85.9V180.1Z" fill="black"/>
<path d="M95.9 190.1H105.9V200.1H95.9V190.1Z" fill="black"/>
<path d="M105.9 200.1H115.9V210.1H105.9V200.1Z" fill="black"/>
<path d="M125.9 220.1H175.9V210.1H115.9V220.1H125.9V220.1ZM205.9 170.1H215.9V180.1H205.9V170.1Z" fill="black"/>
<path d="M195.9 180.1H205.9V190.1H195.9V180.1Z" fill="black"/>
<path d="M185.9 190.1H195.9V200.1H185.9V190.1Z" fill="black"/>
<path d="M175.9 200.1H185.9V210.1H175.9V200.1Z" fill="black"/>
<path d="M225.9 190.1H215.9V200.1H225.9V210.1H215.9V200.1H205.9V210.1H185.9V220.1H226.4V248.5H235.9V170.1H225.9V190.1ZM125.9 160.1H135.9V170.1H125.9V160.1ZM145.9 120.1H135.9V130.1H155.9V120.1H145.9Z" fill="black"/>
<path d="M155.9 130.1H165.9V140.1H155.9V130.1ZM125.9 130.1H135.9V140.1H125.9V130.1Z" fill="black"/>
<path d="M165.9 150.1V160.1H175.9V140.1H165.9V150.1V150.1ZM125.9 140.1H115.9V160.1H125.9V140.1V140.1Z" fill="black"/>
<path d="M125.9 110.1H135.9V120.1H125.9V110.1ZM105.9 130.1H115.9V140.1H105.9V130.1Z" fill="black"/>
<path d="M105.9 140.1H85.9V150.1H95.9V160.1H105.9V140.1V140.1ZM115.9 120.1H125.9V130.1H115.9V120.1ZM65.9 160.1H75.9V170.1H65.9V160.1Z" fill="black"/>
<path d="M65.9 140.1V130.1H75.9V140.1H85.9V60.1H75.9V120.1H55.9V160.1H65.9V140.1V140.1ZM105.9 160.1H115.9V170.1H105.9V160.1Z" fill="black"/>
<path d="M115.9 170.1H125.9V180.1H115.9V170.1Z" fill="black"/>
<path d="M125.9 180.1H135.9V190.1H125.9V180.1ZM65.4 229.5V220H105.9V210H85.9V200H75.9V210H65.9V200H75.9V190H65.9V170H55.9V248.4H65.4V229.5ZM188.5 286.4H84.3V295.9H207.5V286.4H188.5Z" fill="black"/>
<path d="M207.5 248.5H65.4V258H74.9V286.4H84.4V258H207.6V286.4H217.1V258H226.6V248.5H207.5Z" fill="black"/>
<path d="M103.4 227.6V229.7H94.8V227.6H103.4ZM96.9 236.2V240.5H105.5V242.6H94.8V236.2H96.9V236.2ZM103.4 236.2H96.9V234H103.4V236.2V236.2ZM105.5 234H103.4V229.7H105.5V234ZM109.8 234V242.6H107.7V231.9H116.3V234H109.8V234ZM118.4 234V242.6H116.3V234H118.4V234ZM122.6 240.5H120.5V234H122.6V240.5V240.5ZM122.6 234V231.9H129.1V227.6H131.2V242.6H122.6V240.5H129.1V234H122.6V234ZM144 229.7V234H141.9V229.7H144ZM141.9 240.5H150.5V242.6H141.9V240.5ZM152.6 229.7H144V227.6H152.6V229.7ZM144 236.2V234H150.5V236.2H144V236.2ZM150.5 240.5V236.2H152.6V240.5H150.5ZM165.5 227.6V231.9H163.4V229.7H154.8V227.6H165.5V227.6ZM154.7 238.3H156.8V240.5H165.4V242.6H154.7V238.3V238.3ZM156.9 236.2H159.1V238.3H156.9V236.2ZM159 234H161.1V236.2H159V234V234ZM161.2 231.9H163.4V234H161.2V231.9ZM171.9 231.9V234H169.7V242.6H167.6V227.6H169.7V231.9H171.9V231.9ZM174 234V236.2H171.9V234H174V234ZM178.3 227.6V242.6H176.2V238.3H174V236.2H176.2V227.6H178.3V227.6ZM197.6 227.6V229.7H189V227.6H197.6ZM191.1 236.2V240.5H199.7V242.6H189V236.2H191.1V236.2ZM197.6 236.2H191.1V234H197.6V236.2V236.2ZM199.7 234H197.6V229.7H199.7V234Z" fill="black" stroke="black" stroke-width="0.199" stroke-miterlimit="10"/>
<path d="M119 271.8V273.6H120.8V279.1H119V273.6H113.5V279.1H111.7V266.3H119V268.1H113.5V271.8H119ZM119 271.8V268.1H120.8V271.8H119ZM133.1 268.2V279.2H131.3V273.7H125.8V279.2H124V268.2H125.8V271.9H131.3V268.2H133.1V268.2ZM131.2 268.2H125.7V266.4H131.2V268.2ZM143.5 271.8V273.6H145.3V279.1H143.5V273.6H138V279.1H136.2V266.3H143.5V268.1H138V271.8H143.5ZM143.5 271.8V268.1H145.3V271.8H143.5ZM152 268.2V277.4H153.8V279.2H148.3V277.4H150.1V268.2H148.3V266.4H153.8V268.2H152ZM166.1 268.2H162.4V279.2H160.6V268.2H156.9V266.4H166.1V268.2ZM171 266.4V271.9H169.2V266.4H171ZM172.8 271.8V273.6H171V271.8H172.8ZM172.8 273.7H174.6V279.2H172.8V273.7ZM174.6 271.8H176.4V273.6H174.6V271.8ZM178.3 266.4V271.9H176.5V266.4H178.3Z" fill="white" stroke="white" stroke-width="0.234" stroke-miterlimit="10"/>
</svg>
