<svg width="286" height="296" viewBox="0 0 286 296" fill="none" xmlns="http://www.w3.org/2000/svg">
<path d="M232.9 160.1V120.1H212.9V60.1H202.9V50.1H192.9V40.1H182.9V30.1H172.9V20.1H162.9V10.1H152.9V0.0999756H132.9V10.1H122.9V20.1H112.9V30.1H102.9V40.1H92.9V50.1H82.9V60.1H72.9V120.1H52.9V160.1H62.9V170.1H52.9V248.5H62.4V258H71.9V286.4H81.4V295.9H204.6V286.4H214.1V258H223.6V248.5H233.1V170.1H223.1V160.1H232.9ZM112.9 220.1H102.9V210.1H112.9V220.1ZM182.9 220.1H172.9V210.1H182.9V220.1Z" fill="black"/>
<path d="M212.9 130.1V140.1H202.9V150.1H192.9V160.1H182.9V170.1H172.9V180.1H162.9V190.1H152.9V200.1H132.9V190.1H122.9V180.1H112.9V170.1H102.9V160.1H92.9V150.1H82.9V140.1H72.9V130.1H62.9V160.1H72.9V170.1H82.9V180.1H92.9V190.1H102.9V200.1H112.9V210.1H172.9V200.1H182.9V190.1H192.9V180.1H202.9V170.1H212.9V160.1H222.9V130.1H212.9V130.1ZM62.9 200.1H72.9V210.1H62.9V200.1Z" fill="#F7F5F5"/>
<path d="M212.9 200.1H222.9V210.1H212.9V200.1ZM102.9 140.1V130.1H92.9V70.1H102.9V60.1H112.9V50.1H122.9V40.1H132.9V30.1H152.9V40.1H162.9V50.1H172.9V60.1H182.9V70.1H192.9V130.1H182.9V140.1H172.9V150.1H162.9V140.1H152.9V130.1H132.9V140.1H122.9V150.1H112.9V140.1H102.9V160.1H112.9V170.1H122.9V180.1H132.9V190.1H152.9V180.1H162.9V170.1H172.9V160.1H182.9V150.1H192.9V140.1H202.9V60.1H192.9V50.1H182.9V40.1H172.9V30.1H162.9V20.1H152.9V10.1H132.9V20.1H122.9V30.1H112.9V40.1H102.9V50.1H92.9V60.1H82.9V140.1H102.9Z" fill="#F7F5F5"/>
<path d="M112.9 140.1H122.9V130.1H132.9V120.1H152.9V110.1H162.9V120.1H172.9V130.1H182.9V70.1H172.9V60.1H162.9V50.1H152.9V40.1H132.9V50.1H122.9V60.1H112.9V70.1H102.9V130.1H112.9V140.1V140.1ZM92.9 190.1H82.9V180.1H72.9V170.1H62.9V190.1H72.9V200.1H82.9V210.1H102.9V200.1H92.9V190.1Z" fill="#F7F5F5"/>
<path d="M202.9 180.1V190.1H192.9V200.1H182.9V210.1H202.9V200.1H212.9V190.1H222.9V170.1H212.9V180.1H202.9ZM162.9 130.1H172.9V140.1H162.9V130.1Z" fill="#F7F5F5"/>
<path d="M152.9 120.1H162.9V130.1H152.9V120.1Z" fill="#F7F5F5"/>
<path d="M142.9 110.1H152.9V120.1H142.9V110.1ZM132.9 140.1V150.1V160.1H142.9V150.1H152.9V140.1H142.9H132.9ZM162.9 130.1H172.9V140.1H162.9V130.1Z" fill="#A0A0A0"/>
<path d="M142.9 10.1H152.9V20.1H142.9V10.1Z" fill="#919191"/>
<path d="M152.9 20.1H162.9V30.1H152.9V20.1Z" fill="#919191"/>
<path d="M162.9 30.1H172.9V40.1H162.9V30.1Z" fill="#919191"/>
<path d="M172.9 40.1H182.9V50.1H172.9V40.1Z" fill="#919191"/>
<path d="M182.9 50.1H192.9V60.1H182.9V50.1Z" fill="#919191"/>
<path d="M192.9 60.1H202.9V70.1H192.9V60.1ZM192.9 110.1V140.1H202.9V100.1H192.9V110.1Z" fill="#919191"/>
<path d="M82.9 130.1H92.9V140.1H82.9V130.1ZM182.9 140.1H192.9V150.1H182.9V140.1Z" fill="#919191"/>
<path d="M172.9 150.1H182.9V160.1H172.9V150.1Z" fill="#919191"/>
<path d="M162.9 160.1H172.9V170.1H162.9V160.1Z" fill="#919191"/>
<path d="M152.9 170.1H162.9V180.1H152.9V170.1Z" fill="#919191"/>
<path d="M142.9 180.1H152.9V190.1H142.9V180.1ZM142.9 160.1H152.9V170.1H142.9V160.1Z" fill="#919191"/>
<path d="M152.9 150.1H162.9V160.1H152.9V150.1Z" fill="#919191"/>
<path d="M122.9 90.1V80.1H112.9V100.1H122.9V90.1Z" fill="#F7F5F5"/>
<path d="M102.9 110.1V120.1H112.9V100.1H102.9V110.1ZM122.9 70.1H132.9V80.1H122.9V70.1ZM122.9 120.1H132.9V130.1H122.9V120.1Z" fill="#F7F5F5"/>
<path d="M132.9 110.1H142.9V120.1H132.9V110.1Z" fill="#F7F5F5"/>
<path d="M152.9 80.1H142.9V110.1H152.9V90.1H162.9V60.1H152.9V80.1ZM132.9 60.1H142.9V70.1H132.9V60.1Z" fill="#F7F5F5"/>
<path d="M152.9 50.1V40.1H142.9V60.1H152.9V50.1Z" fill="#F7F5F5"/>
<path d="M132.9 10.1H142.9V20.1H132.9V10.1Z" fill="white"/>
<path d="M122.9 20.1H132.9V30.1H122.9V20.1Z" fill="white"/>
<path d="M112.9 30.1H122.9V40.1H112.9V30.1Z" fill="white"/>
<path d="M102.9 40.1H112.9V50.1H102.9V40.1Z" fill="white"/>
<path d="M92.9 50.1H102.9V60.1H92.9V50.1Z" fill="white"/>
<path d="M82.9 60.1H92.9V70.1H82.9V60.1Z" fill="white"/>
<path d="M182.9 130.1H192.9V140.1H182.9V130.1Z" fill="#F7F5F5"/>
<path d="M172.9 140.1H182.9V150.1H172.9V140.1Z" fill="#F7F5F5"/>
<path d="M162.9 150.1H172.9V160.1H162.9V150.1Z" fill="#F7F5F5"/>
<path d="M152.9 160.1H162.9V170.1H152.9V160.1Z" fill="#F7F5F5"/>
<path d="M142.9 170.1H152.9V180.1H142.9V170.1ZM212.9 130.1H222.9V140.1H212.9V130.1ZM142.9 150.1H152.9V130.1H142.9V140.1H132.9V150.1H122.9V160.1H142.9V150.1ZM62.9 200.1H72.9V210.1H62.9V200.1ZM212.9 200.1H222.9V210.1H212.9V200.1ZM62.9 130.1H72.9V140.1H62.9V130.1Z" fill="#F7F5F5"/>
<path d="M162.9 60.1V90.1H172.9V60.1H162.9ZM162.9 100.1H172.9V120.1H162.9V100.1ZM92.9 110.1H82.9V130.1H92.9V110.1Z" fill="#C0C0C0"/>
<path d="M92.9 130.1H102.9V140.1H92.9V130.1Z" fill="#C0C0C0"/>
<path d="M102.9 140.1H112.9V150.1H102.9V140.1Z" fill="#C0C0C0"/>
<path d="M112.9 150.1H122.9V160.1H112.9V150.1Z" fill="#C0C0C0"/>
<path d="M122.9 160.1V170.1H132.9V180.1H142.9V160.1H122.9Z" fill="#C0C0C0"/>
<path d="M142.9 150.1H152.9V160.1H142.9V150.1Z" fill="#C0C0C0"/>
<path d="M132.9 50.1H122.9V60.1H112.9V70.1H102.9V80.1V90.1V100.1H112.9V90.1V80.1H122.9V70.1H132.9V60.1H142.9V50.1V40.1H132.9V50.1ZM152.9 190.1H162.9V200.1H152.9V190.1Z" fill="white"/>
<path d="M162.9 180.1H172.9V190.1H162.9V180.1Z" fill="white"/>
<path d="M172.9 170.1H182.9V180.1H172.9V170.1Z" fill="white"/>
<path d="M182.9 160.1H192.9V170.1H182.9V160.1Z" fill="white"/>
<path d="M192.9 150.1H202.9V160.1H192.9V150.1Z" fill="white"/>
<path d="M202.9 140.1H212.9V150.1H202.9V140.1ZM62.9 180.1H72.9V190.1H62.9V180.1ZM212.9 180.1H222.9V190.1H212.9V180.1ZM122.9 190.1H132.9V200.1H122.9V190.1Z" fill="white"/>
<path d="M112.9 180.1H122.9V190.1H112.9V180.1Z" fill="white"/>
<path d="M102.9 170.1H112.9V180.1H102.9V170.1Z" fill="white"/>
<path d="M92.9 160.1H102.9V170.1H92.9V160.1Z" fill="white"/>
<path d="M82.9 150.1H92.9V160.1H82.9V150.1ZM132.9 130.1H142.9V140.1H132.9V130.1ZM132.9 110.1H142.9V120.1H132.9V110.1Z" fill="white"/>
<path d="M122.9 120.1H132.9V130.1H122.9V120.1ZM122.9 140.1H132.9V150.1H122.9V140.1ZM102.9 140.1H112.9V150.1H102.9V140.1Z" fill="white"/>
<path d="M112.9 130.1H122.9V140.1H112.9V130.1ZM72.9 140.1H82.9V150.1H72.9V140.1Z" fill="white"/>
<path d="M132.9 160.1H142.9V170.1H132.9V160.1ZM162.9 100.1H172.9V130.1H182.9V70.1H172.9V90.1H152.9V110.1H162.9V100.1Z" fill="#A0A0A0"/>
<path d="M142.9 150.1H152.9V160.1H142.9V150.1Z" fill="#A0A0A0"/>
<path d="M152.9 140.1H162.9V150.1H152.9V140.1ZM152.9 200.1H112.9V210.1H172.9V200.1H152.9ZM152.9 170.1H162.9V180.1H152.9V170.1Z" fill="#A0A0A0"/>
<path d="M142.9 180.1H152.9V190.1H142.9V180.1ZM162.9 160.1H172.9V170.1H162.9V160.1ZM172.9 190.1H182.9V200.1H172.9V190.1ZM202.9 160.1H212.9V170.1H202.9V160.1Z" fill="#A0A0A0"/>
<path d="M212.9 150.1H222.9V160.1H212.9V150.1ZM182.9 180.1H192.9V190.1H182.9V180.1Z" fill="#A0A0A0"/>
<path d="M192.9 170.1H202.9V180.1H192.9V170.1ZM72.9 180.1H82.9V190.1H72.9V180.1Z" fill="#A0A0A0"/>
<path d="M62.9 170.1H72.9V180.1H62.9V170.1ZM92.9 200.1H102.9V210.1H92.9V200.1Z" fill="#A0A0A0"/>
<path d="M82.9 190.1H92.9V200.1H82.9V190.1ZM202.9 180.1H212.9V190.1H202.9V180.1Z" fill="#A0A0A0"/>
<path d="M212.9 170.1H222.9V180.1H212.9V170.1ZM182.9 200.1H192.9V210.1H182.9V200.1Z" fill="#A0A0A0"/>
<path d="M192.9 190.1H202.9V200.1H192.9V190.1ZM172.9 150.1H182.9V160.1H172.9V150.1ZM102.9 190.1H112.9V200.1H102.9V190.1ZM72.9 160.1H82.9V170.1H72.9V160.1Z" fill="#A0A0A0"/>
<path d="M62.9 150.1H72.9V160.1H62.9V150.1ZM92.9 180.1H102.9V190.1H92.9V180.1Z" fill="#A0A0A0"/>
<path d="M82.9 170.1H92.9V180.1H82.9V170.1Z" fill="#A0A0A0"/>
<path d="M81.3 258V286.4H204.5V258H81.3Z" fill="#FF00FF"/>
<path d="M142.9 70.1H132.9V80.1H122.9V100.1H112.9V120.1H102.9V130.1H122.9V120.1H132.9V110.1H142.9V80.1H152.9V60.1H142.9V70.1V70.1Z" fill="#DAD6D6"/>
<path d="M152.9 50.1H162.9V60.1H152.9V50.1ZM152.9 30.1V20.1H132.9V30.1H152.9Z" fill="#DAD6D6"/>
<path d="M152.9 30.1H162.9V40.1H152.9V30.1Z" fill="#DAD6D6"/>
<path d="M162.9 40.1H172.9V50.1H162.9V40.1Z" fill="#DAD6D6"/>
<path d="M172.9 50.1H182.9V60.1H172.9V50.1Z" fill="#DAD6D6"/>
<path d="M182.9 60.1H192.9V70.1H182.9V60.1Z" fill="#DAD6D6"/>
<path d="M192.9 90.1V100.1H202.9V70.1H192.9V90.1ZM92.9 100.1V70.1H82.9V110.1H92.9V100.1ZM122.9 30.1H132.9V40.1H122.9V30.1Z" fill="#DAD6D6"/>
<path d="M112.9 40.1H122.9V50.1H112.9V40.1Z" fill="#DAD6D6"/>
<path d="M102.9 50.1H112.9V60.1H102.9V50.1Z" fill="#DAD6D6"/>
<path d="M92.9 60.1H102.9V70.1H92.9V60.1ZM162.9 190.1H172.9V200.1H162.9V190.1Z" fill="#DAD6D6"/>
<path d="M132.9 180.1H142.9V190.1H132.9V180.1ZM172.9 180.1H182.9V190.1H172.9V180.1ZM202.9 150.1H212.9V160.1H202.9V150.1Z" fill="#DAD6D6"/>
<path d="M212.9 140.1H222.9V150.1H212.9V140.1ZM182.9 170.1H192.9V180.1H182.9V170.1Z" fill="#DAD6D6"/>
<path d="M192.9 160.1H202.9V170.1H192.9V160.1ZM72.9 190.1H82.9V200.1H72.9V190.1Z" fill="#DAD6D6"/>
<path d="M82.9 200.1H92.9V210.1H82.9V200.1ZM202.9 190.1H212.9V200.1H202.9V190.1Z" fill="#DAD6D6"/>
<path d="M192.9 200.1H202.9V210.1H192.9V200.1ZM112.9 190.1H122.9V200.1H112.9V190.1ZM122.9 170.1H132.9V180.1H122.9V170.1ZM142.9 110.1H152.9V120.1H142.9V110.1ZM162.9 130.1H172.9V140.1H162.9V130.1Z" fill="#DAD6D6"/>
<path d="M152.9 120.1H162.9V130.1H152.9V120.1ZM102.9 150.1H112.9V160.1H102.9V150.1Z" fill="#DAD6D6"/>
<path d="M172.9 140.1H182.9V150.1H172.9V140.1ZM112.9 160.1H122.9V170.1H112.9V160.1ZM102.9 180.1H112.9V190.1H102.9V180.1ZM72.9 150.1H82.9V160.1H72.9V150.1Z" fill="#DAD6D6"/>
<path d="M62.9 140.1H72.9V150.1H62.9V140.1ZM92.9 170.1H102.9V180.1H92.9V170.1Z" fill="#DAD6D6"/>
<path d="M82.9 160.1H92.9V170.1H82.9V160.1Z" fill="#DAD6D6"/>
<path d="M213.9 220.1H62.3V248.5H223.4V220.1H213.9Z" fill="#F7F5F5"/>
<path d="M152.9 10.1V0.0999756H132.9V10.1H152.9Z" fill="black"/>
<path d="M152.9 10.1H162.9V20.1H152.9V10.1Z" fill="black"/>
<path d="M162.9 20.1H172.9V30.1H162.9V20.1Z" fill="black"/>
<path d="M172.9 30.1H182.9V40.1H172.9V30.1Z" fill="black"/>
<path d="M182.9 40.1H192.9V50.1H182.9V40.1Z" fill="black"/>
<path d="M192.9 50.1H202.9V60.1H192.9V50.1ZM122.9 10.1H132.9V20.1H122.9V10.1Z" fill="black"/>
<path d="M112.9 20.1H122.9V30.1H112.9V20.1Z" fill="black"/>
<path d="M102.9 30.1H112.9V40.1H102.9V30.1Z" fill="black"/>
<path d="M92.9 40.1H102.9V50.1H92.9V40.1Z" fill="black"/>
<path d="M82.9 50.1H92.9V60.1H82.9V50.1ZM182.9 90.1V130.1H192.9V70.1H182.9V90.1ZM102.9 110.1V70.1H92.9V130.1H102.9V110.1ZM152.9 40.1V30.1H132.9V40.1H152.9Z" fill="black"/>
<path d="M122.9 40.1H132.9V50.1H122.9V40.1ZM152.9 40.1H162.9V50.1H152.9V40.1Z" fill="black"/>
<path d="M162.9 50.1H172.9V60.1H162.9V50.1Z" fill="black"/>
<path d="M172.9 60.1H182.9V70.1H172.9V60.1ZM112.9 50.1H122.9V60.1H112.9V50.1Z" fill="black"/>
<path d="M102.9 60.1H112.9V70.1H102.9V60.1ZM132.9 190.1V200.1H152.9V190.1H132.9V190.1ZM152.9 110.1V100.1H132.9V110.1H152.9ZM132.9 170.1V180.1H152.9V170.1H132.9Z" fill="black"/>
<path d="M152.9 160.1H162.9V170.1H152.9V160.1ZM152.9 110.1H162.9V120.1H152.9V110.1ZM172.9 130.1H182.9V140.1H172.9V130.1Z" fill="black"/>
<path d="M182.9 140.1V160.1H192.9V150.1H202.9V140.1H182.9V140.1ZM162.9 120.1H172.9V130.1H162.9V120.1ZM212.9 160.1H222.9V170.1H212.9V160.1Z" fill="black"/>
<path d="M212.9 120.1V60.1H202.9V140.1H212.9V130.1H222.9V160.1H232.9V120.1H212.9V120.1ZM172.9 160.1H182.9V170.1H172.9V160.1Z" fill="black"/>
<path d="M162.9 170.1H172.9V180.1H162.9V170.1Z" fill="black"/>
<path d="M152.9 180.1H162.9V190.1H152.9V180.1ZM72.9 170.1H82.9V180.1H72.9V170.1Z" fill="black"/>
<path d="M82.9 180.1H92.9V190.1H82.9V180.1Z" fill="black"/>
<path d="M92.9 190.1H102.9V200.1H92.9V190.1Z" fill="black"/>
<path d="M102.9 200.1H112.9V210.1H102.9V200.1Z" fill="black"/>
<path d="M122.9 220.1H172.9V210.1H112.9V220.1H122.9V220.1ZM202.9 170.1H212.9V180.1H202.9V170.1Z" fill="black"/>
<path d="M192.9 180.1H202.9V190.1H192.9V180.1Z" fill="black"/>
<path d="M182.9 190.1H192.9V200.1H182.9V190.1Z" fill="black"/>
<path d="M172.9 200.1H182.9V210.1H172.9V200.1Z" fill="black"/>
<path d="M222.9 190.1H212.9V200.1H222.9V210.1H212.9V200.1H202.9V210.1H182.9V220.1H223.4V248.5H232.9V170.1H222.9V190.1ZM122.9 160.1H132.9V170.1H122.9V160.1ZM142.9 120.1H132.9V130.1H152.9V120.1H142.9Z" fill="black"/>
<path d="M152.9 130.1H162.9V140.1H152.9V130.1ZM122.9 130.1H132.9V140.1H122.9V130.1Z" fill="black"/>
<path d="M162.9 150.1V160.1H172.9V140.1H162.9V150.1V150.1ZM122.9 140.1H112.9V160.1H122.9V140.1V140.1Z" fill="black"/>
<path d="M122.9 110.1H132.9V120.1H122.9V110.1ZM102.9 130.1H112.9V140.1H102.9V130.1Z" fill="black"/>
<path d="M102.9 140.1H82.9V150.1H92.9V160.1H102.9V140.1V140.1ZM112.9 120.1H122.9V130.1H112.9V120.1ZM62.9 160.1H72.9V170.1H62.9V160.1Z" fill="black"/>
<path d="M62.9 140.1V130.1H72.9V140.1H82.9V60.1H72.9V120.1H52.9V160.1H62.9V140.1V140.1ZM102.9 160.1H112.9V170.1H102.9V160.1Z" fill="black"/>
<path d="M112.9 170.1H122.9V180.1H112.9V170.1Z" fill="black"/>
<path d="M122.9 180.1H132.9V190.1H122.9V180.1ZM62.4 229.6V220.1H102.9V210.1H82.9V200.1H72.9V210.1H62.9V200.1H72.9V190.1H62.9V170.1H52.9V248.5H62.4V229.6ZM185.5 286.4H81.3V295.9H204.5V286.4H185.5Z" fill="black"/>
<path d="M204.5 248.5H62.4V258H71.9V286.4H81.4V258H204.6V286.4H214.1V258H223.6V248.5H204.5Z" fill="black"/>
<path d="M100.4 227.7V229.8H91.8V227.7H100.4ZM93.9 236.3V240.6H102.5V242.7H91.8V236.3H93.9V236.3ZM100.4 236.3H93.9V234.1H100.4V236.3ZM102.5 234.1H100.4V229.8H102.5V234.1ZM106.8 234.1V242.7H104.7V232H113.3V234.1H106.8ZM115.4 234.1V242.7H113.3V234.1H115.4ZM119.6 240.6H117.5V234.1H119.6V240.6ZM119.6 234.1V232H126.1V227.7H128.2V242.7H119.6V240.6H126.1V234.1H119.6V234.1ZM141 229.8V234.1H138.9V229.8H141ZM138.9 240.6H147.5V242.7H138.9V240.6ZM149.6 229.8H141V227.7H149.6V229.8ZM141 236.3V234.1H147.5V236.3H141V236.3ZM147.5 240.6V236.3H149.6V240.6H147.5ZM162.5 227.7V232H160.4V229.8H151.8V227.7H162.5V227.7ZM151.7 238.4H153.8V240.6H162.4V242.7H151.7V238.4V238.4ZM153.9 236.3H156.1V238.4H153.9V236.3ZM156 234.1H158.1V236.3H156V234.1ZM158.2 232H160.4V234.1H158.2V232ZM168.9 232V234.1H166.7V242.7H164.6V227.7H166.7V232H168.9V232ZM171 234.1V236.3H168.9V234.1H171ZM175.3 227.7V242.7H173.2V238.4H171V236.3H173.2V227.7H175.3V227.7ZM194.6 227.7V229.8H186V227.7H194.6ZM188.1 236.3V240.6H196.7V242.7H186V236.3H188.1V236.3ZM194.6 236.3H188.1V234.1H194.6V236.3ZM196.7 234.1H194.6V229.8H196.7V234.1Z" fill="black" stroke="black" stroke-width="0.199" stroke-miterlimit="10"/>
<path d="M108.1 271.9V273.7H106.3V279.2H104.5V266.4H106.3V271.9H108.1ZM109.9 271.9H108.1V270.1H109.9V271.9ZM108.1 275.6V273.8H109.9V275.6H108.1ZM111.7 270.1H109.9V268.3H111.7V270.1ZM109.9 277.4V275.6H111.7V277.4H109.9ZM113.5 268.2H111.7V266.4H113.5V268.2ZM111.7 279.2V277.4H113.5V279.2H111.7Z" fill="white" stroke="white" stroke-width="0.234" stroke-miterlimit="10"/>
<path d="M128.8 270.1V271.9H127V279.2H125.2V266.4H127V270.1H128.8ZM130.7 271.9V273.7H128.9V271.9H130.7ZM134.3 266.4V279.2H132.5V275.5H130.7V273.7H132.5V266.4H134.3ZM139.2 268.2V271.9H137.4V268.2H139.2ZM137.4 277.4H144.7V279.2H137.4V277.4ZM146.6 268.2H139.3V266.4H146.6V268.2ZM139.2 273.7V271.9H144.7V273.7H139.2ZM144.7 277.4V273.7H146.5V277.4H144.7ZM158.8 266.4V279.2H157V273.7H151.5V279.2H149.7V266.4H151.5V271.9H157V266.4H158.8Z" fill="white" stroke="white" stroke-width="0.234" stroke-miterlimit="10"/>
<path d="M172.3 271.9H177.8V273.7H172.3V279.2H170.5V266.4H177.8V268.2H172.3V271.9ZM179.6 268.2V271.9H177.8V268.2H179.6Z" fill="white" stroke="white" stroke-width="0.234" stroke-miterlimit="10"/>
</svg>
