<svg width="304" height="296" viewBox="0 0 304 296" fill="none" xmlns="http://www.w3.org/2000/svg">
<path d="M241.9 160.1V120.1H221.9V60.1H211.9V50.1H201.9V40.1H191.9V30.1H181.9V20.1H171.9V10.1H161.9V0.0999756H141.9V10.1H131.9V20.1H121.9V30.1H111.9V40.1H101.9V50.1H91.9V60.1H81.9V120.1H61.9V160.1H71.9V170.1H61.9V248.5H71.4V258H80.9V286.4H90.4V295.9H213.6V286.4H223.1V258H232.6V248.5H242.1V170.1H232.1V160.1H241.9ZM121.9 220.1H111.9V210.1H121.9V220.1ZM191.9 220.1H181.9V210.1H191.9V220.1Z" fill="black"/>
<path d="M221.9 130.1V140.1H211.9V150.1H201.9V160.1H191.9V170.1H181.9V180.1H171.9V190.1H161.9V200.1H141.9V190.1H131.9V180.1H121.9V170.1H111.9V160.1H101.9V150.1H91.9V140.1H81.9V130.1H71.9V160.1H81.9V170.1H91.9V180.1H101.9V190.1H111.9V200.1H121.9V210.1H181.9V200.1H191.9V190.1H201.9V180.1H211.9V170.1H221.9V160.1H231.9V130.1H221.9V130.1ZM71.9 200.1H81.9V210.1H71.9V200.1Z" fill="#F7F5F5"/>
<path d="M221.9 200.1H231.9V210.1H221.9V200.1ZM111.9 140.1V130.1H101.9V70.1H111.9V60.1H121.9V50.1H131.9V40.1H141.9V30.1H161.9V40.1H171.9V50.1H181.9V60.1H191.9V70.1H201.9V130.1H191.9V140.1H181.9V150.1H171.9V140.1H161.9V130.1H141.9V140.1H131.9V150.1H121.9V140.1H111.9V160.1H121.9V170.1H131.9V180.1H141.9V190.1H161.9V180.1H171.9V170.1H181.9V160.1H191.9V150.1H201.9V140.1H211.9V60.1H201.9V50.1H191.9V40.1H181.9V30.1H171.9V20.1H161.9V10.1H141.9V20.1H131.9V30.1H121.9V40.1H111.9V50.1H101.9V60.1H91.9V140.1H111.9Z" fill="#F7F5F5"/>
<path d="M121.9 140.1H131.9V130.1H141.9V120.1H161.9V110.1H171.9V120.1H181.9V130.1H191.9V70.1H181.9V60.1H171.9V50.1H161.9V40.1H141.9V50.1H131.9V60.1H121.9V70.1H111.9V130.1H121.9V140.1V140.1ZM101.9 190.1H91.9V180.1H81.9V170.1H71.9V190.1H81.9V200.1H91.9V210.1H111.9V200.1H101.9V190.1Z" fill="#F7F5F5"/>
<path d="M211.9 180.1V190.1H201.9V200.1H191.9V210.1H211.9V200.1H221.9V190.1H231.9V170.1H221.9V180.1H211.9ZM171.9 130.1H181.9V140.1H171.9V130.1Z" fill="#F7F5F5"/>
<path d="M161.9 120.1H171.9V130.1H161.9V120.1Z" fill="#F7F5F5"/>
<path d="M151.9 110.1H161.9V120.1H151.9V110.1ZM141.9 140.1V150.1V160.1H151.9V150.1H161.9V140.1H151.9H141.9ZM171.9 130.1H181.9V140.1H171.9V130.1Z" fill="#A0A0A0"/>
<path d="M151.9 10.1H161.9V20.1H151.9V10.1Z" fill="#919191"/>
<path d="M161.9 20.1H171.9V30.1H161.9V20.1Z" fill="#919191"/>
<path d="M171.9 30.1H181.9V40.1H171.9V30.1Z" fill="#919191"/>
<path d="M181.9 40.1H191.9V50.1H181.9V40.1Z" fill="#919191"/>
<path d="M191.9 50.1H201.9V60.1H191.9V50.1Z" fill="#919191"/>
<path d="M201.9 60.1H211.9V70.1H201.9V60.1ZM201.9 110.1V140.1H211.9V100.1H201.9V110.1Z" fill="#919191"/>
<path d="M91.9 130.1H101.9V140.1H91.9V130.1ZM191.9 140.1H201.9V150.1H191.9V140.1Z" fill="#919191"/>
<path d="M181.9 150.1H191.9V160.1H181.9V150.1Z" fill="#919191"/>
<path d="M171.9 160.1H181.9V170.1H171.9V160.1Z" fill="#919191"/>
<path d="M161.9 170.1H171.9V180.1H161.9V170.1Z" fill="#919191"/>
<path d="M151.9 180.1H161.9V190.1H151.9V180.1ZM151.9 160.1H161.9V170.1H151.9V160.1Z" fill="#919191"/>
<path d="M161.9 150.1H171.9V160.1H161.9V150.1Z" fill="#919191"/>
<path d="M131.9 90.1V80.1H121.9V100.1H131.9V90.1Z" fill="#F7F5F5"/>
<path d="M111.9 110.1V120.1H121.9V100.1H111.9V110.1ZM131.9 70.1H141.9V80.1H131.9V70.1ZM131.9 120.1H141.9V130.1H131.9V120.1Z" fill="#F7F5F5"/>
<path d="M141.9 110.1H151.9V120.1H141.9V110.1Z" fill="#F7F5F5"/>
<path d="M161.9 80.1H151.9V110.1H161.9V90.1H171.9V60.1H161.9V80.1ZM141.9 60.1H151.9V70.1H141.9V60.1Z" fill="#F7F5F5"/>
<path d="M161.9 50.1V40.1H151.9V60.1H161.9V50.1Z" fill="#F7F5F5"/>
<path d="M141.9 10.1H151.9V20.1H141.9V10.1Z" fill="white"/>
<path d="M131.9 20.1H141.9V30.1H131.9V20.1Z" fill="white"/>
<path d="M121.9 30.1H131.9V40.1H121.9V30.1Z" fill="white"/>
<path d="M111.9 40.1H121.9V50.1H111.9V40.1Z" fill="white"/>
<path d="M101.9 50.1H111.9V60.1H101.9V50.1Z" fill="white"/>
<path d="M91.9 60.1H101.9V70.1H91.9V60.1Z" fill="white"/>
<path d="M191.9 130.1H201.9V140.1H191.9V130.1Z" fill="#F7F5F5"/>
<path d="M181.9 140.1H191.9V150.1H181.9V140.1Z" fill="#F7F5F5"/>
<path d="M171.9 150.1H181.9V160.1H171.9V150.1Z" fill="#F7F5F5"/>
<path d="M161.9 160.1H171.9V170.1H161.9V160.1Z" fill="#F7F5F5"/>
<path d="M151.9 170.1H161.9V180.1H151.9V170.1ZM221.9 130.1H231.9V140.1H221.9V130.1ZM151.9 150.1H161.9V130.1H151.9V140.1H141.9V150.1H131.9V160.1H151.9V150.1ZM71.9 200.1H81.9V210.1H71.9V200.1ZM221.9 200.1H231.9V210.1H221.9V200.1ZM71.9 130.1H81.9V140.1H71.9V130.1Z" fill="#F7F5F5"/>
<path d="M171.9 60.1V90.1H181.9V60.1H171.9ZM171.9 100.1H181.9V120.1H171.9V100.1ZM101.9 110.1H91.9V130.1H101.9V110.1Z" fill="#C0C0C0"/>
<path d="M101.9 130.1H111.9V140.1H101.9V130.1Z" fill="#C0C0C0"/>
<path d="M111.9 140.1H121.9V150.1H111.9V140.1Z" fill="#C0C0C0"/>
<path d="M121.9 150.1H131.9V160.1H121.9V150.1Z" fill="#C0C0C0"/>
<path d="M131.9 160.1V170.1H141.9V180.1H151.9V160.1H131.9Z" fill="#C0C0C0"/>
<path d="M151.9 150.1H161.9V160.1H151.9V150.1Z" fill="#C0C0C0"/>
<path d="M141.9 50.1H131.9V60.1H121.9V70.1H111.9V80.1V90.1V100.1H121.9V90.1V80.1H131.9V70.1H141.9V60.1H151.9V50.1V40.1H141.9V50.1ZM161.9 190.1H171.9V200.1H161.9V190.1Z" fill="white"/>
<path d="M171.9 180.1H181.9V190.1H171.9V180.1Z" fill="white"/>
<path d="M181.9 170.1H191.9V180.1H181.9V170.1Z" fill="white"/>
<path d="M191.9 160.1H201.9V170.1H191.9V160.1Z" fill="white"/>
<path d="M201.9 150.1H211.9V160.1H201.9V150.1Z" fill="white"/>
<path d="M211.9 140.1H221.9V150.1H211.9V140.1ZM71.9 180.1H81.9V190.1H71.9V180.1ZM221.9 180.1H231.9V190.1H221.9V180.1ZM131.9 190.1H141.9V200.1H131.9V190.1Z" fill="white"/>
<path d="M121.9 180.1H131.9V190.1H121.9V180.1Z" fill="white"/>
<path d="M111.9 170.1H121.9V180.1H111.9V170.1Z" fill="white"/>
<path d="M101.9 160.1H111.9V170.1H101.9V160.1Z" fill="white"/>
<path d="M91.9 150.1H101.9V160.1H91.9V150.1ZM141.9 130.1H151.9V140.1H141.9V130.1ZM141.9 110.1H151.9V120.1H141.9V110.1Z" fill="white"/>
<path d="M131.9 120.1H141.9V130.1H131.9V120.1ZM131.9 140.1H141.9V150.1H131.9V140.1ZM111.9 140.1H121.9V150.1H111.9V140.1Z" fill="white"/>
<path d="M121.9 130.1H131.9V140.1H121.9V130.1ZM81.9 140.1H91.9V150.1H81.9V140.1Z" fill="white"/>
<path d="M141.9 160.1H151.9V170.1H141.9V160.1ZM171.9 100.1H181.9V130.1H191.9V70.1H181.9V90.1H161.9V110.1H171.9V100.1Z" fill="#A0A0A0"/>
<path d="M151.9 150.1H161.9V160.1H151.9V150.1Z" fill="#A0A0A0"/>
<path d="M161.9 140.1H171.9V150.1H161.9V140.1ZM161.9 200.1H121.9V210.1H181.9V200.1H161.9ZM161.9 170.1H171.9V180.1H161.9V170.1Z" fill="#A0A0A0"/>
<path d="M151.9 180.1H161.9V190.1H151.9V180.1ZM171.9 160.1H181.9V170.1H171.9V160.1ZM181.9 190.1H191.9V200.1H181.9V190.1ZM211.9 160.1H221.9V170.1H211.9V160.1Z" fill="#A0A0A0"/>
<path d="M221.9 150.1H231.9V160.1H221.9V150.1ZM191.9 180.1H201.9V190.1H191.9V180.1Z" fill="#A0A0A0"/>
<path d="M201.9 170.1H211.9V180.1H201.9V170.1ZM81.9 180.1H91.9V190.1H81.9V180.1Z" fill="#A0A0A0"/>
<path d="M71.9 170.1H81.9V180.1H71.9V170.1ZM101.9 200.1H111.9V210.1H101.9V200.1Z" fill="#A0A0A0"/>
<path d="M91.9 190.1H101.9V200.1H91.9V190.1ZM211.9 180.1H221.9V190.1H211.9V180.1Z" fill="#A0A0A0"/>
<path d="M221.9 170.1H231.9V180.1H221.9V170.1ZM191.9 200.1H201.9V210.1H191.9V200.1Z" fill="#A0A0A0"/>
<path d="M201.9 190.1H211.9V200.1H201.9V190.1ZM181.9 150.1H191.9V160.1H181.9V150.1ZM111.9 190.1H121.9V200.1H111.9V190.1ZM81.9 160.1H91.9V170.1H81.9V160.1Z" fill="#A0A0A0"/>
<path d="M71.9 150.1H81.9V160.1H71.9V150.1ZM101.9 180.1H111.9V190.1H101.9V180.1Z" fill="#A0A0A0"/>
<path d="M91.9 170.1H101.9V180.1H91.9V170.1Z" fill="#A0A0A0"/>
<path d="M90.3 258V286.4H213.5V258H90.3Z" fill="#22DFF0"/>
<path d="M151.9 70.1H141.9V80.1H131.9V100.1H121.9V120.1H111.9V130.1H131.9V120.1H141.9V110.1H151.9V80.1H161.9V60.1H151.9V70.1V70.1Z" fill="#DAD6D6"/>
<path d="M161.9 50.1H171.9V60.1H161.9V50.1ZM161.9 30.1V20.1H141.9V30.1H161.9Z" fill="#DAD6D6"/>
<path d="M161.9 30.1H171.9V40.1H161.9V30.1Z" fill="#DAD6D6"/>
<path d="M171.9 40.1H181.9V50.1H171.9V40.1Z" fill="#DAD6D6"/>
<path d="M181.9 50.1H191.9V60.1H181.9V50.1Z" fill="#DAD6D6"/>
<path d="M191.9 60.1H201.9V70.1H191.9V60.1Z" fill="#DAD6D6"/>
<path d="M201.9 90.1V100.1H211.9V70.1H201.9V90.1ZM101.9 100.1V70.1H91.9V110.1H101.9V100.1ZM131.9 30.1H141.9V40.1H131.9V30.1Z" fill="#DAD6D6"/>
<path d="M121.9 40.1H131.9V50.1H121.9V40.1Z" fill="#DAD6D6"/>
<path d="M111.9 50.1H121.9V60.1H111.9V50.1Z" fill="#DAD6D6"/>
<path d="M101.9 60.1H111.9V70.1H101.9V60.1ZM171.9 190.1H181.9V200.1H171.9V190.1Z" fill="#DAD6D6"/>
<path d="M141.9 180.1H151.9V190.1H141.9V180.1ZM181.9 180.1H191.9V190.1H181.9V180.1ZM211.9 150.1H221.9V160.1H211.9V150.1Z" fill="#DAD6D6"/>
<path d="M221.9 140.1H231.9V150.1H221.9V140.1ZM191.9 170.1H201.9V180.1H191.9V170.1Z" fill="#DAD6D6"/>
<path d="M201.9 160.1H211.9V170.1H201.9V160.1ZM81.9 190.1H91.9V200.1H81.9V190.1Z" fill="#DAD6D6"/>
<path d="M91.9 200.1H101.9V210.1H91.9V200.1ZM211.9 190.1H221.9V200.1H211.9V190.1Z" fill="#DAD6D6"/>
<path d="M201.9 200.1H211.9V210.1H201.9V200.1ZM121.9 190.1H131.9V200.1H121.9V190.1ZM131.9 170.1H141.9V180.1H131.9V170.1ZM151.9 110.1H161.9V120.1H151.9V110.1ZM171.9 130.1H181.9V140.1H171.9V130.1Z" fill="#DAD6D6"/>
<path d="M161.9 120.1H171.9V130.1H161.9V120.1ZM111.9 150.1H121.9V160.1H111.9V150.1Z" fill="#DAD6D6"/>
<path d="M181.9 140.1H191.9V150.1H181.9V140.1ZM121.9 160.1H131.9V170.1H121.9V160.1ZM111.9 180.1H121.9V190.1H111.9V180.1ZM81.9 150.1H91.9V160.1H81.9V150.1Z" fill="#DAD6D6"/>
<path d="M71.9 140.1H81.9V150.1H71.9V140.1ZM101.9 170.1H111.9V180.1H101.9V170.1Z" fill="#DAD6D6"/>
<path d="M91.9 160.1H101.9V170.1H91.9V160.1Z" fill="#DAD6D6"/>
<path d="M222.9 220.1H71.3V248.5H232.4V220.1H222.9Z" fill="#F7F5F5"/>
<path d="M161.9 10.1V0.0999756H141.9V10.1H161.9Z" fill="black"/>
<path d="M161.9 10.1H171.9V20.1H161.9V10.1Z" fill="black"/>
<path d="M171.9 20.1H181.9V30.1H171.9V20.1Z" fill="black"/>
<path d="M181.9 30.1H191.9V40.1H181.9V30.1Z" fill="black"/>
<path d="M191.9 40.1H201.9V50.1H191.9V40.1Z" fill="black"/>
<path d="M201.9 50.1H211.9V60.1H201.9V50.1ZM131.9 10.1H141.9V20.1H131.9V10.1Z" fill="black"/>
<path d="M121.9 20.1H131.9V30.1H121.9V20.1Z" fill="black"/>
<path d="M111.9 30.1H121.9V40.1H111.9V30.1Z" fill="black"/>
<path d="M101.9 40.1H111.9V50.1H101.9V40.1Z" fill="black"/>
<path d="M91.9 50.1H101.9V60.1H91.9V50.1ZM191.9 90.1V130.1H201.9V70.1H191.9V90.1ZM111.9 110.1V70.1H101.9V130.1H111.9V110.1ZM161.9 40.1V30.1H141.9V40.1H161.9Z" fill="black"/>
<path d="M131.9 40.1H141.9V50.1H131.9V40.1ZM161.9 40.1H171.9V50.1H161.9V40.1Z" fill="black"/>
<path d="M171.9 50.1H181.9V60.1H171.9V50.1Z" fill="black"/>
<path d="M181.9 60.1H191.9V70.1H181.9V60.1ZM121.9 50.1H131.9V60.1H121.9V50.1Z" fill="black"/>
<path d="M111.9 60.1H121.9V70.1H111.9V60.1ZM141.9 190.1V200.1H161.9V190.1H141.9V190.1ZM161.9 110.1V100.1H141.9V110.1H161.9ZM141.9 170.1V180.1H161.9V170.1H141.9Z" fill="black"/>
<path d="M161.9 160.1H171.9V170.1H161.9V160.1ZM161.9 110.1H171.9V120.1H161.9V110.1ZM181.9 130.1H191.9V140.1H181.9V130.1Z" fill="black"/>
<path d="M191.9 140.1V160.1H201.9V150.1H211.9V140.1H191.9V140.1ZM171.9 120.1H181.9V130.1H171.9V120.1ZM221.9 160.1H231.9V170.1H221.9V160.1Z" fill="black"/>
<path d="M221.9 120.1V60.1H211.9V140.1H221.9V130.1H231.9V160.1H241.9V120.1H221.9V120.1ZM181.9 160.1H191.9V170.1H181.9V160.1Z" fill="black"/>
<path d="M171.9 170.1H181.9V180.1H171.9V170.1Z" fill="black"/>
<path d="M161.9 180.1H171.9V190.1H161.9V180.1ZM81.9 170.1H91.9V180.1H81.9V170.1Z" fill="black"/>
<path d="M91.9 180.1H101.9V190.1H91.9V180.1Z" fill="black"/>
<path d="M101.9 190.1H111.9V200.1H101.9V190.1Z" fill="black"/>
<path d="M111.9 200.1H121.9V210.1H111.9V200.1Z" fill="black"/>
<path d="M131.9 220.1H181.9V210.1H121.9V220.1H131.9V220.1ZM211.9 170.1H221.9V180.1H211.9V170.1Z" fill="black"/>
<path d="M201.9 180.1H211.9V190.1H201.9V180.1Z" fill="black"/>
<path d="M191.9 190.1H201.9V200.1H191.9V190.1Z" fill="black"/>
<path d="M181.9 200.1H191.9V210.1H181.9V200.1Z" fill="black"/>
<path d="M231.9 190.1H221.9V200.1H231.9V210.1H221.9V200.1H211.9V210.1H191.9V220.1H232.4V248.5H241.9V170.1H231.9V190.1ZM131.9 160.1H141.9V170.1H131.9V160.1ZM151.9 120.1H141.9V130.1H161.9V120.1H151.9Z" fill="black"/>
<path d="M161.9 130.1H171.9V140.1H161.9V130.1ZM131.9 130.1H141.9V140.1H131.9V130.1Z" fill="black"/>
<path d="M171.9 150.1V160.1H181.9V140.1H171.9V150.1V150.1ZM131.9 140.1H121.9V160.1H131.9V140.1V140.1Z" fill="black"/>
<path d="M131.9 110.1H141.9V120.1H131.9V110.1ZM111.9 130.1H121.9V140.1H111.9V130.1Z" fill="black"/>
<path d="M111.9 140.1H91.9V150.1H101.9V160.1H111.9V140.1V140.1ZM121.9 120.1H131.9V130.1H121.9V120.1ZM71.9 160.1H81.9V170.1H71.9V160.1Z" fill="black"/>
<path d="M71.9 140.1V130.1H81.9V140.1H91.9V60.1H81.9V120.1H61.9V160.1H71.9V140.1V140.1ZM111.9 160.1H121.9V170.1H111.9V160.1Z" fill="black"/>
<path d="M121.9 170.1H131.9V180.1H121.9V170.1Z" fill="black"/>
<path d="M131.9 180.1H141.9V190.1H131.9V180.1ZM71.4 229.6V220.1H111.9V210.1H91.9V200.1H81.9V210.1H71.9V200.1H81.9V190.1H71.9V170.1H61.9V248.5H71.4V229.6ZM194.5 286.4H90.3V295.9H213.5V286.4H194.5Z" fill="black"/>
<path d="M213.5 248.5H71.4V258H80.9V286.4H90.4V258H213.6V286.4H223.1V258H232.6V248.5H213.5Z" fill="black"/>
<path d="M109.4 227.6V229.7H100.8V227.6H109.4ZM102.9 236.2V240.5H111.5V242.6H100.8V236.2H102.9V236.2ZM109.4 236.2H102.9V234H109.4V236.2V236.2ZM111.5 234.1H109.4V229.8H111.5V234.1ZM115.8 234.1V242.7H113.7V232H122.3V234.1H115.8ZM124.4 234.1V242.7H122.3V234.1H124.4ZM128.6 240.5H126.5V234H128.6V240.5ZM128.6 234.1V232H135.1V227.7H137.2V242.7H128.6V240.6H135.1V234.1H128.6V234.1ZM150 229.8V234.1H147.9V229.8H150ZM147.9 240.5H156.5V242.6H147.9V240.5ZM158.6 229.8H150V227.7H158.6V229.8ZM150 236.2V234H156.5V236.2H150V236.2ZM156.5 240.5V236.2H158.6V240.5H156.5ZM171.5 227.6V231.9H169.4V229.7H160.8V227.6H171.5V227.6ZM160.7 238.4H162.8V240.6H171.4V242.7H160.7V238.4V238.4ZM162.9 236.2H165.1V238.3H162.9V236.2ZM165 234.1H167.1V236.3H165V234.1ZM167.2 231.9H169.4V234H167.2V231.9ZM177.9 231.9V234H175.7V242.6H173.6V227.6H175.7V231.9H177.9V231.9ZM180 234.1V236.3H177.9V234.1H180ZM184.3 227.6V242.6H182.2V238.3H180V236.2H182.2V227.6H184.3V227.6ZM203.6 227.6V229.7H195V227.6H203.6ZM197.1 236.2V240.5H205.7V242.6H195V236.2H197.1V236.2ZM203.6 236.2H197.1V234H203.6V236.2V236.2ZM205.7 234.1H203.6V229.8H205.7V234.1Z" fill="black" stroke="black" stroke-width="0.199" stroke-miterlimit="10"/>
<path d="M142.1 266.4V270.1H140.3V266.4H142.1ZM140.3 275.5H142.1V279.2H140.3V275.5ZM144 270.1V271.9H142.2V270.1H144ZM142.1 273.7H143.9V275.5H142.1V273.7ZM145.8 271.9V273.7H144V271.9H145.8V271.9ZM147.6 271.9H145.8V270.1H147.6V271.9ZM145.8 275.5V273.7H147.6V275.5H145.8ZM149.4 270.1H147.6V266.4H149.4V270.1ZM147.6 279.2V275.5H149.4V279.2H147.6ZM154.3 271.9H159.8V273.7H154.3V279.2H152.5V266.4H159.8V268.2H154.3V271.9V271.9ZM161.7 268.2V271.9H159.9V268.2H161.7Z" fill="black"/>
</svg>
