<svg width="314" height="296" viewBox="0 0 314 296" fill="none" xmlns="http://www.w3.org/2000/svg">
<path d="M246.9 160.1V120.1H226.9V60.1H216.9V50.1H206.9V40.1H196.9V30.1H186.9V20.1H176.9V10.1H166.9V0.0999756H146.9V10.1H136.9V20.1H126.9V30.1H116.9V40.1H106.9V50.1H96.9V60.1H86.9V120.1H66.9V160.1H76.9V170.1H66.9V248.5H76.4V258H85.9V286.4H95.4V295.9H218.6V286.4H228.1V258H237.6V248.5H247.1V170.1H237.1V160.1H246.9ZM126.9 220.1H116.9V210.1H126.9V220.1ZM196.9 220.1H186.9V210.1H196.9V220.1Z" fill="black"/>
<path d="M226.9 130.1V140.1H216.9V150.1H206.9V160.1H196.9V170.1H186.9V180.1H176.9V190.1H166.9V200.1H146.9V190.1H136.9V180.1H126.9V170.1H116.9V160.1H106.9V150.1H96.9V140.1H86.9V130.1H76.9V160.1H86.9V170.1H96.9V180.1H106.9V190.1H116.9V200.1H126.9V210.1H186.9V200.1H196.9V190.1H206.9V180.1H216.9V170.1H226.9V160.1H236.9V130.1H226.9V130.1ZM76.9 200.1H86.9V210.1H76.9V200.1Z" fill="#E1924C"/>
<path d="M226.9 200.1H236.9V210.1H226.9V200.1ZM116.9 140.1V130.1H106.9V70.1H116.9V60.1H126.9V50.1H136.9V40.1H146.9V30.1H166.9V40.1H176.9V50.1H186.9V60.1H196.9V70.1H206.9V130.1H196.9V140.1H186.9V150.1H176.9V140.1H166.9V130.1H146.9V140.1H136.9V150.1H126.9V140.1H116.9V160.1H126.9V170.1H136.9V180.1H146.9V190.1H166.9V180.1H176.9V170.1H186.9V160.1H196.9V150.1H206.9V140.1H216.9V60.1H206.9V50.1H196.9V40.1H186.9V30.1H176.9V20.1H166.9V10.1H146.9V20.1H136.9V30.1H126.9V40.1H116.9V50.1H106.9V60.1H96.9V140.1H116.9Z" fill="#E1924C"/>
<path d="M126.9 140.1H136.9V130.1H146.9V120.1H166.9V110.1H176.9V120.1H186.9V130.1H196.9V70.1H186.9V60.1H176.9V50.1H166.9V40.1H146.9V50.1H136.9V60.1H126.9V70.1H116.9V130.1H126.9V140.1V140.1ZM106.9 190.1H96.9V180.1H86.9V170.1H76.9V190.1H86.9V200.1H96.9V210.1H116.9V200.1H106.9V190.1Z" fill="#E1924C"/>
<path d="M216.9 180.1V190.1H206.9V200.1H196.9V210.1H216.9V200.1H226.9V190.1H236.9V170.1H226.9V180.1H216.9ZM176.9 130.1H186.9V140.1H176.9V130.1Z" fill="#E1924C"/>
<path d="M166.9 120.1H176.9V130.1H166.9V120.1Z" fill="#E1924C"/>
<path d="M156.9 110.1H166.9V120.1H156.9V110.1ZM146.9 140.1V150.1V160.1H156.9V150.1H166.9V140.1H156.9H146.9ZM176.9 130.1H186.9V140.1H176.9V130.1Z" fill="#C86300"/>
<path d="M156.9 10.1H166.9V20.1H156.9V10.1Z" fill="#C85A00"/>
<path d="M166.9 20.1H176.9V30.1H166.9V20.1Z" fill="#C85A00"/>
<path d="M176.9 30.1H186.9V40.1H176.9V30.1Z" fill="#C85A00"/>
<path d="M186.9 40.1H196.9V50.1H186.9V40.1Z" fill="#C85A00"/>
<path d="M196.9 50.1H206.9V60.1H196.9V50.1Z" fill="#C85A00"/>
<path d="M206.9 60.1H216.9V70.1H206.9V60.1ZM206.9 110.1V140.1H216.9V100.1H206.9V110.1Z" fill="#C85A00"/>
<path d="M96.9 130.1H106.9V140.1H96.9V130.1ZM196.9 140.1H206.9V150.1H196.9V140.1Z" fill="#C85A00"/>
<path d="M186.9 150.1H196.9V160.1H186.9V150.1Z" fill="#C85A00"/>
<path d="M176.9 160.1H186.9V170.1H176.9V160.1Z" fill="#C85A00"/>
<path d="M166.9 170.1H176.9V180.1H166.9V170.1Z" fill="#C85A00"/>
<path d="M156.9 180.1H166.9V190.1H156.9V180.1ZM156.9 160.1H166.9V170.1H156.9V160.1Z" fill="#C85A00"/>
<path d="M166.9 150.1H176.9V160.1H166.9V150.1Z" fill="#C85A00"/>
<path d="M136.9 90.1V80.1H126.9V100.1H136.9V90.1Z" fill="#E1924C"/>
<path d="M116.9 110.1V120.1H126.9V100.1H116.9V110.1ZM136.9 70.1H146.9V80.1H136.9V70.1ZM136.9 120.1H146.9V130.1H136.9V120.1Z" fill="#E1924C"/>
<path d="M146.9 110.1H156.9V120.1H146.9V110.1Z" fill="#E1924C"/>
<path d="M166.9 80.1H156.9V110.1H166.9V90.1H176.9V60.1H166.9V80.1ZM146.9 60.1H156.9V70.1H146.9V60.1Z" fill="#E1924C"/>
<path d="M166.9 50.1V40.1H156.9V60.1H166.9V50.1ZM146.9 10.1H156.9V20.1H146.9V10.1Z" fill="#E1924C"/>
<path d="M136.9 20.1H146.9V30.1H136.9V20.1Z" fill="#E1924C"/>
<path d="M126.9 30.1H136.9V40.1H126.9V30.1Z" fill="#E1924C"/>
<path d="M116.9 40.1H126.9V50.1H116.9V40.1Z" fill="#E1924C"/>
<path d="M106.9 50.1H116.9V60.1H106.9V50.1Z" fill="#E1924C"/>
<path d="M96.9 60.1H106.9V70.1H96.9V60.1ZM196.9 130.1H206.9V140.1H196.9V130.1Z" fill="#E1924C"/>
<path d="M186.9 140.1H196.9V150.1H186.9V140.1Z" fill="#E1924C"/>
<path d="M176.9 150.1H186.9V160.1H176.9V150.1Z" fill="#E1924C"/>
<path d="M166.9 160.1H176.9V170.1H166.9V160.1Z" fill="#E1924C"/>
<path d="M156.9 170.1H166.9V180.1H156.9V170.1ZM226.9 130.1H236.9V140.1H226.9V130.1ZM156.9 150.1H166.9V130.1H156.9V140.1H146.9V150.1H136.9V160.1H156.9V150.1ZM76.9 200.1H86.9V210.1H76.9V200.1ZM226.9 200.1H236.9V210.1H226.9V200.1ZM76.9 130.1H86.9V140.1H76.9V130.1Z" fill="#E1924C"/>
<path d="M176.9 60.1V90.1H186.9V60.1H176.9ZM176.9 100.1H186.9V120.1H176.9V100.1ZM106.9 110.1H96.9V130.1H106.9V110.1Z" fill="#D86F13"/>
<path d="M106.9 130.1H116.9V140.1H106.9V130.1Z" fill="#D86F13"/>
<path d="M116.9 140.1H126.9V150.1H116.9V140.1Z" fill="#D86F13"/>
<path d="M126.9 150.1H136.9V160.1H126.9V150.1Z" fill="#D86F13"/>
<path d="M136.9 160.1V170.1H146.9V180.1H156.9V160.1H136.9Z" fill="#D86F13"/>
<path d="M156.9 150.1H166.9V160.1H156.9V150.1Z" fill="#D86F13"/>
<path d="M146.9 50.1H136.9V60.1H126.9V70.1H116.9V80.1V90.1V100.1H126.9V90.1V80.1H136.9V70.1H146.9V60.1H156.9V50.1V40.1H146.9V50.1ZM166.9 190.1H176.9V200.1H166.9V190.1Z" fill="white"/>
<path d="M176.9 180.1H186.9V190.1H176.9V180.1Z" fill="white"/>
<path d="M186.9 170.1H196.9V180.1H186.9V170.1Z" fill="white"/>
<path d="M196.9 160.1H206.9V170.1H196.9V160.1Z" fill="white"/>
<path d="M206.9 150.1H216.9V160.1H206.9V150.1Z" fill="white"/>
<path d="M216.9 140.1H226.9V150.1H216.9V140.1ZM76.9 180.1H86.9V190.1H76.9V180.1ZM226.9 180.1H236.9V190.1H226.9V180.1ZM136.9 190.1H146.9V200.1H136.9V190.1Z" fill="white"/>
<path d="M126.9 180.1H136.9V190.1H126.9V180.1Z" fill="white"/>
<path d="M116.9 170.1H126.9V180.1H116.9V170.1Z" fill="white"/>
<path d="M106.9 160.1H116.9V170.1H106.9V160.1Z" fill="white"/>
<path d="M96.9 150.1H106.9V160.1H96.9V150.1ZM146.9 130.1H156.9V140.1H146.9V130.1ZM146.9 110.1H156.9V120.1H146.9V110.1Z" fill="white"/>
<path d="M136.9 120.1H146.9V130.1H136.9V120.1ZM136.9 140.1H146.9V150.1H136.9V140.1ZM116.9 140.1H126.9V150.1H116.9V140.1Z" fill="white"/>
<path d="M126.9 130.1H136.9V140.1H126.9V130.1ZM86.9 140.1H96.9V150.1H86.9V140.1Z" fill="white"/>
<path d="M146.9 160.1H156.9V170.1H146.9V160.1ZM176.9 100.1H186.9V130.1H196.9V70.1H186.9V90.1H166.9V110.1H176.9V100.1Z" fill="#C86300"/>
<path d="M156.9 150.1H166.9V160.1H156.9V150.1Z" fill="#C86300"/>
<path d="M166.9 140.1H176.9V150.1H166.9V140.1ZM166.9 200.1H126.9V210.1H186.9V200.1H166.9ZM166.9 170.1H176.9V180.1H166.9V170.1Z" fill="#C86300"/>
<path d="M156.9 180.1H166.9V190.1H156.9V180.1ZM176.9 160.1H186.9V170.1H176.9V160.1ZM186.9 190.1H196.9V200.1H186.9V190.1ZM216.9 160.1H226.9V170.1H216.9V160.1Z" fill="#C86300"/>
<path d="M226.9 150.1H236.9V160.1H226.9V150.1ZM196.9 180.1H206.9V190.1H196.9V180.1Z" fill="#C86300"/>
<path d="M206.9 170.1H216.9V180.1H206.9V170.1ZM86.9 180.1H96.9V190.1H86.9V180.1Z" fill="#C86300"/>
<path d="M76.9 170.1H86.9V180.1H76.9V170.1ZM106.9 200.1H116.9V210.1H106.9V200.1Z" fill="#C86300"/>
<path d="M96.9 190.1H106.9V200.1H96.9V190.1ZM216.9 180.1H226.9V190.1H216.9V180.1Z" fill="#C86300"/>
<path d="M226.9 170.1H236.9V180.1H226.9V170.1ZM196.9 200.1H206.9V210.1H196.9V200.1Z" fill="#C86300"/>
<path d="M206.9 190.1H216.9V200.1H206.9V190.1ZM186.9 150.1H196.9V160.1H186.9V150.1ZM116.9 190.1H126.9V200.1H116.9V190.1ZM86.9 160.1H96.9V170.1H86.9V160.1Z" fill="#C86300"/>
<path d="M76.9 150.1H86.9V160.1H76.9V150.1ZM106.9 180.1H116.9V190.1H106.9V180.1Z" fill="#C86300"/>
<path d="M96.9 170.1H106.9V180.1H96.9V170.1Z" fill="#C86300"/>
<path d="M95.3 258V286.4H218.5V258H95.3Z" fill="#C300FF"/>
<path d="M156.9 70.1H146.9V80.1H136.9V100.1H126.9V120.1H116.9V130.1H136.9V120.1H146.9V110.1H156.9V80.1H166.9V60.1H156.9V70.1V70.1Z" fill="#DD8334"/>
<path d="M166.9 50.1H176.9V60.1H166.9V50.1ZM166.9 30.1V20.1H146.9V30.1H166.9Z" fill="#DD8334"/>
<path d="M166.9 30.1H176.9V40.1H166.9V30.1Z" fill="#DD8334"/>
<path d="M176.9 40.1H186.9V50.1H176.9V40.1Z" fill="#DD8334"/>
<path d="M186.9 50.1H196.9V60.1H186.9V50.1Z" fill="#DD8334"/>
<path d="M196.9 60.1H206.9V70.1H196.9V60.1Z" fill="#DD8334"/>
<path d="M206.9 90.1V100.1H216.9V70.1H206.9V90.1ZM106.9 100.1V70.1H96.9V110.1H106.9V100.1ZM136.9 30.1H146.9V40.1H136.9V30.1Z" fill="#DD8334"/>
<path d="M126.9 40.1H136.9V50.1H126.9V40.1Z" fill="#DD8334"/>
<path d="M116.9 50.1H126.9V60.1H116.9V50.1Z" fill="#DD8334"/>
<path d="M106.9 60.1H116.9V70.1H106.9V60.1ZM176.9 190.1H186.9V200.1H176.9V190.1Z" fill="#DD8334"/>
<path d="M146.9 180.1H156.9V190.1H146.9V180.1ZM186.9 180.1H196.9V190.1H186.9V180.1ZM216.9 150.1H226.9V160.1H216.9V150.1Z" fill="#DD8334"/>
<path d="M226.9 140.1H236.9V150.1H226.9V140.1ZM196.9 170.1H206.9V180.1H196.9V170.1Z" fill="#DD8334"/>
<path d="M206.9 160.1H216.9V170.1H206.9V160.1ZM86.9 190.1H96.9V200.1H86.9V190.1Z" fill="#DD8334"/>
<path d="M96.9 200.1H106.9V210.1H96.9V200.1ZM216.9 190.1H226.9V200.1H216.9V190.1Z" fill="#DD8334"/>
<path d="M206.9 200.1H216.9V210.1H206.9V200.1ZM126.9 190.1H136.9V200.1H126.9V190.1ZM136.9 170.1H146.9V180.1H136.9V170.1ZM156.9 110.1H166.9V120.1H156.9V110.1ZM176.9 130.1H186.9V140.1H176.9V130.1Z" fill="#DD8334"/>
<path d="M166.9 120.1H176.9V130.1H166.9V120.1ZM116.9 150.1H126.9V160.1H116.9V150.1Z" fill="#DD8334"/>
<path d="M186.9 140.1H196.9V150.1H186.9V140.1ZM126.9 160.1H136.9V170.1H126.9V160.1ZM116.9 180.1H126.9V190.1H116.9V180.1ZM86.9 150.1H96.9V160.1H86.9V150.1Z" fill="#DD8334"/>
<path d="M76.9 140.1H86.9V150.1H76.9V140.1ZM106.9 170.1H116.9V180.1H106.9V170.1Z" fill="#DD8334"/>
<path d="M96.9 160.1H106.9V170.1H96.9V160.1Z" fill="#DD8334"/>
<path d="M227.9 220.1H76.3V248.5H237.4V220.1H227.9Z" fill="#E1924C"/>
<path d="M166.9 10.1V0.0999756H146.9V10.1H166.9Z" fill="black"/>
<path d="M166.9 10.1H176.9V20.1H166.9V10.1Z" fill="black"/>
<path d="M176.9 20.1H186.9V30.1H176.9V20.1Z" fill="black"/>
<path d="M186.9 30.1H196.9V40.1H186.9V30.1Z" fill="black"/>
<path d="M196.9 40.1H206.9V50.1H196.9V40.1Z" fill="black"/>
<path d="M206.9 50.1H216.9V60.1H206.9V50.1ZM136.9 10.1H146.9V20.1H136.9V10.1Z" fill="black"/>
<path d="M126.9 20.1H136.9V30.1H126.9V20.1Z" fill="black"/>
<path d="M116.9 30.1H126.9V40.1H116.9V30.1Z" fill="black"/>
<path d="M106.9 40.1H116.9V50.1H106.9V40.1Z" fill="black"/>
<path d="M96.9 50.1H106.9V60.1H96.9V50.1ZM196.9 90.1V130.1H206.9V70.1H196.9V90.1ZM116.9 110.1V70.1H106.9V130.1H116.9V110.1ZM166.9 40.1V30.1H146.9V40.1H166.9Z" fill="black"/>
<path d="M136.9 40.1H146.9V50.1H136.9V40.1ZM166.9 40.1H176.9V50.1H166.9V40.1Z" fill="black"/>
<path d="M176.9 50.1H186.9V60.1H176.9V50.1Z" fill="black"/>
<path d="M186.9 60.1H196.9V70.1H186.9V60.1ZM126.9 50.1H136.9V60.1H126.9V50.1Z" fill="black"/>
<path d="M116.9 60.1H126.9V70.1H116.9V60.1ZM146.9 190.1V200.1H166.9V190.1H146.9V190.1ZM166.9 110.1V100.1H146.9V110.1H166.9ZM146.9 170.1V180.1H166.9V170.1H146.9Z" fill="black"/>
<path d="M166.9 160.1H176.9V170.1H166.9V160.1ZM166.9 110.1H176.9V120.1H166.9V110.1ZM186.9 130.1H196.9V140.1H186.9V130.1Z" fill="black"/>
<path d="M196.9 140.1V160.1H206.9V150.1H216.9V140.1H196.9V140.1ZM176.9 120.1H186.9V130.1H176.9V120.1ZM226.9 160.1H236.9V170.1H226.9V160.1Z" fill="black"/>
<path d="M226.9 120.1V60.1H216.9V140.1H226.9V130.1H236.9V160.1H246.9V120.1H226.9V120.1ZM186.9 160.1H196.9V170.1H186.9V160.1Z" fill="black"/>
<path d="M176.9 170.1H186.9V180.1H176.9V170.1Z" fill="black"/>
<path d="M166.9 180.1H176.9V190.1H166.9V180.1ZM86.9 170.1H96.9V180.1H86.9V170.1Z" fill="black"/>
<path d="M96.9 180.1H106.9V190.1H96.9V180.1Z" fill="black"/>
<path d="M106.9 190.1H116.9V200.1H106.9V190.1Z" fill="black"/>
<path d="M116.9 200.1H126.9V210.1H116.9V200.1Z" fill="black"/>
<path d="M136.9 220.1H186.9V210.1H126.9V220.1H136.9V220.1ZM216.9 170.1H226.9V180.1H216.9V170.1Z" fill="black"/>
<path d="M206.9 180.1H216.9V190.1H206.9V180.1Z" fill="black"/>
<path d="M196.9 190.1H206.9V200.1H196.9V190.1Z" fill="black"/>
<path d="M186.9 200.1H196.9V210.1H186.9V200.1Z" fill="black"/>
<path d="M236.9 190.1H226.9V200.1H236.9V210.1H226.9V200.1H216.9V210.1H196.9V220.1H237.4V248.5H246.9V170.1H236.9V190.1ZM136.9 160.1H146.9V170.1H136.9V160.1ZM156.9 120.1H146.9V130.1H166.9V120.1H156.9Z" fill="black"/>
<path d="M166.9 130.1H176.9V140.1H166.9V130.1ZM136.9 130.1H146.9V140.1H136.9V130.1Z" fill="black"/>
<path d="M176.9 150.1V160.1H186.9V140.1H176.9V150.1V150.1ZM136.9 140.1H126.9V160.1H136.9V140.1V140.1Z" fill="black"/>
<path d="M136.9 110.1H146.9V120.1H136.9V110.1ZM116.9 130.1H126.9V140.1H116.9V130.1Z" fill="black"/>
<path d="M116.9 140.1H96.9V150.1H106.9V160.1H116.9V140.1V140.1ZM126.9 120.1H136.9V130.1H126.9V120.1ZM76.9 160.1H86.9V170.1H76.9V160.1Z" fill="black"/>
<path d="M76.9 140.1V130.1H86.9V140.1H96.9V60.1H86.9V120.1H66.9V160.1H76.9V140.1V140.1ZM116.9 160.1H126.9V170.1H116.9V160.1Z" fill="black"/>
<path d="M126.9 170.1H136.9V180.1H126.9V170.1Z" fill="black"/>
<path d="M136.9 180.1H146.9V190.1H136.9V180.1ZM76.4 229.5V220H116.9V210H96.9V200H86.9V210H76.9V200H86.9V190H76.9V170H66.9V248.4H76.4V229.5ZM199.5 286.4H95.3V295.9H218.5V286.4H199.5Z" fill="black"/>
<path d="M218.5 248.5H76.4V258H85.9V286.4H95.4V258H218.6V286.4H228.1V258H237.6V248.5H218.5Z" fill="black"/>
<path d="M130 271.8V273.6H131.8V279.1H130V273.6H124.5V279.1H122.7V266.3H130V268.1H124.5V271.8H130ZM130 271.8V268.1H131.8V271.8H130ZM144.1 268.2V279.2H142.3V273.7H136.8V279.2H135V268.2H136.8V271.9H142.3V268.2H144.1V268.2ZM142.2 268.2H136.7V266.4H142.2V268.2ZM154.5 271.8V273.6H156.3V279.1H154.5V273.6H149V279.1H147.2V266.3H154.5V268.1H149V271.8H154.5ZM154.5 271.8V268.1H156.3V271.8H154.5ZM163 268.2V277.4H164.8V279.2H159.3V277.4H161.1V268.2H159.3V266.4H164.8V268.2H163ZM177.1 268.2H173.4V279.2H171.6V268.2H167.9V266.4H177.1V268.2ZM182 266.4V271.9H180.2V266.4H182ZM183.8 271.8V273.6H182V271.8H183.8ZM183.8 273.7H185.6V279.2H183.8V273.7ZM185.6 271.8H187.4V273.6H185.6V271.8ZM189.3 266.4V271.9H187.5V266.4H189.3Z" fill="white" stroke="white" stroke-width="0.234" stroke-miterlimit="10"/>
<path d="M116.5 227.6V229.7H107.9V227.6H116.5ZM116.5 234V236.2H107.9V234H116.5ZM107.9 240.5H116.5V242.6H107.9V240.5ZM118.7 234H116.6V229.7H118.7V234ZM116.5 240.5V236.2H118.6V240.5H116.5ZM120.8 234H122.9V242.6H120.8V234ZM127.2 231.9V234H122.9V231.9H127.2ZM131.5 240.5H129.4V234H131.5V240.5ZM131.5 234V231.9H138V227.6H140.1V242.6H131.5V240.5H138V234H131.5ZM152.9 229.7V234H150.8V229.7H152.9ZM150.8 240.5H159.4V242.6H150.8V240.5ZM161.5 229.7H152.9V227.6H161.5V229.7ZM152.9 236.2V234H159.4V236.2H152.9ZM159.3 240.5V236.2H161.4V240.5H159.3ZM174.3 227.6V231.9H172.2V229.7H163.6V227.6H174.3V227.6ZM163.6 238.3H165.7V240.5H174.3V242.6H163.6V238.3V238.3ZM165.7 236.2H167.9V238.3H165.7V236.2ZM167.9 234H170V236.2H167.9V234ZM170 231.9H172.2V234H170V231.9V231.9ZM180.7 231.9V234H178.5V242.6H176.4V227.6H178.5V231.9H180.7V231.9ZM182.9 234V236.2H180.8V234H182.9ZM187.2 227.6V242.6H185.1V238.3H182.9V236.2H185.1V227.6H187.2V227.6ZM206.4 227.6V229.7H197.8V227.6H206.4ZM200 236.2V240.5H208.6V242.6H197.9V236.2H200V236.2ZM206.4 236.2H199.9V234H206.4V236.2V236.2ZM208.6 234H206.5V229.7H208.6V234Z" fill="black" stroke="black" stroke-width="0.199" stroke-miterlimit="10"/>
</svg>
