<svg width="290" height="296" viewBox="0 0 290 296" fill="none" xmlns="http://www.w3.org/2000/svg">
<path d="M234.9 160.1V120.1H214.9V60.1H204.9V50.1H194.9V40.1H184.9V30.1H174.9V20.1H164.9V10.1H154.9V0.100006H134.9V10.1H124.9V20.1H114.9V30.1H104.9V40.1H94.9V50.1H84.9V60.1H74.9V120.1H54.9V160.1H64.9V170.1H54.9V248.5H64.4V258H73.9V286.4H83.4V295.9H206.6V286.4H216.1V258H225.6V248.5H235.1V170.1H225.1V160.1H234.9ZM114.9 220.1H104.9V210.1H114.9V220.1ZM184.9 220.1H174.9V210.1H184.9V220.1Z" fill="black"/>
<path d="M214.9 130.1V140.1H204.9V150.1H194.9V160.1H184.9V170.1H174.9V180.1H164.9V190.1H154.9V200.1H134.9V190.1H124.9V180.1H114.9V170.1H104.9V160.1H94.9V150.1H84.9V140.1H74.9V130.1H64.9V160.1H74.9V170.1H84.9V180.1H94.9V190.1H104.9V200.1H114.9V210.1H174.9V200.1H184.9V190.1H194.9V180.1H204.9V170.1H214.9V160.1H224.9V130.1H214.9V130.1ZM64.9 200.1H74.9V210.1H64.9V200.1Z" fill="#E1924C"/>
<path d="M214.9 200.1H224.9V210.1H214.9V200.1ZM104.9 140.1V130.1H94.9V70.1H104.9V60.1H114.9V50.1H124.9V40.1H134.9V30.1H154.9V40.1H164.9V50.1H174.9V60.1H184.9V70.1H194.9V130.1H184.9V140.1H174.9V150.1H164.9V140.1H154.9V130.1H134.9V140.1H124.9V150.1H114.9V140.1H104.9V160.1H114.9V170.1H124.9V180.1H134.9V190.1H154.9V180.1H164.9V170.1H174.9V160.1H184.9V150.1H194.9V140.1H204.9V60.1H194.9V50.1H184.9V40.1H174.9V30.1H164.9V20.1H154.9V10.1H134.9V20.1H124.9V30.1H114.9V40.1H104.9V50.1H94.9V60.1H84.9V140.1H104.9Z" fill="#E1924C"/>
<path d="M114.9 140.1H124.9V130.1H134.9V120.1H154.9V110.1H164.9V120.1H174.9V130.1H184.9V70.1H174.9V60.1H164.9V50.1H154.9V40.1H134.9V50.1H124.9V60.1H114.9V70.1H104.9V130.1H114.9V140.1V140.1ZM94.9 190.1H84.9V180.1H74.9V170.1H64.9V190.1H74.9V200.1H84.9V210.1H104.9V200.1H94.9V190.1Z" fill="#E1924C"/>
<path d="M204.9 180.1V190.1H194.9V200.1H184.9V210.1H204.9V200.1H214.9V190.1H224.9V170.1H214.9V180.1H204.9ZM164.9 130.1H174.9V140.1H164.9V130.1Z" fill="#E1924C"/>
<path d="M154.9 120.1H164.9V130.1H154.9V120.1Z" fill="#E1924C"/>
<path d="M144.9 110.1H154.9V120.1H144.9V110.1ZM134.9 140.1V150.1V160.1H144.9V150.1H154.9V140.1H144.9H134.9ZM164.9 130.1H174.9V140.1H164.9V130.1Z" fill="#C86300"/>
<path d="M144.9 10.1H154.9V20.1H144.9V10.1Z" fill="#C85A00"/>
<path d="M154.9 20.1H164.9V30.1H154.9V20.1Z" fill="#C85A00"/>
<path d="M164.9 30.1H174.9V40.1H164.9V30.1Z" fill="#C85A00"/>
<path d="M174.9 40.1H184.9V50.1H174.9V40.1Z" fill="#C85A00"/>
<path d="M184.9 50.1H194.9V60.1H184.9V50.1Z" fill="#C85A00"/>
<path d="M194.9 60.1H204.9V70.1H194.9V60.1ZM194.9 110.1V140.1H204.9V100.1H194.9V110.1Z" fill="#C85A00"/>
<path d="M84.9 130.1H94.9V140.1H84.9V130.1ZM184.9 140.1H194.9V150.1H184.9V140.1Z" fill="#C85A00"/>
<path d="M174.9 150.1H184.9V160.1H174.9V150.1Z" fill="#C85A00"/>
<path d="M164.9 160.1H174.9V170.1H164.9V160.1Z" fill="#C85A00"/>
<path d="M154.9 170.1H164.9V180.1H154.9V170.1Z" fill="#C85A00"/>
<path d="M144.9 180.1H154.9V190.1H144.9V180.1ZM144.9 160.1H154.9V170.1H144.9V160.1Z" fill="#C85A00"/>
<path d="M154.9 150.1H164.9V160.1H154.9V150.1Z" fill="#C85A00"/>
<path d="M124.9 90.1V80.1H114.9V100.1H124.9V90.1Z" fill="#E1924C"/>
<path d="M104.9 110.1V120.1H114.9V100.1H104.9V110.1ZM124.9 70.1H134.9V80.1H124.9V70.1ZM124.9 120.1H134.9V130.1H124.9V120.1Z" fill="#E1924C"/>
<path d="M134.9 110.1H144.9V120.1H134.9V110.1Z" fill="#E1924C"/>
<path d="M154.9 80.1H144.9V110.1H154.9V90.1H164.9V60.1H154.9V80.1ZM134.9 60.1H144.9V70.1H134.9V60.1Z" fill="#E1924C"/>
<path d="M154.9 50.1V40.1H144.9V60.1H154.9V50.1ZM134.9 10.1H144.9V20.1H134.9V10.1Z" fill="#E1924C"/>
<path d="M124.9 20.1H134.9V30.1H124.9V20.1Z" fill="#E1924C"/>
<path d="M114.9 30.1H124.9V40.1H114.9V30.1Z" fill="#E1924C"/>
<path d="M104.9 40.1H114.9V50.1H104.9V40.1Z" fill="#E1924C"/>
<path d="M94.9 50.1H104.9V60.1H94.9V50.1Z" fill="#E1924C"/>
<path d="M84.9 60.1H94.9V70.1H84.9V60.1ZM184.9 130.1H194.9V140.1H184.9V130.1Z" fill="#E1924C"/>
<path d="M174.9 140.1H184.9V150.1H174.9V140.1Z" fill="#E1924C"/>
<path d="M164.9 150.1H174.9V160.1H164.9V150.1Z" fill="#E1924C"/>
<path d="M154.9 160.1H164.9V170.1H154.9V160.1Z" fill="#E1924C"/>
<path d="M144.9 170.1H154.9V180.1H144.9V170.1ZM214.9 130.1H224.9V140.1H214.9V130.1ZM144.9 150.1H154.9V130.1H144.9V140.1H134.9V150.1H124.9V160.1H144.9V150.1ZM64.9 200.1H74.9V210.1H64.9V200.1ZM214.9 200.1H224.9V210.1H214.9V200.1ZM64.9 130.1H74.9V140.1H64.9V130.1Z" fill="#E1924C"/>
<path d="M164.9 60.1V90.1H174.9V60.1H164.9ZM164.9 100.1H174.9V120.1H164.9V100.1ZM94.9 110.1H84.9V130.1H94.9V110.1Z" fill="#D86F13"/>
<path d="M94.9 130.1H104.9V140.1H94.9V130.1Z" fill="#D86F13"/>
<path d="M104.9 140.1H114.9V150.1H104.9V140.1Z" fill="#D86F13"/>
<path d="M114.9 150.1H124.9V160.1H114.9V150.1Z" fill="#D86F13"/>
<path d="M124.9 160.1V170.1H134.9V180.1H144.9V160.1H124.9Z" fill="#D86F13"/>
<path d="M144.9 150.1H154.9V160.1H144.9V150.1Z" fill="#D86F13"/>
<path d="M134.9 50.1H124.9V60.1H114.9V70.1H104.9V80.1V90.1V100.1H114.9V90.1V80.1H124.9V70.1H134.9V60.1H144.9V50.1V40.1H134.9V50.1ZM154.9 190.1H164.9V200.1H154.9V190.1Z" fill="white"/>
<path d="M164.9 180.1H174.9V190.1H164.9V180.1Z" fill="white"/>
<path d="M174.9 170.1H184.9V180.1H174.9V170.1Z" fill="white"/>
<path d="M184.9 160.1H194.9V170.1H184.9V160.1Z" fill="white"/>
<path d="M194.9 150.1H204.9V160.1H194.9V150.1Z" fill="white"/>
<path d="M204.9 140.1H214.9V150.1H204.9V140.1ZM64.9 180.1H74.9V190.1H64.9V180.1ZM214.9 180.1H224.9V190.1H214.9V180.1ZM124.9 190.1H134.9V200.1H124.9V190.1Z" fill="white"/>
<path d="M114.9 180.1H124.9V190.1H114.9V180.1Z" fill="white"/>
<path d="M104.9 170.1H114.9V180.1H104.9V170.1Z" fill="white"/>
<path d="M94.9 160.1H104.9V170.1H94.9V160.1Z" fill="white"/>
<path d="M84.9 150.1H94.9V160.1H84.9V150.1ZM134.9 130.1H144.9V140.1H134.9V130.1ZM134.9 110.1H144.9V120.1H134.9V110.1Z" fill="white"/>
<path d="M124.9 120.1H134.9V130.1H124.9V120.1ZM124.9 140.1H134.9V150.1H124.9V140.1ZM104.9 140.1H114.9V150.1H104.9V140.1Z" fill="white"/>
<path d="M114.9 130.1H124.9V140.1H114.9V130.1ZM74.9 140.1H84.9V150.1H74.9V140.1Z" fill="white"/>
<path d="M134.9 160.1H144.9V170.1H134.9V160.1ZM164.9 100.1H174.9V130.1H184.9V70.1H174.9V90.1H154.9V110.1H164.9V100.1Z" fill="#C86300"/>
<path d="M144.9 150.1H154.9V160.1H144.9V150.1Z" fill="#C86300"/>
<path d="M154.9 140.1H164.9V150.1H154.9V140.1ZM154.9 200.1H114.9V210.1H174.9V200.1H154.9ZM154.9 170.1H164.9V180.1H154.9V170.1Z" fill="#C86300"/>
<path d="M144.9 180.1H154.9V190.1H144.9V180.1ZM164.9 160.1H174.9V170.1H164.9V160.1ZM174.9 190.1H184.9V200.1H174.9V190.1ZM204.9 160.1H214.9V170.1H204.9V160.1Z" fill="#C86300"/>
<path d="M214.9 150.1H224.9V160.1H214.9V150.1ZM184.9 180.1H194.9V190.1H184.9V180.1Z" fill="#C86300"/>
<path d="M194.9 170.1H204.9V180.1H194.9V170.1ZM74.9 180.1H84.9V190.1H74.9V180.1Z" fill="#C86300"/>
<path d="M64.9 170.1H74.9V180.1H64.9V170.1ZM94.9 200.1H104.9V210.1H94.9V200.1Z" fill="#C86300"/>
<path d="M84.9 190.1H94.9V200.1H84.9V190.1ZM204.9 180.1H214.9V190.1H204.9V180.1Z" fill="#C86300"/>
<path d="M214.9 170.1H224.9V180.1H214.9V170.1ZM184.9 200.1H194.9V210.1H184.9V200.1Z" fill="#C86300"/>
<path d="M194.9 190.1H204.9V200.1H194.9V190.1ZM174.9 150.1H184.9V160.1H174.9V150.1ZM104.9 190.1H114.9V200.1H104.9V190.1ZM74.9 160.1H84.9V170.1H74.9V160.1Z" fill="#C86300"/>
<path d="M64.9 150.1H74.9V160.1H64.9V150.1ZM94.9 180.1H104.9V190.1H94.9V180.1Z" fill="#C86300"/>
<path d="M84.9 170.1H94.9V180.1H84.9V170.1Z" fill="#C86300"/>
<path d="M83.3 258V286.4H206.5V258H83.3Z" fill="#FA34F3"/>
<path d="M144.9 70.1H134.9V80.1H124.9V100.1H114.9V120.1H104.9V130.1H124.9V120.1H134.9V110.1H144.9V80.1H154.9V60.1H144.9V70.1V70.1Z" fill="#DD8334"/>
<path d="M154.9 50.1H164.9V60.1H154.9V50.1ZM154.9 30.1V20.1H134.9V30.1H154.9Z" fill="#DD8334"/>
<path d="M154.9 30.1H164.9V40.1H154.9V30.1Z" fill="#DD8334"/>
<path d="M164.9 40.1H174.9V50.1H164.9V40.1Z" fill="#DD8334"/>
<path d="M174.9 50.1H184.9V60.1H174.9V50.1Z" fill="#DD8334"/>
<path d="M184.9 60.1H194.9V70.1H184.9V60.1Z" fill="#DD8334"/>
<path d="M194.9 90.1V100.1H204.9V70.1H194.9V90.1ZM94.9 100.1V70.1H84.9V110.1H94.9V100.1ZM124.9 30.1H134.9V40.1H124.9V30.1Z" fill="#DD8334"/>
<path d="M114.9 40.1H124.9V50.1H114.9V40.1Z" fill="#DD8334"/>
<path d="M104.9 50.1H114.9V60.1H104.9V50.1Z" fill="#DD8334"/>
<path d="M94.9 60.1H104.9V70.1H94.9V60.1ZM164.9 190.1H174.9V200.1H164.9V190.1Z" fill="#DD8334"/>
<path d="M134.9 180.1H144.9V190.1H134.9V180.1ZM174.9 180.1H184.9V190.1H174.9V180.1ZM204.9 150.1H214.9V160.1H204.9V150.1Z" fill="#DD8334"/>
<path d="M214.9 140.1H224.9V150.1H214.9V140.1ZM184.9 170.1H194.9V180.1H184.9V170.1Z" fill="#DD8334"/>
<path d="M194.9 160.1H204.9V170.1H194.9V160.1ZM74.9 190.1H84.9V200.1H74.9V190.1Z" fill="#DD8334"/>
<path d="M84.9 200.1H94.9V210.1H84.9V200.1ZM204.9 190.1H214.9V200.1H204.9V190.1Z" fill="#DD8334"/>
<path d="M194.9 200.1H204.9V210.1H194.9V200.1ZM114.9 190.1H124.9V200.1H114.9V190.1ZM124.9 170.1H134.9V180.1H124.9V170.1ZM144.9 110.1H154.9V120.1H144.9V110.1ZM164.9 130.1H174.9V140.1H164.9V130.1Z" fill="#DD8334"/>
<path d="M154.9 120.1H164.9V130.1H154.9V120.1ZM104.9 150.1H114.9V160.1H104.9V150.1Z" fill="#DD8334"/>
<path d="M174.9 140.1H184.9V150.1H174.9V140.1ZM114.9 160.1H124.9V170.1H114.9V160.1ZM104.9 180.1H114.9V190.1H104.9V180.1ZM74.9 150.1H84.9V160.1H74.9V150.1Z" fill="#DD8334"/>
<path d="M64.9 140.1H74.9V150.1H64.9V140.1ZM94.9 170.1H104.9V180.1H94.9V170.1Z" fill="#DD8334"/>
<path d="M84.9 160.1H94.9V170.1H84.9V160.1Z" fill="#DD8334"/>
<path d="M215.9 220.1H64.3V248.5H225.4V220.1H215.9Z" fill="#E1924C"/>
<path d="M154.9 10.1V0.100006H134.9V10.1H154.9Z" fill="black"/>
<path d="M154.9 10.1H164.9V20.1H154.9V10.1Z" fill="black"/>
<path d="M164.9 20.1H174.9V30.1H164.9V20.1Z" fill="black"/>
<path d="M174.9 30.1H184.9V40.1H174.9V30.1Z" fill="black"/>
<path d="M184.9 40.1H194.9V50.1H184.9V40.1Z" fill="black"/>
<path d="M194.9 50.1H204.9V60.1H194.9V50.1ZM124.9 10.1H134.9V20.1H124.9V10.1Z" fill="black"/>
<path d="M114.9 20.1H124.9V30.1H114.9V20.1Z" fill="black"/>
<path d="M104.9 30.1H114.9V40.1H104.9V30.1Z" fill="black"/>
<path d="M94.9 40.1H104.9V50.1H94.9V40.1Z" fill="black"/>
<path d="M84.9 50.1H94.9V60.1H84.9V50.1ZM184.9 90.1V130.1H194.9V70.1H184.9V90.1ZM104.9 110.1V70.1H94.9V130.1H104.9V110.1ZM154.9 40.1V30.1H134.9V40.1H154.9Z" fill="black"/>
<path d="M124.9 40.1H134.9V50.1H124.9V40.1ZM154.9 40.1H164.9V50.1H154.9V40.1Z" fill="black"/>
<path d="M164.9 50.1H174.9V60.1H164.9V50.1Z" fill="black"/>
<path d="M174.9 60.1H184.9V70.1H174.9V60.1ZM114.9 50.1H124.9V60.1H114.9V50.1Z" fill="black"/>
<path d="M104.9 60.1H114.9V70.1H104.9V60.1ZM134.9 190.1V200.1H154.9V190.1H134.9V190.1ZM154.9 110.1V100.1H134.9V110.1H154.9ZM134.9 170.1V180.1H154.9V170.1H134.9Z" fill="black"/>
<path d="M154.9 160.1H164.9V170.1H154.9V160.1ZM154.9 110.1H164.9V120.1H154.9V110.1ZM174.9 130.1H184.9V140.1H174.9V130.1Z" fill="black"/>
<path d="M184.9 140.1V160.1H194.9V150.1H204.9V140.1H184.9V140.1ZM164.9 120.1H174.9V130.1H164.9V120.1ZM214.9 160.1H224.9V170.1H214.9V160.1Z" fill="black"/>
<path d="M214.9 120.1V60.1H204.9V140.1H214.9V130.1H224.9V160.1H234.9V120.1H214.9V120.1ZM174.9 160.1H184.9V170.1H174.9V160.1Z" fill="black"/>
<path d="M164.9 170.1H174.9V180.1H164.9V170.1Z" fill="black"/>
<path d="M154.9 180.1H164.9V190.1H154.9V180.1ZM74.9 170.1H84.9V180.1H74.9V170.1Z" fill="black"/>
<path d="M84.9 180.1H94.9V190.1H84.9V180.1Z" fill="black"/>
<path d="M94.9 190.1H104.9V200.1H94.9V190.1Z" fill="black"/>
<path d="M104.9 200.1H114.9V210.1H104.9V200.1Z" fill="black"/>
<path d="M124.9 220.1H174.9V210.1H114.9V220.1H124.9V220.1ZM204.9 170.1H214.9V180.1H204.9V170.1Z" fill="black"/>
<path d="M194.9 180.1H204.9V190.1H194.9V180.1Z" fill="black"/>
<path d="M184.9 190.1H194.9V200.1H184.9V190.1Z" fill="black"/>
<path d="M174.9 200.1H184.9V210.1H174.9V200.1Z" fill="black"/>
<path d="M224.9 190.1H214.9V200.1H224.9V210.1H214.9V200.1H204.9V210.1H184.9V220.1H225.4V248.5H234.9V170.1H224.9V190.1ZM124.9 160.1H134.9V170.1H124.9V160.1ZM144.9 120.1H134.9V130.1H154.9V120.1H144.9Z" fill="black"/>
<path d="M154.9 130.1H164.9V140.1H154.9V130.1ZM124.9 130.1H134.9V140.1H124.9V130.1Z" fill="black"/>
<path d="M164.9 150.1V160.1H174.9V140.1H164.9V150.1V150.1ZM124.9 140.1H114.9V160.1H124.9V140.1V140.1Z" fill="black"/>
<path d="M124.9 110.1H134.9V120.1H124.9V110.1ZM104.9 130.1H114.9V140.1H104.9V130.1Z" fill="black"/>
<path d="M104.9 140.1H84.9V150.1H94.9V160.1H104.9V140.1V140.1ZM114.9 120.1H124.9V130.1H114.9V120.1ZM64.9 160.1H74.9V170.1H64.9V160.1Z" fill="black"/>
<path d="M64.9 140.1V130.1H74.9V140.1H84.9V60.1H74.9V120.1H54.9V160.1H64.9V140.1V140.1ZM104.9 160.1H114.9V170.1H104.9V160.1Z" fill="black"/>
<path d="M114.9 170.1H124.9V180.1H114.9V170.1Z" fill="black"/>
<path d="M124.9 180.1H134.9V190.1H124.9V180.1ZM64.4 229.6V220.1H104.9V210.1H84.9V200.1H74.9V210.1H64.9V200.1H74.9V190.1H64.9V170.1H54.9V248.5H64.4V229.6ZM187.5 286.4H83.3V295.9H206.5V286.4H187.5Z" fill="black"/>
<path d="M206.5 248.5H64.4V258H73.9V286.4H83.4V258H206.6V286.4H216.1V258H225.6V248.5H206.5Z" fill="black"/>
<path d="M104.5 227.7V229.8H95.9V227.7H104.5ZM104.5 234.1V236.3H95.9V234.1H104.5ZM95.9 240.6H104.5V242.7H95.9V240.6ZM106.7 234.1H104.6V229.8H106.7V234.1ZM104.5 240.6V236.3H106.6V240.6H104.5ZM108.8 234.1H110.9V242.7H108.8V234.1ZM115.2 232V234.1H110.9V232H115.2V232ZM119.5 240.6H117.4V234.1H119.5V240.6ZM119.5 234.1V232H126V227.7H128.1V242.7H119.5V240.6H126V234.1H119.5ZM140.9 229.8V234.1H138.8V229.8H140.9ZM138.8 240.6H147.4V242.7H138.8V240.6ZM149.5 229.8H140.9V227.7H149.5V229.8ZM140.9 236.3V234.1H147.4V236.3H140.9ZM147.3 240.6V236.3H149.4V240.6H147.3ZM162.3 227.7V232H160.2V229.8H151.6V227.7H162.3V227.7ZM151.6 238.4H153.7V240.6H162.3V242.7H151.6V238.4V238.4ZM153.7 236.3H155.9V238.4H153.7V236.3ZM155.9 234.1H158V236.3H155.9V234.1ZM158 232H160.2V234.1H158V232V232ZM168.7 232V234.1H166.5V242.7H164.4V227.7H166.5V232H168.7V232ZM170.9 234.1V236.3H168.8V234.1H170.9ZM175.2 227.7V242.7H173.1V238.4H170.9V236.3H173.1V227.7H175.2V227.7ZM194.4 227.7V229.8H185.8V227.7H194.4ZM188 236.3V240.6H196.6V242.7H185.9V236.3H188V236.3ZM194.4 236.3H187.9V234.1H194.4V236.3ZM196.6 234.1H194.5V229.8H196.6V234.1Z" fill="black" stroke="black" stroke-width="0.199" stroke-miterlimit="10"/>
<path d="M110.1 271.9V273.7H108.3V279.2H106.5V266.4H108.3V271.9H110.1ZM111.9 271.9H110.1V270.1H111.9V271.9ZM110.1 275.6V273.8H111.9V275.6H110.1ZM113.7 270.1H111.9V268.3H113.7V270.1ZM111.9 277.4V275.6H113.7V277.4H111.9ZM115.5 268.2H113.7V266.4H115.5V268.2ZM113.7 279.2V277.4H115.5V279.2H113.7Z" fill="white" stroke="white" stroke-width="0.234" stroke-miterlimit="10"/>
<path d="M130.8 270.1V271.9H129V279.2H127.2V266.4H129V270.1H130.8ZM132.7 271.9V273.7H130.9V271.9H132.7ZM136.3 266.4V279.2H134.5V275.5H132.7V273.7H134.5V266.4H136.3ZM141.2 268.2V271.9H139.4V268.2H141.2ZM139.4 277.4H146.7V279.2H139.4V277.4ZM148.6 268.2H141.3V266.4H148.6V268.2ZM141.2 273.7V271.9H146.7V273.7H141.2ZM146.7 277.4V273.7H148.5V277.4H146.7ZM160.8 266.4V279.2H159V273.7H153.5V279.2H151.7V266.4H153.5V271.9H159V266.4H160.8Z" fill="white" stroke="white" stroke-width="0.234" stroke-miterlimit="10"/>
<path d="M174.3 271.9H179.8V273.7H174.3V279.2H172.5V266.4H179.8V268.2H174.3V271.9ZM181.6 268.2V271.9H179.8V268.2H181.6Z" fill="white" stroke="white" stroke-width="0.234" stroke-miterlimit="10"/>
</svg>
