<svg width="280" height="296" viewBox="0 0 280 296" fill="none" xmlns="http://www.w3.org/2000/svg">
<path d="M229.9 160.1V120.1H209.9V60.1H199.9V50.1H189.9V40.1H179.9V30.1H169.9V20.1H159.9V10.1H149.9V0.100006H129.9V10.1H119.9V20.1H109.9V30.1H99.9V40.1H89.9V50.1H79.9V60.1H69.9V120.1H49.9V160.1H59.9V170.1H49.9V248.5H59.4V258H68.9V286.4H78.4V295.9H201.6V286.4H211.1V258H220.6V248.5H230.1V170.1H220.1V160.1H229.9ZM109.9 220.1H99.9V210.1H109.9V220.1ZM179.9 220.1H169.9V210.1H179.9V220.1Z" fill="black"/>
<path d="M209.9 130.1V140.1H199.9V150.1H189.9V160.1H179.9V170.1H169.9V180.1H159.9V190.1H149.9V200.1H129.9V190.1H119.9V180.1H109.9V170.1H99.9V160.1H89.9V150.1H79.9V140.1H69.9V130.1H59.9V160.1H69.9V170.1H79.9V180.1H89.9V190.1H99.9V200.1H109.9V210.1H169.9V200.1H179.9V190.1H189.9V180.1H199.9V170.1H209.9V160.1H219.9V130.1H209.9V130.1ZM59.9 200.1H69.9V210.1H59.9V200.1Z" fill="#E1924C"/>
<path d="M209.9 200.1H219.9V210.1H209.9V200.1ZM99.9 140.1V130.1H89.9V70.1H99.9V60.1H109.9V50.1H119.9V40.1H129.9V30.1H149.9V40.1H159.9V50.1H169.9V60.1H179.9V70.1H189.9V130.1H179.9V140.1H169.9V150.1H159.9V140.1H149.9V130.1H129.9V140.1H119.9V150.1H109.9V140.1H99.9V160.1H109.9V170.1H119.9V180.1H129.9V190.1H149.9V180.1H159.9V170.1H169.9V160.1H179.9V150.1H189.9V140.1H199.9V60.1H189.9V50.1H179.9V40.1H169.9V30.1H159.9V20.1H149.9V10.1H129.9V20.1H119.9V30.1H109.9V40.1H99.9V50.1H89.9V60.1H79.9V140.1H99.9Z" fill="#E1924C"/>
<path d="M109.9 140.1H119.9V130.1H129.9V120.1H149.9V110.1H159.9V120.1H169.9V130.1H179.9V70.1H169.9V60.1H159.9V50.1H149.9V40.1H129.9V50.1H119.9V60.1H109.9V70.1H99.9V130.1H109.9V140.1V140.1ZM89.9 190.1H79.9V180.1H69.9V170.1H59.9V190.1H69.9V200.1H79.9V210.1H99.9V200.1H89.9V190.1Z" fill="#E1924C"/>
<path d="M199.9 180.1V190.1H189.9V200.1H179.9V210.1H199.9V200.1H209.9V190.1H219.9V170.1H209.9V180.1H199.9ZM159.9 130.1H169.9V140.1H159.9V130.1Z" fill="#E1924C"/>
<path d="M149.9 120.1H159.9V130.1H149.9V120.1Z" fill="#E1924C"/>
<path d="M139.9 110.1H149.9V120.1H139.9V110.1ZM129.9 140.1V150.1V160.1H139.9V150.1H149.9V140.1H139.9H129.9ZM159.9 130.1H169.9V140.1H159.9V130.1Z" fill="#C86300"/>
<path d="M139.9 10.1H149.9V20.1H139.9V10.1Z" fill="#C85A00"/>
<path d="M149.9 20.1H159.9V30.1H149.9V20.1Z" fill="#C85A00"/>
<path d="M159.9 30.1H169.9V40.1H159.9V30.1Z" fill="#C85A00"/>
<path d="M169.9 40.1H179.9V50.1H169.9V40.1Z" fill="#C85A00"/>
<path d="M179.9 50.1H189.9V60.1H179.9V50.1Z" fill="#C85A00"/>
<path d="M189.9 60.1H199.9V70.1H189.9V60.1ZM189.9 110.1V140.1H199.9V100.1H189.9V110.1Z" fill="#C85A00"/>
<path d="M79.9 130.1H89.9V140.1H79.9V130.1ZM179.9 140.1H189.9V150.1H179.9V140.1Z" fill="#C85A00"/>
<path d="M169.9 150.1H179.9V160.1H169.9V150.1Z" fill="#C85A00"/>
<path d="M159.9 160.1H169.9V170.1H159.9V160.1Z" fill="#C85A00"/>
<path d="M149.9 170.1H159.9V180.1H149.9V170.1Z" fill="#C85A00"/>
<path d="M139.9 180.1H149.9V190.1H139.9V180.1ZM139.9 160.1H149.9V170.1H139.9V160.1Z" fill="#C85A00"/>
<path d="M149.9 150.1H159.9V160.1H149.9V150.1Z" fill="#C85A00"/>
<path d="M119.9 90.1V80.1H109.9V100.1H119.9V90.1Z" fill="#E1924C"/>
<path d="M99.9 110.1V120.1H109.9V100.1H99.9V110.1ZM119.9 70.1H129.9V80.1H119.9V70.1ZM119.9 120.1H129.9V130.1H119.9V120.1Z" fill="#E1924C"/>
<path d="M129.9 110.1H139.9V120.1H129.9V110.1Z" fill="#E1924C"/>
<path d="M149.9 80.1H139.9V110.1H149.9V90.1H159.9V60.1H149.9V80.1ZM129.9 60.1H139.9V70.1H129.9V60.1Z" fill="#E1924C"/>
<path d="M149.9 50.1V40.1H139.9V60.1H149.9V50.1ZM129.9 10.1H139.9V20.1H129.9V10.1Z" fill="#E1924C"/>
<path d="M119.9 20.1H129.9V30.1H119.9V20.1Z" fill="#E1924C"/>
<path d="M109.9 30.1H119.9V40.1H109.9V30.1Z" fill="#E1924C"/>
<path d="M99.9 40.1H109.9V50.1H99.9V40.1Z" fill="#E1924C"/>
<path d="M89.9 50.1H99.9V60.1H89.9V50.1Z" fill="#E1924C"/>
<path d="M79.9 60.1H89.9V70.1H79.9V60.1ZM179.9 130.1H189.9V140.1H179.9V130.1Z" fill="#E1924C"/>
<path d="M169.9 140.1H179.9V150.1H169.9V140.1Z" fill="#E1924C"/>
<path d="M159.9 150.1H169.9V160.1H159.9V150.1Z" fill="#E1924C"/>
<path d="M149.9 160.1H159.9V170.1H149.9V160.1Z" fill="#E1924C"/>
<path d="M139.9 170.1H149.9V180.1H139.9V170.1ZM209.9 130.1H219.9V140.1H209.9V130.1ZM139.9 150.1H149.9V130.1H139.9V140.1H129.9V150.1H119.9V160.1H139.9V150.1ZM59.9 200.1H69.9V210.1H59.9V200.1ZM209.9 200.1H219.9V210.1H209.9V200.1ZM59.9 130.1H69.9V140.1H59.9V130.1Z" fill="#E1924C"/>
<path d="M159.9 60.1V90.1H169.9V60.1H159.9ZM159.9 100.1H169.9V120.1H159.9V100.1ZM89.9 110.1H79.9V130.1H89.9V110.1Z" fill="#D86F13"/>
<path d="M89.9 130.1H99.9V140.1H89.9V130.1Z" fill="#D86F13"/>
<path d="M99.9 140.1H109.9V150.1H99.9V140.1Z" fill="#D86F13"/>
<path d="M109.9 150.1H119.9V160.1H109.9V150.1Z" fill="#D86F13"/>
<path d="M119.9 160.1V170.1H129.9V180.1H139.9V160.1H119.9Z" fill="#D86F13"/>
<path d="M139.9 150.1H149.9V160.1H139.9V150.1Z" fill="#D86F13"/>
<path d="M129.9 50.1H119.9V60.1H109.9V70.1H99.9V80.1V90.1V100.1H109.9V90.1V80.1H119.9V70.1H129.9V60.1H139.9V50.1V40.1H129.9V50.1ZM149.9 190.1H159.9V200.1H149.9V190.1Z" fill="white"/>
<path d="M159.9 180.1H169.9V190.1H159.9V180.1Z" fill="white"/>
<path d="M169.9 170.1H179.9V180.1H169.9V170.1Z" fill="white"/>
<path d="M179.9 160.1H189.9V170.1H179.9V160.1Z" fill="white"/>
<path d="M189.9 150.1H199.9V160.1H189.9V150.1Z" fill="white"/>
<path d="M199.9 140.1H209.9V150.1H199.9V140.1ZM59.9 180.1H69.9V190.1H59.9V180.1ZM209.9 180.1H219.9V190.1H209.9V180.1ZM119.9 190.1H129.9V200.1H119.9V190.1Z" fill="white"/>
<path d="M109.9 180.1H119.9V190.1H109.9V180.1Z" fill="white"/>
<path d="M99.9 170.1H109.9V180.1H99.9V170.1Z" fill="white"/>
<path d="M89.9 160.1H99.9V170.1H89.9V160.1Z" fill="white"/>
<path d="M79.9 150.1H89.9V160.1H79.9V150.1ZM129.9 130.1H139.9V140.1H129.9V130.1ZM129.9 110.1H139.9V120.1H129.9V110.1Z" fill="white"/>
<path d="M119.9 120.1H129.9V130.1H119.9V120.1ZM119.9 140.1H129.9V150.1H119.9V140.1ZM99.9 140.1H109.9V150.1H99.9V140.1Z" fill="white"/>
<path d="M109.9 130.1H119.9V140.1H109.9V130.1ZM69.9 140.1H79.9V150.1H69.9V140.1Z" fill="white"/>
<path d="M129.9 160.1H139.9V170.1H129.9V160.1ZM159.9 100.1H169.9V130.1H179.9V70.1H169.9V90.1H149.9V110.1H159.9V100.1Z" fill="#C86300"/>
<path d="M139.9 150.1H149.9V160.1H139.9V150.1Z" fill="#C86300"/>
<path d="M149.9 140.1H159.9V150.1H149.9V140.1ZM149.9 200.1H109.9V210.1H169.9V200.1H149.9ZM149.9 170.1H159.9V180.1H149.9V170.1Z" fill="#C86300"/>
<path d="M139.9 180.1H149.9V190.1H139.9V180.1ZM159.9 160.1H169.9V170.1H159.9V160.1ZM169.9 190.1H179.9V200.1H169.9V190.1ZM199.9 160.1H209.9V170.1H199.9V160.1Z" fill="#C86300"/>
<path d="M209.9 150.1H219.9V160.1H209.9V150.1ZM179.9 180.1H189.9V190.1H179.9V180.1Z" fill="#C86300"/>
<path d="M189.9 170.1H199.9V180.1H189.9V170.1ZM69.9 180.1H79.9V190.1H69.9V180.1Z" fill="#C86300"/>
<path d="M59.9 170.1H69.9V180.1H59.9V170.1ZM89.9 200.1H99.9V210.1H89.9V200.1Z" fill="#C86300"/>
<path d="M79.9 190.1H89.9V200.1H79.9V190.1ZM199.9 180.1H209.9V190.1H199.9V180.1Z" fill="#C86300"/>
<path d="M209.9 170.1H219.9V180.1H209.9V170.1ZM179.9 200.1H189.9V210.1H179.9V200.1Z" fill="#C86300"/>
<path d="M189.9 190.1H199.9V200.1H189.9V190.1ZM169.9 150.1H179.9V160.1H169.9V150.1ZM99.9 190.1H109.9V200.1H99.9V190.1ZM69.9 160.1H79.9V170.1H69.9V160.1Z" fill="#C86300"/>
<path d="M59.9 150.1H69.9V160.1H59.9V150.1ZM89.9 180.1H99.9V190.1H89.9V180.1Z" fill="#C86300"/>
<path d="M79.9 170.1H89.9V180.1H79.9V170.1Z" fill="#C86300"/>
<path d="M78.3 258V286.4H201.5V258H78.3Z" fill="#22DFF0"/>
<path d="M139.9 70.1H129.9V80.1H119.9V100.1H109.9V120.1H99.9V130.1H119.9V120.1H129.9V110.1H139.9V80.1H149.9V60.1H139.9V70.1V70.1Z" fill="#DD8334"/>
<path d="M149.9 50.1H159.9V60.1H149.9V50.1ZM149.9 30.1V20.1H129.9V30.1H149.9Z" fill="#DD8334"/>
<path d="M149.9 30.1H159.9V40.1H149.9V30.1Z" fill="#DD8334"/>
<path d="M159.9 40.1H169.9V50.1H159.9V40.1Z" fill="#DD8334"/>
<path d="M169.9 50.1H179.9V60.1H169.9V50.1Z" fill="#DD8334"/>
<path d="M179.9 60.1H189.9V70.1H179.9V60.1Z" fill="#DD8334"/>
<path d="M189.9 90.1V100.1H199.9V70.1H189.9V90.1ZM89.9 100.1V70.1H79.9V110.1H89.9V100.1ZM119.9 30.1H129.9V40.1H119.9V30.1Z" fill="#DD8334"/>
<path d="M109.9 40.1H119.9V50.1H109.9V40.1Z" fill="#DD8334"/>
<path d="M99.9 50.1H109.9V60.1H99.9V50.1Z" fill="#DD8334"/>
<path d="M89.9 60.1H99.9V70.1H89.9V60.1ZM159.9 190.1H169.9V200.1H159.9V190.1Z" fill="#DD8334"/>
<path d="M129.9 180.1H139.9V190.1H129.9V180.1ZM169.9 180.1H179.9V190.1H169.9V180.1ZM199.9 150.1H209.9V160.1H199.9V150.1Z" fill="#DD8334"/>
<path d="M209.9 140.1H219.9V150.1H209.9V140.1ZM179.9 170.1H189.9V180.1H179.9V170.1Z" fill="#DD8334"/>
<path d="M189.9 160.1H199.9V170.1H189.9V160.1ZM69.9 190.1H79.9V200.1H69.9V190.1Z" fill="#DD8334"/>
<path d="M79.9 200.1H89.9V210.1H79.9V200.1ZM199.9 190.1H209.9V200.1H199.9V190.1Z" fill="#DD8334"/>
<path d="M189.9 200.1H199.9V210.1H189.9V200.1ZM109.9 190.1H119.9V200.1H109.9V190.1ZM119.9 170.1H129.9V180.1H119.9V170.1ZM139.9 110.1H149.9V120.1H139.9V110.1ZM159.9 130.1H169.9V140.1H159.9V130.1Z" fill="#DD8334"/>
<path d="M149.9 120.1H159.9V130.1H149.9V120.1ZM99.9 150.1H109.9V160.1H99.9V150.1Z" fill="#DD8334"/>
<path d="M169.9 140.1H179.9V150.1H169.9V140.1ZM109.9 160.1H119.9V170.1H109.9V160.1ZM99.9 180.1H109.9V190.1H99.9V180.1ZM69.9 150.1H79.9V160.1H69.9V150.1Z" fill="#DD8334"/>
<path d="M59.9 140.1H69.9V150.1H59.9V140.1ZM89.9 170.1H99.9V180.1H89.9V170.1Z" fill="#DD8334"/>
<path d="M79.9 160.1H89.9V170.1H79.9V160.1Z" fill="#DD8334"/>
<path d="M210.9 220.1H59.3V248.5H220.4V220.1H210.9Z" fill="#E1924C"/>
<path d="M149.9 10.1V0.100006H129.9V10.1H149.9Z" fill="black"/>
<path d="M149.9 10.1H159.9V20.1H149.9V10.1Z" fill="black"/>
<path d="M159.9 20.1H169.9V30.1H159.9V20.1Z" fill="black"/>
<path d="M169.9 30.1H179.9V40.1H169.9V30.1Z" fill="black"/>
<path d="M179.9 40.1H189.9V50.1H179.9V40.1Z" fill="black"/>
<path d="M189.9 50.1H199.9V60.1H189.9V50.1ZM119.9 10.1H129.9V20.1H119.9V10.1Z" fill="black"/>
<path d="M109.9 20.1H119.9V30.1H109.9V20.1Z" fill="black"/>
<path d="M99.9 30.1H109.9V40.1H99.9V30.1Z" fill="black"/>
<path d="M89.9 40.1H99.9V50.1H89.9V40.1Z" fill="black"/>
<path d="M79.9 50.1H89.9V60.1H79.9V50.1ZM179.9 90.1V130.1H189.9V70.1H179.9V90.1ZM99.9 110.1V70.1H89.9V130.1H99.9V110.1ZM149.9 40.1V30.1H129.9V40.1H149.9Z" fill="black"/>
<path d="M119.9 40.1H129.9V50.1H119.9V40.1ZM149.9 40.1H159.9V50.1H149.9V40.1Z" fill="black"/>
<path d="M159.9 50.1H169.9V60.1H159.9V50.1Z" fill="black"/>
<path d="M169.9 60.1H179.9V70.1H169.9V60.1ZM109.9 50.1H119.9V60.1H109.9V50.1Z" fill="black"/>
<path d="M99.9 60.1H109.9V70.1H99.9V60.1ZM129.9 190.1V200.1H149.9V190.1H129.9V190.1ZM149.9 110.1V100.1H129.9V110.1H149.9ZM129.9 170.1V180.1H149.9V170.1H129.9Z" fill="black"/>
<path d="M149.9 160.1H159.9V170.1H149.9V160.1ZM149.9 110.1H159.9V120.1H149.9V110.1ZM169.9 130.1H179.9V140.1H169.9V130.1Z" fill="black"/>
<path d="M179.9 140.1V160.1H189.9V150.1H199.9V140.1H179.9V140.1ZM159.9 120.1H169.9V130.1H159.9V120.1ZM209.9 160.1H219.9V170.1H209.9V160.1Z" fill="black"/>
<path d="M209.9 120.1V60.1H199.9V140.1H209.9V130.1H219.9V160.1H229.9V120.1H209.9V120.1ZM169.9 160.1H179.9V170.1H169.9V160.1Z" fill="black"/>
<path d="M159.9 170.1H169.9V180.1H159.9V170.1Z" fill="black"/>
<path d="M149.9 180.1H159.9V190.1H149.9V180.1ZM69.9 170.1H79.9V180.1H69.9V170.1Z" fill="black"/>
<path d="M79.9 180.1H89.9V190.1H79.9V180.1Z" fill="black"/>
<path d="M89.9 190.1H99.9V200.1H89.9V190.1Z" fill="black"/>
<path d="M99.9 200.1H109.9V210.1H99.9V200.1Z" fill="black"/>
<path d="M119.9 220.1H169.9V210.1H109.9V220.1H119.9V220.1ZM199.9 170.1H209.9V180.1H199.9V170.1Z" fill="black"/>
<path d="M189.9 180.1H199.9V190.1H189.9V180.1Z" fill="black"/>
<path d="M179.9 190.1H189.9V200.1H179.9V190.1Z" fill="black"/>
<path d="M169.9 200.1H179.9V210.1H169.9V200.1Z" fill="black"/>
<path d="M219.9 190.1H209.9V200.1H219.9V210.1H209.9V200.1H199.9V210.1H179.9V220.1H220.4V248.5H229.9V170.1H219.9V190.1ZM119.9 160.1H129.9V170.1H119.9V160.1ZM139.9 120.1H129.9V130.1H149.9V120.1H139.9Z" fill="black"/>
<path d="M149.9 130.1H159.9V140.1H149.9V130.1ZM119.9 130.1H129.9V140.1H119.9V130.1Z" fill="black"/>
<path d="M159.9 150.1V160.1H169.9V140.1H159.9V150.1V150.1ZM119.9 140.1H109.9V160.1H119.9V140.1V140.1Z" fill="black"/>
<path d="M119.9 110.1H129.9V120.1H119.9V110.1ZM99.9 130.1H109.9V140.1H99.9V130.1Z" fill="black"/>
<path d="M99.9 140.1H79.9V150.1H89.9V160.1H99.9V140.1V140.1ZM109.9 120.1H119.9V130.1H109.9V120.1ZM59.9 160.1H69.9V170.1H59.9V160.1Z" fill="black"/>
<path d="M59.9 140.1V130.1H69.9V140.1H79.9V60.1H69.9V120.1H49.9V160.1H59.9V140.1V140.1ZM99.9 160.1H109.9V170.1H99.9V160.1Z" fill="black"/>
<path d="M109.9 170.1H119.9V180.1H109.9V170.1Z" fill="black"/>
<path d="M119.9 180.1H129.9V190.1H119.9V180.1ZM59.4 229.6V220.1H99.9V210.1H79.9V200.1H69.9V210.1H59.9V200.1H69.9V190.1H59.9V170.1H49.9V248.5H59.4V229.6ZM182.5 286.4H78.3V295.9H201.5V286.4H182.5Z" fill="black"/>
<path d="M201.5 248.5H59.4V258H68.9V286.4H78.4V258H201.6V286.4H211.1V258H220.6V248.5H201.5Z" fill="black"/>
<path d="M99.5 227.6V229.7H90.9V227.6H99.5ZM99.5 234.1V236.3H90.9V234.1H99.5ZM90.9 240.5H99.5V242.6H90.9V240.5ZM101.7 234.1H99.6V229.8H101.7V234.1ZM99.5 240.5V236.2H101.6V240.5H99.5ZM103.8 234.1H105.9V242.7H103.8V234.1ZM110.2 231.9V234H105.9V231.9H110.2ZM114.5 240.5H112.4V234H114.5V240.5V240.5ZM114.5 234.1V232H121V227.7H123.1V242.7H114.5V240.6H121V234.1H114.5V234.1ZM135.9 229.8V234.1H133.8V229.8H135.9ZM133.8 240.5H142.4V242.6H133.8V240.5ZM144.5 229.8H135.9V227.7H144.5V229.8ZM135.9 236.2V234H142.4V236.2H135.9V236.2ZM142.3 240.5V236.2H144.4V240.5H142.3ZM157.3 227.6V231.9H155.2V229.7H146.6V227.6H157.3V227.6ZM146.6 238.4H148.7V240.6H157.3V242.7H146.6V238.4V238.4ZM148.7 236.2H150.9V238.3H148.7V236.2ZM150.9 234.1H153V236.3H150.9V234.1ZM153 231.9H155.2V234H153V231.9V231.9ZM163.7 231.9V234H161.5V242.6H159.4V227.6H161.5V231.9H163.7V231.9ZM165.9 234.1V236.3H163.8V234.1H165.9ZM170.2 227.6V242.6H168.1V238.3H165.9V236.2H168.1V227.6H170.2V227.6ZM189.4 227.6V229.7H180.8V227.6H189.4ZM183 236.2V240.5H191.6V242.6H180.9V236.2H183V236.2ZM189.4 236.2H182.9V234H189.4V236.2V236.2ZM191.6 234.1H189.5V229.8H191.6V234.1Z" fill="black" stroke="black" stroke-width="0.199" stroke-miterlimit="10"/>
<path d="M130.1 266.4V270.1H128.3V266.4H130.1ZM128.3 275.5H130.1V279.2H128.3V275.5ZM132 270.1V271.9H130.2V270.1H132ZM130.1 273.7H131.9V275.5H130.1V273.7ZM133.8 271.9V273.7H132V271.9H133.8V271.9ZM135.6 271.9H133.8V270.1H135.6V271.9ZM133.8 275.5V273.7H135.6V275.5H133.8ZM137.4 270.1H135.6V266.4H137.4V270.1ZM135.6 279.2V275.5H137.4V279.2H135.6ZM142.3 271.9H147.8V273.7H142.3V279.2H140.5V266.4H147.8V268.2H142.3V271.9V271.9ZM149.7 268.2V271.9H147.9V268.2H149.7Z" fill="black"/>
</svg>
