<svg width="389" height="378" viewBox="0 0 389 378" fill="none" xmlns="http://www.w3.org/2000/svg">
<g clip-path="url(#clip0_1_537)">
<path d="M189 378.2C293.492 378.2 378.2 293.492 378.2 189C378.2 84.5077 293.492 -0.199997 189 -0.199997C84.5077 -0.199997 -0.200012 84.5077 -0.200012 189C-0.200012 293.492 84.5077 378.2 189 378.2Z" fill="#00FF87"/>
<path d="M110.8 315.3H112.5V320.5H110.8V315.3Z" fill="black"/>
<path d="M105.6 310.1H110.8V308.4H103.9V320.5H105.6V315.3H110.8V313.6H105.6V310.1Z" fill="black"/>
<path d="M110.8 310.1H112.5V313.5H110.8V310.1ZM115.9 308.4H121.1V310.1H115.9V308.4Z" fill="black"/>
<path d="M114.2 310.1H115.9V318.7H114.2V310.1ZM115.9 318.8H121.1V320.5H115.9V318.8ZM121.1 310.1H122.8V318.7H121.1V310.1ZM124.5 310.1H126.2V318.7H124.5V310.1Z" fill="black"/>
<path d="M126.2 308.4H131.4V310.1H126.2V308.4Z" fill="black"/>
<path d="M131.4 310.1H133.1V318.7H131.4V310.1ZM126.2 318.8H131.4V320.5H126.2V318.8ZM140 317H141.7V318.7H140V317ZM141.7 318.8H143.4V320.5H141.7V318.8ZM138.3 311.9H140V313.6H138.3V311.9ZM141.7 308.4H143.4V310.1H141.7V308.4Z" fill="black"/>
<path d="M136.6 308.4H134.9V320.5H136.6V315.3H138.3V313.6H136.6V308.4Z" fill="black"/>
<path d="M138.3 315.3H140V317H138.3V315.3ZM140 310.1H141.7V311.8H140V310.1ZM145.2 310.1H146.9V318.8H145.2V320.5H150.3V318.8H148.6V310.1H150.3V308.4H145.2V310.1ZM152 320.5H160.6V318.8H153.7V315.3H160.6V313.6H153.7V310.1H160.6V308.4H152V320.5ZM169.2 310.1H170.9V318.7H169.2V310.1ZM170.9 318.8H176.1V320.5H170.9V318.8ZM176.1 310.1H177.8V318.7H176.1V310.1Z" fill="black"/>
<path d="M170.9 308.4H176.1V310.1H170.9V308.4ZM179.5 320.5H181.3V315.3H188.2V313.6H181.3V310.1H188.2V308.4H179.5V320.5ZM196.8 310.1H200.2V320.5H201.9V310.1H205.4V308.4H196.8V310.1ZM214 313.6H208.8V308.4H207.1V320.5H208.8V315.3H214V320.5H215.7V308.4H214V313.6Z" fill="black"/>
<path d="M238 315.3H239.7V320.5H238V315.3ZM239.8 313.6H241.5V315.3H239.8V313.6Z" fill="black"/>
<path d="M241.5 308.4H243.2V313.6H241.5V308.4ZM236.3 313.6H238V315.3H236.3V313.6Z" fill="black"/>
<path d="M234.6 308.4H236.3V313.6H234.6V308.4Z" fill="black"/>
<path d="M262.1 313.6H256.9V310.1H255.2V320.5H256.9V315.3H262.1V320.5H263.8V310.1H262.1V313.6Z" fill="black"/>
<path d="M256.9 308.4H262.1V310.1H256.9V308.4ZM267.2 313.6V310.1H272.4V308.4H265.5V320.5H267.2V315.3H272.4V313.6H267.2Z" fill="black"/>
<path d="M272.4 310.1H274.1V313.5H272.4V310.1ZM272.4 315.3H274.1V320.5H272.4V315.3ZM103.9 274.3H107.7V281.9H103.9V274.3Z" fill="black"/>
<path d="M107.7 270.6H122.8V274.4H107.7V270.6ZM103.9 293.3H119V297.1H103.9V293.3ZM107.7 281.9H119.1V285.7H107.7V281.9Z" fill="black"/>
<path d="M119.1 285.7H122.9V293.3H119.1V285.7ZM145.5 293.3H130.4V285.7H145.5V281.9H130.4V274.3H145.5V270.6H126.6V297H145.5V293.3ZM153 270.6H164.4V274.4H153V270.6Z" fill="black"/>
<path d="M164.4 281.9H153V274.3H149.3V297H153V285.7H164.4V297H168.2V274.3H164.4V281.9ZM175.7 270.6H190.8V274.4H175.7V270.6Z" fill="black"/>
<path d="M172 274.3H175.8V281.9H172V274.3ZM172 293.3H187.1V297.1H172V293.3Z" fill="black"/>
<path d="M175.7 281.9H187.1V285.7H175.7V281.9Z" fill="black"/>
<path d="M187.1 285.7H190.9V293.3H187.1V285.7ZM209.8 274.3H213.6V293.3H209.8V274.3Z" fill="black"/>
<path d="M198.4 270.6H209.8V274.4H198.4V270.6ZM198.4 293.3H209.8V297.1H198.4V293.3Z" fill="black"/>
<path d="M194.6 274.3H198.4V293.3H194.6V274.3ZM236.2 297V270.6H232.5V285.7H228.7V289.5H232.5V297H236.2Z" fill="black"/>
<path d="M224.9 281.9H228.7V285.7H224.9V281.9Z" fill="black"/>
<path d="M221.1 278.1V270.6H217.3V297H221.1V281.9H224.9V278.1H221.1ZM255.2 270.6H270.3V274.4H255.2V270.6Z" fill="black"/>
<path d="M274.1 293.3H258.9V285.7H255.2V297H274.1V293.3ZM270.3 274.3H274.1V281.9H270.3V274.3Z" fill="black"/>
<path d="M258.9 281.9H270.3V285.7H258.9V281.9ZM259 155.4V165.4H249V175.4H229V165.4H219V155.4H209V145.4H199V135.4H209V125.4H219V115.4H229V105.4H239V85.4H229V75.4H219V65.4H209V55.4H199V45.4H179V55.4H169V65.4H159V75.4H149V85.4H139V105.4H149V115.4H159V125.4H169V135.4H179V145.4H169V155.4H159V165.4H149V175.4H129V165.4H119V155.4H99V195.4H109V205.4H99V255.4H149V245.4H159V255.4H219V245.4H229V255.4H279V205.4H269V195.4H279V155.4H259Z" fill="black"/>
<path d="M259 165.4V175.4H249V185.4H239V195.4H229V205.4H219V215.4H209V225.4H199V235.4H179V225.4H169V215.4H159V205.4H149V195.4H139V185.4H129V175.4H119V165.4H109V195.4H119V205.4H129V215.4H139V225.4H149V235.4H159V245.4H219V235.4H229V225.4H239V215.4H249V205.4H259V195.4H269V165.4H259V165.4ZM109 235.4H119V245.4H109V235.4Z" fill="#00FF87"/>
<path d="M139 225.4H129V215.4H119V205.4H109V225.4H119V235.4H129V245.4H149V235.4H139V225.4ZM249 215.4V225.4H239V235.4H229V245.4H249V235.4H259V225.4H269V205.4H259V215.4H249Z" fill="#00FF87"/>
<path d="M259 235.4H269V245.4H259V235.4ZM199 205.4H209V215.4H199V205.4Z" fill="#00FF87"/>
<path d="M189 215.4H179V225.4H199V215.4H189ZM209 195.4H219V205.4H209V195.4Z" fill="#00FF87"/>
<path d="M169 205.4H179V215.4H169V205.4ZM199 155.4V145.4H179V155.4H199ZM219 195.4H229V175.4H219V195.4Z" fill="#00FF87"/>
<path d="M209 165.4H219V175.4H209V165.4Z" fill="#00FF87"/>
<path d="M199 155.4H209V165.4H199V155.4ZM169 155.4H179V165.4H169V155.4ZM159 185.4V175.4H149V195.4H159V185.4V185.4Z" fill="#00FF87"/>
<path d="M159 165.4H169V175.4H159V165.4ZM159 195.4H169V205.4H159V195.4ZM199 115.4H209V125.4H199V115.4Z" fill="#00FF87"/>
<path d="M179 125.4V135.4H199V125.4H179ZM209 105.4H219V115.4H209V105.4Z" fill="#00FF87"/>
<path d="M169 115.4H179V125.4H169V115.4ZM199 65.4V55.4H179V65.4H199ZM219 105.4H229V85.4H219V105.4Z" fill="#00FF87"/>
<path d="M209 75.4H219V85.4H209V75.4Z" fill="#00FF87"/>
<path d="M199 65.4H209V75.4H199V65.4ZM169 65.4H179V75.4H169V65.4ZM159 95.4V85.4H149V105.4H159V95.4Z" fill="#00FF87"/>
<path d="M159 75.4H169V85.4H159V75.4ZM159 105.4H169V115.4H159V105.4Z" fill="#00FF87"/>
<path d="M189 195.4H199V205.4H189V195.4Z" fill="#008287"/>
<path d="M199 185.4H209V195.4H199V185.4ZM189 105.4H199V115.4H189V105.4Z" fill="#008287"/>
<path d="M199 95.4H209V105.4H199V95.4Z" fill="#008287"/>
<path d="M199 235.4H159V245.4H219V235.4H199Z" fill="#7D7D7D"/>
<path d="M219 225.4H229V235.4H219V225.4ZM249 195.4H259V205.4H249V195.4Z" fill="#7D7D7D"/>
<path d="M259 185.4H269V195.4H259V185.4ZM229 215.4H239V225.4H229V215.4Z" fill="#7D7D7D"/>
<path d="M239 205.4H249V215.4H239V205.4ZM119 215.4H129V225.4H119V215.4Z" fill="#7D7D7D"/>
<path d="M109 205.4H119V215.4H109V205.4ZM139 235.4H149V245.4H139V235.4Z" fill="#7D7D7D"/>
<path d="M129 225.4H139V235.4H129V225.4ZM249 215.4H259V225.4H249V215.4Z" fill="#7D7D7D"/>
<path d="M259 205.4H269V215.4H259V205.4ZM229 235.4H239V245.4H229V235.4Z" fill="#7D7D7D"/>
<path d="M239 225.4H249V235.4H239V225.4ZM149 225.4H159V235.4H149V225.4ZM119 195.4H129V205.4H119V195.4Z" fill="#7D7D7D"/>
<path d="M109 185.4H119V195.4H109V185.4ZM139 215.4H149V225.4H139V215.4Z" fill="#7D7D7D"/>
<path d="M129 205.4H139V215.4H129V205.4ZM199 205.4H209V215.4H199V205.4Z" fill="#7D7D7D"/>
<path d="M189 215.4H199V225.4H189V215.4ZM209 195.4H219V205.4H209V195.4Z" fill="#7D7D7D"/>
<path d="M219 185.4H229V195.4H219V185.4ZM199 115.4H209V125.4H199V115.4Z" fill="#7D7D7D"/>
<path d="M189 125.4H199V135.4H189V125.4ZM209 105.4H219V115.4H209V105.4Z" fill="#7D7D7D"/>
<path d="M219 95.4H229V105.4H219V95.4Z" fill="#7D7D7D"/>
<path d="M259 165.4H269V175.4H259V165.4ZM109 235.4H119V245.4H109V235.4ZM259 235.4H269V245.4H259V235.4ZM109 165.4H119V175.4H109V165.4Z" fill="#00FF87"/>
<path d="M189 185.4H199V195.4H189V185.4Z" fill="#00C387"/>
<path d="M179 195.4H189V205.4H179V195.4ZM199 175.4H209V185.4H199V175.4ZM189 95.4H199V105.4H189V95.4Z" fill="#00C387"/>
<path d="M179 105.4H189V115.4H179V105.4ZM199 85.4H209V95.4H199V85.4Z" fill="#00C387"/>
<path d="M179 165.4H189V175.4H179V165.4Z" fill="#C1FFE2"/>
<path d="M169 175.4H179V185.4H169V175.4ZM179 75.4H189V85.4H179V75.4Z" fill="#C1FFE2"/>
<path d="M169 85.4H179V95.4H169V85.4Z" fill="#C1FFE2"/>
<path d="M199 225.4H209V235.4H199V225.4Z" fill="#E1E1E1"/>
<path d="M209 215.4H219V225.4H209V215.4Z" fill="#E1E1E1"/>
<path d="M219 205.4H229V215.4H219V205.4Z" fill="#E1E1E1"/>
<path d="M229 195.4H239V205.4H229V195.4Z" fill="#E1E1E1"/>
<path d="M239 185.4H249V195.4H239V185.4Z" fill="#E1E1E1"/>
<path d="M249 175.4H259V185.4H249V175.4ZM109 215.4H119V225.4H109V215.4ZM259 215.4H269V225.4H259V215.4ZM169 225.4H179V235.4H169V225.4Z" fill="#E1E1E1"/>
<path d="M159 215.4H169V225.4H159V215.4Z" fill="#E1E1E1"/>
<path d="M149 205.4H159V215.4H149V205.4Z" fill="#E1E1E1"/>
<path d="M139 195.4H149V205.4H139V195.4Z" fill="#E1E1E1"/>
<path d="M129 185.4H139V195.4H129V185.4Z" fill="#E1E1E1"/>
<path d="M119 175.4H129V185.4H119V175.4ZM179 145.4H189V155.4H179V145.4Z" fill="#E1E1E1"/>
<path d="M169 155.4H179V165.4H169V155.4ZM149 175.4H159V185.4H149V175.4Z" fill="#E1E1E1"/>
<path d="M159 165.4H169V175.4H159V165.4ZM179 55.4H189V65.4H179V55.4Z" fill="#E1E1E1"/>
<path d="M169 65.4H179V75.4H169V65.4ZM149 85.4H159V95.4H149V85.4Z" fill="#E1E1E1"/>
<path d="M159 75.4H169V85.4H159V75.4Z" fill="#E1E1E1"/>
<path d="M209 225.4H219V235.4H209V225.4Z" fill="#AFAFAF"/>
<path d="M219 215.4H229V225.4H219V215.4ZM249 185.4H259V195.4H249V185.4Z" fill="#AFAFAF"/>
<path d="M259 175.4H269V185.4H259V175.4ZM229 205.4H239V215.4H229V205.4Z" fill="#AFAFAF"/>
<path d="M239 195.4H249V205.4H239V195.4ZM119 225.4H129V235.4H119V225.4Z" fill="#AFAFAF"/>
<path d="M129 235.4H139V245.4H129V235.4ZM249 225.4H259V235.4H249V225.4Z" fill="#AFAFAF"/>
<path d="M239 235.4H249V245.4H239V235.4ZM159 225.4H169V235.4H159V225.4Z" fill="#AFAFAF"/>
<path d="M149 215.4H159V225.4H149V215.4ZM119 185.4H129V195.4H119V185.4Z" fill="#AFAFAF"/>
<path d="M109 175.4H119V185.4H109V175.4ZM139 205.4H149V215.4H139V205.4Z" fill="#AFAFAF"/>
<path d="M129 195.4H139V205.4H129V195.4ZM179 215.4H189V225.4H179V215.4Z" fill="#AFAFAF"/>
<path d="M169 205.4H179V215.4H169V205.4ZM189 145.4H199V155.4H189V145.4ZM209 165.4H219V175.4H209V165.4Z" fill="#AFAFAF"/>
<path d="M199 155.4H209V165.4H199V155.4ZM149 185.4H159V195.4H149V185.4Z" fill="#AFAFAF"/>
<path d="M219 175.4H229V185.4H219V175.4ZM159 195.4H169V205.4H159V195.4ZM179 125.4H189V135.4H179V125.4Z" fill="#AFAFAF"/>
<path d="M169 115.4H179V125.4H169V115.4ZM189 55.4H199V65.4H189V55.4ZM209 75.4H219V85.4H209V75.4Z" fill="#AFAFAF"/>
<path d="M199 65.4H209V75.4H199V65.4ZM149 95.4H159V105.4H149V95.4Z" fill="#AFAFAF"/>
<path d="M219 85.4H229V95.4H219V85.4ZM159 105.4H169V115.4H159V105.4Z" fill="#AFAFAF"/>
</g>
<defs>
<clipPath id="clip0_1_537">
<rect width="389" height="378" fill="white"/>
</clipPath>
</defs>
</svg>
