<svg width="290" height="286" viewBox="0 0 290 286" fill="none" xmlns="http://www.w3.org/2000/svg">
<path d="M235 150.1V110.1H215V40.1H205V30.1H195V20.1H185V10.1H165V0.0999756H125V10.1H105V20.1H95V30.1H85V40.1H75V110.1H55V150.1H65V160.1H55V210.1V238.5H45.5V276.4H55V285.9H235V276.4H244.5V238.5H235V160.1H225V150.1H235ZM105 210.1V200.1H115V210.1H105ZM175 210.1V200.1H185V210.1H175Z" fill="black"/>
<path d="M105 130.1V120.1H95V60.1H105V50.1H115V40.1H125V30.1H165V40.1H175V50.1H185V60.1H195V120.1H185V130.1H205V40.1H195V30.1H185V20.1H165V10.1H125V20.1H105V30.1H95V40.1H85V130.1H105Z" fill="#FEE433"/>
<path d="M215 120.1V130.1H205V140.1H195V150.1H185V160.1H175V170.1H165V180.1H155V190.1H135V180.1H125V170.1H115V160.1H105V150.1H95V140.1H85V130.1H75V120.1H65V150.1H75V160.1H85V170.1H95V180.1H105V190.1H115V200.1H175V190.1H185V180.1H195V170.1H205V160.1H215V150.1H225V120.1H215V120.1ZM65 190.1H75V200.1H65V190.1ZM215 190.1H225V200.1H215V190.1ZM115 110.1H125V100.1H135V90.1H155V100.1H165V110.1H175V120.1H185V60.1H175V50.1H165V40.1H125V50.1H115V60.1H105V120.1H115V110.1Z" fill="#FEE433"/>
<path d="M165 130.1H155V120.1H135V130.1H125V150.1H135V160.1H155V150.1H165V130.1V130.1ZM145 110.1H155V100.1H135V110.1H145Z" fill="#FEE433"/>
<path d="M125 110.1H135V120.1H125V110.1Z" fill="#FEE433"/>
<path d="M115 120.1H125V130.1H115V120.1ZM125 160.1H135V170.1H125V160.1ZM165 120.1H175V130.1H165V120.1Z" fill="#FEE433"/>
<path d="M155 110.1H165V120.1H155V110.1ZM115 140.1V130.1H105V150.1H115V140.1V140.1Z" fill="#FEE433"/>
<path d="M185 130.1H175V150.1H185V130.1V130.1ZM115 150.1H125V160.1H115V150.1ZM155 160.1H165V170.1H155V160.1Z" fill="#FEE433"/>
<path d="M145 170.1H135V180.1H155V170.1H145ZM165 150.1H175V160.1H165V150.1ZM95 180.1H85V170.1H75V160.1H65V180.1H75V190.1H85V200.1H105V190.1H95V180.1ZM205 170.1V180.1H195V190.1H185V200.1H205V190.1H215V180.1H225V160.1H215V170.1H205Z" fill="#FEE433"/>
<path d="M175 20.1H185V10.1H165V20.1H175Z" fill="black"/>
<path d="M185 20.1H195V30.1H185V20.1Z" fill="black"/>
<path d="M195 30.1H205V40.1H195V30.1ZM125 20.1V10.1H105V20.1H125Z" fill="black"/>
<path d="M95 20.1H105V30.1H95V20.1Z" fill="black"/>
<path d="M85 30.1H95V40.1H85V30.1ZM185 80.1V120.1H195V60.1H185V80.1ZM105 100.1V60.1H95V120.1H105V100.1ZM145 10.1H165V0.0999756H125V10.1H145ZM145 40.1H165V30.1H125V40.1H145Z" fill="black"/>
<path d="M165 40.1H175V50.1H165V40.1Z" fill="black"/>
<path d="M175 50.1H185V60.1H175V50.1ZM115 40.1H125V50.1H115V40.1Z" fill="black"/>
<path d="M105 50.1H115V60.1H105V50.1ZM135 180.1V190.1H155V180.1H135ZM155 100.1V90.1H135V100.1H155ZM135 160.1V170.1H155V160.1H135Z" fill="black"/>
<path d="M155 150.1H165V160.1H155V150.1ZM155 100.1H165V110.1H155V100.1ZM175 120.1H185V130.1H175V120.1Z" fill="black"/>
<path d="M185 130.1V150.1H195V140.1H205V130.1H185V130.1ZM165 110.1H175V120.1H165V110.1ZM215 150.1H225V160.1H215V150.1Z" fill="black"/>
<path d="M225 110.1H215V40.1H205V130.1H215V120.1H225V150.1H235V110.1H225V110.1ZM175 150.1H185V160.1H175V150.1Z" fill="black"/>
<path d="M165 160.1H175V170.1H165V160.1Z" fill="black"/>
<path d="M155 170.1H165V180.1H155V170.1ZM75 160.1H85V170.1H75V160.1Z" fill="black"/>
<path d="M85 170.1H95V180.1H85V170.1Z" fill="black"/>
<path d="M95 180.1H105V190.1H95V180.1Z" fill="black"/>
<path d="M105 190.1H115V200.1H105V190.1Z" fill="black"/>
<path d="M85 200.1V190.1H75V200.1H65V190.1H75V180.1H65V160.1H55V210.1H105V200.1H85ZM205 160.1H215V170.1H205V160.1Z" fill="black"/>
<path d="M195 170.1H205V180.1H195V170.1Z" fill="black"/>
<path d="M185 180.1H195V190.1H185V180.1Z" fill="black"/>
<path d="M175 190.1H185V200.1H175V190.1Z" fill="black"/>
<path d="M155 200.1H115V210.1H175V200.1H155ZM225 180.1H215V190.1H225V200.1H215V190.1H205V200.1H185V210.1H235V160.1H225V180.1ZM125 150.1H135V160.1H125V150.1ZM145 110.1H135V120.1H155V110.1H145Z" fill="black"/>
<path d="M155 120.1H165V130.1H155V120.1ZM125 120.1H135V130.1H125V120.1Z" fill="black"/>
<path d="M165 140.1V150.1H175V130.1H165V140.1V140.1ZM125 130.1H115V150.1H125V130.1V130.1Z" fill="black"/>
<path d="M125 100.1H135V110.1H125V100.1ZM105 120.1H115V130.1H105V120.1Z" fill="black"/>
<path d="M105 130.1H85V140.1H95V150.1H105V130.1V130.1ZM115 110.1H125V120.1H115V110.1ZM65 150.1H75V160.1H65V150.1Z" fill="black"/>
<path d="M65 130.1V120.1H75V130.1H85V40.1H75V110.1H55V150.1H65V130.1V130.1ZM105 150.1H115V160.1H105V150.1Z" fill="black"/>
<path d="M115 160.1H125V170.1H115V160.1Z" fill="black"/>
<path d="M125 170.1H135V180.1H125V170.1ZM145 150.1H155V160.1H145V150.1Z" fill="black"/>
<path d="M155 140.1H165V150.1H155V140.1Z" fill="black"/>
<path d="M135 150.1H145V160.1H135V150.1Z" fill="#FEB423"/>
<path d="M145 140.1H155V150.1H145V140.1Z" fill="#FEB423"/>
<path d="M155 130.1H165V140.1H155V130.1Z" fill="#FEB423"/>
<path d="M145 120.1V130.1H135V140.1H125V150.1H145V140.1H155V120.1H145V120.1Z" fill="#FEB423"/>
<path d="M165 70.1V80.1H175V60.1H165V70.1ZM165 100.1V110.1H175V90.1H165V100.1ZM175 30.1H185V40.1H175V30.1Z" fill="#FEC223"/>
<path d="M185 40.1H195V50.1H185V40.1Z" fill="#FEC223"/>
<path d="M195 50.1H205V60.1H195V50.1ZM95 100.1H85V120.1H95V100.1Z" fill="#FEC223"/>
<path d="M95 120.1H105V130.1H95V120.1Z" fill="#FEC223"/>
<path d="M155 10.1H145V20.1H165V10.1H155Z" fill="#FEB423"/>
<path d="M175 20.1H165V30.1H185V20.1H175Z" fill="#FEB423"/>
<path d="M185 30.1H195V40.1H185V30.1Z" fill="#FEB423"/>
<path d="M195 40.1H205V50.1H195V40.1ZM195 100.1V130.1H205V90.1H195V100.1ZM85 120.1H95V130.1H85V120.1ZM175 60.1V80.1H155V100.1H165V90.1H175V120.1H185V60.1H175ZM155 40.1H165V50.1H155V40.1Z" fill="#FEB423"/>
<path d="M165 50.1H175V60.1H165V50.1ZM145 150.1H155V160.1H145V150.1Z" fill="#FEB423"/>
<path d="M155 140.1H165V150.1H155V140.1Z" fill="#FEB423"/>
<path d="M155 40.1H145V50.1H125V60.1H115V90.1H125V70.1H135V60.1H155V40.1Z" fill="#FEE433"/>
<path d="M105 100.1V110.1H115V90.1H105V100.1ZM155 70.1H145V90.1H155V80.1H165V60.1H155V70.1ZM105 30.1H115V40.1H105V30.1Z" fill="#FEE433"/>
<path d="M95 40.1H105V50.1H95V40.1Z" fill="#FEE433"/>
<path d="M85 50.1H95V60.1H85V50.1ZM185 120.1H195V130.1H185V120.1ZM215 120.1H225V130.1H215V120.1ZM65 190.1H75V200.1H65V190.1ZM215 190.1H225V200.1H215V190.1ZM65 120.1H75V130.1H65V120.1ZM145 130.1H135V140.1H125V150.1H145V140.1H155V120.1H145V130.1Z" fill="#FEE433"/>
<path d="M105 110.1H115V120.1H105V110.1Z" fill="#FED223"/>
<path d="M135 70.1H125V90.1H115V110.1H125V100.1H135V90.1H145V70.1H155V60.1H135V70.1Z" fill="#FED223"/>
<path d="M155 50.1H165V60.1H155V50.1ZM115 30.1H125V40.1H115V30.1Z" fill="#FED223"/>
<path d="M105 40.1H115V50.1H105V40.1Z" fill="#FED223"/>
<path d="M95 50.1H105V60.1H95V50.1ZM155 20.1H145V10.1H135V20.1H125V30.1H165V20.1H155Z" fill="#FED223"/>
<path d="M165 30.1H175V40.1H165V30.1Z" fill="#FED223"/>
<path d="M175 40.1H185V50.1H175V40.1Z" fill="#FED223"/>
<path d="M185 50.1H195V60.1H185V50.1ZM85 70.1V100.1H95V60.1H85V70.1Z" fill="#FED223"/>
<path d="M195 60.1V90.1H205V60.1H195ZM145 140.1H155V150.1H145V140.1Z" fill="#FED223"/>
<path d="M135 150.1H145V160.1H135V150.1ZM155 130.1H165V140.1H155V130.1Z" fill="#FED223"/>
<path d="M135 40.1H125V50.1H145V40.1H135ZM105 70.1V90.1H115V60.1H105V70.1Z" fill="white"/>
<path d="M115 50.1H125V60.1H115V50.1ZM125 10.1H135V20.1H125V10.1Z" fill="white"/>
<path d="M125 30.1V20.1H105V30.1H125Z" fill="white"/>
<path d="M95 30.1H105V40.1H95V30.1Z" fill="white"/>
<path d="M85 40.1H95V50.1H85V40.1ZM135 120.1H145V130.1H135V120.1Z" fill="white"/>
<path d="M125 130.1H135V140.1H125V130.1ZM155 180.1H165V190.1H155V180.1Z" fill="white"/>
<path d="M165 170.1H175V180.1H165V170.1Z" fill="white"/>
<path d="M175 160.1H185V170.1H175V160.1Z" fill="white"/>
<path d="M185 150.1H195V160.1H185V150.1Z" fill="white"/>
<path d="M195 140.1H205V150.1H195V140.1Z" fill="white"/>
<path d="M205 130.1H215V140.1H205V130.1ZM65 170.1H75V180.1H65V170.1ZM215 170.1H225V180.1H215V170.1ZM125 180.1H135V190.1H125V180.1Z" fill="white"/>
<path d="M115 170.1H125V180.1H115V170.1Z" fill="white"/>
<path d="M105 160.1H115V170.1H105V160.1Z" fill="white"/>
<path d="M95 150.1H105V160.1H95V150.1Z" fill="white"/>
<path d="M85 140.1H95V150.1H85V140.1ZM135 100.1H145V110.1H135V100.1Z" fill="white"/>
<path d="M125 110.1H135V120.1H125V110.1ZM105 130.1H115V140.1H105V130.1Z" fill="white"/>
<path d="M115 120.1H125V130.1H115V120.1ZM75 130.1H85V140.1H75V130.1Z" fill="white"/>
<path d="M165 180.1H175V190.1H165V180.1ZM135 170.1H145V180.1H135V170.1Z" fill="#FED223"/>
<path d="M175 170.1H185V180.1H175V170.1ZM205 140.1H215V150.1H205V140.1Z" fill="#FED223"/>
<path d="M215 130.1H225V140.1H215V130.1ZM185 160.1H195V170.1H185V160.1Z" fill="#FED223"/>
<path d="M195 150.1H205V160.1H195V150.1ZM75 180.1H85V190.1H75V180.1Z" fill="#FED223"/>
<path d="M85 190.1H95V200.1H85V190.1ZM205 180.1H215V190.1H205V180.1Z" fill="#FED223"/>
<path d="M195 190.1H205V200.1H195V190.1ZM115 180.1H125V190.1H115V180.1ZM125 160.1H135V170.1H125V160.1ZM145 100.1H155V110.1H145V100.1ZM165 120.1H175V130.1H165V120.1Z" fill="#FED223"/>
<path d="M155 110.1H165V120.1H155V110.1ZM105 140.1H115V150.1H105V140.1Z" fill="#FED223"/>
<path d="M175 130.1H185V140.1H175V130.1ZM115 150.1H125V160.1H115V150.1ZM105 170.1H115V180.1H105V170.1ZM75 140.1H85V150.1H75V140.1Z" fill="#FED223"/>
<path d="M65 130.1H75V140.1H65V130.1ZM95 160.1H105V170.1H95V160.1Z" fill="#FED223"/>
<path d="M85 150.1H95V160.1H85V150.1Z" fill="#FED223"/>
<path d="M155 190.1H115V200.1H175V190.1H155ZM155 160.1H165V170.1H155V160.1Z" fill="#FEB423"/>
<path d="M145 170.1H155V180.1H145V170.1ZM165 150.1H175V160.1H165V150.1ZM175 180.1H185V190.1H175V180.1ZM205 150.1H215V160.1H205V150.1Z" fill="#FEB423"/>
<path d="M215 140.1H225V150.1H215V140.1ZM185 170.1H195V180.1H185V170.1Z" fill="#FEB423"/>
<path d="M195 160.1H205V170.1H195V160.1ZM75 170.1H85V180.1H75V170.1Z" fill="#FEB423"/>
<path d="M65 160.1H75V170.1H65V160.1ZM95 190.1H105V200.1H95V190.1Z" fill="#FEB423"/>
<path d="M85 180.1H95V190.1H85V180.1ZM205 170.1H215V180.1H205V170.1Z" fill="#FEB423"/>
<path d="M215 160.1H225V170.1H215V160.1ZM185 190.1H195V200.1H185V190.1Z" fill="#FEB423"/>
<path d="M195 180.1H205V190.1H195V180.1ZM175 140.1H185V150.1H175V140.1ZM105 180.1H115V190.1H105V180.1ZM75 150.1H85V160.1H75V150.1Z" fill="#FEB423"/>
<path d="M65 140.1H75V150.1H65V140.1ZM95 170.1H105V180.1H95V170.1Z" fill="#FEB423"/>
<path d="M85 160.1H95V170.1H85V160.1Z" fill="#FEB423"/>
<path d="M55 248V276.4H235V248H55Z" fill="#FA34F3"/>
<path d="M216.1 210.1H64.5V238.5H225.6V210.1H216.1Z" fill="#FED223"/>
<path d="M73.2 220.1V228.7H71.5V220.1H73.2ZM80.1 220.1H73.2V218.4H80.1V220.1ZM73.2 230.4V228.7H80.1V230.4H73.2ZM90.4 218.4V230.5H88.7V225.3H83.5V230.5H81.8V218.4H83.5V223.6H88.7V218.4H90.4Z" fill="black" stroke="black" stroke-width="0.199" stroke-miterlimit="10"/>
<path d="M116.3 220.1V221.8H114.6V230.4H112.9V218.4H114.6V220.1H116.3ZM118 221.8V223.5H116.3V221.8H118ZM118 223.6H119.7V225.3H118V223.6ZM119.7 221.8H121.4V223.5H119.7V221.8ZM124.9 218.4V230.5H123.2V221.9H121.5V220.2H123.2V218.5H124.9V218.4ZM128.3 223.6H133.5V225.3H128.3V230.5H126.6V218.4H133.5V220.1H128.3V223.6V223.6ZM135.2 220.1V223.5H133.5V220.1H135.2ZM140.4 220.1V228.7H142.1V230.4H136.9V228.7H138.6V220.1H136.9V218.4H142.1V220.1H140.4ZM145.6 220.1V228.7H143.9V220.1H145.6ZM150.8 220.1H145.6V218.4H150.8V220.1ZM145.6 228.7H150.8V230.4H145.6V228.7ZM152.5 220.1V228.7H150.8V220.1H152.5ZM157.6 221.8V223.5H155.9V230.4H154.2V218.4H155.9V221.8H157.6V221.8ZM159.4 223.6V225.3H157.7V223.6H159.4ZM162.8 218.4V230.5H161.1V227.1H159.4V225.4H161.1V218.5L162.8 218.4V218.4ZM173.2 220.1V223.5H171.5V220.1H173.2ZM171.4 228.7H178.3V230.4H171.4V228.7ZM180 220.1H173.1V218.4H180V220.1ZM173.2 225.3V223.6H178.4V225.3H173.2ZM178.3 228.7V225.3H180V228.7H178.3ZM190.4 218.4V221.8H188.7V220.1H181.8V218.4H190.4V218.4ZM181.8 227H183.5V228.7H190.4V230.4H181.8V227V227ZM183.5 225.3H185.2V227H183.5V225.3ZM185.2 223.6H186.9V225.3H185.2V223.6ZM186.9 221.8H188.6V223.5H186.9V221.8ZM195.6 221.8V223.5H193.9V230.4H192.2V218.4H193.9V221.8H195.6V221.8ZM197.3 223.6V225.3H195.6V223.6H197.3ZM200.7 218.4V230.5H199V227.1H197.3V225.4H199V218.5L200.7 218.4V218.4ZM216.3 218.4V220.1H209.4V218.4H216.3ZM211.1 225.3V228.7H218V230.4H209.4V225.2L211.1 225.3V225.3ZM216.3 225.3H211.1V223.6H216.3V225.3ZM218 223.6H216.3V220.2H218V223.6Z" fill="black" stroke="black" stroke-width="0.199" stroke-miterlimit="10"/>
<path d="M74.7 261.9V263.7H76.5V269.2H74.7V263.7H69.2V269.2H67.4V256.4H74.7V258.2H69.2V261.9H74.7ZM74.7 261.9V258.2H76.5V261.9H74.7Z" fill="white" stroke="white" stroke-width="0.234" stroke-miterlimit="10"/>
<path d="M107.7 261.9V263.7H105.9V269.2H104.1V256.4H105.9V261.9H107.7ZM109.5 261.9H107.7V260.1H109.5V261.9ZM107.7 265.6V263.8H109.5V265.6H107.7ZM111.4 260.1H109.6V258.3H111.4V260.1ZM109.5 267.4V265.6H111.3V267.4H109.5ZM113.2 258.3H111.4V256.5H113.2V258.3ZM111.4 269.2V267.4H113.2V269.2H111.4Z" fill="white" stroke="white" stroke-width="0.234" stroke-miterlimit="10"/>
<path d="M126.7 258.3V262H134V263.8H126.7V267.5H134V269.3H124.9V256.4H134V258.2L126.7 258.3V258.3ZM149.3 261.9V263.7H147.5V269.2H145.7V256.4H147.5V261.9H149.3ZM151.2 261.9H149.4V260.1H151.2V261.9ZM149.3 265.6V263.8H151.1V265.6H149.3V265.6ZM153 260.1H151.2V258.3H153V260.1ZM151.2 267.4V265.6H153V267.4H151.2ZM154.8 258.3H153V256.5H154.8V258.3ZM153 269.2V267.4H154.8V269.2H153Z" fill="white" stroke="white" stroke-width="0.234" stroke-miterlimit="10"/>
<path d="M170.1 260.1V261.9H168.3V269.2H166.5V256.4H168.3V260.1H170.1ZM171.9 261.9V263.7H170.1V261.9H171.9ZM175.6 256.4V269.2H173.8V265.5H172V263.7H173.8V256.4H175.6ZM180.5 258.3V262H178.7V258.3H180.5ZM178.7 267.4H186V269.2H178.7V267.4ZM187.8 258.3H180.5V256.5H187.8V258.3ZM180.5 263.8V262H186V263.8H180.5ZM186 267.4V263.7H187.8V267.4H186ZM200.1 256.4V269.2H198.3V263.7H192.8V269.2H191V256.4H192.8V261.9H198.3V256.4H200.1Z" fill="white" stroke="white" stroke-width="0.234" stroke-miterlimit="10"/>
<path d="M213.5 261.9H219V263.7H213.5V269.2H211.7V256.4H219V258.2H213.5V261.9ZM220.9 258.3V262H219.1V258.3H220.9Z" fill="white" stroke="white" stroke-width="0.234" stroke-miterlimit="10"/>
</svg>
