<svg width="284" height="286" viewBox="0 0 284 286" fill="none" xmlns="http://www.w3.org/2000/svg">
<path d="M231.9 150.1V110.1H211.9V40.1H201.9V30.1H191.9V20.1H181.9V10.1H161.9V0.0999985H121.9V10.1H101.9V20.1H91.9V30.1H81.9V40.1H71.9V110.1H51.9V150.1H61.9V160.1H51.9V210.1V238.5H61.4V248H70.9V276.4H80.4V285.9H203.6V276.4H213.1V248H222.6V238.5H232.1V160.1H222.1V150.1H231.9ZM101.9 210.1V200.1H111.9V210.1H101.9ZM171.9 210.1V200.1H181.9V210.1H171.9Z" fill="black"/>
<path d="M101.9 130.1V120.1H91.9V60.1H101.9V50.1H111.9V40.1H121.9V30.1H161.9V40.1H171.9V50.1H181.9V60.1H191.9V120.1H181.9V130.1H201.9V40.1H191.9V30.1H181.9V20.1H161.9V10.1H121.9V20.1H101.9V30.1H91.9V40.1H81.9V130.1H101.9V130.1Z" fill="#FEE433"/>
<path d="M211.9 120.1V130.1H201.9V140.1H191.9V150.1H181.9V160.1H171.9V170.1H161.9V180.1H151.9V190.1H131.9V180.1H121.9V170.1H111.9V160.1H101.9V150.1H91.9V140.1H81.9V130.1H71.9V120.1H61.9V150.1H71.9V160.1H81.9V170.1H91.9V180.1H101.9V190.1H111.9V200.1H171.9V190.1H181.9V180.1H191.9V170.1H201.9V160.1H211.9V150.1H221.9V120.1H211.9V120.1ZM61.9 190.1H71.9V200.1H61.9V190.1ZM211.9 190.1H221.9V200.1H211.9V190.1ZM111.9 110.1H121.9V100.1H131.9V90.1H151.9V100.1H161.9V110.1H171.9V120.1H181.9V60.1H171.9V50.1H161.9V40.1H121.9V50.1H111.9V60.1H101.9V120.1H111.9V110.1Z" fill="#FEE433"/>
<path d="M161.9 130.1H151.9V120.1H131.9V130.1H121.9V150.1H131.9V160.1H151.9V150.1H161.9V130.1V130.1ZM141.9 110.1H151.9V100.1H131.9V110.1H141.9Z" fill="#FEE433"/>
<path d="M121.9 110.1H131.9V120.1H121.9V110.1Z" fill="#FEE433"/>
<path d="M111.9 120.1H121.9V130.1H111.9V120.1ZM121.9 160.1H131.9V170.1H121.9V160.1ZM161.9 120.1H171.9V130.1H161.9V120.1Z" fill="#FEE433"/>
<path d="M151.9 110.1H161.9V120.1H151.9V110.1ZM111.9 140.1V130.1H101.9V150.1H111.9V140.1V140.1Z" fill="#FEE433"/>
<path d="M181.9 130.1H171.9V150.1H181.9V130.1V130.1ZM111.9 150.1H121.9V160.1H111.9V150.1ZM151.9 160.1H161.9V170.1H151.9V160.1Z" fill="#FEE433"/>
<path d="M141.9 170.1H131.9V180.1H151.9V170.1H141.9V170.1ZM161.9 150.1H171.9V160.1H161.9V150.1ZM91.9 180.1H81.9V170.1H71.9V160.1H61.9V180.1H71.9V190.1H81.9V200.1H101.9V190.1H91.9V180.1ZM201.9 170.1V180.1H191.9V190.1H181.9V200.1H201.9V190.1H211.9V180.1H221.9V160.1H211.9V170.1H201.9Z" fill="#FEE433"/>
<path d="M171.9 20.1H181.9V10.1H161.9V20.1H171.9Z" fill="black"/>
<path d="M181.9 20.1H191.9V30.1H181.9V20.1Z" fill="black"/>
<path d="M191.9 30.1H201.9V40.1H191.9V30.1ZM121.9 20.1V10.1H101.9V20.1H121.9Z" fill="black"/>
<path d="M91.9 20.1H101.9V30.1H91.9V20.1Z" fill="black"/>
<path d="M81.9 30.1H91.9V40.1H81.9V30.1ZM181.9 80.1V120.1H191.9V60.1H181.9V80.1ZM101.9 100.1V60.1H91.9V120.1H101.9V100.1ZM141.9 10.1H161.9V0.0999985H121.9V10.1H141.9ZM141.9 40.1H161.9V30.1H121.9V40.1H141.9Z" fill="black"/>
<path d="M161.9 40.1H171.9V50.1H161.9V40.1Z" fill="black"/>
<path d="M171.9 50.1H181.9V60.1H171.9V50.1ZM111.9 40.1H121.9V50.1H111.9V40.1Z" fill="black"/>
<path d="M101.9 50.1H111.9V60.1H101.9V50.1ZM131.9 180.1V190.1H151.9V180.1H131.9V180.1ZM151.9 100.1V90.1H131.9V100.1H151.9ZM131.9 160.1V170.1H151.9V160.1H131.9Z" fill="black"/>
<path d="M151.9 150.1H161.9V160.1H151.9V150.1ZM151.9 100.1H161.9V110.1H151.9V100.1ZM171.9 120.1H181.9V130.1H171.9V120.1Z" fill="black"/>
<path d="M181.9 130.1V150.1H191.9V140.1H201.9V130.1H181.9V130.1ZM161.9 110.1H171.9V120.1H161.9V110.1ZM211.9 150.1H221.9V160.1H211.9V150.1Z" fill="black"/>
<path d="M221.9 110.1H211.9V40.1H201.9V130.1H211.9V120.1H221.9V150.1H231.9V110.1H221.9V110.1ZM171.9 150.1H181.9V160.1H171.9V150.1Z" fill="black"/>
<path d="M161.9 160.1H171.9V170.1H161.9V160.1Z" fill="black"/>
<path d="M151.9 170.1H161.9V180.1H151.9V170.1ZM71.9 160.1H81.9V170.1H71.9V160.1Z" fill="black"/>
<path d="M81.9 170.1H91.9V180.1H81.9V170.1Z" fill="black"/>
<path d="M91.9 180.1H101.9V190.1H91.9V180.1Z" fill="black"/>
<path d="M101.9 190.1H111.9V200.1H101.9V190.1Z" fill="black"/>
<path d="M81.9 200.1V190.1H71.9V200.1H61.9V190.1H71.9V180.1H61.9V160.1H51.9V210.1H101.9V200.1H81.9ZM201.9 160.1H211.9V170.1H201.9V160.1Z" fill="black"/>
<path d="M191.9 170.1H201.9V180.1H191.9V170.1Z" fill="black"/>
<path d="M181.9 180.1H191.9V190.1H181.9V180.1Z" fill="black"/>
<path d="M171.9 190.1H181.9V200.1H171.9V190.1Z" fill="black"/>
<path d="M151.9 200.1H111.9V210.1H171.9V200.1H151.9ZM221.9 180.1H211.9V190.1H221.9V200.1H211.9V190.1H201.9V200.1H181.9V210.1H231.9V160.1H221.9V180.1ZM121.9 150.1H131.9V160.1H121.9V150.1ZM141.9 110.1H131.9V120.1H151.9V110.1H141.9Z" fill="black"/>
<path d="M151.9 120.1H161.9V130.1H151.9V120.1ZM121.9 120.1H131.9V130.1H121.9V120.1Z" fill="black"/>
<path d="M161.9 140.1V150.1H171.9V130.1H161.9V140.1V140.1ZM121.9 130.1H111.9V150.1H121.9V130.1V130.1Z" fill="black"/>
<path d="M121.9 100.1H131.9V110.1H121.9V100.1ZM101.9 120.1H111.9V130.1H101.9V120.1Z" fill="black"/>
<path d="M101.9 130.1H81.9V140.1H91.9V150.1H101.9V130.1V130.1ZM111.9 110.1H121.9V120.1H111.9V110.1ZM61.9 150.1H71.9V160.1H61.9V150.1Z" fill="black"/>
<path d="M61.9 130.1V120.1H71.9V130.1H81.9V40.1H71.9V110.1H51.9V150.1H61.9V130.1V130.1ZM101.9 150.1H111.9V160.1H101.9V150.1Z" fill="black"/>
<path d="M111.9 160.1H121.9V170.1H111.9V160.1Z" fill="black"/>
<path d="M121.9 170.1H131.9V180.1H121.9V170.1ZM141.9 150.1H151.9V160.1H141.9V150.1Z" fill="black"/>
<path d="M151.9 140.1H161.9V150.1H151.9V140.1Z" fill="black"/>
<path d="M131.9 150.1H141.9V160.1H131.9V150.1Z" fill="#FEB423"/>
<path d="M141.9 140.1H151.9V150.1H141.9V140.1Z" fill="#FEB423"/>
<path d="M151.9 130.1H161.9V140.1H151.9V130.1Z" fill="#FEB423"/>
<path d="M141.9 120.1V130.1H131.9V140.1H121.9V150.1H141.9V140.1H151.9V120.1H141.9V120.1Z" fill="#FEB423"/>
<path d="M161.9 70.1V80.1H171.9V60.1H161.9V70.1ZM161.9 100.1V110.1H171.9V90.1H161.9V100.1ZM171.9 30.1H181.9V40.1H171.9V30.1Z" fill="#FEC223"/>
<path d="M181.9 40.1H191.9V50.1H181.9V40.1Z" fill="#FEC223"/>
<path d="M191.9 50.1H201.9V60.1H191.9V50.1ZM91.9 100.1H81.9V120.1H91.9V100.1Z" fill="#FEC223"/>
<path d="M91.9 120.1H101.9V130.1H91.9V120.1Z" fill="#FEC223"/>
<path d="M151.9 10.1H141.9V20.1H161.9V10.1H151.9Z" fill="#FEB423"/>
<path d="M171.9 20.1H161.9V30.1H181.9V20.1H171.9Z" fill="#FEB423"/>
<path d="M181.9 30.1H191.9V40.1H181.9V30.1Z" fill="#FEB423"/>
<path d="M191.9 40.1H201.9V50.1H191.9V40.1ZM191.9 100.1V130.1H201.9V90.1H191.9V100.1ZM81.9 120.1H91.9V130.1H81.9V120.1ZM171.9 60.1V80.1H151.9V100.1H161.9V90.1H171.9V120.1H181.9V60.1H171.9ZM151.9 40.1H161.9V50.1H151.9V40.1Z" fill="#FEB423"/>
<path d="M161.9 50.1H171.9V60.1H161.9V50.1ZM141.9 150.1H151.9V160.1H141.9V150.1Z" fill="#FEB423"/>
<path d="M151.9 140.1H161.9V150.1H151.9V140.1Z" fill="#FEB423"/>
<path d="M151.9 40.1H141.9V50.1H121.9V60.1H111.9V90.1H121.9V70.1H131.9V60.1H151.9V40.1Z" fill="#FEE433"/>
<path d="M101.9 100.1V110.1H111.9V90.1H101.9V100.1ZM151.9 70.1H141.9V90.1H151.9V80.1H161.9V60.1H151.9V70.1ZM101.9 30.1H111.9V40.1H101.9V30.1Z" fill="#FEE433"/>
<path d="M91.9 40.1H101.9V50.1H91.9V40.1Z" fill="#FEE433"/>
<path d="M81.9 50.1H91.9V60.1H81.9V50.1ZM181.9 120.1H191.9V130.1H181.9V120.1ZM211.9 120.1H221.9V130.1H211.9V120.1ZM61.9 190.1H71.9V200.1H61.9V190.1ZM211.9 190.1H221.9V200.1H211.9V190.1ZM61.9 120.1H71.9V130.1H61.9V120.1ZM141.9 130.1H131.9V140.1H121.9V150.1H141.9V140.1H151.9V120.1H141.9V130.1Z" fill="#FEE433"/>
<path d="M101.9 110.1H111.9V120.1H101.9V110.1Z" fill="#FED223"/>
<path d="M131.9 70.1H121.9V90.1H111.9V110.1H121.9V100.1H131.9V90.1H141.9V70.1H151.9V60.1H131.9V70.1V70.1Z" fill="#FED223"/>
<path d="M151.9 50.1H161.9V60.1H151.9V50.1ZM111.9 30.1H121.9V40.1H111.9V30.1Z" fill="#FED223"/>
<path d="M101.9 40.1H111.9V50.1H101.9V40.1Z" fill="#FED223"/>
<path d="M91.9 50.1H101.9V60.1H91.9V50.1ZM151.9 20.1H141.9V10.1H131.9V20.1H121.9V30.1H161.9V20.1H151.9Z" fill="#FED223"/>
<path d="M161.9 30.1H171.9V40.1H161.9V30.1Z" fill="#FED223"/>
<path d="M171.9 40.1H181.9V50.1H171.9V40.1Z" fill="#FED223"/>
<path d="M181.9 50.1H191.9V60.1H181.9V50.1ZM81.9 70.1V100.1H91.9V60.1H81.9V70.1Z" fill="#FED223"/>
<path d="M191.9 60.1V90.1H201.9V60.1H191.9ZM141.9 140.1H151.9V150.1H141.9V140.1Z" fill="#FED223"/>
<path d="M131.9 150.1H141.9V160.1H131.9V150.1ZM151.9 130.1H161.9V140.1H151.9V130.1Z" fill="#FED223"/>
<path d="M131.9 40.1H121.9V50.1H141.9V40.1H131.9ZM101.9 70.1V90.1H111.9V60.1H101.9V70.1Z" fill="white"/>
<path d="M111.9 50.1H121.9V60.1H111.9V50.1ZM121.9 10.1H131.9V20.1H121.9V10.1Z" fill="white"/>
<path d="M121.9 30.1V20.1H101.9V30.1H121.9Z" fill="white"/>
<path d="M91.9 30.1H101.9V40.1H91.9V30.1Z" fill="white"/>
<path d="M81.9 40.1H91.9V50.1H81.9V40.1ZM131.9 120.1H141.9V130.1H131.9V120.1Z" fill="white"/>
<path d="M121.9 130.1H131.9V140.1H121.9V130.1ZM151.9 180.1H161.9V190.1H151.9V180.1Z" fill="white"/>
<path d="M161.9 170.1H171.9V180.1H161.9V170.1Z" fill="white"/>
<path d="M171.9 160.1H181.9V170.1H171.9V160.1Z" fill="white"/>
<path d="M181.9 150.1H191.9V160.1H181.9V150.1Z" fill="white"/>
<path d="M191.9 140.1H201.9V150.1H191.9V140.1Z" fill="white"/>
<path d="M201.9 130.1H211.9V140.1H201.9V130.1ZM61.9 170.1H71.9V180.1H61.9V170.1ZM211.9 170.1H221.9V180.1H211.9V170.1ZM121.9 180.1H131.9V190.1H121.9V180.1Z" fill="white"/>
<path d="M111.9 170.1H121.9V180.1H111.9V170.1Z" fill="white"/>
<path d="M101.9 160.1H111.9V170.1H101.9V160.1Z" fill="white"/>
<path d="M91.9 150.1H101.9V160.1H91.9V150.1Z" fill="white"/>
<path d="M81.9 140.1H91.9V150.1H81.9V140.1ZM131.9 100.1H141.9V110.1H131.9V100.1Z" fill="white"/>
<path d="M121.9 110.1H131.9V120.1H121.9V110.1ZM101.9 130.1H111.9V140.1H101.9V130.1Z" fill="white"/>
<path d="M111.9 120.1H121.9V130.1H111.9V120.1ZM71.9 130.1H81.9V140.1H71.9V130.1Z" fill="white"/>
<path d="M161.9 180.1H171.9V190.1H161.9V180.1ZM131.9 170.1H141.9V180.1H131.9V170.1Z" fill="#FED223"/>
<path d="M171.9 170.1H181.9V180.1H171.9V170.1ZM201.9 140.1H211.9V150.1H201.9V140.1Z" fill="#FED223"/>
<path d="M211.9 130.1H221.9V140.1H211.9V130.1ZM181.9 160.1H191.9V170.1H181.9V160.1Z" fill="#FED223"/>
<path d="M191.9 150.1H201.9V160.1H191.9V150.1ZM71.9 180.1H81.9V190.1H71.9V180.1Z" fill="#FED223"/>
<path d="M81.9 190.1H91.9V200.1H81.9V190.1ZM201.9 180.1H211.9V190.1H201.9V180.1Z" fill="#FED223"/>
<path d="M191.9 190.1H201.9V200.1H191.9V190.1ZM111.9 180.1H121.9V190.1H111.9V180.1ZM121.9 160.1H131.9V170.1H121.9V160.1ZM141.9 100.1H151.9V110.1H141.9V100.1ZM161.9 120.1H171.9V130.1H161.9V120.1Z" fill="#FED223"/>
<path d="M151.9 110.1H161.9V120.1H151.9V110.1ZM101.9 140.1H111.9V150.1H101.9V140.1Z" fill="#FED223"/>
<path d="M171.9 130.1H181.9V140.1H171.9V130.1ZM111.9 150.1H121.9V160.1H111.9V150.1ZM101.9 170.1H111.9V180.1H101.9V170.1ZM71.9 140.1H81.9V150.1H71.9V140.1Z" fill="#FED223"/>
<path d="M61.9 130.1H71.9V140.1H61.9V130.1ZM91.9 160.1H101.9V170.1H91.9V160.1Z" fill="#FED223"/>
<path d="M81.9 150.1H91.9V160.1H81.9V150.1Z" fill="#FED223"/>
<path d="M151.9 190.1H111.9V200.1H171.9V190.1H151.9ZM151.9 160.1H161.9V170.1H151.9V160.1Z" fill="#FEB423"/>
<path d="M141.9 170.1H151.9V180.1H141.9V170.1ZM161.9 150.1H171.9V160.1H161.9V150.1ZM171.9 180.1H181.9V190.1H171.9V180.1ZM201.9 150.1H211.9V160.1H201.9V150.1Z" fill="#FEB423"/>
<path d="M211.9 140.1H221.9V150.1H211.9V140.1ZM181.9 170.1H191.9V180.1H181.9V170.1Z" fill="#FEB423"/>
<path d="M191.9 160.1H201.9V170.1H191.9V160.1ZM71.9 170.1H81.9V180.1H71.9V170.1Z" fill="#FEB423"/>
<path d="M61.9 160.1H71.9V170.1H61.9V160.1ZM91.9 190.1H101.9V200.1H91.9V190.1Z" fill="#FEB423"/>
<path d="M81.9 180.1H91.9V190.1H81.9V180.1ZM201.9 170.1H211.9V180.1H201.9V170.1Z" fill="#FEB423"/>
<path d="M211.9 160.1H221.9V170.1H211.9V160.1ZM181.9 190.1H191.9V200.1H181.9V190.1Z" fill="#FEB423"/>
<path d="M191.9 180.1H201.9V190.1H191.9V180.1ZM171.9 140.1H181.9V150.1H171.9V140.1ZM101.9 180.1H111.9V190.1H101.9V180.1ZM71.9 150.1H81.9V160.1H71.9V150.1Z" fill="#FEB423"/>
<path d="M61.9 140.1H71.9V150.1H61.9V140.1ZM91.9 170.1H101.9V180.1H91.9V170.1Z" fill="#FEB423"/>
<path d="M81.9 160.1H91.9V170.1H81.9V160.1Z" fill="#FEB423"/>
<path d="M194 248H80.3V276.4H203.5V248H194Z" fill="#22DFF0"/>
<path d="M213 210.1H61.4V238.5H222.5V210.1H213Z" fill="#FED223"/>
<path d="M70.1 220.1V228.7H68.4V220.1H70.1ZM77 220.1H70.1V218.4H77V220.1ZM70.1 230.4V228.7H77V230.4H70.1ZM87.3 218.4V230.5H85.6V225.3H80.4V230.5H78.7V218.4H80.4V223.6H85.6V218.4H87.3ZM97.7 220.1V230.4H96V225.2H90.8V230.4H89.1V220.1H90.8V223.5H96V220.1H97.7ZM96 220.1H90.8V218.4H96V220.1ZM108 220.1V230.4H106.3V225.2H101.1V230.4H99.4V220.1H101.1V223.5H106.3V220.1H108ZM106.3 220.1H101.1V218.4H106.3V220.1ZM113.2 220.1V221.8H111.5V230.4H109.8V218.3H111.5V220H113.2V220.1ZM114.9 221.8V223.5H113.2V221.8H114.9ZM114.9 223.5H116.6V225.2H114.9V223.5ZM116.6 221.8H118.3V223.5H116.6V221.8ZM121.8 218.4V230.5H120.1V221.9H118.4V220.2H120.1V218.5H121.8V218.4ZM125.2 223.5H130.4V225.2H125.2V230.4H123.5V218.3H130.4V220H125.2V223.5V223.5ZM132.1 220.1V223.5H130.4V220.1H132.1ZM137.3 220.1V228.7H139V230.4H133.8V228.7H135.5V220.1H133.8V218.4H139V220.1H137.3ZM142.5 220.1V228.7H140.8V220.1H142.5ZM147.7 220.1H142.5V218.4H147.7V220.1ZM142.5 228.7H147.7V230.4H142.5V228.7ZM149.4 220.1V228.7H147.7V220.1H149.4ZM154.5 221.8V223.5H152.8V230.4H151.1V218.3H152.8V221.7L154.5 221.8V221.8ZM156.3 223.5V225.2H154.6V223.5H156.3ZM159.7 218.4V230.5H158V227.1H156.3V225.4H158V218.5L159.7 218.4V218.4ZM170.1 220.1V223.5H168.4V220.1H170.1ZM168.3 228.7H175.2V230.4H168.3V228.7ZM176.9 220.1H170V218.4H176.9V220.1ZM170.1 225.3V223.6H175.3V225.3H170.1ZM175.2 228.7V225.3H176.9V228.7H175.2ZM187.3 218.4V221.8H185.6V220.1H178.7V218.4H187.3V218.4ZM178.7 227H180.4V228.7H187.3V230.4H178.7V227V227ZM180.4 225.3H182.1V227H180.4V225.3ZM182.1 223.5H183.8V225.2H182.1V223.5ZM183.8 221.8H185.5V223.5H183.8V221.8ZM192.5 221.8V223.5H190.8V230.4H189.1V218.3H190.8V221.7L192.5 221.8V221.8ZM194.2 223.5V225.2H192.5V223.5H194.2ZM197.6 218.4V230.5H195.9V227.1H194.2V225.4H195.9V218.5L197.6 218.4V218.4ZM213.2 218.4V220.1H206.3V218.4H213.2ZM208 225.3V228.7H214.9V230.4H206.3V225.2L208 225.3V225.3ZM213.2 225.3H208V223.6H213.2V225.3V225.3ZM214.9 223.5H213.2V220.1H214.9V223.5Z" fill="black" stroke="black" stroke-width="0.199" stroke-miterlimit="10"/>
<path d="M98.5 261.9V263.7H100.3V269.2H98.5V263.7H93V269.2H91.2V256.4H98.5V258.2H93V261.9H98.5ZM98.5 261.9V258.2H100.3V261.9H98.5ZM105.2 258.2V267.4H103.4V258.2H105.2ZM110.7 258.2H105.2V256.4H110.7V258.2ZM105.2 267.4H110.7V269.2H105.2V267.4ZM112.5 258.2V267.4H110.7V258.2H112.5ZM117.5 258.2V267.4H115.7V258.2H117.5ZM123 258.2H117.5V256.4H123V258.2ZM117.5 267.4H123V269.2H117.5V267.4ZM124.8 258.2V267.4H123V258.2H124.8ZM131.5 261.9V263.7H129.7V269.2H127.9V256.4H129.7V261.9H131.5ZM133.3 261.9H131.5V260.1H133.3V261.9ZM131.5 265.5V263.7H133.3V265.5H131.5ZM135.2 260.1H133.4V258.3H135.2V260.1ZM133.3 267.4V265.6H135.1V267.4H133.3ZM137 258.2H135.2V256.4H137V258.2ZM135.2 269.2V267.4H137V269.2H135.2ZM143.8 258.2V267.4H145.6V269.2H140.1V267.4H141.9V258.2H140.1V256.4H145.6V258.2H143.8ZM150.5 258.2V261.9H157.8V263.7H150.5V267.4H157.8V269.2H148.7V256.4H157.8V258.2H150.5ZM171.3 256.4V260.1H169.5V256.4H171.3ZM169.5 265.5H171.3V269.2H169.5V265.5ZM173.1 260.1V261.9H171.3V260.1H173.1ZM171.3 263.7H173.1V265.5H171.3V263.7ZM175 261.9V263.7H173.2V261.9H175ZM176.8 261.9H175V260.1H176.8V261.9V261.9ZM175 265.5V263.7H176.8V265.5H175V265.5ZM178.6 260.1H176.8V256.4H178.6V260.1ZM176.8 269.2V265.5H178.6V269.2H176.8ZM183.5 261.9H189V263.7H183.5V269.2H181.7V256.4H189V258.2H183.5V261.9ZM190.8 258.2V261.9H189V258.2H190.8V258.2Z" fill="black"/>
</svg>
