<svg width="266" height="286" viewBox="0 0 266 286" fill="none" xmlns="http://www.w3.org/2000/svg">
<path d="M223 150.1V110.1H203V40.1H193V30.1H183V20.1H173V10.1H153V0.100006H113V10.1H93V20.1H83V30.1H73V40.1H63V110.1H43V150.1H53V160.1H43V210.1V238.5H33.5V276.4H43V285.9H223V276.4H232.5V238.5H223V160.1H213V150.1H223ZM93 210.1V200.1H103V210.1H93ZM163 210.1V200.1H173V210.1H163Z" fill="black"/>
<path d="M93 130.1V120.1H83V60.1H93V50.1H103V40.1H113V30.1H153V40.1H163V50.1H173V60.1H183V120.1H173V130.1H193V40.1H183V30.1H173V20.1H153V10.1H113V20.1H93V30.1H83V40.1H73V130.1H93Z" fill="#F7F5F5"/>
<path d="M203 120.1V130.1H193V140.1H183V150.1H173V160.1H163V170.1H153V180.1H143V190.1H123V180.1H113V170.1H103V160.1H93V150.1H83V140.1H73V130.1H63V120.1H53V150.1H63V160.1H73V170.1H83V180.1H93V190.1H103V200.1H163V190.1H173V180.1H183V170.1H193V160.1H203V150.1H213V120.1H203V120.1ZM53 190.1H63V200.1H53V190.1ZM203 190.1H213V200.1H203V190.1ZM103 110.1H113V100.1H123V90.1H143V100.1H153V110.1H163V120.1H173V60.1H163V50.1H153V40.1H113V50.1H103V60.1H93V120.1H103V110.1Z" fill="#F7F5F5"/>
<path d="M153 130.1H143V120.1H123V130.1H113V150.1H123V160.1H143V150.1H153V130.1V130.1ZM133 110.1H143V100.1H123V110.1H133Z" fill="#F7F5F5"/>
<path d="M113 110.1H123V120.1H113V110.1Z" fill="#F7F5F5"/>
<path d="M103 120.1H113V130.1H103V120.1ZM113 160.1H123V170.1H113V160.1ZM153 120.1H163V130.1H153V120.1Z" fill="#F7F5F5"/>
<path d="M143 110.1H153V120.1H143V110.1ZM103 140.1V130.1H93V150.1H103V140.1V140.1Z" fill="#F7F5F5"/>
<path d="M173 130.1H163V150.1H173V130.1V130.1ZM103 150.1H113V160.1H103V150.1ZM143 160.1H153V170.1H143V160.1Z" fill="#F7F5F5"/>
<path d="M133 170.1H123V180.1H143V170.1H133ZM153 150.1H163V160.1H153V150.1ZM83 180.1H73V170.1H63V160.1H53V180.1H63V190.1H73V200.1H93V190.1H83V180.1ZM193 170.1V180.1H183V190.1H173V200.1H193V190.1H203V180.1H213V160.1H203V170.1H193Z" fill="#F7F5F5"/>
<path d="M163 20.1H173V10.1H153V20.1H163Z" fill="black"/>
<path d="M173 20.1H183V30.1H173V20.1Z" fill="black"/>
<path d="M183 30.1H193V40.1H183V30.1ZM113 20.1V10.1H93V20.1H113Z" fill="black"/>
<path d="M83 20.1H93V30.1H83V20.1Z" fill="black"/>
<path d="M73 30.1H83V40.1H73V30.1ZM173 80.1V120.1H183V60.1H173V80.1ZM93 100.1V60.1H83V120.1H93V100.1ZM133 10.1H153V0.100006H113V10.1H133ZM133 40.1H153V30.1H113V40.1H133Z" fill="black"/>
<path d="M153 40.1H163V50.1H153V40.1Z" fill="black"/>
<path d="M163 50.1H173V60.1H163V50.1ZM103 40.1H113V50.1H103V40.1Z" fill="black"/>
<path d="M93 50.1H103V60.1H93V50.1ZM123 180.1V190.1H143V180.1H123ZM143 100.1V90.1H123V100.1H143ZM123 160.1V170.1H143V160.1H123Z" fill="black"/>
<path d="M143 150.1H153V160.1H143V150.1ZM143 100.1H153V110.1H143V100.1ZM163 120.1H173V130.1H163V120.1Z" fill="black"/>
<path d="M173 130.1V150.1H183V140.1H193V130.1H173V130.1ZM153 110.1H163V120.1H153V110.1ZM203 150.1H213V160.1H203V150.1Z" fill="black"/>
<path d="M213 110.1H203V40.1H193V130.1H203V120.1H213V150.1H223V110.1H213V110.1ZM163 150.1H173V160.1H163V150.1Z" fill="black"/>
<path d="M153 160.1H163V170.1H153V160.1Z" fill="black"/>
<path d="M143 170.1H153V180.1H143V170.1ZM63 160.1H73V170.1H63V160.1Z" fill="black"/>
<path d="M73 170.1H83V180.1H73V170.1Z" fill="black"/>
<path d="M83 180.1H93V190.1H83V180.1Z" fill="black"/>
<path d="M93 190.1H103V200.1H93V190.1Z" fill="black"/>
<path d="M73 200.1V190.1H63V200.1H53V190.1H63V180.1H53V160.1H43V210.1H93V200.1H73ZM193 160.1H203V170.1H193V160.1Z" fill="black"/>
<path d="M183 170.1H193V180.1H183V170.1Z" fill="black"/>
<path d="M173 180.1H183V190.1H173V180.1Z" fill="black"/>
<path d="M163 190.1H173V200.1H163V190.1Z" fill="black"/>
<path d="M143 200.1H103V210.1H163V200.1H143ZM213 180.1H203V190.1H213V200.1H203V190.1H193V200.1H173V210.1H223V160.1H213V180.1ZM113 150.1H123V160.1H113V150.1ZM133 110.1H123V120.1H143V110.1H133Z" fill="black"/>
<path d="M143 120.1H153V130.1H143V120.1ZM113 120.1H123V130.1H113V120.1Z" fill="black"/>
<path d="M153 140.1V150.1H163V130.1H153V140.1V140.1ZM113 130.1H103V150.1H113V130.1V130.1Z" fill="black"/>
<path d="M113 100.1H123V110.1H113V100.1ZM93 120.1H103V130.1H93V120.1Z" fill="black"/>
<path d="M93 130.1H73V140.1H83V150.1H93V130.1V130.1ZM103 110.1H113V120.1H103V110.1ZM53 150.1H63V160.1H53V150.1Z" fill="black"/>
<path d="M53 130.1V120.1H63V130.1H73V40.1H63V110.1H43V150.1H53V130.1V130.1ZM93 150.1H103V160.1H93V150.1Z" fill="black"/>
<path d="M103 160.1H113V170.1H103V160.1Z" fill="black"/>
<path d="M113 170.1H123V180.1H113V170.1ZM133 150.1H143V160.1H133V150.1Z" fill="black"/>
<path d="M143 140.1H153V150.1H143V140.1Z" fill="black"/>
<path d="M123 150.1H133V160.1H123V150.1Z" fill="#A0A0A0"/>
<path d="M133 140.1H143V150.1H133V140.1Z" fill="#A0A0A0"/>
<path d="M143 130.1H153V140.1H143V130.1Z" fill="#A0A0A0"/>
<path d="M133 120.1V130.1H123V140.1H113V150.1H133V140.1H143V120.1H133V120.1Z" fill="#A0A0A0"/>
<path d="M153 70.1V80.1H163V60.1H153V70.1ZM153 100.1V110.1H163V90.1H153V100.1ZM163 30.1H173V40.1H163V30.1Z" fill="#C0C0C0"/>
<path d="M173 40.1H183V50.1H173V40.1Z" fill="#C0C0C0"/>
<path d="M183 50.1H193V60.1H183V50.1ZM83 100.1H73V120.1H83V100.1Z" fill="#C0C0C0"/>
<path d="M83 120.1H93V130.1H83V120.1Z" fill="#C0C0C0"/>
<path d="M143 10.1H133V20.1H153V10.1H143Z" fill="#A0A0A0"/>
<path d="M163 20.1H153V30.1H173V20.1H163Z" fill="#A0A0A0"/>
<path d="M173 30.1H183V40.1H173V30.1Z" fill="#A0A0A0"/>
<path d="M183 40.1H193V50.1H183V40.1ZM183 100.1V130.1H193V90.1H183V100.1ZM73 120.1H83V130.1H73V120.1ZM163 60.1V80.1H143V100.1H153V90.1H163V120.1H173V60.1H163ZM143 40.1H153V50.1H143V40.1Z" fill="#A0A0A0"/>
<path d="M153 50.1H163V60.1H153V50.1ZM133 150.1H143V160.1H133V150.1Z" fill="#A0A0A0"/>
<path d="M143 140.1H153V150.1H143V140.1Z" fill="#A0A0A0"/>
<path d="M143 40.1H133V50.1H113V60.1H103V90.1H113V70.1H123V60.1H143V40.1Z" fill="#F7F5F5"/>
<path d="M93 100.1V110.1H103V90.1H93V100.1ZM143 70.1H133V90.1H143V80.1H153V60.1H143V70.1ZM93 30.1H103V40.1H93V30.1Z" fill="#F7F5F5"/>
<path d="M83 40.1H93V50.1H83V40.1Z" fill="#F7F5F5"/>
<path d="M73 50.1H83V60.1H73V50.1ZM173 120.1H183V130.1H173V120.1ZM203 120.1H213V130.1H203V120.1ZM53 190.1H63V200.1H53V190.1ZM203 190.1H213V200.1H203V190.1ZM53 120.1H63V130.1H53V120.1ZM133 130.1H123V140.1H113V150.1H133V140.1H143V120.1H133V130.1Z" fill="#F7F5F5"/>
<path d="M93 110.1H103V120.1H93V110.1Z" fill="#DAD6D6"/>
<path d="M123 70.1H113V90.1H103V110.1H113V100.1H123V90.1H133V70.1H143V60.1H123V70.1Z" fill="#DAD6D6"/>
<path d="M143 50.1H153V60.1H143V50.1ZM103 30.1H113V40.1H103V30.1Z" fill="#DAD6D6"/>
<path d="M93 40.1H103V50.1H93V40.1Z" fill="#DAD6D6"/>
<path d="M83 50.1H93V60.1H83V50.1ZM143 20.1H133V10.1H123V20.1H113V30.1H153V20.1H143Z" fill="#DAD6D6"/>
<path d="M153 30.1H163V40.1H153V30.1Z" fill="#DAD6D6"/>
<path d="M163 40.1H173V50.1H163V40.1Z" fill="#DAD6D6"/>
<path d="M173 50.1H183V60.1H173V50.1ZM73 70.1V100.1H83V60.1H73V70.1Z" fill="#DAD6D6"/>
<path d="M183 60.1V90.1H193V60.1H183ZM133 140.1H143V150.1H133V140.1Z" fill="#DAD6D6"/>
<path d="M123 150.1H133V160.1H123V150.1ZM143 130.1H153V140.1H143V130.1Z" fill="#DAD6D6"/>
<path d="M123 40.1H113V50.1H133V40.1H123ZM93 70.1V90.1H103V60.1H93V70.1Z" fill="white"/>
<path d="M103 50.1H113V60.1H103V50.1ZM113 10.1H123V20.1H113V10.1Z" fill="white"/>
<path d="M113 30.1V20.1H93V30.1H113Z" fill="white"/>
<path d="M83 30.1H93V40.1H83V30.1Z" fill="white"/>
<path d="M73 40.1H83V50.1H73V40.1ZM123 120.1H133V130.1H123V120.1Z" fill="white"/>
<path d="M113 130.1H123V140.1H113V130.1ZM143 180.1H153V190.1H143V180.1Z" fill="white"/>
<path d="M153 170.1H163V180.1H153V170.1Z" fill="white"/>
<path d="M163 160.1H173V170.1H163V160.1Z" fill="white"/>
<path d="M173 150.1H183V160.1H173V150.1Z" fill="white"/>
<path d="M183 140.1H193V150.1H183V140.1Z" fill="white"/>
<path d="M193 130.1H203V140.1H193V130.1ZM53 170.1H63V180.1H53V170.1ZM203 170.1H213V180.1H203V170.1ZM113 180.1H123V190.1H113V180.1Z" fill="white"/>
<path d="M103 170.1H113V180.1H103V170.1Z" fill="white"/>
<path d="M93 160.1H103V170.1H93V160.1Z" fill="white"/>
<path d="M83 150.1H93V160.1H83V150.1Z" fill="white"/>
<path d="M73 140.1H83V150.1H73V140.1ZM123 100.1H133V110.1H123V100.1Z" fill="white"/>
<path d="M113 110.1H123V120.1H113V110.1ZM93 130.1H103V140.1H93V130.1Z" fill="white"/>
<path d="M103 120.1H113V130.1H103V120.1ZM63 130.1H73V140.1H63V130.1Z" fill="white"/>
<path d="M153 180.1H163V190.1H153V180.1ZM123 170.1H133V180.1H123V170.1Z" fill="#DAD6D6"/>
<path d="M163 170.1H173V180.1H163V170.1ZM193 140.1H203V150.1H193V140.1Z" fill="#DAD6D6"/>
<path d="M203 130.1H213V140.1H203V130.1ZM173 160.1H183V170.1H173V160.1Z" fill="#DAD6D6"/>
<path d="M183 150.1H193V160.1H183V150.1ZM63 180.1H73V190.1H63V180.1Z" fill="#DAD6D6"/>
<path d="M73 190.1H83V200.1H73V190.1ZM193 180.1H203V190.1H193V180.1Z" fill="#DAD6D6"/>
<path d="M183 190.1H193V200.1H183V190.1ZM103 180.1H113V190.1H103V180.1ZM113 160.1H123V170.1H113V160.1ZM133 100.1H143V110.1H133V100.1ZM153 120.1H163V130.1H153V120.1Z" fill="#DAD6D6"/>
<path d="M143 110.1H153V120.1H143V110.1ZM93 140.1H103V150.1H93V140.1Z" fill="#DAD6D6"/>
<path d="M163 130.1H173V140.1H163V130.1ZM103 150.1H113V160.1H103V150.1ZM93 170.1H103V180.1H93V170.1ZM63 140.1H73V150.1H63V140.1Z" fill="#DAD6D6"/>
<path d="M53 130.1H63V140.1H53V130.1ZM83 160.1H93V170.1H83V160.1Z" fill="#DAD6D6"/>
<path d="M73 150.1H83V160.1H73V150.1Z" fill="#DAD6D6"/>
<path d="M143 190.1H103V200.1H163V190.1H143ZM143 160.1H153V170.1H143V160.1Z" fill="#A0A0A0"/>
<path d="M133 170.1H143V180.1H133V170.1ZM153 150.1H163V160.1H153V150.1ZM163 180.1H173V190.1H163V180.1ZM193 150.1H203V160.1H193V150.1Z" fill="#A0A0A0"/>
<path d="M203 140.1H213V150.1H203V140.1ZM173 170.1H183V180.1H173V170.1Z" fill="#A0A0A0"/>
<path d="M183 160.1H193V170.1H183V160.1ZM63 170.1H73V180.1H63V170.1Z" fill="#A0A0A0"/>
<path d="M53 160.1H63V170.1H53V160.1ZM83 190.1H93V200.1H83V190.1Z" fill="#A0A0A0"/>
<path d="M73 180.1H83V190.1H73V180.1ZM193 170.1H203V180.1H193V170.1Z" fill="#A0A0A0"/>
<path d="M203 160.1H213V170.1H203V160.1ZM173 190.1H183V200.1H173V190.1Z" fill="#A0A0A0"/>
<path d="M183 180.1H193V190.1H183V180.1ZM163 140.1H173V150.1H163V140.1ZM93 180.1H103V190.1H93V180.1ZM63 150.1H73V160.1H63V150.1Z" fill="#A0A0A0"/>
<path d="M53 140.1H63V150.1H53V140.1ZM83 170.1H93V180.1H83V170.1Z" fill="#A0A0A0"/>
<path d="M73 160.1H83V170.1H73V160.1Z" fill="#A0A0A0"/>
<path d="M43 248V276.4H223V248H43Z" fill="#FA34F3"/>
<path d="M52.5 210.1H213.6V238.5H52.5V210.1Z" fill="#F7F5F5"/>
<path d="M62.7 261.9V263.7H64.5V269.2H62.7V263.7H57.2V269.2H55.4V256.4H62.7V258.2H57.2V261.9H62.7ZM62.7 261.9V258.2H64.5V261.9H62.7Z" fill="white" stroke="white" stroke-width="0.234" stroke-miterlimit="10"/>
<path d="M95.7 261.9V263.7H93.9V269.2H92.1V256.4H93.9V261.9H95.7ZM97.5 261.9H95.7V260.1H97.5V261.9ZM95.7 265.6V263.8H97.5V265.6H95.7ZM99.4 260.1H97.6V258.3H99.4V260.1ZM97.5 267.4V265.6H99.3V267.4H97.5ZM101.2 258.3H99.4V256.5H101.2V258.3ZM99.4 269.2V267.4H101.2V269.2H99.4Z" fill="white" stroke="white" stroke-width="0.234" stroke-miterlimit="10"/>
<path d="M114.7 258.3V262H122V263.8H114.7V267.5H122V269.3H112.9V256.4H122V258.2L114.7 258.3V258.3ZM137.3 261.9V263.7H135.5V269.2H133.7V256.4H135.5V261.9H137.3ZM139.2 261.9H137.4V260.1H139.2V261.9ZM137.3 265.6V263.8H139.1V265.6H137.3V265.6ZM141 260.1H139.2V258.3H141V260.1ZM139.2 267.4V265.6H141V267.4H139.2ZM142.8 258.3H141V256.5H142.8V258.3ZM141 269.2V267.4H142.8V269.2H141Z" fill="white" stroke="white" stroke-width="0.234" stroke-miterlimit="10"/>
<path d="M158.1 260.1V261.9H156.3V269.2H154.5V256.4H156.3V260.1H158.1ZM159.9 261.9V263.7H158.1V261.9H159.9ZM163.6 256.4V269.2H161.8V265.5H160V263.7H161.8V256.4H163.6ZM168.5 258.3V262H166.7V258.3H168.5ZM166.7 267.4H174V269.2H166.7V267.4ZM175.8 258.3H168.5V256.5H175.8V258.3ZM168.5 263.8V262H174V263.8H168.5ZM174 267.4V263.7H175.8V267.4H174ZM188.1 256.4V269.2H186.3V263.7H180.8V269.2H179V256.4H180.8V261.9H186.3V256.4H188.1Z" fill="white" stroke="white" stroke-width="0.234" stroke-miterlimit="10"/>
<path d="M201.5 261.9H207V263.7H201.5V269.2H199.7V256.4H207V258.2H201.5V261.9ZM208.9 258.3V262H207.1V258.3H208.9Z" fill="white" stroke="white" stroke-width="0.234" stroke-miterlimit="10"/>
<path d="M90.5 217.7V219.8H81.9V217.7H90.5ZM84.1 226.3V230.6H92.7V232.7H82V226.3H84.1V226.3ZM90.5 226.3H84V224.1H90.5V226.3ZM92.7 224.1H90.6V219.8H92.7V224.1ZM96.9 224.1V232.7H94.8V222H103.4V224.1H96.9ZM105.5 224.1V232.7H103.4V224.1H105.5ZM109.8 230.6H107.7V224.1H109.8V230.6ZM109.8 224.1V222H116.3V217.7H118.4V232.7H109.8V230.6H116.3V224.1H109.8V224.1ZM131.2 219.8V224.1H129.1V219.8H131.2ZM129 230.6H137.6V232.7H129V230.6ZM139.8 219.8H131.2V217.7H139.8V219.8ZM131.2 226.3V224.1H137.7V226.3H131.2ZM137.6 230.6V226.3H139.7V230.6H137.6V230.6ZM152.6 217.7V222H150.5V219.8H141.9V217.7H152.6V217.7ZM141.9 228.4H144V230.6H152.6V232.7H141.9V228.4V228.4ZM144 226.3H146.2V228.4H144V226.3V226.3ZM146.2 224.1H148.3V226.3H146.2V224.1ZM148.3 222H150.5V224.1H148.3V222ZM159 222V224.1H156.8V232.7H154.7V217.7H156.8V222H159V222ZM161.2 224.1V226.3H159.1V224.1H161.2ZM165.5 217.7V232.7H163.4V228.4H161.2V226.3H163.4V217.7H165.5V217.7ZM184.7 217.7V219.8H176.1V217.7H184.7ZM178.3 226.3V230.6H186.9V232.7H176.2V226.3H178.3V226.3ZM184.7 226.3H178.2V224.1H184.7V226.3ZM186.9 224.1H184.8V219.8H186.9V224.1Z" fill="black" stroke="black" stroke-width="0.199" stroke-miterlimit="10"/>
</svg>
