<svg width="278" height="286" viewBox="0 0 278 286" fill="none" xmlns="http://www.w3.org/2000/svg">
<path d="M228.9 150.1V110.1H208.9V40.1H198.9V30.1H188.9V20.1H178.9V10.1H158.9V0.100006H118.9V10.1H98.9V20.1H88.9V30.1H78.9V40.1H68.9V110.1H48.9V150.1H58.9V160.1H48.9V210.1V238.5H58.4V248H67.9V276.4H77.4V285.9H200.6V276.4H210.1V248H219.6V238.5H229.1V160.1H219.1V150.1H228.9ZM98.9 210.1V200.1H108.9V210.1H98.9ZM168.9 210.1V200.1H178.9V210.1H168.9Z" fill="black"/>
<path d="M98.9 130.1V120.1H88.9V60.1H98.9V50.1H108.9V40.1H118.9V30.1H158.9V40.1H168.9V50.1H178.9V60.1H188.9V120.1H178.9V130.1H198.9V40.1H188.9V30.1H178.9V20.1H158.9V10.1H118.9V20.1H98.9V30.1H88.9V40.1H78.9V130.1H98.9V130.1Z" fill="#F7F5F5"/>
<path d="M208.9 120.1V130.1H198.9V140.1H188.9V150.1H178.9V160.1H168.9V170.1H158.9V180.1H148.9V190.1H128.9V180.1H118.9V170.1H108.9V160.1H98.9V150.1H88.9V140.1H78.9V130.1H68.9V120.1H58.9V150.1H68.9V160.1H78.9V170.1H88.9V180.1H98.9V190.1H108.9V200.1H168.9V190.1H178.9V180.1H188.9V170.1H198.9V160.1H208.9V150.1H218.9V120.1H208.9V120.1ZM58.9 190.1H68.9V200.1H58.9V190.1ZM208.9 190.1H218.9V200.1H208.9V190.1ZM108.9 110.1H118.9V100.1H128.9V90.1H148.9V100.1H158.9V110.1H168.9V120.1H178.9V60.1H168.9V50.1H158.9V40.1H118.9V50.1H108.9V60.1H98.9V120.1H108.9V110.1Z" fill="#F7F5F5"/>
<path d="M158.9 130.1H148.9V120.1H128.9V130.1H118.9V150.1H128.9V160.1H148.9V150.1H158.9V130.1V130.1ZM138.9 110.1H148.9V100.1H128.9V110.1H138.9Z" fill="#F7F5F5"/>
<path d="M118.9 110.1H128.9V120.1H118.9V110.1Z" fill="#F7F5F5"/>
<path d="M108.9 120.1H118.9V130.1H108.9V120.1ZM118.9 160.1H128.9V170.1H118.9V160.1ZM158.9 120.1H168.9V130.1H158.9V120.1Z" fill="#F7F5F5"/>
<path d="M148.9 110.1H158.9V120.1H148.9V110.1ZM108.9 140.1V130.1H98.9V150.1H108.9V140.1V140.1Z" fill="#F7F5F5"/>
<path d="M178.9 130.1H168.9V150.1H178.9V130.1V130.1ZM108.9 150.1H118.9V160.1H108.9V150.1ZM148.9 160.1H158.9V170.1H148.9V160.1Z" fill="#F7F5F5"/>
<path d="M138.9 170.1H128.9V180.1H148.9V170.1H138.9V170.1ZM158.9 150.1H168.9V160.1H158.9V150.1ZM88.9 180.1H78.9V170.1H68.9V160.1H58.9V180.1H68.9V190.1H78.9V200.1H98.9V190.1H88.9V180.1ZM198.9 170.1V180.1H188.9V190.1H178.9V200.1H198.9V190.1H208.9V180.1H218.9V160.1H208.9V170.1H198.9Z" fill="#F7F5F5"/>
<path d="M168.9 20.1H178.9V10.1H158.9V20.1H168.9Z" fill="black"/>
<path d="M178.9 20.1H188.9V30.1H178.9V20.1Z" fill="black"/>
<path d="M188.9 30.1H198.9V40.1H188.9V30.1ZM118.9 20.1V10.1H98.9V20.1H118.9Z" fill="black"/>
<path d="M88.9 20.1H98.9V30.1H88.9V20.1Z" fill="black"/>
<path d="M78.9 30.1H88.9V40.1H78.9V30.1ZM178.9 80.1V120.1H188.9V60.1H178.9V80.1ZM98.9 100.1V60.1H88.9V120.1H98.9V100.1ZM138.9 10.1H158.9V0.100006H118.9V10.1H138.9ZM138.9 40.1H158.9V30.1H118.9V40.1H138.9Z" fill="black"/>
<path d="M158.9 40.1H168.9V50.1H158.9V40.1Z" fill="black"/>
<path d="M168.9 50.1H178.9V60.1H168.9V50.1ZM108.9 40.1H118.9V50.1H108.9V40.1Z" fill="black"/>
<path d="M98.9 50.1H108.9V60.1H98.9V50.1ZM128.9 180.1V190.1H148.9V180.1H128.9V180.1ZM148.9 100.1V90.1H128.9V100.1H148.9ZM128.9 160.1V170.1H148.9V160.1H128.9Z" fill="black"/>
<path d="M148.9 150.1H158.9V160.1H148.9V150.1ZM148.9 100.1H158.9V110.1H148.9V100.1ZM168.9 120.1H178.9V130.1H168.9V120.1Z" fill="black"/>
<path d="M178.9 130.1V150.1H188.9V140.1H198.9V130.1H178.9V130.1ZM158.9 110.1H168.9V120.1H158.9V110.1ZM208.9 150.1H218.9V160.1H208.9V150.1Z" fill="black"/>
<path d="M218.9 110.1H208.9V40.1H198.9V130.1H208.9V120.1H218.9V150.1H228.9V110.1H218.9V110.1ZM168.9 150.1H178.9V160.1H168.9V150.1Z" fill="black"/>
<path d="M158.9 160.1H168.9V170.1H158.9V160.1Z" fill="black"/>
<path d="M148.9 170.1H158.9V180.1H148.9V170.1ZM68.9 160.1H78.9V170.1H68.9V160.1Z" fill="black"/>
<path d="M78.9 170.1H88.9V180.1H78.9V170.1Z" fill="black"/>
<path d="M88.9 180.1H98.9V190.1H88.9V180.1Z" fill="black"/>
<path d="M98.9 190.1H108.9V200.1H98.9V190.1Z" fill="black"/>
<path d="M78.9 200.1V190.1H68.9V200.1H58.9V190.1H68.9V180.1H58.9V160.1H48.9V210.1H98.9V200.1H78.9ZM198.9 160.1H208.9V170.1H198.9V160.1Z" fill="black"/>
<path d="M188.9 170.1H198.9V180.1H188.9V170.1Z" fill="black"/>
<path d="M178.9 180.1H188.9V190.1H178.9V180.1Z" fill="black"/>
<path d="M168.9 190.1H178.9V200.1H168.9V190.1Z" fill="black"/>
<path d="M148.9 200.1H108.9V210.1H168.9V200.1H148.9ZM218.9 180.1H208.9V190.1H218.9V200.1H208.9V190.1H198.9V200.1H178.9V210.1H228.9V160.1H218.9V180.1ZM118.9 150.1H128.9V160.1H118.9V150.1ZM138.9 110.1H128.9V120.1H148.9V110.1H138.9Z" fill="black"/>
<path d="M148.9 120.1H158.9V130.1H148.9V120.1ZM118.9 120.1H128.9V130.1H118.9V120.1Z" fill="black"/>
<path d="M158.9 140.1V150.1H168.9V130.1H158.9V140.1V140.1ZM118.9 130.1H108.9V150.1H118.9V130.1V130.1Z" fill="black"/>
<path d="M118.9 100.1H128.9V110.1H118.9V100.1ZM98.9 120.1H108.9V130.1H98.9V120.1Z" fill="black"/>
<path d="M98.9 130.1H78.9V140.1H88.9V150.1H98.9V130.1V130.1ZM108.9 110.1H118.9V120.1H108.9V110.1ZM58.9 150.1H68.9V160.1H58.9V150.1Z" fill="black"/>
<path d="M58.9 130.1V120.1H68.9V130.1H78.9V40.1H68.9V110.1H48.9V150.1H58.9V130.1V130.1ZM98.9 150.1H108.9V160.1H98.9V150.1Z" fill="black"/>
<path d="M108.9 160.1H118.9V170.1H108.9V160.1Z" fill="black"/>
<path d="M118.9 170.1H128.9V180.1H118.9V170.1ZM138.9 150.1H148.9V160.1H138.9V150.1Z" fill="black"/>
<path d="M148.9 140.1H158.9V150.1H148.9V140.1Z" fill="black"/>
<path d="M128.9 150.1H138.9V160.1H128.9V150.1Z" fill="#A0A0A0"/>
<path d="M138.9 140.1H148.9V150.1H138.9V140.1Z" fill="#A0A0A0"/>
<path d="M148.9 130.1H158.9V140.1H148.9V130.1Z" fill="#A0A0A0"/>
<path d="M138.9 120.1V130.1H128.9V140.1H118.9V150.1H138.9V140.1H148.9V120.1H138.9V120.1Z" fill="#A0A0A0"/>
<path d="M158.9 70.1V80.1H168.9V60.1H158.9V70.1ZM158.9 100.1V110.1H168.9V90.1H158.9V100.1ZM168.9 30.1H178.9V40.1H168.9V30.1Z" fill="#C0C0C0"/>
<path d="M178.9 40.1H188.9V50.1H178.9V40.1Z" fill="#C0C0C0"/>
<path d="M188.9 50.1H198.9V60.1H188.9V50.1ZM88.9 100.1H78.9V120.1H88.9V100.1Z" fill="#C0C0C0"/>
<path d="M88.9 120.1H98.9V130.1H88.9V120.1Z" fill="#C0C0C0"/>
<path d="M148.9 10.1H138.9V20.1H158.9V10.1H148.9Z" fill="#A0A0A0"/>
<path d="M168.9 20.1H158.9V30.1H178.9V20.1H168.9Z" fill="#A0A0A0"/>
<path d="M178.9 30.1H188.9V40.1H178.9V30.1Z" fill="#A0A0A0"/>
<path d="M188.9 40.1H198.9V50.1H188.9V40.1ZM188.9 100.1V130.1H198.9V90.1H188.9V100.1ZM78.9 120.1H88.9V130.1H78.9V120.1ZM168.9 60.1V80.1H148.9V100.1H158.9V90.1H168.9V120.1H178.9V60.1H168.9ZM148.9 40.1H158.9V50.1H148.9V40.1Z" fill="#A0A0A0"/>
<path d="M158.9 50.1H168.9V60.1H158.9V50.1ZM138.9 150.1H148.9V160.1H138.9V150.1Z" fill="#A0A0A0"/>
<path d="M148.9 140.1H158.9V150.1H148.9V140.1Z" fill="#A0A0A0"/>
<path d="M148.9 40.1H138.9V50.1H118.9V60.1H108.9V90.1H118.9V70.1H128.9V60.1H148.9V40.1Z" fill="#F7F5F5"/>
<path d="M98.9 100.1V110.1H108.9V90.1H98.9V100.1ZM148.9 70.1H138.9V90.1H148.9V80.1H158.9V60.1H148.9V70.1ZM98.9 30.1H108.9V40.1H98.9V30.1Z" fill="#F7F5F5"/>
<path d="M88.9 40.1H98.9V50.1H88.9V40.1Z" fill="#F7F5F5"/>
<path d="M78.9 50.1H88.9V60.1H78.9V50.1ZM178.9 120.1H188.9V130.1H178.9V120.1ZM208.9 120.1H218.9V130.1H208.9V120.1ZM58.9 190.1H68.9V200.1H58.9V190.1ZM208.9 190.1H218.9V200.1H208.9V190.1ZM58.9 120.1H68.9V130.1H58.9V120.1ZM138.9 130.1H128.9V140.1H118.9V150.1H138.9V140.1H148.9V120.1H138.9V130.1Z" fill="#F7F5F5"/>
<path d="M98.9 110.1H108.9V120.1H98.9V110.1Z" fill="#DAD6D6"/>
<path d="M128.9 70.1H118.9V90.1H108.9V110.1H118.9V100.1H128.9V90.1H138.9V70.1H148.9V60.1H128.9V70.1V70.1Z" fill="#DAD6D6"/>
<path d="M148.9 50.1H158.9V60.1H148.9V50.1ZM108.9 30.1H118.9V40.1H108.9V30.1Z" fill="#DAD6D6"/>
<path d="M98.9 40.1H108.9V50.1H98.9V40.1Z" fill="#DAD6D6"/>
<path d="M88.9 50.1H98.9V60.1H88.9V50.1ZM148.9 20.1H138.9V10.1H128.9V20.1H118.9V30.1H158.9V20.1H148.9Z" fill="#DAD6D6"/>
<path d="M158.9 30.1H168.9V40.1H158.9V30.1Z" fill="#DAD6D6"/>
<path d="M168.9 40.1H178.9V50.1H168.9V40.1Z" fill="#DAD6D6"/>
<path d="M178.9 50.1H188.9V60.1H178.9V50.1ZM78.9 70.1V100.1H88.9V60.1H78.9V70.1Z" fill="#DAD6D6"/>
<path d="M188.9 60.1V90.1H198.9V60.1H188.9ZM138.9 140.1H148.9V150.1H138.9V140.1Z" fill="#DAD6D6"/>
<path d="M128.9 150.1H138.9V160.1H128.9V150.1ZM148.9 130.1H158.9V140.1H148.9V130.1Z" fill="#DAD6D6"/>
<path d="M128.9 40.1H118.9V50.1H138.9V40.1H128.9ZM98.9 70.1V90.1H108.9V60.1H98.9V70.1Z" fill="white"/>
<path d="M108.9 50.1H118.9V60.1H108.9V50.1ZM118.9 10.1H128.9V20.1H118.9V10.1Z" fill="white"/>
<path d="M118.9 30.1V20.1H98.9V30.1H118.9Z" fill="white"/>
<path d="M88.9 30.1H98.9V40.1H88.9V30.1Z" fill="white"/>
<path d="M78.9 40.1H88.9V50.1H78.9V40.1ZM128.9 120.1H138.9V130.1H128.9V120.1Z" fill="white"/>
<path d="M118.9 130.1H128.9V140.1H118.9V130.1ZM148.9 180.1H158.9V190.1H148.9V180.1Z" fill="white"/>
<path d="M158.9 170.1H168.9V180.1H158.9V170.1Z" fill="white"/>
<path d="M168.9 160.1H178.9V170.1H168.9V160.1Z" fill="white"/>
<path d="M178.9 150.1H188.9V160.1H178.9V150.1Z" fill="white"/>
<path d="M188.9 140.1H198.9V150.1H188.9V140.1Z" fill="white"/>
<path d="M198.9 130.1H208.9V140.1H198.9V130.1ZM58.9 170.1H68.9V180.1H58.9V170.1ZM208.9 170.1H218.9V180.1H208.9V170.1ZM118.9 180.1H128.9V190.1H118.9V180.1Z" fill="white"/>
<path d="M108.9 170.1H118.9V180.1H108.9V170.1Z" fill="white"/>
<path d="M98.9 160.1H108.9V170.1H98.9V160.1Z" fill="white"/>
<path d="M88.9 150.1H98.9V160.1H88.9V150.1Z" fill="white"/>
<path d="M78.9 140.1H88.9V150.1H78.9V140.1ZM128.9 100.1H138.9V110.1H128.9V100.1Z" fill="white"/>
<path d="M118.9 110.1H128.9V120.1H118.9V110.1ZM98.9 130.1H108.9V140.1H98.9V130.1Z" fill="white"/>
<path d="M108.9 120.1H118.9V130.1H108.9V120.1ZM68.9 130.1H78.9V140.1H68.9V130.1Z" fill="white"/>
<path d="M158.9 180.1H168.9V190.1H158.9V180.1ZM128.9 170.1H138.9V180.1H128.9V170.1Z" fill="#DAD6D6"/>
<path d="M168.9 170.1H178.9V180.1H168.9V170.1ZM198.9 140.1H208.9V150.1H198.9V140.1Z" fill="#DAD6D6"/>
<path d="M208.9 130.1H218.9V140.1H208.9V130.1ZM178.9 160.1H188.9V170.1H178.9V160.1Z" fill="#DAD6D6"/>
<path d="M188.9 150.1H198.9V160.1H188.9V150.1ZM68.9 180.1H78.9V190.1H68.9V180.1Z" fill="#DAD6D6"/>
<path d="M78.9 190.1H88.9V200.1H78.9V190.1ZM198.9 180.1H208.9V190.1H198.9V180.1Z" fill="#DAD6D6"/>
<path d="M188.9 190.1H198.9V200.1H188.9V190.1ZM108.9 180.1H118.9V190.1H108.9V180.1ZM118.9 160.1H128.9V170.1H118.9V160.1ZM138.9 100.1H148.9V110.1H138.9V100.1ZM158.9 120.1H168.9V130.1H158.9V120.1Z" fill="#DAD6D6"/>
<path d="M148.9 110.1H158.9V120.1H148.9V110.1ZM98.9 140.1H108.9V150.1H98.9V140.1Z" fill="#DAD6D6"/>
<path d="M168.9 130.1H178.9V140.1H168.9V130.1ZM108.9 150.1H118.9V160.1H108.9V150.1ZM98.9 170.1H108.9V180.1H98.9V170.1ZM68.9 140.1H78.9V150.1H68.9V140.1Z" fill="#DAD6D6"/>
<path d="M58.9 130.1H68.9V140.1H58.9V130.1ZM88.9 160.1H98.9V170.1H88.9V160.1Z" fill="#DAD6D6"/>
<path d="M78.9 150.1H88.9V160.1H78.9V150.1Z" fill="#DAD6D6"/>
<path d="M148.9 190.1H108.9V200.1H168.9V190.1H148.9ZM148.9 160.1H158.9V170.1H148.9V160.1Z" fill="#A0A0A0"/>
<path d="M138.9 170.1H148.9V180.1H138.9V170.1ZM158.9 150.1H168.9V160.1H158.9V150.1ZM168.9 180.1H178.9V190.1H168.9V180.1ZM198.9 150.1H208.9V160.1H198.9V150.1Z" fill="#A0A0A0"/>
<path d="M208.9 140.1H218.9V150.1H208.9V140.1ZM178.9 170.1H188.9V180.1H178.9V170.1Z" fill="#A0A0A0"/>
<path d="M188.9 160.1H198.9V170.1H188.9V160.1ZM68.9 170.1H78.9V180.1H68.9V170.1Z" fill="#A0A0A0"/>
<path d="M58.9 160.1H68.9V170.1H58.9V160.1ZM88.9 190.1H98.9V200.1H88.9V190.1Z" fill="#A0A0A0"/>
<path d="M78.9 180.1H88.9V190.1H78.9V180.1ZM198.9 170.1H208.9V180.1H198.9V170.1Z" fill="#A0A0A0"/>
<path d="M208.9 160.1H218.9V170.1H208.9V160.1ZM178.9 190.1H188.9V200.1H178.9V190.1Z" fill="#A0A0A0"/>
<path d="M188.9 180.1H198.9V190.1H188.9V180.1ZM168.9 140.1H178.9V150.1H168.9V140.1ZM98.9 180.1H108.9V190.1H98.9V180.1ZM68.9 150.1H78.9V160.1H68.9V150.1Z" fill="#A0A0A0"/>
<path d="M58.9 140.1H68.9V150.1H58.9V140.1ZM88.9 170.1H98.9V180.1H88.9V170.1Z" fill="#A0A0A0"/>
<path d="M78.9 160.1H88.9V170.1H78.9V160.1Z" fill="#A0A0A0"/>
<path d="M191 248H77.3V276.4H200.5V248H191Z" fill="#22DFF0"/>
<path d="M210 210.1H58.4V238.5H219.5V210.1H210Z" fill="#F7F5F5"/>
<path d="M96.4 217.6V219.7H87.8V217.6H96.4ZM90 226.2V230.5H98.6V232.6H87.9V226.2H90V226.2ZM96.4 226.2H89.9V224H96.4V226.2V226.2ZM98.6 224.1H96.5V219.8H98.6V224.1ZM102.8 224.1V232.7H100.7V222H109.3V224.1H102.8ZM111.4 224.1V232.7H109.3V224.1H111.4ZM115.7 230.5H113.6V224H115.7V230.5ZM115.7 224.1V222H122.2V217.7H124.3V232.7H115.7V230.6H122.2V224.1H115.7V224.1ZM137.1 219.8V224.1H135V219.8H137.1ZM134.9 230.5H143.5V232.6H134.9V230.5ZM145.7 219.8H137.1V217.7H145.7V219.8ZM137.1 226.2V224H143.6V226.2H137.1ZM143.5 230.5V226.2H145.6V230.5H143.5V230.5ZM158.5 217.6V221.9H156.4V219.7H147.8V217.6H158.5V217.6ZM147.8 228.4H149.9V230.6H158.5V232.7H147.8V228.4V228.4ZM149.9 226.2H152.1V228.3H149.9V226.2ZM152.1 224.1H154.2V226.3H152.1V224.1ZM154.2 221.9H156.4V224H154.2V221.9ZM164.9 221.9V224H162.7V232.6H160.6V217.6H162.7V221.9H164.9V221.9ZM167.1 224.1V226.3H165V224.1H167.1ZM171.4 217.6V232.6H169.3V228.3H167.1V226.2H169.3V217.6H171.4V217.6ZM190.6 217.6V219.7H182V217.6H190.6ZM184.2 226.2V230.5H192.8V232.6H182.1V226.2H184.2V226.2ZM190.6 226.2H184.1V224H190.6V226.2V226.2ZM192.8 224.1H190.7V219.8H192.8V224.1Z" fill="black" stroke="black" stroke-width="0.199" stroke-miterlimit="10"/>
<path d="M95.5 261.9V263.7H97.3V269.2H95.5V263.7H90V269.2H88.2V256.4H95.5V258.2H90V261.9H95.5ZM95.5 261.9V258.2H97.3V261.9H95.5ZM102.2 258.2V267.4H100.4V258.2H102.2ZM107.7 258.2H102.2V256.4H107.7V258.2ZM102.2 267.4H107.7V269.2H102.2V267.4ZM109.5 258.2V267.4H107.7V258.2H109.5ZM114.5 258.2V267.4H112.7V258.2H114.5ZM120 258.2H114.5V256.4H120V258.2ZM114.5 267.4H120V269.2H114.5V267.4ZM121.8 258.2V267.4H120V258.2H121.8ZM128.5 261.9V263.7H126.7V269.2H124.9V256.4H126.7V261.9H128.5ZM130.3 261.9H128.5V260.1H130.3V261.9ZM128.5 265.5V263.7H130.3V265.5H128.5ZM132.2 260.1H130.4V258.3H132.2V260.1ZM130.3 267.4V265.6H132.1V267.4H130.3ZM134 258.2H132.2V256.4H134V258.2ZM132.2 269.2V267.4H134V269.2H132.2ZM140.8 258.2V267.4H142.6V269.2H137.1V267.4H138.9V258.2H137.1V256.4H142.6V258.2H140.8ZM147.5 258.2V261.9H154.8V263.7H147.5V267.4H154.8V269.2H145.7V256.4H154.8V258.2H147.5ZM168.3 256.4V260.1H166.5V256.4H168.3ZM166.5 265.5H168.3V269.2H166.5V265.5ZM170.1 260.1V261.9H168.3V260.1H170.1ZM168.3 263.7H170.1V265.5H168.3V263.7ZM172 261.9V263.7H170.2V261.9H172ZM173.8 261.9H172V260.1H173.8V261.9V261.9ZM172 265.5V263.7H173.8V265.5H172V265.5ZM175.6 260.1H173.8V256.4H175.6V260.1ZM173.8 269.2V265.5H175.6V269.2H173.8ZM180.5 261.9H186V263.7H180.5V269.2H178.7V256.4H186V258.2H180.5V261.9ZM187.8 258.2V261.9H186V258.2H187.8V258.2Z" fill="black"/>
</svg>
