<svg width="258" height="286" viewBox="0 0 258 286" fill="none" xmlns="http://www.w3.org/2000/svg">
<path d="M219 150.1V110.1H199V40.1H189V30.1H179V20.1H169V10.1H149V0.100006H109V10.1H89V20.1H79V30.1H69V40.1H59V110.1H39V150.1H49V160.1H39V210.1V238.5H29.5V276.4H39V285.9H219V276.4H228.5V238.5H219V160.1H209V150.1H219ZM89 210.1V200.1H99V210.1H89ZM159 210.1V200.1H169V210.1H159Z" fill="black"/>
<path d="M89 130.1V120.1H79V60.1H89V50.1H99V40.1H109V30.1H149V40.1H159V50.1H169V60.1H179V120.1H169V130.1H189V40.1H179V30.1H169V20.1H149V10.1H109V20.1H89V30.1H79V40.1H69V130.1H89Z" fill="#E1924C"/>
<path d="M199 120.1V130.1H189V140.1H179V150.1H169V160.1H159V170.1H149V180.1H139V190.1H119V180.1H109V170.1H99V160.1H89V150.1H79V140.1H69V130.1H59V120.1H49V150.1H59V160.1H69V170.1H79V180.1H89V190.1H99V200.1H159V190.1H169V180.1H179V170.1H189V160.1H199V150.1H209V120.1H199V120.1ZM49 190.1H59V200.1H49V190.1ZM199 190.1H209V200.1H199V190.1ZM99 110.1H109V100.1H119V90.1H139V100.1H149V110.1H159V120.1H169V60.1H159V50.1H149V40.1H109V50.1H99V60.1H89V120.1H99V110.1Z" fill="#E1924C"/>
<path d="M149 130.1H139V120.1H119V130.1H109V150.1H119V160.1H139V150.1H149V130.1V130.1ZM129 110.1H139V100.1H119V110.1H129Z" fill="#E1924C"/>
<path d="M109 110.1H119V120.1H109V110.1Z" fill="#E1924C"/>
<path d="M99 120.1H109V130.1H99V120.1ZM109 160.1H119V170.1H109V160.1ZM149 120.1H159V130.1H149V120.1Z" fill="#E1924C"/>
<path d="M139 110.1H149V120.1H139V110.1ZM99 140.1V130.1H89V150.1H99V140.1V140.1Z" fill="#E1924C"/>
<path d="M169 130.1H159V150.1H169V130.1V130.1ZM99 150.1H109V160.1H99V150.1ZM139 160.1H149V170.1H139V160.1Z" fill="#E1924C"/>
<path d="M129 170.1H119V180.1H139V170.1H129ZM149 150.1H159V160.1H149V150.1ZM79 180.1H69V170.1H59V160.1H49V180.1H59V190.1H69V200.1H89V190.1H79V180.1ZM189 170.1V180.1H179V190.1H169V200.1H189V190.1H199V180.1H209V160.1H199V170.1H189Z" fill="#E1924C"/>
<path d="M159 20.1H169V10.1H149V20.1H159Z" fill="black"/>
<path d="M169 20.1H179V30.1H169V20.1Z" fill="black"/>
<path d="M179 30.1H189V40.1H179V30.1ZM109 20.1V10.1H89V20.1H109Z" fill="black"/>
<path d="M79 20.1H89V30.1H79V20.1Z" fill="black"/>
<path d="M69 30.1H79V40.1H69V30.1ZM169 80.1V120.1H179V60.1H169V80.1ZM89 100.1V60.1H79V120.1H89V100.1ZM129 10.1H149V0.100006H109V10.1H129ZM129 40.1H149V30.1H109V40.1H129Z" fill="black"/>
<path d="M149 40.1H159V50.1H149V40.1Z" fill="black"/>
<path d="M159 50.1H169V60.1H159V50.1ZM99 40.1H109V50.1H99V40.1Z" fill="black"/>
<path d="M89 50.1H99V60.1H89V50.1ZM119 180.1V190.1H139V180.1H119ZM139 100.1V90.1H119V100.1H139ZM119 160.1V170.1H139V160.1H119Z" fill="black"/>
<path d="M139 150.1H149V160.1H139V150.1ZM139 100.1H149V110.1H139V100.1ZM159 120.1H169V130.1H159V120.1Z" fill="black"/>
<path d="M169 130.1V150.1H179V140.1H189V130.1H169V130.1ZM149 110.1H159V120.1H149V110.1ZM199 150.1H209V160.1H199V150.1Z" fill="black"/>
<path d="M199 110.1V40.1H189V130.1H199V120.1H209V150.1H219V110.1H199V110.1ZM159 150.1H169V160.1H159V150.1Z" fill="black"/>
<path d="M149 160.1H159V170.1H149V160.1Z" fill="black"/>
<path d="M139 170.1H149V180.1H139V170.1ZM59 160.1H69V170.1H59V160.1Z" fill="black"/>
<path d="M69 170.1H79V180.1H69V170.1Z" fill="black"/>
<path d="M79 180.1H89V190.1H79V180.1Z" fill="black"/>
<path d="M89 190.1H99V200.1H89V190.1Z" fill="black"/>
<path d="M69 200.1V190.1H59V200.1H49V190.1H59V180.1H49V160.1H39V210.1H89V200.1H69ZM189 160.1H199V170.1H189V160.1Z" fill="black"/>
<path d="M179 170.1H189V180.1H179V170.1Z" fill="black"/>
<path d="M169 180.1H179V190.1H169V180.1Z" fill="black"/>
<path d="M159 190.1H169V200.1H159V190.1Z" fill="black"/>
<path d="M139 200.1H99V210.1H159V200.1H139ZM209 180.1H199V190.1H209V200.1H199V190.1H189V200.1H169V210.1H219V160.1H209V180.1ZM109 150.1H119V160.1H109V150.1ZM129 110.1H119V120.1H139V110.1H129Z" fill="black"/>
<path d="M139 120.1H149V130.1H139V120.1ZM109 120.1H119V130.1H109V120.1Z" fill="black"/>
<path d="M149 140.1V150.1H159V130.1H149V140.1V140.1ZM109 130.1H99V150.1H109V130.1V130.1Z" fill="black"/>
<path d="M109 100.1H119V110.1H109V100.1ZM89 120.1H99V130.1H89V120.1Z" fill="black"/>
<path d="M89 130.1H69V140.1H79V150.1H89V130.1V130.1ZM99 110.1H109V120.1H99V110.1ZM49 150.1H59V160.1H49V150.1Z" fill="black"/>
<path d="M49 130.1V120.1H59V130.1H69V40.1H59V110.1H39V150.1H49V130.1V130.1ZM89 150.1H99V160.1H89V150.1Z" fill="black"/>
<path d="M99 160.1H109V170.1H99V160.1Z" fill="black"/>
<path d="M109 170.1H119V180.1H109V170.1ZM129 150.1H139V160.1H129V150.1Z" fill="black"/>
<path d="M139 140.1H149V150.1H139V140.1Z" fill="black"/>
<path d="M119 150.1H129V160.1H119V150.1Z" fill="#C86300"/>
<path d="M129 140.1H139V150.1H129V140.1Z" fill="#C86300"/>
<path d="M139 130.1H149V140.1H139V130.1Z" fill="#C86300"/>
<path d="M129 120.1V130.1H119V140.1H109V150.1H129V140.1H139V120.1H129V120.1Z" fill="#C86300"/>
<path d="M149 70.1V80.1H159V60.1H149V70.1ZM149 100.1V110.1H159V90.1H149V100.1ZM159 30.1H169V40.1H159V30.1Z" fill="#D86F13"/>
<path d="M169 40.1H179V50.1H169V40.1Z" fill="#D86F13"/>
<path d="M179 50.1H189V60.1H179V50.1ZM79 100.1H69V120.1H79V100.1Z" fill="#D86F13"/>
<path d="M79 120.1H89V130.1H79V120.1Z" fill="#D86F13"/>
<path d="M139 10.1H129V20.1H149V10.1H139Z" fill="#C86300"/>
<path d="M159 20.1H149V30.1H169V20.1H159Z" fill="#C86300"/>
<path d="M169 30.1H179V40.1H169V30.1Z" fill="#C86300"/>
<path d="M179 40.1H189V50.1H179V40.1ZM179 100.1V130.1H189V90.1H179V100.1ZM69 120.1H79V130.1H69V120.1ZM159 60.1V80.1H139V100.1H149V90.1H159V120.1H169V60.1H159ZM139 40.1H149V50.1H139V40.1Z" fill="#C86300"/>
<path d="M149 50.1H159V60.1H149V50.1ZM129 150.1H139V160.1H129V150.1Z" fill="#C86300"/>
<path d="M139 140.1H149V150.1H139V140.1Z" fill="#C86300"/>
<path d="M139 40.1H129V50.1H109V60.1H99V90.1H109V70.1H119V60.1H139V40.1Z" fill="#E1924C"/>
<path d="M89 100.1V110.1H99V90.1H89V100.1ZM139 70.1H129V90.1H139V80.1H149V60.1H139V70.1ZM89 30.1H99V40.1H89V30.1Z" fill="#E1924C"/>
<path d="M79 40.1H89V50.1H79V40.1Z" fill="#E1924C"/>
<path d="M69 50.1H79V60.1H69V50.1ZM169 120.1H179V130.1H169V120.1ZM199 120.1H209V130.1H199V120.1ZM49 190.1H59V200.1H49V190.1ZM199 190.1H209V200.1H199V190.1ZM49 120.1H59V130.1H49V120.1ZM129 130.1H119V140.1H109V150.1H129V140.1H139V120.1H129V130.1Z" fill="#E1924C"/>
<path d="M89 110.1H99V120.1H89V110.1Z" fill="#DD8334"/>
<path d="M119 70.1H109V90.1H99V110.1H109V100.1H119V90.1H129V70.1H139V60.1H119V70.1Z" fill="#DD8334"/>
<path d="M139 50.1H149V60.1H139V50.1ZM99 30.1H109V40.1H99V30.1Z" fill="#DD8334"/>
<path d="M89 40.1H99V50.1H89V40.1Z" fill="#DD8334"/>
<path d="M79 50.1H89V60.1H79V50.1ZM139 20.1H129V10.1H119V20.1H109V30.1H149V20.1H139Z" fill="#DD8334"/>
<path d="M149 30.1H159V40.1H149V30.1Z" fill="#DD8334"/>
<path d="M159 40.1H169V50.1H159V40.1Z" fill="#DD8334"/>
<path d="M169 50.1H179V60.1H169V50.1ZM69 70.1V100.1H79V60.1H69V70.1Z" fill="#DD8334"/>
<path d="M179 60.1V90.1H189V60.1H179ZM129 140.1H139V150.1H129V140.1Z" fill="#DD8334"/>
<path d="M119 150.1H129V160.1H119V150.1ZM139 130.1H149V140.1H139V130.1Z" fill="#DD8334"/>
<path d="M119 40.1H109V50.1H129V40.1H119ZM89 70.1V90.1H99V60.1H89V70.1Z" fill="white"/>
<path d="M99 50.1H109V60.1H99V50.1ZM109 10.1H119V20.1H109V10.1Z" fill="white"/>
<path d="M109 30.1V20.1H89V30.1H109Z" fill="white"/>
<path d="M79 30.1H89V40.1H79V30.1Z" fill="white"/>
<path d="M69 40.1H79V50.1H69V40.1ZM119 120.1H129V130.1H119V120.1Z" fill="white"/>
<path d="M109 130.1H119V140.1H109V130.1ZM139 180.1H149V190.1H139V180.1Z" fill="white"/>
<path d="M149 170.1H159V180.1H149V170.1Z" fill="white"/>
<path d="M159 160.1H169V170.1H159V160.1Z" fill="white"/>
<path d="M169 150.1H179V160.1H169V150.1Z" fill="white"/>
<path d="M179 140.1H189V150.1H179V140.1Z" fill="white"/>
<path d="M189 130.1H199V140.1H189V130.1ZM49 170.1H59V180.1H49V170.1ZM199 170.1H209V180.1H199V170.1ZM109 180.1H119V190.1H109V180.1Z" fill="white"/>
<path d="M99 170.1H109V180.1H99V170.1Z" fill="white"/>
<path d="M89 160.1H99V170.1H89V160.1Z" fill="white"/>
<path d="M79 150.1H89V160.1H79V150.1Z" fill="white"/>
<path d="M69 140.1H79V150.1H69V140.1ZM119 100.1H129V110.1H119V100.1Z" fill="white"/>
<path d="M109 110.1H119V120.1H109V110.1ZM89 130.1H99V140.1H89V130.1Z" fill="white"/>
<path d="M99 120.1H109V130.1H99V120.1ZM59 130.1H69V140.1H59V130.1Z" fill="white"/>
<path d="M149 180.1H159V190.1H149V180.1ZM119 170.1H129V180.1H119V170.1Z" fill="#DD8334"/>
<path d="M159 170.1H169V180.1H159V170.1ZM189 140.1H199V150.1H189V140.1Z" fill="#DD8334"/>
<path d="M199 130.1H209V140.1H199V130.1ZM169 160.1H179V170.1H169V160.1Z" fill="#DD8334"/>
<path d="M179 150.1H189V160.1H179V150.1ZM59 180.1H69V190.1H59V180.1Z" fill="#DD8334"/>
<path d="M69 190.1H79V200.1H69V190.1ZM189 180.1H199V190.1H189V180.1Z" fill="#DD8334"/>
<path d="M179 190.1H189V200.1H179V190.1ZM99 180.1H109V190.1H99V180.1ZM109 160.1H119V170.1H109V160.1ZM129 100.1H139V110.1H129V100.1ZM149 120.1H159V130.1H149V120.1Z" fill="#DD8334"/>
<path d="M139 110.1H149V120.1H139V110.1ZM89 140.1H99V150.1H89V140.1Z" fill="#DD8334"/>
<path d="M159 130.1H169V140.1H159V130.1ZM99 150.1H109V160.1H99V150.1ZM89 170.1H99V180.1H89V170.1ZM59 140.1H69V150.1H59V140.1Z" fill="#DD8334"/>
<path d="M49 130.1H59V140.1H49V130.1ZM79 160.1H89V170.1H79V160.1Z" fill="#DD8334"/>
<path d="M69 150.1H79V160.1H69V150.1Z" fill="#DD8334"/>
<path d="M139 190.1H99V200.1H159V190.1H139ZM139 160.1H149V170.1H139V160.1Z" fill="#C86300"/>
<path d="M129 170.1H139V180.1H129V170.1ZM149 150.1H159V160.1H149V150.1ZM159 180.1H169V190.1H159V180.1ZM189 150.1H199V160.1H189V150.1Z" fill="#C86300"/>
<path d="M199 140.1H209V150.1H199V140.1ZM169 170.1H179V180.1H169V170.1Z" fill="#C86300"/>
<path d="M179 160.1H189V170.1H179V160.1ZM59 170.1H69V180.1H59V170.1Z" fill="#C86300"/>
<path d="M49 160.1H59V170.1H49V160.1ZM79 190.1H89V200.1H79V190.1Z" fill="#C86300"/>
<path d="M69 180.1H79V190.1H69V180.1ZM189 170.1H199V180.1H189V170.1Z" fill="#C86300"/>
<path d="M199 160.1H209V170.1H199V160.1ZM169 190.1H179V200.1H169V190.1Z" fill="#C86300"/>
<path d="M179 180.1H189V190.1H179V180.1ZM159 140.1H169V150.1H159V140.1ZM89 180.1H99V190.1H89V180.1ZM59 150.1H69V160.1H59V150.1Z" fill="#C86300"/>
<path d="M49 140.1H59V150.1H49V140.1ZM79 170.1H89V180.1H79V170.1Z" fill="#C86300"/>
<path d="M69 160.1H79V170.1H69V160.1Z" fill="#C86300"/>
<path d="M39 248V276.4H219V248H39Z" fill="#FA34F3"/>
<path d="M48.5 210.1H209.6V238.5H48.5V210.1Z" fill="#E1924C"/>
<path d="M58.7 261.9V263.7H60.5V269.2H58.7V263.7H53.2V269.2H51.4V256.4H58.7V258.2H53.2V261.9H58.7ZM58.7 261.9V258.2H60.5V261.9H58.7Z" fill="white" stroke="white" stroke-width="0.234" stroke-miterlimit="10"/>
<path d="M91.7 261.9V263.7H89.9V269.2H88.1V256.4H89.9V261.9H91.7ZM93.5 261.9H91.7V260.1H93.5V261.9ZM91.7 265.6V263.8H93.5V265.6H91.7ZM95.4 260.1H93.6V258.3H95.4V260.1ZM93.5 267.4V265.6H95.3V267.4H93.5ZM97.2 258.3H95.4V256.5H97.2V258.3ZM95.4 269.2V267.4H97.2V269.2H95.4Z" fill="white" stroke="white" stroke-width="0.234" stroke-miterlimit="10"/>
<path d="M110.7 258.3V262H118V263.8H110.7V267.5H118V269.3H108.9V256.4H118V258.2L110.7 258.3V258.3ZM133.3 261.9V263.7H131.5V269.2H129.7V256.4H131.5V261.9H133.3ZM135.2 261.9H133.4V260.1H135.2V261.9ZM133.3 265.6V263.8H135.1V265.6H133.3V265.6ZM137 260.1H135.2V258.3H137V260.1ZM135.2 267.4V265.6H137V267.4H135.2ZM138.8 258.3H137V256.5H138.8V258.3ZM137 269.2V267.4H138.8V269.2H137Z" fill="white" stroke="white" stroke-width="0.234" stroke-miterlimit="10"/>
<path d="M154.1 260.1V261.9H152.3V269.2H150.5V256.4H152.3V260.1H154.1ZM155.9 261.9V263.7H154.1V261.9H155.9ZM159.6 256.4V269.2H157.8V265.5H156V263.7H157.8V256.4H159.6ZM164.5 258.3V262H162.7V258.3H164.5ZM162.7 267.4H170V269.2H162.7V267.4ZM171.8 258.3H164.5V256.5H171.8V258.3ZM164.5 263.8V262H170V263.8H164.5ZM170 267.4V263.7H171.8V267.4H170ZM184.1 256.4V269.2H182.3V263.7H176.8V269.2H175V256.4H176.8V261.9H182.3V256.4H184.1Z" fill="white" stroke="white" stroke-width="0.234" stroke-miterlimit="10"/>
<path d="M197.5 261.9H203V263.7H197.5V269.2H195.7V256.4H203V258.2H197.5V261.9ZM204.9 258.3V262H203.1V258.3H204.9Z" fill="white" stroke="white" stroke-width="0.234" stroke-miterlimit="10"/>
<path d="M88.7 217.7V219.8H80.1V217.7H88.7ZM88.7 224.1V226.3H80.1V224.1H88.7ZM80.1 230.6H88.7V232.7H80.1V230.6ZM90.8 224.1H88.7V219.8H90.8V224.1ZM88.7 230.6V226.3H90.8V230.6H88.7ZM92.9 224.1H95V232.7H92.9V224.1ZM99.4 222V224.1H95.1V222H99.4V222ZM103.6 230.6H101.5V224.1H103.6V230.6ZM103.6 224.1V222H110.1V217.7H112.2V232.7H103.6V230.6H110.1V224.1H103.6ZM125 219.8V224.1H122.9V219.8H125ZM122.9 230.6H131.5V232.7H122.9V230.6ZM133.6 219.8H125V217.7H133.6V219.8V219.8ZM125 226.3V224.1H131.5V226.3H125V226.3ZM131.5 230.6V226.3H133.6V230.6H131.5ZM146.5 217.7V222H144.4V219.8H135.8V217.7H146.5V217.7ZM135.7 228.4H137.8V230.6H146.4V232.7H135.7V228.4V228.4ZM137.9 226.3H140.1V228.4H137.9V226.3ZM140 224.1H142.1V226.3H140V224.1ZM142.2 222H144.4V224.1H142.2V222V222ZM152.9 222V224.1H150.7V232.7H148.6V217.7H150.7V222H152.9V222ZM155 224.1V226.3H152.9V224.1H155ZM159.3 217.7V232.7H157.2V228.4H155V226.3H157.2V217.7H159.3V217.7ZM178.6 217.7V219.8H170V217.7H178.6ZM172.1 226.3V230.6H180.7V232.7H170V226.3H172.1V226.3ZM178.6 226.3H172.1V224.1H178.6V226.3ZM180.7 224.1H178.6V219.8H180.7V224.1Z" fill="black" stroke="black" stroke-width="0.199" stroke-miterlimit="10"/>
</svg>
