<svg width="272" height="294" viewBox="0 0 272 294" fill="none" xmlns="http://www.w3.org/2000/svg">
<g filter="url(#filter0_d_1_4069)">
<path d="M225.9 150.1V110.1H205.9V40.1H195.9V30.1H185.9V20.1H175.9V10.1H155.9V0.100006H115.9V10.1H95.9V20.1H85.9V30.1H75.9V40.1H65.9V110.1H45.9V150.1H55.9V160.1H45.9V210.1V238.5H55.4V248H64.9V276.4H74.4V285.9H197.6V276.4H207.1V248H216.6V238.5H226.1V160.1H216.1V150.1H225.9ZM95.9 210.1V200.1H105.9V210.1H95.9ZM165.9 210.1V200.1H175.9V210.1H165.9Z" fill="black"/>
<path d="M95.9 130.1V120.1H85.9V60.1H95.9V50.1H105.9V40.1H115.9V30.1H155.9V40.1H165.9V50.1H175.9V60.1H185.9V120.1H175.9V130.1H195.9V40.1H185.9V30.1H175.9V20.1H155.9V10.1H115.9V20.1H95.9V30.1H85.9V40.1H75.9V130.1H95.9V130.1Z" fill="#E1924C"/>
<path d="M205.9 120.1V130.1H195.9V140.1H185.9V150.1H175.9V160.1H165.9V170.1H155.9V180.1H145.9V190.1H125.9V180.1H115.9V170.1H105.9V160.1H95.9V150.1H85.9V140.1H75.9V130.1H65.9V120.1H55.9V150.1H65.9V160.1H75.9V170.1H85.9V180.1H95.9V190.1H105.9V200.1H165.9V190.1H175.9V180.1H185.9V170.1H195.9V160.1H205.9V150.1H215.9V120.1H205.9V120.1ZM55.9 190.1H65.9V200.1H55.9V190.1ZM205.9 190.1H215.9V200.1H205.9V190.1ZM105.9 110.1H115.9V100.1H125.9V90.1H145.9V100.1H155.9V110.1H165.9V120.1H175.9V60.1H165.9V50.1H155.9V40.1H115.9V50.1H105.9V60.1H95.9V120.1H105.9V110.1Z" fill="#E1924C"/>
<path d="M155.9 130.1H145.9V120.1H125.9V130.1H115.9V150.1H125.9V160.1H145.9V150.1H155.9V130.1V130.1ZM135.9 110.1H145.9V100.1H125.9V110.1H135.9Z" fill="#E1924C"/>
<path d="M115.9 110.1H125.9V120.1H115.9V110.1Z" fill="#E1924C"/>
<path d="M105.9 120.1H115.9V130.1H105.9V120.1ZM115.9 160.1H125.9V170.1H115.9V160.1ZM155.9 120.1H165.9V130.1H155.9V120.1Z" fill="#E1924C"/>
<path d="M145.9 110.1H155.9V120.1H145.9V110.1ZM105.9 140.1V130.1H95.9V150.1H105.9V140.1V140.1Z" fill="#E1924C"/>
<path d="M175.9 130.1H165.9V150.1H175.9V130.1V130.1ZM105.9 150.1H115.9V160.1H105.9V150.1ZM145.9 160.1H155.9V170.1H145.9V160.1Z" fill="#E1924C"/>
<path d="M135.9 170.1H125.9V180.1H145.9V170.1H135.9V170.1ZM155.9 150.1H165.9V160.1H155.9V150.1ZM85.9 180.1H75.9V170.1H65.9V160.1H55.9V180.1H65.9V190.1H75.9V200.1H95.9V190.1H85.9V180.1ZM195.9 170.1V180.1H185.9V190.1H175.9V200.1H195.9V190.1H205.9V180.1H215.9V160.1H205.9V170.1H195.9Z" fill="#E1924C"/>
<path d="M165.9 20.1H175.9V10.1H155.9V20.1H165.9Z" fill="black"/>
<path d="M175.9 20.1H185.9V30.1H175.9V20.1Z" fill="black"/>
<path d="M185.9 30.1H195.9V40.1H185.9V30.1ZM115.9 20.1V10.1H95.9V20.1H115.9Z" fill="black"/>
<path d="M85.9 20.1H95.9V30.1H85.9V20.1Z" fill="black"/>
<path d="M75.9 30.1H85.9V40.1H75.9V30.1ZM175.9 80.1V120.1H185.9V60.1H175.9V80.1ZM95.9 100.1V60.1H85.9V120.1H95.9V100.1ZM135.9 10.1H155.9V0.100006H115.9V10.1H135.9ZM135.9 40.1H155.9V30.1H115.9V40.1H135.9Z" fill="black"/>
<path d="M155.9 40.1H165.9V50.1H155.9V40.1Z" fill="black"/>
<path d="M165.9 50.1H175.9V60.1H165.9V50.1ZM105.9 40.1H115.9V50.1H105.9V40.1Z" fill="black"/>
<path d="M95.9 50.1H105.9V60.1H95.9V50.1ZM125.9 180.1V190.1H145.9V180.1H125.9V180.1ZM145.9 100.1V90.1H125.9V100.1H145.9ZM125.9 160.1V170.1H145.9V160.1H125.9Z" fill="black"/>
<path d="M145.9 150.1H155.9V160.1H145.9V150.1ZM145.9 100.1H155.9V110.1H145.9V100.1ZM165.9 120.1H175.9V130.1H165.9V120.1Z" fill="black"/>
<path d="M175.9 130.1V150.1H185.9V140.1H195.9V130.1H175.9V130.1ZM155.9 110.1H165.9V120.1H155.9V110.1ZM205.9 150.1H215.9V160.1H205.9V150.1Z" fill="black"/>
<path d="M215.9 110.1H205.9V40.1H195.9V130.1H205.9V120.1H215.9V150.1H225.9V110.1H215.9V110.1ZM165.9 150.1H175.9V160.1H165.9V150.1Z" fill="black"/>
<path d="M155.9 160.1H165.9V170.1H155.9V160.1Z" fill="black"/>
<path d="M145.9 170.1H155.9V180.1H145.9V170.1ZM65.9 160.1H75.9V170.1H65.9V160.1Z" fill="black"/>
<path d="M75.9 170.1H85.9V180.1H75.9V170.1Z" fill="black"/>
<path d="M85.9 180.1H95.9V190.1H85.9V180.1Z" fill="black"/>
<path d="M95.9 190.1H105.9V200.1H95.9V190.1Z" fill="black"/>
<path d="M75.9 200.1V190.1H65.9V200.1H55.9V190.1H65.9V180.1H55.9V160.1H45.9V210.1H95.9V200.1H75.9ZM195.9 160.1H205.9V170.1H195.9V160.1Z" fill="black"/>
<path d="M185.9 170.1H195.9V180.1H185.9V170.1Z" fill="black"/>
<path d="M175.9 180.1H185.9V190.1H175.9V180.1Z" fill="black"/>
<path d="M165.9 190.1H175.9V200.1H165.9V190.1Z" fill="black"/>
<path d="M145.9 200.1H105.9V210.1H165.9V200.1H145.9ZM215.9 180.1H205.9V190.1H215.9V200.1H205.9V190.1H195.9V200.1H175.9V210.1H225.9V160.1H215.9V180.1ZM115.9 150.1H125.9V160.1H115.9V150.1ZM135.9 110.1H125.9V120.1H145.9V110.1H135.9Z" fill="black"/>
<path d="M145.9 120.1H155.9V130.1H145.9V120.1ZM115.9 120.1H125.9V130.1H115.9V120.1Z" fill="black"/>
<path d="M155.9 140.1V150.1H165.9V130.1H155.9V140.1V140.1ZM115.9 130.1H105.9V150.1H115.9V130.1V130.1Z" fill="black"/>
<path d="M115.9 100.1H125.9V110.1H115.9V100.1ZM95.9 120.1H105.9V130.1H95.9V120.1Z" fill="black"/>
<path d="M95.9 130.1H75.9V140.1H85.9V150.1H95.9V130.1V130.1ZM105.9 110.1H115.9V120.1H105.9V110.1ZM55.9 150.1H65.9V160.1H55.9V150.1Z" fill="black"/>
<path d="M55.9 130.1V120.1H65.9V130.1H75.9V40.1H65.9V110.1H45.9V150.1H55.9V130.1V130.1ZM95.9 150.1H105.9V160.1H95.9V150.1Z" fill="black"/>
<path d="M105.9 160.1H115.9V170.1H105.9V160.1Z" fill="black"/>
<path d="M115.9 170.1H125.9V180.1H115.9V170.1ZM135.9 150.1H145.9V160.1H135.9V150.1Z" fill="black"/>
<path d="M145.9 140.1H155.9V150.1H145.9V140.1Z" fill="black"/>
<path d="M125.9 150.1H135.9V160.1H125.9V150.1Z" fill="#C86300"/>
<path d="M135.9 140.1H145.9V150.1H135.9V140.1Z" fill="#C86300"/>
<path d="M145.9 130.1H155.9V140.1H145.9V130.1Z" fill="#C86300"/>
<path d="M135.9 120.1V130.1H125.9V140.1H115.9V150.1H135.9V140.1H145.9V120.1H135.9V120.1Z" fill="#C86300"/>
<path d="M155.9 70.1V80.1H165.9V60.1H155.9V70.1ZM155.9 100.1V110.1H165.9V90.1H155.9V100.1ZM165.9 30.1H175.9V40.1H165.9V30.1Z" fill="#D86F13"/>
<path d="M175.9 40.1H185.9V50.1H175.9V40.1Z" fill="#D86F13"/>
<path d="M185.9 50.1H195.9V60.1H185.9V50.1ZM85.9 100.1H75.9V120.1H85.9V100.1Z" fill="#D86F13"/>
<path d="M85.9 120.1H95.9V130.1H85.9V120.1Z" fill="#D86F13"/>
<path d="M145.9 10.1H135.9V20.1H155.9V10.1H145.9Z" fill="#C86300"/>
<path d="M165.9 20.1H155.9V30.1H175.9V20.1H165.9Z" fill="#C86300"/>
<path d="M175.9 30.1H185.9V40.1H175.9V30.1Z" fill="#C86300"/>
<path d="M185.9 40.1H195.9V50.1H185.9V40.1ZM185.9 100.1V130.1H195.9V90.1H185.9V100.1ZM75.9 120.1H85.9V130.1H75.9V120.1ZM165.9 60.1V80.1H145.9V100.1H155.9V90.1H165.9V120.1H175.9V60.1H165.9ZM145.9 40.1H155.9V50.1H145.9V40.1Z" fill="#C86300"/>
<path d="M155.9 50.1H165.9V60.1H155.9V50.1ZM135.9 150.1H145.9V160.1H135.9V150.1Z" fill="#C86300"/>
<path d="M145.9 140.1H155.9V150.1H145.9V140.1Z" fill="#C86300"/>
<path d="M145.9 40.1H135.9V50.1H115.9V60.1H105.9V90.1H115.9V70.1H125.9V60.1H145.9V40.1Z" fill="#E1924C"/>
<path d="M95.9 100.1V110.1H105.9V90.1H95.9V100.1ZM145.9 70.1H135.9V90.1H145.9V80.1H155.9V60.1H145.9V70.1ZM95.9 30.1H105.9V40.1H95.9V30.1Z" fill="#E1924C"/>
<path d="M85.9 40.1H95.9V50.1H85.9V40.1Z" fill="#E1924C"/>
<path d="M75.9 50.1H85.9V60.1H75.9V50.1ZM175.9 120.1H185.9V130.1H175.9V120.1ZM205.9 120.1H215.9V130.1H205.9V120.1ZM55.9 190.1H65.9V200.1H55.9V190.1ZM205.9 190.1H215.9V200.1H205.9V190.1ZM55.9 120.1H65.9V130.1H55.9V120.1ZM135.9 130.1H125.9V140.1H115.9V150.1H135.9V140.1H145.9V120.1H135.9V130.1Z" fill="#E1924C"/>
<path d="M95.9 110.1H105.9V120.1H95.9V110.1Z" fill="#DD8334"/>
<path d="M125.9 70.1H115.9V90.1H105.9V110.1H115.9V100.1H125.9V90.1H135.9V70.1H145.9V60.1H125.9V70.1V70.1Z" fill="#DD8334"/>
<path d="M145.9 50.1H155.9V60.1H145.9V50.1ZM105.9 30.1H115.9V40.1H105.9V30.1Z" fill="#DD8334"/>
<path d="M95.9 40.1H105.9V50.1H95.9V40.1Z" fill="#DD8334"/>
<path d="M85.9 50.1H95.9V60.1H85.9V50.1ZM145.9 20.1H135.9V10.1H125.9V20.1H115.9V30.1H155.9V20.1H145.9Z" fill="#DD8334"/>
<path d="M155.9 30.1H165.9V40.1H155.9V30.1Z" fill="#DD8334"/>
<path d="M165.9 40.1H175.9V50.1H165.9V40.1Z" fill="#DD8334"/>
<path d="M175.9 50.1H185.9V60.1H175.9V50.1ZM75.9 70.1V100.1H85.9V60.1H75.9V70.1Z" fill="#DD8334"/>
<path d="M185.9 60.1V90.1H195.9V60.1H185.9ZM135.9 140.1H145.9V150.1H135.9V140.1Z" fill="#DD8334"/>
<path d="M125.9 150.1H135.9V160.1H125.9V150.1ZM145.9 130.1H155.9V140.1H145.9V130.1Z" fill="#DD8334"/>
<path d="M125.9 40.1H115.9V50.1H135.9V40.1H125.9ZM95.9 70.1V90.1H105.9V60.1H95.9V70.1Z" fill="white"/>
<path d="M105.9 50.1H115.9V60.1H105.9V50.1ZM115.9 10.1H125.9V20.1H115.9V10.1Z" fill="white"/>
<path d="M115.9 30.1V20.1H95.9V30.1H115.9Z" fill="white"/>
<path d="M85.9 30.1H95.9V40.1H85.9V30.1Z" fill="white"/>
<path d="M75.9 40.1H85.9V50.1H75.9V40.1ZM125.9 120.1H135.9V130.1H125.9V120.1Z" fill="white"/>
<path d="M115.9 130.1H125.9V140.1H115.9V130.1ZM145.9 180.1H155.9V190.1H145.9V180.1Z" fill="white"/>
<path d="M155.9 170.1H165.9V180.1H155.9V170.1Z" fill="white"/>
<path d="M165.9 160.1H175.9V170.1H165.9V160.1Z" fill="white"/>
<path d="M175.9 150.1H185.9V160.1H175.9V150.1Z" fill="white"/>
<path d="M185.9 140.1H195.9V150.1H185.9V140.1Z" fill="white"/>
<path d="M195.9 130.1H205.9V140.1H195.9V130.1ZM55.9 170.1H65.9V180.1H55.9V170.1ZM205.9 170.1H215.9V180.1H205.9V170.1ZM115.9 180.1H125.9V190.1H115.9V180.1Z" fill="white"/>
<path d="M105.9 170.1H115.9V180.1H105.9V170.1Z" fill="white"/>
<path d="M95.9 160.1H105.9V170.1H95.9V160.1Z" fill="white"/>
<path d="M85.9 150.1H95.9V160.1H85.9V150.1Z" fill="white"/>
<path d="M75.9 140.1H85.9V150.1H75.9V140.1ZM125.9 100.1H135.9V110.1H125.9V100.1Z" fill="white"/>
<path d="M115.9 110.1H125.9V120.1H115.9V110.1ZM95.9 130.1H105.9V140.1H95.9V130.1Z" fill="white"/>
<path d="M105.9 120.1H115.9V130.1H105.9V120.1ZM65.9 130.1H75.9V140.1H65.9V130.1Z" fill="white"/>
<path d="M155.9 180.1H165.9V190.1H155.9V180.1ZM125.9 170.1H135.9V180.1H125.9V170.1Z" fill="#DD8334"/>
<path d="M165.9 170.1H175.9V180.1H165.9V170.1ZM195.9 140.1H205.9V150.1H195.9V140.1Z" fill="#DD8334"/>
<path d="M205.9 130.1H215.9V140.1H205.9V130.1ZM175.9 160.1H185.9V170.1H175.9V160.1Z" fill="#DD8334"/>
<path d="M185.9 150.1H195.9V160.1H185.9V150.1ZM65.9 180.1H75.9V190.1H65.9V180.1Z" fill="#DD8334"/>
<path d="M75.9 190.1H85.9V200.1H75.9V190.1ZM195.9 180.1H205.9V190.1H195.9V180.1Z" fill="#DD8334"/>
<path d="M185.9 190.1H195.9V200.1H185.9V190.1ZM105.9 180.1H115.9V190.1H105.9V180.1ZM115.9 160.1H125.9V170.1H115.9V160.1ZM135.9 100.1H145.9V110.1H135.9V100.1ZM155.9 120.1H165.9V130.1H155.9V120.1Z" fill="#DD8334"/>
<path d="M145.9 110.1H155.9V120.1H145.9V110.1ZM95.9 140.1H105.9V150.1H95.9V140.1Z" fill="#DD8334"/>
<path d="M165.9 130.1H175.9V140.1H165.9V130.1ZM105.9 150.1H115.9V160.1H105.9V150.1ZM95.9 170.1H105.9V180.1H95.9V170.1ZM65.9 140.1H75.9V150.1H65.9V140.1Z" fill="#DD8334"/>
<path d="M55.9 130.1H65.9V140.1H55.9V130.1ZM85.9 160.1H95.9V170.1H85.9V160.1Z" fill="#DD8334"/>
<path d="M75.9 150.1H85.9V160.1H75.9V150.1Z" fill="#DD8334"/>
<path d="M145.9 190.1H105.9V200.1H165.9V190.1H145.9ZM145.9 160.1H155.9V170.1H145.9V160.1Z" fill="#C86300"/>
<path d="M135.9 170.1H145.9V180.1H135.9V170.1ZM155.9 150.1H165.9V160.1H155.9V150.1ZM165.9 180.1H175.9V190.1H165.9V180.1ZM195.9 150.1H205.9V160.1H195.9V150.1Z" fill="#C86300"/>
<path d="M205.9 140.1H215.9V150.1H205.9V140.1ZM175.9 170.1H185.9V180.1H175.9V170.1Z" fill="#C86300"/>
<path d="M185.9 160.1H195.9V170.1H185.9V160.1ZM65.9 170.1H75.9V180.1H65.9V170.1Z" fill="#C86300"/>
<path d="M55.9 160.1H65.9V170.1H55.9V160.1ZM85.9 190.1H95.9V200.1H85.9V190.1Z" fill="#C86300"/>
<path d="M75.9 180.1H85.9V190.1H75.9V180.1ZM195.9 170.1H205.9V180.1H195.9V170.1Z" fill="#C86300"/>
<path d="M205.9 160.1H215.9V170.1H205.9V160.1ZM175.9 190.1H185.9V200.1H175.9V190.1Z" fill="#C86300"/>
<path d="M185.9 180.1H195.9V190.1H185.9V180.1ZM165.9 140.1H175.9V150.1H165.9V140.1ZM95.9 180.1H105.9V190.1H95.9V180.1ZM65.9 150.1H75.9V160.1H65.9V150.1Z" fill="#C86300"/>
<path d="M55.9 140.1H65.9V150.1H55.9V140.1ZM85.9 170.1H95.9V180.1H85.9V170.1Z" fill="#C86300"/>
<path d="M75.9 160.1H85.9V170.1H75.9V160.1Z" fill="#C86300"/>
<path d="M188 248H74.3V276.4H197.5V248H188Z" fill="#22DFF0"/>
<path d="M207 210.1H55.4V238.5H216.5V210.1H207Z" fill="#E1924C"/>
<path d="M95.6 217.6V219.7H87V217.6H95.6ZM95.6 224.1V226.3H87V224.1H95.6ZM87 230.5H95.6V232.6H87V230.5ZM97.7 224.1H95.6V219.8H97.7V224.1ZM95.6 230.5V226.2H97.7V230.5H95.6ZM99.8 224.1H101.9V232.7H99.8V224.1ZM106.3 221.9V224H102V221.9H106.3V221.9ZM110.5 230.5H108.4V224H110.5V230.5V230.5ZM110.5 224.1V222H117V217.7H119.1V232.7H110.5V230.6H117V224.1H110.5V224.1ZM131.9 219.8V224.1H129.8V219.8H131.9ZM129.8 230.5H138.4V232.6H129.8V230.5ZM140.5 219.8H131.9V217.7H140.5V219.8ZM131.9 226.2V224H138.4V226.2H131.9V226.2ZM138.4 230.5V226.2H140.5V230.5H138.4ZM153.4 217.6V221.9H151.3V219.7H142.7V217.6H153.4V217.6ZM142.6 228.4H144.7V230.6H153.3V232.7H142.6V228.4V228.4ZM144.8 226.2H147V228.3H144.8V226.2ZM146.9 224.1H149V226.3H146.9V224.1ZM149.1 221.9H151.3V224H149.1V221.9ZM159.8 221.9V224H157.6V232.6H155.5V217.6H157.6V221.9H159.8V221.9ZM161.9 224.1V226.3H159.8V224.1H161.9ZM166.2 217.6V232.6H164.1V228.3H161.9V226.2H164.1V217.6H166.2V217.6ZM185.5 217.6V219.7H176.9V217.6H185.5ZM179 226.2V230.5H187.6V232.6H176.9V226.2H179V226.2ZM185.5 226.2H179V224H185.5V226.2V226.2ZM187.6 224.1H185.5V219.8H187.6V224.1Z" fill="black" stroke="black" stroke-width="0.199" stroke-miterlimit="10"/>
<path d="M92.5 261.9V263.7H94.3V269.2H92.5V263.7H87V269.2H85.2V256.4H92.5V258.2H87V261.9H92.5ZM92.5 261.9V258.2H94.3V261.9H92.5ZM99.2 258.2V267.4H97.4V258.2H99.2ZM104.7 258.2H99.2V256.4H104.7V258.2ZM99.2 267.4H104.7V269.2H99.2V267.4ZM106.5 258.2V267.4H104.7V258.2H106.5ZM111.5 258.2V267.4H109.7V258.2H111.5ZM117 258.2H111.5V256.4H117V258.2ZM111.5 267.4H117V269.2H111.5V267.4ZM118.8 258.2V267.4H117V258.2H118.8ZM125.5 261.9V263.7H123.7V269.2H121.9V256.4H123.7V261.9H125.5ZM127.3 261.9H125.5V260.1H127.3V261.9ZM125.5 265.5V263.7H127.3V265.5H125.5ZM129.2 260.1H127.4V258.3H129.2V260.1ZM127.3 267.4V265.6H129.1V267.4H127.3ZM131 258.2H129.2V256.4H131V258.2ZM129.2 269.2V267.4H131V269.2H129.2ZM137.8 258.2V267.4H139.6V269.2H134.1V267.4H135.9V258.2H134.1V256.4H139.6V258.2H137.8ZM144.5 258.2V261.9H151.8V263.7H144.5V267.4H151.8V269.2H142.7V256.4H151.8V258.2H144.5ZM165.3 256.4V260.1H163.5V256.4H165.3ZM163.5 265.5H165.3V269.2H163.5V265.5ZM167.1 260.1V261.9H165.3V260.1H167.1ZM165.3 263.7H167.1V265.5H165.3V263.7ZM169 261.9V263.7H167.2V261.9H169ZM170.8 261.9H169V260.1H170.8V261.9V261.9ZM169 265.5V263.7H170.8V265.5H169V265.5ZM172.6 260.1H170.8V256.4H172.6V260.1ZM170.8 269.2V265.5H172.6V269.2H170.8ZM177.5 261.9H183V263.7H177.5V269.2H175.7V256.4H183V258.2H177.5V261.9ZM184.8 258.2V261.9H183V258.2H184.8V258.2Z" fill="black"/>
</g>
<defs>
<filter id="filter0_d_1_4069" x="-4" y="0" width="280" height="294" filterUnits="userSpaceOnUse" color-interpolation-filters="sRGB">
<feFlood flood-opacity="0" result="BackgroundImageFix"/>
<feColorMatrix in="SourceAlpha" type="matrix" values="0 0 0 0 0 0 0 0 0 0 0 0 0 0 0 0 0 0 127 0" result="hardAlpha"/>
<feOffset dy="4"/>
<feGaussianBlur stdDeviation="2"/>
<feComposite in2="hardAlpha" operator="out"/>
<feColorMatrix type="matrix" values="0 0 0 0 0 0 0 0 0 0 0 0 0 0 0 0 0 0 0.25 0"/>
<feBlend mode="normal" in2="BackgroundImageFix" result="effect1_dropShadow_1_4069"/>
<feBlend mode="normal" in="SourceGraphic" in2="effect1_dropShadow_1_4069" result="shape"/>
</filter>
</defs>
</svg>
