<svg width="378" height="378" viewBox="0 0 378 378" fill="none" xmlns="http://www.w3.org/2000/svg">
<g clip-path="url(#clip0_1_1068)">
<path d="M189 378.2C293.492 378.2 378.2 293.492 378.2 189C378.2 84.5077 293.492 -0.200012 189 -0.200012C84.5077 -0.200012 -0.200012 84.5077 -0.200012 189C-0.200012 293.492 84.5077 378.2 189 378.2Z" fill="#C689FA"/>
<path d="M148.7 317.6V322.6H158.7V325.1H148.7V330.1H158.7V332.6H146.2V315.1H158.7V317.6H148.7ZM173.6 317.6V332.6H171.1V325.1H163.6V332.6H161.1V317.6H163.6V322.6H171.1V317.6H173.6ZM171.1 317.6H163.6V315.1H171.1V317.6Z" fill="black"/>
<path d="M193.6 317.6V330.1H191.1V317.6H193.6ZM201.1 317.6H193.6V315.1H201.1V317.6ZM193.6 330.1H201.1V332.6H193.6V330.1ZM203.6 317.6V330.1H201.1V317.6H203.6ZM211.1 320.1V322.6H208.6V332.6H206.1V315.1H208.6V320.1H211.1ZM213.6 322.6V325.1H211.1V322.6H213.6ZM218.6 315.1V332.6H216.1V327.6H213.6V325.1H216.1V315.1H218.6ZM241.1 315.1V317.6H231.1V315.1H241.1ZM233.6 325.1V330.1H243.6V332.6H231.1V325.1H233.6ZM241.1 325.1H233.6V322.6H241.1V325.1ZM243.6 322.6H241.1V317.6H243.6V322.6ZM266.7 295.6V290H255.4V295.6H266.7ZM121.2 295.6V290H109.9V295.6H121.2ZM135.8 275.6V305.5H140.8V295.5H145.8V290.5H140.8V280.5H145.8V290.5H150.8V275.6H135.8Z" fill="black"/>
<path d="M145.8 305.5H150.8V295.5H145.8V305.5ZM155.8 275.6V305.4H160.8V295.5H165.8V305.4H170.8V275.6H155.8ZM165.7 290.6H160.7V280.7H165.7V290.6ZM175.7 275.6V305.5H180.7V295.5H185.7V290.5H180.7V280.5H185.7V290.5H190.7V275.6H175.7Z" fill="black"/>
<path d="M185.6 305.5H190.6V295.5H185.6V305.5ZM195.6 305.5H200.6V275.6H195.6V305.5ZM205.6 275.6V280.6H210.6V305.5H215.6V280.6H220.6V275.6H205.6ZM235.4 275.6V290.5H240.4V275.6H235.4ZM230.5 275.6H225.5V290.5H230.5V275.6Z" fill="black"/>
<path d="M230.5 305.5H235.5V290.5H230.5V305.5ZM287.4 149.6H296.8V196.7H306.2V140.3H287.4V149.6V149.6ZM315.6 149.6V196.7H343.8V149.6H315.6ZM334.4 187.2H325V159H334.4V187.2ZM45.9 145.9V177.3H64.7V145.9H45.9ZM58.4 171H52.2V152.2H58.4V171V171ZM71 145.9V177.3H77.3V164.7H89.8V145.9H71V145.9ZM77.3 158.4V152.2H83.5V158.4H77.3ZM23.8 152.2H30.1V177.3H36.4V152.2H42.7V145.9H23.9L23.8 152.2V152.2ZM258.3 159V99H248.3V89H238.3V79H228.3V69H218.3V59H208.3V49H198.3V39H178.3V49H168.3V59H158.3V69H148.3V79H138.3V89H128.3V99H118.3V159H98.3V199H108.3V209H98.3V259H148.3V249H158.3V259H218.3V249H228.3V259H278.3V209H268.3V199H278.3V159H258.3Z" fill="black"/>
<path d="M138.3 169H148.3V179H138.3V169ZM258.3 169V179H248.3V189H238.3V199H228.3V209H218.3V219H208.3V229H198.3V239H178.3V229H168.3V219H158.3V209H148.3V199H138.3V189H128.3V179H118.3V169H108.3V199H118.3V209H128.3V219H138.3V229H148.3V239H158.3V249H218.3V239H228.3V229H238.3V219H248.3V209H258.3V199H268.3V169H258.3ZM108.3 239H118.3V249H108.3V239ZM258.3 239H268.3V249H258.3V239Z" fill="#4B25DC"/>
<path d="M138.3 109H148.3V99H158.3V89H168.3V79H178.3V69H198.3V79H208.3V89H218.3V99H228.3V109H238.3V169H228.3V179H248.3V99H238.3V89H228.3V79H218.3V69H208.3V59H198.3V49H178.3V59H168.3V69H158.3V79H148.3V89H138.3V99H128.3V169H138.3V109ZM208.3 179H198.3V169H178.3V179H168.3V199H178.3V209H198.3V199H208.3V179Z" fill="#4B25DC"/>
<path d="M168.3 169H178.3V159H198.3V149H188.3V139H198.3V149H208.3V159H218.3V169H228.3V109H218.3V99H208.3V89H198.3V79H178.3V89H168.3V99H158.3V109H148.3V169H158.3V179H168.3V169ZM168.3 209H178.3V219H168.3V209Z" fill="#4B25DC"/>
<path d="M208.3 169H218.3V179H208.3V169Z" fill="#4B25DC"/>
<path d="M198.3 159H208.3V169H198.3V159ZM158.3 189V179H148.3V199H158.3V189Z" fill="#4B25DC"/>
<path d="M228.3 179H218.3V199H228.3V179ZM158.3 199H168.3V209H158.3V199ZM198.3 209H208.3V219H198.3V209Z" fill="#4B25DC"/>
<path d="M188.3 219H178.3V229H198.3V219H188.3ZM208.3 199H218.3V209H208.3V199ZM138.3 229H128.3V219H118.3V209H108.3V229H118.3V239H128.3V249H148.3V239H138.3V229ZM248.3 219V229H238.3V239H228.3V249H248.3V239H258.3V229H268.3V209H258.3V219H248.3Z" fill="#4B25DC"/>
<path d="M208.3 99V129H218.3V99H208.3ZM208.3 149V159H218.3V139H208.3V149ZM138.3 149H128.3V169H138.3V149Z" fill="#6241FF"/>
<path d="M138.3 169H148.3V179H138.3V169Z" fill="#6241FF"/>
<path d="M128.3 169H138.3V179H128.3V169ZM218.3 119V129H198.3V149H208.3V139H218.3V169H228.3V109H218.3V119ZM188.3 49H198.3V59H188.3V49Z" fill="#4B25DC"/>
<path d="M198.3 59H208.3V69H198.3V59Z" fill="#4B25DC"/>
<path d="M208.3 69H218.3V79H208.3V69Z" fill="#4B25DC"/>
<path d="M218.3 79H228.3V89H218.3V79Z" fill="#4B25DC"/>
<path d="M228.3 89H238.3V99H228.3V89Z" fill="#4B25DC"/>
<path d="M238.3 99H248.3V109H238.3V99ZM238.3 149V179H248.3V139H238.3V149ZM188.3 199H198.3V209H188.3V199Z" fill="#4B25DC"/>
<path d="M198.3 189H208.3V199H198.3V189Z" fill="#4B25DC"/>
<path d="M198.3 79H188.3V99H198.3V79ZM158.3 129V139H168.3V119H158.3V129Z" fill="#A08CFF"/>
<path d="M148.3 149V159H158.3V139H148.3V149ZM168.3 109H178.3V119H168.3V109Z" fill="#A08CFF"/>
<path d="M178.3 99H188.3V109H178.3V99ZM198.3 109V119H188.3V139H198.3V129H208.3V99H198.3V109ZM178.3 49H188.3V59H178.3V49Z" fill="#A08CFF"/>
<path d="M168.3 59H178.3V69H168.3V59Z" fill="#A08CFF"/>
<path d="M158.3 69H168.3V79H158.3V69Z" fill="#A08CFF"/>
<path d="M148.3 79H158.3V89H148.3V79Z" fill="#A08CFF"/>
<path d="M138.3 89H148.3V99H138.3V89Z" fill="#A08CFF"/>
<path d="M128.3 99H138.3V109H128.3V99ZM228.3 169H238.3V179H228.3V169ZM258.3 169H268.3V179H258.3V169ZM108.3 239H118.3V249H108.3V239ZM258.3 239H268.3V249H258.3V239ZM108.3 169H118.3V179H108.3V169ZM188.3 179H178.3V189H168.3V199H188.3V189H198.3V169H188.3V179Z" fill="#A08CFF"/>
<path d="M188.3 109H178.3V119H168.3V139H158.3V159H148.3V169H168.3V159H178.3V149H188.3V119H198.3V99H188.3V109Z" fill="#7A5FFF"/>
<path d="M198.3 89H208.3V99H198.3V89ZM128.3 119V149H138.3V109H128.3V119ZM188.3 59H178.3V69H198.3V59H188.3Z" fill="#7A5FFF"/>
<path d="M198.3 69H208.3V79H198.3V69Z" fill="#7A5FFF"/>
<path d="M208.3 79H218.3V89H208.3V79Z" fill="#7A5FFF"/>
<path d="M218.3 89H228.3V99H218.3V89Z" fill="#7A5FFF"/>
<path d="M228.3 99H238.3V109H228.3V99Z" fill="#7A5FFF"/>
<path d="M238.3 109V139H248.3V109H238.3ZM168.3 69H178.3V79H168.3V69Z" fill="#7A5FFF"/>
<path d="M158.3 79H168.3V89H158.3V79Z" fill="#7A5FFF"/>
<path d="M148.3 89H158.3V99H148.3V89Z" fill="#7A5FFF"/>
<path d="M138.3 99H148.3V109H138.3V99ZM188.3 189H198.3V199H188.3V189Z" fill="#7A5FFF"/>
<path d="M178.3 199H188.3V209H178.3V199ZM198.3 179H208.3V189H198.3V179Z" fill="#7A5FFF"/>
<path d="M178.3 79V89H168.3V99H158.3V109H148.3V139H158.3V119H168.3V109H178.3V99H188.3V79H178.3ZM178.3 169H188.3V179H178.3V169Z" fill="#DED7FF"/>
<path d="M168.3 179H178.3V189H168.3V179Z" fill="#DED7FF"/>
<path d="M198.3 229H208.3V239H198.3V229Z" fill="#E1E1E1"/>
<path d="M208.3 219H218.3V229H208.3V219Z" fill="#E1E1E1"/>
<path d="M218.3 209H228.3V219H218.3V209Z" fill="#E1E1E1"/>
<path d="M228.3 199H238.3V209H228.3V199Z" fill="#E1E1E1"/>
<path d="M238.3 189H248.3V199H238.3V189Z" fill="#E1E1E1"/>
<path d="M248.3 179H258.3V189H248.3V179ZM108.3 219H118.3V229H108.3V219ZM258.3 219H268.3V229H258.3V219ZM168.3 229H178.3V239H168.3V229Z" fill="#E1E1E1"/>
<path d="M158.3 219H168.3V229H158.3V219Z" fill="#E1E1E1"/>
<path d="M148.3 209H158.3V219H148.3V209Z" fill="#E1E1E1"/>
<path d="M138.3 199H148.3V209H138.3V199Z" fill="#E1E1E1"/>
<path d="M128.3 189H138.3V199H128.3V189ZM178.3 149H188.3V159H178.3V149Z" fill="#E1E1E1"/>
<path d="M168.3 159H178.3V169H168.3V159ZM148.3 179H158.3V189H148.3V179Z" fill="#E1E1E1"/>
<path d="M158.3 169H168.3V179H158.3V169ZM118.3 179H128.3V189H118.3V179Z" fill="#E1E1E1"/>
<path d="M208.3 229H218.3V239H208.3V229ZM178.3 219H188.3V229H178.3V219Z" fill="#AFAFAF"/>
<path d="M218.3 219H228.3V229H218.3V219ZM248.3 189H258.3V199H248.3V189Z" fill="#AFAFAF"/>
<path d="M258.3 179H268.3V189H258.3V179ZM228.3 209H238.3V219H228.3V209Z" fill="#AFAFAF"/>
<path d="M238.3 199H248.3V209H238.3V199ZM118.3 229H128.3V239H118.3V229Z" fill="#AFAFAF"/>
<path d="M128.3 239H138.3V249H128.3V239ZM248.3 229H258.3V239H248.3V229Z" fill="#AFAFAF"/>
<path d="M238.3 239H248.3V249H238.3V239ZM158.3 229H168.3V239H158.3V229ZM168.3 209H178.3V219H168.3V209ZM188.3 149H198.3V159H188.3V149ZM208.3 169H218.3V179H208.3V169Z" fill="#AFAFAF"/>
<path d="M198.3 159H208.3V169H198.3V159ZM148.3 189H158.3V199H148.3V189Z" fill="#AFAFAF"/>
<path d="M218.3 179H228.3V189H218.3V179ZM158.3 199H168.3V209H158.3V199ZM148.3 219H158.3V229H148.3V219ZM118.3 189H128.3V199H118.3V189Z" fill="#AFAFAF"/>
<path d="M108.3 179H118.3V189H108.3V179ZM138.3 209H148.3V219H138.3V209Z" fill="#AFAFAF"/>
<path d="M128.3 199H138.3V209H128.3V199Z" fill="#AFAFAF"/>
<path d="M198.3 239H158.3V249H218.3V239H198.3ZM198.3 209H208.3V219H198.3V209Z" fill="#7D7D7D"/>
<path d="M188.3 219H198.3V229H188.3V219ZM208.3 199H218.3V209H208.3V199ZM218.3 229H228.3V239H218.3V229ZM248.3 199H258.3V209H248.3V199Z" fill="#7D7D7D"/>
<path d="M258.3 189H268.3V199H258.3V189ZM228.3 219H238.3V229H228.3V219Z" fill="#7D7D7D"/>
<path d="M238.3 209H248.3V219H238.3V209ZM118.3 219H128.3V229H118.3V219Z" fill="#7D7D7D"/>
<path d="M108.3 209H118.3V219H108.3V209ZM138.3 239H148.3V249H138.3V239Z" fill="#7D7D7D"/>
<path d="M128.3 229H138.3V239H128.3V229ZM248.3 219H258.3V229H248.3V219Z" fill="#7D7D7D"/>
<path d="M258.3 209H268.3V219H258.3V209ZM228.3 239H238.3V249H228.3V239Z" fill="#7D7D7D"/>
<path d="M238.3 229H248.3V239H238.3V229ZM218.3 189H228.3V199H218.3V189ZM148.3 229H158.3V239H148.3V229ZM118.3 199H128.3V209H118.3V199Z" fill="#7D7D7D"/>
<path d="M108.3 189H118.3V199H108.3V189ZM138.3 219H148.3V229H138.3V219Z" fill="#7D7D7D"/>
<path d="M128.3 209H138.3V219H128.3V209Z" fill="#7D7D7D"/>
<path d="M198.3 39H178.3V49H198.3V39Z" fill="black"/>
<path d="M198.3 49H208.3V59H198.3V49Z" fill="black"/>
<path d="M208.3 59H218.3V69H208.3V59Z" fill="black"/>
<path d="M218.3 69H228.3V79H218.3V69Z" fill="black"/>
<path d="M228.3 79H238.3V89H228.3V79Z" fill="black"/>
<path d="M238.3 89H248.3V99H238.3V89ZM168.3 49H178.3V59H168.3V49Z" fill="black"/>
<path d="M158.3 59H168.3V69H158.3V59Z" fill="black"/>
<path d="M148.3 69H158.3V79H148.3V69Z" fill="black"/>
<path d="M138.3 79H148.3V89H138.3V79Z" fill="black"/>
<path d="M128.3 89H138.3V99H128.3V89ZM228.3 169H238.3V109H228.3V129V169ZM148.3 109H138.3V169H148.3V149V109ZM198.3 69H178.3V79H198.3V69Z" fill="black"/>
<path d="M168.3 79H178.3V89H168.3V79ZM198.3 79H208.3V89H198.3V79Z" fill="black"/>
<path d="M208.3 89H218.3V99H208.3V89Z" fill="black"/>
<path d="M218.3 99H228.3V109H218.3V99ZM158.3 89H168.3V99H158.3V89Z" fill="black"/>
<path d="M148.3 99H158.3V109H148.3V99ZM178.3 239H198.3V229H178.3V239ZM178.3 219H198.3V209H178.3V219Z" fill="black"/>
<path d="M198.3 199H208.3V209H198.3V199ZM198.3 149H208.3V159H198.3V149ZM218.3 169H228.3V179H218.3V169Z" fill="black"/>
<path d="M228.3 199H238.3V189H248.3V179H228.3V199ZM208.3 159H218.3V169H208.3V159ZM258.3 199H268.3V209H258.3V199Z" fill="black"/>
<path d="M258.3 179V169H268.3V199H278.3V159H268.3H258.3V99H248.3V179H258.3ZM218.3 199H228.3V209H218.3V199Z" fill="black"/>
<path d="M208.3 209H218.3V219H208.3V209Z" fill="black"/>
<path d="M198.3 219H208.3V229H198.3V219ZM118.3 209H128.3V219H118.3V209Z" fill="black"/>
<path d="M128.3 219H138.3V229H128.3V219Z" fill="black"/>
<path d="M138.3 229H148.3V239H138.3V229Z" fill="black"/>
<path d="M148.3 239H158.3V249H148.3V239Z" fill="black"/>
<path d="M128.3 239H118.3V249H108.3V239H118.3V229H108.3V209H98.3V259H148.3V249H128.3V239ZM248.3 209H258.3V219H248.3V209Z" fill="black"/>
<path d="M238.3 219H248.3V229H238.3V219Z" fill="black"/>
<path d="M228.3 229H238.3V239H228.3V229Z" fill="black"/>
<path d="M218.3 239H228.3V249H218.3V239Z" fill="black"/>
<path d="M158.3 249V259H218.3V249H198.3H158.3ZM258.3 229V239H268.3V249H258.3V239H248.3V249H228.3V259H278.3V209H268.3V229H258.3ZM168.3 199H178.3V209H168.3V199ZM188.3 159H178.3V169H198.3V159H188.3Z" fill="black"/>
<path d="M198.3 169H208.3V179H198.3V169ZM168.3 169H178.3V179H168.3V169Z" fill="black"/>
<path d="M208.3 189V199H218.3V179H208.3V189ZM158.3 179V199H168.3V179H158.3Z" fill="black"/>
<path d="M148.3 169H158.3V179H148.3V169Z" fill="black"/>
<path d="M128.3 179V189H138.3V199H148.3V179H128.3ZM108.3 199H118.3V209H108.3V199Z" fill="black"/>
<path d="M108.3 169H118.3V179H128.3V99H118.3V159H98.3V199H108.3V179V169ZM148.3 199H158.3V209H148.3V199Z" fill="black"/>
<path d="M158.3 209H168.3V219H158.3V209Z" fill="black"/>
<path d="M168.3 219H178.3V229H168.3V219ZM198.3 139H178.3V149H198.3V139Z" fill="black"/>
<path d="M168.3 149H178.3V159H168.3V149Z" fill="black"/>
<path d="M158.3 159H168.3V169H158.3V159Z" fill="black"/>
</g>
<defs>
<clipPath id="clip0_1_1068">
<rect width="378" height="378" fill="white"/>
</clipPath>
</defs>
</svg>
