<svg width="378" height="378" viewBox="0 0 378 378" fill="none" xmlns="http://www.w3.org/2000/svg">
<g clip-path="url(#clip0_1_1188)">
<path d="M189 378.2C293.492 378.2 378.2 293.492 378.2 189C378.2 84.5077 293.492 -0.200012 189 -0.200012C84.5077 -0.200012 -0.200012 84.5077 -0.200012 189C-0.200012 293.492 84.5077 378.2 189 378.2Z" fill="#F041F8"/>
<path d="M267.4 294.9V289.3H256.1V294.9H267.4ZM121.9 294.9V289.3H110.6V294.9H121.9ZM141.9 284.9H146.9V274.9H141.9V284.9Z" fill="black"/>
<path d="M136.9 275H131.9V304.9H136.9V289.9H141.9V284.9H136.9V275Z" fill="black"/>
<path d="M141.9 304.8H146.9V289.8H141.9V304.8ZM151.9 279.9V304.8H156.9V274.9H151.9V279.9ZM161.8 275V304.9H166.8V280H171.8V304.9H176.8V275H161.8V275ZM181.7 275V289.9H191.7V299.9H181.7V304.9H196.7V285H186.7V280H196.7V275H181.7V275ZM231.2 275V304.9H236.2V295H246.1V275.1C243.6 275 231.2 275 231.2 275V275ZM241.1 289.9H236.1V280H241.1V289.9V289.9ZM211.6 289.9H206.6V275H201.6V304.9H206.6V294.9H211.6V304.9H216.6V275H211.6V289.9V289.9ZM221.6 304.8H226.6V274.9H221.6V304.8ZM134.4 316.9V321.9H131.9V316.9H134.4ZM131.9 329.4H141.9V331.9H131.9V329.4ZM144.4 316.9H134.4V314.4H144.4V316.9ZM134.4 324.4V321.9H141.9V324.4H134.4ZM141.9 329.4V324.4H144.4V329.4H141.9ZM149.4 316.9V321.9H159.4V324.4H149.4V329.4H159.4V331.9H146.9V314.4H159.4V316.9H149.4ZM174.4 316.9V331.9H171.9V324.4H164.4V331.9H161.9V316.9H164.4V321.9H171.9V316.9H174.4ZM171.9 316.9H164.4V314.4H171.9V316.9ZM179.4 316.9V321.9H176.9V316.9H179.4ZM176.9 329.4H186.9V331.9H176.9V329.4ZM189.3 316.9H179.3V314.4H189.3V316.9ZM179.4 324.4V321.9H186.9V324.4H179.4ZM186.9 329.4V324.4H189.4V329.4H186.9ZM194.3 316.9V329.4H191.8V316.9H194.3ZM201.8 316.9H194.3V314.4H201.8V316.9ZM194.3 329.4H201.8V331.9H194.3V329.4ZM204.3 316.9V329.4H201.8V316.9H204.3ZM211.8 319.4V321.9H209.3V331.9H206.8V314.4H209.3V319.4H211.8ZM214.3 321.9V324.4H211.8V321.9H214.3ZM219.3 314.4V331.9H216.8V326.9H214.3V324.4H216.8V314.4H219.3ZM241.8 314.4V316.9H231.8V314.4H241.8ZM234.3 324.4V329.4H244.3V331.9H231.8V324.4H234.3ZM241.8 324.4H234.3V321.9H241.8V324.4ZM244.3 321.9H241.8V316.9H244.3V321.9ZM287.4 149.6H296.8V196.7H306.2V140.2H287.4V149.6ZM315.6 149.6V196.7H343.8V149.6H315.6V149.6ZM334.4 187.2H325V159H334.4V187.2V187.2ZM46.6 145.2V176.6H65.4V145.2H46.6ZM59.2 170.3H53V151.5H59.2V170.3V170.3ZM71.7 145.2V176.6H78V164H90.5V145.2H71.7V145.2ZM78 157.7V151.5H84.2V157.7H78V157.7ZM24.6 151.5H30.9V176.6H37.1V151.5H43.4V145.2H24.6V151.5ZM259 158.3V98.3H249V88.3H239V78.3H229V68.3H219V58.3H209V48.3H199V38.3H179V48.3H169V58.3H159V68.3H149V78.3H139V88.3H129V98.3H119V158.3H99V198.3H109V208.3H99V258.3H149V248.3H159V258.3H219V248.3H229V258.3H279V208.3H269V198.3H279V158.3H259V158.3Z" fill="black"/>
<path d="M139 168.3H149V178.3H139V168.3ZM259 168.3V178.3H249V188.3H239V198.3H229V208.3H219V218.3H209V228.3H199V238.3H179V228.3H169V218.3H159V208.3H149V198.3H139V188.3H129V178.3H119V168.3H109V198.3H119V208.3H129V218.3H139V228.3H149V238.3H159V248.3H219V238.3H229V228.3H239V218.3H249V208.3H259V198.3H269V168.3H259ZM109 238.3H119V248.3H109V238.3ZM259 238.3H269V248.3H259V238.3Z" fill="#7E18F8"/>
<path d="M139 108.3H149V98.3H159V88.3H169V78.3H179V68.3H199V78.3H209V88.3H219V98.3H229V108.3H239V168.3H229V178.3H249V98.3H239V88.3H229V78.3H219V68.3H209V58.3H199V48.3H179V58.3H169V68.3H159V78.3H149V88.3H139V98.3H129V168.3H139V108.3ZM209 178.3H199V168.3H179V178.3H169V198.3H179V208.3H199V198.3H209V178.3Z" fill="#7E18F8"/>
<path d="M169 168.3H179V158.3H199V148.3H189V138.3H199V148.3H209V158.3H219V168.3H229V108.3H219V98.3H209V88.3H199V78.3H179V88.3H169V98.3H159V108.3H149V168.3H159V178.3H169V168.3ZM169 208.3H179V218.3H169V208.3Z" fill="#7E18F8"/>
<path d="M209 168.3H219V178.3H209V168.3Z" fill="#7E18F8"/>
<path d="M199 158.3H209V168.3H199V158.3ZM159 188.3V178.3H149V198.3H159V188.3Z" fill="#7E18F8"/>
<path d="M229 178.3H219V198.3H229V178.3ZM159 198.3H169V208.3H159V198.3ZM199 208.3H209V218.3H199V208.3Z" fill="#7E18F8"/>
<path d="M189 218.3H179V228.3H199V218.3H189ZM209 198.3H219V208.3H209V198.3ZM139 228.3H129V218.3H119V208.3H109V228.3H119V238.3H129V248.3H149V238.3H139V228.3ZM249 218.3V228.3H239V238.3H229V248.3H249V238.3H259V228.3H269V208.3H259V218.3H249Z" fill="#7E18F8"/>
<path d="M149 168.3H159V178.3H149V168.3Z" fill="black"/>
<path d="M209 98.3V128.3H219V98.3H209ZM209 148.3V158.3H219V138.3H209V148.3ZM139 148.3H129V168.3H139V148.3Z" fill="#AC15F9"/>
<path d="M139 168.3H149V178.3H139V168.3Z" fill="#AC15F9"/>
<path d="M129 168.3H139V178.3H129V168.3ZM219 118.3V128.3H199V148.3H209V138.3H219V168.3H229V108.3H219V118.3ZM189 48.3H199V58.3H189V48.3Z" fill="#7E18F8"/>
<path d="M199 58.3H209V68.3H199V58.3Z" fill="#7E18F8"/>
<path d="M209 68.3H219V78.3H209V68.3Z" fill="#7E18F8"/>
<path d="M219 78.3H229V88.3H219V78.3Z" fill="#7E18F8"/>
<path d="M229 88.3H239V98.3H229V88.3Z" fill="#7E18F8"/>
<path d="M239 98.3H249V108.3H239V98.3ZM239 148.3V178.3H249V138.3H239V148.3ZM189 198.3H199V208.3H189V198.3Z" fill="#7E18F8"/>
<path d="M199 188.3H209V198.3H199V188.3Z" fill="#7E18F8"/>
<path d="M199 78.3H189V98.3H199V78.3ZM159 128.3V138.3H169V118.3H159V128.3Z" fill="#FA34F3"/>
<path d="M149 148.3V158.3H159V138.3H149V148.3ZM169 108.3H179V118.3H169V108.3Z" fill="#FA34F3"/>
<path d="M179 98.3H189V108.3H179V98.3ZM199 108.3V118.3H189V138.3H199V128.3H209V98.3H199V108.3ZM179 48.3H189V58.3H179V48.3Z" fill="#FA34F3"/>
<path d="M169 58.3H179V68.3H169V58.3Z" fill="#FA34F3"/>
<path d="M159 68.3H169V78.3H159V68.3Z" fill="#FA34F3"/>
<path d="M149 78.3H159V88.3H149V78.3Z" fill="#FA34F3"/>
<path d="M139 88.3H149V98.3H139V88.3Z" fill="#FA34F3"/>
<path d="M129 98.3H139V108.3H129V98.3ZM229 168.3H239V178.3H229V168.3ZM259 168.3H269V178.3H259V168.3ZM109 238.3H119V248.3H109V238.3ZM259 238.3H269V248.3H259V238.3ZM109 168.3H119V178.3H109V168.3ZM189 178.3H179V188.3H169V198.3H189V188.3H199V168.3H189V178.3Z" fill="#FA34F3"/>
<path d="M189 108.3H179V118.3H169V138.3H159V158.3H149V168.3H169V158.3H179V148.3H189V118.3H199V98.3H189V108.3Z" fill="#CF15F9"/>
<path d="M199 88.3H209V98.3H199V88.3ZM129 118.3V148.3H139V108.3H129V118.3ZM189 58.3H179V68.3H199V58.3H189Z" fill="#CF15F9"/>
<path d="M199 68.3H209V78.3H199V68.3Z" fill="#CF15F9"/>
<path d="M209 78.3H219V88.3H209V78.3Z" fill="#CF15F9"/>
<path d="M219 88.3H229V98.3H219V88.3Z" fill="#CF15F9"/>
<path d="M229 98.3H239V108.3H229V98.3Z" fill="#CF15F9"/>
<path d="M239 108.3V138.3H249V108.3H239ZM169 68.3H179V78.3H169V68.3Z" fill="#CF15F9"/>
<path d="M159 78.3H169V88.3H159V78.3Z" fill="#CF15F9"/>
<path d="M149 88.3H159V98.3H149V88.3Z" fill="#CF15F9"/>
<path d="M139 98.3H149V108.3H139V98.3ZM189 188.3H199V198.3H189V188.3Z" fill="#CF15F9"/>
<path d="M179 198.3H189V208.3H179V198.3ZM199 178.3H209V188.3H199V178.3Z" fill="#CF15F9"/>
<path d="M179 78.3V88.3H169V98.3H159V108.3H149V138.3H159V118.3H169V108.3H179V98.3H189V78.3H179Z" fill="#FAB4F3"/>
<path d="M179 168.3H189V178.3H179V168.3Z" fill="#DED7FF"/>
<path d="M169 178.3H179V188.3H169V178.3Z" fill="#DED7FF"/>
<path d="M199 228.3H209V238.3H199V228.3Z" fill="#E1E1E1"/>
<path d="M209 218.3H219V228.3H209V218.3Z" fill="#E1E1E1"/>
<path d="M219 208.3H229V218.3H219V208.3Z" fill="#E1E1E1"/>
<path d="M229 198.3H239V208.3H229V198.3Z" fill="#E1E1E1"/>
<path d="M239 188.3H249V198.3H239V188.3Z" fill="#E1E1E1"/>
<path d="M249 178.3H259V188.3H249V178.3ZM109 218.3H119V228.3H109V218.3ZM259 218.3H269V228.3H259V218.3ZM169 228.3H179V238.3H169V228.3Z" fill="#E1E1E1"/>
<path d="M159 218.3H169V228.3H159V218.3Z" fill="#E1E1E1"/>
<path d="M149 208.3H159V218.3H149V208.3Z" fill="#E1E1E1"/>
<path d="M139 198.3H149V208.3H139V198.3Z" fill="#E1E1E1"/>
<path d="M129 188.3H139V198.3H129V188.3ZM179 148.3H189V158.3H179V148.3Z" fill="#E1E1E1"/>
<path d="M169 158.3H179V168.3H169V158.3ZM149 178.3H159V188.3H149V178.3Z" fill="#E1E1E1"/>
<path d="M159 168.3H169V178.3H159V168.3ZM119 178.3H129V188.3H119V178.3Z" fill="#E1E1E1"/>
<path d="M209 228.3H219V238.3H209V228.3ZM179 218.3H189V228.3H179V218.3Z" fill="#AFAFAF"/>
<path d="M219 218.3H229V228.3H219V218.3ZM249 188.3H259V198.3H249V188.3Z" fill="#AFAFAF"/>
<path d="M259 178.3H269V188.3H259V178.3ZM229 208.3H239V218.3H229V208.3Z" fill="#AFAFAF"/>
<path d="M239 198.3H249V208.3H239V198.3ZM119 228.3H129V238.3H119V228.3Z" fill="#AFAFAF"/>
<path d="M129 238.3H139V248.3H129V238.3ZM249 228.3H259V238.3H249V228.3Z" fill="#AFAFAF"/>
<path d="M239 238.3H249V248.3H239V238.3ZM159 228.3H169V238.3H159V228.3ZM169 208.3H179V218.3H169V208.3ZM189 148.3H199V158.3H189V148.3ZM209 168.3H219V178.3H209V168.3Z" fill="#AFAFAF"/>
<path d="M199 158.3H209V168.3H199V158.3ZM149 188.3H159V198.3H149V188.3Z" fill="#AFAFAF"/>
<path d="M219 178.3H229V188.3H219V178.3ZM159 198.3H169V208.3H159V198.3ZM149 218.3H159V228.3H149V218.3ZM119 188.3H129V198.3H119V188.3Z" fill="#AFAFAF"/>
<path d="M109 178.3H119V188.3H109V178.3ZM139 208.3H149V218.3H139V208.3Z" fill="#AFAFAF"/>
<path d="M129 198.3H139V208.3H129V198.3Z" fill="#AFAFAF"/>
<path d="M199 238.3H159V248.3H219V238.3H199ZM199 208.3H209V218.3H199V208.3Z" fill="#7D7D7D"/>
<path d="M189 218.3H199V228.3H189V218.3ZM209 198.3H219V208.3H209V198.3ZM219 228.3H229V238.3H219V228.3ZM249 198.3H259V208.3H249V198.3Z" fill="#7D7D7D"/>
<path d="M259 188.3H269V198.3H259V188.3ZM229 218.3H239V228.3H229V218.3Z" fill="#7D7D7D"/>
<path d="M239 208.3H249V218.3H239V208.3ZM119 218.3H129V228.3H119V218.3Z" fill="#7D7D7D"/>
<path d="M109 208.3H119V218.3H109V208.3ZM139 238.3H149V248.3H139V238.3Z" fill="#7D7D7D"/>
<path d="M129 228.3H139V238.3H129V228.3ZM249 218.3H259V228.3H249V218.3Z" fill="#7D7D7D"/>
<path d="M259 208.3H269V218.3H259V208.3ZM229 238.3H239V248.3H229V238.3Z" fill="#7D7D7D"/>
<path d="M239 228.3H249V238.3H239V228.3ZM219 188.3H229V198.3H219V188.3ZM149 228.3H159V238.3H149V228.3ZM119 198.3H129V208.3H119V198.3Z" fill="#7D7D7D"/>
<path d="M109 188.3H119V198.3H109V188.3ZM139 218.3H149V228.3H139V218.3Z" fill="#7D7D7D"/>
<path d="M129 208.3H139V218.3H129V208.3Z" fill="#7D7D7D"/>
<path d="M199 38.3H179V48.3H199V38.3Z" fill="black"/>
<path d="M199 48.3H209V58.3H199V48.3Z" fill="black"/>
<path d="M209 58.3H219V68.3H209V58.3Z" fill="black"/>
<path d="M219 68.3H229V78.3H219V68.3Z" fill="black"/>
<path d="M229 78.3H239V88.3H229V78.3Z" fill="black"/>
<path d="M239 88.3H249V98.3H239V88.3ZM169 48.3H179V58.3H169V48.3Z" fill="black"/>
<path d="M159 58.3H169V68.3H159V58.3Z" fill="black"/>
<path d="M149 68.3H159V78.3H149V68.3Z" fill="black"/>
<path d="M139 78.3H149V88.3H139V78.3Z" fill="black"/>
<path d="M129 88.3H139V98.3H129V88.3ZM239 108.3H229V128.3V168.3H239V108.3ZM139 168.3H149V148.3V108.3H139V168.3ZM179 68.3V78.3H199V68.3H179Z" fill="black"/>
<path d="M169 78.3H179V88.3H169V78.3ZM199 78.3H209V88.3H199V78.3Z" fill="black"/>
<path d="M209 88.3H219V98.3H209V88.3Z" fill="black"/>
<path d="M219 98.3H229V108.3H219V98.3ZM159 88.3H169V98.3H159V88.3Z" fill="black"/>
<path d="M149 98.3H159V108.3H149V98.3ZM179 238.3H199V228.3H179V238.3ZM179 218.3H199V208.3H179V218.3Z" fill="black"/>
<path d="M199 198.3H209V208.3H199V198.3ZM199 148.3H209V158.3H199V148.3ZM219 168.3H229V178.3H219V168.3Z" fill="black"/>
<path d="M229 198.3H239V188.3H249V178.3H229V198.3ZM209 158.3H219V168.3H209V158.3ZM259 198.3H269V208.3H259V198.3Z" fill="black"/>
<path d="M259 178.3V168.3H269V198.3H279V158.3H259V98.3H249V178.3H259ZM219 198.3H229V208.3H219V198.3Z" fill="black"/>
<path d="M209 208.3H219V218.3H209V208.3Z" fill="black"/>
<path d="M199 218.3H209V228.3H199V218.3ZM119 208.3H129V218.3H119V208.3Z" fill="black"/>
<path d="M129 218.3H139V228.3H129V218.3Z" fill="black"/>
<path d="M139 228.3H149V238.3H139V228.3Z" fill="black"/>
<path d="M149 238.3H159V248.3H149V238.3Z" fill="black"/>
<path d="M129 238.3H119V248.3H109V238.3H119V228.3H109V208.3H99V258.3H149V248.3H129V238.3ZM249 208.3H259V218.3H249V208.3Z" fill="black"/>
<path d="M239 218.3H249V228.3H239V218.3Z" fill="black"/>
<path d="M229 228.3H239V238.3H229V228.3Z" fill="black"/>
<path d="M219 238.3H229V248.3H219V238.3Z" fill="black"/>
<path d="M159 248.3V258.3H219V248.3H199H159ZM259 228.3V238.3H269V248.3H259V238.3H249V248.3H229V258.3H279V208.3H269V228.3H259ZM169 198.3H179V208.3H169V198.3ZM189 158.3H179V168.3H199V158.3H189Z" fill="black"/>
<path d="M199 168.3H209V178.3H199V168.3ZM169 168.3H179V178.3H169V168.3Z" fill="black"/>
<path d="M209 188.3V198.3H219V178.3H209V188.3ZM169 178.3H159V198.3H169V178.3ZM129 178.3V188.3H139V198.3H149V178.3H129ZM109 198.3H119V208.3H109V198.3Z" fill="black"/>
<path d="M109 168.3H119V178.3H129V98.3H119V158.3H99V198.3H109V178.3V168.3ZM149 198.3H159V208.3H149V198.3Z" fill="black"/>
<path d="M159 208.3H169V218.3H159V208.3Z" fill="black"/>
<path d="M169 218.3H179V228.3H169V218.3ZM199 138.3H179V148.3H199V138.3Z" fill="black"/>
<path d="M169 148.3H179V158.3H169V148.3Z" fill="black"/>
<path d="M159 158.3H169V168.3H159V158.3Z" fill="black"/>
</g>
<defs>
<clipPath id="clip0_1_1188">
<rect width="378" height="378" fill="white"/>
</clipPath>
</defs>
</svg>
