<svg width="366" height="424" viewBox="0 0 366 424" fill="none" xmlns="http://www.w3.org/2000/svg">
<path d="M305.958 146.834L251.091 178.505L251.021 190.185L259.884 185.074C263.122 183.21 267.172 185.535 267.172 189.272V327.578C289.697 320.15 305.958 298.975 305.958 274.015V146.834Z" fill="white"/>
<path d="M305.958 116.241V127.555L267.172 149.862V94.9637L267.203 95.346C267.203 85.5227 259.237 77.5564 249.374 77.5564C239.528 77.5564 231.546 85.5227 231.546 95.346H231.577V327.578C220.318 323.864 210.627 316.71 203.746 307.37C199.571 301.698 196.442 295.214 194.609 288.207C194.086 286.179 193.665 284.111 193.361 281.996C192.994 279.383 192.807 276.73 192.807 274.014V116.241C192.807 85.078 218.141 59.8214 249.374 59.8214C264.995 59.8214 279.149 66.1336 289.385 76.347C299.622 86.5604 305.958 100.659 305.958 116.241Z" fill="white"/>
<path d="M172.926 146.834L118.059 178.505L117.981 190.185L122.928 187.337C127.906 184.466 134.14 188.047 134.14 193.79V327.578C156.666 320.15 172.926 298.975 172.926 274.015V146.834Z" fill="white"/>
<path d="M98.5138 95.346C98.5138 85.5227 106.496 77.5642 116.342 77.5642C126.197 77.5642 134.171 85.5227 134.171 95.346L134.14 94.9637V149.87L172.926 127.555V116.249C172.926 100.659 166.59 86.5604 156.353 76.347C146.117 66.1414 131.963 59.8214 116.342 59.8214C85.1092 59.8214 59.7746 85.078 59.7746 116.249V274.014C59.7746 286.498 63.8475 298.03 70.7137 307.37C77.5954 316.717 87.2861 323.864 98.545 327.578V95.346H98.5138Z" fill="white"/>
<path d="M182.897 0C62.092 0 0 59.9931 0 122.077V278.992C0 326.112 41.1892 375.173 103.086 375.173C49.3349 348.099 38.7704 301.198 38.7704 278.992V122.077C38.7704 80.576 73.2183 17.735 182.897 17.735C292.569 17.735 327.024 80.576 327.024 122.077V278.992C327.024 301.198 316.46 348.099 262.709 375.173C324.606 375.173 365.795 326.112 365.795 278.992V122.077C365.795 59.9931 303.703 0 182.897 0Z" fill="white"/>
<path d="M231.866 375.228C207.077 388.851 191.956 406.703 182.96 423.986C173.964 406.703 158.842 388.851 134.054 375.228C158.842 361.605 173.964 343.753 182.96 326.47C191.956 343.753 207.077 361.605 231.866 375.228Z" fill="#FFF200"/>
</svg>
