<svg width="636" height="636" viewBox="0 0 636 636" fill="none" xmlns="http://www.w3.org/2000/svg">
<path d="M206.031 442.712H116V484.175H206.031V442.712Z" fill="#FFC400"/>
<path d="M519.753 442.712H429.945V484.175H519.753V442.712Z" fill="#FFC400"/>
<path d="M250.823 442.712H206.031V484.175H250.823V442.712Z" fill="#FFC400"/>
<path d="M295.569 442.712H250.777V484.175H295.569V442.712Z" fill="#FFC400"/>
<path d="M340.362 442.712H295.57V484.175H340.362V442.712Z" fill="#FFED00"/>
<path d="M385.153 442.712H340.361V484.175H385.153V442.712Z" fill="#FFC400"/>
<path d="M429.944 442.712H385.152V484.175H429.944V442.712Z" fill="#FFED00"/>
<path d="M206.03 401.25H161.238V442.712H206.03V401.25Z" fill="#FFC400"/>
<path d="M161.194 401.25H116.402V442.712H161.194V401.25Z" fill="#FF8300"/>
<path d="M474.735 401.25H429.943V442.712H474.735V401.25Z" fill="#FFED00"/>
<path d="M519.348 401.25H474.557V442.712H519.348V401.25Z" fill="#FFC400"/>
<path d="M250.823 401.25H206.031V442.712H250.823V401.25Z" fill="#FF8300"/>
<path d="M295.569 401.25H250.777V442.712H295.569V401.25Z" fill="#FFED00"/>
<path d="M340.36 401.25H295.568V442.712H340.36V401.25Z" fill="#FF8300"/>
<path d="M385.153 401.25H340.361V442.712H385.153V401.25Z" fill="#FF8300"/>
<path d="M429.944 401.25H385.152V442.712H429.944V401.25Z" fill="#FFC400"/>
<path d="M205.985 359.787H116.223V401.25H205.985V359.787Z" fill="#FF6D00"/>
<path d="M474.78 359.787H429.988V401.25H474.78V359.787Z" fill="#FF6D00"/>
<path d="M519.571 359.787H474.779V401.25H519.571V359.787Z" fill="#FFC400"/>
<path d="M250.776 359.787H205.984V401.25H250.776V359.787Z" fill="#FFC400"/>
<path d="M295.569 359.787H250.777V401.25H295.569V359.787Z" fill="#FF6D00"/>
<path d="M340.36 359.787H295.568V401.25H340.36V359.787Z" fill="#FF6D00"/>
<path d="M385.151 359.787H340.359V401.25H385.151V359.787Z" fill="#FFED00"/>
<path d="M429.989 359.787H385.197V401.25H429.989V359.787Z" fill="#FF6D00"/>
<path d="M205.896 318.324H116.223V359.787H205.896V318.324Z" fill="#FF4800"/>
<path d="M519.124 318.324H429.898V359.787H519.124V318.324Z" fill="#FF4800"/>
<path d="M250.688 318.324H205.896V359.787H250.688V318.324Z" fill="#FFC400"/>
<path d="M295.479 318.324H250.688V359.787H295.479V318.324Z" fill="#FF6D00"/>
<path d="M340.27 318.324H295.479V359.787H340.27V318.324Z" fill="#FF4800"/>
<path d="M385.108 318.324H340.316V359.787H385.108V318.324Z" fill="#FF8300"/>
<path d="M429.899 318.324H385.107V359.787H429.899V318.324Z" fill="#FF4800"/>
<path d="M205.583 276.861H160.791V318.324H205.583V276.861Z" fill="#FF8300"/>
<path d="M166.031 276.861H116.223V318.324H166.031V276.861Z" fill="#FF0000"/>
<path d="M474.378 276.861H429.586V318.324H474.378V276.861Z" fill="#FF0000"/>
<path d="M519.124 276.861H474.332V318.324H519.124V276.861Z" fill="#FF0000"/>
<path d="M250.374 276.861H205.582V318.324H250.374V276.861Z" fill="#FF6D00"/>
<path d="M295.21 276.861H250.418V318.324H295.21V276.861Z" fill="#FF0000"/>
<path d="M340.003 276.861H295.211V318.324H340.003V276.861Z" fill="#FF0000"/>
<path d="M384.794 276.861H340.002V318.324H384.794V276.861Z" fill="#FF8300"/>
<path d="M429.585 276.861H384.793V318.324H429.585V276.861Z" fill="#FF0000"/>
<path d="M519.751 484.217H474.915H430.078H385.242H385.197H340.405H340.36H295.569H295.524H250.732H250.687H205.896H205.851H161.059H116.223V525.68H161.059H161.194V567.143H205.985H250.777V608.606H295.569H340.36H385.197V567.143H429.988H474.78V525.68H474.915H519.751H519.975V484.217H519.751Z" fill="#FFED00"/>
<path d="M205.987 235.356H161.195V276.819H205.987V235.356Z" fill="#FF6D00"/>
<path d="M250.778 235.356H205.986V276.819H250.778V235.356Z" fill="#FF0000"/>
<path d="M295.569 235.356H250.777V276.819H295.569V235.356Z" fill="#FF6D00"/>
<path d="M340.362 235.356H295.57V276.819H340.362V235.356Z" fill="#FF0000"/>
<path d="M385.153 235.356H340.361V276.819H385.153V235.356Z" fill="#FF0000"/>
<path d="M429.989 235.356H385.197V276.819H429.989V235.356Z" fill="#FF8300"/>
<path d="M474.782 235.356H429.99V276.819H474.782V235.356Z" fill="#FF0000"/>
<path d="M205.987 193.893H161.195V235.356H205.987V193.893Z" fill="#FF0000"/>
<path d="M250.778 193.893H205.986V235.356H250.778V193.893Z" fill="#FF0000"/>
<path d="M250.778 152.43H205.986V193.893H250.778V152.43Z" fill="#FF0000"/>
<path d="M295.571 193.893H250.779V235.356H295.571V193.893Z" fill="#FF0000"/>
<path d="M295.571 152.43H250.779V193.893H295.571V152.43Z" fill="#FF0000"/>
<path d="M295.571 110.967H250.779V152.43H295.571V110.967Z" fill="#FF0000"/>
<path d="M340.362 193.893H295.57V235.356H340.362V193.893Z" fill="#FF0000"/>
<path d="M385.153 193.893H340.361V235.356H385.153V193.893Z" fill="#FF0000"/>
<path d="M385.153 152.43H340.361V193.893H385.153V152.43Z" fill="#FF0000"/>
<path d="M429.991 193.893H385.199V235.356H429.991V193.893Z" fill="#FF0000"/>
<path d="M429.991 152.43H385.199V193.893H429.991V152.43Z" fill="#FF0000"/>
<path d="M474.782 193.893H429.99V235.356H474.782V193.893Z" fill="#FF0000"/>
<path d="M429.991 110.967H385.199V152.43H429.991V110.967Z" fill="#FF0000"/>
<path d="M429.991 69.5044H385.199V110.967H429.991V69.5044Z" fill="#FF0000"/>
<path d="M340.362 28H295.57V69.463H340.362V28Z" fill="#FF0000"/>
</svg>
