<svg xmlns="http://www.w3.org/2000/svg" width="26" height="22" shape-rendering="crispEdges" xmlns:v="https://vecta.io/nano"><style><![CDATA[.B{fill:#5f478a}.C{fill:#e88ef2}.D{fill:#2ceca1}.E{fill:#00cdf9}.F{fill:#ea57f0}.G{fill:#25c788}.H{fill:#8af3e2}.I{fill:#0098dc}.J{fill:#ccfaef}.K{fill:#e9b9ed}.L{fill:#0cf1ff}]]></style><g class="B"><path d="M9 0h1v1H9z"/><path d="M10 0h1v1h-1z"/><path d="M11 0h1v1h-1z"/><path d="M12 0h1v1h-1z"/><path d="M13 0h1v1h-1z"/><path d="M14 0h1v1h-1z"/><path d="M15 0h1v1h-1z"/><path d="M16 0h1v1h-1z"/><path d="M17 0h1v1h-1z"/><path d="M18 0h1v1h-1zM9 1h1v1H9z"/><path d="M10 1h1v1h-1z"/><path d="M11 1h1v1h-1z"/><path d="M12 1h1v1h-1z"/><path d="M13 1h1v1h-1z"/><path d="M14 1h1v1h-1z"/><path d="M15 1h1v1h-1z"/><path d="M16 1h1v1h-1z"/><path d="M17 1h1v1h-1z"/><path d="M18 1h1v1h-1zM7 2h1v1H7z"/><path d="M8 2h1v1H8z"/></g><g class="F"><path d="M9 2h1v1H9z"/><path d="M10 2h1v1h-1z"/></g><path d="M11 2h1v1h-1z" class="C"/><g class="K"><path d="M12 2h1v1h-1z"/><path d="M13 2h1v1h-1z"/><path d="M14 2h1v1h-1z"/><path d="M15 2h1v1h-1z"/></g><path d="M16 2h1v1h-1z" class="C"/><g class="F"><path d="M17 2h1v1h-1z"/><path d="M18 2h1v1h-1z"/></g><g class="B"><path d="M19 2h1v1h-1z"/><path d="M20 2h1v1h-1zM7 3h1v1H7z"/><path d="M8 3h1v1H8z"/></g><path d="M9 3h1v1H9z" class="C"/><g fill="#fdf4f5"><path d="M10 3h1v1h-1z"/><path d="M11 3h1v1h-1z"/></g><g class="J"><path d="M12 3h1v1h-1z"/><path d="M13 3h1v1h-1z"/><path d="M14 3h1v1h-1z"/></g><g class="H"><path d="M15 3h1v1h-1z"/><path d="M16 3h1v1h-1z"/></g><g class="C"><path d="M17 3h1v1h-1z"/><path d="M18 3h1v1h-1z"/></g><g class="B"><path d="M19 3h1v1h-1z"/><path d="M20 3h1v1h-1zM5 4h1v1H5z"/><path d="M6 4h1v1H6z"/></g><path d="M7 4h1v1H7z" class="F"/><path d="M8 4h1v1H8z" class="K"/><path d="M9 4h1v1H9z" class="J"/><g class="H"><path d="M10 4h1v1h-1z"/><path d="M11 4h1v1h-1z"/></g><g class="J"><path d="M12 4h1v1h-1z"/><path d="M13 4h1v1h-1z"/></g><g class="H"><path d="M14 4h1v1h-1z"/><path d="M15 4h1v1h-1z"/><path d="M16 4h1v1h-1z"/><path d="M17 4h1v1h-1z"/></g><g class="C"><path d="M18 4h1v1h-1z"/><path d="M19 4h1v1h-1z"/></g><path d="M20 4h1v1h-1z" class="F"/><g class="B"><path d="M21 4h1v1h-1z"/><path d="M22 4h1v1h-1zM5 5h1v1H5z"/><path d="M6 5h1v1H6z"/></g><path d="M7 5h1v1H7z" class="F"/><path d="M8 5h1v1H8z" class="K"/><g class="H"><path d="M9 5h1v1H9z"/><path d="M10 5h1v1h-1z"/><path d="M11 5h1v1h-1z"/><path d="M12 5h1v1h-1z"/><path d="M13 5h1v1h-1z"/><path d="M14 5h1v1h-1z"/><path d="M15 5h1v1h-1z"/><path d="M16 5h1v1h-1z"/></g><g class="D"><path d="M17 5h1v1h-1z"/><path d="M18 5h1v1h-1z"/></g><g class="C"><path d="M19 5h1v1h-1z"/><path d="M20 5h1v1h-1z"/></g><g class="B"><path d="M21 5h1v1h-1z"/><path d="M22 5h1v1h-1zM3 6h1v1H3z"/><path d="M4 6h1v1H4z"/></g><g class="C"><path d="M5 6h1v1H5z"/><path d="M6 6h1v1H6z"/></g><g class="K"><path d="M7 6h1v1H7z"/><path d="M8 6h1v1H8z"/><path d="M9 6h1v1H9z"/></g><g class="H"><path d="M10 6h1v1h-1z"/><path d="M11 6h1v1h-1z"/><path d="M12 6h1v1h-1z"/><path d="M13 6h1v1h-1z"/><path d="M14 6h1v1h-1z"/><path d="M15 6h1v1h-1z"/></g><g class="D"><path d="M16 6h1v1h-1z"/><path d="M17 6h1v1h-1z"/><path d="M18 6h1v1h-1z"/></g><g class="C"><path d="M19 6h1v1h-1z"/><path d="M20 6h1v1h-1z"/></g><path d="M21 6h1v1h-1z" class="F"/><path d="M22 6h1v1h-1z" class="C"/><g class="B"><path d="M23 6h1v1h-1z"/><path d="M24 6h1v1h-1zM3 7h1v1H3z"/><path d="M4 7h1v1H4z"/></g><g class="C"><path d="M5 7h1v1H5z"/><path d="M6 7h1v1H6z"/></g><g class="K"><path d="M7 7h1v1H7z"/><path d="M8 7h1v1H8z"/><path d="M9 7h1v1H9z"/><path d="M10 7h1v1h-1z"/></g><g class="D"><path d="M11 7h1v1h-1z"/><path d="M12 7h1v1h-1z"/><path d="M13 7h1v1h-1z"/><path d="M14 7h1v1h-1z"/><path d="M15 7h1v1h-1z"/><path d="M16 7h1v1h-1z"/><path d="M17 7h1v1h-1z"/></g><g class="C"><path d="M18 7h1v1h-1z"/><path d="M19 7h1v1h-1z"/><path d="M20 7h1v1h-1z"/><path d="M21 7h1v1h-1z"/></g><path d="M22 7h1v1h-1z" class="F"/><g class="B"><path d="M23 7h1v1h-1z"/><path d="M24 7h1v1h-1zM3 8h1v1H3z"/><path d="M4 8h1v1H4z"/></g><path d="M5 8h1v1H5z" class="I"/><path d="M6 8h1v1H6z" class="C"/><g class="K"><path d="M7 8h1v1H7z"/><path d="M8 8h1v1H8z"/></g><g class="C"><path d="M9 8h1v1H9z"/><path d="M10 8h1v1h-1z"/></g><g class="D"><path d="M11 8h1v1h-1z"/><path d="M12 8h1v1h-1z"/><path d="M13 8h1v1h-1z"/><path d="M14 8h1v1h-1z"/><path d="M15 8h1v1h-1z"/><path d="M16 8h1v1h-1z"/></g><g class="C"><path d="M17 8h1v1h-1z"/><path d="M18 8h1v1h-1z"/><path d="M19 8h1v1h-1z"/><path d="M20 8h1v1h-1z"/><path d="M21 8h1v1h-1z"/><path d="M22 8h1v1h-1z"/></g><g class="B"><path d="M23 8h1v1h-1z"/><path d="M24 8h1v1h-1zM3 9h1v1H3z"/><path d="M4 9h1v1H4z"/></g><path d="M5 9h1v1H5z" class="I"/><g class="C"><path d="M6 9h1v1H6z"/><path d="M7 9h1v1H7z"/><path d="M8 9h1v1H8z"/><path d="M9 9h1v1H9z"/><path d="M10 9h1v1h-1z"/></g><path d="M11 9h1v1h-1z" class="E"/><g class="D"><path d="M12 9h1v1h-1z"/><path d="M13 9h1v1h-1z"/><path d="M14 9h1v1h-1z"/><path d="M15 9h1v1h-1z"/></g><path d="M16 9h1v1h-1z" class="G"/><g class="B"><path d="M17 9h1v1h-1z"/><path d="M18 9h1v1h-1z"/><path d="M19 9h1v1h-1z"/><path d="M20 9h1v1h-1z"/><path d="M21 9h1v1h-1z"/><path d="M22 9h1v1h-1z"/><path d="M23 9h1v1h-1z"/><path d="M24 9h1v1h-1zM3 10h1v1H3z"/><path d="M4 10h1v1H4z"/></g><path d="M5 10h1v1H5z" class="I"/><path d="M6 10h1v1H6z" class="E"/><g class="C"><path d="M7 10h1v1H7z"/><path d="M8 10h1v1H8z"/><path d="M9 10h1v1H9z"/></g><g class="E"><path d="M10 10h1v1h-1z"/><path d="M11 10h1v1h-1z"/><path d="M12 10h1v1h-1z"/></g><g class="D"><path d="M13 10h1v1h-1z"/><path d="M14 10h1v1h-1z"/></g><path d="M15 10h1v1h-1z" class="G"/><path d="M16 10h1v1h-1z" class="C"/><g class="B"><path d="M17 10h1v1h-1z"/><path d="M18 10h1v1h-1z"/><path d="M19 10h1v1h-1z"/><path d="M20 10h1v1h-1z"/><path d="M21 10h1v1h-1z"/><path d="M22 10h1v1h-1z"/><path d="M23 10h1v1h-1z"/><path d="M24 10h1v1h-1zM3 11h1v1H3z"/><path d="M4 11h1v1H4z"/></g><g class="E"><path d="M5 11h1v1H5z"/><path d="M6 11h1v1H6z"/><path d="M7 11h1v1H7z"/><path d="M8 11h1v1H8z"/><path d="M9 11h1v1H9z"/><path d="M10 11h1v1h-1z"/><path d="M11 11h1v1h-1z"/><path d="M12 11h1v1h-1z"/><path d="M13 11h1v1h-1z"/></g><path d="M14 11h1v1h-1z" class="G"/><g class="B"><path d="M15 11h1v1h-1z"/><path d="M16 11h1v1h-1z"/></g><path d="M17 11h1v1h-1z" class="F"/><g class="C"><path d="M18 11h1v1h-1z"/><path d="M19 11h1v1h-1z"/><path d="M20 11h1v1h-1z"/></g><path d="M21 11h1v1h-1z" class="D"/><path d="M22 11h1v1h-1z" class="G"/><g class="B"><path d="M23 11h1v1h-1z"/><path d="M24 11h1v1h-1zM2 12h1v1H2z"/><path d="M3 12h1v1H3z"/><path d="M4 12h1v1H4z"/><path d="M5 12h1v1H5z"/><path d="M6 12h1v1H6z"/><path d="M7 12h1v1H7z"/></g><g class="E"><path d="M8 12h1v1H8z"/><path d="M9 12h1v1H9z"/><path d="M10 12h1v1h-1z"/><path d="M11 12h1v1h-1z"/><path d="M12 12h1v1h-1z"/><path d="M13 12h1v1h-1z"/></g><path d="M14 12h1v1h-1z" class="G"/><g class="B"><path d="M15 12h1v1h-1z"/><path d="M16 12h1v1h-1z"/></g><path d="M17 12h1v1h-1z" class="C"/><g class="L"><path d="M18 12h1v1h-1z"/><path d="M19 12h1v1h-1z"/><path d="M20 12h1v1h-1z"/></g><path d="M21 12h1v1h-1z" class="E"/><path d="M22 12h1v1h-1z" class="D"/><g class="B"><path d="M23 12h1v1h-1z"/><path d="M24 12h1v1h-1zM2 13h1v1H2z"/><path d="M3 13h1v1H3z"/><path d="M4 13h1v1H4z"/><path d="M5 13h1v1H5z"/><path d="M6 13h1v1H6z"/><path d="M7 13h1v1H7z"/></g><g class="E"><path d="M8 13h1v1H8z"/><path d="M9 13h1v1H9z"/><path d="M10 13h1v1h-1z"/><path d="M11 13h1v1h-1z"/><path d="M12 13h1v1h-1z"/></g><g class="B"><path d="M13 13h1v1h-1z"/><path d="M14 13h1v1h-1z"/></g><path d="M15 13h1v1h-1z" class="F"/><path d="M16 13h1v1h-1z" class="E"/><path d="M17 13h1v1h-1z" class="L"/><g class="J"><path d="M18 13h1v1h-1z"/><path d="M19 13h1v1h-1z"/><path d="M20 13h1v1h-1z"/></g><path d="M21 13h1v1h-1z" class="L"/><path d="M22 13h1v1h-1z" class="E"/><path d="M23 13h1v1h-1z" class="D"/><path d="M24 13h1v1h-1z" class="G"/><g class="B"><path d="M25 13h1v1h-1z"/><path d="M26 13h1v1h-1zM0 14h1v1H0z"/><path d="M1 14h1v1H1z"/></g><path d="M2 14h1v1H2z" class="I"/><path d="M3 14h1v1H3z" class="E"/><g class="D"><path d="M4 14h1v1H4z"/><path d="M5 14h1v1H5z"/></g><path d="M6 14h1v1H6z" class="G"/><path d="M7 14h1v1H7z" class="F"/><g class="B"><path d="M8 14h1v1H8z"/><path d="M9 14h1v1H9z"/></g><g class="E"><path d="M10 14h1v1h-1z"/><path d="M11 14h1v1h-1z"/></g><path d="M12 14h1v1h-1z" class="I"/><g class="B"><path d="M13 14h1v1h-1z"/><path d="M14 14h1v1h-1z"/></g><path d="M15 14h1v1h-1z" class="C"/><path d="M16 14h1v1h-1z" class="E"/><path d="M17 14h1v1h-1z" class="L"/><g class="J"><path d="M18 14h1v1h-1z"/><path d="M19 14h1v1h-1z"/></g><g class="L"><path d="M20 14h1v1h-1z"/><path d="M21 14h1v1h-1z"/></g><g class="E"><path d="M22 14h1v1h-1z"/><path d="M23 14h1v1h-1z"/></g><path d="M24 14h1v1h-1z" class="D"/><g class="B"><path d="M25 14h1v1h-1z"/><path d="M26 14h1v1h-1zM0 15h1v1H0z"/><path d="M1 15h1v1H1z"/></g><path d="M2 15h1v1H2z" class="E"/><path d="M3 15h1v1H3z" class="H"/><g class="J"><path d="M4 15h1v1H4z"/><path d="M5 15h1v1H5z"/></g><path d="M6 15h1v1H6z" class="D"/><path d="M7 15h1v1H7z" class="C"/><g class="B"><path d="M8 15h1v1H8z"/><path d="M9 15h1v1H9z"/></g><g class="I"><path d="M10 15h1v1h-1z"/><path d="M11 15h1v1h-1z"/><path d="M12 15h1v1h-1z"/></g><g class="B"><path d="M13 15h1v1h-1z"/><path d="M14 15h1v1h-1z"/></g><path d="M15 15h1v1h-1z" class="C"/><g class="E"><path d="M16 15h1v1h-1z"/><path d="M17 15h1v1h-1z"/></g><g class="L"><path d="M18 15h1v1h-1z"/><path d="M19 15h1v1h-1z"/><path d="M20 15h1v1h-1z"/></g><g class="E"><path d="M21 15h1v1h-1z"/><path d="M22 15h1v1h-1z"/><path d="M23 15h1v1h-1z"/></g><path d="M24 15h1v1h-1z" class="D"/><g class="B"><path d="M25 15h1v1h-1z"/><path d="M26 15h1v1h-1zM0 16h1v1H0z"/><path d="M1 16h1v1H1z"/></g><path d="M2 16h1v1H2z" class="D"/><path d="M3 16h1v1H3z" class="H"/><g class="J"><path d="M4 16h1v1H4z"/><path d="M5 16h1v1H5z"/></g><path d="M6 16h1v1H6z" class="D"/><path d="M7 16h1v1H7z" class="C"/><g class="B"><path d="M8 16h1v1H8z"/><path d="M9 16h1v1H9z"/></g><g class="I"><path d="M10 16h1v1h-1z"/><path d="M11 16h1v1h-1z"/><path d="M12 16h1v1h-1z"/></g><g class="B"><path d="M13 16h1v1h-1z"/><path d="M14 16h1v1h-1z"/></g><g class="C"><path d="M15 16h1v1h-1z"/><path d="M16 16h1v1h-1z"/></g><g class="E"><path d="M17 16h1v1h-1z"/><path d="M18 16h1v1h-1z"/><path d="M19 16h1v1h-1z"/><path d="M20 16h1v1h-1z"/><path d="M21 16h1v1h-1z"/><path d="M22 16h1v1h-1z"/></g><g class="D"><path d="M23 16h1v1h-1z"/><path d="M24 16h1v1h-1z"/></g><g class="B"><path d="M25 16h1v1h-1z"/><path d="M26 16h1v1h-1zM0 17h1v1H0z"/><path d="M1 17h1v1H1z"/></g><g class="D"><path d="M2 17h1v1H2z"/><path d="M3 17h1v1H3z"/></g><g class="H"><path d="M4 17h1v1H4z"/><path d="M5 17h1v1H5z"/></g><g class="C"><path d="M6 17h1v1H6z"/><path d="M7 17h1v1H7z"/></g><g class="B"><path d="M8 17h1v1H8z"/><path d="M9 17h1v1H9z"/></g><g class="I"><path d="M10 17h1v1h-1z"/><path d="M11 17h1v1h-1z"/><path d="M12 17h1v1h-1z"/></g><g class="B"><path d="M13 17h1v1h-1z"/><path d="M14 17h1v1h-1z"/></g><path d="M15 17h1v1h-1z" class="F"/><g class="C"><path d="M16 17h1v1h-1z"/><path d="M17 17h1v1h-1z"/><path d="M18 17h1v1h-1z"/></g><g class="E"><path d="M19 17h1v1h-1z"/><path d="M20 17h1v1h-1z"/></g><path d="M21 17h1v1h-1z" class="H"/><g class="D"><path d="M22 17h1v1h-1z"/><path d="M23 17h1v1h-1z"/></g><path d="M24 17h1v1h-1z" class="G"/><g class="B"><path d="M25 17h1v1h-1z"/><path d="M26 17h1v1h-1zM0 18h1v1H0z"/><path d="M1 18h1v1H1z"/></g><path d="M2 18h1v1H2z" class="I"/><g class="E"><path d="M3 18h1v1H3z"/><path d="M4 18h1v1H4z"/></g><g class="C"><path d="M5 18h1v1H5z"/><path d="M6 18h1v1H6z"/></g><path d="M7 18h1v1H7z" class="F"/><g class="B"><path d="M8 18h1v1H8z"/><path d="M9 18h1v1H9z"/><path d="M10 18h1v1h-1z"/><path d="M11 18h1v1h-1z"/><path d="M12 18h1v1h-1z"/><path d="M13 18h1v1h-1z"/><path d="M14 18h1v1h-1z"/></g><path fill="#af44dc" d="M15 18h1v1h-1z"/><path d="M16 18h1v1h-1z" class="F"/><g class="C"><path d="M17 18h1v1h-1z"/><path d="M18 18h1v1h-1z"/><path d="M19 18h1v1h-1z"/></g><path d="M20 18h1v1h-1z" class="H"/><g class="D"><path d="M21 18h1v1h-1z"/><path d="M22 18h1v1h-1z"/></g><g class="G"><path d="M23 18h1v1h-1z"/><path d="M24 18h1v1h-1z"/></g><g class="B"><path d="M25 18h1v1h-1z"/><path d="M26 18h1v1h-1zM0 19h1v1H0z"/><path d="M1 19h1v1H1z"/></g><g class="I"><path d="M2 19h1v1H2z"/><path d="M3 19h1v1H3z"/></g><g class="E"><path d="M4 19h1v1H4z"/><path d="M5 19h1v1H5z"/></g><g class="F"><path d="M6 19h1v1H6z"/><path d="M7 19h1v1H7z"/></g><g class="B"><path d="M8 19h1v1H8z"/><path d="M9 19h1v1H9z"/><path d="M10 19h1v1h-1z"/><path d="M11 19h1v1h-1z"/><path d="M12 19h1v1h-1z"/><path d="M13 19h1v1h-1z"/><path d="M14 19h1v1h-1z"/><path d="M15 19h1v1h-1z"/><path d="M16 19h1v1h-1z"/></g><path d="M17 19h1v1h-1z" class="F"/><g class="C"><path d="M18 19h1v1h-1z"/><path d="M19 19h1v1h-1z"/></g><g class="D"><path d="M20 19h1v1h-1z"/><path d="M21 19h1v1h-1z"/></g><path d="M22 19h1v1h-1z" class="G"/><g class="B"><path d="M23 19h1v1h-1z"/><path d="M24 19h1v1h-1zM2 20h1v1H2z"/><path d="M3 20h1v1H3z"/><path d="M4 20h1v1H4z"/><path d="M5 20h1v1H5z"/><path d="M6 20h1v1H6z"/><path d="M7 20h1v1H7zm8 0h1v1h-1z"/><path d="M16 20h1v1h-1z"/></g><g fill="#af44dc"><path d="M17 20h1v1h-1z"/><path d="M18 20h1v1h-1z"/></g><g class="G"><path d="M19 20h1v1h-1z"/><path d="M20 20h1v1h-1z"/><path d="M21 20h1v1h-1z"/><path d="M22 20h1v1h-1z"/></g><g class="B"><path d="M23 20h1v1h-1z"/><path d="M24 20h1v1h-1zM2 21h1v1H2z"/><path d="M3 21h1v1H3z"/><path d="M4 21h1v1H4z"/><path d="M5 21h1v1H5z"/><path d="M6 21h1v1H6z"/><path d="M7 21h1v1H7zm10 0h1v1h-1z"/><path d="M18 21h1v1h-1z"/><path d="M19 21h1v1h-1z"/><path d="M20 21h1v1h-1z"/><path d="M21 21h1v1h-1z"/><path d="M22 21h1v1h-1z"/></g></svg>