<svg width="1873" height="1873" viewBox="0 0 1873 1873" fill="none" xmlns="http://www.w3.org/2000/svg">
<path d="M1824.5 576.259H1776.41C1776.41 516.042 1776.41 444.29 1776.41 384.073C1752.47 384.073 1704.32 384.073 1680.39 384.073C1680.39 360.136 1680.39 311.977 1680.39 288.055C1656.46 288.055 1608.3 288.055 1584.38 288.055C1584.38 264.117 1584.38 215.959 1584.38 192.036C1560.44 192.036 1512.28 192.036 1488.36 192.036C1488.36 168.099 1488.36 119.94 1488.36 96.0182C1428.18 96.0182 1356.49 96.0182 1296.32 96.0182C1296.32 72.081 1296.32 23.9222 1296.32 0C1057.29 0 815.286 0 576.259 0C576.259 23.9371 576.259 72.096 576.259 96.0182C516.087 96.0182 444.395 96.0182 384.223 96.0182C384.223 119.955 384.223 168.114 384.223 192.036C360.286 192.036 312.127 192.036 288.204 192.036C288.204 215.974 288.204 264.132 288.204 288.055C264.267 288.055 216.108 288.055 192.186 288.055C192.186 311.992 192.186 360.151 192.186 384.073C168.219 384.073 119.985 384.073 96.0182 384.073C96.0182 444.29 96.0182 516.042 96.0182 576.259C72.0811 576.259 23.9222 576.259 0 576.259C0 628.732 0 692.994 0 745.377C623.669 745.377 1248.76 745.377 1872.43 745.377C1872.43 693.024 1872.43 628.702 1872.43 576.259H1824.5Z" fill="#FA34F3"/>
<path d="M1824.5 720.211C1216.72 720.211 607.776 720.211 0 720.211C0 848.42 0 988.163 0 1116.72C623.669 1116.72 1248.76 1116.72 1872.43 1116.72C1872.43 988.043 1872.43 848.525 1872.43 720.211H1824.5Z" fill="#CF15F9"/>
<path d="M1824.5 1008.27C1216.72 1008.27 607.776 1008.27 0 1008.27C0 1101.77 0 1202.82 0 1296.32C23.9371 1296.32 72.0961 1296.32 96.0182 1296.32V1340.81C655.605 1340.81 1216.82 1340.81 1776.41 1340.81V1296.32C1800.35 1296.32 1848.51 1296.32 1872.43 1296.32C1872.43 1202.82 1872.43 1101.77 1872.43 1008.27H1824.5Z" fill="#AC15F9"/>
<path d="M1728.48 1296.32C1184.77 1296.32 639.727 1296.32 96.0182 1296.32C96.0182 1356.49 96.0182 1428.18 96.0182 1488.36C119.985 1488.36 168.219 1488.36 192.186 1488.36C192.186 1512.29 192.186 1560.45 192.186 1584.38C216.123 1584.38 264.282 1584.38 288.204 1584.38L289.852 1646.54C720.616 1646.54 1153.61 1646.54 1584.38 1646.54V1584.38C1608.31 1584.38 1656.47 1584.38 1680.39 1584.38C1680.39 1560.44 1680.39 1512.28 1680.39 1488.36C1704.33 1488.36 1752.49 1488.36 1776.41 1488.36C1776.41 1428.18 1776.41 1356.49 1776.41 1296.32H1728.48Z" fill="#8F17F9"/>
<path d="M912.248 1872.43C802.404 1872.43 686.103 1872.43 576.259 1872.43C576.259 1848.49 576.259 1800.33 576.259 1776.41C516.087 1776.41 444.395 1776.41 384.223 1776.41C384.223 1752.47 384.223 1704.32 384.223 1680.39C360.286 1680.39 312.127 1680.39 288.204 1680.39C288.204 1656.46 288.204 1608.3 288.204 1584.38C719.702 1584.38 1152.88 1584.38 1584.38 1584.38C1584.38 1608.31 1584.38 1656.47 1584.38 1680.39C1560.44 1680.39 1512.28 1680.39 1488.36 1680.39C1488.36 1704.33 1488.36 1752.49 1488.36 1776.41C1428.18 1776.41 1356.49 1776.41 1296.32 1776.41C1296.32 1800.35 1296.32 1848.51 1296.32 1872.43C1236.15 1872.43 1164.46 1872.43 1104.28 1872.43C1044.11 1872.43 972.405 1872.43 912.248 1872.43Z" fill="#7E18F8"/>
<path d="M1215.13 1083.76V1116.72C1231.59 1116.72 1264.73 1116.72 1281.19 1116.72C1281.19 1087.31 1281.19 1047.11 1281.19 1017.7C1264.73 1017.7 1231.59 1017.7 1215.13 1017.7C1215.13 1034.17 1215.13 1067.3 1215.13 1083.76Z" fill="white"/>
<path d="M1149.07 1116.72C1096.09 1116.72 1036.83 1116.72 983.85 1116.72C983.85 1133.22 983.85 1166.43 983.85 1182.93C1025.24 1182.93 1074.58 1182.93 1115.97 1182.93C1115.97 1199.39 1115.97 1232.52 1115.97 1248.99C1132.43 1248.99 1165.57 1248.99 1182.03 1248.99C1182.03 1232.52 1182.03 1199.39 1182.03 1182.93H1215.13C1215.13 1166.42 1215.13 1133.21 1215.13 1116.72C1198.67 1116.72 1165.54 1116.72 1149.07 1116.72Z" fill="white"/>
<path d="M1049.91 1017.7C1102.89 1017.7 1162.15 1017.7 1215.13 1017.7C1215.13 1001.2 1215.13 967.986 1215.13 951.494C1162.15 951.494 1102.89 951.494 1049.91 951.494C1049.91 968.001 1049.91 1001.21 1049.91 1017.7Z" fill="white"/>
<path d="M983.85 852.33C983.85 881.78 983.85 922.045 983.85 951.494C1000.31 951.494 1033.45 951.494 1049.91 951.494C1049.91 922.045 1049.91 881.78 1049.91 852.33C1033.45 852.33 1000.31 852.33 983.85 852.33Z" fill="white"/>
<path d="M1215.13 786.271H1182.03C1182.03 769.808 1182.03 736.674 1182.03 720.211C1165.57 720.211 1132.43 720.211 1115.97 720.211C1115.97 736.674 1115.97 769.808 1115.97 786.271C1099.51 786.271 1066.37 786.271 1049.91 786.271C1049.91 802.733 1049.91 835.868 1049.91 852.33C1125.53 852.33 1205.58 852.33 1281.19 852.33C1281.19 835.868 1281.19 802.733 1281.19 786.271C1264.73 786.271 1231.59 786.271 1215.13 786.271Z" fill="white"/>
<path d="M1644.74 786.271C1546.78 786.271 1445.37 786.271 1347.4 786.271C1347.4 802.733 1347.4 835.868 1347.4 852.33C1388.79 852.33 1438.13 852.33 1479.52 852.33C1479.52 961.5 1479.52 1073.76 1479.52 1182.93C1495.98 1182.93 1529.12 1182.93 1545.58 1182.93C1545.58 1073.76 1545.58 961.5 1545.58 852.33C1587.03 852.33 1636.41 852.33 1677.85 852.33C1677.85 835.868 1677.85 802.733 1677.85 786.271H1644.74Z" fill="white"/>
<path d="M851.581 786.271C851.581 839.253 851.581 898.512 851.581 951.494C798.599 951.494 739.34 951.494 686.358 951.494C686.358 898.512 686.358 839.253 686.358 786.271C669.895 786.271 636.761 786.271 620.299 786.271C620.299 917.626 620.299 1051.57 620.299 1182.93C636.761 1182.93 669.895 1182.93 686.358 1182.93C686.358 1129.94 686.358 1070.69 686.358 1017.7C739.34 1017.7 798.599 1017.7 851.581 1017.7C851.581 1070.69 851.581 1129.94 851.581 1182.93C868.044 1182.93 901.178 1182.93 917.64 1182.93C917.64 1051.57 917.64 917.626 917.64 786.271C901.178 786.271 868.044 786.271 851.581 786.271Z" fill="white"/>
<path d="M488.03 786.271C423.708 786.271 354.174 786.271 289.852 786.271C289.852 802.733 289.852 835.868 289.852 852.33C376.688 852.33 467.404 852.33 554.239 852.33C554.239 835.868 554.239 802.733 554.239 786.271C537.732 786.271 504.523 786.271 488.03 786.271Z" fill="white"/>
<path d="M554.239 1116.72C554.239 1063.73 554.239 1004.48 554.239 951.494C489.858 951.494 420.293 951.494 355.911 951.494C355.911 968.001 355.911 1001.21 355.911 1017.7C397.3 1017.7 446.642 1017.7 488.03 1017.7C488.03 1047.11 488.03 1087.31 488.03 1116.72C504.538 1116.72 537.747 1116.72 554.239 1116.72Z" fill="white"/>
<path d="M289.852 1182.93C354.174 1182.93 423.708 1182.93 488.03 1182.93C488.03 1166.42 488.03 1133.21 488.03 1116.72C423.708 1116.72 354.174 1116.72 289.852 1116.72C289.852 1133.22 289.852 1166.43 289.852 1182.93Z" fill="white"/>
<path d="M223.643 852.33C223.643 939.166 223.643 1029.88 223.643 1116.72C240.15 1116.72 273.36 1116.72 289.852 1116.72C289.852 1029.88 289.852 939.166 289.852 852.33C273.345 852.33 240.135 852.33 223.643 852.33Z" fill="white"/>
</svg>
