<svg width="52" height="52" viewBox="0 0 52 52" fill="none" xmlns="http://www.w3.org/2000/svg">
<path d="M0 35.7H3.2V42.3H6.5V45.5H9.7V48.7H16.2V52H35.7V48.7H42.2V45.5H45.4V42.3H48.7V35.7H52V16.3H48.7V9.7H45.4V6.5H42.2V3.3H35.7V0H16.2V3.3H9.7V6.5H6.5V9.7H3.2V16.3H0V35.7Z" fill="#C77D00"/>
<path d="M3.2 35.7H6.5V42.2H9.7V45.5H16.2V48.7H35.7V45.5H42.2V42.2H45.4V35.7H48.7V16.3H45.4V9.79999H42.2V6.49999H35.7V3.29999H16.2V6.49999H9.7V9.79999H6.5V16.3H3.2V35.7Z" fill="#FFC800"/>
<path d="M16.2 39H13V42.2H16.2V39Z" fill="#C77D00"/>
<path d="M16.2 9.79999H13V13H16.2V9.79999Z" fill="#C77D00"/>
<path d="M12.9 13H9.7V16.2H12.9V13Z" fill="#C77D00"/>
<path d="M9.7 16.3H6.5V35.8H9.7V16.3Z" fill="#C77D00"/>
<path d="M12.9 35.7H9.7V38.9H12.9V35.7Z" fill="#C77D00"/>
<path d="M35.7 6.5H16.2V9.7H35.7V6.5Z" fill="#C77D00"/>
<path d="M42.1 13H38.9V16.2H42.1V13Z" fill="#FFFF00"/>
<path d="M42.1 35.7H38.9V38.9H42.1V35.7Z" fill="#FFFF00"/>
<path d="M45.4 16.3H42.2V35.8H45.4V16.3Z" fill="#FFFF00"/>
<path d="M35.7 42.2H16.2V45.4H35.7V42.2Z" fill="#FFFF00"/>
<path d="M38.9 39H35.7V42.2H38.9V39Z" fill="#FFFF00"/>
<path d="M38.9 9.79999H35.7V13H38.9V9.79999Z" fill="#FFFF00"/>
<path d="M38.9 16.3C38.9 15.5 38.9 13.9 38.9 13.1H35.7V9.79999H16.2V13H12.9C12.9 13.8 12.9 15.4 12.9 16.2H9.7C9.7 22 9.7 29.9 9.7 35.7H12.9V39H16.1V42.2H35.6V39H38.9V35.8H42.1C42.1 30 42.1 22.1 42.1 16.3H38.9Z" fill="#FFC800"/>
<path d="M19.7 19.7C24.9 19.7 31.2 19.7 36.4 19.7V15.5C34.3 15.5 30.1 15.5 28 15.5V11.3H23.9V15.5C21.8 15.5 17.6 15.5 15.5 15.5C15.5 22.2 15.5 29.7 15.5 36.4C17.6 36.4 21.8 36.4 23.9 36.4V40.6H28.1V36.4C30.2 36.4 34.4 36.4 36.5 36.4C36.5 32.7 36.5 27.6 36.5 23.9C32.8 23.9 27.7 23.9 24 23.9V28.1C26.1 28.1 30.3 28.1 32.4 28.1V32.3C28.7 32.3 23.6 32.3 19.9 32.3C19.7 30.2 19.7 19.7 19.7 19.7Z" fill="#C77D00"/>
</svg>
