<svg width="129" height="150" viewBox="0 0 129 150" fill="none" xmlns="http://www.w3.org/2000/svg">
<path d="M117.885 53.5577V42.8526H107.18V32.1475H96.4424V21.4424H85.7373V10.7051H75.0322V0H53.5898V10.7051H42.8847V21.4102H32.1475V32.1153H21.4424V42.8526H10.7372V53.5577H0V96.4102H10.7051V107.147H21.4102V117.853H32.1475V128.558H42.8526V139.295H53.5577V150H75V139.295H85.7051V128.59H96.4424V117.885H107.147V107.147H117.853V96.4424H128.59V53.5898H117.885V53.5577Z" fill="#063575"/>
<path d="M107.147 53.5577V42.8526H96.4424V32.1475H85.7373V21.4424H75.0322V10.7051H53.5898V21.4102H42.8847V32.1153H32.1475V42.8526H21.4424V53.5577H10.7373V96.4102H21.4424V107.147H32.1475V117.853H42.8526V128.558H53.5577V139.295H75V128.59H85.7051V117.885H96.4424V107.147H107.147V96.4424H117.853V53.5898H107.147V53.5577Z" fill="#8AFFFF"/>
<path d="M53.5898 117.853H64.2949V128.558H53.5898V117.853Z" fill="#F4EFDA"/>
<path d="M75 107.147H64.2949V117.853H85.7373V107.147H75ZM53.5898 85.7051H64.2949V96.4102H53.5898V85.7051ZM42.8526 96.4424H53.5577V107.147H42.8526V96.4424ZM42.8526 21.4102H53.5577V32.1153H42.8526V21.4102ZM53.5898 10.7051H64.2949V21.4102H53.5898V10.7051ZM64.2949 32.1475H75V42.8526H64.2949V32.1475Z" fill="#F4EFDA"/>
<path d="M85.7373 107.147H96.4424V117.853H85.7373V107.147Z" fill="#3CCCFF"/>
<path d="M96.4424 96.4423H107.147V107.147H96.4424V96.4423ZM107.147 85.7051H117.853V96.4102H107.147V85.7051Z" fill="#3CCCFF"/>
<path d="M64.2949 117.853V139.295H75V128.59H85.7051V117.885L64.2949 117.853ZM96.4424 96.4424V85.7372H85.7373V75H64.2949V96.4424H53.5898V107.147H85.7373V96.4424H96.4424ZM42.8526 117.853V128.558H53.5577V107.115H42.8526V117.853Z" fill="#3CCCFF"/>
<path d="M32.1475 96.4424H42.8526V107.147H32.1475V96.4424ZM32.1475 75V85.7051H53.5898V75H64.2949V64.2949H75V53.5898H64.2949V21.4424H53.5898V32.1475H42.8847V42.8526H32.1475V53.5577H21.4424V64.2628H32.1475V75Z" fill="#3CCCFF"/>
<path d="M21.4424 85.7051H32.1475V96.4102H21.4424V85.7051Z" fill="#3CCCFF"/>
<path d="M21.4424 64.2949H10.7373V85.7373H21.4424V64.2949ZM117.885 75V64.2949H107.18V53.5898H96.4424V32.1475H85.7373V21.4424H75.0322V53.5898H85.7373V75.0322H96.4424V85.7373H107.147V75H117.885ZM64.2949 10.7051H75V21.4102H64.2949V10.7051Z" fill="#3CCCFF"/>
<path d="M64.2949 128.59H75V139.295H64.2949V128.59ZM75 117.853H85.7051V128.558H75V117.853ZM85.7372 107.147H96.4423V117.853H85.7372V107.147Z" fill="#2AA5FF"/>
<path d="M96.4423 96.4424H107.147V107.148H96.4423V96.4424ZM107.147 85.7051H117.853V96.4103H107.147V85.7051ZM75 85.7051H64.2949V107.148H75V96.4424H85.7051V75H75V85.7051ZM64.2949 42.8526V21.4102H53.5898V32.1153H42.8847V42.8526H64.2949ZM42.8525 107.148H53.5576V117.853H42.8525V107.148Z" fill="#2AA5FF"/>
<path d="M32.1475 96.4424H42.8526V107.148H32.1475V96.4424ZM42.8526 42.8526H32.1475V53.5577H21.4424V64.2628H32.1475V85.7052H53.5898V64.2628H42.8847L42.8526 42.8526Z" fill="#2AA5FF"/>
<path d="M21.4424 85.7051H32.1475V96.4102H21.4424V85.7051ZM85.7373 32.1475V21.4424H75.0322V53.5898H85.7373V32.1475Z" fill="#2AA5FF"/>
<path d="M117.885 75V64.2949H96.4423V53.5898H85.7373V75.0322H96.4423V85.7373H107.147V75H117.885Z" fill="#2AA5FF"/>
</svg>
