<svg width="36" height="36" viewBox="0 0 36 36" fill="none" xmlns="http://www.w3.org/2000/svg">
<path d="M25.2726 9H19V27H22C22 23 24 20.5 27 20L25.2726 9Z" fill="white"/>
<path d="M12.5 9H19V27H15C15 27 15.0952 24.4476 14.0476 23.4C13 22.3524 11 22 11 22L12.5 9Z" fill="white"/>
<path d="M1 11H11L10 19C10 19 7 18.2 4 15.8C1.36119 13.689 1 11 1 11Z" fill="white"/>
<path d="M35 11H27L28 17C28 17 30.25 16.303 32.5 14.6667C33.6012 13.8658 34.2382 12.8799 34.5933 12.1322C34.9059 11.4737 35 11 35 11Z" fill="white"/>
<path d="M11.8333 28H25.1667L26 30H11L11.8333 28Z" fill="white"/>
</svg>
