<svg width="96" height="124" viewBox="0 0 96 124" fill="none" xmlns="http://www.w3.org/2000/svg">
<path class="layer-5" d="M91.3196 15.2247V11.4185H87.5135V7.61229H79.9011V3.8061H72.2887V-6.10352e-05H53.2578V3.8061H45.6455V7.61229H38.0331V11.4185H34.2269V15.2247H30.4208V93.2225H38.0331V89.4163H47.5486V93.2225H57.064V89.4163H68.4826V93.2225H77.998V89.4163H87.5135V93.2225H95.1258V15.2247H91.3196Z" fill="#00FA7D"/>
<path class="layer-4" d="M83.7072 22.837V19.0308H79.901V15.2246H72.2887V11.4184H64.6763V7.61224H45.6454V11.4184H38.0331V15.2246H30.4207V19.0308H26.6145V22.837H22.8083V100.835H30.4207V97.0574H39.9362V100.864H49.4516V97.0574H60.8701V100.864H70.3856V97.0574H79.901V100.864H87.5134V22.837H83.7072Z" fill="#00B4FF"/>
<path class="layer-3" d="M76.0949 30.4493V26.6431H72.2887V22.837H64.6764V19.0308H57.064V15.2246H38.0331V19.0308H30.4208V22.837H22.8084V26.6431H19.0022V30.4493H15.196V108.447H22.8084V104.641H32.3238V108.447H41.8393V104.641H53.2578V108.447H62.7733V104.641H72.2887V108.447H79.9011V30.4493H76.0949Z" fill="#FFFF00"/>
<path class="layer-2" d="M68.5118 38.0616V34.2555H64.7056V30.4493H57.0933V26.6431H49.4809V22.8369H30.45V26.6431H22.8376V30.4493H15.2253V34.2555H11.4191V38.0616H7.61292V116.088H15.2253V112.282H24.7407V116.088H34.2562V112.282H45.6747V116.088H55.1902V112.282H64.7056V116.088H72.318V38.0616H68.5118Z" fill="#FA32F5"/>
<path class="layer-1" class="layer-1" d="M60.899 45.6741V41.8679H57.0928V38.0618H49.4804V34.2556H41.8681V30.4494H22.8372V34.2556H15.2248V38.0618H7.61248V41.8679H3.8063V45.6741H0.00012207V123.672H7.61248V119.866H17.1279V123.672H26.6434V119.866H38.0619V123.672H47.5774V119.866H57.0928V123.672H64.7052V45.6741H60.899Z" fill="white"/>
<path class="layer-1" d="M17.1285 116.06H7.61304V119.866H17.1285V116.06Z" fill="#8F17F9"/>
<path class="layer-1" d="M57.0645 116.06H47.5491V119.866H57.0645V116.06Z" fill="#8F17F9"/>
<path class="layer-1" d="M47.5779 119.866H38.0625V123.672H47.5779V119.866Z" fill="#8F17F9"/>
<path class="layer-1" d="M7.61281 43.7711V41.868H3.80664V45.6742H7.61281V43.7711Z" fill="#8F17F9"/>
<path class="layer-1" d="M3.80643 45.674H0.000244141V123.672H7.6126V119.866H3.80643V45.674Z" fill="#8F17F9"/>
<path class="layer-1" d="M38.0622 116.06H26.6437V119.866H38.0622V116.06Z" fill="#8F17F9"/>
<path class="layer-1" d="M26.6439 119.866H17.1284V123.672H26.6439V119.866Z" fill="#8F17F9"/>
<path class="layer-1" d="M57.0931 38.0617H49.4807V41.8679H57.0931V38.0617Z" fill="#8F17F9"/>
<path class="layer-1" d="M15.2254 39.9648V38.0617H7.61304V41.8679H15.2254V39.9648Z" fill="#8F17F9"/>
<path class="layer-1" d="M49.4808 34.2555H41.8684V38.0617H49.4808V34.2555Z" fill="#8F17F9"/>
<path class="layer-1" d="M60.8705 45.674V119.866H57.0643V123.672H64.7055V45.674H60.8705Z" fill="#8F17F9"/>
<path class="layer-1" d="M60.8705 41.868H57.0643V45.6742H60.8705V41.868Z" fill="#8F17F9"/>
<path class="layer-1" d="M22.8378 36.1586V34.2555H15.2255V38.0617H22.8378V36.1586Z" fill="#8F17F9"/>
<path class="layer-1" d="M41.8687 30.4494H22.8378V34.2556H41.8687V30.4494Z" fill="#8F17F9"/>
<path class="layer-1" d="M26.6438 51.3834V47.5773H24.7407V55.1896H26.6438V51.3834Z" fill="#8F17F9"/>
<path class="layer-1" d="M28.5468 45.674H26.6437V47.5771H28.5468V45.674Z" fill="#8F17F9"/>
<path class="layer-1" d="M38.062 45.674H36.1589V47.5771H38.062V45.674Z" fill="#8F17F9"/>
<path class="layer-1" d="M30.4497 43.771H28.5466V45.6741H30.4497V43.771Z" fill="#8F17F9"/>
<path class="layer-1" d="M34.2274 43.7711V41.868H30.4501V43.7711H32.3532H34.2274Z" fill="#8F17F9"/>
<path class="layer-1" d="M36.1304 43.771H34.2273V45.6741H36.1304V43.771Z" fill="#8F17F9"/>
<path class="layer-1" d="M38.062 55.1896H36.1589V57.0927H38.062V55.1896Z" fill="#8F17F9"/>
<path class="layer-1" d="M38.0625 55.1896H39.9368V47.5773H38.0625V51.3834V55.1896Z" fill="#8F17F9"/>
<path class="layer-1" d="M28.5468 55.1896H26.6437V57.0927H28.5468V55.1896Z" fill="#8F17F9"/>
<path class="layer-1" d="M36.1304 57.0926H34.2273V58.9957H36.1304V57.0926Z" fill="#8F17F9"/>
<path class="layer-1" d="M30.4501 58.967V60.8989H34.2274V58.967H32.3532H30.4501Z" fill="#8F17F9"/>
<path class="layer-1" d="M30.4497 57.0926H28.5466V58.9957H30.4497V57.0926Z" fill="#8F17F9"/>
<path class="layer-1" d="M53.2869 79.9297H49.4807V83.7359H53.2869V79.9297Z" fill="#8F17F9"/>
<path class="layer-1" d="M15.2251 79.9297H11.4189V83.7359H15.2251V79.9297Z" fill="#8F17F9"/>
<path class="layer-1 eyes" d="M38.0625 72.2885H41.8687V76.0947H49.481V72.2885H53.2584V64.6762H49.481V60.8988H41.8687V64.6762H38.0625V72.2885Z" fill="#8F17F9"/>
<path class="layer-1 eyes" d="M15.2251 76.0947H22.8375V72.2885H26.6437V64.6762H22.8375V60.8988H15.2251V64.6762H11.4189V72.2885H15.2251V76.0947Z" fill="#8F17F9"/>
<path class="layer-1" d="M26.6439 79.9297H22.8378V83.7359H26.6439V79.9297Z" fill="#8F17F9"/>
<path class="layer-1" d="M38.0622 83.7071H26.6437V87.5133H38.0622V83.7071Z" fill="#8F17F9"/>
<path class="layer-1" d="M41.8687 79.9297H38.0625V83.7359H41.8687V79.9297Z" fill="#8F17F9"/>
<path class="layer-1" d="M51.3549 102.738H43.7426V104.641H51.3549V102.738Z" fill="#8F17F9"/>
<path class="layer-1" d="M51.3553 91.3194H47.5491V93.2225H51.3553V91.3194Z" fill="#8F17F9"/>
<path class="layer-1" d="M53.2868 89.4164H51.3837V91.3195H53.2868V89.4164Z" fill="#8F17F9"/>
<path class="layer-1" d="M55.161 87.5132H53.2579V89.4163H55.161V87.5132Z" fill="#8F17F9"/>
<path class="layer-1" d="M43.7715 95.1257H41.8684V102.738H43.7715V95.1257Z" fill="#8F17F9"/>
<path class="layer-1" d="M55.1898 100.835H51.3837V102.738H55.1898V100.835Z" fill="#8F17F9"/>
<path class="layer-1" d="M57.0932 98.9317H55.1901V100.835H57.0932V98.9317Z" fill="#8F17F9"/>
<path class="layer-1" d="M47.5487 93.2513H43.7426V95.1544H47.5487V93.2513Z" fill="#8F17F9"/>
<path class="layer-1" d="M13.322 89.4164H11.4189V91.3195H13.322V89.4164Z" fill="#8F17F9"/>
<path class="layer-1" d="M11.4191 87.5132H9.51599V89.4163H11.4191V87.5132Z" fill="#8F17F9"/>
<path class="layer-1" d="M17.1281 91.3194H13.3219V93.2225H17.1281V91.3194Z" fill="#8F17F9"/>
<path class="layer-1" d="M9.51613 98.9317H7.61304V100.835H9.51613V98.9317Z" fill="#8F17F9"/>
<path class="layer-1" d="M20.9346 93.2513H17.1284V95.1544H20.9346V93.2513Z" fill="#8F17F9"/>
<path class="layer-1" d="M22.8374 95.1257H20.9343V102.738H22.8374V95.1257Z" fill="#8F17F9"/>
<path class="layer-1" d="M20.9343 102.738H13.3219V104.641H20.9343V102.738Z" fill="#8F17F9"/>
<path class="layer-1" d="M13.3222 100.835H9.51599V102.738H13.3222V100.835Z" fill="#8F17F9"/>
</svg>
