<svg width="129" height="150" viewBox="0 0 129 150" fill="none" xmlns="http://www.w3.org/2000/svg">
<path d="M117.885 53.5577V42.8526H107.18V32.1475H96.4424V21.4424H85.7373V10.7051H75.0322V0H53.5898V10.7051H42.8847V21.4102H32.1475V32.1153H21.4424V42.8526H10.7372V53.5577H0V96.4102H10.7051V107.147H21.4102V117.853H32.1475V128.558H42.8526V139.295H53.5577V150H75V139.295H85.7051V128.59H96.4424V117.885H107.147V107.147H117.853V96.4424H128.59V53.5898H117.885V53.5577Z" fill="black"/>
<path d="M107.147 53.5577V42.8526H96.4424V32.1475H85.7373V21.4424H75.0322V10.7051H53.5898V21.4102H42.8847V32.1153H32.1474V42.8526H21.4423V53.5577H10.7372V75H21.4423V85.7051H10.7372V96.4102H21.4423V107.147H32.1474V117.853H42.8525V128.558H53.5577V139.295H75V128.59H64.2949V117.885H75V128.59H85.7051V117.885H96.4424V107.147H85.7373V96.4424H75.0322V107.147H64.2949V85.7051H85.7373V96.4102H96.4424V107.147H107.147V96.4424H117.853V85.7373H96.4102V75H117.853V53.5577H107.147ZM32.1474 85.7051V75H42.8525V96.4424H32.1474V85.7051Z" fill="#1D1D1D"/>
<path d="M64.2949 85.7051H75V64.2627H64.2949V85.7051Z" fill="#2E2E2E"/>
<path d="M53.5898 53.5577H32.1475V64.2628H64.2949V42.8204H53.5898V53.5577ZM53.5898 10.7051H64.2949V21.4102H53.5898V10.7051Z" fill="#2E2E2E"/>
<path d="M64.2949 32.1474V42.8526H85.7373V32.1474H64.2949ZM75 53.5576H85.7051V64.2628H75V53.5576ZM96.4424 42.8526V64.2949H107.147V42.8526H96.4424Z" fill="#2E2E2E"/>
<path d="M85.7372 96.4424H75.0321V107.147H64.2949V96.4424H53.5898V85.7373H64.2949V64.2949H32.1474V75H42.8525V96.4424H32.1474V75H21.4423V85.7051H10.7372V96.4102H21.4423V107.147H32.1474V117.853H42.8525V107.147H53.5576V117.853H42.8525V128.558H53.5576V139.295H75V128.59H64.2949V117.885H75V128.59H85.7051V117.885H96.4423V107.147H85.7372V96.4424Z" fill="#AC1F23"/>
<path d="M85.7372 75V96.4424H96.4423V107.147H107.147V96.4424H117.853V85.7373H96.4102V75H85.7372ZM42.8525 42.8526H64.2949V32.1475H32.1474V53.5898H42.8525V42.8526Z" fill="#AC1F23"/>
<path d="M32.1474 64.2949V53.5898H10.7051V75.0322H21.4102V64.3271H32.1474V64.2949ZM64.2949 64.2949H75V42.8526H64.2949V64.2949Z" fill="#AC1F23"/>
<path d="M75 64.2949H85.7051V75H75V64.2949ZM85.7372 53.5577H96.4423V64.2628H85.7372V53.5577ZM107.147 75H117.853V64.2949H96.4102V75H107.147ZM85.7372 32.1475H96.4423V42.8526H85.7372V32.1475Z" fill="#AC1F23"/>
<path d="M85.7373 32.1475V21.4424H64.2949V32.1475H85.7373Z" fill="#AC1F23"/>
<path d="M107.147 85.7051H96.4424V107.147H107.147V96.4424H117.853V85.7373H107.147V85.7051Z" fill="#EF5223"/>
<path d="M75 107.148H64.2949V96.4424H53.5898V85.7373H64.2949V64.295H32.1475V75.0001H42.8526V96.4424H32.1475V75.0001H21.4424V85.7052H10.7373V96.4103H21.4424V107.148H32.1475V117.853H42.8526V107.148H53.5577V117.853H42.8526V128.558H53.5577V139.295H75V128.59H64.2949V117.885H75V128.59H85.7051V117.885H96.4424V107.148H75ZM53.5898 32.1475H42.8847V42.8526H64.3271V32.1475H53.5898Z" fill="#EF5223"/>
<path d="M21.4423 53.5577H10.7372V75H21.4423V53.5577ZM75 53.5577V42.8526H64.2949V64.2949H75V53.5577ZM64.2949 21.4102H75V32.1153H64.2949V21.4102ZM85.7373 53.5577H96.4424V64.2628H85.7373V53.5577Z" fill="#EF5223"/>
<path d="M64.2949 117.853H42.8525V128.558H53.5576V139.295H75V128.59H64.2949V117.853ZM75 117.853H85.7051V128.558H75V117.853ZM85.7372 107.147H96.4423V117.853H85.7372V107.147Z" fill="#F37721"/>
<path d="M96.4424 96.4424H107.147V107.147H96.4424V96.4424ZM107.147 85.7051H117.853V96.4103H107.147V85.7051ZM64.2949 107.147H75V117.853H64.2949V107.147Z" fill="#F37721"/>
<path d="M53.5898 96.4424H64.2949V107.148H53.5898V96.4424ZM53.5898 85.7052H64.2949V64.2628H32.1474V75.0001H42.8525V96.4424H53.5576V85.7052H53.5898Z" fill="#F37721"/>
<path d="M42.8526 96.4424H32.1475V85.7373H10.7051V96.4424H21.4102V107.147H32.1475V117.853H42.8526V96.4424ZM10.7051 53.5577H21.4102V64.2628H10.7051V53.5577ZM64.2949 53.5577H75V64.2628H64.2949V53.5577Z" fill="#F37721"/>
<path d="M53.5898 75H64.2949V85.7051H53.5898V75ZM32.1475 64.2949H42.8526V75H32.1475V64.2949ZM10.7051 53.5577H21.4102V64.2628H10.7051V53.5577Z" fill="#5B3E3D"/>
<path d="M64.295 107.147H75V117.853H64.295V107.147Z" fill="#DF2B26"/>
<path d="M53.5898 96.4424H64.2949V107.147H53.5898V96.4424ZM53.5898 75H64.2949V64.2949H42.8526V96.4424H53.5577L53.5898 75ZM64.2949 53.5577H75V64.2628H64.2949V53.5577Z" fill="#DF2B26"/>
<path d="M53.5898 128.59H64.2949V139.295H53.5898V128.59ZM42.8525 117.853H53.5576V128.558H42.8525V117.853Z" fill="#FFCC05"/>
<path d="M32.1474 107.147H42.8525V117.853H32.1474V107.147Z" fill="#FFCC05"/>
<path d="M21.4424 96.4424H32.1475V107.147H21.4424V96.4424ZM10.7051 85.7051H21.4102V96.4102H10.7051V85.7051Z" fill="#FFCC05"/>
</svg>
