<svg width="129" height="150" viewBox="0 0 129 150" fill="none" xmlns="http://www.w3.org/2000/svg">
<path d="M117.885 53.5577V42.8526H107.18V32.1475H96.4424V21.4424H85.7373V10.7051H75.0322V0H53.5898V10.7051H42.8847V21.4102H32.1475V32.1153H21.4424V42.8526H10.7372V53.5577H0V96.4102H10.7051V107.147H21.4102V117.853H32.1475V128.558H42.8526V139.295H53.5577V150H75V139.295H85.7051V128.59H96.4424V117.885H107.147V107.147H117.853V96.4424H128.59V53.5898H117.885V53.5577Z" fill="#14280F"/>
<path d="M107.147 53.5577V42.8526H96.4423V32.1475H85.7372V21.4424H75.0321V10.7051H53.5898V21.4102H42.8847V32.1153H32.1474V42.8526H21.4423V53.5577H10.7372V96.4102H21.4423V107.147H32.1474V117.853H42.8525V128.558H53.5576V139.295H75V128.59H85.7051V117.885H96.4423V107.147H107.147V96.4424H117.853V53.5898H107.147V53.5577Z" fill="#285145"/>
<path d="M117.885 64.2949V53.5898H107.18V42.8526H85.7372V32.1475H75.0321V10.7051H53.5898V32.1475H42.8847V42.8526H53.5898V53.5577H64.2949V75H53.5898V53.5577H42.8847V42.8526H21.4423V53.5577H32.1474V75H42.8525V85.7051H32.1474V75H21.4423V53.5577H10.7372V96.4102H21.4423V107.147H32.1474V117.853H42.8525V128.558H53.5576V139.295H75V128.59H85.7051V117.885H96.4423V107.147H107.147V96.4424H117.853V75H107.147V64.2949H117.885ZM85.7372 96.4424V107.147H75.0321V117.853H64.2949V107.147H75V96.4424H64.2949V85.7373H75V96.4424H85.7372V85.7373H96.4423V96.4424H85.7372ZM96.4423 75H85.7372V53.5577H96.4423V75Z" fill="#298356"/>
<path d="M75 85.7051H85.7052V96.4102H75V85.7051ZM85.7373 75H96.4424V85.7051H85.7373V75ZM53.5898 75H42.8847V96.4424H53.5898V107.147H64.2949V85.7051H53.5898V75ZM53.5898 64.2949V53.5898H42.8847V42.8525H32.1475V75H42.8526V64.2949H53.5898Z" fill="#53BC34"/>
<path d="M10.7051 53.5577H21.4102V64.2628H10.7051V53.5577ZM64.2949 42.8526H75V21.4102H64.2949V10.7051H53.5898V32.1475H64.2949V42.8526ZM85.7373 53.5577H75.0322V64.2628H64.2949V75H85.7373V53.5577ZM96.4424 53.5577V75H107.147V53.5577H96.4424Z" fill="#53BC34"/>
<path d="M107.147 75V85.7051H96.4423V96.4102H85.7372V107.147H75.0321V117.853H53.5898V107.147H42.8847V96.4424H32.1474V85.7373H21.4423V75H10.7372V96.4424H21.4423V107.147H32.1474V117.853H42.8525V128.558H53.5576V139.295H75V128.59H85.7051V117.885H96.4423V107.147H107.147V96.4424H117.853V75H107.147Z" fill="#8E8DAA"/>
<path d="M64.295 128.59H75V139.295H64.295V128.59ZM75 117.853H85.7052V128.558H75V117.853ZM85.7373 107.147H96.4424V117.853H85.7373V107.147Z" fill="#696884"/>
<path d="M96.4424 96.4424H107.147V107.147H96.4424V96.4424ZM107.147 85.7051H117.853V96.4102H107.147V85.7051Z" fill="#696884"/>
<path d="M53.5899 117.853H64.295V128.558H53.5899V117.853ZM42.8526 107.147H53.5577V117.853H42.8526V107.147Z" fill="#BFBDD4"/>
<path d="M32.1475 96.4424H42.8526V107.147H32.1475V96.4424ZM21.4424 85.7051H32.1475V96.4102H21.4424V85.7051ZM10.7051 75H21.4102V85.7051H10.7051V75Z" fill="#BFBDD4"/>
</svg>
