<svg width="700" height="676" viewBox="0 0 700 676" fill="none" xmlns="http://www.w3.org/2000/svg">
<path d="M653.565 3.39644C649.024 -1.13808 641.681 -1.12579 637.141 3.39644L487.13 152.875L432.015 98.0245C427.443 93.4777 420.082 93.5023 415.547 98.0614C411.006 102.621 411.031 110.01 415.584 114.551L438.946 137.79L428.9 147.837C407.216 135.729 386.275 121.615 366.208 105.212C363.425 102.942 360.648 100.665 357.956 98.395C353.674 94.7588 347.425 94.7097 343.081 98.2658L340.217 100.622C338.214 102.277 336.223 103.92 333.956 105.704C314.306 121.775 293.323 135.951 271.485 148.189L261.058 137.791L284.357 114.578C288.922 110.031 288.941 102.654 284.406 98.0943C279.865 93.5168 272.498 93.5043 267.945 98.0451L236.343 129.534L212.926 152.86L62.8415 3.38707C58.3007 -1.13516 50.958 -1.12288 46.4179 3.38707L4.23045 45.4781C2.03692 47.6685 0.807953 50.6402 0.807953 53.7412C0.807953 56.8422 2.03684 59.8139 4.23045 62.0042L139.342 196.632C112.582 201.831 85.1228 204.618 57.4115 204.698C53.989 204.71 50.7447 206.224 48.5451 208.845C46.3454 211.466 45.4052 214.93 45.9706 218.308C59.4515 297.468 87.9929 371.842 130.519 439.749L85.4604 484.608C85.276 484.792 85.1839 485.014 85.018 485.217C84.6431 485.635 84.3175 486.09 84.0041 486.57C83.6662 487.093 83.3651 487.616 83.107 488.188C83.0026 488.434 82.8305 488.619 82.7322 488.865L20.7597 658.108C19.1867 662.397 20.2682 667.208 23.5186 670.414C25.7305 672.604 28.6862 673.773 31.6907 673.773C33.0855 673.773 34.4988 673.527 35.8444 673.004L203.273 608.868C203.31 608.856 203.341 608.819 203.377 608.812C203.562 608.745 203.715 608.591 203.9 608.523C205.018 608.013 206.02 607.348 206.892 606.542C207.021 606.425 207.193 606.376 207.322 606.265L241.731 571.939C273.172 600.063 307.532 625.148 344.172 646.331C345.978 647.371 347.975 647.894 349.991 647.894C352.006 647.894 354.009 647.383 355.809 646.331C391.441 625.738 424.763 601.46 455.326 574.381L489.513 608.474C489.642 608.603 489.802 608.64 489.943 608.75C490.828 609.556 491.817 610.221 492.936 610.732C493.12 610.812 493.273 610.953 493.458 611.021C493.495 611.033 493.525 611.07 493.562 611.076L660.991 675.225C662.355 675.754 663.762 676 665.157 676H665.286C672.082 675.908 677.016 670.813 677.028 664.347C677.028 662.132 676.413 660.058 675.326 658.286L614.077 491.075C613.985 490.829 613.807 490.632 613.702 490.398C613.456 489.838 613.155 489.303 612.805 488.78C612.492 488.288 612.166 487.845 611.791 487.427C611.625 487.23 611.533 487.008 611.349 486.818L567.398 443.054C611.08 374.254 640.309 298.73 653.999 218.289C654.57 214.923 653.636 211.472 651.436 208.838C649.237 206.205 646.011 204.704 642.588 204.679C614.791 204.507 587.418 201.695 560.818 196.508L695.77 61.9802C697.957 59.8021 699.192 56.8304 699.192 53.7294C699.192 50.6284 697.957 47.6566 695.77 45.4786L653.565 3.39644ZM455.447 154.236L465.635 164.351L469.42 168.117C467.067 167.089 464.719 166.056 462.378 164.973C459.41 163.607 456.443 162.259 453.5 160.826C452.461 160.327 451.459 159.767 450.427 159.251L455.447 154.236ZM244.557 154.236L249.909 159.577C243.334 162.831 236.661 165.908 229.921 168.818L244.557 154.236ZM28.9323 53.7268L54.6349 28.0954L196.432 169.299L178.342 187.308C177.402 187.598 176.401 187.881 175.424 188.17C173.187 188.81 170.883 189.449 168.45 190.096C167.762 190.268 167.006 190.446 166.305 190.619L28.9323 53.7268ZM143.527 459.674C148.511 466.983 153.561 474.194 158.784 481.215H121.899L143.527 459.674ZM187.467 589.957L51.4229 642.064L101.813 504.521H175.608C179.498 509.21 183.443 513.812 187.467 518.365L187.467 589.957ZM210.749 569.911V542.193C215.333 546.924 219.99 551.471 224.685 556.018L210.749 569.911ZM486.084 572.132L472.511 558.59C477.076 554.24 481.685 549.952 486.084 545.491V572.132ZM645.412 644.29L509.368 592.171V520.584C513.405 516.038 517.356 511.423 521.239 506.741H595.034L645.412 644.29ZM574.947 483.442H539.494C544.544 476.73 549.435 469.851 554.277 462.85L574.947 483.442ZM628.644 227.711C614.051 303.119 585.239 373.923 542.916 438.379C531.543 455.65 519.383 472.25 506.706 487.736C500.98 494.775 495.148 501.604 489.059 508.367C476.291 522.653 462.483 536.608 448.007 549.873C418.127 577.344 385.185 601.832 350.002 622.721C314.911 601.894 281.958 577.444 251.974 549.984C237.866 537.069 224.096 523.109 211.027 508.459C204.963 501.735 199.027 494.813 193.276 487.725C180.625 472.269 168.447 455.675 157.098 438.411C114.775 373.968 85.9688 303.163 71.3699 227.774C103.377 226.728 134.972 222.403 165.392 214.897C173.877 212.94 181.293 210.934 187.727 208.873C187.751 208.873 187.776 208.861 187.807 208.849C187.862 208.824 187.948 208.812 188.016 208.793L188.028 208.781C218.08 200.026 247.366 187.979 275.022 172.99C300.841 159.214 325.634 142.651 348.54 123.923C349.167 123.431 349.8 122.932 350.414 122.434C350.961 122.877 351.52 123.332 352.091 123.8C375.048 142.566 399.723 159.011 425.328 172.609C452.923 187.689 482.097 199.792 511.707 208.461C511.756 208.473 511.799 208.486 511.848 208.498C511.904 208.51 511.965 208.535 512.02 208.553H512.057C519.842 211.045 527.548 213.02 534.675 214.755C534.688 214.755 534.7 214.755 534.712 214.767H534.724C565.03 222.218 596.574 226.581 628.643 227.706L628.644 227.711ZM533.92 190.487C533.423 190.358 532.943 190.241 532.433 190.112C530.049 189.497 527.641 188.795 525.226 188.106C523.96 187.743 522.688 187.374 521.398 186.974L503.659 169.303L645.357 28.0934L671.06 53.7374L533.92 190.487Z" fill="white"/>
<path d="M357.737 199.683C355.528 197.859 352.813 196.974 350.105 197.005C350.068 197.005 350.037 196.98 350 196.98C349.463 196.98 348.994 197.226 348.47 197.281C347.686 197.41 346.89 197.466 346.132 197.76C344.916 198.191 343.855 198.854 342.849 199.647C342.812 199.683 342.769 199.683 342.72 199.714L342.652 199.77C342.263 200.083 341.856 200.365 341.504 200.734C340.116 201.895 338.734 203.063 337.087 204.353C288.29 244.228 226.662 266.284 163.555 266.456C160.118 266.468 156.867 267.98 154.652 270.585C152.443 273.202 151.487 276.649 152.067 280.034C167.725 372.212 215.164 454.465 285.221 514.092C285.258 514.117 285.289 514.141 285.326 514.172C303.489 529.618 323.09 543.632 344.134 555.791C344.412 555.957 344.72 556.025 345.01 556.154C345.337 556.307 345.652 556.43 345.991 556.559C347.287 557.039 348.632 557.364 350.002 557.364C351.371 557.364 352.71 557.039 354.012 556.559C354.351 556.43 354.666 556.314 354.993 556.154C355.271 556.013 355.591 555.945 355.869 555.791C376.932 543.626 396.527 529.606 414.69 514.159C414.715 514.135 414.746 514.11 414.77 514.092C484.826 454.464 532.266 372.202 547.935 280.018C548.509 276.645 547.559 273.198 545.35 270.581C543.142 267.964 539.89 266.452 536.454 266.44C473.506 266.151 412.055 244.094 363.348 204.299L357.737 199.683ZM225.336 409.126C202.804 372.673 186.485 332.288 177.607 289.373C193.71 288.568 209.678 286.418 225.336 283.063V409.126ZM281.832 479.48C269.98 467.923 258.882 455.678 248.72 442.714V277.045C260.01 273.659 271.029 269.469 281.832 264.775V479.48ZM338.316 524.78C326.779 517.248 315.711 509.162 305.203 500.498V255.698C305.203 254.979 304.926 254.346 304.784 253.658C316.413 247.397 327.599 240.344 338.315 232.56L338.316 524.78ZM474.671 282.952C490.342 286.35 506.309 288.525 522.413 289.367C513.529 332.276 497.216 372.68 474.671 409.137V282.952ZM418.175 264.551C428.984 269.264 439.997 273.466 451.288 276.876V442.735C441.133 455.699 430.027 467.943 418.175 479.5V264.551ZM394.798 257.891V500.49C384.279 509.147 373.21 517.227 361.685 524.772L361.691 232.203C372.562 240.117 383.897 247.275 395.681 253.627C395.138 254.954 394.799 256.386 394.799 257.897L394.798 257.891Z" fill="white"/>
</svg>
