<svg width="129" height="150" viewBox="0 0 129 150" fill="none" xmlns="http://www.w3.org/2000/svg">
<path d="M117.885 53.5577V42.8526H107.18V32.1475H96.4424V21.4424H85.7373V10.7051H75.0322V0H53.5898V10.7051H42.8847V21.4102H32.1475V32.1153H21.4424V42.8526H10.7372V53.5577H0V96.4102H10.7051V107.147H21.4102V117.853H32.1475V128.558H42.8526V139.295H53.5577V150H75V139.295H85.7051V128.59H96.4424V117.885H107.147V107.147H117.853V96.4424H128.59V53.5898H117.885V53.5577Z" fill="#12032E"/>
<path d="M107.147 53.5577V42.8526H96.4424V32.1475H85.7373V21.4424H75.0322V10.7051H53.5898V21.4102H42.8847V32.1153H32.1474V42.8526H21.4423V53.5577H10.7372V96.4102H21.4423V107.147H32.1474V117.853H42.8525V128.558H53.5577V139.295H75V128.59H85.7051V117.885H96.4424V107.147H107.147V96.4424H117.853V53.5898H107.147V53.5577Z" fill="#501E80"/>
<path d="M107.147 53.5577V42.8526H96.4424V32.1475H85.7373V42.8526H64.2949V53.5577H53.5898V42.8526H64.2949V32.1475H85.7373V21.4424H64.2949V10.7051H53.5898V21.4102H42.8847V32.1153H32.1474V42.8526H21.4423V75H10.7372V96.4424H21.4423V107.147H32.1474V117.853H42.8525V128.558H53.5577V139.295H75V128.59H85.7051V117.885H96.4424V107.147H107.147V96.4424H117.853V53.5898H107.147V53.5577Z" fill="#39006A"/>
<path d="M64.2949 128.59H75V139.295H64.2949V128.59ZM64.2949 75H53.5898V85.7051H75.0321V75H64.2949ZM21.4423 64.2949V75H32.1474V53.5577H21.4423V64.2949ZM42.8525 21.4102H53.5576V32.1153H42.8525V21.4102Z" fill="#FA34F3"/>
<path d="M64.2948 85.7051H74.9999V96.4102H64.2948V85.7051ZM53.5898 64.2949H64.2948V75H53.5898V64.2949ZM32.1474 32.1475H42.8525V42.8526H32.1474V32.1475ZM53.5898 10.7051H64.2948V21.4102H53.5898V10.7051Z" fill="#CF15F9"/>
<path d="M53.5899 96.4424V107.147H64.295V85.7051H53.5899V96.4424ZM64.295 42.8526V21.4102H53.5899V32.1153H42.8847V42.8526H64.295ZM42.8526 75H53.5577V85.7051H42.8526V75ZM64.295 53.5577H53.5899V64.2628H64.295V75H75.0001V53.5577H64.295Z" fill="#45116B"/>
<path d="M75 117.853V128.558H85.7051V107.115H75V117.853ZM85.7372 75H96.4423V85.7051H85.7372V75ZM21.4423 75H32.1474V85.7051H21.4423V75ZM64.2949 21.4102H75V32.1153H64.2949V21.4102Z" fill="#8F17F9"/>
<path d="M96.4423 64.295H107.147V75.0001H96.4423V64.295Z" fill="#8F17F9"/>
<path d="M75 85.7051V107.148H85.7051V96.4424H96.4423V85.7373L75 85.7051ZM96.4423 75.0001H107.147V85.7051H96.4423V75.0001ZM32.1474 64.295V75.0001H53.5898V64.295H32.1474ZM10.7051 75.0001H21.4102V85.7051H10.7051V75.0001Z" fill="#AC15F9"/>
<path d="M21.4423 42.8526H32.1474V53.5577H21.4423V42.8526ZM107.147 53.5577V75H117.853V53.5577H107.147ZM75 21.4102H85.7051V32.1153H75V21.4102Z" fill="#AC15F9"/>
<path d="M53.5897 128.59H64.2948V139.295H53.5897V128.59ZM96.4423 96.4424H107.147V107.147H96.4423V96.4424Z" fill="#200449"/>
<path d="M107.147 85.7051H117.852V96.4102H107.147V85.7051ZM64.2948 107.147V128.59H74.9999V96.4424H64.2948V107.147ZM42.8525 85.7051H53.5576V96.4102H42.8525V85.7051ZM42.8525 96.4424H32.1474V117.885H42.8525V96.4424Z" fill="#200449"/>
<path d="M85.7372 64.2949H96.4423V75H85.7372V64.2949ZM96.4423 53.5577H107.147V64.2628H96.4423V53.5577ZM42.8525 117.853H53.5576V128.558H42.8525V117.853Z" fill="#200449"/>
<path d="M85.7373 107.147V117.853H96.4424V96.4102H85.7373V107.147Z" fill="#39006A"/>
<path d="M96.4423 85.7051H107.147V96.4102H96.4423V85.7051Z" fill="#39006A"/>
<path d="M107.147 75H117.853V85.7051H107.147V75ZM32.1474 85.7051H10.7051V96.4102H21.4102V107.147H32.1474V96.4424H42.8525V75H32.1474V85.7051ZM32.1474 42.8526V64.2949H42.8525V53.5898H53.5576V42.8526H32.1474ZM85.7372 64.2949H96.4423V53.5898H85.7372V42.8526H64.2949V53.5577H75V64.2628H85.7372V64.2949Z" fill="#39006A"/>
</svg>
