<svg width="36" height="36" viewBox="0 0 36 36" fill="none" xmlns="http://www.w3.org/2000/svg">
<path fill-rule="evenodd" clip-rule="evenodd" d="M13.7374 9.39771L18 7L22.3688 9.45744L18.0826 11.922L13.7374 9.39771ZM12.018 10.3649L8.54304 12.3195L12.9935 14.8482L16.3818 12.9L12.018 10.3649ZM18.0783 13.8855L14.7089 15.8229L17.9468 17.6626L21.2804 15.7457L18.0783 13.8855ZM22.9769 16.7313L19.6622 18.6372L24.4626 21.3648L27.76 19.51L22.9769 16.7313ZM29.4795 18.5428L24.6777 15.7533L29.0708 13.2273L34 16L29.4795 18.5428ZM22.7334 22.3375L17.9518 19.6207L13.2466 22.3262L18 25L22.7334 22.3375ZM16.2364 18.646L12.9985 16.8063L8.26856 19.5261L11.5226 21.3565L16.2364 18.646ZM11.2832 15.8317L6.81378 13.2923L2 16L6.54461 18.5563L11.2832 15.8317ZM22.9813 14.7678L19.7791 12.9075L24.0927 10.4272L27.3468 12.2576L22.9813 14.7678Z" fill="white"/>
<path fill-rule="evenodd" clip-rule="evenodd" d="M1.73335 21.6532L4.99618 19.779L18 27.5L30.7906 19.9056L33.7334 21.6532L18 30.9968L1.73335 21.6532Z" fill="white"/>
</svg>
