<svg width="1996" height="1526" viewBox="0 0 1996 1526" fill="currentColor" xmlns="http://www.w3.org/2000/svg">
    <path d="M1876.8 587H1759.2C1759.2 528.6 1759.2 411 1759.2 352.6H1641.6C1641.6 411 1641.6 528.6 1641.6 587C1583.2 587 1465.6 587 1407.2 587V704.6H1524.8V822.2H1642.4V938.2H1760V820.6H1877.6V703H1995.2V585.4L1876.8 587Z" />
    <path d="M1642.4 235H1524.8V352.6H1642.4V235Z" />
    <path d="M1524.8 117.4H1407.2V235H1524.8V117.4Z" />
    <path d="M587.2 0.599976V118.2C855.2 118.2 1140 118.2 1408 118.2V0.599976C1408 0.599976 815.2 0.599976 587.2 0.599976Z" />
    <path d="M587.2 117.4H469.6V235H587.2V117.4Z" />
    <path d="M469.6 235H352V352.6H469.6V235Z" />
    <path d="M352 938.2C410.4 938.2 528 938.2 586.4 938.2V820.6H468.8V703H352V585.4H234.4V703H116.8V820.6H0V938.2C58.4 938.2 176 938.2 234.4 938.2C234.4 996.6 234.4 1114.2 234.4 1172.6H352C352 1114.2 352 996.6 352 938.2Z" />
    <path d="M469.6 1173.4H352V1291H469.6V1173.4Z" />
    <path d="M587.2 1290.2H469.6V1407.8H587.2V1290.2Z" />
    <path d="M586.4 1407.8V1525.4C854.4 1525.4 1139.2 1525.4 1407.2 1525.4V1407.8C1348.8 1407.8 774.4 1407.8 586.4 1407.8Z" />
    <path d="M1524.8 1290.2H1407.2V1407.8H1524.8V1290.2Z" />
    <path d="M1642.4 1173.4H1524.8V1291H1642.4V1173.4Z" />
    <path d="M821.6 352.6V470.2H704C704 698.2 704 945.4 704 1173.4H821.6V1055.8H939.2V1173.4H1056.8V1055.8H1174.4V1173.4H1292C1292 945.4 1292 698.2 1292 470.2H1174.4V352.6C1174.4 352.6 880 352.6 821.6 352.6Z" />
</svg>
