<svg width="221" height="336" fill="none" xmlns="http://www.w3.org/2000/svg">
  <g filter="url(#a)">
    <path d="M148.55 311.09H76.76v23.93h71.79v-23.93Z" fill="#FFED00"/>
    <path d="M196.55 287.16H28.76v23.93h167.79v-23.93Z" fill="#FFED00"/>
    <path d="M196.55 119.65H28.76v23.93h167.79v-23.93Zm0-23.93H28.76v23.93h167.79V95.72Z" fill="red"/>
    <path d="M220.48 263.23H4.83002v23.93H220.48v-23.93Z" fill="#FFED00"/>
    <path d="M220.48 239.3H4.83002v23.93H220.48V239.3Z" fill="#FFC400"/>
    <path d="M220.48 215.37H4.83002v23.93H220.48v-23.93Z" fill="#FF8300"/>
    <path d="M220.48 191.44H4.83002v23.93H220.48v-23.93Z" fill="#FF6D00"/>
    <path d="M220.48 167.51H4.83002v23.93H220.48v-23.93Z" fill="#FF4800"/>
    <path d="M220.48 143.58H4.83002v23.93H220.48v-23.93ZM76.76 71.79H52.83v23.9301h23.93V71.79Zm23.93 0H76.76v23.9301h23.93V71.79Zm0-23.93H76.76v23.93h23.93V47.86Zm47.86 23.93h-23.93v23.9301h23.93V71.79Z" fill="red"/>
    <path d="M172.48 71.79h-23.93v23.9301h23.93V71.79Zm0-23.93h-23.93v23.93h23.93V47.86Zm0-23.9299h-23.93V47.86h23.93V23.9301ZM124.62 0h-23.93v23.93h23.93V0Z" fill="red"/>
    <path d="M68.1 140.61h-8.15v16.3h8.15v-16.3Z" fill="#0D1316"/>
    <path d="M59.95 148.75H51.8v8.15h8.15v-8.15Zm16.3-8.14H68.1v8.15h8.15v-8.15Zm8.15 0h-8.15v8.15h8.15v-8.15ZM59.95 156.9H51.8v8.15h8.15v-8.15Z" fill="#0D1316"/>
    <path d="M68.1 156.9h-8.15v8.15h8.15v-8.15Zm-8.15 8.15H51.8v8.15h8.15v-8.15Zm8.15 0h-8.15v8.15h8.15v-8.15Z" fill="#0D1316"/>
    <path d="M59.95 173.2H51.8v8.15h8.15v-8.15Z" fill="#0D1316"/>
    <path d="M68.1 173.2h-8.15v8.15h8.15v-8.15Zm-8.15 8.15H51.8v8.15h8.15v-8.15Zm8.15 0h-8.15v8.15h8.15v-8.15Zm-8.15 8.15H51.8v8.15h8.15v-8.15Zm8.15 0h-8.15v8.15h8.15v-8.15Zm-8.15 8.15H51.8v8.15h8.15v-8.15Zm8.15 0h-8.15v8.15h8.15v-8.15Z" fill="#0D1316"/>
    <path d="M59.95 205.79H51.8v8.15h8.15v-8.15Z" fill="#0D1316"/>
    <path d="M68.1 205.79h-8.15v8.15h8.15v-8.15Zm-8.15 8.15H51.8v8.15h8.15v-8.15Zm8.15 0h-8.15v8.15h8.15v-8.15Zm-8.15 8.15H51.8v8.15h8.15v-8.15Zm8.15 0h-8.15v8.15h8.15v-8.15Zm-8.15 8.15H51.8v8.15h8.15v-8.15Zm8.15 0h-8.15v8.15h8.15v-8.15Z" fill="#0D1316"/>
    <path d="M59.95 238.39H51.8v8.15h8.15v-8.15Z" fill="#0D1316"/>
    <path d="M68.1 238.39h-8.15v8.15h8.15v-8.15Zm-8.15 8.15H51.8v8.15h8.15v-8.15Zm8.15 0h-8.15v8.15h8.15v-8.15Z" fill="#0D1316"/>
    <path d="M59.95 254.69H51.8v8.15h8.15v-8.15ZM51.8 156.9h-8.15v8.15h8.15v-8.15Zm0 8.15h-8.15v8.15h8.15v-8.15Z" fill="#0D1316"/>
    <path d="M51.8 173.2h-8.15v8.15h8.15v-8.15Zm0 8.15h-8.15v8.15h8.15v-8.15Zm0 8.15h-8.15v8.15h8.15v-8.15Zm0 8.15h-8.15v8.15h8.15v-8.15Z" fill="#0D1316"/>
    <path d="M51.8 205.79h-8.15v8.15h8.15v-8.15Zm0 8.15h-8.15v8.15h8.15v-8.15Zm0 8.15h-8.15v8.15h8.15v-8.15Zm0 8.15h-8.15v8.15h8.15v-8.15Z" fill="#0D1316"/>
    <path d="M51.8 238.39h-8.15v8.15h8.15v-8.15Zm0 8.15h-8.15v8.15h8.15v-8.15Z" fill="#0D1316"/>
    <path d="M51.8 254.69h-8.15v8.15h8.15v-8.15Zm16.3 0h-8.15v24.45h8.15v-24.45Z" fill="#0D1316"/>
    <path d="M68.1 262.83h-8.15v8.15h8.15v-8.15Z" fill="#0D1316"/>
    <path d="M59.95 262.83H51.8v8.15h8.15v-8.15Zm24.446-105.931h8.151v-16.3h-8.151v16.3Z" fill="#0D1316"/>
    <path d="M92.543 156.907h8.15v-8.15h-8.15v8.15Z" fill="#0D1316"/>
    <path d="M92.543 165.055h8.15v-8.15h-8.15v8.15Z" fill="#0D1316"/>
    <path d="M84.396 165.055h8.15v-8.15h-8.15v8.15Z" fill="#0D1316"/>
    <path d="M92.543 173.202h8.15v-8.15h-8.15v8.15Z" fill="#0D1316"/>
    <path d="M84.396 173.202h8.15v-8.15h-8.15v8.15Z" fill="#0D1316"/>
    <path d="M92.543 181.349h8.15v-8.15h-8.15v8.15Z" fill="#0D1316"/>
    <path d="M84.396 181.349h8.15v-8.15h-8.15v8.15Z" fill="#0D1316"/>
    <path d="M84.396 189.496h8.15v-8.15h-8.15v8.15Zm8.147 16.294h8.15v-8.15h-8.15v8.15Zm.001 16.304h8.15v-16.3h-8.15v16.3Z" fill="#0D1316"/>
    <path d="M84.396 213.947h8.15v-8.15h-8.15v8.15Zm-8.158 8.147h8.15v-8.15h-8.15v8.15Zm16.305 8.147h8.15v-8.15h-8.15v8.15Z" fill="#0D1316"/>
    <path d="M84.396 230.242h8.151v-16.3h-8.151v16.3Z" fill="#0D1316"/>
    <path d="M92.543 238.388h8.15v-8.15h-8.15v8.15Z" fill="#0D1316"/>
    <path d="M84.396 238.388h8.15v-8.15h-8.15v8.15Z" fill="#0D1316"/>
    <path d="M92.543 246.535h8.15v-8.15h-8.15v8.15Z" fill="#0D1316"/>
    <path d="M84.396 246.535h8.15v-8.15h-8.15v8.15Z" fill="#0D1316"/>
    <path d="M92.543 254.682h8.15v-8.15h-8.15v8.15Z" fill="#0D1316"/>
    <path d="M84.396 254.682h8.15v-8.15h-8.15v8.15Z" fill="#0D1316"/>
    <path d="M92.543 262.829h8.15v-8.15h-8.15v8.15Zm8.146-97.774h8.15v-8.15h-8.15v8.15Z" fill="#0D1316"/>
    <path d="M100.689 173.202h8.15v-8.15h-8.15v8.15Zm0 32.588h8.15v-8.15h-8.15v8.15Z" fill="#0D1316"/>
    <path d="M100.689 197.643h8.15v-8.15h-8.15v8.15Zm.001 24.451h8.15v-16.3h-8.15v16.3Z" fill="#0D1316"/>
    <path d="M100.689 230.241h8.15v-8.15h-8.15v8.15Z" fill="#0D1316"/>
    <path d="M100.689 238.388h8.15v-8.15h-8.15v8.15Z" fill="#0D1316"/>
    <path d="M100.689 246.535h8.15v-8.15h-8.15v8.15Z" fill="#0D1316"/>
    <path d="M100.689 254.682h8.15v-8.15h-8.15v8.15Z" fill="#0D1316"/>
    <path d="M100.689 262.829h8.15v-8.15h-8.15v8.15Zm8.142 16.304h8.15v-8.15h-8.15v8.15Z" fill="#0D1316"/>
    <path d="M108.831 287.28h8.15v-8.15h-8.15v8.15Z" fill="#0D1316"/>
    <path d="M108.831 295.427h8.15v-8.15h-8.15v8.15Z" fill="#0D1316"/>
    <path d="M108.831 303.574h8.15v-8.15h-8.15v8.15Zm-8.147-16.294h8.15v-8.15h-8.15v8.15Z" fill="#0D1316"/>
    <path d="M100.684 295.427h8.15v-8.15h-8.15v8.15Z" fill="#0D1316"/>
    <path d="M92.537 295.427h8.15v-8.15h-8.15v8.15Z" fill="#0D1316"/>
    <path d="M100.684 303.574h8.15v-8.15h-8.15v8.15Zm16.299-16.294h8.15v-8.15h-8.15v8.15Z" fill="#0D1316"/>
    <path d="M116.983 295.427h8.15v-8.15h-8.15v8.15Z" fill="#0D1316"/>
    <path d="M125.13 295.427h8.15v-8.15h-8.15v8.15Z" fill="#0D1316"/>
    <path d="M116.983 303.574h8.15v-8.15h-8.15v8.15Zm-8.152 8.147h8.15v-8.15h-8.15v8.15Zm-24.435-48.892h8.15v-8.15h-8.15v8.15Zm0 16.306h8.15v-16.3h-8.15v16.3Z" fill="#0D1316"/>
    <path d="M92.544 270.986h8.15v-8.15h-8.15v8.15ZM141.43 140.61h-8.15v16.3h8.15v-16.3Zm8.15 0h-8.15v8.15h8.15v-8.15Z" fill="#0D1316"/>
    <path d="M157.73 140.61h-8.15v8.15h8.15v-8.15Zm-24.44 8.14h-8.15v16.3h8.15v-16.3Z" fill="#0D1316"/>
    <path d="M141.43 156.9h-8.15v8.15h8.15v-8.15Zm-8.14 8.15h-8.15v8.15h8.15v-8.15Z" fill="#0D1316"/>
    <path d="M141.43 165.05h-8.15v8.15h8.15v-8.15Z" fill="#0D1316"/>
    <path d="M133.29 173.2h-8.15v8.15h8.15v-8.15Z" fill="#0D1316"/>
    <path d="M141.43 173.2h-8.15v8.15h8.15v-8.15Zm-8.14 8.15h-8.15v8.15h8.15v-8.15Z" fill="#0D1316"/>
    <path d="M141.43 181.35h-8.15v8.15h8.15v-8.15Zm-8.14 8.15h-8.15v8.15h8.15v-8.15Z" fill="#0D1316"/>
    <path d="M141.43 189.5h-8.15v8.15h8.15v-8.15Zm-8.14 8.15h-8.15v8.15h8.15v-8.15Z" fill="#0D1316"/>
    <path d="M141.43 197.65h-8.15v8.15h8.15v-8.15Z" fill="#0D1316"/>
    <path d="M133.29 205.79h-8.15v8.15h8.15v-8.15Z" fill="#0D1316"/>
    <path d="M141.43 205.79h-8.15v8.15h8.15v-8.15Zm-8.14 8.15h-8.15v8.15h8.15v-8.15Z" fill="#0D1316"/>
    <path d="M141.43 213.94h-8.15v8.15h8.15v-8.15Zm-8.14 8.15h-8.15v8.15h8.15v-8.15Z" fill="#0D1316"/>
    <path d="M141.43 222.09h-8.15v8.15h8.15v-8.15Zm-8.14 8.15h-8.15v8.15h8.15v-8.15Z" fill="#0D1316"/>
    <path d="M141.43 230.24h-8.15v8.15h8.15v-8.15Z" fill="#0D1316"/>
    <path d="M133.29 238.39h-8.15v8.15h8.15v-8.15Z" fill="#0D1316"/>
    <path d="M141.43 238.39h-8.15v8.15h8.15v-8.15Zm-8.14 8.15h-8.15v8.15h8.15v-8.15Zm-8.15-89.64h-8.15v16.3h8.15v-16.3Zm0 16.3h-8.15v8.15h8.15v-8.15Zm0 8.15h-8.15v8.15h8.15v-8.15Zm0 8.15h-8.15v8.15h8.15v-8.15Zm0 8.15h-8.15v8.15h8.15v-8.15Z" fill="#0D1316"/>
    <path d="M125.14 205.79h-8.15v8.15h8.15v-8.15Zm0 8.15h-8.15v8.15h8.15v-8.15Zm0 8.15h-8.15v8.15h8.15v-8.15Zm0 8.15h-8.15v8.15h8.15v-8.15Z" fill="#0D1316"/>
    <path d="M125.14 238.39h-8.15v8.15h8.15v-8.15Z" fill="#0D1316"/>
    <path d="M125.14 246.54h-8.15v16.3h8.15v-16.3Zm16.29 0h-8.15v8.15h8.15v-8.15Z" fill="#0D1316"/>
    <path d="M133.29 254.69h-8.15v16.3h8.15v-16.3Z" fill="#0D1316"/>
    <path d="M141.43 254.69h-8.15v8.15h8.15v-8.15Z" fill="#0D1316"/>
    <path d="M141.43 262.83h-8.15v16.3h8.15v-16.3Zm16.299-105.931h8.15v-16.3h-8.15v16.3Z" fill="#0D1316"/>
    <path d="M165.875 165.056h8.15v-16.3h-8.15v16.3Z" fill="#0D1316"/>
    <path d="M157.728 165.055h8.15v-8.15h-8.15v8.15Z" fill="#0D1316"/>
    <path d="M165.875 173.202h8.15v-8.15h-8.15v8.15Z" fill="#0D1316"/>
    <path d="M157.728 173.202h8.15v-8.15h-8.15v8.15Z" fill="#0D1316"/>
    <path d="M165.875 181.349h8.15v-8.15h-8.15v8.15Z" fill="#0D1316"/>
    <path d="M157.728 181.349h8.15v-8.15h-8.15v8.15Z" fill="#0D1316"/>
    <path d="M157.728 189.496h8.15v-8.15h-8.15v8.15Zm8.147 16.294h8.15v-8.15h-8.15v8.15Zm.001 16.304h8.15v-16.3h-8.15v16.3Z" fill="#0D1316"/>
    <path d="M157.728 213.947h8.15v-8.15h-8.15v8.15Z" fill="#0D1316"/>
    <path d="M149.581 222.094h8.15v-8.15h-8.15v8.15Zm16.294 8.147h8.15v-8.15h-8.15v8.15Z" fill="#0D1316"/>
    <path d="M157.729 230.242h8.15v-16.3h-8.15v16.3Z" fill="#0D1316"/>
    <path d="M165.875 238.388h8.15v-8.15h-8.15v8.15Z" fill="#0D1316"/>
    <path d="M157.728 238.388h8.15v-8.15h-8.15v8.15Z" fill="#0D1316"/>
    <path d="M165.875 246.535h8.15v-8.15h-8.15v8.15Z" fill="#0D1316"/>
    <path d="M157.728 246.535h8.15v-8.15h-8.15v8.15Z" fill="#0D1316"/>
    <path d="M165.875 254.682h8.15v-8.15h-8.15v8.15Z" fill="#0D1316"/>
    <path d="M157.728 254.682h8.15v-8.15h-8.15v8.15Z" fill="#0D1316"/>
    <path d="M165.875 262.829h8.15v-8.15h-8.15v8.15Zm8.148-97.774h8.15v-8.15h-8.15v8.15Z" fill="#0D1316"/>
    <path d="M174.023 173.202h8.15v-8.15h-8.15v8.15Zm0 32.589h8.15v-16.3h-8.15v16.3Zm.001 16.303h8.15v-16.3h-8.15v16.3Z" fill="#0D1316"/>
    <path d="M174.023 230.241h8.15v-8.15h-8.15v8.15Z" fill="#0D1316"/>
    <path d="M174.023 238.388h8.15v-8.15h-8.15v8.15Z" fill="#0D1316"/>
    <path d="M174.023 246.535h8.15v-8.15h-8.15v8.15Z" fill="#0D1316"/>
    <path d="M174.023 254.682h8.15v-8.15h-8.15v8.15Z" fill="#0D1316"/>
    <path d="M174.023 262.829h8.15v-8.15h-8.15v8.15Zm-16.295 16.297h8.15v-24.45h-8.15v24.45Z" fill="#0D1316"/>
    <path d="M157.727 270.986h16.3v-8.15h-16.3v8.15Z" fill="#0D1316"/>
  </g>
  <defs>
    <filter id="a" x=".830017" y="0" width="223.65" height="343.02" filterUnits="userSpaceOnUse" color-interpolation-filters="sRGB">
      <feFlood flood-opacity="0" result="BackgroundImageFix"/>
      <feColorMatrix in="SourceAlpha" values="0 0 0 0 0 0 0 0 0 0 0 0 0 0 0 0 0 0 127 0" result="hardAlpha"/>
      <feOffset dy="4"/>
      <feGaussianBlur stdDeviation="2"/>
      <feComposite in2="hardAlpha" operator="out"/>
      <feColorMatrix values="0 0 0 0 0 0 0 0 0 0 0 0 0 0 0 0 0 0 0.25 0"/>
      <feBlend in2="BackgroundImageFix" result="effect1_dropShadow_3_3"/>
      <feBlend in="SourceGraphic" in2="effect1_dropShadow_3_3" result="shape"/>
    </filter>
  </defs>
</svg>
