<svg width="830" height="336" viewBox="0 0 830 336" fill="none" xmlns="http://www.w3.org/2000/svg">
<g clip-path="url(#clip0_303_220)">
<path d="M717.55 311.09H645.76V335.02H717.55V311.09Z" fill="#FFED00"/>
<path d="M765.55 287.16H597.76V311.09H765.55V287.16Z" fill="#FFED00"/>
<path d="M765.55 119.65H597.76V143.58H765.55V119.65Z" fill="#FF0000"/>
<path d="M765.55 95.7202H597.76V119.65H765.55V95.7202Z" fill="#FF0000"/>
<path d="M789.48 263.23H573.83V287.16H789.48V263.23Z" fill="#FFED00"/>
<path d="M789.48 239.3H573.83V263.23H789.48V239.3Z" fill="#FFC400"/>
<path d="M789.48 215.37H573.83V239.3H789.48V215.37Z" fill="#FF8300"/>
<path d="M789.48 191.44H573.83V215.37H789.48V191.44Z" fill="#FF6D00"/>
<path d="M789.48 167.51H573.83V191.44H789.48V167.51Z" fill="#FF4800"/>
<path d="M789.48 143.58H573.83V167.51H789.48V143.58Z" fill="#FF0000"/>
<path d="M645.76 71.79H621.83V95.7201H645.76V71.79Z" fill="#FF0000"/>
<path d="M669.69 71.79H645.76V95.7201H669.69V71.79Z" fill="#FF0000"/>
<path d="M669.69 47.8599H645.76V71.7899H669.69V47.8599Z" fill="#FF0000"/>
<path d="M717.549 71.79H693.619V95.7201H717.549V71.79Z" fill="#FF0000"/>
<path d="M741.481 71.79H717.551V95.7201H741.481V71.79Z" fill="#FF0000"/>
<path d="M741.481 47.8599H717.551V71.7899H741.481V47.8599Z" fill="#FF0000"/>
<path d="M741.481 23.9302H717.551V47.8601H741.481V23.9302Z" fill="#FF0000"/>
<path d="M693.619 0H669.689V23.93H693.619V0Z" fill="#FF0000"/>
<path d="M637.099 140.61H628.949V156.91H637.099V140.61Z" fill="#0D1316"/>
<path d="M628.951 148.75H620.801V156.9H628.951V148.75Z" fill="#0D1316"/>
<path d="M645.25 140.61H637.1V148.76H645.25V140.61Z" fill="#0D1316"/>
<path d="M653.4 140.61H645.25V148.76H653.4V140.61Z" fill="#0D1316"/>
<path d="M628.951 156.9H620.801V165.05H628.951V156.9Z" fill="#0D1316"/>
<path d="M637.099 156.9H628.949V165.05H637.099V156.9Z" fill="#0D1316"/>
<path d="M628.951 165.05H620.801V173.2H628.951V165.05Z" fill="#0D1316"/>
<path d="M637.099 165.05H628.949V173.2H637.099V165.05Z" fill="#0D1316"/>
<path d="M628.951 173.2H620.801V181.35H628.951V173.2Z" fill="#0D1316"/>
<path d="M637.099 173.2H628.949V181.35H637.099V173.2Z" fill="#0D1316"/>
<path d="M628.951 181.35H620.801V189.5H628.951V181.35Z" fill="#0D1316"/>
<path d="M637.099 181.35H628.949V189.5H637.099V181.35Z" fill="#0D1316"/>
<path d="M628.951 189.5H620.801V197.65H628.951V189.5Z" fill="#0D1316"/>
<path d="M637.099 189.5H628.949V197.65H637.099V189.5Z" fill="#0D1316"/>
<path d="M628.951 197.65H620.801V205.8H628.951V197.65Z" fill="#0D1316"/>
<path d="M637.099 197.65H628.949V205.8H637.099V197.65Z" fill="#0D1316"/>
<path d="M628.951 205.79H620.801V213.94H628.951V205.79Z" fill="#0D1316"/>
<path d="M637.099 205.79H628.949V213.94H637.099V205.79Z" fill="#0D1316"/>
<path d="M628.951 213.94H620.801V222.09H628.951V213.94Z" fill="#0D1316"/>
<path d="M637.099 213.94H628.949V222.09H637.099V213.94Z" fill="#0D1316"/>
<path d="M628.951 222.09H620.801V230.24H628.951V222.09Z" fill="#0D1316"/>
<path d="M637.099 222.09H628.949V230.24H637.099V222.09Z" fill="#0D1316"/>
<path d="M628.951 230.24H620.801V238.39H628.951V230.24Z" fill="#0D1316"/>
<path d="M637.099 230.24H628.949V238.39H637.099V230.24Z" fill="#0D1316"/>
<path d="M628.951 238.39H620.801V246.54H628.951V238.39Z" fill="#0D1316"/>
<path d="M637.099 238.39H628.949V246.54H637.099V238.39Z" fill="#0D1316"/>
<path d="M628.951 246.54H620.801V254.69H628.951V246.54Z" fill="#0D1316"/>
<path d="M637.099 246.54H628.949V254.69H637.099V246.54Z" fill="#0D1316"/>
<path d="M628.951 254.69H620.801V262.84H628.951V254.69Z" fill="#0D1316"/>
<path d="M620.8 156.9H612.65V165.05H620.8V156.9Z" fill="#0D1316"/>
<path d="M620.8 165.05H612.65V173.2H620.8V165.05Z" fill="#0D1316"/>
<path d="M620.8 173.2H612.65V181.35H620.8V173.2Z" fill="#0D1316"/>
<path d="M620.8 181.35H612.65V189.5H620.8V181.35Z" fill="#0D1316"/>
<path d="M620.8 189.5H612.65V197.65H620.8V189.5Z" fill="#0D1316"/>
<path d="M620.8 197.65H612.65V205.8H620.8V197.65Z" fill="#0D1316"/>
<path d="M620.8 205.79H612.65V213.94H620.8V205.79Z" fill="#0D1316"/>
<path d="M620.8 213.94H612.65V222.09H620.8V213.94Z" fill="#0D1316"/>
<path d="M620.8 222.09H612.65V230.24H620.8V222.09Z" fill="#0D1316"/>
<path d="M620.8 230.24H612.65V238.39H620.8V230.24Z" fill="#0D1316"/>
<path d="M620.8 238.39H612.65V246.54H620.8V238.39Z" fill="#0D1316"/>
<path d="M620.8 246.54H612.65V254.69H620.8V246.54Z" fill="#0D1316"/>
<path d="M620.8 254.69H612.65V262.84H620.8V254.69Z" fill="#0D1316"/>
<path d="M637.099 254.69H628.949V279.14H637.099V254.69Z" fill="#0D1316"/>
<path d="M637.099 262.83H628.949V270.98H637.099V262.83Z" fill="#0D1316"/>
<path d="M628.951 262.83H620.801V270.98H628.951V262.83Z" fill="#0D1316"/>
<path d="M653.396 156.899H661.547V140.599H653.396V156.899Z" fill="#0D1316"/>
<path d="M661.543 156.907H669.693V148.757H661.543V156.907Z" fill="#0D1316"/>
<path d="M661.543 165.055H669.693V156.905H661.543V165.055Z" fill="#0D1316"/>
<path d="M653.396 165.055H661.547V156.905H653.396V165.055Z" fill="#0D1316"/>
<path d="M661.543 173.202H669.693V165.052H661.543V173.202Z" fill="#0D1316"/>
<path d="M653.396 173.202H661.547V165.052H653.396V173.202Z" fill="#0D1316"/>
<path d="M661.543 181.349H669.693V173.199H661.543V181.349Z" fill="#0D1316"/>
<path d="M653.396 181.349H661.547V173.199H653.396V181.349Z" fill="#0D1316"/>
<path d="M653.396 189.496H661.547V181.346H653.396V189.496Z" fill="#0D1316"/>
<path d="M661.543 205.79H669.693V197.64H661.543V205.79Z" fill="#0D1316"/>
<path d="M661.545 222.094H669.695V205.794H661.545V222.094Z" fill="#0D1316"/>
<path d="M653.396 213.947H661.547V205.797H653.396V213.947Z" fill="#0D1316"/>
<path d="M645.238 222.094H653.388V213.944H645.238V222.094Z" fill="#0D1316"/>
<path d="M661.543 230.241H669.693V222.091H661.543V230.241Z" fill="#0D1316"/>
<path d="M653.396 230.242H661.547V213.942H653.396V230.242Z" fill="#0D1316"/>
<path d="M661.543 238.388H669.693V230.238H661.543V238.388Z" fill="#0D1316"/>
<path d="M653.396 238.388H661.547V230.238H653.396V238.388Z" fill="#0D1316"/>
<path d="M661.543 246.535H669.693V238.385H661.543V246.535Z" fill="#0D1316"/>
<path d="M653.396 246.535H661.547V238.385H653.396V246.535Z" fill="#0D1316"/>
<path d="M661.543 254.682H669.693V246.532H661.543V254.682Z" fill="#0D1316"/>
<path d="M653.396 254.682H661.547V246.532H653.396V254.682Z" fill="#0D1316"/>
<path d="M661.543 262.829H669.693V254.679H661.543V262.829Z" fill="#0D1316"/>
<path d="M669.689 165.055H677.839V156.905H669.689V165.055Z" fill="#0D1316"/>
<path d="M669.689 173.202H677.839V165.052H669.689V173.202Z" fill="#0D1316"/>
<path d="M669.689 205.79H677.839V197.64H669.689V205.79Z" fill="#0D1316"/>
<path d="M669.689 197.643H677.839V189.493H669.689V197.643Z" fill="#0D1316"/>
<path d="M669.689 222.094H677.839V205.794H669.689V222.094Z" fill="#0D1316"/>
<path d="M669.689 230.241H677.839V222.091H669.689V230.241Z" fill="#0D1316"/>
<path d="M669.689 238.388H677.839V230.238H669.689V238.388Z" fill="#0D1316"/>
<path d="M669.689 246.535H677.839V238.385H669.689V246.535Z" fill="#0D1316"/>
<path d="M669.689 254.682H677.839V246.532H669.689V254.682Z" fill="#0D1316"/>
<path d="M669.689 262.829H677.839V254.679H669.689V262.829Z" fill="#0D1316"/>
<path d="M677.83 279.133H685.98V270.983H677.83V279.133Z" fill="#0D1316"/>
<path d="M677.83 287.28H685.98V279.13H677.83V287.28Z" fill="#0D1316"/>
<path d="M677.83 295.427H685.98V287.277H677.83V295.427Z" fill="#0D1316"/>
<path d="M677.83 303.574H685.98V295.424H677.83V303.574Z" fill="#0D1316"/>
<path d="M669.684 287.28H677.834V279.13H669.684V287.28Z" fill="#0D1316"/>
<path d="M669.684 295.427H677.834V287.277H669.684V295.427Z" fill="#0D1316"/>
<path d="M661.537 295.427H669.687V287.277H661.537V295.427Z" fill="#0D1316"/>
<path d="M669.684 303.574H677.834V295.424H669.684V303.574Z" fill="#0D1316"/>
<path d="M685.982 287.28H694.132V279.13H685.982V287.28Z" fill="#0D1316"/>
<path d="M685.982 295.427H694.132V287.277H685.982V295.427Z" fill="#0D1316"/>
<path d="M694.131 295.427H702.281V287.277H694.131V295.427Z" fill="#0D1316"/>
<path d="M685.982 303.574H694.132V295.424H685.982V303.574Z" fill="#0D1316"/>
<path d="M677.83 311.721H685.98V303.571H677.83V311.721Z" fill="#0D1316"/>
<path d="M653.396 262.829H661.547V254.679H653.396V262.829Z" fill="#0D1316"/>
<path d="M653.396 279.135H661.547V262.835H653.396V279.135Z" fill="#0D1316"/>
<path d="M661.545 270.986H669.695V262.836H661.545V270.986Z" fill="#0D1316"/>
<path d="M710.429 140.61H702.279V156.91H710.429V140.61Z" fill="#0D1316"/>
<path d="M718.58 140.61H710.43V148.76H718.58V140.61Z" fill="#0D1316"/>
<path d="M726.73 140.61H718.58V148.76H726.73V140.61Z" fill="#0D1316"/>
<path d="M702.291 148.75H694.141V165.05H702.291V148.75Z" fill="#0D1316"/>
<path d="M710.429 156.9H702.279V165.05H710.429V156.9Z" fill="#0D1316"/>
<path d="M702.291 165.05H694.141V173.2H702.291V165.05Z" fill="#0D1316"/>
<path d="M710.429 165.05H702.279V173.2H710.429V165.05Z" fill="#0D1316"/>
<path d="M702.291 173.2H694.141V181.35H702.291V173.2Z" fill="#0D1316"/>
<path d="M710.429 173.2H702.279V181.35H710.429V173.2Z" fill="#0D1316"/>
<path d="M702.291 181.35H694.141V189.5H702.291V181.35Z" fill="#0D1316"/>
<path d="M710.429 181.35H702.279V189.5H710.429V181.35Z" fill="#0D1316"/>
<path d="M702.291 189.5H694.141V197.65H702.291V189.5Z" fill="#0D1316"/>
<path d="M710.429 189.5H702.279V197.65H710.429V189.5Z" fill="#0D1316"/>
<path d="M702.291 197.65H694.141V205.8H702.291V197.65Z" fill="#0D1316"/>
<path d="M710.429 197.65H702.279V205.8H710.429V197.65Z" fill="#0D1316"/>
<path d="M702.291 205.79H694.141V213.94H702.291V205.79Z" fill="#0D1316"/>
<path d="M710.429 205.79H702.279V213.94H710.429V205.79Z" fill="#0D1316"/>
<path d="M702.291 213.94H694.141V222.09H702.291V213.94Z" fill="#0D1316"/>
<path d="M710.429 213.94H702.279V222.09H710.429V213.94Z" fill="#0D1316"/>
<path d="M702.291 222.09H694.141V230.24H702.291V222.09Z" fill="#0D1316"/>
<path d="M710.429 222.09H702.279V230.24H710.429V222.09Z" fill="#0D1316"/>
<path d="M702.291 230.24H694.141V238.39H702.291V230.24Z" fill="#0D1316"/>
<path d="M710.429 230.24H702.279V238.39H710.429V230.24Z" fill="#0D1316"/>
<path d="M702.291 238.39H694.141V246.54H702.291V238.39Z" fill="#0D1316"/>
<path d="M710.429 238.39H702.279V246.54H710.429V238.39Z" fill="#0D1316"/>
<path d="M702.291 246.54H694.141V254.69H702.291V246.54Z" fill="#0D1316"/>
<path d="M694.14 156.9H685.99V173.2H694.14V156.9Z" fill="#0D1316"/>
<path d="M694.14 173.2H685.99V181.35H694.14V173.2Z" fill="#0D1316"/>
<path d="M694.14 181.35H685.99V189.5H694.14V181.35Z" fill="#0D1316"/>
<path d="M694.14 189.5H685.99V197.65H694.14V189.5Z" fill="#0D1316"/>
<path d="M694.14 197.65H685.99V205.8H694.14V197.65Z" fill="#0D1316"/>
<path d="M694.14 205.79H685.99V213.94H694.14V205.79Z" fill="#0D1316"/>
<path d="M694.14 213.94H685.99V222.09H694.14V213.94Z" fill="#0D1316"/>
<path d="M694.14 222.09H685.99V230.24H694.14V222.09Z" fill="#0D1316"/>
<path d="M694.14 230.24H685.99V238.39H694.14V230.24Z" fill="#0D1316"/>
<path d="M694.14 238.39H685.99V246.54H694.14V238.39Z" fill="#0D1316"/>
<path d="M694.14 246.54H685.99V262.84H694.14V246.54Z" fill="#0D1316"/>
<path d="M710.429 246.54H702.279V254.69H710.429V246.54Z" fill="#0D1316"/>
<path d="M702.291 254.69H694.141V270.99H702.291V254.69Z" fill="#0D1316"/>
<path d="M710.429 254.69H702.279V262.84H710.429V254.69Z" fill="#0D1316"/>
<path d="M710.429 262.83H702.279V279.13H710.429V262.83Z" fill="#0D1316"/>
<path d="M726.729 156.899H734.879V140.599H726.729V156.899Z" fill="#0D1316"/>
<path d="M734.875 165.056H743.025V148.756H734.875V165.056Z" fill="#0D1316"/>
<path d="M726.729 165.055H734.878V156.905H726.729V165.055Z" fill="#0D1316"/>
<path d="M734.875 173.202H743.025V165.052H734.875V173.202Z" fill="#0D1316"/>
<path d="M726.729 173.202H734.878V165.052H726.729V173.202Z" fill="#0D1316"/>
<path d="M734.875 181.349H743.025V173.199H734.875V181.349Z" fill="#0D1316"/>
<path d="M726.729 181.349H734.878V173.199H726.729V181.349Z" fill="#0D1316"/>
<path d="M726.729 189.496H734.878V181.346H726.729V189.496Z" fill="#0D1316"/>
<path d="M734.875 205.79H743.025V197.64H734.875V205.79Z" fill="#0D1316"/>
<path d="M734.875 222.094H743.025V205.794H734.875V222.094Z" fill="#0D1316"/>
<path d="M726.729 213.947H734.878V205.797H726.729V213.947Z" fill="#0D1316"/>
<path d="M718.58 222.094H726.73V213.944H718.58V222.094Z" fill="#0D1316"/>
<path d="M734.875 230.241H743.025V222.091H734.875V230.241Z" fill="#0D1316"/>
<path d="M726.729 230.242H734.879V213.942H726.729V230.242Z" fill="#0D1316"/>
<path d="M734.875 238.388H743.025V230.238H734.875V238.388Z" fill="#0D1316"/>
<path d="M726.729 238.388H734.878V230.238H726.729V238.388Z" fill="#0D1316"/>
<path d="M734.875 246.535H743.025V238.385H734.875V246.535Z" fill="#0D1316"/>
<path d="M726.729 246.535H734.878V238.385H726.729V246.535Z" fill="#0D1316"/>
<path d="M734.875 254.682H743.025V246.532H734.875V254.682Z" fill="#0D1316"/>
<path d="M726.729 254.682H734.878V246.532H726.729V254.682Z" fill="#0D1316"/>
<path d="M734.875 262.829H743.025V254.679H734.875V262.829Z" fill="#0D1316"/>
<path d="M743.023 165.055H751.173V156.905H743.023V165.055Z" fill="#0D1316"/>
<path d="M743.023 173.202H751.173V165.052H743.023V173.202Z" fill="#0D1316"/>
<path d="M743.023 205.791H751.173V189.491H743.023V205.791Z" fill="#0D1316"/>
<path d="M743.023 222.094H751.173V205.794H743.023V222.094Z" fill="#0D1316"/>
<path d="M743.023 230.241H751.173V222.091H743.023V230.241Z" fill="#0D1316"/>
<path d="M743.023 238.388H751.173V230.238H743.023V238.388Z" fill="#0D1316"/>
<path d="M743.023 246.535H751.173V238.385H743.023V246.535Z" fill="#0D1316"/>
<path d="M743.023 254.682H751.173V246.532H743.023V254.682Z" fill="#0D1316"/>
<path d="M743.023 262.829H751.173V254.679H743.023V262.829Z" fill="#0D1316"/>
<path d="M726.729 279.126H734.878V254.676H726.729V279.126Z" fill="#0D1316"/>
<path d="M726.727 270.986H743.027V262.836H726.727V270.986Z" fill="#0D1316"/>
<path d="M10.18 200.48C6.39999 200.48 3.39 200.48 0 200.48C0 194.04 0 187.82 0 181C3.13 181 6.33998 181 10.04 181C10.04 168.57 10.04 156.73 10.04 144.67C23.59 144.67 36.64 144.67 50.08 144.67C50.08 151.02 50.08 157.35 50.08 164.05C46.34 164.05 42.79 164.05 38.98 164.05C38.98 169.65 38.98 174.9 38.98 180.68C54.82 180.68 70.7 180.68 87.22 180.68C87.22 217.84 87.22 254.48 87.22 291.55C90.95 291.55 83.8 291.55 87.22 291.55C87.22 298.08 87.22 304.19 87.22 310.7C74.52 310.7 71.95 310.7 58.69 310.7C58.69 274.06 58.69 237.51 58.69 200.71C51.99 200.71 45.71 200.71 38.95 200.71C38.95 248.96 38.95 262.03 38.95 310.7C29.22 310.7 19.96 310.7 10.19 310.7C10.18 262.44 10.18 249.37 10.18 200.48Z" fill="white"/>
<path d="M285.94 310.72C285.94 261.81 285.94 213.19 285.94 164.14C289.35 164.14 282.43 164.14 285.94 164.14C285.94 157.49 285.94 151.26 285.94 144.74C298.79 144.74 301.5 144.74 314.74 144.74C314.74 156.6 314.74 168.44 314.74 180.8C330.12 180.8 345 180.8 360.19 180.8C360.19 224.33 360.19 267.34 360.19 310.72C335.67 310.72 311.16 310.72 285.94 310.72ZM331.4 291.41C331.4 260.87 331.4 230.82 331.4 200.71C325.8 200.71 320.55 200.71 315.14 200.71C315.14 231.03 315.14 261.09 315.14 291.41C320.63 291.41 325.88 291.41 331.4 291.41Z" fill="white"/>
<path d="M378.609 217.93C393.709 217.93 408.499 217.93 423.669 217.93C423.669 212.11 423.669 206.62 423.669 200.66C408.869 200.66 393.969 200.66 378.729 200.66C378.729 194 378.729 187.78 378.729 181.23C403.259 181.23 427.769 181.23 452.739 181.23C452.739 217.98 452.739 254.53 452.739 291.5C456.279 291.5 449.269 291.5 452.739 291.5C452.739 298.13 452.739 304.33 452.739 310.82C424.689 310.82 406.839 310.82 378.619 310.82C378.609 279.92 378.609 249.25 378.609 217.93ZM407.429 237.61C407.429 255.83 407.429 273.53 407.429 291.3C413.099 291.3 418.449 291.3 423.789 291.3C423.789 273.22 423.789 255.51 423.789 237.61C418.239 237.61 412.969 237.61 407.429 237.61Z" fill="white"/>
<path d="M267.16 310.85C242.62 310.85 218.19 310.85 193.4 310.85C193.4 267.7 193.4 224.56 193.4 181.17C217.95 181.17 242.38 181.17 267.15 181.17C267.15 212.19 267.15 243.12 267.15 274.51C252.26 274.51 237.36 274.51 222.11 274.51C222.11 280.32 222.11 285.68 222.11 291.5C237 291.5 251.92 291.5 267.16 291.5C267.16 298.17 267.16 304.38 267.16 310.85ZM238.54 254.79C238.54 236.63 238.54 218.76 238.54 200.73C232.9 200.73 227.52 200.73 221.98 200.73C221.98 218.88 221.98 236.75 221.98 254.79C227.59 254.79 232.97 254.79 238.54 254.79Z" fill="white"/>
<path d="M107.12 200.47C110.49 200.47 103.37 200.47 107.12 200.47C107.12 194.01 107.12 187.8 107.12 181.24C133.78 181.24 150.35 181.24 177.34 181.24C177.34 204.45 177.34 227.6 177.34 251.02C169.22 251.02 161.25 251.02 152.84 251.02C152.84 234.19 152.84 217.6 152.84 200.74C147.14 200.74 141.89 200.74 136.27 200.74C136.27 230.78 136.27 260.84 136.27 291.48C141.44 291.48 130.77 291.48 136.27 291.48C136.27 298.16 136.27 304.26 136.27 310.73C121.4 310.73 122.43 310.73 107.12 310.73C107.12 274.11 107.12 237.56 107.12 200.47Z" fill="white"/>
<path d="M498.07 291.66C501.98 291.66 494.72 291.66 498.07 291.66C498.07 298.18 498.07 304.29 498.07 310.75C485.32 310.75 482.96 310.75 469.74 310.75C469.74 262.09 469.74 213.35 469.74 164.08C473.15 164.08 466.05 164.08 469.74 164.08C469.74 157.42 469.74 151.29 469.74 144.8C482.47 144.8 484.86 144.8 498.07 144.8C498.07 193.47 498.07 242.21 498.07 291.66Z" fill="white"/>
<path d="M511.559 164.08C514.949 164.08 507.839 164.08 511.559 164.08C511.559 157.47 511.559 151.25 511.559 144.74C524.379 144.74 526.869 144.74 540.079 144.74C540.079 193.62 540.079 242.36 540.079 291.52C543.659 291.52 536.639 291.52 540.079 291.52C540.079 298.15 540.079 304.36 540.079 310.84C527.229 310.84 524.629 310.84 511.559 310.84C511.559 262.05 511.559 213.42 511.559 164.08Z" fill="white"/>
<path d="M58.9492 144.7C68.2992 144.7 77.4492 144.7 86.9692 144.7C86.9692 151.35 86.9692 158 86.9692 164.97C77.7592 164.97 68.4892 164.97 58.9492 164.97C58.9492 158.25 58.9492 151.59 58.9492 144.7Z" fill="white"/>
</g>
<rect x="535" y="225" width="295" height="111" fill="#DF24AB" fill-opacity="0.87"/>
<path d="M619.107 241C624.333 241 629.447 241 634.767 241C634.767 244.351 634.767 247.701 634.767 251.213C629.62 251.213 624.439 251.213 619.107 251.213C619.107 247.827 619.107 244.471 619.107 241Z" fill="#43DDF2"/>
<path d="M634.785 312.249C636.959 312.249 632.923 312.249 634.785 312.249C634.785 314.656 634.785 316.912 634.785 319.298C627.697 319.298 626.385 319.298 619.035 319.298C619.035 301.33 619.035 283.333 619.035 265.14C620.931 265.14 616.983 265.14 619.035 265.14C619.035 262.681 619.035 260.417 619.035 258.021C626.112 258.021 627.441 258.021 634.785 258.021C634.785 275.992 634.785 293.989 634.785 312.249Z" fill="#43DDF2"/>
<path d="M650.426 309.085C662.24 309.085 673.801 309.085 685.83 309.085C685.83 312.435 685.83 315.786 685.83 319.298C674.193 319.298 662.48 319.298 650.426 319.298C650.426 315.912 650.426 312.556 650.426 309.085Z" fill="#43DDF2"/>
<path d="M661.338 310.291C663.511 310.291 659.475 310.291 661.338 310.291C661.338 313.367 661.338 316.25 661.338 319.298C654.249 319.298 652.937 319.298 645.588 319.298C645.588 296.339 645.588 273.343 645.588 250.097C647.483 250.097 643.536 250.097 645.588 250.097C645.588 246.954 645.588 244.062 645.588 241C652.665 241 653.994 241 661.338 241C661.338 263.963 661.338 286.96 661.338 310.291Z" fill="#43DDF2"/>
<path d="M783.209 310.972C785.383 310.972 781.346 310.972 783.209 310.972C783.209 314.048 783.209 316.931 783.209 319.979C776.12 319.979 774.808 319.979 767.459 319.979C767.459 297.02 767.459 274.024 767.459 250.778C769.354 250.778 765.407 250.778 767.459 250.778C767.459 247.635 767.459 244.743 767.459 241.681C774.536 241.681 775.865 241.681 783.209 241.681C783.209 264.644 783.209 287.641 783.209 310.972Z" fill="#43DDF2"/>
<path d="M751.871 241C767.775 241 783.338 241 799.531 241C799.531 244.351 799.531 247.701 799.531 251.213C783.865 251.213 768.098 251.213 751.871 251.213C751.871 247.827 751.871 244.471 751.871 241Z" fill="#43DDF2"/>
<path d="M736.213 251.213C724.399 251.213 712.837 251.213 700.809 251.213C700.809 247.862 700.809 244.512 700.809 241C712.446 241 724.159 241 736.213 241C736.213 244.386 736.213 247.741 736.213 251.213Z" fill="#43DDF2"/>
<path d="M725.299 250.007C723.125 250.007 727.161 250.007 725.299 250.007C725.299 246.931 725.299 244.048 725.299 241C732.387 241 733.699 241 741.049 241C741.049 263.959 741.049 286.955 741.049 310.201C739.153 310.201 743.101 310.201 741.049 310.201C741.049 313.344 741.049 316.236 741.049 319.298C733.972 319.298 732.643 319.298 725.299 319.298C725.299 296.335 725.299 273.338 725.299 250.007Z" fill="#43DDF2"/>
<path d="M700.809 309.085C712.623 309.085 724.184 309.085 736.213 309.085C736.213 312.435 736.213 315.786 736.213 319.298C724.576 319.298 712.863 319.298 700.809 319.298C700.809 315.912 700.809 312.556 700.809 309.085Z" fill="#43DDF2"/>
<path d="M711.721 310.291C713.894 310.291 709.858 310.291 711.721 310.291C711.721 313.367 711.721 316.25 711.721 319.298C704.632 319.298 703.32 319.298 695.97 319.298C695.97 296.339 695.97 273.343 695.97 250.097C697.866 250.097 693.919 250.097 695.97 250.097C695.97 246.954 695.97 244.062 695.97 241C703.048 241 704.376 241 711.721 241C711.721 263.963 711.721 286.96 711.721 310.291Z" fill="#43DDF2"/>
<path d="M566.682 241C580.768 241 594.552 241 608.894 241C608.894 244.351 608.894 247.701 608.894 251.213C595.019 251.213 581.054 251.213 566.682 251.213C566.682 247.827 566.682 244.471 566.682 241Z" fill="#43DDF2"/>
<path d="M608.895 241.681C608.895 253.268 608.895 264.607 608.895 276.405C605.544 276.405 602.194 276.405 598.682 276.405C598.682 264.991 598.682 253.503 598.682 241.681C602.068 241.681 605.423 241.681 608.895 241.681Z" fill="#43DDF2"/>
<path d="M608.895 276.404C601.397 276.404 594.06 276.404 586.426 276.404C586.426 273.054 586.426 269.703 586.426 266.192C593.812 266.192 601.245 266.192 608.895 266.192C608.895 269.577 608.895 272.933 608.895 276.404Z" fill="#43DDF2"/>
<path d="M582.359 310.291C584.533 310.291 580.497 310.291 582.359 310.291C582.359 313.367 582.359 316.25 582.359 319.298C575.271 319.298 573.959 319.298 566.609 319.298C566.609 296.339 566.609 273.343 566.609 250.097C568.505 250.097 564.558 250.097 566.609 250.097C566.609 246.954 566.609 244.062 566.609 241C573.686 241 575.015 241 582.359 241C582.359 263.963 582.359 286.96 582.359 310.291Z" fill="#43DDF2"/>
<defs>
<clipPath id="clip0_303_220">
<rect width="790" height="336" fill="white"/>
</clipPath>
</defs>
</svg>
