<svg width="70" height="57" xmlns="http://www.w3.org/2000/svg" shape-rendering="crispEdges"><path fill="#ADA6F6" d="M5 0h1v1H5zM6 0h1v1H6zM7 0h1v1H7zM8 0h1v1H8zM9 0h1v1H9zM10 0h1v1h-1zM11 0h1v1h-1zM12 0h1v1h-1zM13 0h1v1h-1zM14 0h1v1h-1zM15 0h1v1h-1zM16 0h1v1h-1zM17 0h1v1h-1zM18 0h1v1h-1zM19 0h1v1h-1zM20 0h1v1h-1zM21 0h1v1h-1zM22 0h1v1h-1zM23 0h1v1h-1zM24 0h1v1h-1zM25 0h1v1h-1zM26 0h1v1h-1zM27 0h1v1h-1zM28 0h1v1h-1zM29 0h1v1h-1zM30 0h1v1h-1zM31 0h1v1h-1zM32 0h1v1h-1zM33 0h1v1h-1zM34 0h1v1h-1zM35 0h1v1h-1zM36 0h1v1h-1zM37 0h1v1h-1zM38 0h1v1h-1zM39 0h1v1h-1zM40 0h1v1h-1zM41 0h1v1h-1zM42 0h1v1h-1zM43 0h1v1h-1zM44 0h1v1h-1zM45 0h1v1h-1zM46 0h1v1h-1zM47 0h1v1h-1zM48 0h1v1h-1zM49 0h1v1h-1zM50 0h1v1h-1zM51 0h1v1h-1zM52 0h1v1h-1zM53 0h1v1h-1zM54 0h1v1h-1zM55 0h1v1h-1zM56 0h1v1h-1zM57 0h1v1h-1zM58 0h1v1h-1zM59 0h1v1h-1zM60 0h1v1h-1zM61 0h1v1h-1zM62 0h1v1h-1zM63 0h1v1h-1zM64 0h1v1h-1zM4 1h1v1H4zM5 1h1v1H5zM6 1h1v1H6zM7 1h1v1H7zM8 1h1v1H8zM9 1h1v1H9zM10 1h1v1h-1zM11 1h1v1h-1zM12 1h1v1h-1zM13 1h1v1h-1zM14 1h1v1h-1zM15 1h1v1h-1zM16 1h1v1h-1zM17 1h1v1h-1zM18 1h1v1h-1zM19 1h1v1h-1zM20 1h1v1h-1zM21 1h1v1h-1zM22 1h1v1h-1zM23 1h1v1h-1zM24 1h1v1h-1zM25 1h1v1h-1zM26 1h1v1h-1zM27 1h1v1h-1zM28 1h1v1h-1zM29 1h1v1h-1zM30 1h1v1h-1zM31 1h1v1h-1zM32 1h1v1h-1zM33 1h1v1h-1zM34 1h1v1h-1zM35 1h1v1h-1zM36 1h1v1h-1zM37 1h1v1h-1zM38 1h1v1h-1zM39 1h1v1h-1zM40 1h1v1h-1zM41 1h1v1h-1zM42 1h1v1h-1zM43 1h1v1h-1zM44 1h1v1h-1zM45 1h1v1h-1zM46 1h1v1h-1zM47 1h1v1h-1zM48 1h1v1h-1zM49 1h1v1h-1zM50 1h1v1h-1zM51 1h1v1h-1zM52 1h1v1h-1zM53 1h1v1h-1zM54 1h1v1h-1zM55 1h1v1h-1zM56 1h1v1h-1zM57 1h1v1h-1zM58 1h1v1h-1zM59 1h1v1h-1zM60 1h1v1h-1zM61 1h1v1h-1zM62 1h1v1h-1zM63 1h1v1h-1zM64 1h1v1h-1zM65 1h1v1h-1zM4 2h1v1H4zM5 2h1v1H5zM6 2h1v1H6z"/><path fill="#7A70F3" d="M7 2h1v1H7zM8 2h1v1H8zM9 2h1v1H9zM10 2h1v1h-1zM11 2h1v1h-1zM12 2h1v1h-1zM13 2h1v1h-1zM14 2h1v1h-1zM15 2h1v1h-1zM16 2h1v1h-1zM17 2h1v1h-1zM18 2h1v1h-1zM19 2h1v1h-1zM20 2h1v1h-1zM21 2h1v1h-1zM22 2h1v1h-1zM23 2h1v1h-1zM24 2h1v1h-1zM25 2h1v1h-1zM26 2h1v1h-1zM27 2h1v1h-1zM28 2h1v1h-1zM29 2h1v1h-1zM30 2h1v1h-1zM31 2h1v1h-1zM32 2h1v1h-1zM33 2h1v1h-1zM34 2h1v1h-1zM35 2h1v1h-1zM36 2h1v1h-1zM37 2h1v1h-1zM38 2h1v1h-1zM39 2h1v1h-1zM40 2h1v1h-1zM41 2h1v1h-1zM42 2h1v1h-1zM43 2h1v1h-1zM44 2h1v1h-1zM45 2h1v1h-1zM46 2h1v1h-1zM47 2h1v1h-1zM48 2h1v1h-1zM49 2h1v1h-1zM50 2h1v1h-1zM51 2h1v1h-1zM52 2h1v1h-1zM53 2h1v1h-1zM54 2h1v1h-1zM55 2h1v1h-1zM56 2h1v1h-1zM57 2h1v1h-1zM58 2h1v1h-1zM59 2h1v1h-1zM60 2h1v1h-1zM61 2h1v1h-1zM62 2h1v1h-1z"/><path fill="#ADA6F6" d="M63 2h1v1h-1zM64 2h1v1h-1zM65 2h1v1h-1zM4 3h1v1H4zM5 3h1v1H5z"/><path fill="#7A70F3" d="M6 3h1v1H6zM7 3h1v1H7zM8 3h1v1H8zM9 3h1v1H9zM10 3h1v1h-1zM11 3h1v1h-1zM12 3h1v1h-1zM13 3h1v1h-1zM14 3h1v1h-1zM15 3h1v1h-1zM16 3h1v1h-1zM17 3h1v1h-1zM18 3h1v1h-1zM19 3h1v1h-1zM20 3h1v1h-1zM21 3h1v1h-1zM22 3h1v1h-1zM23 3h1v1h-1zM24 3h1v1h-1zM25 3h1v1h-1zM26 3h1v1h-1zM27 3h1v1h-1zM28 3h1v1h-1zM29 3h1v1h-1zM30 3h1v1h-1zM31 3h1v1h-1zM32 3h1v1h-1zM33 3h1v1h-1zM34 3h1v1h-1zM35 3h1v1h-1zM36 3h1v1h-1zM37 3h1v1h-1zM38 3h1v1h-1zM39 3h1v1h-1zM40 3h1v1h-1zM41 3h1v1h-1zM42 3h1v1h-1zM43 3h1v1h-1zM44 3h1v1h-1zM45 3h1v1h-1zM46 3h1v1h-1zM47 3h1v1h-1zM48 3h1v1h-1zM49 3h1v1h-1zM50 3h1v1h-1zM51 3h1v1h-1zM52 3h1v1h-1zM53 3h1v1h-1zM54 3h1v1h-1zM55 3h1v1h-1zM56 3h1v1h-1zM57 3h1v1h-1zM58 3h1v1h-1zM59 3h1v1h-1zM60 3h1v1h-1zM61 3h1v1h-1zM62 3h1v1h-1zM63 3h1v1h-1z"/><path fill="#ADA6F6" d="M64 3h1v1h-1zM65 3h1v1h-1zM4 4h1v1H4zM5 4h1v1H5z"/><path fill="#7A70F3" d="M6 4h1v1H6zM7 4h1v1H7zM8 4h1v1H8zM9 4h1v1H9zM10 4h1v1h-1zM11 4h1v1h-1zM12 4h1v1h-1zM13 4h1v1h-1zM14 4h1v1h-1zM15 4h1v1h-1zM16 4h1v1h-1zM17 4h1v1h-1zM18 4h1v1h-1zM19 4h1v1h-1zM20 4h1v1h-1zM21 4h1v1h-1zM22 4h1v1h-1zM23 4h1v1h-1zM24 4h1v1h-1zM25 4h1v1h-1zM26 4h1v1h-1zM27 4h1v1h-1zM28 4h1v1h-1zM29 4h1v1h-1zM30 4h1v1h-1zM31 4h1v1h-1zM32 4h1v1h-1zM33 4h1v1h-1zM34 4h1v1h-1zM35 4h1v1h-1zM36 4h1v1h-1zM37 4h1v1h-1zM38 4h1v1h-1zM39 4h1v1h-1zM40 4h1v1h-1zM41 4h1v1h-1zM42 4h1v1h-1zM43 4h1v1h-1zM44 4h1v1h-1zM45 4h1v1h-1zM46 4h1v1h-1zM47 4h1v1h-1zM48 4h1v1h-1zM49 4h1v1h-1zM50 4h1v1h-1zM51 4h1v1h-1zM52 4h1v1h-1zM53 4h1v1h-1zM54 4h1v1h-1zM55 4h1v1h-1zM56 4h1v1h-1zM57 4h1v1h-1zM58 4h1v1h-1zM59 4h1v1h-1zM60 4h1v1h-1zM61 4h1v1h-1zM62 4h1v1h-1zM63 4h1v1h-1z"/><path fill="#ADA6F6" d="M64 4h1v1h-1zM65 4h1v1h-1zM4 5h1v1H4zM5 5h1v1H5z"/><path fill="#7A70F3" d="M6 5h1v1H6zM7 5h1v1H7zM8 5h1v1H8zM9 5h1v1H9zM10 5h1v1h-1zM11 5h1v1h-1zM12 5h1v1h-1zM13 5h1v1h-1zM14 5h1v1h-1zM15 5h1v1h-1zM16 5h1v1h-1zM17 5h1v1h-1zM18 5h1v1h-1zM19 5h1v1h-1zM20 5h1v1h-1zM21 5h1v1h-1zM22 5h1v1h-1zM23 5h1v1h-1zM24 5h1v1h-1zM25 5h1v1h-1zM26 5h1v1h-1zM27 5h1v1h-1zM28 5h1v1h-1zM29 5h1v1h-1zM30 5h1v1h-1zM31 5h1v1h-1zM32 5h1v1h-1zM33 5h1v1h-1zM34 5h1v1h-1zM35 5h1v1h-1zM36 5h1v1h-1zM37 5h1v1h-1zM38 5h1v1h-1zM39 5h1v1h-1zM40 5h1v1h-1zM41 5h1v1h-1zM42 5h1v1h-1zM43 5h1v1h-1zM44 5h1v1h-1zM45 5h1v1h-1zM46 5h1v1h-1zM47 5h1v1h-1zM48 5h1v1h-1zM49 5h1v1h-1zM50 5h1v1h-1zM51 5h1v1h-1zM52 5h1v1h-1zM53 5h1v1h-1zM54 5h1v1h-1zM55 5h1v1h-1zM56 5h1v1h-1zM57 5h1v1h-1zM58 5h1v1h-1zM59 5h1v1h-1zM60 5h1v1h-1zM61 5h1v1h-1zM62 5h1v1h-1zM63 5h1v1h-1z"/><path fill="#ADA6F6" d="M64 5h1v1h-1zM65 5h1v1h-1zM4 6h1v1H4zM5 6h1v1H5z"/><path fill="#7A70F3" d="M6 6h1v1H6zM7 6h1v1H7zM8 6h1v1H8zM9 6h1v1H9zM10 6h1v1h-1zM11 6h1v1h-1zM12 6h1v1h-1zM13 6h1v1h-1zM14 6h1v1h-1zM15 6h1v1h-1zM16 6h1v1h-1zM17 6h1v1h-1zM18 6h1v1h-1zM19 6h1v1h-1zM20 6h1v1h-1zM21 6h1v1h-1zM22 6h1v1h-1zM23 6h1v1h-1zM24 6h1v1h-1zM25 6h1v1h-1zM26 6h1v1h-1zM27 6h1v1h-1zM28 6h1v1h-1zM29 6h1v1h-1zM30 6h1v1h-1zM31 6h1v1h-1zM32 6h1v1h-1zM33 6h1v1h-1zM34 6h1v1h-1zM35 6h1v1h-1zM36 6h1v1h-1zM37 6h1v1h-1zM38 6h1v1h-1zM39 6h1v1h-1zM40 6h1v1h-1zM41 6h1v1h-1zM42 6h1v1h-1zM43 6h1v1h-1zM44 6h1v1h-1zM45 6h1v1h-1zM46 6h1v1h-1zM47 6h1v1h-1zM48 6h1v1h-1zM49 6h1v1h-1zM50 6h1v1h-1zM51 6h1v1h-1zM52 6h1v1h-1zM53 6h1v1h-1zM54 6h1v1h-1zM55 6h1v1h-1zM56 6h1v1h-1zM57 6h1v1h-1zM58 6h1v1h-1zM59 6h1v1h-1zM60 6h1v1h-1zM61 6h1v1h-1zM62 6h1v1h-1zM63 6h1v1h-1z"/><path fill="#ADA6F6" d="M64 6h1v1h-1zM65 6h1v1h-1zM4 7h1v1H4zM5 7h1v1H5z"/><path fill="#7A70F3" d="M6 7h1v1H6zM7 7h1v1H7zM8 7h1v1H8zM9 7h1v1H9zM10 7h1v1h-1zM11 7h1v1h-1zM12 7h1v1h-1zM13 7h1v1h-1zM14 7h1v1h-1zM15 7h1v1h-1zM16 7h1v1h-1zM17 7h1v1h-1zM18 7h1v1h-1zM19 7h1v1h-1zM20 7h1v1h-1zM21 7h1v1h-1zM22 7h1v1h-1zM23 7h1v1h-1zM24 7h1v1h-1zM25 7h1v1h-1zM26 7h1v1h-1zM27 7h1v1h-1zM28 7h1v1h-1zM29 7h1v1h-1zM30 7h1v1h-1zM31 7h1v1h-1zM32 7h1v1h-1zM33 7h1v1h-1zM34 7h1v1h-1zM35 7h1v1h-1zM36 7h1v1h-1zM37 7h1v1h-1zM38 7h1v1h-1zM39 7h1v1h-1zM40 7h1v1h-1zM41 7h1v1h-1zM42 7h1v1h-1zM43 7h1v1h-1zM44 7h1v1h-1zM45 7h1v1h-1zM46 7h1v1h-1zM47 7h1v1h-1zM48 7h1v1h-1zM49 7h1v1h-1zM50 7h1v1h-1zM51 7h1v1h-1zM52 7h1v1h-1zM53 7h1v1h-1zM54 7h1v1h-1zM55 7h1v1h-1zM56 7h1v1h-1zM57 7h1v1h-1zM58 7h1v1h-1zM59 7h1v1h-1zM60 7h1v1h-1zM61 7h1v1h-1zM62 7h1v1h-1zM63 7h1v1h-1z"/><path fill="#ADA6F6" d="M64 7h1v1h-1zM65 7h1v1h-1zM4 8h1v1H4zM5 8h1v1H5z"/><path fill="#7A70F3" d="M6 8h1v1H6zM7 8h1v1H7zM8 8h1v1H8zM9 8h1v1H9zM10 8h1v1h-1zM11 8h1v1h-1zM12 8h1v1h-1zM13 8h1v1h-1zM14 8h1v1h-1zM15 8h1v1h-1zM16 8h1v1h-1zM17 8h1v1h-1zM18 8h1v1h-1zM19 8h1v1h-1zM20 8h1v1h-1zM21 8h1v1h-1zM22 8h1v1h-1zM23 8h1v1h-1zM24 8h1v1h-1zM25 8h1v1h-1zM26 8h1v1h-1zM27 8h1v1h-1zM28 8h1v1h-1zM29 8h1v1h-1zM30 8h1v1h-1zM31 8h1v1h-1zM32 8h1v1h-1zM33 8h1v1h-1zM34 8h1v1h-1zM35 8h1v1h-1zM36 8h1v1h-1zM37 8h1v1h-1zM38 8h1v1h-1zM39 8h1v1h-1zM40 8h1v1h-1zM41 8h1v1h-1zM42 8h1v1h-1zM43 8h1v1h-1zM44 8h1v1h-1zM45 8h1v1h-1zM46 8h1v1h-1zM47 8h1v1h-1zM48 8h1v1h-1zM49 8h1v1h-1zM50 8h1v1h-1zM51 8h1v1h-1zM52 8h1v1h-1zM53 8h1v1h-1zM54 8h1v1h-1zM55 8h1v1h-1zM56 8h1v1h-1zM57 8h1v1h-1zM58 8h1v1h-1zM59 8h1v1h-1zM60 8h1v1h-1zM61 8h1v1h-1zM62 8h1v1h-1zM63 8h1v1h-1z"/><path fill="#ADA6F6" d="M64 8h1v1h-1zM65 8h1v1h-1zM4 9h1v1H4zM5 9h1v1H5z"/><path fill="#7A70F3" d="M6 9h1v1H6zM7 9h1v1H7zM8 9h1v1H8zM9 9h1v1H9zM10 9h1v1h-1zM11 9h1v1h-1zM12 9h1v1h-1zM13 9h1v1h-1zM14 9h1v1h-1zM15 9h1v1h-1zM16 9h1v1h-1zM17 9h1v1h-1zM18 9h1v1h-1zM19 9h1v1h-1zM20 9h1v1h-1zM21 9h1v1h-1zM22 9h1v1h-1zM23 9h1v1h-1zM24 9h1v1h-1zM25 9h1v1h-1zM26 9h1v1h-1zM27 9h1v1h-1zM28 9h1v1h-1zM29 9h1v1h-1zM30 9h1v1h-1zM31 9h1v1h-1zM32 9h1v1h-1zM33 9h1v1h-1zM34 9h1v1h-1zM35 9h1v1h-1zM36 9h1v1h-1zM37 9h1v1h-1zM38 9h1v1h-1zM39 9h1v1h-1zM40 9h1v1h-1zM41 9h1v1h-1zM42 9h1v1h-1zM43 9h1v1h-1zM44 9h1v1h-1zM45 9h1v1h-1zM46 9h1v1h-1zM47 9h1v1h-1zM48 9h1v1h-1zM49 9h1v1h-1zM50 9h1v1h-1zM51 9h1v1h-1zM52 9h1v1h-1zM53 9h1v1h-1zM54 9h1v1h-1zM55 9h1v1h-1zM56 9h1v1h-1zM57 9h1v1h-1zM58 9h1v1h-1zM59 9h1v1h-1zM60 9h1v1h-1zM61 9h1v1h-1zM62 9h1v1h-1zM63 9h1v1h-1z"/><path fill="#ADA6F6" d="M64 9h1v1h-1zM65 9h1v1h-1zM4 10h1v1H4zM5 10h1v1H5z"/><path fill="#7A70F3" d="M6 10h1v1H6zM7 10h1v1H7zM8 10h1v1H8zM9 10h1v1H9zM10 10h1v1h-1zM11 10h1v1h-1zM12 10h1v1h-1zM13 10h1v1h-1zM14 10h1v1h-1zM15 10h1v1h-1zM16 10h1v1h-1zM17 10h1v1h-1zM18 10h1v1h-1zM19 10h1v1h-1zM20 10h1v1h-1zM21 10h1v1h-1zM22 10h1v1h-1zM23 10h1v1h-1zM24 10h1v1h-1zM25 10h1v1h-1zM26 10h1v1h-1zM27 10h1v1h-1zM28 10h1v1h-1zM29 10h1v1h-1zM30 10h1v1h-1zM31 10h1v1h-1zM32 10h1v1h-1zM33 10h1v1h-1zM34 10h1v1h-1zM35 10h1v1h-1zM36 10h1v1h-1zM37 10h1v1h-1zM38 10h1v1h-1zM39 10h1v1h-1zM40 10h1v1h-1zM41 10h1v1h-1zM42 10h1v1h-1zM43 10h1v1h-1zM44 10h1v1h-1zM45 10h1v1h-1zM46 10h1v1h-1zM47 10h1v1h-1zM48 10h1v1h-1zM49 10h1v1h-1zM50 10h1v1h-1zM51 10h1v1h-1zM52 10h1v1h-1zM53 10h1v1h-1zM54 10h1v1h-1zM55 10h1v1h-1zM56 10h1v1h-1zM57 10h1v1h-1zM58 10h1v1h-1zM59 10h1v1h-1zM60 10h1v1h-1zM61 10h1v1h-1zM62 10h1v1h-1zM63 10h1v1h-1z"/><path fill="#ADA6F6" d="M64 10h1v1h-1zM65 10h1v1h-1zM4 11h1v1H4zM5 11h1v1H5z"/><path fill="#7A70F3" d="M6 11h1v1H6zM7 11h1v1H7zM8 11h1v1H8zM9 11h1v1H9zM10 11h1v1h-1zM11 11h1v1h-1zM12 11h1v1h-1zM13 11h1v1h-1zM14 11h1v1h-1zM15 11h1v1h-1zM16 11h1v1h-1zM17 11h1v1h-1zM18 11h1v1h-1zM19 11h1v1h-1zM20 11h1v1h-1zM21 11h1v1h-1zM22 11h1v1h-1zM23 11h1v1h-1zM24 11h1v1h-1zM25 11h1v1h-1zM26 11h1v1h-1zM27 11h1v1h-1zM28 11h1v1h-1zM29 11h1v1h-1zM30 11h1v1h-1zM31 11h1v1h-1zM32 11h1v1h-1zM33 11h1v1h-1zM34 11h1v1h-1zM35 11h1v1h-1zM36 11h1v1h-1zM37 11h1v1h-1zM38 11h1v1h-1zM39 11h1v1h-1zM40 11h1v1h-1zM41 11h1v1h-1zM42 11h1v1h-1zM43 11h1v1h-1zM44 11h1v1h-1zM45 11h1v1h-1zM46 11h1v1h-1zM47 11h1v1h-1zM48 11h1v1h-1zM49 11h1v1h-1zM50 11h1v1h-1zM51 11h1v1h-1zM52 11h1v1h-1zM53 11h1v1h-1zM54 11h1v1h-1zM55 11h1v1h-1zM56 11h1v1h-1zM57 11h1v1h-1zM58 11h1v1h-1zM59 11h1v1h-1zM60 11h1v1h-1zM61 11h1v1h-1zM62 11h1v1h-1zM63 11h1v1h-1z"/><path fill="#ADA6F6" d="M64 11h1v1h-1zM65 11h1v1h-1zM4 12h1v1H4zM5 12h1v1H5z"/><path fill="#7A70F3" d="M6 12h1v1H6zM7 12h1v1H7zM8 12h1v1H8zM9 12h1v1H9zM10 12h1v1h-1zM11 12h1v1h-1zM12 12h1v1h-1zM13 12h1v1h-1zM14 12h1v1h-1zM15 12h1v1h-1zM16 12h1v1h-1zM17 12h1v1h-1zM18 12h1v1h-1zM19 12h1v1h-1zM20 12h1v1h-1zM21 12h1v1h-1zM22 12h1v1h-1zM23 12h1v1h-1zM24 12h1v1h-1zM25 12h1v1h-1zM26 12h1v1h-1zM27 12h1v1h-1zM28 12h1v1h-1zM29 12h1v1h-1zM30 12h1v1h-1zM31 12h1v1h-1zM32 12h1v1h-1zM33 12h1v1h-1zM34 12h1v1h-1zM35 12h1v1h-1zM36 12h1v1h-1zM37 12h1v1h-1zM38 12h1v1h-1zM39 12h1v1h-1zM40 12h1v1h-1zM41 12h1v1h-1zM42 12h1v1h-1zM43 12h1v1h-1zM44 12h1v1h-1zM45 12h1v1h-1zM46 12h1v1h-1zM47 12h1v1h-1zM48 12h1v1h-1zM49 12h1v1h-1zM50 12h1v1h-1zM51 12h1v1h-1zM52 12h1v1h-1zM53 12h1v1h-1zM54 12h1v1h-1zM55 12h1v1h-1zM56 12h1v1h-1zM57 12h1v1h-1zM58 12h1v1h-1zM59 12h1v1h-1zM60 12h1v1h-1zM61 12h1v1h-1zM62 12h1v1h-1zM63 12h1v1h-1z"/><path fill="#ADA6F6" d="M64 12h1v1h-1zM65 12h1v1h-1zM4 13h1v1H4zM5 13h1v1H5z"/><path fill="#7A70F3" d="M6 13h1v1H6zM7 13h1v1H7zM8 13h1v1H8zM9 13h1v1H9zM10 13h1v1h-1zM11 13h1v1h-1zM12 13h1v1h-1zM13 13h1v1h-1zM14 13h1v1h-1zM15 13h1v1h-1zM16 13h1v1h-1zM17 13h1v1h-1zM18 13h1v1h-1zM19 13h1v1h-1zM20 13h1v1h-1zM21 13h1v1h-1zM22 13h1v1h-1zM23 13h1v1h-1zM24 13h1v1h-1zM25 13h1v1h-1zM26 13h1v1h-1zM27 13h1v1h-1zM28 13h1v1h-1zM29 13h1v1h-1zM30 13h1v1h-1zM31 13h1v1h-1zM32 13h1v1h-1zM33 13h1v1h-1zM34 13h1v1h-1zM35 13h1v1h-1zM36 13h1v1h-1zM37 13h1v1h-1zM38 13h1v1h-1zM39 13h1v1h-1zM40 13h1v1h-1zM41 13h1v1h-1zM42 13h1v1h-1zM43 13h1v1h-1zM44 13h1v1h-1zM45 13h1v1h-1zM46 13h1v1h-1zM47 13h1v1h-1zM48 13h1v1h-1zM49 13h1v1h-1zM50 13h1v1h-1zM51 13h1v1h-1zM52 13h1v1h-1zM53 13h1v1h-1zM54 13h1v1h-1zM55 13h1v1h-1zM56 13h1v1h-1zM57 13h1v1h-1zM58 13h1v1h-1zM59 13h1v1h-1zM60 13h1v1h-1zM61 13h1v1h-1zM62 13h1v1h-1zM63 13h1v1h-1z"/><path fill="#ADA6F6" d="M64 13h1v1h-1zM65 13h1v1h-1zM4 14h1v1H4zM5 14h1v1H5z"/><path fill="#7A70F3" d="M6 14h1v1H6zM7 14h1v1H7zM8 14h1v1H8zM9 14h1v1H9zM10 14h1v1h-1zM11 14h1v1h-1zM12 14h1v1h-1zM13 14h1v1h-1zM14 14h1v1h-1zM15 14h1v1h-1zM16 14h1v1h-1zM17 14h1v1h-1zM18 14h1v1h-1zM19 14h1v1h-1zM20 14h1v1h-1zM21 14h1v1h-1zM22 14h1v1h-1zM23 14h1v1h-1zM24 14h1v1h-1zM25 14h1v1h-1zM26 14h1v1h-1zM27 14h1v1h-1zM28 14h1v1h-1zM29 14h1v1h-1zM30 14h1v1h-1zM31 14h1v1h-1zM32 14h1v1h-1zM33 14h1v1h-1zM34 14h1v1h-1zM35 14h1v1h-1zM36 14h1v1h-1zM37 14h1v1h-1zM38 14h1v1h-1zM39 14h1v1h-1zM40 14h1v1h-1zM41 14h1v1h-1zM42 14h1v1h-1zM43 14h1v1h-1zM44 14h1v1h-1zM45 14h1v1h-1zM46 14h1v1h-1zM47 14h1v1h-1zM48 14h1v1h-1zM49 14h1v1h-1zM50 14h1v1h-1zM51 14h1v1h-1zM52 14h1v1h-1zM53 14h1v1h-1zM54 14h1v1h-1zM55 14h1v1h-1zM56 14h1v1h-1zM57 14h1v1h-1zM58 14h1v1h-1zM59 14h1v1h-1zM60 14h1v1h-1zM61 14h1v1h-1zM62 14h1v1h-1zM63 14h1v1h-1z"/><path fill="#ADA6F6" d="M64 14h1v1h-1zM65 14h1v1h-1zM4 15h1v1H4zM5 15h1v1H5z"/><path fill="#7A70F3" d="M6 15h1v1H6zM7 15h1v1H7zM8 15h1v1H8zM9 15h1v1H9zM10 15h1v1h-1zM11 15h1v1h-1zM12 15h1v1h-1zM13 15h1v1h-1zM14 15h1v1h-1zM15 15h1v1h-1zM16 15h1v1h-1zM17 15h1v1h-1zM18 15h1v1h-1zM19 15h1v1h-1zM20 15h1v1h-1zM21 15h1v1h-1zM22 15h1v1h-1zM23 15h1v1h-1zM24 15h1v1h-1zM25 15h1v1h-1zM26 15h1v1h-1zM27 15h1v1h-1zM28 15h1v1h-1zM29 15h1v1h-1zM30 15h1v1h-1zM31 15h1v1h-1zM32 15h1v1h-1zM33 15h1v1h-1zM34 15h1v1h-1zM35 15h1v1h-1zM36 15h1v1h-1zM37 15h1v1h-1zM38 15h1v1h-1zM39 15h1v1h-1zM40 15h1v1h-1zM41 15h1v1h-1zM42 15h1v1h-1zM43 15h1v1h-1zM44 15h1v1h-1zM45 15h1v1h-1zM46 15h1v1h-1zM47 15h1v1h-1zM48 15h1v1h-1zM49 15h1v1h-1zM50 15h1v1h-1zM51 15h1v1h-1zM52 15h1v1h-1zM53 15h1v1h-1zM54 15h1v1h-1zM55 15h1v1h-1zM56 15h1v1h-1zM57 15h1v1h-1zM58 15h1v1h-1zM59 15h1v1h-1zM60 15h1v1h-1zM61 15h1v1h-1zM62 15h1v1h-1zM63 15h1v1h-1z"/><path fill="#ADA6F6" d="M64 15h1v1h-1zM65 15h1v1h-1zM4 16h1v1H4zM5 16h1v1H5z"/><path fill="#7A70F3" d="M6 16h1v1H6zM7 16h1v1H7zM8 16h1v1H8zM9 16h1v1H9zM10 16h1v1h-1zM11 16h1v1h-1zM12 16h1v1h-1zM13 16h1v1h-1zM14 16h1v1h-1zM15 16h1v1h-1zM16 16h1v1h-1zM17 16h1v1h-1zM18 16h1v1h-1zM19 16h1v1h-1zM20 16h1v1h-1zM21 16h1v1h-1zM22 16h1v1h-1zM23 16h1v1h-1zM24 16h1v1h-1zM25 16h1v1h-1zM26 16h1v1h-1zM27 16h1v1h-1zM28 16h1v1h-1zM29 16h1v1h-1zM30 16h1v1h-1zM31 16h1v1h-1zM32 16h1v1h-1zM33 16h1v1h-1zM34 16h1v1h-1zM35 16h1v1h-1zM36 16h1v1h-1zM37 16h1v1h-1zM38 16h1v1h-1zM39 16h1v1h-1zM40 16h1v1h-1zM41 16h1v1h-1zM42 16h1v1h-1zM43 16h1v1h-1zM44 16h1v1h-1zM45 16h1v1h-1zM46 16h1v1h-1zM47 16h1v1h-1zM48 16h1v1h-1zM49 16h1v1h-1zM50 16h1v1h-1zM51 16h1v1h-1zM52 16h1v1h-1zM53 16h1v1h-1zM54 16h1v1h-1zM55 16h1v1h-1zM56 16h1v1h-1zM57 16h1v1h-1zM58 16h1v1h-1zM59 16h1v1h-1zM60 16h1v1h-1zM61 16h1v1h-1zM62 16h1v1h-1zM63 16h1v1h-1z"/><path fill="#ADA6F6" d="M64 16h1v1h-1zM65 16h1v1h-1zM4 17h1v1H4zM5 17h1v1H5z"/><path fill="#7A70F3" d="M6 17h1v1H6zM7 17h1v1H7zM8 17h1v1H8zM9 17h1v1H9zM10 17h1v1h-1zM11 17h1v1h-1zM12 17h1v1h-1zM13 17h1v1h-1zM14 17h1v1h-1zM15 17h1v1h-1zM16 17h1v1h-1zM17 17h1v1h-1zM18 17h1v1h-1zM19 17h1v1h-1zM20 17h1v1h-1zM21 17h1v1h-1zM22 17h1v1h-1zM23 17h1v1h-1zM24 17h1v1h-1zM25 17h1v1h-1zM26 17h1v1h-1zM27 17h1v1h-1zM28 17h1v1h-1zM29 17h1v1h-1zM30 17h1v1h-1zM31 17h1v1h-1zM32 17h1v1h-1zM33 17h1v1h-1zM34 17h1v1h-1zM35 17h1v1h-1zM36 17h1v1h-1zM37 17h1v1h-1zM38 17h1v1h-1zM39 17h1v1h-1zM40 17h1v1h-1zM41 17h1v1h-1zM42 17h1v1h-1zM43 17h1v1h-1zM44 17h1v1h-1zM45 17h1v1h-1zM46 17h1v1h-1zM47 17h1v1h-1zM48 17h1v1h-1zM49 17h1v1h-1zM50 17h1v1h-1zM51 17h1v1h-1zM52 17h1v1h-1zM53 17h1v1h-1zM54 17h1v1h-1zM55 17h1v1h-1zM56 17h1v1h-1zM57 17h1v1h-1zM58 17h1v1h-1zM59 17h1v1h-1zM60 17h1v1h-1zM61 17h1v1h-1zM62 17h1v1h-1zM63 17h1v1h-1z"/><path fill="#ADA6F6" d="M64 17h1v1h-1zM65 17h1v1h-1zM4 18h1v1H4zM5 18h1v1H5z"/><path fill="#7A70F3" d="M6 18h1v1H6zM7 18h1v1H7zM8 18h1v1H8zM9 18h1v1H9zM10 18h1v1h-1zM11 18h1v1h-1zM12 18h1v1h-1zM13 18h1v1h-1zM14 18h1v1h-1zM15 18h1v1h-1zM16 18h1v1h-1zM17 18h1v1h-1zM18 18h1v1h-1zM19 18h1v1h-1zM20 18h1v1h-1zM21 18h1v1h-1zM22 18h1v1h-1zM23 18h1v1h-1zM24 18h1v1h-1zM25 18h1v1h-1zM26 18h1v1h-1zM27 18h1v1h-1zM28 18h1v1h-1zM29 18h1v1h-1zM30 18h1v1h-1zM31 18h1v1h-1zM32 18h1v1h-1zM33 18h1v1h-1zM34 18h1v1h-1zM35 18h1v1h-1zM36 18h1v1h-1zM37 18h1v1h-1zM38 18h1v1h-1zM39 18h1v1h-1zM40 18h1v1h-1zM41 18h1v1h-1zM42 18h1v1h-1zM43 18h1v1h-1zM44 18h1v1h-1zM45 18h1v1h-1zM46 18h1v1h-1zM47 18h1v1h-1zM48 18h1v1h-1zM49 18h1v1h-1zM50 18h1v1h-1zM51 18h1v1h-1zM52 18h1v1h-1zM53 18h1v1h-1zM54 18h1v1h-1zM55 18h1v1h-1zM56 18h1v1h-1zM57 18h1v1h-1zM58 18h1v1h-1zM59 18h1v1h-1zM60 18h1v1h-1zM61 18h1v1h-1zM62 18h1v1h-1zM63 18h1v1h-1z"/><path fill="#ADA6F6" d="M64 18h1v1h-1zM65 18h1v1h-1zM4 19h1v1H4zM5 19h1v1H5z"/><path fill="#7A70F3" d="M6 19h1v1H6zM7 19h1v1H7zM8 19h1v1H8zM9 19h1v1H9zM10 19h1v1h-1zM11 19h1v1h-1zM12 19h1v1h-1zM13 19h1v1h-1zM14 19h1v1h-1zM15 19h1v1h-1zM16 19h1v1h-1zM17 19h1v1h-1zM18 19h1v1h-1zM19 19h1v1h-1zM20 19h1v1h-1zM21 19h1v1h-1zM22 19h1v1h-1zM23 19h1v1h-1zM24 19h1v1h-1zM25 19h1v1h-1zM26 19h1v1h-1zM27 19h1v1h-1zM28 19h1v1h-1zM29 19h1v1h-1zM30 19h1v1h-1zM31 19h1v1h-1z"/><path fill="#58318F" d="M32 19h1v1h-1zM33 19h1v1h-1zM34 19h1v1h-1zM35 19h1v1h-1zM36 19h1v1h-1zM37 19h1v1h-1z"/><path fill="#7A70F3" d="M38 19h1v1h-1zM39 19h1v1h-1zM40 19h1v1h-1zM41 19h1v1h-1zM42 19h1v1h-1zM43 19h1v1h-1zM44 19h1v1h-1zM45 19h1v1h-1zM46 19h1v1h-1zM47 19h1v1h-1zM48 19h1v1h-1zM49 19h1v1h-1zM50 19h1v1h-1zM51 19h1v1h-1zM52 19h1v1h-1zM53 19h1v1h-1zM54 19h1v1h-1zM55 19h1v1h-1zM56 19h1v1h-1zM57 19h1v1h-1zM58 19h1v1h-1zM59 19h1v1h-1zM60 19h1v1h-1zM61 19h1v1h-1zM62 19h1v1h-1zM63 19h1v1h-1z"/><path fill="#ADA6F6" d="M64 19h1v1h-1zM65 19h1v1h-1zM4 20h1v1H4zM5 20h1v1H5z"/><path fill="#7A70F3" d="M6 20h1v1H6zM7 20h1v1H7zM8 20h1v1H8zM9 20h1v1H9zM10 20h1v1h-1zM11 20h1v1h-1zM12 20h1v1h-1zM13 20h1v1h-1zM14 20h1v1h-1zM15 20h1v1h-1zM16 20h1v1h-1zM17 20h1v1h-1zM18 20h1v1h-1zM19 20h1v1h-1zM20 20h1v1h-1zM21 20h1v1h-1zM22 20h1v1h-1zM23 20h1v1h-1zM24 20h1v1h-1zM25 20h1v1h-1zM26 20h1v1h-1zM27 20h1v1h-1zM28 20h1v1h-1zM29 20h1v1h-1zM30 20h1v1h-1z"/><path fill="#58318F" d="M31 20h1v1h-1z"/><path fill="#8D52DE" d="M32 20h1v1h-1zM33 20h1v1h-1zM34 20h1v1h-1zM35 20h1v1h-1zM36 20h1v1h-1zM37 20h1v1h-1z"/><path fill="#58318F" d="M38 20h1v1h-1z"/><path fill="#7A70F3" d="M39 20h1v1h-1zM40 20h1v1h-1zM41 20h1v1h-1zM42 20h1v1h-1zM43 20h1v1h-1zM44 20h1v1h-1zM45 20h1v1h-1zM46 20h1v1h-1zM47 20h1v1h-1zM48 20h1v1h-1zM49 20h1v1h-1zM50 20h1v1h-1zM51 20h1v1h-1zM52 20h1v1h-1zM53 20h1v1h-1zM54 20h1v1h-1zM55 20h1v1h-1zM56 20h1v1h-1zM57 20h1v1h-1zM58 20h1v1h-1zM59 20h1v1h-1zM60 20h1v1h-1zM61 20h1v1h-1zM62 20h1v1h-1zM63 20h1v1h-1z"/><path fill="#ADA6F6" d="M64 20h1v1h-1zM65 20h1v1h-1zM4 21h1v1H4zM5 21h1v1H5z"/><path fill="#7A70F3" d="M6 21h1v1H6zM7 21h1v1H7zM8 21h1v1H8zM9 21h1v1H9zM10 21h1v1h-1zM11 21h1v1h-1zM12 21h1v1h-1zM13 21h1v1h-1zM14 21h1v1h-1zM15 21h1v1h-1zM16 21h1v1h-1zM17 21h1v1h-1zM18 21h1v1h-1zM19 21h1v1h-1zM20 21h1v1h-1zM21 21h1v1h-1zM22 21h1v1h-1zM23 21h1v1h-1zM24 21h1v1h-1zM25 21h1v1h-1zM26 21h1v1h-1zM27 21h1v1h-1z"/><path fill="#58318F" d="M28 21h1v1h-1zM29 21h1v1h-1zM30 21h1v1h-1z"/><path fill="#A376E1" d="M31 21h1v1h-1z"/><path fill="#F1E3FF" d="M32 21h1v1h-1zM33 21h1v1h-1zM34 21h1v1h-1zM35 21h1v1h-1zM36 21h1v1h-1zM37 21h1v1h-1z"/><path fill="#8D52DE" d="M38 21h1v1h-1z"/><path fill="#58318F" d="M39 21h1v1h-1zM40 21h1v1h-1zM41 21h1v1h-1z"/><path fill="#7A70F3" d="M42 21h1v1h-1zM43 21h1v1h-1zM44 21h1v1h-1zM45 21h1v1h-1zM46 21h1v1h-1zM47 21h1v1h-1zM48 21h1v1h-1zM49 21h1v1h-1zM50 21h1v1h-1zM51 21h1v1h-1zM52 21h1v1h-1zM53 21h1v1h-1zM54 21h1v1h-1zM55 21h1v1h-1zM56 21h1v1h-1zM57 21h1v1h-1zM58 21h1v1h-1zM59 21h1v1h-1zM60 21h1v1h-1zM61 21h1v1h-1zM62 21h1v1h-1zM63 21h1v1h-1z"/><path fill="#ADA6F6" d="M64 21h1v1h-1zM65 21h1v1h-1zM4 22h1v1H4zM5 22h1v1H5z"/><path fill="#7A70F3" d="M6 22h1v1H6zM7 22h1v1H7zM8 22h1v1H8zM9 22h1v1H9zM10 22h1v1h-1zM11 22h1v1h-1zM12 22h1v1h-1zM13 22h1v1h-1zM14 22h1v1h-1zM15 22h1v1h-1zM16 22h1v1h-1zM17 22h1v1h-1zM18 22h1v1h-1zM19 22h1v1h-1zM20 22h1v1h-1zM21 22h1v1h-1zM22 22h1v1h-1zM23 22h1v1h-1zM24 22h1v1h-1zM25 22h1v1h-1z"/><path fill="#58318F" d="M26 22h1v1h-1zM27 22h1v1h-1z"/><path fill="#A376E1" d="M28 22h1v1h-1zM29 22h1v1h-1zM30 22h1v1h-1z"/><path fill="#F1E3FF" d="M31 22h1v1h-1zM32 22h1v1h-1zM33 22h1v1h-1zM34 22h1v1h-1zM35 22h1v1h-1zM36 22h1v1h-1zM37 22h1v1h-1zM38 22h1v1h-1z"/><path fill="#8D52DE" d="M39 22h1v1h-1zM40 22h1v1h-1zM41 22h1v1h-1z"/><path fill="#58318F" d="M42 22h1v1h-1zM43 22h1v1h-1z"/><path fill="#7A70F3" d="M44 22h1v1h-1zM45 22h1v1h-1zM46 22h1v1h-1zM47 22h1v1h-1zM48 22h1v1h-1zM49 22h1v1h-1zM50 22h1v1h-1zM51 22h1v1h-1zM52 22h1v1h-1zM53 22h1v1h-1zM54 22h1v1h-1zM55 22h1v1h-1zM56 22h1v1h-1zM57 22h1v1h-1zM58 22h1v1h-1zM59 22h1v1h-1zM60 22h1v1h-1zM61 22h1v1h-1zM62 22h1v1h-1zM63 22h1v1h-1z"/><path fill="#ADA6F6" d="M64 22h1v1h-1zM65 22h1v1h-1zM4 23h1v1H4zM5 23h1v1H5z"/><path fill="#7A70F3" d="M6 23h1v1H6zM7 23h1v1H7zM8 23h1v1H8zM9 23h1v1H9zM10 23h1v1h-1zM11 23h1v1h-1zM12 23h1v1h-1zM13 23h1v1h-1zM14 23h1v1h-1zM15 23h1v1h-1zM16 23h1v1h-1zM17 23h1v1h-1zM18 23h1v1h-1zM19 23h1v1h-1zM20 23h1v1h-1zM21 23h1v1h-1zM22 23h1v1h-1zM23 23h1v1h-1zM24 23h1v1h-1z"/><path fill="#58318F" d="M25 23h1v1h-1z"/><path fill="#A376E1" d="M26 23h1v1h-1zM27 23h1v1h-1z"/><path fill="#F1E3FF" d="M28 23h1v1h-1zM29 23h1v1h-1zM30 23h1v1h-1zM31 23h1v1h-1zM32 23h1v1h-1zM33 23h1v1h-1zM34 23h1v1h-1zM35 23h1v1h-1zM36 23h1v1h-1zM37 23h1v1h-1zM38 23h1v1h-1zM39 23h1v1h-1zM40 23h1v1h-1zM41 23h1v1h-1z"/><path fill="#8D52DE" d="M42 23h1v1h-1zM43 23h1v1h-1z"/><path fill="#58318F" d="M44 23h1v1h-1z"/><path fill="#7A70F3" d="M45 23h1v1h-1zM46 23h1v1h-1zM47 23h1v1h-1zM48 23h1v1h-1zM49 23h1v1h-1zM50 23h1v1h-1zM51 23h1v1h-1zM52 23h1v1h-1zM53 23h1v1h-1zM54 23h1v1h-1zM55 23h1v1h-1zM56 23h1v1h-1zM57 23h1v1h-1zM58 23h1v1h-1zM59 23h1v1h-1zM60 23h1v1h-1zM61 23h1v1h-1zM62 23h1v1h-1zM63 23h1v1h-1z"/><path fill="#ADA6F6" d="M64 23h1v1h-1zM65 23h1v1h-1zM4 24h1v1H4zM5 24h1v1H5z"/><path fill="#7A70F3" d="M6 24h1v1H6zM7 24h1v1H7zM8 24h1v1H8zM9 24h1v1H9zM10 24h1v1h-1zM11 24h1v1h-1zM12 24h1v1h-1zM13 24h1v1h-1zM14 24h1v1h-1zM15 24h1v1h-1zM16 24h1v1h-1zM17 24h1v1h-1zM18 24h1v1h-1zM19 24h1v1h-1zM20 24h1v1h-1zM21 24h1v1h-1zM22 24h1v1h-1zM23 24h1v1h-1z"/><path fill="#58318F" d="M24 24h1v1h-1z"/><path fill="#D5AFFA" d="M25 24h1v1h-1z"/><path fill="#F1E3FF" d="M26 24h1v1h-1zM27 24h1v1h-1zM28 24h1v1h-1z"/><path fill="#58318F" d="M29 24h1v1h-1zM30 24h1v1h-1z"/><path fill="#F1E3FF" d="M31 24h1v1h-1zM32 24h1v1h-1zM33 24h1v1h-1zM34 24h1v1h-1zM35 24h1v1h-1zM36 24h1v1h-1zM37 24h1v1h-1zM38 24h1v1h-1z"/><path fill="#58318F" d="M39 24h1v1h-1zM40 24h1v1h-1z"/><path fill="#F1E3FF" d="M41 24h1v1h-1zM42 24h1v1h-1zM43 24h1v1h-1z"/><path fill="#8D52DE" d="M44 24h1v1h-1z"/><path fill="#58318F" d="M45 24h1v1h-1z"/><path fill="#7A70F3" d="M46 24h1v1h-1zM47 24h1v1h-1zM48 24h1v1h-1zM49 24h1v1h-1zM50 24h1v1h-1zM51 24h1v1h-1zM52 24h1v1h-1zM53 24h1v1h-1zM54 24h1v1h-1zM55 24h1v1h-1zM56 24h1v1h-1zM57 24h1v1h-1zM58 24h1v1h-1zM59 24h1v1h-1zM60 24h1v1h-1zM61 24h1v1h-1zM62 24h1v1h-1zM63 24h1v1h-1z"/><path fill="#ADA6F6" d="M64 24h1v1h-1zM65 24h1v1h-1zM4 25h1v1H4zM5 25h1v1H5z"/><path fill="#7A70F3" d="M6 25h1v1H6zM7 25h1v1H7zM8 25h1v1H8zM9 25h1v1H9zM10 25h1v1h-1zM11 25h1v1h-1zM12 25h1v1h-1zM13 25h1v1h-1zM14 25h1v1h-1zM15 25h1v1h-1zM16 25h1v1h-1zM17 25h1v1h-1zM18 25h1v1h-1zM19 25h1v1h-1zM20 25h1v1h-1zM21 25h1v1h-1zM22 25h1v1h-1zM23 25h1v1h-1z"/><path fill="#58318F" d="M24 25h1v1h-1z"/><path fill="#D5AFFA" d="M25 25h1v1h-1z"/><path fill="#F1E3FF" d="M26 25h1v1h-1zM27 25h1v1h-1z"/><path fill="#58318F" d="M28 25h1v1h-1z"/><path fill="#F1E3FF" d="M29 25h1v1h-1zM30 25h1v1h-1z"/><path fill="#58318F" d="M31 25h1v1h-1z"/><path fill="#F1E3FF" d="M32 25h1v1h-1zM33 25h1v1h-1zM34 25h1v1h-1zM35 25h1v1h-1zM36 25h1v1h-1zM37 25h1v1h-1z"/><path fill="#58318F" d="M38 25h1v1h-1z"/><path fill="#F1E3FF" d="M39 25h1v1h-1zM40 25h1v1h-1z"/><path fill="#58318F" d="M41 25h1v1h-1z"/><path fill="#F1E3FF" d="M42 25h1v1h-1zM43 25h1v1h-1z"/><path fill="#8D52DE" d="M44 25h1v1h-1z"/><path fill="#58318F" d="M45 25h1v1h-1z"/><path fill="#7A70F3" d="M46 25h1v1h-1zM47 25h1v1h-1zM48 25h1v1h-1zM49 25h1v1h-1zM50 25h1v1h-1zM51 25h1v1h-1zM52 25h1v1h-1zM53 25h1v1h-1zM54 25h1v1h-1zM55 25h1v1h-1zM56 25h1v1h-1zM57 25h1v1h-1zM58 25h1v1h-1zM59 25h1v1h-1zM60 25h1v1h-1zM61 25h1v1h-1zM62 25h1v1h-1zM63 25h1v1h-1z"/><path fill="#ADA6F6" d="M64 25h1v1h-1zM65 25h1v1h-1zM4 26h1v1H4zM5 26h1v1H5z"/><path fill="#7A70F3" d="M6 26h1v1H6zM7 26h1v1H7zM8 26h1v1H8zM9 26h1v1H9zM10 26h1v1h-1zM11 26h1v1h-1zM12 26h1v1h-1zM13 26h1v1h-1zM14 26h1v1h-1zM15 26h1v1h-1zM16 26h1v1h-1zM17 26h1v1h-1zM18 26h1v1h-1zM19 26h1v1h-1zM20 26h1v1h-1zM21 26h1v1h-1zM22 26h1v1h-1z"/><path fill="#58318F" d="M23 26h1v1h-1z"/><path fill="#D5AFFA" d="M24 26h1v1h-1z"/><path fill="#F1E3FF" d="M25 26h1v1h-1zM26 26h1v1h-1zM27 26h1v1h-1zM28 26h1v1h-1zM29 26h1v1h-1zM30 26h1v1h-1zM31 26h1v1h-1zM32 26h1v1h-1zM33 26h1v1h-1zM34 26h1v1h-1zM35 26h1v1h-1zM36 26h1v1h-1zM37 26h1v1h-1zM38 26h1v1h-1zM39 26h1v1h-1zM40 26h1v1h-1zM41 26h1v1h-1zM42 26h1v1h-1zM43 26h1v1h-1zM44 26h1v1h-1z"/><path fill="#8D52DE" d="M45 26h1v1h-1z"/><path fill="#58318F" d="M46 26h1v1h-1z"/><path fill="#7A70F3" d="M47 26h1v1h-1zM48 26h1v1h-1zM49 26h1v1h-1zM50 26h1v1h-1zM51 26h1v1h-1zM52 26h1v1h-1zM53 26h1v1h-1zM54 26h1v1h-1zM55 26h1v1h-1zM56 26h1v1h-1zM57 26h1v1h-1zM58 26h1v1h-1zM59 26h1v1h-1zM60 26h1v1h-1zM61 26h1v1h-1zM62 26h1v1h-1zM63 26h1v1h-1z"/><path fill="#ADA6F6" d="M64 26h1v1h-1zM65 26h1v1h-1zM4 27h1v1H4zM5 27h1v1H5z"/><path fill="#7A70F3" d="M6 27h1v1H6zM7 27h1v1H7zM8 27h1v1H8zM9 27h1v1H9zM10 27h1v1h-1zM11 27h1v1h-1zM12 27h1v1h-1zM13 27h1v1h-1zM14 27h1v1h-1zM15 27h1v1h-1zM16 27h1v1h-1zM17 27h1v1h-1zM18 27h1v1h-1zM19 27h1v1h-1zM20 27h1v1h-1zM21 27h1v1h-1z"/><path fill="#58318F" d="M22 27h1v1h-1z"/><path fill="#D5AFFA" d="M23 27h1v1h-1z"/><path fill="#F1E3FF" d="M24 27h1v1h-1zM25 27h1v1h-1zM26 27h1v1h-1z"/><path fill="#A376E1" d="M27 27h1v1h-1z"/><path fill="#F1E3FF" d="M28 27h1v1h-1zM29 27h1v1h-1zM30 27h1v1h-1zM31 27h1v1h-1zM32 27h1v1h-1z"/><path fill="#58318F" d="M33 27h1v1h-1z"/><path fill="#F1E3FF" d="M34 27h1v1h-1zM35 27h1v1h-1z"/><path fill="#58318F" d="M36 27h1v1h-1z"/><path fill="#F1E3FF" d="M37 27h1v1h-1zM38 27h1v1h-1zM39 27h1v1h-1zM40 27h1v1h-1zM41 27h1v1h-1z"/><path fill="#A376E1" d="M42 27h1v1h-1z"/><path fill="#F1E3FF" d="M43 27h1v1h-1zM44 27h1v1h-1zM45 27h1v1h-1z"/><path fill="#8D52DE" d="M46 27h1v1h-1z"/><path fill="#58318F" d="M47 27h1v1h-1z"/><path fill="#7A70F3" d="M48 27h1v1h-1zM49 27h1v1h-1zM50 27h1v1h-1zM51 27h1v1h-1zM52 27h1v1h-1zM53 27h1v1h-1zM54 27h1v1h-1zM55 27h1v1h-1zM56 27h1v1h-1zM57 27h1v1h-1zM58 27h1v1h-1zM59 27h1v1h-1zM60 27h1v1h-1zM61 27h1v1h-1zM62 27h1v1h-1zM63 27h1v1h-1z"/><path fill="#ADA6F6" d="M64 27h1v1h-1zM65 27h1v1h-1zM4 28h1v1H4zM5 28h1v1H5z"/><path fill="#7A70F3" d="M6 28h1v1H6zM7 28h1v1H7zM8 28h1v1H8zM9 28h1v1H9zM10 28h1v1h-1zM11 28h1v1h-1zM12 28h1v1h-1zM13 28h1v1h-1zM14 28h1v1h-1zM15 28h1v1h-1zM16 28h1v1h-1zM17 28h1v1h-1zM18 28h1v1h-1zM19 28h1v1h-1zM20 28h1v1h-1zM21 28h1v1h-1z"/><path fill="#58318F" d="M22 28h1v1h-1z"/><path fill="#D5AFFA" d="M23 28h1v1h-1z"/><path fill="#F1E3FF" d="M24 28h1v1h-1zM25 28h1v1h-1zM26 28h1v1h-1zM27 28h1v1h-1zM28 28h1v1h-1zM29 28h1v1h-1zM30 28h1v1h-1zM31 28h1v1h-1zM32 28h1v1h-1zM33 28h1v1h-1z"/><path fill="#58318F" d="M34 28h1v1h-1zM35 28h1v1h-1z"/><path fill="#F1E3FF" d="M36 28h1v1h-1zM37 28h1v1h-1zM38 28h1v1h-1zM39 28h1v1h-1zM40 28h1v1h-1zM41 28h1v1h-1zM42 28h1v1h-1zM43 28h1v1h-1zM44 28h1v1h-1zM45 28h1v1h-1z"/><path fill="#8D52DE" d="M46 28h1v1h-1z"/><path fill="#58318F" d="M47 28h1v1h-1z"/><path fill="#7A70F3" d="M48 28h1v1h-1zM49 28h1v1h-1zM50 28h1v1h-1zM51 28h1v1h-1zM52 28h1v1h-1zM53 28h1v1h-1zM54 28h1v1h-1zM55 28h1v1h-1zM56 28h1v1h-1zM57 28h1v1h-1zM58 28h1v1h-1zM59 28h1v1h-1zM60 28h1v1h-1zM61 28h1v1h-1zM62 28h1v1h-1zM63 28h1v1h-1z"/><path fill="#ADA6F6" d="M64 28h1v1h-1zM65 28h1v1h-1zM4 29h1v1H4zM5 29h1v1H5z"/><path fill="#7A70F3" d="M6 29h1v1H6zM7 29h1v1H7zM8 29h1v1H8zM9 29h1v1H9zM10 29h1v1h-1zM11 29h1v1h-1zM12 29h1v1h-1zM13 29h1v1h-1zM14 29h1v1h-1zM15 29h1v1h-1zM16 29h1v1h-1zM17 29h1v1h-1zM18 29h1v1h-1zM19 29h1v1h-1zM20 29h1v1h-1zM21 29h1v1h-1zM22 29h1v1h-1z"/><path fill="#58318F" d="M23 29h1v1h-1z"/><path fill="#D5AFFA" d="M24 29h1v1h-1zM25 29h1v1h-1z"/><path fill="#F1E3FF" d="M26 29h1v1h-1zM27 29h1v1h-1zM28 29h1v1h-1zM29 29h1v1h-1zM30 29h1v1h-1zM31 29h1v1h-1zM32 29h1v1h-1zM33 29h1v1h-1zM34 29h1v1h-1zM35 29h1v1h-1zM36 29h1v1h-1zM37 29h1v1h-1zM38 29h1v1h-1zM39 29h1v1h-1zM40 29h1v1h-1zM41 29h1v1h-1zM42 29h1v1h-1zM43 29h1v1h-1z"/><path fill="#8D52DE" d="M44 29h1v1h-1zM45 29h1v1h-1z"/><path fill="#58318F" d="M46 29h1v1h-1z"/><path fill="#7A70F3" d="M47 29h1v1h-1zM48 29h1v1h-1zM49 29h1v1h-1zM50 29h1v1h-1zM51 29h1v1h-1zM52 29h1v1h-1zM53 29h1v1h-1zM54 29h1v1h-1zM55 29h1v1h-1zM56 29h1v1h-1zM57 29h1v1h-1zM58 29h1v1h-1zM59 29h1v1h-1zM60 29h1v1h-1zM61 29h1v1h-1zM62 29h1v1h-1zM63 29h1v1h-1z"/><path fill="#ADA6F6" d="M64 29h1v1h-1zM65 29h1v1h-1zM4 30h1v1H4zM5 30h1v1H5z"/><path fill="#7A70F3" d="M6 30h1v1H6zM7 30h1v1H7zM8 30h1v1H8zM9 30h1v1H9zM10 30h1v1h-1zM11 30h1v1h-1zM12 30h1v1h-1zM13 30h1v1h-1zM14 30h1v1h-1zM15 30h1v1h-1zM16 30h1v1h-1zM17 30h1v1h-1zM18 30h1v1h-1zM19 30h1v1h-1zM20 30h1v1h-1zM21 30h1v1h-1zM22 30h1v1h-1zM23 30h1v1h-1z"/><path fill="#58318F" d="M24 30h1v1h-1zM25 30h1v1h-1z"/><path fill="#D5AFFA" d="M26 30h1v1h-1zM27 30h1v1h-1z"/><path fill="#F1E3FF" d="M28 30h1v1h-1zM29 30h1v1h-1zM30 30h1v1h-1zM31 30h1v1h-1zM32 30h1v1h-1zM33 30h1v1h-1zM34 30h1v1h-1zM35 30h1v1h-1zM36 30h1v1h-1zM37 30h1v1h-1zM38 30h1v1h-1zM39 30h1v1h-1zM40 30h1v1h-1zM41 30h1v1h-1z"/><path fill="#A376E1" d="M42 30h1v1h-1zM43 30h1v1h-1z"/><path fill="#58318F" d="M44 30h1v1h-1zM45 30h1v1h-1z"/><path fill="#7A70F3" d="M46 30h1v1h-1zM47 30h1v1h-1zM48 30h1v1h-1zM49 30h1v1h-1zM50 30h1v1h-1zM51 30h1v1h-1zM52 30h1v1h-1zM53 30h1v1h-1zM54 30h1v1h-1zM55 30h1v1h-1zM56 30h1v1h-1zM57 30h1v1h-1zM58 30h1v1h-1zM59 30h1v1h-1zM60 30h1v1h-1zM61 30h1v1h-1zM62 30h1v1h-1zM63 30h1v1h-1z"/><path fill="#ADA6F6" d="M64 30h1v1h-1zM65 30h1v1h-1zM4 31h1v1H4zM5 31h1v1H5z"/><path fill="#7A70F3" d="M6 31h1v1H6zM7 31h1v1H7zM8 31h1v1H8zM9 31h1v1H9zM10 31h1v1h-1zM11 31h1v1h-1zM12 31h1v1h-1zM13 31h1v1h-1zM14 31h1v1h-1zM15 31h1v1h-1zM16 31h1v1h-1zM17 31h1v1h-1zM18 31h1v1h-1zM19 31h1v1h-1zM20 31h1v1h-1zM21 31h1v1h-1zM22 31h1v1h-1zM23 31h1v1h-1zM24 31h1v1h-1zM25 31h1v1h-1z"/><path fill="#58318F" d="M26 31h1v1h-1zM27 31h1v1h-1z"/><path fill="#D5AFFA" d="M28 31h1v1h-1zM29 31h1v1h-1zM30 31h1v1h-1zM31 31h1v1h-1zM32 31h1v1h-1z"/><path fill="#A376E1" d="M33 31h1v1h-1z"/><path fill="#D5AFFA" d="M34 31h1v1h-1z"/><path fill="#A376E1" d="M35 31h1v1h-1z"/><path fill="#D5AFFA" d="M36 31h1v1h-1z"/><path fill="#A376E1" d="M37 31h1v1h-1zM38 31h1v1h-1zM39 31h1v1h-1zM40 31h1v1h-1zM41 31h1v1h-1z"/><path fill="#58318F" d="M42 31h1v1h-1zM43 31h1v1h-1z"/><path fill="#7A70F3" d="M44 31h1v1h-1zM45 31h1v1h-1zM46 31h1v1h-1zM47 31h1v1h-1zM48 31h1v1h-1zM49 31h1v1h-1zM50 31h1v1h-1zM51 31h1v1h-1zM52 31h1v1h-1zM53 31h1v1h-1zM54 31h1v1h-1zM55 31h1v1h-1zM56 31h1v1h-1zM57 31h1v1h-1zM58 31h1v1h-1zM59 31h1v1h-1zM60 31h1v1h-1zM61 31h1v1h-1zM62 31h1v1h-1zM63 31h1v1h-1z"/><path fill="#ADA6F6" d="M64 31h1v1h-1zM65 31h1v1h-1zM4 32h1v1H4zM5 32h1v1H5z"/><path fill="#7A70F3" d="M6 32h1v1H6zM7 32h1v1H7zM8 32h1v1H8zM9 32h1v1H9zM10 32h1v1h-1zM11 32h1v1h-1zM12 32h1v1h-1zM13 32h1v1h-1zM14 32h1v1h-1zM15 32h1v1h-1zM16 32h1v1h-1zM17 32h1v1h-1zM18 32h1v1h-1zM19 32h1v1h-1zM20 32h1v1h-1zM21 32h1v1h-1zM22 32h1v1h-1zM23 32h1v1h-1zM24 32h1v1h-1zM25 32h1v1h-1zM26 32h1v1h-1zM27 32h1v1h-1z"/><path fill="#58318F" d="M28 32h1v1h-1zM29 32h1v1h-1zM30 32h1v1h-1zM31 32h1v1h-1zM32 32h1v1h-1zM33 32h1v1h-1zM34 32h1v1h-1zM35 32h1v1h-1zM36 32h1v1h-1zM37 32h1v1h-1zM38 32h1v1h-1zM39 32h1v1h-1zM40 32h1v1h-1zM41 32h1v1h-1z"/><path fill="#7A70F3" d="M42 32h1v1h-1zM43 32h1v1h-1zM44 32h1v1h-1zM45 32h1v1h-1zM46 32h1v1h-1zM47 32h1v1h-1zM48 32h1v1h-1zM49 32h1v1h-1zM50 32h1v1h-1zM51 32h1v1h-1zM52 32h1v1h-1zM53 32h1v1h-1zM54 32h1v1h-1zM55 32h1v1h-1zM56 32h1v1h-1zM57 32h1v1h-1zM58 32h1v1h-1zM59 32h1v1h-1zM60 32h1v1h-1zM61 32h1v1h-1zM62 32h1v1h-1zM63 32h1v1h-1z"/><path fill="#ADA6F6" d="M64 32h1v1h-1zM65 32h1v1h-1zM4 33h1v1H4zM5 33h1v1H5z"/><path fill="#7A70F3" d="M6 33h1v1H6zM7 33h1v1H7zM8 33h1v1H8zM9 33h1v1H9zM10 33h1v1h-1zM11 33h1v1h-1zM12 33h1v1h-1zM13 33h1v1h-1zM14 33h1v1h-1zM15 33h1v1h-1zM16 33h1v1h-1zM17 33h1v1h-1zM18 33h1v1h-1zM19 33h1v1h-1zM20 33h1v1h-1zM21 33h1v1h-1zM22 33h1v1h-1zM23 33h1v1h-1zM24 33h1v1h-1zM25 33h1v1h-1zM26 33h1v1h-1zM27 33h1v1h-1zM28 33h1v1h-1zM29 33h1v1h-1zM30 33h1v1h-1zM31 33h1v1h-1zM32 33h1v1h-1zM33 33h1v1h-1zM34 33h1v1h-1zM35 33h1v1h-1zM36 33h1v1h-1zM37 33h1v1h-1zM38 33h1v1h-1zM39 33h1v1h-1zM40 33h1v1h-1zM41 33h1v1h-1zM42 33h1v1h-1zM43 33h1v1h-1zM44 33h1v1h-1zM45 33h1v1h-1zM46 33h1v1h-1zM47 33h1v1h-1zM48 33h1v1h-1zM49 33h1v1h-1zM50 33h1v1h-1zM51 33h1v1h-1zM52 33h1v1h-1zM53 33h1v1h-1zM54 33h1v1h-1zM55 33h1v1h-1zM56 33h1v1h-1zM57 33h1v1h-1zM58 33h1v1h-1zM59 33h1v1h-1zM60 33h1v1h-1zM61 33h1v1h-1zM62 33h1v1h-1zM63 33h1v1h-1z"/><path fill="#ADA6F6" d="M64 33h1v1h-1zM65 33h1v1h-1zM4 34h1v1H4zM5 34h1v1H5z"/><path fill="#7A70F3" d="M6 34h1v1H6zM7 34h1v1H7zM8 34h1v1H8zM9 34h1v1H9zM10 34h1v1h-1zM11 34h1v1h-1zM12 34h1v1h-1zM13 34h1v1h-1zM14 34h1v1h-1zM15 34h1v1h-1zM16 34h1v1h-1zM17 34h1v1h-1zM18 34h1v1h-1zM19 34h1v1h-1zM20 34h1v1h-1zM21 34h1v1h-1zM22 34h1v1h-1zM23 34h1v1h-1zM24 34h1v1h-1zM25 34h1v1h-1zM26 34h1v1h-1zM27 34h1v1h-1zM28 34h1v1h-1zM29 34h1v1h-1zM30 34h1v1h-1zM31 34h1v1h-1zM32 34h1v1h-1zM33 34h1v1h-1zM34 34h1v1h-1zM35 34h1v1h-1zM36 34h1v1h-1zM37 34h1v1h-1zM38 34h1v1h-1zM39 34h1v1h-1zM40 34h1v1h-1zM41 34h1v1h-1zM42 34h1v1h-1zM43 34h1v1h-1zM44 34h1v1h-1zM45 34h1v1h-1zM46 34h1v1h-1zM47 34h1v1h-1zM48 34h1v1h-1zM49 34h1v1h-1zM50 34h1v1h-1zM51 34h1v1h-1zM52 34h1v1h-1zM53 34h1v1h-1zM54 34h1v1h-1zM55 34h1v1h-1zM56 34h1v1h-1zM57 34h1v1h-1zM58 34h1v1h-1zM59 34h1v1h-1zM60 34h1v1h-1zM61 34h1v1h-1zM62 34h1v1h-1zM63 34h1v1h-1z"/><path fill="#ADA6F6" d="M64 34h1v1h-1zM65 34h1v1h-1zM4 35h1v1H4zM5 35h1v1H5z"/><path fill="#7A70F3" d="M6 35h1v1H6zM7 35h1v1H7zM8 35h1v1H8zM9 35h1v1H9zM10 35h1v1h-1zM11 35h1v1h-1zM12 35h1v1h-1zM13 35h1v1h-1zM14 35h1v1h-1zM15 35h1v1h-1zM16 35h1v1h-1zM17 35h1v1h-1zM18 35h1v1h-1zM19 35h1v1h-1zM20 35h1v1h-1zM21 35h1v1h-1zM22 35h1v1h-1zM23 35h1v1h-1zM24 35h1v1h-1zM25 35h1v1h-1zM26 35h1v1h-1zM27 35h1v1h-1zM28 35h1v1h-1zM29 35h1v1h-1zM30 35h1v1h-1zM31 35h1v1h-1zM32 35h1v1h-1zM33 35h1v1h-1zM34 35h1v1h-1zM35 35h1v1h-1zM36 35h1v1h-1zM37 35h1v1h-1zM38 35h1v1h-1zM39 35h1v1h-1zM40 35h1v1h-1zM41 35h1v1h-1zM42 35h1v1h-1zM43 35h1v1h-1zM44 35h1v1h-1zM45 35h1v1h-1zM46 35h1v1h-1zM47 35h1v1h-1zM48 35h1v1h-1zM49 35h1v1h-1zM50 35h1v1h-1zM51 35h1v1h-1zM52 35h1v1h-1zM53 35h1v1h-1zM54 35h1v1h-1zM55 35h1v1h-1zM56 35h1v1h-1zM57 35h1v1h-1zM58 35h1v1h-1zM59 35h1v1h-1zM60 35h1v1h-1zM61 35h1v1h-1zM62 35h1v1h-1zM63 35h1v1h-1z"/><path fill="#ADA6F6" d="M64 35h1v1h-1zM65 35h1v1h-1zM4 36h1v1H4zM5 36h1v1H5z"/><path fill="#7A70F3" d="M6 36h1v1H6zM7 36h1v1H7zM8 36h1v1H8zM9 36h1v1H9zM10 36h1v1h-1zM11 36h1v1h-1zM12 36h1v1h-1zM13 36h1v1h-1zM14 36h1v1h-1zM15 36h1v1h-1zM16 36h1v1h-1zM17 36h1v1h-1zM18 36h1v1h-1zM19 36h1v1h-1zM20 36h1v1h-1zM21 36h1v1h-1zM22 36h1v1h-1zM23 36h1v1h-1zM24 36h1v1h-1zM25 36h1v1h-1zM26 36h1v1h-1zM27 36h1v1h-1zM28 36h1v1h-1zM29 36h1v1h-1zM30 36h1v1h-1zM31 36h1v1h-1zM32 36h1v1h-1zM33 36h1v1h-1zM34 36h1v1h-1zM35 36h1v1h-1zM36 36h1v1h-1zM37 36h1v1h-1zM38 36h1v1h-1zM39 36h1v1h-1zM40 36h1v1h-1zM41 36h1v1h-1zM42 36h1v1h-1zM43 36h1v1h-1zM44 36h1v1h-1zM45 36h1v1h-1zM46 36h1v1h-1zM47 36h1v1h-1zM48 36h1v1h-1zM49 36h1v1h-1zM50 36h1v1h-1zM51 36h1v1h-1zM52 36h1v1h-1zM53 36h1v1h-1zM54 36h1v1h-1zM55 36h1v1h-1zM56 36h1v1h-1zM57 36h1v1h-1zM58 36h1v1h-1zM59 36h1v1h-1zM60 36h1v1h-1zM61 36h1v1h-1zM62 36h1v1h-1zM63 36h1v1h-1z"/><path fill="#ADA6F6" d="M64 36h1v1h-1zM65 36h1v1h-1zM4 37h1v1H4zM5 37h1v1H5z"/><path fill="#7A70F3" d="M6 37h1v1H6zM7 37h1v1H7zM8 37h1v1H8zM9 37h1v1H9zM10 37h1v1h-1zM11 37h1v1h-1zM12 37h1v1h-1zM13 37h1v1h-1zM14 37h1v1h-1zM15 37h1v1h-1zM16 37h1v1h-1zM17 37h1v1h-1zM18 37h1v1h-1zM19 37h1v1h-1zM20 37h1v1h-1zM21 37h1v1h-1zM22 37h1v1h-1zM23 37h1v1h-1zM24 37h1v1h-1zM25 37h1v1h-1zM26 37h1v1h-1zM27 37h1v1h-1zM28 37h1v1h-1zM29 37h1v1h-1zM30 37h1v1h-1zM31 37h1v1h-1zM32 37h1v1h-1zM33 37h1v1h-1zM34 37h1v1h-1zM35 37h1v1h-1zM36 37h1v1h-1zM37 37h1v1h-1zM38 37h1v1h-1zM39 37h1v1h-1zM40 37h1v1h-1zM41 37h1v1h-1zM42 37h1v1h-1zM43 37h1v1h-1zM44 37h1v1h-1zM45 37h1v1h-1zM46 37h1v1h-1zM47 37h1v1h-1zM48 37h1v1h-1zM49 37h1v1h-1zM50 37h1v1h-1zM51 37h1v1h-1zM52 37h1v1h-1zM53 37h1v1h-1zM54 37h1v1h-1zM55 37h1v1h-1zM56 37h1v1h-1zM57 37h1v1h-1zM58 37h1v1h-1zM59 37h1v1h-1zM60 37h1v1h-1zM61 37h1v1h-1zM62 37h1v1h-1zM63 37h1v1h-1z"/><path fill="#ADA6F6" d="M64 37h1v1h-1zM65 37h1v1h-1zM4 38h1v1H4zM5 38h1v1H5z"/><path fill="#7A70F3" d="M6 38h1v1H6zM7 38h1v1H7zM8 38h1v1H8zM9 38h1v1H9zM10 38h1v1h-1zM11 38h1v1h-1zM12 38h1v1h-1zM13 38h1v1h-1zM14 38h1v1h-1zM15 38h1v1h-1zM16 38h1v1h-1zM17 38h1v1h-1zM18 38h1v1h-1zM19 38h1v1h-1zM20 38h1v1h-1zM21 38h1v1h-1zM22 38h1v1h-1zM23 38h1v1h-1zM24 38h1v1h-1zM25 38h1v1h-1zM26 38h1v1h-1zM27 38h1v1h-1zM28 38h1v1h-1zM29 38h1v1h-1zM30 38h1v1h-1zM31 38h1v1h-1zM32 38h1v1h-1zM33 38h1v1h-1zM34 38h1v1h-1zM35 38h1v1h-1zM36 38h1v1h-1zM37 38h1v1h-1zM38 38h1v1h-1zM39 38h1v1h-1zM40 38h1v1h-1zM41 38h1v1h-1zM42 38h1v1h-1zM43 38h1v1h-1zM44 38h1v1h-1zM45 38h1v1h-1zM46 38h1v1h-1zM47 38h1v1h-1zM48 38h1v1h-1zM49 38h1v1h-1zM50 38h1v1h-1zM51 38h1v1h-1zM52 38h1v1h-1zM53 38h1v1h-1zM54 38h1v1h-1zM55 38h1v1h-1zM56 38h1v1h-1zM57 38h1v1h-1zM58 38h1v1h-1zM59 38h1v1h-1zM60 38h1v1h-1zM61 38h1v1h-1zM62 38h1v1h-1zM63 38h1v1h-1z"/><path fill="#ADA6F6" d="M64 38h1v1h-1zM65 38h1v1h-1zM4 39h1v1H4zM5 39h1v1H5z"/><path fill="#7A70F3" d="M6 39h1v1H6zM7 39h1v1H7zM8 39h1v1H8zM9 39h1v1H9zM10 39h1v1h-1zM11 39h1v1h-1zM12 39h1v1h-1zM13 39h1v1h-1zM14 39h1v1h-1zM15 39h1v1h-1zM16 39h1v1h-1zM17 39h1v1h-1zM18 39h1v1h-1zM19 39h1v1h-1zM20 39h1v1h-1zM21 39h1v1h-1zM22 39h1v1h-1zM23 39h1v1h-1zM24 39h1v1h-1zM25 39h1v1h-1zM26 39h1v1h-1zM27 39h1v1h-1zM28 39h1v1h-1zM29 39h1v1h-1zM30 39h1v1h-1zM31 39h1v1h-1zM32 39h1v1h-1zM33 39h1v1h-1zM34 39h1v1h-1zM35 39h1v1h-1zM36 39h1v1h-1zM37 39h1v1h-1zM38 39h1v1h-1zM39 39h1v1h-1zM40 39h1v1h-1zM41 39h1v1h-1zM42 39h1v1h-1zM43 39h1v1h-1zM44 39h1v1h-1zM45 39h1v1h-1zM46 39h1v1h-1zM47 39h1v1h-1zM48 39h1v1h-1zM49 39h1v1h-1zM50 39h1v1h-1zM51 39h1v1h-1zM52 39h1v1h-1zM53 39h1v1h-1zM54 39h1v1h-1zM55 39h1v1h-1zM56 39h1v1h-1zM57 39h1v1h-1zM58 39h1v1h-1zM59 39h1v1h-1zM60 39h1v1h-1zM61 39h1v1h-1zM62 39h1v1h-1zM63 39h1v1h-1z"/><path fill="#ADA6F6" d="M64 39h1v1h-1zM65 39h1v1h-1zM4 40h1v1H4zM5 40h1v1H5z"/><path fill="#7A70F3" d="M6 40h1v1H6zM7 40h1v1H7zM8 40h1v1H8zM9 40h1v1H9zM10 40h1v1h-1zM11 40h1v1h-1zM12 40h1v1h-1zM13 40h1v1h-1zM14 40h1v1h-1zM15 40h1v1h-1zM16 40h1v1h-1zM17 40h1v1h-1zM18 40h1v1h-1zM19 40h1v1h-1zM20 40h1v1h-1zM21 40h1v1h-1zM22 40h1v1h-1zM23 40h1v1h-1zM24 40h1v1h-1zM25 40h1v1h-1zM26 40h1v1h-1zM27 40h1v1h-1zM28 40h1v1h-1zM29 40h1v1h-1zM30 40h1v1h-1zM31 40h1v1h-1zM32 40h1v1h-1zM33 40h1v1h-1zM34 40h1v1h-1zM35 40h1v1h-1zM36 40h1v1h-1zM37 40h1v1h-1zM38 40h1v1h-1zM39 40h1v1h-1zM40 40h1v1h-1zM41 40h1v1h-1zM42 40h1v1h-1zM43 40h1v1h-1zM44 40h1v1h-1zM45 40h1v1h-1zM46 40h1v1h-1zM47 40h1v1h-1zM48 40h1v1h-1zM49 40h1v1h-1zM50 40h1v1h-1zM51 40h1v1h-1zM52 40h1v1h-1zM53 40h1v1h-1zM54 40h1v1h-1zM55 40h1v1h-1zM56 40h1v1h-1zM57 40h1v1h-1zM58 40h1v1h-1zM59 40h1v1h-1zM60 40h1v1h-1zM61 40h1v1h-1zM62 40h1v1h-1zM63 40h1v1h-1z"/><path fill="#ADA6F6" d="M64 40h1v1h-1zM65 40h1v1h-1zM4 41h1v1H4zM5 41h1v1H5z"/><path fill="#7A70F3" d="M6 41h1v1H6zM7 41h1v1H7zM8 41h1v1H8zM9 41h1v1H9zM10 41h1v1h-1zM11 41h1v1h-1zM12 41h1v1h-1zM13 41h1v1h-1zM14 41h1v1h-1zM15 41h1v1h-1zM16 41h1v1h-1zM17 41h1v1h-1zM18 41h1v1h-1zM19 41h1v1h-1zM20 41h1v1h-1zM21 41h1v1h-1zM22 41h1v1h-1zM23 41h1v1h-1zM24 41h1v1h-1zM25 41h1v1h-1zM26 41h1v1h-1zM27 41h1v1h-1zM28 41h1v1h-1zM29 41h1v1h-1zM30 41h1v1h-1zM31 41h1v1h-1zM32 41h1v1h-1zM33 41h1v1h-1zM34 41h1v1h-1zM35 41h1v1h-1zM36 41h1v1h-1zM37 41h1v1h-1zM38 41h1v1h-1zM39 41h1v1h-1zM40 41h1v1h-1zM41 41h1v1h-1zM42 41h1v1h-1zM43 41h1v1h-1zM44 41h1v1h-1zM45 41h1v1h-1zM46 41h1v1h-1zM47 41h1v1h-1zM48 41h1v1h-1zM49 41h1v1h-1zM50 41h1v1h-1zM51 41h1v1h-1zM52 41h1v1h-1zM53 41h1v1h-1zM54 41h1v1h-1zM55 41h1v1h-1zM56 41h1v1h-1zM57 41h1v1h-1zM58 41h1v1h-1zM59 41h1v1h-1zM60 41h1v1h-1zM61 41h1v1h-1zM62 41h1v1h-1zM63 41h1v1h-1z"/><path fill="#ADA6F6" d="M64 41h1v1h-1zM65 41h1v1h-1zM4 42h1v1H4zM5 42h1v1H5z"/><path fill="#7A70F3" d="M6 42h1v1H6zM7 42h1v1H7zM8 42h1v1H8zM9 42h1v1H9zM10 42h1v1h-1zM11 42h1v1h-1zM12 42h1v1h-1zM13 42h1v1h-1zM14 42h1v1h-1zM15 42h1v1h-1zM16 42h1v1h-1zM17 42h1v1h-1zM18 42h1v1h-1zM19 42h1v1h-1zM20 42h1v1h-1zM21 42h1v1h-1zM22 42h1v1h-1zM23 42h1v1h-1zM24 42h1v1h-1zM25 42h1v1h-1zM26 42h1v1h-1zM27 42h1v1h-1zM28 42h1v1h-1zM29 42h1v1h-1zM30 42h1v1h-1zM31 42h1v1h-1zM32 42h1v1h-1zM33 42h1v1h-1zM34 42h1v1h-1zM35 42h1v1h-1zM36 42h1v1h-1zM37 42h1v1h-1zM38 42h1v1h-1zM39 42h1v1h-1zM40 42h1v1h-1zM41 42h1v1h-1zM42 42h1v1h-1zM43 42h1v1h-1zM44 42h1v1h-1zM45 42h1v1h-1zM46 42h1v1h-1zM47 42h1v1h-1zM48 42h1v1h-1zM49 42h1v1h-1zM50 42h1v1h-1zM51 42h1v1h-1zM52 42h1v1h-1zM53 42h1v1h-1zM54 42h1v1h-1zM55 42h1v1h-1zM56 42h1v1h-1zM57 42h1v1h-1zM58 42h1v1h-1zM59 42h1v1h-1zM60 42h1v1h-1zM61 42h1v1h-1zM62 42h1v1h-1zM63 42h1v1h-1z"/><path fill="#ADA6F6" d="M64 42h1v1h-1zM65 42h1v1h-1zM4 43h1v1H4zM5 43h1v1H5z"/><path fill="#7A70F3" d="M6 43h1v1H6zM7 43h1v1H7zM8 43h1v1H8zM9 43h1v1H9zM10 43h1v1h-1zM11 43h1v1h-1zM12 43h1v1h-1zM13 43h1v1h-1zM14 43h1v1h-1zM15 43h1v1h-1zM16 43h1v1h-1zM17 43h1v1h-1zM18 43h1v1h-1zM19 43h1v1h-1zM20 43h1v1h-1zM21 43h1v1h-1zM22 43h1v1h-1zM23 43h1v1h-1zM24 43h1v1h-1zM25 43h1v1h-1zM26 43h1v1h-1zM27 43h1v1h-1zM28 43h1v1h-1zM29 43h1v1h-1zM30 43h1v1h-1zM31 43h1v1h-1zM32 43h1v1h-1zM33 43h1v1h-1zM34 43h1v1h-1zM35 43h1v1h-1zM36 43h1v1h-1zM37 43h1v1h-1zM38 43h1v1h-1zM39 43h1v1h-1zM40 43h1v1h-1zM41 43h1v1h-1zM42 43h1v1h-1zM43 43h1v1h-1zM44 43h1v1h-1zM45 43h1v1h-1zM46 43h1v1h-1zM47 43h1v1h-1zM48 43h1v1h-1zM49 43h1v1h-1zM50 43h1v1h-1zM51 43h1v1h-1zM52 43h1v1h-1zM53 43h1v1h-1zM54 43h1v1h-1zM55 43h1v1h-1zM56 43h1v1h-1zM57 43h1v1h-1zM58 43h1v1h-1zM59 43h1v1h-1zM60 43h1v1h-1zM61 43h1v1h-1zM62 43h1v1h-1zM63 43h1v1h-1z"/><path fill="#ADA6F6" d="M64 43h1v1h-1zM65 43h1v1h-1zM4 44h1v1H4zM5 44h1v1H5z"/><path fill="#7A70F3" d="M6 44h1v1H6zM7 44h1v1H7zM8 44h1v1H8zM9 44h1v1H9zM10 44h1v1h-1zM11 44h1v1h-1zM12 44h1v1h-1zM13 44h1v1h-1zM14 44h1v1h-1zM15 44h1v1h-1zM16 44h1v1h-1zM17 44h1v1h-1zM18 44h1v1h-1zM19 44h1v1h-1zM20 44h1v1h-1zM21 44h1v1h-1zM22 44h1v1h-1zM23 44h1v1h-1zM24 44h1v1h-1zM25 44h1v1h-1zM26 44h1v1h-1zM27 44h1v1h-1zM28 44h1v1h-1zM29 44h1v1h-1zM30 44h1v1h-1zM31 44h1v1h-1zM32 44h1v1h-1zM33 44h1v1h-1zM34 44h1v1h-1zM35 44h1v1h-1zM36 44h1v1h-1zM37 44h1v1h-1zM38 44h1v1h-1zM39 44h1v1h-1zM40 44h1v1h-1zM41 44h1v1h-1zM42 44h1v1h-1zM43 44h1v1h-1zM44 44h1v1h-1zM45 44h1v1h-1zM46 44h1v1h-1zM47 44h1v1h-1zM48 44h1v1h-1zM49 44h1v1h-1zM50 44h1v1h-1zM51 44h1v1h-1zM52 44h1v1h-1zM53 44h1v1h-1zM54 44h1v1h-1zM55 44h1v1h-1zM56 44h1v1h-1zM57 44h1v1h-1zM58 44h1v1h-1zM59 44h1v1h-1zM60 44h1v1h-1zM61 44h1v1h-1zM62 44h1v1h-1zM63 44h1v1h-1z"/><path fill="#ADA6F6" d="M64 44h1v1h-1zM65 44h1v1h-1zM4 45h1v1H4zM5 45h1v1H5z"/><path fill="#7A70F3" d="M6 45h1v1H6zM7 45h1v1H7zM8 45h1v1H8zM9 45h1v1H9zM10 45h1v1h-1zM11 45h1v1h-1zM12 45h1v1h-1zM13 45h1v1h-1zM14 45h1v1h-1zM15 45h1v1h-1zM16 45h1v1h-1zM17 45h1v1h-1zM18 45h1v1h-1zM19 45h1v1h-1zM20 45h1v1h-1zM21 45h1v1h-1zM22 45h1v1h-1zM23 45h1v1h-1zM24 45h1v1h-1zM25 45h1v1h-1zM26 45h1v1h-1zM27 45h1v1h-1zM28 45h1v1h-1zM29 45h1v1h-1zM30 45h1v1h-1zM31 45h1v1h-1zM32 45h1v1h-1zM33 45h1v1h-1zM34 45h1v1h-1zM35 45h1v1h-1zM36 45h1v1h-1zM37 45h1v1h-1zM38 45h1v1h-1zM39 45h1v1h-1zM40 45h1v1h-1zM41 45h1v1h-1zM42 45h1v1h-1zM43 45h1v1h-1zM44 45h1v1h-1zM45 45h1v1h-1zM46 45h1v1h-1zM47 45h1v1h-1zM48 45h1v1h-1zM49 45h1v1h-1zM50 45h1v1h-1zM51 45h1v1h-1zM52 45h1v1h-1zM53 45h1v1h-1zM54 45h1v1h-1zM55 45h1v1h-1zM56 45h1v1h-1zM57 45h1v1h-1zM58 45h1v1h-1zM59 45h1v1h-1zM60 45h1v1h-1zM61 45h1v1h-1zM62 45h1v1h-1zM63 45h1v1h-1z"/><path fill="#ADA6F6" d="M64 45h1v1h-1zM65 45h1v1h-1zM4 46h1v1H4zM5 46h1v1H5z"/><path fill="#7A70F3" d="M6 46h1v1H6zM7 46h1v1H7zM8 46h1v1H8zM9 46h1v1H9zM10 46h1v1h-1zM11 46h1v1h-1zM12 46h1v1h-1zM13 46h1v1h-1zM14 46h1v1h-1zM15 46h1v1h-1zM16 46h1v1h-1zM17 46h1v1h-1zM18 46h1v1h-1zM19 46h1v1h-1zM20 46h1v1h-1zM21 46h1v1h-1zM22 46h1v1h-1zM23 46h1v1h-1zM24 46h1v1h-1zM25 46h1v1h-1zM26 46h1v1h-1zM27 46h1v1h-1zM28 46h1v1h-1zM29 46h1v1h-1zM30 46h1v1h-1zM31 46h1v1h-1zM32 46h1v1h-1z"/><path fill="#5D24BF" d="M33 46h1v1h-1zM34 46h1v1h-1zM35 46h1v1h-1zM36 46h1v1h-1z"/><path fill="#7A70F3" d="M37 46h1v1h-1zM38 46h1v1h-1zM39 46h1v1h-1zM40 46h1v1h-1zM41 46h1v1h-1zM42 46h1v1h-1zM43 46h1v1h-1zM44 46h1v1h-1zM45 46h1v1h-1zM46 46h1v1h-1zM47 46h1v1h-1zM48 46h1v1h-1zM49 46h1v1h-1zM50 46h1v1h-1zM51 46h1v1h-1zM52 46h1v1h-1zM53 46h1v1h-1zM54 46h1v1h-1zM55 46h1v1h-1zM56 46h1v1h-1zM57 46h1v1h-1zM58 46h1v1h-1zM59 46h1v1h-1zM60 46h1v1h-1zM61 46h1v1h-1zM62 46h1v1h-1zM63 46h1v1h-1z"/><path fill="#ADA6F6" d="M64 46h1v1h-1zM65 46h1v1h-1zM4 47h1v1H4zM5 47h1v1H5z"/><path fill="#7A70F3" d="M6 47h1v1H6zM7 47h1v1H7zM8 47h1v1H8zM9 47h1v1H9zM10 47h1v1h-1zM11 47h1v1h-1zM12 47h1v1h-1zM13 47h1v1h-1zM14 47h1v1h-1zM15 47h1v1h-1zM16 47h1v1h-1zM17 47h1v1h-1zM18 47h1v1h-1zM19 47h1v1h-1zM20 47h1v1h-1zM21 47h1v1h-1zM22 47h1v1h-1zM23 47h1v1h-1zM24 47h1v1h-1zM25 47h1v1h-1zM26 47h1v1h-1zM27 47h1v1h-1zM28 47h1v1h-1zM29 47h1v1h-1zM30 47h1v1h-1z"/><path fill="#5D24BF" d="M31 47h1v1h-1zM32 47h1v1h-1z"/><path fill="#F37AFF" d="M33 47h1v1h-1z"/><path fill="#CB5BFF" d="M34 47h1v1h-1zM35 47h1v1h-1z"/><path fill="#B135FF" d="M36 47h1v1h-1z"/><path fill="#5D24BF" d="M37 47h1v1h-1zM38 47h1v1h-1z"/><path fill="#7A70F3" d="M39 47h1v1h-1zM40 47h1v1h-1zM41 47h1v1h-1zM42 47h1v1h-1zM43 47h1v1h-1zM44 47h1v1h-1zM45 47h1v1h-1zM46 47h1v1h-1zM47 47h1v1h-1zM48 47h1v1h-1zM49 47h1v1h-1zM50 47h1v1h-1zM51 47h1v1h-1zM52 47h1v1h-1zM53 47h1v1h-1zM54 47h1v1h-1zM55 47h1v1h-1zM56 47h1v1h-1zM57 47h1v1h-1zM58 47h1v1h-1zM59 47h1v1h-1zM60 47h1v1h-1zM61 47h1v1h-1zM62 47h1v1h-1zM63 47h1v1h-1z"/><path fill="#ADA6F6" d="M64 47h1v1h-1zM65 47h1v1h-1zM4 48h1v1H4zM5 48h1v1H5z"/><path fill="#7A70F3" d="M6 48h1v1H6zM7 48h1v1H7zM8 48h1v1H8zM9 48h1v1H9zM10 48h1v1h-1zM11 48h1v1h-1zM12 48h1v1h-1zM13 48h1v1h-1zM14 48h1v1h-1zM15 48h1v1h-1zM16 48h1v1h-1zM17 48h1v1h-1zM18 48h1v1h-1zM19 48h1v1h-1zM20 48h1v1h-1zM21 48h1v1h-1zM22 48h1v1h-1zM23 48h1v1h-1zM24 48h1v1h-1zM25 48h1v1h-1zM26 48h1v1h-1zM27 48h1v1h-1zM28 48h1v1h-1zM29 48h1v1h-1z"/><path fill="#5D24BF" d="M30 48h1v1h-1z"/><path fill="#F37AFF" d="M31 48h1v1h-1zM32 48h1v1h-1z"/><path fill="#FFC9FF" d="M33 48h1v1h-1zM34 48h1v1h-1z"/><path fill="#CB5BFF" d="M35 48h1v1h-1zM36 48h1v1h-1z"/><path fill="#B135FF" d="M37 48h1v1h-1z"/><path fill="#CB5BFF" d="M38 48h1v1h-1z"/><path fill="#47289B" d="M39 48h1v1h-1z"/><path fill="#7A70F3" d="M40 48h1v1h-1zM41 48h1v1h-1zM42 48h1v1h-1zM43 48h1v1h-1zM44 48h1v1h-1zM45 48h1v1h-1zM46 48h1v1h-1zM47 48h1v1h-1zM48 48h1v1h-1zM49 48h1v1h-1zM50 48h1v1h-1zM51 48h1v1h-1zM52 48h1v1h-1zM53 48h1v1h-1zM54 48h1v1h-1zM55 48h1v1h-1zM56 48h1v1h-1zM57 48h1v1h-1zM58 48h1v1h-1zM59 48h1v1h-1zM60 48h1v1h-1zM61 48h1v1h-1zM62 48h1v1h-1zM63 48h1v1h-1z"/><path fill="#ADA6F6" d="M64 48h1v1h-1zM65 48h1v1h-1zM4 49h1v1H4zM5 49h1v1H5z"/><path fill="#7A70F3" d="M6 49h1v1H6zM7 49h1v1H7zM8 49h1v1H8zM9 49h1v1H9zM10 49h1v1h-1zM11 49h1v1h-1zM12 49h1v1h-1zM13 49h1v1h-1z"/><path fill="#5D24BF" d="M14 49h1v1h-1zM15 49h1v1h-1zM16 49h1v1h-1zM17 49h1v1h-1zM18 49h1v1h-1zM19 49h1v1h-1zM20 49h1v1h-1zM21 49h1v1h-1zM22 49h1v1h-1zM23 49h1v1h-1zM24 49h1v1h-1zM25 49h1v1h-1zM26 49h1v1h-1zM27 49h1v1h-1zM28 49h1v1h-1zM29 49h1v1h-1z"/><path fill="#CB5BFF" d="M30 49h1v1h-1z"/><path fill="#F37AFF" d="M31 49h1v1h-1z"/><path fill="#FFC9FF" d="M32 49h1v1h-1z"/><path fill="#FFF" d="M33 49h1v1h-1z"/><path fill="#CB5BFF" d="M34 49h1v1h-1zM35 49h1v1h-1z"/><path fill="#B135FF" d="M36 49h1v1h-1zM37 49h1v1h-1z"/><path fill="#6F16E2" d="M38 49h1v1h-1z"/><path fill="#CB5BFF" d="M39 49h1v1h-1z"/><path fill="#47289B" d="M40 49h1v1h-1z"/><path fill="#5D24BF" d="M41 49h1v1h-1zM42 49h1v1h-1zM43 49h1v1h-1zM44 49h1v1h-1zM45 49h1v1h-1zM46 49h1v1h-1zM47 49h1v1h-1zM48 49h1v1h-1zM49 49h1v1h-1zM50 49h1v1h-1zM51 49h1v1h-1zM52 49h1v1h-1zM53 49h1v1h-1zM54 49h1v1h-1zM55 49h1v1h-1z"/><path fill="#7A70F3" d="M56 49h1v1h-1zM57 49h1v1h-1zM58 49h1v1h-1zM59 49h1v1h-1zM60 49h1v1h-1zM61 49h1v1h-1zM62 49h1v1h-1zM63 49h1v1h-1z"/><path fill="#ADA6F6" d="M64 49h1v1h-1zM65 49h1v1h-1zM4 50h1v1H4zM5 50h1v1H5z"/><path fill="#7A70F3" d="M6 50h1v1H6zM7 50h1v1H7z"/><path fill="#5D24BF" d="M8 50h1v1H8zM9 50h1v1H9zM10 50h1v1h-1zM11 50h1v1h-1zM12 50h1v1h-1zM13 50h1v1h-1z"/><path fill="#9C45FF" d="M14 50h1v1h-1zM15 50h1v1h-1zM16 50h1v1h-1zM17 50h1v1h-1zM18 50h1v1h-1zM19 50h1v1h-1zM20 50h1v1h-1zM21 50h1v1h-1zM22 50h1v1h-1zM23 50h1v1h-1zM24 50h1v1h-1zM25 50h1v1h-1zM26 50h1v1h-1zM27 50h1v1h-1zM28 50h1v1h-1z"/><path fill="#5D24BF" d="M29 50h1v1h-1z"/><path fill="#B135FF" d="M30 50h1v1h-1z"/><path fill="#CB5BFF" d="M31 50h1v1h-1z"/><path fill="#FFC9FF" d="M32 50h1v1h-1z"/><path fill="#B135FF" d="M33 50h1v1h-1zM34 50h1v1h-1zM35 50h1v1h-1zM36 50h1v1h-1z"/><path fill="#6F16E2" d="M37 50h1v1h-1z"/><path fill="#47289B" d="M38 50h1v1h-1z"/><path fill="#F37AFF" d="M39 50h1v1h-1z"/><path fill="#3A2B77" d="M40 50h1v1h-1z"/><path fill="#9C45FF" d="M41 50h1v1h-1zM42 50h1v1h-1zM43 50h1v1h-1zM44 50h1v1h-1zM45 50h1v1h-1zM46 50h1v1h-1zM47 50h1v1h-1zM48 50h1v1h-1zM49 50h1v1h-1zM50 50h1v1h-1zM51 50h1v1h-1zM52 50h1v1h-1zM53 50h1v1h-1zM54 50h1v1h-1zM55 50h1v1h-1z"/><path fill="#5D24BF" d="M56 50h1v1h-1zM57 50h1v1h-1zM58 50h1v1h-1zM59 50h1v1h-1zM60 50h1v1h-1zM61 50h1v1h-1z"/><path fill="#7A70F3" d="M62 50h1v1h-1zM63 50h1v1h-1z"/><path fill="#ADA6F6" d="M64 50h1v1h-1zM65 50h1v1h-1zM4 51h1v1H4z"/><path fill="#5D24BF" d="M5 51h1v1H5zM6 51h1v1H6zM7 51h1v1H7z"/><path fill="#9C45FF" d="M8 51h1v1H8zM9 51h1v1H9zM10 51h1v1h-1zM11 51h1v1h-1zM12 51h1v1h-1zM13 51h1v1h-1zM14 51h1v1h-1zM15 51h1v1h-1zM16 51h1v1h-1zM17 51h1v1h-1zM18 51h1v1h-1zM19 51h1v1h-1zM20 51h1v1h-1zM21 51h1v1h-1zM22 51h1v1h-1z"/><path fill="#5D24BF" d="M23 51h1v1h-1zM24 51h1v1h-1z"/><path fill="#9C45FF" d="M25 51h1v1h-1zM26 51h1v1h-1zM27 51h1v1h-1zM28 51h1v1h-1z"/><path fill="#5D24BF" d="M29 51h1v1h-1z"/><path fill="#6F16E2" d="M30 51h1v1h-1z"/><path fill="#B135FF" d="M31 51h1v1h-1zM32 51h1v1h-1zM33 51h1v1h-1zM34 51h1v1h-1zM35 51h1v1h-1z"/><path fill="#6F16E2" d="M36 51h1v1h-1zM37 51h1v1h-1z"/><path fill="#47289B" d="M38 51h1v1h-1z"/><path fill="#FFC9FF" d="M39 51h1v1h-1z"/><path fill="#3A2B77" d="M40 51h1v1h-1z"/><path fill="#9C45FF" d="M41 51h1v1h-1zM42 51h1v1h-1zM43 51h1v1h-1zM44 51h1v1h-1z"/><path fill="#5D24BF" d="M45 51h1v1h-1zM46 51h1v1h-1z"/><path fill="#9C45FF" d="M47 51h1v1h-1zM48 51h1v1h-1zM49 51h1v1h-1zM50 51h1v1h-1zM51 51h1v1h-1zM52 51h1v1h-1zM53 51h1v1h-1zM54 51h1v1h-1zM55 51h1v1h-1zM56 51h1v1h-1zM57 51h1v1h-1zM58 51h1v1h-1zM59 51h1v1h-1zM60 51h1v1h-1zM61 51h1v1h-1z"/><path fill="#5D24BF" d="M62 51h1v1h-1zM63 51h1v1h-1zM64 51h1v1h-1z"/><path fill="#ADA6F6" d="M65 51h1v1h-1z"/><path fill="#5D24BF" d="M2 52h1v1H2zM3 52h1v1H3zM4 52h1v1H4z"/><path fill="#9C45FF" d="M5 52h1v1H5zM6 52h1v1H6zM7 52h1v1H7zM8 52h1v1H8zM9 52h1v1H9zM10 52h1v1h-1zM11 52h1v1h-1zM12 52h1v1h-1zM13 52h1v1h-1zM14 52h1v1h-1zM15 52h1v1h-1zM16 52h1v1h-1zM17 52h1v1h-1zM18 52h1v1h-1zM19 52h1v1h-1zM20 52h1v1h-1zM21 52h1v1h-1z"/><path fill="#5D24BF" d="M22 52h1v1h-1zM23 52h1v1h-1zM24 52h1v1h-1zM25 52h1v1h-1z"/><path fill="#9C45FF" d="M26 52h1v1h-1zM27 52h1v1h-1zM28 52h1v1h-1zM29 52h1v1h-1z"/><path fill="#47289B" d="M30 52h1v1h-1z"/><path fill="#CB5BFF" d="M31 52h1v1h-1zM32 52h1v1h-1z"/><path fill="#5D24BF" d="M33 52h1v1h-1z"/><path fill="#47289B" d="M34 52h1v1h-1zM35 52h1v1h-1zM36 52h1v1h-1z"/><path fill="#F37AFF" d="M37 52h1v1h-1z"/><path fill="#FFC9FF" d="M38 52h1v1h-1z"/><path fill="#3A2B77" d="M39 52h1v1h-1z"/><path fill="#9C45FF" d="M40 52h1v1h-1zM41 52h1v1h-1zM42 52h1v1h-1zM43 52h1v1h-1z"/><path fill="#5D24BF" d="M44 52h1v1h-1zM45 52h1v1h-1zM46 52h1v1h-1zM47 52h1v1h-1z"/><path fill="#9C45FF" d="M48 52h1v1h-1zM49 52h1v1h-1zM50 52h1v1h-1zM51 52h1v1h-1zM52 52h1v1h-1zM53 52h1v1h-1zM54 52h1v1h-1zM55 52h1v1h-1zM56 52h1v1h-1zM57 52h1v1h-1zM58 52h1v1h-1zM59 52h1v1h-1zM60 52h1v1h-1zM61 52h1v1h-1zM62 52h1v1h-1zM63 52h1v1h-1zM64 52h1v1h-1z"/><path fill="#5D24BF" d="M65 52h1v1h-1zM66 52h1v1h-1zM67 52h1v1h-1zM1 53h1v1H1z"/><path fill="#9C45FF" d="M2 53h1v1H2zM3 53h1v1H3zM4 53h1v1H4zM5 53h1v1H5zM6 53h1v1H6zM7 53h1v1H7zM8 53h1v1H8zM9 53h1v1H9zM10 53h1v1h-1zM11 53h1v1h-1zM12 53h1v1h-1zM13 53h1v1h-1zM14 53h1v1h-1zM15 53h1v1h-1zM16 53h1v1h-1zM17 53h1v1h-1zM18 53h1v1h-1zM19 53h1v1h-1zM20 53h1v1h-1zM21 53h1v1h-1zM22 53h1v1h-1z"/><path fill="#5D24BF" d="M23 53h1v1h-1zM24 53h1v1h-1z"/><path fill="#9C45FF" d="M25 53h1v1h-1zM26 53h1v1h-1zM27 53h1v1h-1zM28 53h1v1h-1zM29 53h1v1h-1zM30 53h1v1h-1z"/><path fill="#47289B" d="M31 53h1v1h-1zM32 53h1v1h-1z"/><path fill="#CB5BFF" d="M33 53h1v1h-1zM34 53h1v1h-1zM35 53h1v1h-1z"/><path fill="#F37AFF" d="M36 53h1v1h-1z"/><path fill="#3A2B77" d="M37 53h1v1h-1zM38 53h1v1h-1z"/><path fill="#9C45FF" d="M39 53h1v1h-1zM40 53h1v1h-1zM41 53h1v1h-1zM42 53h1v1h-1zM43 53h1v1h-1zM44 53h1v1h-1z"/><path fill="#5D24BF" d="M45 53h1v1h-1zM46 53h1v1h-1z"/><path fill="#9C45FF" d="M47 53h1v1h-1zM48 53h1v1h-1zM49 53h1v1h-1zM50 53h1v1h-1zM51 53h1v1h-1zM52 53h1v1h-1zM53 53h1v1h-1zM54 53h1v1h-1zM55 53h1v1h-1zM56 53h1v1h-1zM57 53h1v1h-1zM58 53h1v1h-1zM59 53h1v1h-1zM60 53h1v1h-1zM61 53h1v1h-1zM62 53h1v1h-1zM63 53h1v1h-1zM64 53h1v1h-1zM65 53h1v1h-1zM66 53h1v1h-1zM67 53h1v1h-1z"/><path fill="#5D24BF" d="M68 53h1v1h-1zM0 54h1v1H0z"/><path fill="#9C45FF" d="M1 54h1v1H1zM2 54h1v1H2zM3 54h1v1H3zM4 54h1v1H4zM5 54h1v1H5zM6 54h1v1H6zM7 54h1v1H7zM8 54h1v1H8zM9 54h1v1H9zM10 54h1v1h-1zM11 54h1v1h-1zM12 54h1v1h-1zM13 54h1v1h-1zM14 54h1v1h-1zM15 54h1v1h-1zM16 54h1v1h-1zM17 54h1v1h-1zM18 54h1v1h-1zM19 54h1v1h-1zM20 54h1v1h-1zM21 54h1v1h-1zM22 54h1v1h-1zM23 54h1v1h-1zM24 54h1v1h-1zM25 54h1v1h-1zM26 54h1v1h-1zM27 54h1v1h-1zM28 54h1v1h-1zM29 54h1v1h-1zM30 54h1v1h-1zM31 54h1v1h-1zM32 54h1v1h-1z"/><path fill="#47289B" d="M33 54h1v1h-1z"/><path fill="#3A2B77" d="M34 54h1v1h-1zM35 54h1v1h-1zM36 54h1v1h-1z"/><path fill="#9C45FF" d="M37 54h1v1h-1zM38 54h1v1h-1zM39 54h1v1h-1zM40 54h1v1h-1zM41 54h1v1h-1zM42 54h1v1h-1zM43 54h1v1h-1zM44 54h1v1h-1zM45 54h1v1h-1zM46 54h1v1h-1zM47 54h1v1h-1zM48 54h1v1h-1zM49 54h1v1h-1zM50 54h1v1h-1zM51 54h1v1h-1zM52 54h1v1h-1zM53 54h1v1h-1zM54 54h1v1h-1zM55 54h1v1h-1zM56 54h1v1h-1zM57 54h1v1h-1zM58 54h1v1h-1zM59 54h1v1h-1zM60 54h1v1h-1zM61 54h1v1h-1zM62 54h1v1h-1zM63 54h1v1h-1zM64 54h1v1h-1zM65 54h1v1h-1zM66 54h1v1h-1zM67 54h1v1h-1zM68 54h1v1h-1z"/><path fill="#5D24BF" d="M69 54h1v1h-1zM1 55h1v1H1zM2 55h1v1H2zM3 55h1v1H3zM4 55h1v1H4zM5 55h1v1H5zM6 55h1v1H6zM7 55h1v1H7zM8 55h1v1H8zM9 55h1v1H9zM10 55h1v1h-1zM11 55h1v1h-1zM12 55h1v1h-1zM13 55h1v1h-1zM14 55h1v1h-1zM15 55h1v1h-1zM16 55h1v1h-1zM17 55h1v1h-1zM18 55h1v1h-1zM19 55h1v1h-1zM20 55h1v1h-1zM21 55h1v1h-1zM22 55h1v1h-1zM23 55h1v1h-1zM24 55h1v1h-1zM25 55h1v1h-1zM26 55h1v1h-1zM27 55h1v1h-1zM28 55h1v1h-1zM29 55h1v1h-1zM30 55h1v1h-1zM31 55h1v1h-1zM32 55h1v1h-1zM33 55h1v1h-1zM34 55h1v1h-1zM35 55h1v1h-1zM36 55h1v1h-1zM37 55h1v1h-1zM38 55h1v1h-1zM39 55h1v1h-1zM40 55h1v1h-1zM41 55h1v1h-1zM42 55h1v1h-1zM43 55h1v1h-1zM44 55h1v1h-1zM45 55h1v1h-1zM46 55h1v1h-1zM47 55h1v1h-1zM48 55h1v1h-1zM49 55h1v1h-1zM50 55h1v1h-1zM51 55h1v1h-1zM52 55h1v1h-1zM53 55h1v1h-1zM54 55h1v1h-1zM55 55h1v1h-1zM56 55h1v1h-1zM57 55h1v1h-1zM58 55h1v1h-1zM59 55h1v1h-1zM60 55h1v1h-1zM61 55h1v1h-1zM62 55h1v1h-1zM63 55h1v1h-1zM64 55h1v1h-1zM65 55h1v1h-1zM66 55h1v1h-1zM67 55h1v1h-1zM68 55h1v1h-1zM2 56h1v1H2zM3 56h1v1H3zM4 56h1v1H4zM5 56h1v1H5zM6 56h1v1H6zM7 56h1v1H7zM8 56h1v1H8zM9 56h1v1H9zM10 56h1v1h-1zM11 56h1v1h-1zM12 56h1v1h-1zM13 56h1v1h-1zM14 56h1v1h-1zM15 56h1v1h-1zM16 56h1v1h-1zM17 56h1v1h-1zM18 56h1v1h-1zM19 56h1v1h-1zM20 56h1v1h-1zM21 56h1v1h-1zM22 56h1v1h-1zM23 56h1v1h-1zM24 56h1v1h-1zM25 56h1v1h-1zM26 56h1v1h-1zM27 56h1v1h-1zM28 56h1v1h-1zM29 56h1v1h-1zM30 56h1v1h-1zM31 56h1v1h-1zM32 56h1v1h-1zM33 56h1v1h-1zM34 56h1v1h-1zM35 56h1v1h-1zM36 56h1v1h-1zM37 56h1v1h-1zM38 56h1v1h-1zM39 56h1v1h-1zM40 56h1v1h-1zM41 56h1v1h-1zM42 56h1v1h-1zM43 56h1v1h-1zM44 56h1v1h-1zM45 56h1v1h-1zM46 56h1v1h-1zM47 56h1v1h-1zM48 56h1v1h-1zM49 56h1v1h-1zM50 56h1v1h-1zM51 56h1v1h-1zM52 56h1v1h-1zM53 56h1v1h-1zM54 56h1v1h-1zM55 56h1v1h-1zM56 56h1v1h-1zM57 56h1v1h-1zM58 56h1v1h-1zM59 56h1v1h-1zM60 56h1v1h-1zM61 56h1v1h-1zM62 56h1v1h-1zM63 56h1v1h-1zM64 56h1v1h-1zM65 56h1v1h-1zM66 56h1v1h-1zM67 56h1v1h-1z"/></svg>