<svg xmlns="http://www.w3.org/2000/svg" width="24" height="30" shape-rendering="crispEdges" xmlns:v="https://vecta.io/nano"><style><![CDATA[.B{fill:#8af3e2}.C{fill:#ccfaef}.D{fill:#5f478a}.E{fill:#fff}]]></style><g class="D"><path d="M12 0h1v1h-1z"/><path d="M13 0h1v1h-1z"/><path d="M12 1h1v1h-1z"/><path d="M13 1h1v1h-1zm-3 1h1v1h-1z"/><path d="M11 2h1v1h-1z"/><path d="M12 2h1v1h-1z"/><path d="M13 2h1v1h-1zm7 0h1v1h-1z"/><path d="M21 2h1v1h-1zM10 3h1v1h-1z"/><path d="M11 3h1v1h-1z"/><path d="M12 3h1v1h-1z"/><path d="M13 3h1v1h-1zm7 0h1v1h-1z"/><path d="M21 3h1v1h-1zM2 4h1v1H2z"/><path d="M3 4h1v1H3zm5 0h1v1H8z"/><path d="M9 4h1v1H9z"/></g><g class="B"><path d="M10 4h1v1h-1z"/><path d="M11 4h1v1h-1z"/></g><g class="D"><path d="M12 4h1v1h-1z"/><path d="M13 4h1v1h-1zm5 0h1v1h-1z"/><path d="M19 4h1v1h-1z"/><path d="M20 4h1v1h-1z"/><path d="M21 4h1v1h-1zM2 5h1v1H2z"/><path d="M3 5h1v1H3zm5 0h1v1H8z"/><path d="M9 5h1v1H9z"/></g><g class="B"><path d="M10 5h1v1h-1z"/><path d="M11 5h1v1h-1z"/></g><g class="D"><path d="M12 5h1v1h-1z"/><path d="M13 5h1v1h-1zm5 0h1v1h-1z"/><path d="M19 5h1v1h-1z"/><path d="M20 5h1v1h-1z"/><path d="M21 5h1v1h-1zM8 6h1v1H8z"/><path d="M9 6h1v1H9z"/></g><g class="B"><path d="M10 6h1v1h-1z"/><path d="M11 6h1v1h-1z"/></g><g class="D"><path d="M12 6h1v1h-1z"/><path d="M13 6h1v1h-1zM8 7h1v1H8z"/><path d="M9 7h1v1H9z"/></g><path d="M10 7h1v1h-1z" class="B"/><path d="M11 7h1v1h-1z" class="C"/><g class="D"><path d="M12 7h1v1h-1z"/><path d="M13 7h1v1h-1zM2 8h1v1H2z"/><path d="M3 8h1v1H3zm3 0h1v1H6z"/><path d="M7 8h1v1H7z"/></g><g class="B"><path d="M8 8h1v1H8z"/><path d="M9 8h1v1H9z"/><path d="M10 8h1v1h-1z"/></g><path d="M11 8h1v1h-1z" class="C"/><g class="B"><path d="M12 8h1v1h-1z"/><path d="M13 8h1v1h-1z"/></g><g class="D"><path d="M14 8h1v1h-1z"/><path d="M15 8h1v1h-1zm5 0h1v1h-1z"/><path d="M21 8h1v1h-1zM2 9h1v1H2z"/><path d="M3 9h1v1H3zm3 0h1v1H6z"/><path d="M7 9h1v1H7z"/></g><g class="B"><path d="M8 9h1v1H8z"/><path d="M9 9h1v1H9z"/></g><path d="M10 9h1v1h-1z" class="C"/><path d="M11 9h1v1h-1z" class="E"/><g class="B"><path d="M12 9h1v1h-1z"/><path d="M13 9h1v1h-1z"/></g><g class="D"><path d="M14 9h1v1h-1z"/><path d="M15 9h1v1h-1zm5 0h1v1h-1z"/><path d="M21 9h1v1h-1zM2 10h1v1H2z"/><path d="M3 10h1v1H3zm3 0h1v1H6z"/><path d="M7 10h1v1H7z"/></g><g class="B"><path d="M8 10h1v1H8z"/><path d="M9 10h1v1H9z"/></g><path d="M10 10h1v1h-1z" class="C"/><path d="M11 10h1v1h-1z" class="E"/><path d="M12 10h1v1h-1z" class="C"/><g class="B"><path d="M13 10h1v1h-1z"/><path d="M14 10h1v1h-1z"/><path d="M15 10h1v1h-1z"/></g><g class="D"><path d="M16 10h1v1h-1z"/><path d="M17 10h1v1h-1z"/><path d="M18 10h1v1h-1z"/><path d="M19 10h1v1h-1z"/><path d="M20 10h1v1h-1z"/><path d="M21 10h1v1h-1zM2 11h1v1H2z"/><path d="M3 11h1v1H3zm3 0h1v1H6z"/><path d="M7 11h1v1H7z"/></g><path d="M8 11h1v1H8z" class="B"/><path d="M9 11h1v1H9z" class="C"/><g class="E"><path d="M10 11h1v1h-1z"/><path d="M11 11h1v1h-1z"/></g><path d="M12 11h1v1h-1z" class="C"/><path d="M13 11h1v1h-1z" class="B"/><path d="M14 11h1v1h-1z" class="C"/><path d="M15 11h1v1h-1z" class="B"/><g class="D"><path d="M16 11h1v1h-1z"/><path d="M17 11h1v1h-1z"/><path d="M18 11h1v1h-1z"/><path d="M19 11h1v1h-1z"/><path d="M20 11h1v1h-1z"/><path d="M21 11h1v1h-1zM2 12h1v1H2z"/><path d="M3 12h1v1H3z"/><path d="M4 12h1v1H4z"/><path d="M5 12h1v1H5z"/></g><g class="B"><path d="M6 12h1v1H6z"/><path d="M7 12h1v1H7z"/><path d="M8 12h1v1H8z"/></g><path d="M9 12h1v1H9z" class="C"/><g class="E"><path d="M10 12h1v1h-1z"/><path d="M11 12h1v1h-1z"/></g><g class="C"><path d="M12 12h1v1h-1z"/><path d="M13 12h1v1h-1z"/></g><path d="M14 12h1v1h-1z" class="E"/><g class="B"><path d="M15 12h1v1h-1z"/><path d="M16 12h1v1h-1z"/><path d="M17 12h1v1h-1z"/><path d="M18 12h1v1h-1z"/><path d="M19 12h1v1h-1z"/></g><g class="D"><path d="M20 12h1v1h-1z"/><path d="M21 12h1v1h-1zM2 13h1v1H2z"/><path d="M3 13h1v1H3z"/><path d="M4 13h1v1H4z"/><path d="M5 13h1v1H5z"/></g><g class="B"><path d="M6 13h1v1H6z"/><path d="M7 13h1v1H7z"/></g><path d="M8 13h1v1H8z" class="C"/><g class="E"><path d="M9 13h1v1H9z"/><path d="M10 13h1v1h-1z"/><path d="M11 13h1v1h-1z"/><path d="M12 13h1v1h-1z"/></g><path d="M13 13h1v1h-1z" class="C"/><path d="M14 13h1v1h-1z" class="E"/><path d="M15 13h1v1h-1z" class="C"/><path d="M16 13h1v1h-1z" class="B"/><path d="M17 13h1v1h-1z" class="C"/><g class="B"><path d="M18 13h1v1h-1z"/><path d="M19 13h1v1h-1z"/></g><g class="D"><path d="M20 13h1v1h-1z"/><path d="M21 13h1v1h-1zM2 14h1v1H2z"/><path d="M3 14h1v1H3z"/></g><g class="B"><path d="M4 14h1v1H4z"/><path d="M5 14h1v1H5z"/><path d="M6 14h1v1H6z"/></g><path d="M7 14h1v1H7z" class="C"/><g class="E"><path d="M8 14h1v1H8z"/><path d="M9 14h1v1H9z"/><path d="M10 14h1v1h-1z"/><path d="M11 14h1v1h-1z"/><path d="M12 14h1v1h-1z"/></g><g class="C"><path d="M13 14h1v1h-1z"/><path d="M14 14h1v1h-1z"/><path d="M15 14h1v1h-1z"/><path d="M16 14h1v1h-1z"/></g><path d="M17 14h1v1h-1z" class="E"/><path d="M18 14h1v1h-1z" class="C"/><path d="M19 14h1v1h-1z" class="B"/><g class="D"><path d="M20 14h1v1h-1z"/><path d="M21 14h1v1h-1zM2 15h1v1H2z"/><path d="M3 15h1v1H3z"/></g><g class="B"><path d="M4 15h1v1H4z"/><path d="M5 15h1v1H5z"/></g><path d="M6 15h1v1H6z" class="C"/><g class="E"><path d="M7 15h1v1H7z"/><path d="M8 15h1v1H8z"/><path d="M9 15h1v1H9z"/><path d="M10 15h1v1h-1z"/><path d="M11 15h1v1h-1z"/><path d="M12 15h1v1h-1z"/><path d="M13 15h1v1h-1z"/></g><g class="C"><path d="M14 15h1v1h-1z"/><path d="M15 15h1v1h-1z"/></g><g class="E"><path d="M16 15h1v1h-1z"/><path d="M17 15h1v1h-1z"/></g><g class="C"><path d="M18 15h1v1h-1z"/><path d="M19 15h1v1h-1z"/></g><g class="D"><path d="M20 15h1v1h-1z"/><path d="M21 15h1v1h-1zM0 16h1v1H0z"/><path d="M1 16h1v1H1z"/></g><g class="B"><path d="M2 16h1v1H2z"/><path d="M3 16h1v1H3z"/><path d="M4 16h1v1H4z"/></g><path d="M5 16h1v1H5z" class="C"/><g class="E"><path d="M6 16h1v1H6z"/><path d="M7 16h1v1H7z"/><path d="M8 16h1v1H8z"/><path d="M9 16h1v1H9z"/><path d="M10 16h1v1h-1z"/><path d="M11 16h1v1h-1z"/><path d="M12 16h1v1h-1z"/><path d="M13 16h1v1h-1z"/><path d="M14 16h1v1h-1z"/><path d="M15 16h1v1h-1z"/><path d="M16 16h1v1h-1z"/><path d="M17 16h1v1h-1z"/><path d="M18 16h1v1h-1z"/></g><g class="C"><path d="M19 16h1v1h-1z"/><path d="M20 16h1v1h-1z"/></g><path d="M21 16h1v1h-1z" class="B"/><g class="D"><path d="M22 16h1v1h-1z"/><path d="M23 16h1v1h-1zM0 17h1v1H0z"/><path d="M1 17h1v1H1z"/></g><g class="B"><path d="M2 17h1v1H2z"/><path d="M3 17h1v1H3z"/></g><path d="M4 17h1v1H4z" class="C"/><g class="E"><path d="M5 17h1v1H5z"/><path d="M6 17h1v1H6z"/><path d="M7 17h1v1H7z"/><path d="M8 17h1v1H8z"/><path d="M9 17h1v1H9z"/><path d="M10 17h1v1h-1z"/><path d="M11 17h1v1h-1z"/><path d="M12 17h1v1h-1z"/><path d="M13 17h1v1h-1z"/><path d="M14 17h1v1h-1z"/><path d="M15 17h1v1h-1z"/><path d="M16 17h1v1h-1z"/><path d="M17 17h1v1h-1z"/><path d="M18 17h1v1h-1z"/><path d="M19 17h1v1h-1z"/></g><path d="M20 17h1v1h-1z" class="C"/><path d="M21 17h1v1h-1z" class="B"/><g class="D"><path d="M22 17h1v1h-1z"/><path d="M23 17h1v1h-1zM0 18h1v1H0z"/><path d="M1 18h1v1H1z"/></g><g class="B"><path d="M2 18h1v1H2z"/><path d="M3 18h1v1H3z"/></g><path d="M4 18h1v1H4z" class="C"/><g class="E"><path d="M5 18h1v1H5z"/><path d="M6 18h1v1H6z"/></g><g class="D"><path d="M7 18h1v1H7z"/><path d="M8 18h1v1H8z"/><path d="M9 18h1v1H9z"/></g><g class="E"><path d="M10 18h1v1h-1z"/><path d="M11 18h1v1h-1z"/><path d="M12 18h1v1h-1z"/><path d="M13 18h1v1h-1z"/><path d="M14 18h1v1h-1z"/></g><g class="D"><path d="M15 18h1v1h-1z"/><path d="M16 18h1v1h-1z"/><path d="M17 18h1v1h-1z"/></g><g class="E"><path d="M18 18h1v1h-1z"/><path d="M19 18h1v1h-1z"/></g><path d="M20 18h1v1h-1z" class="C"/><path d="M21 18h1v1h-1z" class="B"/><g class="D"><path d="M22 18h1v1h-1z"/><path d="M23 18h1v1h-1zM0 19h1v1H0z"/><path d="M1 19h1v1H1z"/></g><g class="B"><path d="M2 19h1v1H2z"/><path d="M3 19h1v1H3z"/></g><path d="M4 19h1v1H4z" class="C"/><path d="M5 19h1v1H5z" class="E"/><g class="D"><path d="M6 19h1v1H6z"/><path d="M7 19h1v1H7z"/><path d="M8 19h1v1H8z"/><path d="M9 19h1v1H9z"/><path d="M10 19h1v1h-1z"/></g><g class="E"><path d="M11 19h1v1h-1z"/><path d="M12 19h1v1h-1z"/><path d="M13 19h1v1h-1z"/></g><g class="D"><path d="M14 19h1v1h-1z"/><path d="M15 19h1v1h-1z"/><path d="M16 19h1v1h-1z"/><path d="M17 19h1v1h-1z"/><path d="M18 19h1v1h-1z"/></g><path d="M19 19h1v1h-1z" class="E"/><path d="M20 19h1v1h-1z" class="C"/><path d="M21 19h1v1h-1z" class="B"/><g class="D"><path d="M22 19h1v1h-1z"/><path d="M23 19h1v1h-1zM0 20h1v1H0z"/><path d="M1 20h1v1H1z"/></g><g class="B"><path d="M2 20h1v1H2z"/><path d="M3 20h1v1H3z"/></g><path d="M4 20h1v1H4z" class="C"/><path d="M5 20h1v1H5z" class="E"/><g class="D"><path d="M6 20h1v1H6z"/><path d="M7 20h1v1H7z"/><path d="M8 20h1v1H8z"/><path d="M9 20h1v1H9z"/><path d="M10 20h1v1h-1z"/></g><g class="E"><path d="M11 20h1v1h-1z"/><path d="M12 20h1v1h-1z"/><path d="M13 20h1v1h-1z"/></g><g class="D"><path d="M14 20h1v1h-1z"/><path d="M15 20h1v1h-1z"/><path d="M16 20h1v1h-1z"/><path d="M17 20h1v1h-1z"/><path d="M18 20h1v1h-1z"/></g><path d="M19 20h1v1h-1z" class="E"/><path d="M20 20h1v1h-1z" class="C"/><path d="M21 20h1v1h-1z" class="B"/><g class="D"><path d="M22 20h1v1h-1z"/><path d="M23 20h1v1h-1zM0 21h1v1H0z"/><path d="M1 21h1v1H1z"/></g><g class="B"><path d="M2 21h1v1H2z"/><path d="M3 21h1v1H3z"/></g><path d="M4 21h1v1H4z" class="C"/><path d="M5 21h1v1H5z" class="E"/><g class="D"><path d="M6 21h1v1H6z"/><path d="M7 21h1v1H7z"/><path d="M8 21h1v1H8z"/><path d="M9 21h1v1H9z"/><path d="M10 21h1v1h-1z"/></g><g class="E"><path d="M11 21h1v1h-1z"/><path d="M12 21h1v1h-1z"/><path d="M13 21h1v1h-1z"/></g><g class="D"><path d="M14 21h1v1h-1z"/><path d="M15 21h1v1h-1z"/><path d="M16 21h1v1h-1z"/><path d="M17 21h1v1h-1z"/><path d="M18 21h1v1h-1z"/></g><path d="M19 21h1v1h-1z" class="E"/><path d="M20 21h1v1h-1z" class="C"/><path d="M21 21h1v1h-1z" class="B"/><g class="D"><path d="M22 21h1v1h-1z"/><path d="M23 21h1v1h-1zM0 22h1v1H0z"/><path d="M1 22h1v1H1z"/></g><g class="B"><path d="M2 22h1v1H2z"/><path d="M3 22h1v1H3z"/></g><path d="M4 22h1v1H4z" class="C"/><g class="E"><path d="M5 22h1v1H5z"/><path d="M6 22h1v1H6z"/></g><g class="D"><path d="M7 22h1v1H7z"/><path d="M8 22h1v1H8z"/><path d="M9 22h1v1H9z"/></g><g class="E"><path d="M10 22h1v1h-1z"/><path d="M11 22h1v1h-1z"/><path d="M12 22h1v1h-1z"/><path d="M13 22h1v1h-1z"/><path d="M14 22h1v1h-1z"/></g><g class="D"><path d="M15 22h1v1h-1z"/><path d="M16 22h1v1h-1z"/><path d="M17 22h1v1h-1z"/></g><g class="E"><path d="M18 22h1v1h-1z"/><path d="M19 22h1v1h-1z"/></g><path d="M20 22h1v1h-1z" class="C"/><path d="M21 22h1v1h-1z" class="B"/><g class="D"><path d="M22 22h1v1h-1z"/><path d="M23 22h1v1h-1zM0 23h1v1H0z"/><path d="M1 23h1v1H1z"/></g><g class="B"><path d="M2 23h1v1H2z"/><path d="M3 23h1v1H3z"/><path d="M4 23h1v1H4z"/></g><path d="M5 23h1v1H5z" class="C"/><g class="E"><path d="M6 23h1v1H6z"/><path d="M7 23h1v1H7z"/><path d="M8 23h1v1H8z"/><path d="M9 23h1v1H9z"/><path d="M10 23h1v1h-1z"/><path d="M11 23h1v1h-1z"/><path d="M12 23h1v1h-1z"/><path d="M13 23h1v1h-1z"/><path d="M14 23h1v1h-1z"/><path d="M15 23h1v1h-1z"/><path d="M16 23h1v1h-1z"/><path d="M17 23h1v1h-1z"/><path d="M18 23h1v1h-1z"/></g><path d="M19 23h1v1h-1z" class="C"/><g class="B"><path d="M20 23h1v1h-1z"/><path d="M21 23h1v1h-1z"/></g><g class="D"><path d="M22 23h1v1h-1z"/><path d="M23 23h1v1h-1zM2 24h1v1H2z"/><path d="M3 24h1v1H3z"/></g><g class="B"><path d="M4 24h1v1H4z"/><path d="M5 24h1v1H5z"/></g><path d="M6 24h1v1H6z" class="C"/><g class="E"><path d="M7 24h1v1H7z"/><path d="M8 24h1v1H8z"/><path d="M9 24h1v1H9z"/><path d="M10 24h1v1h-1z"/><path d="M11 24h1v1h-1z"/><path d="M12 24h1v1h-1z"/><path d="M13 24h1v1h-1z"/><path d="M14 24h1v1h-1z"/><path d="M15 24h1v1h-1z"/></g><g class="C"><path d="M16 24h1v1h-1z"/><path d="M17 24h1v1h-1z"/><path d="M18 24h1v1h-1z"/></g><path d="M19 24h1v1h-1z" class="B"/><g class="D"><path d="M20 24h1v1h-1z"/><path d="M21 24h1v1h-1zM2 25h1v1H2z"/><path d="M3 25h1v1H3z"/></g><g class="B"><path d="M4 25h1v1H4z"/><path d="M5 25h1v1H5z"/><path d="M6 25h1v1H6z"/></g><g class="C"><path d="M7 25h1v1H7z"/><path d="M8 25h1v1H8z"/><path d="M9 25h1v1H9z"/><path d="M10 25h1v1h-1z"/><path d="M11 25h1v1h-1z"/><path d="M12 25h1v1h-1z"/><path d="M13 25h1v1h-1z"/><path d="M14 25h1v1h-1z"/><path d="M15 25h1v1h-1z"/></g><g class="B"><path d="M16 25h1v1h-1z"/><path d="M17 25h1v1h-1z"/><path d="M18 25h1v1h-1z"/><path d="M19 25h1v1h-1z"/></g><g class="D"><path d="M20 25h1v1h-1z"/><path d="M21 25h1v1h-1zM4 26h1v1H4z"/><path d="M5 26h1v1H5z"/><path d="M6 26h1v1H6z"/><path d="M7 26h1v1H7z"/></g><g class="B"><path d="M8 26h1v1H8z"/><path d="M9 26h1v1H9z"/><path d="M10 26h1v1h-1z"/><path d="M11 26h1v1h-1z"/><path d="M12 26h1v1h-1z"/><path d="M13 26h1v1h-1z"/><path d="M14 26h1v1h-1z"/><path d="M15 26h1v1h-1z"/></g><g class="D"><path d="M16 26h1v1h-1z"/><path d="M17 26h1v1h-1z"/><path d="M18 26h1v1h-1z"/><path d="M19 26h1v1h-1zM4 27h1v1H4z"/><path d="M5 27h1v1H5z"/><path d="M6 27h1v1H6z"/><path d="M7 27h1v1H7z"/></g><g class="B"><path d="M8 27h1v1H8z"/><path d="M9 27h1v1H9z"/><path d="M10 27h1v1h-1z"/><path d="M11 27h1v1h-1z"/><path d="M12 27h1v1h-1z"/><path d="M13 27h1v1h-1z"/><path d="M14 27h1v1h-1z"/><path d="M15 27h1v1h-1z"/></g><g class="D"><path d="M16 27h1v1h-1z"/><path d="M17 27h1v1h-1z"/><path d="M18 27h1v1h-1z"/><path d="M19 27h1v1h-1zM8 28h1v1H8z"/><path d="M9 28h1v1H9z"/><path d="M10 28h1v1h-1z"/><path d="M11 28h1v1h-1z"/><path d="M12 28h1v1h-1z"/><path d="M13 28h1v1h-1z"/><path d="M14 28h1v1h-1z"/><path d="M15 28h1v1h-1zm-7 1h1v1H8z"/><path d="M9 29h1v1H9z"/><path d="M10 29h1v1h-1z"/><path d="M11 29h1v1h-1z"/><path d="M12 29h1v1h-1z"/><path d="M13 29h1v1h-1z"/><path d="M14 29h1v1h-1z"/><path d="M15 29h1v1h-1z"/></g></svg>